<?xml version="1.0" encoding="utf-8"?><svg><g
transform="translate(0,1200)"><rect x="0" y="-1199" width="1599"
height="1199" style="fill:rgb(0,0,0)" /><line x1=" 0.000" y1="-0.000"
x2="1600.000" y2="-0.000" style="stroke:rgb(99,99,99);stroke-width:1" /><line
x1="1600.000" y1="-0.000" x2="1600.000" y2="-1200.000"
style="stroke:rgb(99,99,99);stroke-width:1" /><line x1="1600.000"
y1="-1200.000" x2=" 0.000" y2="-1200.000"
style="stroke:rgb(99,99,99);stroke-width:1" /><line x1=" 0.000"
y1="-1200.000" x2=" 0.000" y2="-0.000"
style="stroke:rgb(99,99,99);stroke-width:1" /><line x1="146.877"
y1="-134.245" x2="146.877" y2="-1100.245"
style="stroke:rgb(0,0,255);stroke-width:3" /><line x1="146.877"
y1="-1100.245" x2="1462.877" y2="-1100.245"
style="stroke:rgb(0,0,255);stroke-width:3" /><line x1="1462.877"
y1="-134.245" x2="1462.877" y2="-1100.245"
style="stroke:rgb(0,0,255);stroke-width:3" /><line x1="146.877"
y1="-134.245" x2="1462.877" y2="-134.245"
style="stroke:rgb(0,0,255);stroke-width:3" /><arc cx="401.268"
cy="-628.457" r="86.578" ang1=" 1.637" ang2=" 4.647"
stroke="rgb(144,152,0)" stroke-width="1" /><line x1="470.137"
y1="-628.358" x2="499.398" y2="-628.358"
style="stroke:rgb(144,152,0);stroke-width:1" /><line x1="527.864"
y1="-628.284" x2="587.972" y2="-628.284"
style="stroke:rgb(47,47,47);stroke-width:10" /><line x1="541.436"
y1="-585.081" x2="587.644" y2="-614.470"
style="stroke:rgb(47,47,47);stroke-width:10" /><line x1="604.226"
y1="-628.401" x2="658.778" y2="-628.401"
style="stroke:rgb(144,152,0);stroke-width:1" /><circle cx="849.835"
cy="-544.810" r="20.660" stroke="rgb(128,128,128)" stroke-width="1"
fill="rgb(0,0,0)" /><circle cx="896.281" cy="-544.810" r="20.660"
stroke="rgb(128,128,128)" stroke-width="1" fill="rgb(0,0,0)" /><line
x1="846.039" y1="-572.658" x2="846.039" y2="-590.445"
style="stroke:rgb(128,128,128);stroke-width:1" /><line x1="851.710"
y1="-569.744" x2="851.710" y2="-587.532"
style="stroke:rgb(128,128,128);stroke-width:1" /><line x1="840.368"
y1="-583.085" x2="859.986" y2="-574.651"
style="stroke:rgb(128,128,128);stroke-width:1" /><line x1="891.641"
y1="-571.431" x2="891.641" y2="-589.219"
style="stroke:rgb(128,128,128);stroke-width:1" /><line x1="897.312"
y1="-568.518" x2="897.312" y2="-586.305"
style="stroke:rgb(128,128,128);stroke-width:1" /><line x1="885.970"
y1="-581.858" x2="905.588" y2="-573.425"
style="stroke:rgb(128,128,128);stroke-width:1" /><line x1="811.402"
y1="-547.063" x2="938.318" y2="-547.063"
style="stroke:rgb(128,128,128);stroke-width:1" /><circle cx="846.464"
cy="-689.827" r="20.660" stroke="rgb(128,128,128)" stroke-width="1"
fill="rgb(0,0,0)" /><circle cx="892.910" cy="-689.827" r="20.660"
stroke="rgb(128,128,128)" stroke-width="1" fill="rgb(0,0,0)" /><line
x1="842.668" y1="-717.675" x2="842.668" y2="-735.462"
style="stroke:rgb(128,128,128);stroke-width:1" /><line x1="848.339"
y1="-714.762" x2="848.339" y2="-732.549"
style="stroke:rgb(128,128,128);stroke-width:1" /><line x1="836.997"
y1="-728.102" x2="856.615" y2="-719.668"
style="stroke:rgb(128,128,128);stroke-width:1" /><line x1="888.270"
y1="-716.449" x2="888.270" y2="-734.236"
style="stroke:rgb(128,128,128);stroke-width:1" /><line x1="893.941"
y1="-713.535" x2="893.941" y2="-731.323"
style="stroke:rgb(128,128,128);stroke-width:1" /><line x1="882.599"
y1="-726.876" x2="902.217" y2="-718.442"
style="stroke:rgb(128,128,128);stroke-width:1" /><line x1="808.031"
y1="-692.080" x2="934.947" y2="-692.080"
style="stroke:rgb(128,128,128);stroke-width:1" /><line x1="294.987"
y1="-240.318" x2="294.960" y2="-1017.927"
style="stroke:rgb(144,152,0);stroke-width:1" /><arc cx="714.026"
cy="-629.329" r="86.578" ang1=" 4.778" ang2=" 1.505"
stroke="rgb(144,152,0)" stroke-width="1" /><line x1="973.954"
y1="-625.112" x2="973.954" y2="-501.175"
style="stroke:rgb(144,152,0);stroke-width:1" /><line x1="973.954"
y1="-501.175" x2="906.458" y2="-501.175"
style="stroke:rgb(144,152,0);stroke-width:1" /><line x1="906.458"
y1="-501.175" x2="906.458" y2="-394.207"
style="stroke:rgb(144,152,0);stroke-width:1" /><line x1="906.458"
y1="-394.207" x2="934.495" y2="-394.207"
style="stroke:rgb(144,152,0);stroke-width:1" /><line x1="934.495"
y1="-380.896" x2="934.495" y2="-407.461"
style="stroke:rgb(144,152,0);stroke-width:1" /><line x1="940.840"
y1="-380.896" x2="940.840" y2="-407.461"
style="stroke:rgb(144,152,0);stroke-width:1" /><circle cx="1003.518"
cy="-334.940" r="21.009" stroke="rgb(47,47,47)" stroke-width="3"
fill="rgb(0,0,0)" /><circle cx="1003.455" cy="-394.348" r="21.009"
stroke="rgb(47,47,47)" stroke-width="3" fill="rgb(0,0,0)" /><circle
cx="1003.455" cy="-451.013" r="21.009" stroke="rgb(47,47,47)"
stroke-width="3" fill="rgb(0,0,0)" /><line x1="982.446" y1="-394.348"
x2="940.840" y2="-394.348" style="stroke:rgb(144,152,0);stroke-width:1" /><line
x1="1024.464" y1="-394.348" x2="1039.314" y2="-394.348"
style="stroke:rgb(144,152,0);stroke-width:1" /><line x1="1039.389"
y1="-379.368" x2="1039.389" y2="-409.005"
style="stroke:rgb(144,152,0);stroke-width:1" /><line x1="1042.743"
y1="-383.871" x2="1042.743" y2="-403.158"
style="stroke:rgb(144,152,0);stroke-width:1" /><line x1="1046.461"
y1="-389.244" x2="1046.461" y2="-397.785"
style="stroke:rgb(144,152,0);stroke-width:1" /><line x1="973.954"
y1="-625.112" x2="973.954" y2="-752.757"
style="stroke:rgb(144,152,0);stroke-width:1" /><line x1="973.954"
y1="-752.757" x2="905.641" y2="-752.757"
style="stroke:rgb(144,152,0);stroke-width:1" /><line x1="905.641"
y1="-752.757" x2="905.641" y2="-920.955"
style="stroke:rgb(144,152,0);stroke-width:1" /><line x1="905.641"
y1="-920.955" x2="942.293" y2="-920.955"
style="stroke:rgb(144,152,0);stroke-width:1" /><line x1="950.299"
y1="-845.592" x2="1012.040" y2="-845.592"
style="stroke:rgb(47,47,47);stroke-width:3" /><line x1="969.338"
y1="-803.508" x2="1011.712" y2="-830.462"
style="stroke:rgb(0,255,0);stroke-width:3" /><line x1="934.954"
y1="-827.346" x2="934.954" y2="-858.793"
style="stroke:rgb(144,152,0);stroke-width:1" /><line x1="934.954"
y1="-842.122" x2="905.641" y2="-842.122"
style="stroke:rgb(144,152,0);stroke-width:1" /><line x1="1024.464"
y1="-841.460" x2="1039.314" y2="-841.460"
style="stroke:rgb(144,152,0);stroke-width:1" /><line x1="1039.389"
y1="-826.479" x2="1039.389" y2="-856.116"
style="stroke:rgb(144,152,0);stroke-width:1" /><line x1="1042.743"
y1="-830.983" x2="1042.743" y2="-850.270"
style="stroke:rgb(144,152,0);stroke-width:1" /><line x1="1046.461"
y1="-836.356" x2="1046.461" y2="-844.897"
style="stroke:rgb(144,152,0);stroke-width:1" /><line x1="947.687"
y1="-911.433" x2="1010.828" y2="-911.433"
style="stroke:rgb(144,152,0);stroke-width:2" /><line x1="1010.828"
y1="-911.433" x2="1010.828" y2="-930.562"
style="stroke:rgb(144,152,0);stroke-width:2" /><line x1="1010.828"
y1="-930.562" x2="947.687" y2="-930.562"
style="stroke:rgb(144,152,0);stroke-width:2" /><line x1="947.687"
y1="-930.562" x2="947.687" y2="-911.433"
style="stroke:rgb(144,152,0);stroke-width:2" /><line x1="942.293"
y1="-920.955" x2="957.131" y2="-920.955"
style="stroke:rgb(144,152,0);stroke-width:2" /><line x1="957.131"
y1="-914.606" x2="957.131" y2="-927.305"
style="stroke:rgb(144,152,0);stroke-width:2" /><line x1="957.131"
y1="-927.305" x2="992.844" y2="-920.955"
style="stroke:rgb(144,152,0);stroke-width:2" /><line x1="957.131"
y1="-914.606" x2="992.844" y2="-920.955"
style="stroke:rgb(144,152,0);stroke-width:2" /><line x1="1024.576"
y1="-921.116" x2="1039.426" y2="-921.116"
style="stroke:rgb(144,152,0);stroke-width:1" /><line x1="1039.500"
y1="-906.136" x2="1039.500" y2="-935.773"
style="stroke:rgb(144,152,0);stroke-width:1" /><line x1="1042.854"
y1="-910.639" x2="1042.854" y2="-929.927"
style="stroke:rgb(144,152,0);stroke-width:1" /><line x1="1046.572"
y1="-916.012" x2="1046.572" y2="-924.554"
style="stroke:rgb(144,152,0);stroke-width:1" /><line x1="800.599"
y1="-628.401" x2="1085.672" y2="-628.401"
style="stroke:rgb(144,152,0);stroke-width:1" /><circle cx="1234.583"
cy="-335.677" r="21.009" stroke="rgb(47,47,47)" stroke-width="3"
fill="rgb(0,0,0)" /><circle cx="1234.520" cy="-395.085" r="21.009"
stroke="rgb(47,47,47)" stroke-width="3" fill="rgb(0,0,0)" /><circle
cx="1234.520" cy="-451.750" r="21.009" stroke="rgb(47,47,47)"
stroke-width="3" fill="rgb(0,0,0)" /><circle cx="1137.686" cy="-578.593"
r="21.009" stroke="rgb(47,47,47)" stroke-width="3" fill="rgb(0,0,0)" /><line
x1="1094.575" y1="-261.289" x2="1094.575" y2="-619.250"
style="stroke:rgb(128,128,128);stroke-width:1" /><line x1="1094.575"
y1="-619.250" x2="1339.165" y2="-619.250"
style="stroke:rgb(128,128,128);stroke-width:1" /><line x1="1339.165"
y1="-619.250" x2="1339.165" y2="-261.289"
style="stroke:rgb(128,128,128);stroke-width:1" /><line x1="1339.165"
y1="-261.289" x2="1094.575" y2="-261.289"
style="stroke:rgb(128,128,128);stroke-width:1" /><circle cx="1234.583"
cy="-768.358" r="21.009" stroke="rgb(47,47,47)" stroke-width="3"
fill="rgb(0,0,0)" /><circle cx="1234.520" cy="-886.900" r="21.009"
stroke="rgb(255,0,0)" stroke-width="3" fill="rgb(0,0,0)" /><line
x1="1221.018" y1="-871.326" x2="1248.023" y2="-902.473"
style="stroke:rgb(255,0,0);stroke-width:3" /><line x1="1234.520"
y1="-886.900" x2="1221.955" y2="-903.238"
style="stroke:rgb(255,0,0);stroke-width:3" /><line x1="1234.520"
y1="-886.900" x2="1246.713" y2="-870.281"
style="stroke:rgb(255,0,0);stroke-width:3" /><line x1="1094.575"
y1="-653.148" x2="1094.575" y2="-1011.109"
style="stroke:rgb(128,128,128);stroke-width:1" /><line x1="1094.575"
y1="-1011.109" x2="1339.165" y2="-1011.109"
style="stroke:rgb(128,128,128);stroke-width:1" /><line x1="1339.165"
y1="-1011.109" x2="1339.165" y2="-653.148"
style="stroke:rgb(128,128,128);stroke-width:1" /><line x1="1339.165"
y1="-653.148" x2="1094.575" y2="-653.148"
style="stroke:rgb(128,128,128);stroke-width:1" /><line x1="599.793"
y1="-796.017" x2="636.105" y2="-821.914"
style="stroke:rgb(128,128,128);stroke-width:1" /><line x1="601.655"
y1="-811.656" x2="633.498" y2="-833.640"
style="stroke:rgb(128,128,128);stroke-width:1" /><line x1="636.200"
y1="-849.281" x2="599.406" y2="-824.074"
style="stroke:rgb(128,128,128);stroke-width:1" /><line x1="659.328"
y1="-796.017" x2="695.640" y2="-821.914"
style="stroke:rgb(128,128,128);stroke-width:1" /><line x1="661.190"
y1="-811.656" x2="693.033" y2="-833.640"
style="stroke:rgb(128,128,128);stroke-width:1" /><line x1="695.735"
y1="-849.281" x2="658.941" y2="-824.074"
style="stroke:rgb(128,128,128);stroke-width:1" /><arc cx="1139.286"
cy="-767.345" r="14.464" ang1=" 1.682" ang2=" 4.601" stroke="rgb(79,0,0)"
stroke-width="0" /><line x1="1137.685" y1="-752.970" x2="1151.510"
y2="-752.970" style="stroke:rgb(79,0,0);stroke-width:0" /><line
x1="1137.685" y1="-781.721" x2="1151.510" y2="-781.721"
style="stroke:rgb(79,0,0);stroke-width:0" /><line x1="1151.510"
y1="-747.294" x2="1151.510" y2="-787.426"
style="stroke:rgb(79,0,0);stroke-width:0" /><line x1="1151.510"
y1="-747.294" x2="1178.173" y2="-747.294"
style="stroke:rgb(79,0,0);stroke-width:0" /><line x1="1178.173"
y1="-747.294" x2="1178.173" y2="-787.426"
style="stroke:rgb(79,0,0);stroke-width:0" /><line x1="1178.173"
y1="-787.426" x2="1151.510" y2="-787.426"
style="stroke:rgb(79,0,0);stroke-width:0" /><arc cx="1139.003"
cy="-858.899" r="14.464" ang1=" 1.682" ang2=" 4.601"
stroke="rgb(15,72,0)" stroke-width="1" /><line x1="1137.402"
y1="-873.422" x2="1151.227" y2="-873.422"
style="stroke:rgb(15,72,0);stroke-width:1" /><line x1="1151.227"
y1="-867.746" x2="1151.227" y2="-907.878"
style="stroke:rgb(15,72,0);stroke-width:1" /><line x1="1151.227"
y1="-867.746" x2="1177.890" y2="-867.746"
style="stroke:rgb(15,72,0);stroke-width:1" /><line x1="1177.890"
y1="-867.746" x2="1177.890" y2="-907.878"
style="stroke:rgb(15,72,0);stroke-width:1" /><line x1="1177.890"
y1="-907.878" x2="1151.227" y2="-907.878"
style="stroke:rgb(15,72,0);stroke-width:1" /><line x1="665.881"
y1="-907.494" x2="665.881" y2="-945.780"
style="stroke:rgb(47,47,47);stroke-width:3" /><line x1="665.881"
y1="-945.780" x2="689.692" y2="-945.780"
style="stroke:rgb(47,47,47);stroke-width:3" /><line x1="689.692"
y1="-945.780" x2="689.692" y2="-907.494"
style="stroke:rgb(47,47,47);stroke-width:3" /><line x1="689.692"
y1="-907.494" x2="665.881" y2="-907.494"
style="stroke:rgb(47,47,47);stroke-width:3" /><line x1="606.346"
y1="-907.494" x2="606.346" y2="-945.780"
style="stroke:rgb(0,255,0);stroke-width:3" /><line x1="606.346"
y1="-945.780" x2="630.157" y2="-945.780"
style="stroke:rgb(0,255,0);stroke-width:3" /><line x1="630.157"
y1="-945.780" x2="630.157" y2="-907.494"
style="stroke:rgb(0,255,0);stroke-width:3" /><line x1="630.157"
y1="-907.494" x2="606.346" y2="-907.494"
style="stroke:rgb(0,255,0);stroke-width:3" /><line x1="1176.402"
y1="-557.230" x2="1176.402" y2="-601.324"
style="stroke:rgb(128,128,128);stroke-width:1" /><line x1="1176.402"
y1="-601.324" x2="1211.660" y2="-601.324"
style="stroke:rgb(128,128,128);stroke-width:1" /><line x1="1211.660"
y1="-601.324" x2="1211.660" y2="-557.230"
style="stroke:rgb(128,128,128);stroke-width:1" /><line x1="1211.660"
y1="-557.230" x2="1176.402" y2="-557.230"
style="stroke:rgb(128,128,128);stroke-width:1" /><line x1="527.864"
y1="-628.284" x2="587.972" y2="-628.284"
style="stroke:rgb(47,47,47);stroke-width:10" /><line x1="541.436"
y1="-585.081" x2="587.644" y2="-614.470"
style="stroke:rgb(47,47,47);stroke-width:10" /><line x1="950.299"
y1="-845.592" x2="1012.040" y2="-845.592"
style="stroke:rgb(47,47,47);stroke-width:10" /><line x1="969.338"
y1="-803.508" x2="1011.712" y2="-830.462"
style="stroke:rgb(0,255,0);stroke-width:10" /><line x1="487.260"
y1="-616.280" x2="511.537" y2="-640.437"
style="stroke:rgb(144,152,0);stroke-width:1" /><line x1="487.260"
y1="-640.437" x2="511.537" y2="-616.280"
style="stroke:rgb(144,152,0);stroke-width:1" /><line x1="646.639"
y1="-640.480" x2="670.916" y2="-616.323"
style="stroke:rgb(144,152,0);stroke-width:1" /><line x1="646.639"
y1="-616.323" x2="670.916" y2="-640.480"
style="stroke:rgb(144,152,0);stroke-width:1" /><line x1="402.892"
y1="-615.089" x2="402.892" y2="-581.204"
style="stroke:rgb(47,47,47);stroke-width:10" /><line x1="369.398"
y1="-628.401" x2="389.580" y2="-628.401"
style="stroke:rgb(47,47,47);stroke-width:10" /><line x1="355.694"
y1="-628.401" x2="389.580" y2="-628.401"
style="stroke:rgb(47,47,47);stroke-width:10" /><line x1="416.204"
y1="-628.401" x2="439.298" y2="-628.401"
style="stroke:rgb(47,47,47);stroke-width:10" /><line x1="416.204"
y1="-628.401" x2="450.089" y2="-628.401"
style="stroke:rgb(47,47,47);stroke-width:10" /><line x1="402.892"
y1="-641.713" x2="402.892" y2="-675.599"
style="stroke:rgb(47,47,47);stroke-width:10" /><line x1="314.691"
y1="-628.401" x2="294.973" y2="-628.401"
style="stroke:rgb(144,152,0);stroke-width:1" /><text id="101" x="178.109"
y="-165.471" transform="rotate( 1.571,0,0)" font-family="SimHei"
font-size="18" fill="rgb(0,255,0)"> ORT400</text><line x1="1234.583"
y1="-768.358" x2="1246.775" y2="-751.739"
style="stroke:rgb(47,47,47);stroke-width:3" /><line x1="1234.583"
y1="-768.358" x2="1222.017" y2="-784.697"
style="stroke:rgb(47,47,47);stroke-width:3" /><line x1="1221.080"
y1="-752.785" x2="1248.085" y2="-783.932"
style="stroke:rgb(47,47,47);stroke-width:3" /><line x1="1124.183"
y1="-563.020" x2="1151.188" y2="-594.166"
style="stroke:rgb(47,47,47);stroke-width:3" /><line x1="1137.686"
y1="-578.593" x2="1125.120" y2="-594.932"
style="stroke:rgb(47,47,47);stroke-width:3" /><line x1="1137.686"
y1="-578.593" x2="1149.878" y2="-561.974"
style="stroke:rgb(47,47,47);stroke-width:3" /><line x1="1221.018"
y1="-436.177" x2="1248.023" y2="-467.324"
style="stroke:rgb(47,47,47);stroke-width:3" /><line x1="1234.520"
y1="-451.750" x2="1221.955" y2="-468.089"
style="stroke:rgb(47,47,47);stroke-width:3" /><line x1="1234.520"
y1="-451.750" x2="1246.713" y2="-435.131"
style="stroke:rgb(47,47,47);stroke-width:3" /><line x1="1221.018"
y1="-379.512" x2="1248.023" y2="-410.658"
style="stroke:rgb(47,47,47);stroke-width:3" /><line x1="1234.520"
y1="-395.085" x2="1221.955" y2="-411.424"
style="stroke:rgb(47,47,47);stroke-width:3" /><line x1="1234.520"
y1="-395.085" x2="1246.713" y2="-378.466"
style="stroke:rgb(47,47,47);stroke-width:3" /><line x1="1221.080"
y1="-320.104" x2="1248.085" y2="-351.250"
style="stroke:rgb(47,47,47);stroke-width:3" /><line x1="1234.583"
y1="-335.677" x2="1222.017" y2="-352.016"
style="stroke:rgb(47,47,47);stroke-width:3" /><line x1="1234.583"
y1="-335.677" x2="1246.775" y2="-319.058"
style="stroke:rgb(47,47,47);stroke-width:3" /><line x1="989.953"
y1="-435.440" x2="1016.958" y2="-466.586"
style="stroke:rgb(47,47,47);stroke-width:3" /><line x1="1003.455"
y1="-451.013" x2="990.890" y2="-467.352"
style="stroke:rgb(47,47,47);stroke-width:3" /><line x1="1003.455"
y1="-451.013" x2="1015.648" y2="-434.394"
style="stroke:rgb(47,47,47);stroke-width:3" /><line x1="989.953"
y1="-378.774" x2="1016.958" y2="-409.921"
style="stroke:rgb(47,47,47);stroke-width:3" /><line x1="1003.455"
y1="-394.348" x2="990.890" y2="-410.687"
style="stroke:rgb(47,47,47);stroke-width:3" /><line x1="1003.455"
y1="-394.348" x2="1015.648" y2="-377.729"
style="stroke:rgb(47,47,47);stroke-width:3" /><line x1="990.015"
y1="-319.367" x2="1017.020" y2="-350.513"
style="stroke:rgb(47,47,47);stroke-width:3" /><line x1="1003.518"
y1="-334.940" x2="990.952" y2="-351.279"
style="stroke:rgb(47,47,47);stroke-width:3" /><line x1="1003.518"
y1="-334.940" x2="1015.710" y2="-318.321"
style="stroke:rgb(47,47,47);stroke-width:3" /><line x1="732.078"
y1="-615.089" x2="732.078" y2="-581.204"
style="stroke:rgb(47,47,47);stroke-width:10" /><line x1="684.880"
y1="-628.401" x2="718.766" y2="-628.401"
style="stroke:rgb(47,47,47);stroke-width:10" /><line x1="698.584"
y1="-628.401" x2="718.766" y2="-628.401"
style="stroke:rgb(47,47,47);stroke-width:10" /><line x1="732.078"
y1="-641.713" x2="732.078" y2="-675.599"
style="stroke:rgb(47,47,47);stroke-width:10" /><line x1="745.390"
y1="-628.401" x2="779.275" y2="-628.401"
style="stroke:rgb(47,47,47);stroke-width:10" /><line x1="745.390"
y1="-628.401" x2="768.484" y2="-628.401"
style="stroke:rgb(47,47,47);stroke-width:10" /><arc cx="617.876"
cy="-856.399" r="19.880" ang1=" 2.828" ang2=" 0.351"
stroke="rgb(128,128,128)" stroke-width="1" /><arc cx="618.247"
cy="-789.246" r="19.880" ang1=" 5.951" ang2=" 3.474"
stroke="rgb(128,128,128)" stroke-width="1" /><arc cx="677.411"
cy="-856.399" r="19.880" ang1=" 2.828" ang2=" 0.351"
stroke="rgb(128,128,128)" stroke-width="1" /><arc cx="677.782"
cy="-789.246" r="19.880" ang1=" 5.951" ang2=" 3.474"
stroke="rgb(128,128,128)" stroke-width="1" /><line x1="619.238"
y1="-955.355" x2="820.035" y2="-1028.542"
style="stroke:rgb(99,99,99);stroke-width:1" /><line x1="820.035"
y1="-1028.542" x2="984.746" y2="-829.254"
style="stroke:rgb(99,99,99);stroke-width:1" /><line x1="1207.404"
y1="-889.149" x2="820.035" y2="-1028.542"
style="stroke:rgb(99,99,99);stroke-width:1" /><line x1="619.238"
y1="-955.355" x2="641.008" y2="-978.236"
style="stroke:rgb(99,99,99);stroke-width:1" /><line x1="619.238"
y1="-955.355" x2="650.008" y2="-957.609"
style="stroke:rgb(99,99,99);stroke-width:1" /><line x1="984.746"
y1="-829.254" x2="955.452" y2="-828.311"
style="stroke:rgb(99,99,99);stroke-width:1" /><line x1="984.746"
y1="-829.254" x2="977.199" y2="-857.670"
style="stroke:rgb(99,99,99);stroke-width:1" /><line x1="1207.404"
y1="-889.149" x2="1186.593" y2="-879.848"
style="stroke:rgb(99,99,99);stroke-width:1" /><line x1="1207.404"
y1="-889.149" x2="1194.808" y2="-905.562"
style="stroke:rgb(99,99,99);stroke-width:1" /><line x1="844.195"
y1="-1024.376" x2="843.739" y2="-1016.402"
style="stroke:rgb(96,176,207);stroke-width:1" /><line x1="844.423"
y1="-1027.338" x2="844.195" y2="-1024.376"
style="stroke:rgb(96,176,207);stroke-width:1" /><line x1="823.445"
y1="-1015.491" x2="823.901" y2="-1022.098"
style="stroke:rgb(96,176,207);stroke-width:1" /><line x1="823.673"
y1="-1009.339" x2="823.445" y2="-1015.491"
style="stroke:rgb(96,176,207);stroke-width:1" /><line x1="828.005"
y1="-1002.732" x2="823.673" y2="-1009.339"
style="stroke:rgb(96,176,207);stroke-width:1" /><line x1="833.478"
y1="-996.353" x2="828.005" y2="-1002.732"
style="stroke:rgb(96,176,207);stroke-width:1" /><line x1="807.027"
y1="-996.808" x2="806.571" y2="-993.847"
style="stroke:rgb(96,176,207);stroke-width:1" /><line x1="808.851"
y1="-1000.226" x2="807.027" y2="-996.808"
style="stroke:rgb(96,176,207);stroke-width:1" /><line x1="811.359"
y1="-1002.960" x2="808.851" y2="-1000.226"
style="stroke:rgb(96,176,207);stroke-width:1" /><line x1="813.640"
y1="-1007.289" x2="811.359" y2="-1002.960"
style="stroke:rgb(96,176,207);stroke-width:1" /><line x1="813.640"
y1="-1013.668" x2="813.640" y2="-1007.289"
style="stroke:rgb(96,176,207);stroke-width:1" /><line x1="814.552"
y1="-1017.085" x2="813.640" y2="-1013.668"
style="stroke:rgb(96,176,207);stroke-width:1" /><line x1="815.692"
y1="-1021.870" x2="814.552" y2="-1017.085"
style="stroke:rgb(96,176,207);stroke-width:1" /><line x1="806.115"
y1="-1042.375" x2="803.835" y2="-1049.210"
style="stroke:rgb(96,176,207);stroke-width:1" /><line x1="805.659"
y1="-1031.894" x2="806.115" y2="-1042.375"
style="stroke:rgb(96,176,207);stroke-width:1" /><line x1="805.659"
y1="-1025.743" x2="805.659" y2="-1031.894"
style="stroke:rgb(96,176,207);stroke-width:1" /><line x1="805.659"
y1="-1020.047" x2="805.659" y2="-1025.743"
style="stroke:rgb(96,176,207);stroke-width:1" /><line x1="806.343"
y1="-1013.212" x2="805.659" y2="-1020.047"
style="stroke:rgb(96,176,207);stroke-width:1" /><line x1="806.343"
y1="-1006.150" x2="806.343" y2="-1013.212"
style="stroke:rgb(96,176,207);stroke-width:1" /><line x1="807.255"
y1="-997.264" x2="806.343" y2="-1006.150"
style="stroke:rgb(96,176,207);stroke-width:1" /><line x1="804.845"
y1="-1002.339" x2="804.066" y2="-998.838"
style="stroke:rgb(96,176,207);stroke-width:1" /><line x1="806.273"
y1="-1005.582" x2="804.845" y2="-1002.339"
style="stroke:rgb(96,176,207);stroke-width:1" /><line x1="831.882"
y1="-1025.743" x2="829.374" y2="-1027.110"
style="stroke:rgb(96,176,207);stroke-width:1" /><line x1="835.302"
y1="-1025.515" x2="831.882" y2="-1025.743"
style="stroke:rgb(96,176,207);stroke-width:1" /><line x1="841.231"
y1="-1025.515" x2="835.302" y2="-1025.515"
style="stroke:rgb(96,176,207);stroke-width:1" /><line x1="844.195"
y1="-1027.793" x2="841.231" y2="-1025.515"
style="stroke:rgb(96,176,207);stroke-width:1" /><line x1="848.072"
y1="-1031.211" x2="844.195" y2="-1027.793"
style="stroke:rgb(96,176,207);stroke-width:1" /><line x1="851.036"
y1="-1035.995" x2="848.072" y2="-1031.211"
style="stroke:rgb(96,176,207);stroke-width:1" /><line x1="851.492"
y1="-1048.070" x2="851.036" y2="-1035.995"
style="stroke:rgb(96,176,207);stroke-width:1" /><line x1="850.124"
y1="-1058.551" x2="851.492" y2="-1048.070"
style="stroke:rgb(96,176,207);stroke-width:1" /><line x1="847.160"
y1="-1063.107" x2="850.124" y2="-1058.551"
style="stroke:rgb(96,176,207);stroke-width:1" /><line x1="842.371"
y1="-1064.702" x2="847.160" y2="-1063.107"
style="stroke:rgb(96,176,207);stroke-width:1" /><line x1="836.442"
y1="-1066.753" x2="842.371" y2="-1064.702"
style="stroke:rgb(96,176,207);stroke-width:1" /><line x1="832.338"
y1="-1069.031" x2="836.442" y2="-1066.753"
style="stroke:rgb(96,176,207);stroke-width:1" /><line x1="806.115"
y1="-1005.922" x2="806.799" y2="-1005.922"
style="stroke:rgb(96,176,207);stroke-width:1" /><line x1="805.431"
y1="-1005.922" x2="806.115" y2="-1005.922"
style="stroke:rgb(96,176,207);stroke-width:1" /><line x1="804.975"
y1="-1009.795" x2="805.431" y2="-1005.922"
style="stroke:rgb(96,176,207);stroke-width:1" /><line x1="804.063"
y1="-1010.250" x2="804.975" y2="-1009.795"
style="stroke:rgb(96,176,207);stroke-width:1" /><line x1="800.186"
y1="-1032.350" x2="804.063" y2="-1010.250"
style="stroke:rgb(96,176,207);stroke-width:1" /><line x1="799.958"
y1="-1034.856" x2="800.186" y2="-1032.350"
style="stroke:rgb(96,176,207);stroke-width:1" /><line x1="800.642"
y1="-1042.830" x2="799.958" y2="-1034.856"
style="stroke:rgb(96,176,207);stroke-width:1" /><line x1="799.502"
y1="-1053.766" x2="800.642" y2="-1042.830"
style="stroke:rgb(96,176,207);stroke-width:1" /><line x1="801.326"
y1="-1059.462" x2="799.502" y2="-1053.766"
style="stroke:rgb(96,176,207);stroke-width:1" /><line x1="803.379"
y1="-1062.424" x2="801.326" y2="-1059.462"
style="stroke:rgb(96,176,207);stroke-width:1" /><line x1="805.887"
y1="-1064.246" x2="803.379" y2="-1062.424"
style="stroke:rgb(96,176,207);stroke-width:1" /><line x1="810.675"
y1="-1066.297" x2="805.887" y2="-1064.246"
style="stroke:rgb(96,176,207);stroke-width:1" /><line x1="815.692"
y1="-1069.259" x2="810.675" y2="-1066.297"
style="stroke:rgb(96,176,207);stroke-width:1" /><line x1="814.096"
y1="-1028.933" x2="814.552" y2="-1026.654"
style="stroke:rgb(96,176,207);stroke-width:1" /><line x1="812.044"
y1="-1038.729" x2="814.096" y2="-1028.933"
style="stroke:rgb(96,176,207);stroke-width:1" /><line x1="808.623"
y1="-1051.260" x2="812.044" y2="-1038.729"
style="stroke:rgb(96,176,207);stroke-width:1" /><line x1="806.115"
y1="-1058.323" x2="808.623" y2="-1051.260"
style="stroke:rgb(96,176,207);stroke-width:1" /><line x1="809.307"
y1="-1060.601" x2="806.115" y2="-1058.323"
style="stroke:rgb(96,176,207);stroke-width:1" /><line x1="806.799"
y1="-1062.424" x2="809.307" y2="-1060.601"
style="stroke:rgb(96,176,207);stroke-width:1" /><line x1="809.763"
y1="-1065.841" x2="806.799" y2="-1062.424"
style="stroke:rgb(96,176,207);stroke-width:1" /><line x1="819.112"
y1="-1018.452" x2="822.761" y2="-1022.326"
style="stroke:rgb(96,176,207);stroke-width:1" /><line x1="814.096"
y1="-1023.693" x2="819.112" y2="-1018.452"
style="stroke:rgb(96,176,207);stroke-width:1" /><line x1="815.008"
y1="-1028.933" x2="814.096" y2="-1023.693"
style="stroke:rgb(96,176,207);stroke-width:1" /><line x1="815.692"
y1="-1041.919" x2="815.008" y2="-1028.933"
style="stroke:rgb(96,176,207);stroke-width:1" /><line x1="816.832"
y1="-1056.728" x2="815.692" y2="-1041.919"
style="stroke:rgb(96,176,207);stroke-width:1" /><line x1="819.568"
y1="-1065.613" x2="816.832" y2="-1056.728"
style="stroke:rgb(96,176,207);stroke-width:1" /><line x1="812.272"
y1="-1047.615" x2="814.552" y2="-1031.667"
style="stroke:rgb(96,176,207);stroke-width:1" /><line x1="811.816"
y1="-1058.779" x2="812.272" y2="-1047.615"
style="stroke:rgb(96,176,207);stroke-width:1" /><line x1="812.500"
y1="-1065.386" x2="811.816" y2="-1058.779"
style="stroke:rgb(96,176,207);stroke-width:1" /><line x1="814.780"
y1="-1068.120" x2="812.500" y2="-1065.386"
style="stroke:rgb(96,176,207);stroke-width:1" /><line x1="824.357"
y1="-1044.197" x2="824.129" y2="-1039.413"
style="stroke:rgb(96,176,207);stroke-width:1" /><line x1="825.041"
y1="-1053.083" x2="824.357" y2="-1044.197"
style="stroke:rgb(96,176,207);stroke-width:1" /><line x1="828.005"
y1="-1059.918" x2="825.041" y2="-1053.083"
style="stroke:rgb(96,176,207);stroke-width:1" /><line x1="831.882"
y1="-1067.892" x2="828.005" y2="-1059.918"
style="stroke:rgb(96,176,207);stroke-width:1" /><line x1="830.286"
y1="-1048.754" x2="828.689" y2="-1038.957"
style="stroke:rgb(96,176,207);stroke-width:1" /><line x1="832.110"
y1="-1056.045" x2="830.286" y2="-1048.754"
style="stroke:rgb(96,176,207);stroke-width:1" /><line x1="834.846"
y1="-1059.462" x2="832.110" y2="-1056.045"
style="stroke:rgb(96,176,207);stroke-width:1" /><line x1="832.110"
y1="-1060.601" x2="834.846" y2="-1059.462"
style="stroke:rgb(96,176,207);stroke-width:1" /><line x1="835.074"
y1="-1062.196" x2="832.110" y2="-1060.601"
style="stroke:rgb(96,176,207);stroke-width:1" /><line x1="835.758"
y1="-1066.069" x2="835.074" y2="-1062.196"
style="stroke:rgb(96,176,207);stroke-width:1" /><line x1="822.414"
y1="-1039.037" x2="823.571" y2="-1033.641"
style="stroke:rgb(96,176,207);stroke-width:1" /><line x1="822.221"
y1="-1044.241" x2="822.414" y2="-1039.037"
style="stroke:rgb(96,176,207);stroke-width:1" /><line x1="821.643"
y1="-1055.997" x2="822.221" y2="-1044.241"
style="stroke:rgb(96,176,207);stroke-width:1" /><line x1="822.414"
y1="-1064.862" x2="821.643" y2="-1055.997"
style="stroke:rgb(96,176,207);stroke-width:1" /><line x1="831.426"
y1="-1035.768" x2="830.058" y2="-1035.995"
style="stroke:rgb(96,176,207);stroke-width:1" /><line x1="833.478"
y1="-1034.628" x2="831.426" y2="-1035.768"
style="stroke:rgb(96,176,207);stroke-width:1" /><line x1="834.162"
y1="-1031.667" x2="833.478" y2="-1034.628"
style="stroke:rgb(96,176,207);stroke-width:1" /><line x1="833.250"
y1="-1028.477" x2="834.162" y2="-1031.667"
style="stroke:rgb(96,176,207);stroke-width:1" /><line x1="831.198"
y1="-1027.338" x2="833.250" y2="-1028.477"
style="stroke:rgb(96,176,207);stroke-width:1" /><line x1="830.545"
y1="-1029.315" x2="832.622" y2="-1028.796"
style="stroke:rgb(96,176,207);stroke-width:1" /><line x1="828.468"
y1="-1027.888" x2="830.545" y2="-1029.315"
style="stroke:rgb(96,176,207);stroke-width:1" /><line x1="826.781"
y1="-1025.294" x2="828.468" y2="-1027.888"
style="stroke:rgb(96,176,207);stroke-width:1" /><line x1="823.925"
y1="-1022.960" x2="826.781" y2="-1025.294"
style="stroke:rgb(96,176,207);stroke-width:1" /><line x1="822.238"
y1="-1022.441" x2="823.925" y2="-1022.960"
style="stroke:rgb(96,176,207);stroke-width:1" /><line x1="821.589"
y1="-1023.349" x2="822.238" y2="-1022.441"
style="stroke:rgb(96,176,207);stroke-width:1" /><line x1="821.849"
y1="-1024.776" x2="821.589" y2="-1023.349"
style="stroke:rgb(96,176,207);stroke-width:1" /><line x1="821.070"
y1="-1025.554" x2="821.849" y2="-1024.776"
style="stroke:rgb(96,176,207);stroke-width:1" /><line x1="821.719"
y1="-1026.591" x2="821.070" y2="-1025.554"
style="stroke:rgb(96,176,207);stroke-width:1" /><line x1="821.070"
y1="-1027.110" x2="821.719" y2="-1026.591"
style="stroke:rgb(96,176,207);stroke-width:1" /><line x1="820.940"
y1="-1027.888" x2="821.070" y2="-1027.110"
style="stroke:rgb(96,176,207);stroke-width:1" /><line x1="822.887"
y1="-1029.833" x2="820.940" y2="-1027.888"
style="stroke:rgb(96,176,207);stroke-width:1" /><line x1="821.589"
y1="-1030.093" x2="822.887" y2="-1029.833"
style="stroke:rgb(96,176,207);stroke-width:1" /><line x1="821.849"
y1="-1031.519" x2="821.589" y2="-1030.093"
style="stroke:rgb(96,176,207);stroke-width:1" /><line x1="825.094"
y1="-1033.465" x2="821.849" y2="-1031.519"
style="stroke:rgb(96,176,207);stroke-width:1" /><line x1="826.651"
y1="-1035.151" x2="825.094" y2="-1033.465"
style="stroke:rgb(96,176,207);stroke-width:1" /><line x1="825.743"
y1="-1036.318" x2="826.651" y2="-1035.151"
style="stroke:rgb(96,176,207);stroke-width:1" /><line x1="824.315"
y1="-1036.966" x2="825.743" y2="-1036.318"
style="stroke:rgb(96,176,207);stroke-width:1" /><line x1="823.925"
y1="-1038.004" x2="824.315" y2="-1036.966"
style="stroke:rgb(96,176,207);stroke-width:1" /><line x1="824.445"
y1="-1038.912" x2="823.925" y2="-1038.004"
style="stroke:rgb(96,176,207);stroke-width:1" /><line x1="826.262"
y1="-1038.523" x2="824.445" y2="-1038.912"
style="stroke:rgb(96,176,207);stroke-width:1" /><line x1="827.430"
y1="-1038.523" x2="826.262" y2="-1038.523"
style="stroke:rgb(96,176,207);stroke-width:1" /><line x1="828.728"
y1="-1037.096" x2="827.430" y2="-1038.523"
style="stroke:rgb(96,176,207);stroke-width:1" /><line x1="829.637"
y1="-1034.891" x2="828.728" y2="-1037.096"
style="stroke:rgb(96,176,207);stroke-width:1" /><line x1="830.545"
y1="-1034.762" x2="829.637" y2="-1034.891"
style="stroke:rgb(96,176,207);stroke-width:1" /><line x1="818.656"
y1="-1016.402" x2="823.217" y2="-1017.085"
style="stroke:rgb(96,176,207);stroke-width:1" /><line x1="815.008"
y1="-1017.313" x2="818.656" y2="-1016.402"
style="stroke:rgb(96,176,207);stroke-width:1" /><line x1="841.459"
y1="-1047.159" x2="838.951" y2="-1045.564"
style="stroke:rgb(96,176,207);stroke-width:1" /><line x1="839.635"
y1="-1039.185" x2="841.459" y2="-1047.159"
style="stroke:rgb(96,176,207);stroke-width:1" /><line x1="841.231"
y1="-1038.729" x2="839.635" y2="-1039.185"
style="stroke:rgb(96,176,207);stroke-width:1" /><line x1="838.495"
y1="-1038.729" x2="841.231" y2="-1038.729"
style="stroke:rgb(96,176,207);stroke-width:1" /><line x1="833.706"
y1="-1036.451" x2="838.495" y2="-1038.729"
style="stroke:rgb(96,176,207);stroke-width:1" /><line x1="830.058"
y1="-1035.995" x2="833.706" y2="-1036.451"
style="stroke:rgb(96,176,207);stroke-width:1" /><line x1="832.667"
y1="-1086.657" x2="832.012" y2="-1085.349"
style="stroke:rgb(96,176,207);stroke-width:1" /><line x1="833.041"
y1="-1088.994" x2="832.667" y2="-1086.657"
style="stroke:rgb(96,176,207);stroke-width:1" /><line x1="832.293"
y1="-1091.798" x2="833.041" y2="-1088.994"
style="stroke:rgb(96,176,207);stroke-width:1" /><line x1="830.796"
y1="-1094.415" x2="832.293" y2="-1091.798"
style="stroke:rgb(96,176,207);stroke-width:1" /><line x1="827.990"
y1="-1095.163" x2="830.796" y2="-1094.415"
style="stroke:rgb(96,176,207);stroke-width:1" /><line x1="820.786"
y1="-1095.537" x2="827.990" y2="-1095.163"
style="stroke:rgb(96,176,207);stroke-width:1" /><line x1="815.828"
y1="-1094.696" x2="820.786" y2="-1095.537"
style="stroke:rgb(96,176,207);stroke-width:1" /><line x1="814.519"
y1="-1093.387" x2="815.828" y2="-1094.696"
style="stroke:rgb(96,176,207);stroke-width:1" /><line x1="814.706"
y1="-1091.237" x2="814.519" y2="-1093.387"
style="stroke:rgb(96,176,207);stroke-width:1" /><line x1="813.957"
y1="-1086.938" x2="814.706" y2="-1091.237"
style="stroke:rgb(96,176,207);stroke-width:1" /><line x1="813.957"
y1="-1084.134" x2="813.957" y2="-1086.938"
style="stroke:rgb(96,176,207);stroke-width:1" /><line x1="814.519"
y1="-1082.919" x2="813.957" y2="-1084.134"
style="stroke:rgb(96,176,207);stroke-width:1" /><line x1="813.770"
y1="-1080.021" x2="814.519" y2="-1082.919"
style="stroke:rgb(96,176,207);stroke-width:1" /><line x1="814.799"
y1="-1075.628" x2="813.770" y2="-1080.021"
style="stroke:rgb(96,176,207);stroke-width:1" /><line x1="816.015"
y1="-1073.198" x2="814.799" y2="-1075.628"
style="stroke:rgb(96,176,207);stroke-width:1" /><line x1="817.044"
y1="-1071.983" x2="816.015" y2="-1073.198"
style="stroke:rgb(96,176,207);stroke-width:1" /><line x1="817.980"
y1="-1071.796" x2="817.044" y2="-1071.983"
style="stroke:rgb(96,176,207);stroke-width:1" /><line x1="818.635"
y1="-1070.768" x2="817.980" y2="-1071.796"
style="stroke:rgb(96,176,207);stroke-width:1" /><line x1="830.328"
y1="-1085.255" x2="830.703" y2="-1085.068"
style="stroke:rgb(96,176,207);stroke-width:1" /><line x1="830.328"
y1="-1086.097" x2="830.328" y2="-1085.255"
style="stroke:rgb(96,176,207);stroke-width:1" /><line x1="829.299"
y1="-1087.031" x2="830.328" y2="-1086.097"
style="stroke:rgb(96,176,207);stroke-width:1" /><line x1="828.925"
y1="-1088.994" x2="829.299" y2="-1087.031"
style="stroke:rgb(96,176,207);stroke-width:1" /><line x1="827.896"
y1="-1091.051" x2="828.925" y2="-1088.994"
style="stroke:rgb(96,176,207);stroke-width:1" /><line x1="825.838"
y1="-1091.892" x2="827.896" y2="-1091.051"
style="stroke:rgb(96,176,207);stroke-width:1" /><line x1="823.780"
y1="-1092.266" x2="825.838" y2="-1091.892"
style="stroke:rgb(96,176,207);stroke-width:1" /><line x1="819.383"
y1="-1092.359" x2="823.780" y2="-1092.266"
style="stroke:rgb(96,176,207);stroke-width:1" /><line x1="815.454"
y1="-1092.172" x2="819.383" y2="-1092.359"
style="stroke:rgb(96,176,207);stroke-width:1" /><line x1="814.893"
y1="-1091.518" x2="815.454" y2="-1092.172"
style="stroke:rgb(96,176,207);stroke-width:1" /><line x1="830.235"
y1="-1073.572" x2="830.048" y2="-1071.515"
style="stroke:rgb(96,176,207);stroke-width:1" /><line x1="830.609"
y1="-1077.311" x2="830.235" y2="-1073.572"
style="stroke:rgb(96,176,207);stroke-width:1" /><line x1="831.544"
y1="-1079.647" x2="830.609" y2="-1077.311"
style="stroke:rgb(96,176,207);stroke-width:1" /><line x1="831.357"
y1="-1071.609" x2="830.422" y2="-1071.515"
style="stroke:rgb(96,176,207);stroke-width:1" /><line x1="831.638"
y1="-1069.459" x2="831.357" y2="-1071.609"
style="stroke:rgb(96,176,207);stroke-width:1" /><line x1="832.199"
y1="-1067.590" x2="831.638" y2="-1069.459"
style="stroke:rgb(96,176,207);stroke-width:1" /><line x1="830.328"
y1="-1066.375" x2="832.199" y2="-1067.590"
style="stroke:rgb(96,176,207);stroke-width:1" /><line x1="827.148"
y1="-1064.318" x2="830.328" y2="-1066.375"
style="stroke:rgb(96,176,207);stroke-width:1" /><line x1="823.219"
y1="-1070.207" x2="827.148" y2="-1064.318"
style="stroke:rgb(96,176,207);stroke-width:1" /><line x1="820.038"
y1="-1070.300" x2="823.219" y2="-1070.207"
style="stroke:rgb(96,176,207);stroke-width:1" /><line x1="818.448"
y1="-1068.805" x2="820.038" y2="-1070.300"
style="stroke:rgb(96,176,207);stroke-width:1" /><line x1="814.799"
y1="-1064.973" x2="818.448" y2="-1068.805"
style="stroke:rgb(96,176,207);stroke-width:1" /><line x1="816.202"
y1="-1070.861" x2="814.799" y2="-1064.973"
style="stroke:rgb(96,176,207);stroke-width:1" /><line x1="816.857"
y1="-1071.329" x2="816.202" y2="-1070.861"
style="stroke:rgb(96,176,207);stroke-width:1" /><line x1="817.699"
y1="-1071.329" x2="816.857" y2="-1071.329"
style="stroke:rgb(96,176,207);stroke-width:1" /><line x1="822.751"
y1="-1065.814" x2="823.873" y2="-1068.524"
style="stroke:rgb(96,176,207);stroke-width:1" /><line x1="821.067"
y1="-1065.160" x2="822.751" y2="-1065.814"
style="stroke:rgb(96,176,207);stroke-width:1" /><line x1="820.412"
y1="-1065.720" x2="821.067" y2="-1065.160"
style="stroke:rgb(96,176,207);stroke-width:1" /><line x1="819.009"
y1="-1068.805" x2="820.412" y2="-1065.720"
style="stroke:rgb(96,176,207);stroke-width:1" /><line x1="827.241"
y1="-1070.487" x2="823.686" y2="-1070.487"
style="stroke:rgb(96,176,207);stroke-width:1" /><line x1="830.328"
y1="-1070.955" x2="827.241" y2="-1070.487"
style="stroke:rgb(96,176,207);stroke-width:1" /><line x1="829.954"
y1="-1071.515" x2="830.328" y2="-1070.955"
style="stroke:rgb(96,176,207);stroke-width:1" /><line x1="816.951"
y1="-1070.674" x2="819.102" y2="-1070.394"
style="stroke:rgb(96,176,207);stroke-width:1" /><line x1="817.044"
y1="-1070.955" x2="816.951" y2="-1070.674"
style="stroke:rgb(96,176,207);stroke-width:1" /><line x1="818.635"
y1="-1075.161" x2="820.319" y2="-1075.067"
style="stroke:rgb(96,176,207);stroke-width:1" /><line x1="829.954"
y1="-1078.339" x2="829.767" y2="-1078.900"
style="stroke:rgb(96,176,207);stroke-width:1" /><line x1="830.515"
y1="-1078.619" x2="829.954" y2="-1078.339"
style="stroke:rgb(96,176,207);stroke-width:1" /><line x1="831.170"
y1="-1079.460" x2="830.515" y2="-1078.619"
style="stroke:rgb(96,176,207);stroke-width:1" /><line x1="832.199"
y1="-1080.582" x2="831.170" y2="-1079.460"
style="stroke:rgb(96,176,207);stroke-width:1" /><line x1="832.761"
y1="-1081.891" x2="832.199" y2="-1080.582"
style="stroke:rgb(96,176,207);stroke-width:1" /><line x1="833.041"
y1="-1083.666" x2="832.761" y2="-1081.891"
style="stroke:rgb(96,176,207);stroke-width:1" /><line x1="832.667"
y1="-1084.601" x2="833.041" y2="-1083.666"
style="stroke:rgb(96,176,207);stroke-width:1" /><line x1="832.012"
y1="-1085.255" x2="832.667" y2="-1084.601"
style="stroke:rgb(96,176,207);stroke-width:1" /><line x1="831.170"
y1="-1084.975" x2="832.012" y2="-1085.255"
style="stroke:rgb(96,176,207);stroke-width:1" /><line x1="830.703"
y1="-1084.321" x2="831.170" y2="-1084.975"
style="stroke:rgb(96,176,207);stroke-width:1" /><line x1="820.319"
y1="-1078.058" x2="821.348" y2="-1078.526"
style="stroke:rgb(96,176,207);stroke-width:1" /><line x1="818.260"
y1="-1077.965" x2="820.319" y2="-1078.058"
style="stroke:rgb(96,176,207);stroke-width:1" /><line x1="817.980"
y1="-1078.432" x2="818.260" y2="-1077.965"
style="stroke:rgb(96,176,207);stroke-width:1" /><line x1="819.757"
y1="-1076.189" x2="821.722" y2="-1075.909"
style="stroke:rgb(96,176,207);stroke-width:1" /><line x1="818.915"
y1="-1076.282" x2="819.757" y2="-1076.189"
style="stroke:rgb(96,176,207);stroke-width:1" /><line x1="817.325"
y1="-1075.815" x2="818.915" y2="-1076.282"
style="stroke:rgb(96,176,207);stroke-width:1" /><line x1="822.844"
y1="-1082.451" x2="824.715" y2="-1083.106"
style="stroke:rgb(96,176,207);stroke-width:1" /><line x1="821.628"
y1="-1082.545" x2="822.844" y2="-1082.451"
style="stroke:rgb(96,176,207);stroke-width:1" /><line x1="821.160"
y1="-1083.106" x2="821.628" y2="-1082.545"
style="stroke:rgb(96,176,207);stroke-width:1" /><line x1="821.909"
y1="-1083.573" x2="821.160" y2="-1083.106"
style="stroke:rgb(96,176,207);stroke-width:1" /><line x1="823.499"
y1="-1083.760" x2="821.909" y2="-1083.573"
style="stroke:rgb(96,176,207);stroke-width:1" /><line x1="824.715"
y1="-1083.666" x2="823.499" y2="-1083.760"
style="stroke:rgb(96,176,207);stroke-width:1" /><line x1="825.090"
y1="-1084.601" x2="825.557" y2="-1083.853"
style="stroke:rgb(96,176,207);stroke-width:1" /><line x1="822.190"
y1="-1084.882" x2="825.090" y2="-1084.601"
style="stroke:rgb(96,176,207);stroke-width:1" /><line x1="820.973"
y1="-1083.947" x2="822.190" y2="-1084.882"
style="stroke:rgb(96,176,207);stroke-width:1" /><line x1="817.512"
y1="-1082.638" x2="815.735" y2="-1083.106"
style="stroke:rgb(96,176,207);stroke-width:1" /><line x1="818.541"
y1="-1082.545" x2="817.512" y2="-1082.638"
style="stroke:rgb(96,176,207);stroke-width:1" /><line x1="818.915"
y1="-1083.106" x2="818.541" y2="-1082.545"
style="stroke:rgb(96,176,207);stroke-width:1" /><line x1="817.419"
y1="-1083.666" x2="818.915" y2="-1083.106"
style="stroke:rgb(96,176,207);stroke-width:1" /><line x1="815.267"
y1="-1083.573" x2="817.419" y2="-1083.666"
style="stroke:rgb(96,176,207);stroke-width:1" /><line x1="816.764"
y1="-1084.882" x2="818.915" y2="-1084.040"
style="stroke:rgb(96,176,207);stroke-width:1" /><line x1="814.612"
y1="-1084.414" x2="816.764" y2="-1084.882"
style="stroke:rgb(96,176,207);stroke-width:1" /><line x1="817.044"
y1="-1083.480" x2="817.606" y2="-1082.825"
style="stroke:rgb(96,176,207);stroke-width:1" /><line x1="816.483"
y1="-1083.293" x2="817.044" y2="-1083.480"
style="stroke:rgb(96,176,207);stroke-width:1" /><line x1="822.377"
y1="-1083.199" x2="823.219" y2="-1082.919"
style="stroke:rgb(96,176,207);stroke-width:1" /><line x1="821.909"
y1="-1082.732" x2="822.377" y2="-1083.199"
style="stroke:rgb(96,176,207);stroke-width:1" /><line x1="842.599"
y1="-988.379" x2="839.407" y2="-989.062"
style="stroke:rgb(96,176,207);stroke-width:1" /><line x1="846.703"
y1="-986.328" x2="842.599" y2="-988.379"
style="stroke:rgb(96,176,207);stroke-width:1" /><line x1="849.212"
y1="-986.556" x2="846.703" y2="-986.328"
style="stroke:rgb(96,176,207);stroke-width:1" /><line x1="844.879"
y1="-989.518" x2="840.319" y2="-993.391"
style="stroke:rgb(96,176,207);stroke-width:1" /><line x1="848.300"
y1="-987.240" x2="844.879" y2="-989.518"
style="stroke:rgb(96,176,207);stroke-width:1" /><line x1="808.395"
y1="-985.645" x2="810.903" y2="-986.556"
style="stroke:rgb(96,176,207);stroke-width:1" /><line x1="807.711"
y1="-988.607" x2="808.395" y2="-985.645"
style="stroke:rgb(96,176,207);stroke-width:1" /><line x1="805.624"
y1="-989.241" x2="807.311" y2="-988.722"
style="stroke:rgb(96,176,207);stroke-width:1" /><line x1="805.364"
y1="-990.278" x2="805.624" y2="-989.241"
style="stroke:rgb(96,176,207);stroke-width:1" /><line x1="804.456"
y1="-990.408" x2="805.364" y2="-990.278"
style="stroke:rgb(96,176,207);stroke-width:1" /><line x1="803.936"
y1="-991.835" x2="804.456" y2="-990.408"
style="stroke:rgb(96,176,207);stroke-width:1" /><line x1="803.158"
y1="-992.094" x2="803.936" y2="-991.835"
style="stroke:rgb(96,176,207);stroke-width:1" /><line x1="825.906"
y1="-962.096" x2="824.306" y2="-989.267"
style="stroke:rgb(96,176,207);stroke-width:1" /><line x1="826.706"
y1="-959.432" x2="825.906" y2="-962.096"
style="stroke:rgb(96,176,207);stroke-width:1" /><line x1="830.438"
y1="-921.339" x2="826.706" y2="-959.432"
style="stroke:rgb(96,176,207);stroke-width:1" /><line x1="831.505"
y1="-920.007" x2="830.438" y2="-921.339"
style="stroke:rgb(96,176,207);stroke-width:1" /><line x1="828.305"
y1="-917.076" x2="831.505" y2="-920.007"
style="stroke:rgb(96,176,207);stroke-width:1" /><line x1="827.239"
y1="-915.212" x2="828.305" y2="-917.076"
style="stroke:rgb(96,176,207);stroke-width:1" /><line x1="828.305"
y1="-913.081" x2="827.239" y2="-915.212"
style="stroke:rgb(96,176,207);stroke-width:1" /><line x1="836.037"
y1="-913.347" x2="828.305" y2="-913.081"
style="stroke:rgb(96,176,207);stroke-width:1" /><line x1="840.036"
y1="-913.613" x2="836.037" y2="-913.347"
style="stroke:rgb(96,176,207);stroke-width:1" /><line x1="840.036"
y1="-915.212" x2="840.036" y2="-913.613"
style="stroke:rgb(96,176,207);stroke-width:1" /><line x1="838.437"
y1="-916.810" x2="840.036" y2="-915.212"
style="stroke:rgb(96,176,207);stroke-width:1" /><line x1="836.837"
y1="-920.007" x2="838.437" y2="-916.810"
style="stroke:rgb(96,176,207);stroke-width:1" /><line x1="839.503"
y1="-920.806" x2="836.837" y2="-920.007"
style="stroke:rgb(96,176,207);stroke-width:1" /><line x1="840.036"
y1="-960.231" x2="839.503" y2="-920.806"
style="stroke:rgb(96,176,207);stroke-width:1" /><line x1="839.237"
y1="-963.161" x2="840.036" y2="-960.231"
style="stroke:rgb(96,176,207);stroke-width:1" /><line x1="813.108"
y1="-961.297" x2="812.575" y2="-962.629"
style="stroke:rgb(96,176,207);stroke-width:1" /><line x1="812.575"
y1="-958.899" x2="813.108" y2="-961.297"
style="stroke:rgb(96,176,207);stroke-width:1" /><line x1="813.908"
y1="-919.740" x2="812.575" y2="-958.899"
style="stroke:rgb(96,176,207);stroke-width:1" /><line x1="807.776"
y1="-915.744" x2="813.908" y2="-919.740"
style="stroke:rgb(96,176,207);stroke-width:1" /><line x1="807.776"
y1="-913.347" x2="807.776" y2="-915.744"
style="stroke:rgb(96,176,207);stroke-width:1" /><line x1="810.975"
y1="-913.347" x2="807.776" y2="-913.347"
style="stroke:rgb(96,176,207);stroke-width:1" /><line x1="816.041"
y1="-913.081" x2="810.975" y2="-913.347"
style="stroke:rgb(96,176,207);stroke-width:1" /><line x1="823.773"
y1="-913.613" x2="816.041" y2="-913.081"
style="stroke:rgb(96,176,207);stroke-width:1" /><line x1="823.773"
y1="-915.212" x2="823.773" y2="-913.613"
style="stroke:rgb(96,176,207);stroke-width:1" /><line x1="821.640"
y1="-919.474" x2="823.773" y2="-915.212"
style="stroke:rgb(96,176,207);stroke-width:1" /><line x1="822.706"
y1="-919.740" x2="821.640" y2="-919.474"
style="stroke:rgb(96,176,207);stroke-width:1" /><line x1="824.839"
y1="-958.633" x2="822.706" y2="-919.740"
style="stroke:rgb(96,176,207);stroke-width:1" /><line x1="824.306"
y1="-958.899" x2="824.839" y2="-958.633"
style="stroke:rgb(96,176,207);stroke-width:1" /><line x1="825.373"
y1="-961.563" x2="824.306" y2="-958.899"
style="stroke:rgb(96,176,207);stroke-width:1" /><line x1="819.774"
y1="-919.207" x2="820.307" y2="-919.207"
style="stroke:rgb(96,176,207);stroke-width:1" /><line x1="816.041"
y1="-921.605" x2="819.774" y2="-919.207"
style="stroke:rgb(96,176,207);stroke-width:1" /><line x1="815.508"
y1="-920.273" x2="816.041" y2="-921.605"
style="stroke:rgb(96,176,207);stroke-width:1" /><line x1="835.771"
y1="-922.937" x2="838.437" y2="-921.339"
style="stroke:rgb(96,176,207);stroke-width:1" /><line x1="832.571"
y1="-921.871" x2="835.771" y2="-922.937"
style="stroke:rgb(96,176,207);stroke-width:1" /><line x1="843.739"
y1="-1016.402" x2="849.212" y2="-986.556"
style="stroke:rgb(96,176,207);stroke-width:1" /><line x1="840.319"
y1="-993.391" x2="833.478" y2="-996.353"
style="stroke:rgb(96,176,207);stroke-width:1" /><line x1="806.571"
y1="-993.847" x2="807.711" y2="-988.607"
style="stroke:rgb(96,176,207);stroke-width:1" /><line x1="804.066"
y1="-998.838" x2="803.158" y2="-992.094"
style="stroke:rgb(96,176,207);stroke-width:1" /><line x1="824.306"
y1="-989.267" x2="820.040" y2="-997.259"
style="stroke:rgb(96,176,207);stroke-width:1" /><line x1="839.237"
y1="-994.062" x2="839.237" y2="-963.161"
style="stroke:rgb(96,176,207);stroke-width:1" /><line x1="812.575"
y1="-962.629" x2="810.175" y2="-999.923"
style="stroke:rgb(96,176,207);stroke-width:1" /></g></svg>
