<?xml version="1.0" encoding="utf-8"?><svg><g
transform="translate(0,1200)"><rect x="0" y="-1199" width="1599"
height="1199" style="fill:rgb(0,0,0)" /><line x1=" 0.000" y1="-0.000"
x2="1600.000" y2="-0.000" style="stroke:rgb(99,99,99);stroke-width:1" /><line
x1="1600.000" y1="-0.000" x2="1600.000" y2="-1200.000"
style="stroke:rgb(99,99,99);stroke-width:1" /><line x1="1600.000"
y1="-1200.000" x2=" 0.000" y2="-1200.000"
style="stroke:rgb(99,99,99);stroke-width:1" /><line x1=" 0.000"
y1="-1200.000" x2=" 0.000" y2="-0.000"
style="stroke:rgb(99,99,99);stroke-width:1" /><line x1="146.877"
y1="-134.245" x2="146.877" y2="-1100.245"
style="stroke:rgb(0,0,255);stroke-width:3" /><line x1="146.877"
y1="-1100.245" x2="1462.877" y2="-1100.245"
style="stroke:rgb(0,0,255);stroke-width:3" /><line x1="1462.877"
y1="-134.245" x2="1462.877" y2="-1100.245"
style="stroke:rgb(0,0,255);stroke-width:3" /><line x1="146.877"
y1="-134.245" x2="1462.877" y2="-134.245"
style="stroke:rgb(0,0,255);stroke-width:3" /><arc cx="401.268"
cy="-628.457" r="86.578" ang1=" 1.637" ang2=" 4.647"
stroke="rgb(144,152,0)" stroke-width="1" /><line x1="470.137"
y1="-628.358" x2="499.398" y2="-628.358"
style="stroke:rgb(144,152,0);stroke-width:1" /><line x1="527.864"
y1="-628.284" x2="587.972" y2="-628.284"
style="stroke:rgb(47,47,47);stroke-width:10" /><line x1="541.436"
y1="-585.081" x2="587.644" y2="-614.470"
style="stroke:rgb(47,47,47);stroke-width:10" /><line x1="604.226"
y1="-628.401" x2="658.778" y2="-628.401"
style="stroke:rgb(144,152,0);stroke-width:1" /><circle cx="849.835"
cy="-544.810" r="20.660" stroke="rgb(128,128,128)" stroke-width="1"
fill="rgb(0,0,0)" /><circle cx="896.281" cy="-544.810" r="20.660"
stroke="rgb(128,128,128)" stroke-width="1" fill="rgb(0,0,0)" /><line
x1="846.039" y1="-572.658" x2="846.039" y2="-590.445"
style="stroke:rgb(128,128,128);stroke-width:1" /><line x1="851.710"
y1="-569.744" x2="851.710" y2="-587.532"
style="stroke:rgb(128,128,128);stroke-width:1" /><line x1="840.368"
y1="-583.085" x2="859.986" y2="-574.651"
style="stroke:rgb(128,128,128);stroke-width:1" /><line x1="891.641"
y1="-571.431" x2="891.641" y2="-589.219"
style="stroke:rgb(128,128,128);stroke-width:1" /><line x1="897.312"
y1="-568.518" x2="897.312" y2="-586.305"
style="stroke:rgb(128,128,128);stroke-width:1" /><line x1="885.970"
y1="-581.858" x2="905.588" y2="-573.425"
style="stroke:rgb(128,128,128);stroke-width:1" /><line x1="811.402"
y1="-547.063" x2="938.318" y2="-547.063"
style="stroke:rgb(128,128,128);stroke-width:1" /><circle cx="846.464"
cy="-689.827" r="20.660" stroke="rgb(128,128,128)" stroke-width="1"
fill="rgb(0,0,0)" /><circle cx="892.910" cy="-689.827" r="20.660"
stroke="rgb(128,128,128)" stroke-width="1" fill="rgb(0,0,0)" /><line
x1="842.668" y1="-717.675" x2="842.668" y2="-735.462"
style="stroke:rgb(128,128,128);stroke-width:1" /><line x1="848.339"
y1="-714.762" x2="848.339" y2="-732.549"
style="stroke:rgb(128,128,128);stroke-width:1" /><line x1="836.997"
y1="-728.102" x2="856.615" y2="-719.668"
style="stroke:rgb(128,128,128);stroke-width:1" /><line x1="888.270"
y1="-716.449" x2="888.270" y2="-734.236"
style="stroke:rgb(128,128,128);stroke-width:1" /><line x1="893.941"
y1="-713.535" x2="893.941" y2="-731.323"
style="stroke:rgb(128,128,128);stroke-width:1" /><line x1="882.599"
y1="-726.876" x2="902.217" y2="-718.442"
style="stroke:rgb(128,128,128);stroke-width:1" /><line x1="808.031"
y1="-692.080" x2="934.947" y2="-692.080"
style="stroke:rgb(128,128,128);stroke-width:1" /><line x1="294.987"
y1="-240.318" x2="294.960" y2="-1017.927"
style="stroke:rgb(144,152,0);stroke-width:1" /><arc cx="714.026"
cy="-629.329" r="86.578" ang1=" 4.778" ang2=" 1.505"
stroke="rgb(144,152,0)" stroke-width="1" /><line x1="973.954"
y1="-625.112" x2="973.954" y2="-501.175"
style="stroke:rgb(144,152,0);stroke-width:1" /><line x1="973.954"
y1="-501.175" x2="906.458" y2="-501.175"
style="stroke:rgb(144,152,0);stroke-width:1" /><line x1="906.458"
y1="-501.175" x2="906.458" y2="-394.207"
style="stroke:rgb(144,152,0);stroke-width:1" /><line x1="906.458"
y1="-394.207" x2="934.495" y2="-394.207"
style="stroke:rgb(144,152,0);stroke-width:1" /><line x1="934.495"
y1="-380.896" x2="934.495" y2="-407.461"
style="stroke:rgb(144,152,0);stroke-width:1" /><line x1="940.840"
y1="-380.896" x2="940.840" y2="-407.461"
style="stroke:rgb(144,152,0);stroke-width:1" /><circle cx="1003.518"
cy="-334.940" r="21.009" stroke="rgb(47,47,47)" stroke-width="3"
fill="rgb(0,0,0)" /><circle cx="1003.455" cy="-394.348" r="21.009"
stroke="rgb(47,47,47)" stroke-width="3" fill="rgb(0,0,0)" /><circle
cx="1003.455" cy="-451.013" r="21.009" stroke="rgb(47,47,47)"
stroke-width="3" fill="rgb(0,0,0)" /><line x1="982.446" y1="-394.348"
x2="940.840" y2="-394.348" style="stroke:rgb(144,152,0);stroke-width:1" /><line
x1="1024.464" y1="-394.348" x2="1039.314" y2="-394.348"
style="stroke:rgb(144,152,0);stroke-width:1" /><line x1="1039.389"
y1="-379.368" x2="1039.389" y2="-409.005"
style="stroke:rgb(144,152,0);stroke-width:1" /><line x1="1042.743"
y1="-383.871" x2="1042.743" y2="-403.158"
style="stroke:rgb(144,152,0);stroke-width:1" /><line x1="1046.461"
y1="-389.244" x2="1046.461" y2="-397.785"
style="stroke:rgb(144,152,0);stroke-width:1" /><line x1="973.954"
y1="-625.112" x2="973.954" y2="-752.757"
style="stroke:rgb(144,152,0);stroke-width:1" /><line x1="973.954"
y1="-752.757" x2="905.641" y2="-752.757"
style="stroke:rgb(144,152,0);stroke-width:1" /><line x1="905.641"
y1="-752.757" x2="905.641" y2="-920.955"
style="stroke:rgb(144,152,0);stroke-width:1" /><line x1="905.641"
y1="-920.955" x2="942.293" y2="-920.955"
style="stroke:rgb(144,152,0);stroke-width:1" /><line x1="950.299"
y1="-845.592" x2="1012.040" y2="-845.592"
style="stroke:rgb(47,47,47);stroke-width:3" /><line x1="969.338"
y1="-803.508" x2="1011.712" y2="-830.462"
style="stroke:rgb(0,255,0);stroke-width:3" /><line x1="934.954"
y1="-827.346" x2="934.954" y2="-858.793"
style="stroke:rgb(144,152,0);stroke-width:1" /><line x1="934.954"
y1="-842.122" x2="905.641" y2="-842.122"
style="stroke:rgb(144,152,0);stroke-width:1" /><line x1="1024.464"
y1="-841.460" x2="1039.314" y2="-841.460"
style="stroke:rgb(144,152,0);stroke-width:1" /><line x1="1039.389"
y1="-826.479" x2="1039.389" y2="-856.116"
style="stroke:rgb(144,152,0);stroke-width:1" /><line x1="1042.743"
y1="-830.983" x2="1042.743" y2="-850.270"
style="stroke:rgb(144,152,0);stroke-width:1" /><line x1="1046.461"
y1="-836.356" x2="1046.461" y2="-844.897"
style="stroke:rgb(144,152,0);stroke-width:1" /><line x1="947.687"
y1="-911.433" x2="1010.828" y2="-911.433"
style="stroke:rgb(144,152,0);stroke-width:2" /><line x1="1010.828"
y1="-911.433" x2="1010.828" y2="-930.562"
style="stroke:rgb(144,152,0);stroke-width:2" /><line x1="1010.828"
y1="-930.562" x2="947.687" y2="-930.562"
style="stroke:rgb(144,152,0);stroke-width:2" /><line x1="947.687"
y1="-930.562" x2="947.687" y2="-911.433"
style="stroke:rgb(144,152,0);stroke-width:2" /><line x1="942.293"
y1="-920.955" x2="957.131" y2="-920.955"
style="stroke:rgb(144,152,0);stroke-width:2" /><line x1="957.131"
y1="-914.606" x2="957.131" y2="-927.305"
style="stroke:rgb(144,152,0);stroke-width:2" /><line x1="957.131"
y1="-927.305" x2="992.844" y2="-920.955"
style="stroke:rgb(144,152,0);stroke-width:2" /><line x1="957.131"
y1="-914.606" x2="992.844" y2="-920.955"
style="stroke:rgb(144,152,0);stroke-width:2" /><line x1="1024.576"
y1="-921.116" x2="1039.426" y2="-921.116"
style="stroke:rgb(144,152,0);stroke-width:1" /><line x1="1039.500"
y1="-906.136" x2="1039.500" y2="-935.773"
style="stroke:rgb(144,152,0);stroke-width:1" /><line x1="1042.854"
y1="-910.639" x2="1042.854" y2="-929.927"
style="stroke:rgb(144,152,0);stroke-width:1" /><line x1="1046.572"
y1="-916.012" x2="1046.572" y2="-924.554"
style="stroke:rgb(144,152,0);stroke-width:1" /><line x1="800.599"
y1="-628.401" x2="1085.672" y2="-628.401"
style="stroke:rgb(144,152,0);stroke-width:1" /><circle cx="1234.583"
cy="-335.677" r="21.009" stroke="rgb(47,47,47)" stroke-width="3"
fill="rgb(0,0,0)" /><circle cx="1234.520" cy="-395.085" r="21.009"
stroke="rgb(47,47,47)" stroke-width="3" fill="rgb(0,0,0)" /><circle
cx="1234.520" cy="-451.750" r="21.009" stroke="rgb(47,47,47)"
stroke-width="3" fill="rgb(0,0,0)" /><circle cx="1137.686" cy="-578.593"
r="21.009" stroke="rgb(47,47,47)" stroke-width="3" fill="rgb(0,0,0)" /><line
x1="1094.575" y1="-261.289" x2="1094.575" y2="-619.250"
style="stroke:rgb(128,128,128);stroke-width:1" /><line x1="1094.575"
y1="-619.250" x2="1339.165" y2="-619.250"
style="stroke:rgb(128,128,128);stroke-width:1" /><line x1="1339.165"
y1="-619.250" x2="1339.165" y2="-261.289"
style="stroke:rgb(128,128,128);stroke-width:1" /><line x1="1339.165"
y1="-261.289" x2="1094.575" y2="-261.289"
style="stroke:rgb(128,128,128);stroke-width:1" /><circle cx="1234.583"
cy="-768.358" r="21.009" stroke="rgb(47,47,47)" stroke-width="3"
fill="rgb(0,0,0)" /><circle cx="1234.520" cy="-886.900" r="21.009"
stroke="rgb(255,0,0)" stroke-width="3" fill="rgb(0,0,0)" /><line
x1="1221.018" y1="-871.326" x2="1248.023" y2="-902.473"
style="stroke:rgb(255,0,0);stroke-width:3" /><line x1="1234.520"
y1="-886.900" x2="1221.955" y2="-903.238"
style="stroke:rgb(255,0,0);stroke-width:3" /><line x1="1234.520"
y1="-886.900" x2="1246.713" y2="-870.281"
style="stroke:rgb(255,0,0);stroke-width:3" /><line x1="1094.575"
y1="-653.148" x2="1094.575" y2="-1011.109"
style="stroke:rgb(128,128,128);stroke-width:1" /><line x1="1094.575"
y1="-1011.109" x2="1339.165" y2="-1011.109"
style="stroke:rgb(128,128,128);stroke-width:1" /><line x1="1339.165"
y1="-1011.109" x2="1339.165" y2="-653.148"
style="stroke:rgb(128,128,128);stroke-width:1" /><line x1="1339.165"
y1="-653.148" x2="1094.575" y2="-653.148"
style="stroke:rgb(128,128,128);stroke-width:1" /><line x1="599.793"
y1="-796.017" x2="636.105" y2="-821.914"
style="stroke:rgb(128,128,128);stroke-width:1" /><line x1="601.655"
y1="-811.656" x2="633.498" y2="-833.640"
style="stroke:rgb(128,128,128);stroke-width:1" /><line x1="636.200"
y1="-849.281" x2="599.406" y2="-824.074"
style="stroke:rgb(128,128,128);stroke-width:1" /><line x1="659.328"
y1="-796.017" x2="695.640" y2="-821.914"
style="stroke:rgb(128,128,128);stroke-width:1" /><line x1="661.190"
y1="-811.656" x2="693.033" y2="-833.640"
style="stroke:rgb(128,128,128);stroke-width:1" /><line x1="695.735"
y1="-849.281" x2="658.941" y2="-824.074"
style="stroke:rgb(128,128,128);stroke-width:1" /><arc cx="1139.286"
cy="-767.345" r="14.464" ang1=" 1.682" ang2=" 4.601" stroke="rgb(79,0,0)"
stroke-width="0" /><line x1="1137.685" y1="-752.970" x2="1151.510"
y2="-752.970" style="stroke:rgb(79,0,0);stroke-width:0" /><line
x1="1137.685" y1="-781.721" x2="1151.510" y2="-781.721"
style="stroke:rgb(79,0,0);stroke-width:0" /><line x1="1151.510"
y1="-747.294" x2="1151.510" y2="-787.426"
style="stroke:rgb(79,0,0);stroke-width:0" /><line x1="1151.510"
y1="-747.294" x2="1178.173" y2="-747.294"
style="stroke:rgb(79,0,0);stroke-width:0" /><line x1="1178.173"
y1="-747.294" x2="1178.173" y2="-787.426"
style="stroke:rgb(79,0,0);stroke-width:0" /><line x1="1178.173"
y1="-787.426" x2="1151.510" y2="-787.426"
style="stroke:rgb(79,0,0);stroke-width:0" /><arc cx="1139.003"
cy="-858.899" r="14.464" ang1=" 1.682" ang2=" 4.601"
stroke="rgb(15,72,0)" stroke-width="1" /><line x1="1137.402"
y1="-873.422" x2="1151.227" y2="-873.422"
style="stroke:rgb(15,72,0);stroke-width:1" /><line x1="1151.227"
y1="-867.746" x2="1151.227" y2="-907.878"
style="stroke:rgb(15,72,0);stroke-width:1" /><line x1="1151.227"
y1="-867.746" x2="1177.890" y2="-867.746"
style="stroke:rgb(15,72,0);stroke-width:1" /><line x1="1177.890"
y1="-867.746" x2="1177.890" y2="-907.878"
style="stroke:rgb(15,72,0);stroke-width:1" /><line x1="1177.890"
y1="-907.878" x2="1151.227" y2="-907.878"
style="stroke:rgb(15,72,0);stroke-width:1" /><line x1="665.881"
y1="-907.494" x2="665.881" y2="-945.780"
style="stroke:rgb(47,47,47);stroke-width:3" /><line x1="665.881"
y1="-945.780" x2="689.692" y2="-945.780"
style="stroke:rgb(47,47,47);stroke-width:3" /><line x1="689.692"
y1="-945.780" x2="689.692" y2="-907.494"
style="stroke:rgb(47,47,47);stroke-width:3" /><line x1="689.692"
y1="-907.494" x2="665.881" y2="-907.494"
style="stroke:rgb(47,47,47);stroke-width:3" /><line x1="606.346"
y1="-907.494" x2="606.346" y2="-945.780"
style="stroke:rgb(0,255,0);stroke-width:3" /><line x1="606.346"
y1="-945.780" x2="630.157" y2="-945.780"
style="stroke:rgb(0,255,0);stroke-width:3" /><line x1="630.157"
y1="-945.780" x2="630.157" y2="-907.494"
style="stroke:rgb(0,255,0);stroke-width:3" /><line x1="630.157"
y1="-907.494" x2="606.346" y2="-907.494"
style="stroke:rgb(0,255,0);stroke-width:3" /><line x1="1176.402"
y1="-557.230" x2="1176.402" y2="-601.324"
style="stroke:rgb(128,128,128);stroke-width:1" /><line x1="1176.402"
y1="-601.324" x2="1211.660" y2="-601.324"
style="stroke:rgb(128,128,128);stroke-width:1" /><line x1="1211.660"
y1="-601.324" x2="1211.660" y2="-557.230"
style="stroke:rgb(128,128,128);stroke-width:1" /><line x1="1211.660"
y1="-557.230" x2="1176.402" y2="-557.230"
style="stroke:rgb(128,128,128);stroke-width:1" /><line x1="527.864"
y1="-628.284" x2="587.972" y2="-628.284"
style="stroke:rgb(47,47,47);stroke-width:10" /><line x1="541.436"
y1="-585.081" x2="587.644" y2="-614.470"
style="stroke:rgb(47,47,47);stroke-width:10" /><line x1="950.299"
y1="-845.592" x2="1012.040" y2="-845.592"
style="stroke:rgb(47,47,47);stroke-width:10" /><line x1="969.338"
y1="-803.508" x2="1011.712" y2="-830.462"
style="stroke:rgb(0,255,0);stroke-width:10" /><line x1="487.260"
y1="-616.280" x2="511.537" y2="-640.437"
style="stroke:rgb(144,152,0);stroke-width:1" /><line x1="487.260"
y1="-640.437" x2="511.537" y2="-616.280"
style="stroke:rgb(144,152,0);stroke-width:1" /><line x1="646.639"
y1="-640.480" x2="670.916" y2="-616.323"
style="stroke:rgb(144,152,0);stroke-width:1" /><line x1="646.639"
y1="-616.323" x2="670.916" y2="-640.480"
style="stroke:rgb(144,152,0);stroke-width:1" /><line x1="402.892"
y1="-675.599" x2="402.892" y2="-581.204"
style="stroke:rgb(0,255,0);stroke-width:10" /><line x1="369.398"
y1="-628.401" x2="389.580" y2="-628.401"
style="stroke:rgb(47,47,47);stroke-width:10" /><line x1="355.694"
y1="-628.401" x2="389.580" y2="-628.401"
style="stroke:rgb(47,47,47);stroke-width:10" /><line x1="416.204"
y1="-628.401" x2="439.298" y2="-628.401"
style="stroke:rgb(47,47,47);stroke-width:10" /><line x1="416.204"
y1="-628.401" x2="450.089" y2="-628.401"
style="stroke:rgb(47,47,47);stroke-width:10" /><line x1="314.691"
y1="-628.401" x2="294.973" y2="-628.401"
style="stroke:rgb(144,152,0);stroke-width:1" /><text id="101" x="178.109"
y="-165.471" transform="rotate( 1.571,0,0)" font-family="SimHei"
font-size="18" fill="rgb(0,255,0)"> ORT400</text><line x1="1234.583"
y1="-768.358" x2="1246.775" y2="-751.739"
style="stroke:rgb(47,47,47);stroke-width:3" /><line x1="1234.583"
y1="-768.358" x2="1222.017" y2="-784.697"
style="stroke:rgb(47,47,47);stroke-width:3" /><line x1="1221.080"
y1="-752.785" x2="1248.085" y2="-783.932"
style="stroke:rgb(47,47,47);stroke-width:3" /><line x1="1124.183"
y1="-563.020" x2="1151.188" y2="-594.166"
style="stroke:rgb(47,47,47);stroke-width:3" /><line x1="1137.686"
y1="-578.593" x2="1125.120" y2="-594.932"
style="stroke:rgb(47,47,47);stroke-width:3" /><line x1="1137.686"
y1="-578.593" x2="1149.878" y2="-561.974"
style="stroke:rgb(47,47,47);stroke-width:3" /><line x1="1221.018"
y1="-436.177" x2="1248.023" y2="-467.324"
style="stroke:rgb(47,47,47);stroke-width:3" /><line x1="1234.520"
y1="-451.750" x2="1221.955" y2="-468.089"
style="stroke:rgb(47,47,47);stroke-width:3" /><line x1="1234.520"
y1="-451.750" x2="1246.713" y2="-435.131"
style="stroke:rgb(47,47,47);stroke-width:3" /><line x1="1221.018"
y1="-379.512" x2="1248.023" y2="-410.658"
style="stroke:rgb(47,47,47);stroke-width:3" /><line x1="1234.520"
y1="-395.085" x2="1221.955" y2="-411.424"
style="stroke:rgb(47,47,47);stroke-width:3" /><line x1="1234.520"
y1="-395.085" x2="1246.713" y2="-378.466"
style="stroke:rgb(47,47,47);stroke-width:3" /><line x1="1221.080"
y1="-320.104" x2="1248.085" y2="-351.250"
style="stroke:rgb(47,47,47);stroke-width:3" /><line x1="1234.583"
y1="-335.677" x2="1222.017" y2="-352.016"
style="stroke:rgb(47,47,47);stroke-width:3" /><line x1="1234.583"
y1="-335.677" x2="1246.775" y2="-319.058"
style="stroke:rgb(47,47,47);stroke-width:3" /><line x1="989.953"
y1="-435.440" x2="1016.958" y2="-466.586"
style="stroke:rgb(47,47,47);stroke-width:3" /><line x1="1003.455"
y1="-451.013" x2="990.890" y2="-467.352"
style="stroke:rgb(47,47,47);stroke-width:3" /><line x1="1003.455"
y1="-451.013" x2="1015.648" y2="-434.394"
style="stroke:rgb(47,47,47);stroke-width:3" /><line x1="989.953"
y1="-378.774" x2="1016.958" y2="-409.921"
style="stroke:rgb(47,47,47);stroke-width:3" /><line x1="1003.455"
y1="-394.348" x2="990.890" y2="-410.687"
style="stroke:rgb(47,47,47);stroke-width:3" /><line x1="1003.455"
y1="-394.348" x2="1015.648" y2="-377.729"
style="stroke:rgb(47,47,47);stroke-width:3" /><line x1="990.015"
y1="-319.367" x2="1017.020" y2="-350.513"
style="stroke:rgb(47,47,47);stroke-width:3" /><line x1="1003.518"
y1="-334.940" x2="990.952" y2="-351.279"
style="stroke:rgb(47,47,47);stroke-width:3" /><line x1="1003.518"
y1="-334.940" x2="1015.710" y2="-318.321"
style="stroke:rgb(47,47,47);stroke-width:3" /><line x1="732.078"
y1="-675.599" x2="732.078" y2="-581.204"
style="stroke:rgb(0,255,0);stroke-width:10" /><line x1="684.880"
y1="-628.401" x2="718.766" y2="-628.401"
style="stroke:rgb(47,47,47);stroke-width:10" /><line x1="698.584"
y1="-628.401" x2="718.766" y2="-628.401"
style="stroke:rgb(47,47,47);stroke-width:10" /><line x1="745.390"
y1="-628.401" x2="779.275" y2="-628.401"
style="stroke:rgb(47,47,47);stroke-width:10" /><line x1="745.390"
y1="-628.401" x2="768.484" y2="-628.401"
style="stroke:rgb(47,47,47);stroke-width:10" /><arc cx="617.876"
cy="-856.399" r="19.880" ang1=" 2.828" ang2=" 0.351"
stroke="rgb(128,128,128)" stroke-width="1" /><arc cx="618.247"
cy="-789.246" r="19.880" ang1=" 5.951" ang2=" 3.474"
stroke="rgb(128,128,128)" stroke-width="1" /><arc cx="677.411"
cy="-856.399" r="19.880" ang1=" 2.828" ang2=" 0.351"
stroke="rgb(128,128,128)" stroke-width="1" /><arc cx="677.782"
cy="-789.246" r="19.880" ang1=" 5.951" ang2=" 3.474"
stroke="rgb(128,128,128)" stroke-width="1" /><line x1="426.695"
y1="-710.773" x2="791.601" y2="-1007.622"
style="stroke:rgb(99,99,99);stroke-width:1" /><line x1="791.601"
y1="-1007.622" x2="733.448" y2="-734.753"
style="stroke:rgb(99,99,99);stroke-width:1" /><line x1="426.695"
y1="-710.773" x2="436.213" y2="-747.991"
style="stroke:rgb(99,99,99);stroke-width:1" /><line x1="426.695"
y1="-710.773" x2="466.397" y2="-723.541"
style="stroke:rgb(99,99,99);stroke-width:1" /><line x1="733.448"
y1="-734.753" x2="754.308" y2="-766.135"
style="stroke:rgb(99,99,99);stroke-width:1" /><line x1="733.448"
y1="-734.753" x2="714.959" y2="-769.989"
style="stroke:rgb(99,99,99);stroke-width:1" /><line x1="808.458"
y1="-955.878" x2="806.059" y2="-993.172"
style="stroke:rgb(96,176,207);stroke-width:1" /><line x1="835.120"
y1="-987.311" x2="835.120" y2="-956.410"
style="stroke:rgb(96,176,207);stroke-width:1" /><line x1="820.189"
y1="-982.516" x2="815.924" y2="-990.508"
style="stroke:rgb(96,176,207);stroke-width:1" /><line x1="799.950"
y1="-992.087" x2="799.041" y2="-985.343"
style="stroke:rgb(96,176,207);stroke-width:1" /><line x1="802.454"
y1="-987.096" x2="803.594" y2="-981.856"
style="stroke:rgb(96,176,207);stroke-width:1" /><line x1="836.202"
y1="-986.640" x2="829.361" y2="-989.602"
style="stroke:rgb(96,176,207);stroke-width:1" /><line x1="839.623"
y1="-1009.651" x2="845.095" y2="-979.805"
style="stroke:rgb(96,176,207);stroke-width:1" /><line x1="828.455"
y1="-915.120" x2="831.654" y2="-916.186"
style="stroke:rgb(96,176,207);stroke-width:1" /><line x1="831.654"
y1="-916.186" x2="834.320" y2="-914.588"
style="stroke:rgb(96,176,207);stroke-width:1" /><line x1="811.391"
y1="-913.522" x2="811.924" y2="-914.854"
style="stroke:rgb(96,176,207);stroke-width:1" /><line x1="811.924"
y1="-914.854" x2="815.657" y2="-912.457"
style="stroke:rgb(96,176,207);stroke-width:1" /><line x1="815.657"
y1="-912.457" x2="816.190" y2="-912.457"
style="stroke:rgb(96,176,207);stroke-width:1" /><line x1="821.256"
y1="-954.812" x2="820.189" y2="-952.148"
style="stroke:rgb(96,176,207);stroke-width:1" /><line x1="820.189"
y1="-952.148" x2="820.723" y2="-951.882"
style="stroke:rgb(96,176,207);stroke-width:1" /><line x1="820.723"
y1="-951.882" x2="818.590" y2="-912.989"
style="stroke:rgb(96,176,207);stroke-width:1" /><line x1="818.590"
y1="-912.989" x2="817.523" y2="-912.723"
style="stroke:rgb(96,176,207);stroke-width:1" /><line x1="817.523"
y1="-912.723" x2="819.656" y2="-908.461"
style="stroke:rgb(96,176,207);stroke-width:1" /><line x1="819.656"
y1="-908.461" x2="819.656" y2="-906.862"
style="stroke:rgb(96,176,207);stroke-width:1" /><line x1="819.656"
y1="-906.862" x2="811.924" y2="-906.330"
style="stroke:rgb(96,176,207);stroke-width:1" /><line x1="811.924"
y1="-906.330" x2="806.859" y2="-906.596"
style="stroke:rgb(96,176,207);stroke-width:1" /><line x1="806.859"
y1="-906.596" x2="803.659" y2="-906.596"
style="stroke:rgb(96,176,207);stroke-width:1" /><line x1="803.659"
y1="-906.596" x2="803.659" y2="-908.994"
style="stroke:rgb(96,176,207);stroke-width:1" /><line x1="803.659"
y1="-908.994" x2="809.791" y2="-912.989"
style="stroke:rgb(96,176,207);stroke-width:1" /><line x1="809.791"
y1="-912.989" x2="808.458" y2="-952.148"
style="stroke:rgb(96,176,207);stroke-width:1" /><line x1="808.458"
y1="-952.148" x2="808.992" y2="-954.546"
style="stroke:rgb(96,176,207);stroke-width:1" /><line x1="808.992"
y1="-954.546" x2="808.458" y2="-955.878"
style="stroke:rgb(96,176,207);stroke-width:1" /><line x1="835.120"
y1="-956.410" x2="835.920" y2="-953.480"
style="stroke:rgb(96,176,207);stroke-width:1" /><line x1="835.920"
y1="-953.480" x2="835.387" y2="-914.055"
style="stroke:rgb(96,176,207);stroke-width:1" /><line x1="835.387"
y1="-914.055" x2="832.720" y2="-913.256"
style="stroke:rgb(96,176,207);stroke-width:1" /><line x1="832.720"
y1="-913.256" x2="834.320" y2="-910.059"
style="stroke:rgb(96,176,207);stroke-width:1" /><line x1="834.320"
y1="-910.059" x2="835.920" y2="-908.461"
style="stroke:rgb(96,176,207);stroke-width:1" /><line x1="835.920"
y1="-908.461" x2="835.920" y2="-906.862"
style="stroke:rgb(96,176,207);stroke-width:1" /><line x1="835.920"
y1="-906.862" x2="831.921" y2="-906.596"
style="stroke:rgb(96,176,207);stroke-width:1" /><line x1="831.921"
y1="-906.596" x2="824.189" y2="-906.330"
style="stroke:rgb(96,176,207);stroke-width:1" /><line x1="824.189"
y1="-906.330" x2="823.122" y2="-908.461"
style="stroke:rgb(96,176,207);stroke-width:1" /><line x1="823.122"
y1="-908.461" x2="824.189" y2="-910.325"
style="stroke:rgb(96,176,207);stroke-width:1" /><line x1="824.189"
y1="-910.325" x2="827.388" y2="-913.256"
style="stroke:rgb(96,176,207);stroke-width:1" /><line x1="827.388"
y1="-913.256" x2="826.322" y2="-914.588"
style="stroke:rgb(96,176,207);stroke-width:1" /><line x1="826.322"
y1="-914.588" x2="822.589" y2="-952.681"
style="stroke:rgb(96,176,207);stroke-width:1" /><line x1="822.589"
y1="-952.681" x2="821.789" y2="-955.345"
style="stroke:rgb(96,176,207);stroke-width:1" /><line x1="821.789"
y1="-955.345" x2="820.189" y2="-982.516"
style="stroke:rgb(96,176,207);stroke-width:1" /><line x1="799.041"
y1="-985.343" x2="799.820" y2="-985.084"
style="stroke:rgb(96,176,207);stroke-width:1" /><line x1="799.820"
y1="-985.084" x2="800.339" y2="-983.657"
style="stroke:rgb(96,176,207);stroke-width:1" /><line x1="800.339"
y1="-983.657" x2="801.248" y2="-983.528"
style="stroke:rgb(96,176,207);stroke-width:1" /><line x1="801.248"
y1="-983.528" x2="801.507" y2="-982.490"
style="stroke:rgb(96,176,207);stroke-width:1" /><line x1="801.507"
y1="-982.490" x2="803.195" y2="-981.971"
style="stroke:rgb(96,176,207);stroke-width:1" /><line x1="803.594"
y1="-981.856" x2="804.279" y2="-978.894"
style="stroke:rgb(96,176,207);stroke-width:1" /><line x1="804.279"
y1="-978.894" x2="806.787" y2="-979.805"
style="stroke:rgb(96,176,207);stroke-width:1" /><line x1="844.183"
y1="-980.489" x2="840.763" y2="-982.767"
style="stroke:rgb(96,176,207);stroke-width:1" /><line x1="840.763"
y1="-982.767" x2="836.202" y2="-986.640"
style="stroke:rgb(96,176,207);stroke-width:1" /><line x1="845.095"
y1="-979.805" x2="842.587" y2="-979.577"
style="stroke:rgb(96,176,207);stroke-width:1" /><line x1="842.587"
y1="-979.577" x2="838.482" y2="-981.628"
style="stroke:rgb(96,176,207);stroke-width:1" /><line x1="838.482"
y1="-981.628" x2="835.290" y2="-982.311"
style="stroke:rgb(96,176,207);stroke-width:1" /><line x1="817.792"
y1="-1075.981" x2="818.260" y2="-1076.448"
style="stroke:rgb(96,176,207);stroke-width:1" /><line x1="818.260"
y1="-1076.448" x2="819.102" y2="-1076.168"
style="stroke:rgb(96,176,207);stroke-width:1" /><line x1="812.366"
y1="-1076.542" x2="812.928" y2="-1076.729"
style="stroke:rgb(96,176,207);stroke-width:1" /><line x1="812.928"
y1="-1076.729" x2="813.489" y2="-1076.074"
style="stroke:rgb(96,176,207);stroke-width:1" /><line x1="810.495"
y1="-1077.663" x2="812.647" y2="-1078.131"
style="stroke:rgb(96,176,207);stroke-width:1" /><line x1="812.647"
y1="-1078.131" x2="814.799" y2="-1077.289"
style="stroke:rgb(96,176,207);stroke-width:1" /><line x1="811.150"
y1="-1076.822" x2="813.302" y2="-1076.916"
style="stroke:rgb(96,176,207);stroke-width:1" /><line x1="813.302"
y1="-1076.916" x2="814.799" y2="-1076.355"
style="stroke:rgb(96,176,207);stroke-width:1" /><line x1="814.799"
y1="-1076.355" x2="814.425" y2="-1075.794"
style="stroke:rgb(96,176,207);stroke-width:1" /><line x1="814.425"
y1="-1075.794" x2="813.395" y2="-1075.887"
style="stroke:rgb(96,176,207);stroke-width:1" /><line x1="813.395"
y1="-1075.887" x2="811.618" y2="-1076.355"
style="stroke:rgb(96,176,207);stroke-width:1" /><line x1="816.857"
y1="-1077.196" x2="818.073" y2="-1078.131"
style="stroke:rgb(96,176,207);stroke-width:1" /><line x1="818.073"
y1="-1078.131" x2="820.973" y2="-1077.850"
style="stroke:rgb(96,176,207);stroke-width:1" /><line x1="820.973"
y1="-1077.850" x2="821.441" y2="-1077.103"
style="stroke:rgb(96,176,207);stroke-width:1" /><line x1="820.599"
y1="-1076.916" x2="819.383" y2="-1077.009"
style="stroke:rgb(96,176,207);stroke-width:1" /><line x1="819.383"
y1="-1077.009" x2="817.792" y2="-1076.822"
style="stroke:rgb(96,176,207);stroke-width:1" /><line x1="817.792"
y1="-1076.822" x2="817.044" y2="-1076.355"
style="stroke:rgb(96,176,207);stroke-width:1" /><line x1="817.044"
y1="-1076.355" x2="817.512" y2="-1075.794"
style="stroke:rgb(96,176,207);stroke-width:1" /><line x1="817.512"
y1="-1075.794" x2="818.728" y2="-1075.701"
style="stroke:rgb(96,176,207);stroke-width:1" /><line x1="818.728"
y1="-1075.701" x2="820.599" y2="-1076.355"
style="stroke:rgb(96,176,207);stroke-width:1" /><line x1="813.208"
y1="-1069.064" x2="814.799" y2="-1069.532"
style="stroke:rgb(96,176,207);stroke-width:1" /><line x1="814.799"
y1="-1069.532" x2="815.641" y2="-1069.438"
style="stroke:rgb(96,176,207);stroke-width:1" /><line x1="815.641"
y1="-1069.438" x2="817.605" y2="-1069.158"
style="stroke:rgb(96,176,207);stroke-width:1" /><line x1="813.863"
y1="-1071.681" x2="814.144" y2="-1071.214"
style="stroke:rgb(96,176,207);stroke-width:1" /><line x1="814.144"
y1="-1071.214" x2="816.202" y2="-1071.307"
style="stroke:rgb(96,176,207);stroke-width:1" /><line x1="816.202"
y1="-1071.307" x2="817.231" y2="-1071.775"
style="stroke:rgb(96,176,207);stroke-width:1" /><line x1="826.586"
y1="-1077.570" x2="827.054" y2="-1078.224"
style="stroke:rgb(96,176,207);stroke-width:1" /><line x1="827.054"
y1="-1078.224" x2="827.896" y2="-1078.505"
style="stroke:rgb(96,176,207);stroke-width:1" /><line x1="827.896"
y1="-1078.505" x2="828.550" y2="-1077.850"
style="stroke:rgb(96,176,207);stroke-width:1" /><line x1="828.550"
y1="-1077.850" x2="828.925" y2="-1076.916"
style="stroke:rgb(96,176,207);stroke-width:1" /><line x1="828.925"
y1="-1076.916" x2="828.644" y2="-1075.140"
style="stroke:rgb(96,176,207);stroke-width:1" /><line x1="828.644"
y1="-1075.140" x2="828.083" y2="-1073.831"
style="stroke:rgb(96,176,207);stroke-width:1" /><line x1="828.083"
y1="-1073.831" x2="827.054" y2="-1072.709"
style="stroke:rgb(96,176,207);stroke-width:1" /><line x1="827.054"
y1="-1072.709" x2="826.399" y2="-1071.868"
style="stroke:rgb(96,176,207);stroke-width:1" /><line x1="826.399"
y1="-1071.868" x2="825.838" y2="-1071.588"
style="stroke:rgb(96,176,207);stroke-width:1" /><line x1="825.838"
y1="-1071.588" x2="825.650" y2="-1072.149"
style="stroke:rgb(96,176,207);stroke-width:1" /><line x1="814.518"
y1="-1068.410" x2="816.202" y2="-1068.316"
style="stroke:rgb(96,176,207);stroke-width:1" /><line x1="812.928"
y1="-1064.204" x2="812.834" y2="-1063.923"
style="stroke:rgb(96,176,207);stroke-width:1" /><line x1="812.834"
y1="-1063.923" x2="814.986" y2="-1063.643"
style="stroke:rgb(96,176,207);stroke-width:1" /><line x1="825.838"
y1="-1064.765" x2="826.212" y2="-1064.204"
style="stroke:rgb(96,176,207);stroke-width:1" /><line x1="826.212"
y1="-1064.204" x2="823.125" y2="-1063.736"
style="stroke:rgb(96,176,207);stroke-width:1" /><line x1="823.125"
y1="-1063.736" x2="819.570" y2="-1063.736"
style="stroke:rgb(96,176,207);stroke-width:1" /><line x1="814.892"
y1="-1062.054" x2="816.295" y2="-1058.970"
style="stroke:rgb(96,176,207);stroke-width:1" /><line x1="816.295"
y1="-1058.970" x2="816.950" y2="-1058.409"
style="stroke:rgb(96,176,207);stroke-width:1" /><line x1="816.950"
y1="-1058.409" x2="818.634" y2="-1059.063"
style="stroke:rgb(96,176,207);stroke-width:1" /><line x1="818.634"
y1="-1059.063" x2="819.757" y2="-1061.774"
style="stroke:rgb(96,176,207);stroke-width:1" /><line x1="813.583"
y1="-1064.578" x2="812.741" y2="-1064.578"
style="stroke:rgb(96,176,207);stroke-width:1" /><line x1="812.741"
y1="-1064.578" x2="812.086" y2="-1064.110"
style="stroke:rgb(96,176,207);stroke-width:1" /><line x1="812.086"
y1="-1064.110" x2="810.683" y2="-1058.222"
style="stroke:rgb(96,176,207);stroke-width:1" /><line x1="810.683"
y1="-1058.222" x2="814.331" y2="-1062.054"
style="stroke:rgb(96,176,207);stroke-width:1" /><line x1="814.331"
y1="-1062.054" x2="815.921" y2="-1063.550"
style="stroke:rgb(96,176,207);stroke-width:1" /><line x1="815.921"
y1="-1063.550" x2="819.102" y2="-1063.456"
style="stroke:rgb(96,176,207);stroke-width:1" /><line x1="819.102"
y1="-1063.456" x2="823.031" y2="-1057.567"
style="stroke:rgb(96,176,207);stroke-width:1" /><line x1="823.031"
y1="-1057.567" x2="826.212" y2="-1059.624"
style="stroke:rgb(96,176,207);stroke-width:1" /><line x1="826.212"
y1="-1059.624" x2="828.083" y2="-1060.839"
style="stroke:rgb(96,176,207);stroke-width:1" /><line x1="828.083"
y1="-1060.839" x2="827.521" y2="-1062.708"
style="stroke:rgb(96,176,207);stroke-width:1" /><line x1="827.521"
y1="-1062.708" x2="827.241" y2="-1064.858"
style="stroke:rgb(96,176,207);stroke-width:1" /><line x1="827.241"
y1="-1064.858" x2="826.305" y2="-1064.765"
style="stroke:rgb(96,176,207);stroke-width:1" /><line x1="827.428"
y1="-1072.896" x2="826.492" y2="-1070.560"
style="stroke:rgb(96,176,207);stroke-width:1" /><line x1="826.492"
y1="-1070.560" x2="826.118" y2="-1066.821"
style="stroke:rgb(96,176,207);stroke-width:1" /><line x1="826.118"
y1="-1066.821" x2="825.931" y2="-1064.765"
style="stroke:rgb(96,176,207);stroke-width:1" /><line x1="810.776"
y1="-1084.767" x2="811.337" y2="-1085.421"
style="stroke:rgb(96,176,207);stroke-width:1" /><line x1="811.337"
y1="-1085.421" x2="815.266" y2="-1085.608"
style="stroke:rgb(96,176,207);stroke-width:1" /><line x1="815.266"
y1="-1085.608" x2="819.663" y2="-1085.515"
style="stroke:rgb(96,176,207);stroke-width:1" /><line x1="819.663"
y1="-1085.515" x2="821.721" y2="-1085.141"
style="stroke:rgb(96,176,207);stroke-width:1" /><line x1="821.721"
y1="-1085.141" x2="823.779" y2="-1084.300"
style="stroke:rgb(96,176,207);stroke-width:1" /><line x1="823.779"
y1="-1084.300" x2="824.808" y2="-1082.243"
style="stroke:rgb(96,176,207);stroke-width:1" /><line x1="824.808"
y1="-1082.243" x2="825.183" y2="-1080.280"
style="stroke:rgb(96,176,207);stroke-width:1" /><line x1="825.183"
y1="-1080.280" x2="826.212" y2="-1079.346"
style="stroke:rgb(96,176,207);stroke-width:1" /><line x1="826.212"
y1="-1079.346" x2="826.212" y2="-1078.505"
style="stroke:rgb(96,176,207);stroke-width:1" /><line x1="826.212"
y1="-1078.505" x2="826.586" y2="-1078.318"
style="stroke:rgb(96,176,207);stroke-width:1" /><line x1="814.518"
y1="-1064.017" x2="813.863" y2="-1065.045"
style="stroke:rgb(96,176,207);stroke-width:1" /><line x1="813.863"
y1="-1065.045" x2="812.928" y2="-1065.232"
style="stroke:rgb(96,176,207);stroke-width:1" /><line x1="812.928"
y1="-1065.232" x2="811.899" y2="-1066.447"
style="stroke:rgb(96,176,207);stroke-width:1" /><line x1="811.899"
y1="-1066.447" x2="810.683" y2="-1068.877"
style="stroke:rgb(96,176,207);stroke-width:1" /><line x1="810.683"
y1="-1068.877" x2="809.654" y2="-1073.270"
style="stroke:rgb(96,176,207);stroke-width:1" /><line x1="809.654"
y1="-1073.270" x2="810.402" y2="-1076.168"
style="stroke:rgb(96,176,207);stroke-width:1" /><line x1="810.402"
y1="-1076.168" x2="809.841" y2="-1077.383"
style="stroke:rgb(96,176,207);stroke-width:1" /><line x1="809.841"
y1="-1077.383" x2="809.841" y2="-1080.187"
style="stroke:rgb(96,176,207);stroke-width:1" /><line x1="809.841"
y1="-1080.187" x2="810.589" y2="-1084.487"
style="stroke:rgb(96,176,207);stroke-width:1" /><line x1="810.589"
y1="-1084.487" x2="810.402" y2="-1086.636"
style="stroke:rgb(96,176,207);stroke-width:1" /><line x1="810.402"
y1="-1086.636" x2="811.712" y2="-1087.945"
style="stroke:rgb(96,176,207);stroke-width:1" /><line x1="811.712"
y1="-1087.945" x2="816.670" y2="-1088.786"
style="stroke:rgb(96,176,207);stroke-width:1" /><line x1="816.670"
y1="-1088.786" x2="823.873" y2="-1088.412"
style="stroke:rgb(96,176,207);stroke-width:1" /><line x1="823.873"
y1="-1088.412" x2="826.679" y2="-1087.665"
style="stroke:rgb(96,176,207);stroke-width:1" /><line x1="826.679"
y1="-1087.665" x2="828.176" y2="-1085.047"
style="stroke:rgb(96,176,207);stroke-width:1" /><line x1="828.176"
y1="-1085.047" x2="828.925" y2="-1082.243"
style="stroke:rgb(96,176,207);stroke-width:1" /><line x1="828.925"
y1="-1082.243" x2="828.550" y2="-1079.907"
style="stroke:rgb(96,176,207);stroke-width:1" /><line x1="828.550"
y1="-1079.907" x2="827.896" y2="-1078.598"
style="stroke:rgb(96,176,207);stroke-width:1" /><line x1="825.941"
y1="-1029.245" x2="829.589" y2="-1029.700"
style="stroke:rgb(96,176,207);stroke-width:1" /><line x1="829.589"
y1="-1029.700" x2="834.378" y2="-1031.979"
style="stroke:rgb(96,176,207);stroke-width:1" /><line x1="834.378"
y1="-1031.979" x2="837.114" y2="-1031.979"
style="stroke:rgb(96,176,207);stroke-width:1" /><line x1="837.114"
y1="-1031.979" x2="835.518" y2="-1032.434"
style="stroke:rgb(96,176,207);stroke-width:1" /><line x1="835.518"
y1="-1032.434" x2="837.342" y2="-1040.408"
style="stroke:rgb(96,176,207);stroke-width:1" /><line x1="837.342"
y1="-1040.408" x2="834.834" y2="-1038.813"
style="stroke:rgb(96,176,207);stroke-width:1" /><line x1="810.891"
y1="-1010.562" x2="814.540" y2="-1009.651"
style="stroke:rgb(96,176,207);stroke-width:1" /><line x1="814.540"
y1="-1009.651" x2="819.100" y2="-1010.335"
style="stroke:rgb(96,176,207);stroke-width:1" /><line x1="826.429"
y1="-1028.011" x2="825.520" y2="-1028.140"
style="stroke:rgb(96,176,207);stroke-width:1" /><line x1="825.520"
y1="-1028.140" x2="824.611" y2="-1030.345"
style="stroke:rgb(96,176,207);stroke-width:1" /><line x1="824.611"
y1="-1030.345" x2="823.313" y2="-1031.772"
style="stroke:rgb(96,176,207);stroke-width:1" /><line x1="823.313"
y1="-1031.772" x2="822.145" y2="-1031.772"
style="stroke:rgb(96,176,207);stroke-width:1" /><line x1="822.145"
y1="-1031.772" x2="820.328" y2="-1032.161"
style="stroke:rgb(96,176,207);stroke-width:1" /><line x1="820.328"
y1="-1032.161" x2="819.809" y2="-1031.253"
style="stroke:rgb(96,176,207);stroke-width:1" /><line x1="819.809"
y1="-1031.253" x2="820.198" y2="-1030.215"
style="stroke:rgb(96,176,207);stroke-width:1" /><line x1="820.198"
y1="-1030.215" x2="821.626" y2="-1029.567"
style="stroke:rgb(96,176,207);stroke-width:1" /><line x1="821.626"
y1="-1029.567" x2="822.535" y2="-1028.400"
style="stroke:rgb(96,176,207);stroke-width:1" /><line x1="822.535"
y1="-1028.400" x2="820.977" y2="-1026.714"
style="stroke:rgb(96,176,207);stroke-width:1" /><line x1="820.977"
y1="-1026.714" x2="817.732" y2="-1024.769"
style="stroke:rgb(96,176,207);stroke-width:1" /><line x1="817.732"
y1="-1024.769" x2="817.472" y2="-1023.342"
style="stroke:rgb(96,176,207);stroke-width:1" /><line x1="817.472"
y1="-1023.342" x2="818.770" y2="-1023.083"
style="stroke:rgb(96,176,207);stroke-width:1" /><line x1="818.770"
y1="-1023.083" x2="816.823" y2="-1021.137"
style="stroke:rgb(96,176,207);stroke-width:1" /><line x1="816.823"
y1="-1021.137" x2="816.953" y2="-1020.359"
style="stroke:rgb(96,176,207);stroke-width:1" /><line x1="816.953"
y1="-1020.359" x2="817.602" y2="-1019.840"
style="stroke:rgb(96,176,207);stroke-width:1" /><line x1="817.602"
y1="-1019.840" x2="816.953" y2="-1018.803"
style="stroke:rgb(96,176,207);stroke-width:1" /><line x1="816.953"
y1="-1018.803" x2="817.732" y2="-1018.025"
style="stroke:rgb(96,176,207);stroke-width:1" /><line x1="817.732"
y1="-1018.025" x2="817.472" y2="-1016.598"
style="stroke:rgb(96,176,207);stroke-width:1" /><line x1="817.472"
y1="-1016.598" x2="818.121" y2="-1015.690"
style="stroke:rgb(96,176,207);stroke-width:1" /><line x1="818.121"
y1="-1015.690" x2="819.809" y2="-1016.209"
style="stroke:rgb(96,176,207);stroke-width:1" /><line x1="819.809"
y1="-1016.209" x2="822.664" y2="-1018.544"
style="stroke:rgb(96,176,207);stroke-width:1" /><line x1="822.664"
y1="-1018.544" x2="824.352" y2="-1021.137"
style="stroke:rgb(96,176,207);stroke-width:1" /><line x1="824.352"
y1="-1021.137" x2="826.429" y2="-1022.564"
style="stroke:rgb(96,176,207);stroke-width:1" /><line x1="826.429"
y1="-1022.564" x2="828.505" y2="-1022.045"
style="stroke:rgb(96,176,207);stroke-width:1" /><line x1="827.081"
y1="-1020.587" x2="829.133" y2="-1021.726"
style="stroke:rgb(96,176,207);stroke-width:1" /><line x1="829.133"
y1="-1021.726" x2="830.045" y2="-1024.916"
style="stroke:rgb(96,176,207);stroke-width:1" /><line x1="830.045"
y1="-1024.916" x2="829.361" y2="-1027.878"
style="stroke:rgb(96,176,207);stroke-width:1" /><line x1="829.361"
y1="-1027.878" x2="827.309" y2="-1029.017"
style="stroke:rgb(96,176,207);stroke-width:1" /><line x1="827.309"
y1="-1029.017" x2="825.941" y2="-1029.245"
style="stroke:rgb(96,176,207);stroke-width:1" /><line x1="818.298"
y1="-1058.112" x2="817.526" y2="-1049.246"
style="stroke:rgb(96,176,207);stroke-width:1" /><line x1="817.526"
y1="-1049.246" x2="818.105" y2="-1037.490"
style="stroke:rgb(96,176,207);stroke-width:1" /><line x1="818.105"
y1="-1037.490" x2="818.298" y2="-1032.286"
style="stroke:rgb(96,176,207);stroke-width:1" /><line x1="818.298"
y1="-1032.286" x2="819.455" y2="-1026.890"
style="stroke:rgb(96,176,207);stroke-width:1" /><line x1="831.642"
y1="-1059.318" x2="830.958" y2="-1055.445"
style="stroke:rgb(96,176,207);stroke-width:1" /><line x1="830.958"
y1="-1055.445" x2="827.993" y2="-1053.850"
style="stroke:rgb(96,176,207);stroke-width:1" /><line x1="827.993"
y1="-1053.850" x2="830.730" y2="-1052.711"
style="stroke:rgb(96,176,207);stroke-width:1" /><line x1="830.730"
y1="-1052.711" x2="827.993" y2="-1049.294"
style="stroke:rgb(96,176,207);stroke-width:1" /><line x1="827.993"
y1="-1049.294" x2="826.169" y2="-1042.003"
style="stroke:rgb(96,176,207);stroke-width:1" /><line x1="826.169"
y1="-1042.003" x2="824.573" y2="-1032.206"
style="stroke:rgb(96,176,207);stroke-width:1" /><line x1="827.765"
y1="-1061.141" x2="823.889" y2="-1053.167"
style="stroke:rgb(96,176,207);stroke-width:1" /><line x1="823.889"
y1="-1053.167" x2="820.924" y2="-1046.332"
style="stroke:rgb(96,176,207);stroke-width:1" /><line x1="820.924"
y1="-1046.332" x2="820.240" y2="-1037.446"
style="stroke:rgb(96,176,207);stroke-width:1" /><line x1="820.240"
y1="-1037.446" x2="820.012" y2="-1032.662"
style="stroke:rgb(96,176,207);stroke-width:1" /><line x1="810.663"
y1="-1061.369" x2="808.383" y2="-1058.635"
style="stroke:rgb(96,176,207);stroke-width:1" /><line x1="808.383"
y1="-1058.635" x2="807.699" y2="-1052.028"
style="stroke:rgb(96,176,207);stroke-width:1" /><line x1="807.699"
y1="-1052.028" x2="808.155" y2="-1040.864"
style="stroke:rgb(96,176,207);stroke-width:1" /><line x1="808.155"
y1="-1040.864" x2="810.435" y2="-1024.916"
style="stroke:rgb(96,176,207);stroke-width:1" /><line x1="815.452"
y1="-1058.863" x2="812.715" y2="-1049.977"
style="stroke:rgb(96,176,207);stroke-width:1" /><line x1="812.715"
y1="-1049.977" x2="811.575" y2="-1035.168"
style="stroke:rgb(96,176,207);stroke-width:1" /><line x1="811.575"
y1="-1035.168" x2="810.891" y2="-1022.182"
style="stroke:rgb(96,176,207);stroke-width:1" /><line x1="810.891"
y1="-1022.182" x2="809.979" y2="-1016.942"
style="stroke:rgb(96,176,207);stroke-width:1" /><line x1="809.979"
y1="-1016.942" x2="814.996" y2="-1011.702"
style="stroke:rgb(96,176,207);stroke-width:1" /><line x1="814.996"
y1="-1011.702" x2="818.644" y2="-1015.575"
style="stroke:rgb(96,176,207);stroke-width:1" /><line x1="805.647"
y1="-1059.090" x2="802.682" y2="-1055.673"
style="stroke:rgb(96,176,207);stroke-width:1" /><line x1="802.682"
y1="-1055.673" x2="805.191" y2="-1053.850"
style="stroke:rgb(96,176,207);stroke-width:1" /><line x1="805.191"
y1="-1053.850" x2="801.998" y2="-1051.572"
style="stroke:rgb(96,176,207);stroke-width:1" /><line x1="801.998"
y1="-1051.572" x2="804.507" y2="-1044.509"
style="stroke:rgb(96,176,207);stroke-width:1" /><line x1="804.507"
y1="-1044.509" x2="807.927" y2="-1031.979"
style="stroke:rgb(96,176,207);stroke-width:1" /><line x1="807.927"
y1="-1031.979" x2="809.979" y2="-1022.182"
style="stroke:rgb(96,176,207);stroke-width:1" /><line x1="809.979"
y1="-1022.182" x2="810.435" y2="-1019.903"
style="stroke:rgb(96,176,207);stroke-width:1" /><line x1="811.575"
y1="-1062.508" x2="806.559" y2="-1059.546"
style="stroke:rgb(96,176,207);stroke-width:1" /><line x1="806.559"
y1="-1059.546" x2="801.770" y2="-1057.496"
style="stroke:rgb(96,176,207);stroke-width:1" /><line x1="801.770"
y1="-1057.496" x2="799.262" y2="-1055.673"
style="stroke:rgb(96,176,207);stroke-width:1" /><line x1="799.262"
y1="-1055.673" x2="797.210" y2="-1052.711"
style="stroke:rgb(96,176,207);stroke-width:1" /><line x1="797.210"
y1="-1052.711" x2="795.386" y2="-1047.015"
style="stroke:rgb(96,176,207);stroke-width:1" /><line x1="795.386"
y1="-1047.015" x2="796.526" y2="-1036.080"
style="stroke:rgb(96,176,207);stroke-width:1" /><line x1="796.526"
y1="-1036.080" x2="795.842" y2="-1028.105"
style="stroke:rgb(96,176,207);stroke-width:1" /><line x1="795.842"
y1="-1028.105" x2="796.070" y2="-1025.599"
style="stroke:rgb(96,176,207);stroke-width:1" /><line x1="796.070"
y1="-1025.599" x2="799.946" y2="-1003.500"
style="stroke:rgb(96,176,207);stroke-width:1" /><line x1="799.946"
y1="-1003.500" x2="800.858" y2="-1003.044"
style="stroke:rgb(96,176,207);stroke-width:1" /><line x1="800.858"
y1="-1003.044" x2="801.314" y2="-999.171"
style="stroke:rgb(96,176,207);stroke-width:1" /><line x1="801.314"
y1="-999.171" x2="801.998" y2="-999.171"
style="stroke:rgb(96,176,207);stroke-width:1" /><line x1="801.998"
y1="-999.171" x2="802.682" y2="-999.171"
style="stroke:rgb(96,176,207);stroke-width:1" /><line x1="828.221"
y1="-1062.280" x2="832.326" y2="-1060.002"
style="stroke:rgb(96,176,207);stroke-width:1" /><line x1="832.326"
y1="-1060.002" x2="838.254" y2="-1057.951"
style="stroke:rgb(96,176,207);stroke-width:1" /><line x1="838.254"
y1="-1057.951" x2="843.043" y2="-1056.356"
style="stroke:rgb(96,176,207);stroke-width:1" /><line x1="843.043"
y1="-1056.356" x2="846.007" y2="-1051.800"
style="stroke:rgb(96,176,207);stroke-width:1" /><line x1="846.007"
y1="-1051.800" x2="847.375" y2="-1041.320"
style="stroke:rgb(96,176,207);stroke-width:1" /><line x1="847.375"
y1="-1041.320" x2="846.919" y2="-1029.245"
style="stroke:rgb(96,176,207);stroke-width:1" /><line x1="846.919"
y1="-1029.245" x2="843.955" y2="-1024.460"
style="stroke:rgb(96,176,207);stroke-width:1" /><line x1="843.955"
y1="-1024.460" x2="840.079" y2="-1021.043"
style="stroke:rgb(96,176,207);stroke-width:1" /><line x1="840.079"
y1="-1021.043" x2="837.114" y2="-1018.764"
style="stroke:rgb(96,176,207);stroke-width:1" /><line x1="837.114"
y1="-1018.764" x2="831.186" y2="-1018.764"
style="stroke:rgb(96,176,207);stroke-width:1" /><line x1="831.186"
y1="-1018.764" x2="827.765" y2="-1018.992"
style="stroke:rgb(96,176,207);stroke-width:1" /><line x1="827.765"
y1="-1018.992" x2="825.257" y2="-1020.359"
style="stroke:rgb(96,176,207);stroke-width:1" /><line x1="802.156"
y1="-998.831" x2="800.728" y2="-995.589"
style="stroke:rgb(96,176,207);stroke-width:1" /><line x1="800.728"
y1="-995.589" x2="799.950" y2="-992.087"
style="stroke:rgb(96,176,207);stroke-width:1" /><line x1="803.138"
y1="-990.513" x2="802.226" y2="-999.399"
style="stroke:rgb(96,176,207);stroke-width:1" /><line x1="802.226"
y1="-999.399" x2="802.226" y2="-1006.461"
style="stroke:rgb(96,176,207);stroke-width:1" /><line x1="802.226"
y1="-1006.461" x2="801.542" y2="-1013.296"
style="stroke:rgb(96,176,207);stroke-width:1" /><line x1="801.542"
y1="-1013.296" x2="801.542" y2="-1018.992"
style="stroke:rgb(96,176,207);stroke-width:1" /><line x1="801.542"
y1="-1018.992" x2="801.542" y2="-1025.144"
style="stroke:rgb(96,176,207);stroke-width:1" /><line x1="801.542"
y1="-1025.144" x2="801.998" y2="-1035.624"
style="stroke:rgb(96,176,207);stroke-width:1" /><line x1="801.998"
y1="-1035.624" x2="799.718" y2="-1042.459"
style="stroke:rgb(96,176,207);stroke-width:1" /><line x1="811.575"
y1="-1015.119" x2="810.435" y2="-1010.335"
style="stroke:rgb(96,176,207);stroke-width:1" /><line x1="810.435"
y1="-1010.335" x2="809.523" y2="-1006.917"
style="stroke:rgb(96,176,207);stroke-width:1" /><line x1="809.523"
y1="-1006.917" x2="809.523" y2="-1000.538"
style="stroke:rgb(96,176,207);stroke-width:1" /><line x1="809.523"
y1="-1000.538" x2="807.243" y2="-996.209"
style="stroke:rgb(96,176,207);stroke-width:1" /><line x1="807.243"
y1="-996.209" x2="804.735" y2="-993.475"
style="stroke:rgb(96,176,207);stroke-width:1" /><line x1="804.735"
y1="-993.475" x2="802.910" y2="-990.058"
style="stroke:rgb(96,176,207);stroke-width:1" /><line x1="802.910"
y1="-990.058" x2="802.454" y2="-987.096"
style="stroke:rgb(96,176,207);stroke-width:1" /><line x1="829.361"
y1="-989.602" x2="823.889" y2="-995.981"
style="stroke:rgb(96,176,207);stroke-width:1" /><line x1="823.889"
y1="-995.981" x2="819.556" y2="-1002.588"
style="stroke:rgb(96,176,207);stroke-width:1" /><line x1="819.556"
y1="-1002.588" x2="819.328" y2="-1008.740"
style="stroke:rgb(96,176,207);stroke-width:1" /><line x1="819.328"
y1="-1008.740" x2="819.784" y2="-1015.347"
style="stroke:rgb(96,176,207);stroke-width:1" /><line x1="840.307"
y1="-1020.587" x2="840.079" y2="-1017.625"
style="stroke:rgb(96,176,207);stroke-width:1" /><line x1="840.079"
y1="-1017.625" x2="839.623" y2="-1009.651"
style="stroke:rgb(96,176,207);stroke-width:1" /></g></svg>
