<?xml version="1.0" encoding="utf-8"?><svg><g
transform="translate(0,1200)"><rect x="0" y="-1199" width="1599"
height="1199" style="fill:rgb(0,0,0)" /><line x1=" 0.000" y1="-0.000"
x2="1600.000" y2="-0.000" style="stroke:rgb(99,99,99);stroke-width:1" /><line
x1="1600.000" y1="-0.000" x2="1600.000" y2="-1200.000"
style="stroke:rgb(99,99,99);stroke-width:1" /><line x1="1600.000"
y1="-1200.000" x2=" 0.000" y2="-1200.000"
style="stroke:rgb(99,99,99);stroke-width:1" /><line x1=" 0.000"
y1="-1200.000" x2=" 0.000" y2="-0.000"
style="stroke:rgb(99,99,99);stroke-width:1" /><line x1="146.877"
y1="-134.245" x2="146.877" y2="-1100.245"
style="stroke:rgb(0,0,255);stroke-width:3" /><line x1="146.877"
y1="-1100.245" x2="1462.877" y2="-1100.245"
style="stroke:rgb(0,0,255);stroke-width:3" /><line x1="1462.877"
y1="-134.245" x2="1462.877" y2="-1100.245"
style="stroke:rgb(0,0,255);stroke-width:3" /><line x1="146.877"
y1="-134.245" x2="1462.877" y2="-134.245"
style="stroke:rgb(0,0,255);stroke-width:3" /><arc cx="401.268"
cy="-628.457" r="86.578" ang1=" 1.637" ang2=" 4.647"
stroke="rgb(144,152,0)" stroke-width="1" /><line x1="470.137"
y1="-628.358" x2="499.398" y2="-628.358"
style="stroke:rgb(144,152,0);stroke-width:1" /><line x1="527.864"
y1="-628.284" x2="587.972" y2="-628.284"
style="stroke:rgb(47,47,47);stroke-width:10" /><line x1="541.436"
y1="-585.081" x2="587.644" y2="-614.470"
style="stroke:rgb(0,255,0);stroke-width:10" /><line x1="604.226"
y1="-628.401" x2="658.778" y2="-628.401"
style="stroke:rgb(144,152,0);stroke-width:1" /><circle cx="849.835"
cy="-544.810" r="20.660" stroke="rgb(128,128,128)" stroke-width="1"
fill="rgb(0,0,0)" /><circle cx="896.281" cy="-544.810" r="20.660"
stroke="rgb(128,128,128)" stroke-width="1" fill="rgb(0,0,0)" /><line
x1="846.039" y1="-572.658" x2="846.039" y2="-590.445"
style="stroke:rgb(128,128,128);stroke-width:1" /><line x1="851.710"
y1="-569.744" x2="851.710" y2="-587.532"
style="stroke:rgb(128,128,128);stroke-width:1" /><line x1="840.368"
y1="-583.085" x2="859.986" y2="-574.651"
style="stroke:rgb(128,128,128);stroke-width:1" /><line x1="891.641"
y1="-571.431" x2="891.641" y2="-589.219"
style="stroke:rgb(128,128,128);stroke-width:1" /><line x1="897.312"
y1="-568.518" x2="897.312" y2="-586.305"
style="stroke:rgb(128,128,128);stroke-width:1" /><line x1="885.970"
y1="-581.858" x2="905.588" y2="-573.425"
style="stroke:rgb(128,128,128);stroke-width:1" /><line x1="811.402"
y1="-547.063" x2="938.318" y2="-547.063"
style="stroke:rgb(128,128,128);stroke-width:1" /><circle cx="846.464"
cy="-689.827" r="20.660" stroke="rgb(128,128,128)" stroke-width="1"
fill="rgb(0,0,0)" /><circle cx="892.910" cy="-689.827" r="20.660"
stroke="rgb(128,128,128)" stroke-width="1" fill="rgb(0,0,0)" /><line
x1="842.668" y1="-717.675" x2="842.668" y2="-735.462"
style="stroke:rgb(128,128,128);stroke-width:1" /><line x1="848.339"
y1="-714.762" x2="848.339" y2="-732.549"
style="stroke:rgb(128,128,128);stroke-width:1" /><line x1="836.997"
y1="-728.102" x2="856.615" y2="-719.668"
style="stroke:rgb(128,128,128);stroke-width:1" /><line x1="888.270"
y1="-716.449" x2="888.270" y2="-734.236"
style="stroke:rgb(128,128,128);stroke-width:1" /><line x1="893.941"
y1="-713.535" x2="893.941" y2="-731.323"
style="stroke:rgb(128,128,128);stroke-width:1" /><line x1="882.599"
y1="-726.876" x2="902.217" y2="-718.442"
style="stroke:rgb(128,128,128);stroke-width:1" /><line x1="808.031"
y1="-692.080" x2="934.947" y2="-692.080"
style="stroke:rgb(128,128,128);stroke-width:1" /><line x1="294.987"
y1="-240.318" x2="294.960" y2="-1017.927"
style="stroke:rgb(144,152,0);stroke-width:1" /><arc cx="714.026"
cy="-629.329" r="86.578" ang1=" 4.778" ang2=" 1.505"
stroke="rgb(144,152,0)" stroke-width="1" /><line x1="973.954"
y1="-625.112" x2="973.954" y2="-501.175"
style="stroke:rgb(144,152,0);stroke-width:1" /><line x1="973.954"
y1="-501.175" x2="906.458" y2="-501.175"
style="stroke:rgb(144,152,0);stroke-width:1" /><line x1="906.458"
y1="-501.175" x2="906.458" y2="-394.207"
style="stroke:rgb(144,152,0);stroke-width:1" /><line x1="906.458"
y1="-394.207" x2="934.495" y2="-394.207"
style="stroke:rgb(144,152,0);stroke-width:1" /><line x1="934.495"
y1="-380.896" x2="934.495" y2="-407.461"
style="stroke:rgb(144,152,0);stroke-width:1" /><line x1="940.840"
y1="-380.896" x2="940.840" y2="-407.461"
style="stroke:rgb(144,152,0);stroke-width:1" /><circle cx="1003.518"
cy="-334.940" r="21.009" stroke="rgb(47,47,47)" stroke-width="3"
fill="rgb(0,0,0)" /><circle cx="1003.455" cy="-394.348" r="21.009"
stroke="rgb(47,47,47)" stroke-width="3" fill="rgb(0,0,0)" /><circle
cx="1003.455" cy="-451.013" r="21.009" stroke="rgb(47,47,47)"
stroke-width="3" fill="rgb(0,0,0)" /><line x1="982.446" y1="-394.348"
x2="940.840" y2="-394.348" style="stroke:rgb(144,152,0);stroke-width:1" /><line
x1="1024.464" y1="-394.348" x2="1039.314" y2="-394.348"
style="stroke:rgb(144,152,0);stroke-width:1" /><line x1="1039.389"
y1="-379.368" x2="1039.389" y2="-409.005"
style="stroke:rgb(144,152,0);stroke-width:1" /><line x1="1042.743"
y1="-383.871" x2="1042.743" y2="-403.158"
style="stroke:rgb(144,152,0);stroke-width:1" /><line x1="1046.461"
y1="-389.244" x2="1046.461" y2="-397.785"
style="stroke:rgb(144,152,0);stroke-width:1" /><line x1="973.954"
y1="-625.112" x2="973.954" y2="-752.757"
style="stroke:rgb(144,152,0);stroke-width:1" /><line x1="973.954"
y1="-752.757" x2="905.641" y2="-752.757"
style="stroke:rgb(144,152,0);stroke-width:1" /><line x1="905.641"
y1="-752.757" x2="905.641" y2="-920.955"
style="stroke:rgb(144,152,0);stroke-width:1" /><line x1="905.641"
y1="-920.955" x2="942.293" y2="-920.955"
style="stroke:rgb(144,152,0);stroke-width:1" /><line x1="950.299"
y1="-845.592" x2="1012.040" y2="-845.592"
style="stroke:rgb(47,47,47);stroke-width:3" /><line x1="969.338"
y1="-803.508" x2="1011.712" y2="-830.462"
style="stroke:rgb(0,255,0);stroke-width:3" /><line x1="934.954"
y1="-827.346" x2="934.954" y2="-858.793"
style="stroke:rgb(144,152,0);stroke-width:1" /><line x1="934.954"
y1="-842.122" x2="905.641" y2="-842.122"
style="stroke:rgb(144,152,0);stroke-width:1" /><line x1="1024.464"
y1="-841.460" x2="1039.314" y2="-841.460"
style="stroke:rgb(144,152,0);stroke-width:1" /><line x1="1039.389"
y1="-826.479" x2="1039.389" y2="-856.116"
style="stroke:rgb(144,152,0);stroke-width:1" /><line x1="1042.743"
y1="-830.983" x2="1042.743" y2="-850.270"
style="stroke:rgb(144,152,0);stroke-width:1" /><line x1="1046.461"
y1="-836.356" x2="1046.461" y2="-844.897"
style="stroke:rgb(144,152,0);stroke-width:1" /><line x1="947.687"
y1="-911.433" x2="1010.828" y2="-911.433"
style="stroke:rgb(144,152,0);stroke-width:2" /><line x1="1010.828"
y1="-911.433" x2="1010.828" y2="-930.562"
style="stroke:rgb(144,152,0);stroke-width:2" /><line x1="1010.828"
y1="-930.562" x2="947.687" y2="-930.562"
style="stroke:rgb(144,152,0);stroke-width:2" /><line x1="947.687"
y1="-930.562" x2="947.687" y2="-911.433"
style="stroke:rgb(144,152,0);stroke-width:2" /><line x1="942.293"
y1="-920.955" x2="957.131" y2="-920.955"
style="stroke:rgb(144,152,0);stroke-width:2" /><line x1="957.131"
y1="-914.606" x2="957.131" y2="-927.305"
style="stroke:rgb(144,152,0);stroke-width:2" /><line x1="957.131"
y1="-927.305" x2="992.844" y2="-920.955"
style="stroke:rgb(144,152,0);stroke-width:2" /><line x1="957.131"
y1="-914.606" x2="992.844" y2="-920.955"
style="stroke:rgb(144,152,0);stroke-width:2" /><line x1="1024.576"
y1="-921.116" x2="1039.426" y2="-921.116"
style="stroke:rgb(144,152,0);stroke-width:1" /><line x1="1039.500"
y1="-906.136" x2="1039.500" y2="-935.773"
style="stroke:rgb(144,152,0);stroke-width:1" /><line x1="1042.854"
y1="-910.639" x2="1042.854" y2="-929.927"
style="stroke:rgb(144,152,0);stroke-width:1" /><line x1="1046.572"
y1="-916.012" x2="1046.572" y2="-924.554"
style="stroke:rgb(144,152,0);stroke-width:1" /><line x1="800.599"
y1="-628.401" x2="1085.672" y2="-628.401"
style="stroke:rgb(144,152,0);stroke-width:1" /><circle cx="1234.583"
cy="-335.677" r="21.009" stroke="rgb(47,47,47)" stroke-width="3"
fill="rgb(0,0,0)" /><circle cx="1234.520" cy="-395.085" r="21.009"
stroke="rgb(47,47,47)" stroke-width="3" fill="rgb(0,0,0)" /><circle
cx="1234.520" cy="-451.750" r="21.009" stroke="rgb(47,47,47)"
stroke-width="3" fill="rgb(0,0,0)" /><circle cx="1137.686" cy="-578.593"
r="21.009" stroke="rgb(47,47,47)" stroke-width="3" fill="rgb(0,0,0)" /><line
x1="1094.575" y1="-261.289" x2="1094.575" y2="-619.250"
style="stroke:rgb(128,128,128);stroke-width:1" /><line x1="1094.575"
y1="-619.250" x2="1339.165" y2="-619.250"
style="stroke:rgb(128,128,128);stroke-width:1" /><line x1="1339.165"
y1="-619.250" x2="1339.165" y2="-261.289"
style="stroke:rgb(128,128,128);stroke-width:1" /><line x1="1339.165"
y1="-261.289" x2="1094.575" y2="-261.289"
style="stroke:rgb(128,128,128);stroke-width:1" /><circle cx="1234.583"
cy="-768.358" r="21.009" stroke="rgb(47,47,47)" stroke-width="3"
fill="rgb(0,0,0)" /><circle cx="1234.520" cy="-886.900" r="21.009"
stroke="rgb(255,0,0)" stroke-width="3" fill="rgb(0,0,0)" /><line
x1="1221.018" y1="-871.326" x2="1248.023" y2="-902.473"
style="stroke:rgb(255,0,0);stroke-width:3" /><line x1="1234.520"
y1="-886.900" x2="1221.955" y2="-903.238"
style="stroke:rgb(255,0,0);stroke-width:3" /><line x1="1234.520"
y1="-886.900" x2="1246.713" y2="-870.281"
style="stroke:rgb(255,0,0);stroke-width:3" /><line x1="1094.575"
y1="-653.148" x2="1094.575" y2="-1011.109"
style="stroke:rgb(128,128,128);stroke-width:1" /><line x1="1094.575"
y1="-1011.109" x2="1339.165" y2="-1011.109"
style="stroke:rgb(128,128,128);stroke-width:1" /><line x1="1339.165"
y1="-1011.109" x2="1339.165" y2="-653.148"
style="stroke:rgb(128,128,128);stroke-width:1" /><line x1="1339.165"
y1="-653.148" x2="1094.575" y2="-653.148"
style="stroke:rgb(128,128,128);stroke-width:1" /><line x1="599.793"
y1="-796.017" x2="636.105" y2="-821.914"
style="stroke:rgb(128,128,128);stroke-width:1" /><line x1="601.655"
y1="-811.656" x2="633.498" y2="-833.640"
style="stroke:rgb(128,128,128);stroke-width:1" /><line x1="636.200"
y1="-849.281" x2="599.406" y2="-824.074"
style="stroke:rgb(128,128,128);stroke-width:1" /><line x1="659.328"
y1="-796.017" x2="695.640" y2="-821.914"
style="stroke:rgb(128,128,128);stroke-width:1" /><line x1="661.190"
y1="-811.656" x2="693.033" y2="-833.640"
style="stroke:rgb(128,128,128);stroke-width:1" /><line x1="695.735"
y1="-849.281" x2="658.941" y2="-824.074"
style="stroke:rgb(128,128,128);stroke-width:1" /><arc cx="1139.286"
cy="-767.345" r="14.464" ang1=" 1.682" ang2=" 4.601" stroke="rgb(79,0,0)"
stroke-width="0" /><line x1="1137.685" y1="-752.970" x2="1151.510"
y2="-752.970" style="stroke:rgb(79,0,0);stroke-width:0" /><line
x1="1137.685" y1="-781.721" x2="1151.510" y2="-781.721"
style="stroke:rgb(79,0,0);stroke-width:0" /><line x1="1151.510"
y1="-747.294" x2="1151.510" y2="-787.426"
style="stroke:rgb(79,0,0);stroke-width:0" /><line x1="1151.510"
y1="-747.294" x2="1178.173" y2="-747.294"
style="stroke:rgb(79,0,0);stroke-width:0" /><line x1="1178.173"
y1="-747.294" x2="1178.173" y2="-787.426"
style="stroke:rgb(79,0,0);stroke-width:0" /><line x1="1178.173"
y1="-787.426" x2="1151.510" y2="-787.426"
style="stroke:rgb(79,0,0);stroke-width:0" /><arc cx="1139.003"
cy="-858.899" r="14.464" ang1=" 1.682" ang2=" 4.601"
stroke="rgb(15,72,0)" stroke-width="1" /><line x1="1137.402"
y1="-873.422" x2="1151.227" y2="-873.422"
style="stroke:rgb(15,72,0);stroke-width:1" /><line x1="1151.227"
y1="-867.746" x2="1151.227" y2="-907.878"
style="stroke:rgb(15,72,0);stroke-width:1" /><line x1="1151.227"
y1="-867.746" x2="1177.890" y2="-867.746"
style="stroke:rgb(15,72,0);stroke-width:1" /><line x1="1177.890"
y1="-867.746" x2="1177.890" y2="-907.878"
style="stroke:rgb(15,72,0);stroke-width:1" /><line x1="1177.890"
y1="-907.878" x2="1151.227" y2="-907.878"
style="stroke:rgb(15,72,0);stroke-width:1" /><line x1="665.881"
y1="-907.494" x2="665.881" y2="-945.780"
style="stroke:rgb(47,47,47);stroke-width:3" /><line x1="665.881"
y1="-945.780" x2="689.692" y2="-945.780"
style="stroke:rgb(47,47,47);stroke-width:3" /><line x1="689.692"
y1="-945.780" x2="689.692" y2="-907.494"
style="stroke:rgb(47,47,47);stroke-width:3" /><line x1="689.692"
y1="-907.494" x2="665.881" y2="-907.494"
style="stroke:rgb(47,47,47);stroke-width:3" /><line x1="606.346"
y1="-907.494" x2="606.346" y2="-945.780"
style="stroke:rgb(0,255,0);stroke-width:3" /><line x1="606.346"
y1="-945.780" x2="630.157" y2="-945.780"
style="stroke:rgb(0,255,0);stroke-width:3" /><line x1="630.157"
y1="-945.780" x2="630.157" y2="-907.494"
style="stroke:rgb(0,255,0);stroke-width:3" /><line x1="630.157"
y1="-907.494" x2="606.346" y2="-907.494"
style="stroke:rgb(0,255,0);stroke-width:3" /><line x1="1176.402"
y1="-557.230" x2="1176.402" y2="-601.324"
style="stroke:rgb(128,128,128);stroke-width:1" /><line x1="1176.402"
y1="-601.324" x2="1211.660" y2="-601.324"
style="stroke:rgb(128,128,128);stroke-width:1" /><line x1="1211.660"
y1="-601.324" x2="1211.660" y2="-557.230"
style="stroke:rgb(128,128,128);stroke-width:1" /><line x1="1211.660"
y1="-557.230" x2="1176.402" y2="-557.230"
style="stroke:rgb(128,128,128);stroke-width:1" /><line x1="527.864"
y1="-628.284" x2="587.972" y2="-628.284"
style="stroke:rgb(47,47,47);stroke-width:10" /><line x1="541.436"
y1="-585.081" x2="587.644" y2="-614.470"
style="stroke:rgb(0,255,0);stroke-width:10" /><line x1="950.299"
y1="-845.592" x2="1012.040" y2="-845.592"
style="stroke:rgb(47,47,47);stroke-width:10" /><line x1="969.338"
y1="-803.508" x2="1011.712" y2="-830.462"
style="stroke:rgb(0,255,0);stroke-width:10" /><line x1="487.260"
y1="-616.280" x2="511.537" y2="-640.437"
style="stroke:rgb(144,152,0);stroke-width:1" /><line x1="487.260"
y1="-640.437" x2="511.537" y2="-616.280"
style="stroke:rgb(144,152,0);stroke-width:1" /><line x1="646.639"
y1="-640.480" x2="670.916" y2="-616.323"
style="stroke:rgb(144,152,0);stroke-width:1" /><line x1="646.639"
y1="-616.323" x2="670.916" y2="-640.480"
style="stroke:rgb(144,152,0);stroke-width:1" /><line x1="402.892"
y1="-615.089" x2="402.892" y2="-581.204"
style="stroke:rgb(47,47,47);stroke-width:10" /><line x1="369.398"
y1="-628.401" x2="389.580" y2="-628.401"
style="stroke:rgb(47,47,47);stroke-width:10" /><line x1="355.694"
y1="-628.401" x2="389.580" y2="-628.401"
style="stroke:rgb(47,47,47);stroke-width:10" /><line x1="416.204"
y1="-628.401" x2="439.298" y2="-628.401"
style="stroke:rgb(47,47,47);stroke-width:10" /><line x1="416.204"
y1="-628.401" x2="450.089" y2="-628.401"
style="stroke:rgb(47,47,47);stroke-width:10" /><line x1="402.892"
y1="-641.713" x2="402.892" y2="-675.599"
style="stroke:rgb(47,47,47);stroke-width:10" /><line x1="314.691"
y1="-628.401" x2="294.973" y2="-628.401"
style="stroke:rgb(144,152,0);stroke-width:1" /><text id="101" x="178.109"
y="-165.471" transform="rotate( 1.571,0,0)" font-family="SimHei"
font-size="18" fill="rgb(0,255,0)"> ORT400</text><line x1="1234.583"
y1="-768.358" x2="1246.775" y2="-751.739"
style="stroke:rgb(47,47,47);stroke-width:3" /><line x1="1234.583"
y1="-768.358" x2="1222.017" y2="-784.697"
style="stroke:rgb(47,47,47);stroke-width:3" /><line x1="1221.080"
y1="-752.785" x2="1248.085" y2="-783.932"
style="stroke:rgb(47,47,47);stroke-width:3" /><line x1="1124.183"
y1="-563.020" x2="1151.188" y2="-594.166"
style="stroke:rgb(47,47,47);stroke-width:3" /><line x1="1137.686"
y1="-578.593" x2="1125.120" y2="-594.932"
style="stroke:rgb(47,47,47);stroke-width:3" /><line x1="1137.686"
y1="-578.593" x2="1149.878" y2="-561.974"
style="stroke:rgb(47,47,47);stroke-width:3" /><line x1="1221.018"
y1="-436.177" x2="1248.023" y2="-467.324"
style="stroke:rgb(47,47,47);stroke-width:3" /><line x1="1234.520"
y1="-451.750" x2="1221.955" y2="-468.089"
style="stroke:rgb(47,47,47);stroke-width:3" /><line x1="1234.520"
y1="-451.750" x2="1246.713" y2="-435.131"
style="stroke:rgb(47,47,47);stroke-width:3" /><line x1="1221.018"
y1="-379.512" x2="1248.023" y2="-410.658"
style="stroke:rgb(47,47,47);stroke-width:3" /><line x1="1234.520"
y1="-395.085" x2="1221.955" y2="-411.424"
style="stroke:rgb(47,47,47);stroke-width:3" /><line x1="1234.520"
y1="-395.085" x2="1246.713" y2="-378.466"
style="stroke:rgb(47,47,47);stroke-width:3" /><line x1="1221.080"
y1="-320.104" x2="1248.085" y2="-351.250"
style="stroke:rgb(47,47,47);stroke-width:3" /><line x1="1234.583"
y1="-335.677" x2="1222.017" y2="-352.016"
style="stroke:rgb(47,47,47);stroke-width:3" /><line x1="1234.583"
y1="-335.677" x2="1246.775" y2="-319.058"
style="stroke:rgb(47,47,47);stroke-width:3" /><line x1="989.953"
y1="-435.440" x2="1016.958" y2="-466.586"
style="stroke:rgb(47,47,47);stroke-width:3" /><line x1="1003.455"
y1="-451.013" x2="990.890" y2="-467.352"
style="stroke:rgb(47,47,47);stroke-width:3" /><line x1="1003.455"
y1="-451.013" x2="1015.648" y2="-434.394"
style="stroke:rgb(47,47,47);stroke-width:3" /><line x1="989.953"
y1="-378.774" x2="1016.958" y2="-409.921"
style="stroke:rgb(47,47,47);stroke-width:3" /><line x1="1003.455"
y1="-394.348" x2="990.890" y2="-410.687"
style="stroke:rgb(47,47,47);stroke-width:3" /><line x1="1003.455"
y1="-394.348" x2="1015.648" y2="-377.729"
style="stroke:rgb(47,47,47);stroke-width:3" /><line x1="990.015"
y1="-319.367" x2="1017.020" y2="-350.513"
style="stroke:rgb(47,47,47);stroke-width:3" /><line x1="1003.518"
y1="-334.940" x2="990.952" y2="-351.279"
style="stroke:rgb(47,47,47);stroke-width:3" /><line x1="1003.518"
y1="-334.940" x2="1015.710" y2="-318.321"
style="stroke:rgb(47,47,47);stroke-width:3" /><line x1="732.078"
y1="-615.089" x2="732.078" y2="-581.204"
style="stroke:rgb(47,47,47);stroke-width:10" /><line x1="684.880"
y1="-628.401" x2="718.766" y2="-628.401"
style="stroke:rgb(47,47,47);stroke-width:10" /><line x1="698.584"
y1="-628.401" x2="718.766" y2="-628.401"
style="stroke:rgb(47,47,47);stroke-width:10" /><line x1="732.078"
y1="-641.713" x2="732.078" y2="-675.599"
style="stroke:rgb(47,47,47);stroke-width:10" /><line x1="745.390"
y1="-628.401" x2="779.275" y2="-628.401"
style="stroke:rgb(47,47,47);stroke-width:10" /><line x1="745.390"
y1="-628.401" x2="768.484" y2="-628.401"
style="stroke:rgb(47,47,47);stroke-width:10" /><arc cx="617.876"
cy="-856.399" r="19.880" ang1=" 2.828" ang2=" 0.351"
stroke="rgb(128,128,128)" stroke-width="1" /><arc cx="618.247"
cy="-789.246" r="19.880" ang1=" 5.951" ang2=" 3.474"
stroke="rgb(128,128,128)" stroke-width="1" /><arc cx="677.411"
cy="-856.399" r="19.880" ang1=" 2.828" ang2=" 0.351"
stroke="rgb(128,128,128)" stroke-width="1" /><arc cx="677.782"
cy="-789.246" r="19.880" ang1=" 5.951" ang2=" 3.474"
stroke="rgb(128,128,128)" stroke-width="1" /><line x1="792.205"
y1="-1010.839" x2="573.291" y2="-651.345"
style="stroke:rgb(99,99,99);stroke-width:1" /><line x1="573.291"
y1="-651.345" x2="608.259" y2="-674.925"
style="stroke:rgb(99,99,99);stroke-width:1" /><line x1="573.291"
y1="-651.345" x2="567.172" y2="-689.772"
style="stroke:rgb(99,99,99);stroke-width:1" /><line x1="807.266"
y1="-956.172" x2="804.866" y2="-993.466"
style="stroke:rgb(96,176,207);stroke-width:1" /><line x1="833.927"
y1="-987.606" x2="833.927" y2="-956.705"
style="stroke:rgb(96,176,207);stroke-width:1" /><line x1="818.997"
y1="-982.811" x2="814.731" y2="-990.803"
style="stroke:rgb(96,176,207);stroke-width:1" /><line x1="798.757"
y1="-992.382" x2="797.848" y2="-985.638"
style="stroke:rgb(96,176,207);stroke-width:1" /><line x1="801.262"
y1="-987.390" x2="802.402" y2="-982.150"
style="stroke:rgb(96,176,207);stroke-width:1" /><line x1="835.009"
y1="-986.935" x2="828.169" y2="-989.897"
style="stroke:rgb(96,176,207);stroke-width:1" /><line x1="838.430"
y1="-1009.946" x2="843.902" y2="-980.100"
style="stroke:rgb(96,176,207);stroke-width:1" /><line x1="827.262"
y1="-915.415" x2="830.461" y2="-916.481"
style="stroke:rgb(96,176,207);stroke-width:1" /><line x1="830.461"
y1="-916.481" x2="833.127" y2="-914.882"
style="stroke:rgb(96,176,207);stroke-width:1" /><line x1="810.198"
y1="-913.817" x2="810.732" y2="-915.149"
style="stroke:rgb(96,176,207);stroke-width:1" /><line x1="810.732"
y1="-915.149" x2="814.464" y2="-912.751"
style="stroke:rgb(96,176,207);stroke-width:1" /><line x1="814.464"
y1="-912.751" x2="814.998" y2="-912.751"
style="stroke:rgb(96,176,207);stroke-width:1" /><line x1="820.063"
y1="-955.107" x2="818.997" y2="-952.443"
style="stroke:rgb(96,176,207);stroke-width:1" /><line x1="818.997"
y1="-952.443" x2="819.530" y2="-952.176"
style="stroke:rgb(96,176,207);stroke-width:1" /><line x1="819.530"
y1="-952.176" x2="817.397" y2="-913.284"
style="stroke:rgb(96,176,207);stroke-width:1" /><line x1="817.397"
y1="-913.284" x2="816.331" y2="-913.018"
style="stroke:rgb(96,176,207);stroke-width:1" /><line x1="816.331"
y1="-913.018" x2="818.464" y2="-908.755"
style="stroke:rgb(96,176,207);stroke-width:1" /><line x1="818.464"
y1="-908.755" x2="818.464" y2="-907.157"
style="stroke:rgb(96,176,207);stroke-width:1" /><line x1="818.464"
y1="-907.157" x2="810.732" y2="-906.624"
style="stroke:rgb(96,176,207);stroke-width:1" /><line x1="810.732"
y1="-906.624" x2="805.666" y2="-906.891"
style="stroke:rgb(96,176,207);stroke-width:1" /><line x1="805.666"
y1="-906.891" x2="802.467" y2="-906.891"
style="stroke:rgb(96,176,207);stroke-width:1" /><line x1="802.467"
y1="-906.891" x2="802.467" y2="-909.288"
style="stroke:rgb(96,176,207);stroke-width:1" /><line x1="802.467"
y1="-909.288" x2="808.599" y2="-913.284"
style="stroke:rgb(96,176,207);stroke-width:1" /><line x1="808.599"
y1="-913.284" x2="807.266" y2="-952.443"
style="stroke:rgb(96,176,207);stroke-width:1" /><line x1="807.266"
y1="-952.443" x2="807.799" y2="-954.840"
style="stroke:rgb(96,176,207);stroke-width:1" /><line x1="807.799"
y1="-954.840" x2="807.266" y2="-956.172"
style="stroke:rgb(96,176,207);stroke-width:1" /><line x1="833.927"
y1="-956.705" x2="834.727" y2="-953.775"
style="stroke:rgb(96,176,207);stroke-width:1" /><line x1="834.727"
y1="-953.775" x2="834.194" y2="-914.349"
style="stroke:rgb(96,176,207);stroke-width:1" /><line x1="834.194"
y1="-914.349" x2="831.528" y2="-913.550"
style="stroke:rgb(96,176,207);stroke-width:1" /><line x1="831.528"
y1="-913.550" x2="833.127" y2="-910.354"
style="stroke:rgb(96,176,207);stroke-width:1" /><line x1="833.127"
y1="-910.354" x2="834.727" y2="-908.755"
style="stroke:rgb(96,176,207);stroke-width:1" /><line x1="834.727"
y1="-908.755" x2="834.727" y2="-907.157"
style="stroke:rgb(96,176,207);stroke-width:1" /><line x1="834.727"
y1="-907.157" x2="830.728" y2="-906.891"
style="stroke:rgb(96,176,207);stroke-width:1" /><line x1="830.728"
y1="-906.891" x2="822.996" y2="-906.624"
style="stroke:rgb(96,176,207);stroke-width:1" /><line x1="822.996"
y1="-906.624" x2="821.930" y2="-908.755"
style="stroke:rgb(96,176,207);stroke-width:1" /><line x1="821.930"
y1="-908.755" x2="822.996" y2="-910.620"
style="stroke:rgb(96,176,207);stroke-width:1" /><line x1="822.996"
y1="-910.620" x2="826.195" y2="-913.550"
style="stroke:rgb(96,176,207);stroke-width:1" /><line x1="826.195"
y1="-913.550" x2="825.129" y2="-914.882"
style="stroke:rgb(96,176,207);stroke-width:1" /><line x1="825.129"
y1="-914.882" x2="821.396" y2="-952.976"
style="stroke:rgb(96,176,207);stroke-width:1" /><line x1="821.396"
y1="-952.976" x2="820.596" y2="-955.640"
style="stroke:rgb(96,176,207);stroke-width:1" /><line x1="820.596"
y1="-955.640" x2="818.997" y2="-982.811"
style="stroke:rgb(96,176,207);stroke-width:1" /><line x1="797.848"
y1="-985.638" x2="798.627" y2="-985.378"
style="stroke:rgb(96,176,207);stroke-width:1" /><line x1="798.627"
y1="-985.378" x2="799.146" y2="-983.952"
style="stroke:rgb(96,176,207);stroke-width:1" /><line x1="799.146"
y1="-983.952" x2="800.055" y2="-983.822"
style="stroke:rgb(96,176,207);stroke-width:1" /><line x1="800.055"
y1="-983.822" x2="800.314" y2="-982.785"
style="stroke:rgb(96,176,207);stroke-width:1" /><line x1="800.314"
y1="-982.785" x2="802.002" y2="-982.266"
style="stroke:rgb(96,176,207);stroke-width:1" /><line x1="802.402"
y1="-982.150" x2="803.086" y2="-979.188"
style="stroke:rgb(96,176,207);stroke-width:1" /><line x1="803.086"
y1="-979.188" x2="805.594" y2="-980.100"
style="stroke:rgb(96,176,207);stroke-width:1" /><line x1="842.990"
y1="-980.783" x2="839.570" y2="-983.062"
style="stroke:rgb(96,176,207);stroke-width:1" /><line x1="839.570"
y1="-983.062" x2="835.009" y2="-986.935"
style="stroke:rgb(96,176,207);stroke-width:1" /><line x1="843.902"
y1="-980.100" x2="841.394" y2="-979.872"
style="stroke:rgb(96,176,207);stroke-width:1" /><line x1="841.394"
y1="-979.872" x2="837.290" y2="-981.922"
style="stroke:rgb(96,176,207);stroke-width:1" /><line x1="837.290"
y1="-981.922" x2="834.097" y2="-982.606"
style="stroke:rgb(96,176,207);stroke-width:1" /><line x1="816.600"
y1="-1076.276" x2="817.067" y2="-1076.743"
style="stroke:rgb(96,176,207);stroke-width:1" /><line x1="817.067"
y1="-1076.743" x2="817.909" y2="-1076.462"
style="stroke:rgb(96,176,207);stroke-width:1" /><line x1="811.174"
y1="-1076.836" x2="811.735" y2="-1077.023"
style="stroke:rgb(96,176,207);stroke-width:1" /><line x1="811.735"
y1="-1077.023" x2="812.296" y2="-1076.369"
style="stroke:rgb(96,176,207);stroke-width:1" /><line x1="809.303"
y1="-1077.958" x2="811.454" y2="-1078.425"
style="stroke:rgb(96,176,207);stroke-width:1" /><line x1="811.454"
y1="-1078.425" x2="813.606" y2="-1077.584"
style="stroke:rgb(96,176,207);stroke-width:1" /><line x1="809.958"
y1="-1077.117" x2="812.109" y2="-1077.210"
style="stroke:rgb(96,176,207);stroke-width:1" /><line x1="812.109"
y1="-1077.210" x2="813.606" y2="-1076.649"
style="stroke:rgb(96,176,207);stroke-width:1" /><line x1="813.606"
y1="-1076.649" x2="813.232" y2="-1076.089"
style="stroke:rgb(96,176,207);stroke-width:1" /><line x1="813.232"
y1="-1076.089" x2="812.203" y2="-1076.182"
style="stroke:rgb(96,176,207);stroke-width:1" /><line x1="812.203"
y1="-1076.182" x2="810.425" y2="-1076.649"
style="stroke:rgb(96,176,207);stroke-width:1" /><line x1="815.664"
y1="-1077.491" x2="816.880" y2="-1078.425"
style="stroke:rgb(96,176,207);stroke-width:1" /><line x1="816.880"
y1="-1078.425" x2="819.780" y2="-1078.145"
style="stroke:rgb(96,176,207);stroke-width:1" /><line x1="819.780"
y1="-1078.145" x2="820.248" y2="-1077.397"
style="stroke:rgb(96,176,207);stroke-width:1" /><line x1="819.406"
y1="-1077.210" x2="818.190" y2="-1077.304"
style="stroke:rgb(96,176,207);stroke-width:1" /><line x1="818.190"
y1="-1077.304" x2="816.600" y2="-1077.117"
style="stroke:rgb(96,176,207);stroke-width:1" /><line x1="816.600"
y1="-1077.117" x2="815.851" y2="-1076.649"
style="stroke:rgb(96,176,207);stroke-width:1" /><line x1="815.851"
y1="-1076.649" x2="816.319" y2="-1076.089"
style="stroke:rgb(96,176,207);stroke-width:1" /><line x1="816.319"
y1="-1076.089" x2="817.535" y2="-1075.995"
style="stroke:rgb(96,176,207);stroke-width:1" /><line x1="817.535"
y1="-1075.995" x2="819.406" y2="-1076.649"
style="stroke:rgb(96,176,207);stroke-width:1" /><line x1="812.016"
y1="-1069.359" x2="813.606" y2="-1069.826"
style="stroke:rgb(96,176,207);stroke-width:1" /><line x1="813.606"
y1="-1069.826" x2="814.448" y2="-1069.733"
style="stroke:rgb(96,176,207);stroke-width:1" /><line x1="814.448"
y1="-1069.733" x2="816.412" y2="-1069.452"
style="stroke:rgb(96,176,207);stroke-width:1" /><line x1="812.671"
y1="-1071.976" x2="812.951" y2="-1071.509"
style="stroke:rgb(96,176,207);stroke-width:1" /><line x1="812.951"
y1="-1071.509" x2="815.009" y2="-1071.602"
style="stroke:rgb(96,176,207);stroke-width:1" /><line x1="815.009"
y1="-1071.602" x2="816.038" y2="-1072.069"
style="stroke:rgb(96,176,207);stroke-width:1" /><line x1="825.393"
y1="-1077.864" x2="825.861" y2="-1078.519"
style="stroke:rgb(96,176,207);stroke-width:1" /><line x1="825.861"
y1="-1078.519" x2="826.703" y2="-1078.799"
style="stroke:rgb(96,176,207);stroke-width:1" /><line x1="826.703"
y1="-1078.799" x2="827.358" y2="-1078.145"
style="stroke:rgb(96,176,207);stroke-width:1" /><line x1="827.358"
y1="-1078.145" x2="827.732" y2="-1077.210"
style="stroke:rgb(96,176,207);stroke-width:1" /><line x1="827.732"
y1="-1077.210" x2="827.451" y2="-1075.434"
style="stroke:rgb(96,176,207);stroke-width:1" /><line x1="827.451"
y1="-1075.434" x2="826.890" y2="-1074.126"
style="stroke:rgb(96,176,207);stroke-width:1" /><line x1="826.890"
y1="-1074.126" x2="825.861" y2="-1073.004"
style="stroke:rgb(96,176,207);stroke-width:1" /><line x1="825.861"
y1="-1073.004" x2="825.206" y2="-1072.163"
style="stroke:rgb(96,176,207);stroke-width:1" /><line x1="825.206"
y1="-1072.163" x2="824.645" y2="-1071.882"
style="stroke:rgb(96,176,207);stroke-width:1" /><line x1="824.645"
y1="-1071.882" x2="824.458" y2="-1072.443"
style="stroke:rgb(96,176,207);stroke-width:1" /><line x1="813.325"
y1="-1068.704" x2="815.009" y2="-1068.611"
style="stroke:rgb(96,176,207);stroke-width:1" /><line x1="811.735"
y1="-1064.498" x2="811.641" y2="-1064.218"
style="stroke:rgb(96,176,207);stroke-width:1" /><line x1="811.641"
y1="-1064.218" x2="813.793" y2="-1063.938"
style="stroke:rgb(96,176,207);stroke-width:1" /><line x1="824.645"
y1="-1065.059" x2="825.019" y2="-1064.498"
style="stroke:rgb(96,176,207);stroke-width:1" /><line x1="825.019"
y1="-1064.498" x2="821.932" y2="-1064.031"
style="stroke:rgb(96,176,207);stroke-width:1" /><line x1="821.932"
y1="-1064.031" x2="818.377" y2="-1064.031"
style="stroke:rgb(96,176,207);stroke-width:1" /><line x1="813.700"
y1="-1062.349" x2="815.103" y2="-1059.264"
style="stroke:rgb(96,176,207);stroke-width:1" /><line x1="815.103"
y1="-1059.264" x2="815.758" y2="-1058.703"
style="stroke:rgb(96,176,207);stroke-width:1" /><line x1="815.758"
y1="-1058.703" x2="817.442" y2="-1059.358"
style="stroke:rgb(96,176,207);stroke-width:1" /><line x1="817.442"
y1="-1059.358" x2="818.564" y2="-1062.068"
style="stroke:rgb(96,176,207);stroke-width:1" /><line x1="812.390"
y1="-1064.872" x2="811.548" y2="-1064.872"
style="stroke:rgb(96,176,207);stroke-width:1" /><line x1="811.548"
y1="-1064.872" x2="810.893" y2="-1064.405"
style="stroke:rgb(96,176,207);stroke-width:1" /><line x1="810.893"
y1="-1064.405" x2="809.490" y2="-1058.516"
style="stroke:rgb(96,176,207);stroke-width:1" /><line x1="809.490"
y1="-1058.516" x2="813.138" y2="-1062.349"
style="stroke:rgb(96,176,207);stroke-width:1" /><line x1="813.138"
y1="-1062.349" x2="814.729" y2="-1063.844"
style="stroke:rgb(96,176,207);stroke-width:1" /><line x1="814.729"
y1="-1063.844" x2="817.909" y2="-1063.751"
style="stroke:rgb(96,176,207);stroke-width:1" /><line x1="817.909"
y1="-1063.751" x2="821.838" y2="-1057.862"
style="stroke:rgb(96,176,207);stroke-width:1" /><line x1="821.838"
y1="-1057.862" x2="825.019" y2="-1059.918"
style="stroke:rgb(96,176,207);stroke-width:1" /><line x1="825.019"
y1="-1059.918" x2="826.890" y2="-1061.133"
style="stroke:rgb(96,176,207);stroke-width:1" /><line x1="826.890"
y1="-1061.133" x2="826.329" y2="-1063.003"
style="stroke:rgb(96,176,207);stroke-width:1" /><line x1="826.329"
y1="-1063.003" x2="826.048" y2="-1065.153"
style="stroke:rgb(96,176,207);stroke-width:1" /><line x1="826.048"
y1="-1065.153" x2="825.113" y2="-1065.059"
style="stroke:rgb(96,176,207);stroke-width:1" /><line x1="826.235"
y1="-1073.191" x2="825.300" y2="-1070.854"
style="stroke:rgb(96,176,207);stroke-width:1" /><line x1="825.300"
y1="-1070.854" x2="824.925" y2="-1067.116"
style="stroke:rgb(96,176,207);stroke-width:1" /><line x1="824.925"
y1="-1067.116" x2="824.738" y2="-1065.059"
style="stroke:rgb(96,176,207);stroke-width:1" /><line x1="809.583"
y1="-1085.062" x2="810.145" y2="-1085.716"
style="stroke:rgb(96,176,207);stroke-width:1" /><line x1="810.145"
y1="-1085.716" x2="814.074" y2="-1085.903"
style="stroke:rgb(96,176,207);stroke-width:1" /><line x1="814.074"
y1="-1085.903" x2="818.471" y2="-1085.809"
style="stroke:rgb(96,176,207);stroke-width:1" /><line x1="818.471"
y1="-1085.809" x2="820.529" y2="-1085.435"
style="stroke:rgb(96,176,207);stroke-width:1" /><line x1="820.529"
y1="-1085.435" x2="822.587" y2="-1084.594"
style="stroke:rgb(96,176,207);stroke-width:1" /><line x1="822.587"
y1="-1084.594" x2="823.616" y2="-1082.538"
style="stroke:rgb(96,176,207);stroke-width:1" /><line x1="823.616"
y1="-1082.538" x2="823.990" y2="-1080.575"
style="stroke:rgb(96,176,207);stroke-width:1" /><line x1="823.990"
y1="-1080.575" x2="825.019" y2="-1079.640"
style="stroke:rgb(96,176,207);stroke-width:1" /><line x1="825.019"
y1="-1079.640" x2="825.019" y2="-1078.799"
style="stroke:rgb(96,176,207);stroke-width:1" /><line x1="825.019"
y1="-1078.799" x2="825.393" y2="-1078.612"
style="stroke:rgb(96,176,207);stroke-width:1" /><line x1="813.325"
y1="-1064.311" x2="812.671" y2="-1065.340"
style="stroke:rgb(96,176,207);stroke-width:1" /><line x1="812.671"
y1="-1065.340" x2="811.735" y2="-1065.527"
style="stroke:rgb(96,176,207);stroke-width:1" /><line x1="811.735"
y1="-1065.527" x2="810.706" y2="-1066.742"
style="stroke:rgb(96,176,207);stroke-width:1" /><line x1="810.706"
y1="-1066.742" x2="809.490" y2="-1069.172"
style="stroke:rgb(96,176,207);stroke-width:1" /><line x1="809.490"
y1="-1069.172" x2="808.461" y2="-1073.565"
style="stroke:rgb(96,176,207);stroke-width:1" /><line x1="808.461"
y1="-1073.565" x2="809.209" y2="-1076.462"
style="stroke:rgb(96,176,207);stroke-width:1" /><line x1="809.209"
y1="-1076.462" x2="808.648" y2="-1077.678"
style="stroke:rgb(96,176,207);stroke-width:1" /><line x1="808.648"
y1="-1077.678" x2="808.648" y2="-1080.482"
style="stroke:rgb(96,176,207);stroke-width:1" /><line x1="808.648"
y1="-1080.482" x2="809.396" y2="-1084.781"
style="stroke:rgb(96,176,207);stroke-width:1" /><line x1="809.396"
y1="-1084.781" x2="809.209" y2="-1086.931"
style="stroke:rgb(96,176,207);stroke-width:1" /><line x1="809.209"
y1="-1086.931" x2="810.519" y2="-1088.240"
style="stroke:rgb(96,176,207);stroke-width:1" /><line x1="810.519"
y1="-1088.240" x2="815.477" y2="-1089.081"
style="stroke:rgb(96,176,207);stroke-width:1" /><line x1="815.477"
y1="-1089.081" x2="822.680" y2="-1088.707"
style="stroke:rgb(96,176,207);stroke-width:1" /><line x1="822.680"
y1="-1088.707" x2="825.487" y2="-1087.959"
style="stroke:rgb(96,176,207);stroke-width:1" /><line x1="825.487"
y1="-1087.959" x2="826.984" y2="-1085.342"
style="stroke:rgb(96,176,207);stroke-width:1" /><line x1="826.984"
y1="-1085.342" x2="827.732" y2="-1082.538"
style="stroke:rgb(96,176,207);stroke-width:1" /><line x1="827.732"
y1="-1082.538" x2="827.358" y2="-1080.201"
style="stroke:rgb(96,176,207);stroke-width:1" /><line x1="827.358"
y1="-1080.201" x2="826.703" y2="-1078.893"
style="stroke:rgb(96,176,207);stroke-width:1" /><line x1="824.748"
y1="-1029.539" x2="828.397" y2="-1029.995"
style="stroke:rgb(96,176,207);stroke-width:1" /><line x1="828.397"
y1="-1029.995" x2="833.185" y2="-1032.273"
style="stroke:rgb(96,176,207);stroke-width:1" /><line x1="833.185"
y1="-1032.273" x2="835.922" y2="-1032.273"
style="stroke:rgb(96,176,207);stroke-width:1" /><line x1="835.922"
y1="-1032.273" x2="834.325" y2="-1032.729"
style="stroke:rgb(96,176,207);stroke-width:1" /><line x1="834.325"
y1="-1032.729" x2="836.150" y2="-1040.703"
style="stroke:rgb(96,176,207);stroke-width:1" /><line x1="836.150"
y1="-1040.703" x2="833.641" y2="-1039.108"
style="stroke:rgb(96,176,207);stroke-width:1" /><line x1="809.699"
y1="-1010.857" x2="813.347" y2="-1009.946"
style="stroke:rgb(96,176,207);stroke-width:1" /><line x1="813.347"
y1="-1009.946" x2="817.907" y2="-1010.629"
style="stroke:rgb(96,176,207);stroke-width:1" /><line x1="825.236"
y1="-1028.305" x2="824.327" y2="-1028.435"
style="stroke:rgb(96,176,207);stroke-width:1" /><line x1="824.327"
y1="-1028.435" x2="823.419" y2="-1030.640"
style="stroke:rgb(96,176,207);stroke-width:1" /><line x1="823.419"
y1="-1030.640" x2="822.121" y2="-1032.066"
style="stroke:rgb(96,176,207);stroke-width:1" /><line x1="822.121"
y1="-1032.066" x2="820.953" y2="-1032.066"
style="stroke:rgb(96,176,207);stroke-width:1" /><line x1="820.953"
y1="-1032.066" x2="819.135" y2="-1032.455"
style="stroke:rgb(96,176,207);stroke-width:1" /><line x1="819.135"
y1="-1032.455" x2="818.616" y2="-1031.548"
style="stroke:rgb(96,176,207);stroke-width:1" /><line x1="818.616"
y1="-1031.548" x2="819.006" y2="-1030.510"
style="stroke:rgb(96,176,207);stroke-width:1" /><line x1="819.006"
y1="-1030.510" x2="820.433" y2="-1029.862"
style="stroke:rgb(96,176,207);stroke-width:1" /><line x1="820.433"
y1="-1029.862" x2="821.342" y2="-1028.694"
style="stroke:rgb(96,176,207);stroke-width:1" /><line x1="821.342"
y1="-1028.694" x2="819.784" y2="-1027.008"
style="stroke:rgb(96,176,207);stroke-width:1" /><line x1="819.784"
y1="-1027.008" x2="816.539" y2="-1025.063"
style="stroke:rgb(96,176,207);stroke-width:1" /><line x1="816.539"
y1="-1025.063" x2="816.280" y2="-1023.637"
style="stroke:rgb(96,176,207);stroke-width:1" /><line x1="816.280"
y1="-1023.637" x2="817.578" y2="-1023.377"
style="stroke:rgb(96,176,207);stroke-width:1" /><line x1="817.578"
y1="-1023.377" x2="815.631" y2="-1021.432"
style="stroke:rgb(96,176,207);stroke-width:1" /><line x1="815.631"
y1="-1021.432" x2="815.761" y2="-1020.654"
style="stroke:rgb(96,176,207);stroke-width:1" /><line x1="815.761"
y1="-1020.654" x2="816.410" y2="-1020.135"
style="stroke:rgb(96,176,207);stroke-width:1" /><line x1="816.410"
y1="-1020.135" x2="815.761" y2="-1019.097"
style="stroke:rgb(96,176,207);stroke-width:1" /><line x1="815.761"
y1="-1019.097" x2="816.539" y2="-1018.319"
style="stroke:rgb(96,176,207);stroke-width:1" /><line x1="816.539"
y1="-1018.319" x2="816.280" y2="-1016.893"
style="stroke:rgb(96,176,207);stroke-width:1" /><line x1="816.280"
y1="-1016.893" x2="816.929" y2="-1015.985"
style="stroke:rgb(96,176,207);stroke-width:1" /><line x1="816.929"
y1="-1015.985" x2="818.616" y2="-1016.504"
style="stroke:rgb(96,176,207);stroke-width:1" /><line x1="818.616"
y1="-1016.504" x2="821.472" y2="-1018.838"
style="stroke:rgb(96,176,207);stroke-width:1" /><line x1="821.472"
y1="-1018.838" x2="823.159" y2="-1021.432"
style="stroke:rgb(96,176,207);stroke-width:1" /><line x1="823.159"
y1="-1021.432" x2="825.236" y2="-1022.858"
style="stroke:rgb(96,176,207);stroke-width:1" /><line x1="825.236"
y1="-1022.858" x2="827.313" y2="-1022.340"
style="stroke:rgb(96,176,207);stroke-width:1" /><line x1="825.888"
y1="-1020.882" x2="827.941" y2="-1022.021"
style="stroke:rgb(96,176,207);stroke-width:1" /><line x1="827.941"
y1="-1022.021" x2="828.853" y2="-1025.210"
style="stroke:rgb(96,176,207);stroke-width:1" /><line x1="828.853"
y1="-1025.210" x2="828.169" y2="-1028.172"
style="stroke:rgb(96,176,207);stroke-width:1" /><line x1="828.169"
y1="-1028.172" x2="826.116" y2="-1029.311"
style="stroke:rgb(96,176,207);stroke-width:1" /><line x1="826.116"
y1="-1029.311" x2="824.748" y2="-1029.539"
style="stroke:rgb(96,176,207);stroke-width:1" /><line x1="817.105"
y1="-1058.406" x2="816.333" y2="-1049.541"
style="stroke:rgb(96,176,207);stroke-width:1" /><line x1="816.333"
y1="-1049.541" x2="816.912" y2="-1037.784"
style="stroke:rgb(96,176,207);stroke-width:1" /><line x1="816.912"
y1="-1037.784" x2="817.105" y2="-1032.581"
style="stroke:rgb(96,176,207);stroke-width:1" /><line x1="817.105"
y1="-1032.581" x2="818.262" y2="-1027.185"
style="stroke:rgb(96,176,207);stroke-width:1" /><line x1="830.449"
y1="-1059.613" x2="829.765" y2="-1055.740"
style="stroke:rgb(96,176,207);stroke-width:1" /><line x1="829.765"
y1="-1055.740" x2="826.801" y2="-1054.145"
style="stroke:rgb(96,176,207);stroke-width:1" /><line x1="826.801"
y1="-1054.145" x2="829.537" y2="-1053.006"
style="stroke:rgb(96,176,207);stroke-width:1" /><line x1="829.537"
y1="-1053.006" x2="826.801" y2="-1049.588"
style="stroke:rgb(96,176,207);stroke-width:1" /><line x1="826.801"
y1="-1049.588" x2="824.976" y2="-1042.298"
style="stroke:rgb(96,176,207);stroke-width:1" /><line x1="824.976"
y1="-1042.298" x2="823.380" y2="-1032.501"
style="stroke:rgb(96,176,207);stroke-width:1" /><line x1="826.572"
y1="-1061.436" x2="822.696" y2="-1053.461"
style="stroke:rgb(96,176,207);stroke-width:1" /><line x1="822.696"
y1="-1053.461" x2="819.732" y2="-1046.626"
style="stroke:rgb(96,176,207);stroke-width:1" /><line x1="819.732"
y1="-1046.626" x2="819.048" y2="-1037.741"
style="stroke:rgb(96,176,207);stroke-width:1" /><line x1="819.048"
y1="-1037.741" x2="818.820" y2="-1032.957"
style="stroke:rgb(96,176,207);stroke-width:1" /><line x1="809.471"
y1="-1061.663" x2="807.190" y2="-1058.929"
style="stroke:rgb(96,176,207);stroke-width:1" /><line x1="807.190"
y1="-1058.929" x2="806.506" y2="-1052.322"
style="stroke:rgb(96,176,207);stroke-width:1" /><line x1="806.506"
y1="-1052.322" x2="806.962" y2="-1041.159"
style="stroke:rgb(96,176,207);stroke-width:1" /><line x1="806.962"
y1="-1041.159" x2="809.243" y2="-1025.210"
style="stroke:rgb(96,176,207);stroke-width:1" /><line x1="814.259"
y1="-1059.157" x2="811.523" y2="-1050.272"
style="stroke:rgb(96,176,207);stroke-width:1" /><line x1="811.523"
y1="-1050.272" x2="810.383" y2="-1035.463"
style="stroke:rgb(96,176,207);stroke-width:1" /><line x1="810.383"
y1="-1035.463" x2="809.699" y2="-1022.476"
style="stroke:rgb(96,176,207);stroke-width:1" /><line x1="809.699"
y1="-1022.476" x2="808.786" y2="-1017.236"
style="stroke:rgb(96,176,207);stroke-width:1" /><line x1="808.786"
y1="-1017.236" x2="813.803" y2="-1011.996"
style="stroke:rgb(96,176,207);stroke-width:1" /><line x1="813.803"
y1="-1011.996" x2="817.451" y2="-1015.869"
style="stroke:rgb(96,176,207);stroke-width:1" /><line x1="804.454"
y1="-1059.385" x2="801.490" y2="-1055.968"
style="stroke:rgb(96,176,207);stroke-width:1" /><line x1="801.490"
y1="-1055.968" x2="803.998" y2="-1054.145"
style="stroke:rgb(96,176,207);stroke-width:1" /><line x1="803.998"
y1="-1054.145" x2="800.806" y2="-1051.867"
style="stroke:rgb(96,176,207);stroke-width:1" /><line x1="800.806"
y1="-1051.867" x2="803.314" y2="-1044.804"
style="stroke:rgb(96,176,207);stroke-width:1" /><line x1="803.314"
y1="-1044.804" x2="806.734" y2="-1032.273"
style="stroke:rgb(96,176,207);stroke-width:1" /><line x1="806.734"
y1="-1032.273" x2="808.786" y2="-1022.476"
style="stroke:rgb(96,176,207);stroke-width:1" /><line x1="808.786"
y1="-1022.476" x2="809.243" y2="-1020.198"
style="stroke:rgb(96,176,207);stroke-width:1" /><line x1="810.383"
y1="-1062.803" x2="805.366" y2="-1059.841"
style="stroke:rgb(96,176,207);stroke-width:1" /><line x1="805.366"
y1="-1059.841" x2="800.578" y2="-1057.790"
style="stroke:rgb(96,176,207);stroke-width:1" /><line x1="800.578"
y1="-1057.790" x2="798.069" y2="-1055.968"
style="stroke:rgb(96,176,207);stroke-width:1" /><line x1="798.069"
y1="-1055.968" x2="796.017" y2="-1053.006"
style="stroke:rgb(96,176,207);stroke-width:1" /><line x1="796.017"
y1="-1053.006" x2="794.193" y2="-1047.310"
style="stroke:rgb(96,176,207);stroke-width:1" /><line x1="794.193"
y1="-1047.310" x2="795.333" y2="-1036.374"
style="stroke:rgb(96,176,207);stroke-width:1" /><line x1="795.333"
y1="-1036.374" x2="794.649" y2="-1028.400"
style="stroke:rgb(96,176,207);stroke-width:1" /><line x1="794.649"
y1="-1028.400" x2="794.877" y2="-1025.894"
style="stroke:rgb(96,176,207);stroke-width:1" /><line x1="794.877"
y1="-1025.894" x2="798.753" y2="-1003.794"
style="stroke:rgb(96,176,207);stroke-width:1" /><line x1="798.753"
y1="-1003.794" x2="799.665" y2="-1003.339"
style="stroke:rgb(96,176,207);stroke-width:1" /><line x1="799.665"
y1="-1003.339" x2="800.121" y2="-999.465"
style="stroke:rgb(96,176,207);stroke-width:1" /><line x1="800.121"
y1="-999.465" x2="800.806" y2="-999.465"
style="stroke:rgb(96,176,207);stroke-width:1" /><line x1="800.806"
y1="-999.465" x2="801.490" y2="-999.465"
style="stroke:rgb(96,176,207);stroke-width:1" /><line x1="827.029"
y1="-1062.575" x2="831.133" y2="-1060.296"
style="stroke:rgb(96,176,207);stroke-width:1" /><line x1="831.133"
y1="-1060.296" x2="837.062" y2="-1058.246"
style="stroke:rgb(96,176,207);stroke-width:1" /><line x1="837.062"
y1="-1058.246" x2="841.850" y2="-1056.651"
style="stroke:rgb(96,176,207);stroke-width:1" /><line x1="841.850"
y1="-1056.651" x2="844.815" y2="-1052.094"
style="stroke:rgb(96,176,207);stroke-width:1" /><line x1="844.815"
y1="-1052.094" x2="846.183" y2="-1041.614"
style="stroke:rgb(96,176,207);stroke-width:1" /><line x1="846.183"
y1="-1041.614" x2="845.727" y2="-1029.539"
style="stroke:rgb(96,176,207);stroke-width:1" /><line x1="845.727"
y1="-1029.539" x2="842.762" y2="-1024.755"
style="stroke:rgb(96,176,207);stroke-width:1" /><line x1="842.762"
y1="-1024.755" x2="838.886" y2="-1021.337"
style="stroke:rgb(96,176,207);stroke-width:1" /><line x1="838.886"
y1="-1021.337" x2="835.922" y2="-1019.059"
style="stroke:rgb(96,176,207);stroke-width:1" /><line x1="835.922"
y1="-1019.059" x2="829.993" y2="-1019.059"
style="stroke:rgb(96,176,207);stroke-width:1" /><line x1="829.993"
y1="-1019.059" x2="826.572" y2="-1019.287"
style="stroke:rgb(96,176,207);stroke-width:1" /><line x1="826.572"
y1="-1019.287" x2="824.064" y2="-1020.654"
style="stroke:rgb(96,176,207);stroke-width:1" /><line x1="800.963"
y1="-999.125" x2="799.536" y2="-995.883"
style="stroke:rgb(96,176,207);stroke-width:1" /><line x1="799.536"
y1="-995.883" x2="798.757" y2="-992.382"
style="stroke:rgb(96,176,207);stroke-width:1" /><line x1="801.946"
y1="-990.808" x2="801.034" y2="-999.693"
style="stroke:rgb(96,176,207);stroke-width:1" /><line x1="801.034"
y1="-999.693" x2="801.034" y2="-1006.756"
style="stroke:rgb(96,176,207);stroke-width:1" /><line x1="801.034"
y1="-1006.756" x2="800.350" y2="-1013.591"
style="stroke:rgb(96,176,207);stroke-width:1" /><line x1="800.350"
y1="-1013.591" x2="800.350" y2="-1019.287"
style="stroke:rgb(96,176,207);stroke-width:1" /><line x1="800.350"
y1="-1019.287" x2="800.350" y2="-1025.438"
style="stroke:rgb(96,176,207);stroke-width:1" /><line x1="800.350"
y1="-1025.438" x2="800.806" y2="-1035.918"
style="stroke:rgb(96,176,207);stroke-width:1" /><line x1="800.806"
y1="-1035.918" x2="798.525" y2="-1042.753"
style="stroke:rgb(96,176,207);stroke-width:1" /><line x1="810.383"
y1="-1015.414" x2="809.243" y2="-1010.629"
style="stroke:rgb(96,176,207);stroke-width:1" /><line x1="809.243"
y1="-1010.629" x2="808.330" y2="-1007.212"
style="stroke:rgb(96,176,207);stroke-width:1" /><line x1="808.330"
y1="-1007.212" x2="808.330" y2="-1000.832"
style="stroke:rgb(96,176,207);stroke-width:1" /><line x1="808.330"
y1="-1000.832" x2="806.050" y2="-996.504"
style="stroke:rgb(96,176,207);stroke-width:1" /><line x1="806.050"
y1="-996.504" x2="803.542" y2="-993.770"
style="stroke:rgb(96,176,207);stroke-width:1" /><line x1="803.542"
y1="-993.770" x2="801.718" y2="-990.352"
style="stroke:rgb(96,176,207);stroke-width:1" /><line x1="801.718"
y1="-990.352" x2="801.262" y2="-987.390"
style="stroke:rgb(96,176,207);stroke-width:1" /><line x1="828.169"
y1="-989.897" x2="822.696" y2="-996.276"
style="stroke:rgb(96,176,207);stroke-width:1" /><line x1="822.696"
y1="-996.276" x2="818.364" y2="-1002.883"
style="stroke:rgb(96,176,207);stroke-width:1" /><line x1="818.364"
y1="-1002.883" x2="818.136" y2="-1009.034"
style="stroke:rgb(96,176,207);stroke-width:1" /><line x1="818.136"
y1="-1009.034" x2="818.592" y2="-1015.641"
style="stroke:rgb(96,176,207);stroke-width:1" /><line x1="839.114"
y1="-1020.882" x2="838.886" y2="-1017.920"
style="stroke:rgb(96,176,207);stroke-width:1" /><line x1="838.886"
y1="-1017.920" x2="838.430" y2="-1009.946"
style="stroke:rgb(96,176,207);stroke-width:1" /></g></svg>
