<?xml version="1.0" encoding="utf-8"?><svg><g
transform="translate(0,1200)"><rect x="0" y="-1199" width="1599"
height="1199" style="fill:rgb(0,0,0)" /><line x1=" 0.000" y1="-0.000"
x2="1600.000" y2="-0.000" style="stroke:rgb(99,99,99);stroke-width:1" /><line
x1="1600.000" y1="-0.000" x2="1600.000" y2="-1200.000"
style="stroke:rgb(99,99,99);stroke-width:1" /><line x1="1600.000"
y1="-1200.000" x2=" 0.000" y2="-1200.000"
style="stroke:rgb(99,99,99);stroke-width:1" /><line x1=" 0.000"
y1="-1200.000" x2=" 0.000" y2="-0.000"
style="stroke:rgb(99,99,99);stroke-width:1" /><line x1="146.877"
y1="-134.245" x2="146.877" y2="-1100.245"
style="stroke:rgb(0,0,255);stroke-width:3" /><line x1="146.877"
y1="-1100.245" x2="1462.877" y2="-1100.245"
style="stroke:rgb(0,0,255);stroke-width:3" /><line x1="1462.877"
y1="-134.245" x2="1462.877" y2="-1100.245"
style="stroke:rgb(0,0,255);stroke-width:3" /><line x1="146.877"
y1="-134.245" x2="1462.877" y2="-134.245"
style="stroke:rgb(0,0,255);stroke-width:3" /><arc cx="401.268"
cy="-628.457" r="86.578" ang1=" 1.637" ang2=" 4.647"
stroke="rgb(144,152,0)" stroke-width="1" /><line x1="470.137"
y1="-628.358" x2="499.398" y2="-628.358"
style="stroke:rgb(144,152,0);stroke-width:1" /><line x1="527.864"
y1="-628.284" x2="587.972" y2="-628.284"
style="stroke:rgb(255,0,0);stroke-width:10" /><line x1="541.436"
y1="-585.081" x2="587.644" y2="-614.470"
style="stroke:rgb(255,0,0);stroke-width:10" /><line x1="604.226"
y1="-628.401" x2="658.778" y2="-628.401"
style="stroke:rgb(144,152,0);stroke-width:1" /><circle cx="849.835"
cy="-544.810" r="20.660" stroke="rgb(128,128,128)" stroke-width="1"
fill="rgb(0,0,0)" /><circle cx="896.281" cy="-544.810" r="20.660"
stroke="rgb(128,128,128)" stroke-width="1" fill="rgb(0,0,0)" /><line
x1="846.039" y1="-572.658" x2="846.039" y2="-590.445"
style="stroke:rgb(128,128,128);stroke-width:1" /><line x1="851.710"
y1="-569.744" x2="851.710" y2="-587.532"
style="stroke:rgb(128,128,128);stroke-width:1" /><line x1="840.368"
y1="-583.085" x2="859.986" y2="-574.651"
style="stroke:rgb(128,128,128);stroke-width:1" /><line x1="891.641"
y1="-571.431" x2="891.641" y2="-589.219"
style="stroke:rgb(128,128,128);stroke-width:1" /><line x1="897.312"
y1="-568.518" x2="897.312" y2="-586.305"
style="stroke:rgb(128,128,128);stroke-width:1" /><line x1="885.970"
y1="-581.858" x2="905.588" y2="-573.425"
style="stroke:rgb(128,128,128);stroke-width:1" /><line x1="811.402"
y1="-547.063" x2="938.318" y2="-547.063"
style="stroke:rgb(128,128,128);stroke-width:1" /><circle cx="846.464"
cy="-689.827" r="20.660" stroke="rgb(128,128,128)" stroke-width="1"
fill="rgb(0,0,0)" /><circle cx="892.910" cy="-689.827" r="20.660"
stroke="rgb(128,128,128)" stroke-width="1" fill="rgb(0,0,0)" /><line
x1="842.668" y1="-717.675" x2="842.668" y2="-735.462"
style="stroke:rgb(128,128,128);stroke-width:1" /><line x1="848.339"
y1="-714.762" x2="848.339" y2="-732.549"
style="stroke:rgb(128,128,128);stroke-width:1" /><line x1="836.997"
y1="-728.102" x2="856.615" y2="-719.668"
style="stroke:rgb(128,128,128);stroke-width:1" /><line x1="888.270"
y1="-716.449" x2="888.270" y2="-734.236"
style="stroke:rgb(128,128,128);stroke-width:1" /><line x1="893.941"
y1="-713.535" x2="893.941" y2="-731.323"
style="stroke:rgb(128,128,128);stroke-width:1" /><line x1="882.599"
y1="-726.876" x2="902.217" y2="-718.442"
style="stroke:rgb(128,128,128);stroke-width:1" /><line x1="808.031"
y1="-692.080" x2="934.947" y2="-692.080"
style="stroke:rgb(128,128,128);stroke-width:1" /><line x1="294.987"
y1="-240.318" x2="294.960" y2="-1017.927"
style="stroke:rgb(144,152,0);stroke-width:1" /><arc cx="714.026"
cy="-629.329" r="86.578" ang1=" 4.778" ang2=" 1.505"
stroke="rgb(144,152,0)" stroke-width="1" /><line x1="973.954"
y1="-625.112" x2="973.954" y2="-501.175"
style="stroke:rgb(144,152,0);stroke-width:1" /><line x1="973.954"
y1="-501.175" x2="906.458" y2="-501.175"
style="stroke:rgb(144,152,0);stroke-width:1" /><line x1="906.458"
y1="-501.175" x2="906.458" y2="-394.207"
style="stroke:rgb(144,152,0);stroke-width:1" /><line x1="906.458"
y1="-394.207" x2="934.495" y2="-394.207"
style="stroke:rgb(144,152,0);stroke-width:1" /><line x1="934.495"
y1="-380.896" x2="934.495" y2="-407.461"
style="stroke:rgb(144,152,0);stroke-width:1" /><line x1="940.840"
y1="-380.896" x2="940.840" y2="-407.461"
style="stroke:rgb(144,152,0);stroke-width:1" /><circle cx="1003.518"
cy="-334.940" r="21.009" stroke="rgb(47,47,47)" stroke-width="3"
fill="rgb(0,0,0)" /><circle cx="1003.455" cy="-394.348" r="21.009"
stroke="rgb(47,47,47)" stroke-width="3" fill="rgb(0,0,0)" /><circle
cx="1003.455" cy="-451.013" r="21.009" stroke="rgb(47,47,47)"
stroke-width="3" fill="rgb(0,0,0)" /><line x1="982.446" y1="-394.348"
x2="940.840" y2="-394.348" style="stroke:rgb(144,152,0);stroke-width:1" /><line
x1="1024.464" y1="-394.348" x2="1039.314" y2="-394.348"
style="stroke:rgb(144,152,0);stroke-width:1" /><line x1="1039.389"
y1="-379.368" x2="1039.389" y2="-409.005"
style="stroke:rgb(144,152,0);stroke-width:1" /><line x1="1042.743"
y1="-383.871" x2="1042.743" y2="-403.158"
style="stroke:rgb(144,152,0);stroke-width:1" /><line x1="1046.461"
y1="-389.244" x2="1046.461" y2="-397.785"
style="stroke:rgb(144,152,0);stroke-width:1" /><line x1="973.954"
y1="-625.112" x2="973.954" y2="-752.757"
style="stroke:rgb(144,152,0);stroke-width:1" /><line x1="973.954"
y1="-752.757" x2="905.641" y2="-752.757"
style="stroke:rgb(144,152,0);stroke-width:1" /><line x1="905.641"
y1="-752.757" x2="905.641" y2="-920.955"
style="stroke:rgb(144,152,0);stroke-width:1" /><line x1="905.641"
y1="-920.955" x2="942.293" y2="-920.955"
style="stroke:rgb(144,152,0);stroke-width:1" /><line x1="950.299"
y1="-845.592" x2="1012.040" y2="-845.592"
style="stroke:rgb(47,47,47);stroke-width:3" /><line x1="969.338"
y1="-803.508" x2="1011.712" y2="-830.462"
style="stroke:rgb(0,255,0);stroke-width:3" /><line x1="934.954"
y1="-827.346" x2="934.954" y2="-858.793"
style="stroke:rgb(144,152,0);stroke-width:1" /><line x1="934.954"
y1="-842.122" x2="905.641" y2="-842.122"
style="stroke:rgb(144,152,0);stroke-width:1" /><line x1="1024.464"
y1="-841.460" x2="1039.314" y2="-841.460"
style="stroke:rgb(144,152,0);stroke-width:1" /><line x1="1039.389"
y1="-826.479" x2="1039.389" y2="-856.116"
style="stroke:rgb(144,152,0);stroke-width:1" /><line x1="1042.743"
y1="-830.983" x2="1042.743" y2="-850.270"
style="stroke:rgb(144,152,0);stroke-width:1" /><line x1="1046.461"
y1="-836.356" x2="1046.461" y2="-844.897"
style="stroke:rgb(144,152,0);stroke-width:1" /><line x1="947.687"
y1="-911.433" x2="1010.828" y2="-911.433"
style="stroke:rgb(144,152,0);stroke-width:2" /><line x1="1010.828"
y1="-911.433" x2="1010.828" y2="-930.562"
style="stroke:rgb(144,152,0);stroke-width:2" /><line x1="1010.828"
y1="-930.562" x2="947.687" y2="-930.562"
style="stroke:rgb(144,152,0);stroke-width:2" /><line x1="947.687"
y1="-930.562" x2="947.687" y2="-911.433"
style="stroke:rgb(144,152,0);stroke-width:2" /><line x1="942.293"
y1="-920.955" x2="957.131" y2="-920.955"
style="stroke:rgb(144,152,0);stroke-width:2" /><line x1="957.131"
y1="-914.606" x2="957.131" y2="-927.305"
style="stroke:rgb(144,152,0);stroke-width:2" /><line x1="957.131"
y1="-927.305" x2="992.844" y2="-920.955"
style="stroke:rgb(144,152,0);stroke-width:2" /><line x1="957.131"
y1="-914.606" x2="992.844" y2="-920.955"
style="stroke:rgb(144,152,0);stroke-width:2" /><line x1="1024.576"
y1="-921.116" x2="1039.426" y2="-921.116"
style="stroke:rgb(144,152,0);stroke-width:1" /><line x1="1039.500"
y1="-906.136" x2="1039.500" y2="-935.773"
style="stroke:rgb(144,152,0);stroke-width:1" /><line x1="1042.854"
y1="-910.639" x2="1042.854" y2="-929.927"
style="stroke:rgb(144,152,0);stroke-width:1" /><line x1="1046.572"
y1="-916.012" x2="1046.572" y2="-924.554"
style="stroke:rgb(144,152,0);stroke-width:1" /><line x1="800.599"
y1="-628.401" x2="1085.672" y2="-628.401"
style="stroke:rgb(144,152,0);stroke-width:1" /><circle cx="1234.583"
cy="-335.677" r="21.009" stroke="rgb(47,47,47)" stroke-width="3"
fill="rgb(0,0,0)" /><circle cx="1234.520" cy="-395.085" r="21.009"
stroke="rgb(47,47,47)" stroke-width="3" fill="rgb(0,0,0)" /><circle
cx="1234.520" cy="-451.750" r="21.009" stroke="rgb(47,47,47)"
stroke-width="3" fill="rgb(0,0,0)" /><circle cx="1137.686" cy="-578.593"
r="21.009" stroke="rgb(47,47,47)" stroke-width="3" fill="rgb(0,0,0)" /><line
x1="1094.575" y1="-261.289" x2="1094.575" y2="-619.250"
style="stroke:rgb(128,128,128);stroke-width:1" /><line x1="1094.575"
y1="-619.250" x2="1339.165" y2="-619.250"
style="stroke:rgb(128,128,128);stroke-width:1" /><line x1="1339.165"
y1="-619.250" x2="1339.165" y2="-261.289"
style="stroke:rgb(128,128,128);stroke-width:1" /><line x1="1339.165"
y1="-261.289" x2="1094.575" y2="-261.289"
style="stroke:rgb(128,128,128);stroke-width:1" /><circle cx="1234.583"
cy="-768.358" r="21.009" stroke="rgb(47,47,47)" stroke-width="3"
fill="rgb(0,0,0)" /><circle cx="1234.520" cy="-886.900" r="21.009"
stroke="rgb(255,0,0)" stroke-width="3" fill="rgb(0,0,0)" /><line
x1="1221.018" y1="-871.326" x2="1248.023" y2="-902.473"
style="stroke:rgb(255,0,0);stroke-width:3" /><line x1="1234.520"
y1="-886.900" x2="1221.955" y2="-903.238"
style="stroke:rgb(255,0,0);stroke-width:3" /><line x1="1234.520"
y1="-886.900" x2="1246.713" y2="-870.281"
style="stroke:rgb(255,0,0);stroke-width:3" /><line x1="1094.575"
y1="-653.148" x2="1094.575" y2="-1011.109"
style="stroke:rgb(128,128,128);stroke-width:1" /><line x1="1094.575"
y1="-1011.109" x2="1339.165" y2="-1011.109"
style="stroke:rgb(128,128,128);stroke-width:1" /><line x1="1339.165"
y1="-1011.109" x2="1339.165" y2="-653.148"
style="stroke:rgb(128,128,128);stroke-width:1" /><line x1="1339.165"
y1="-653.148" x2="1094.575" y2="-653.148"
style="stroke:rgb(128,128,128);stroke-width:1" /><line x1="599.793"
y1="-796.017" x2="636.105" y2="-821.914"
style="stroke:rgb(128,128,128);stroke-width:1" /><line x1="601.655"
y1="-811.656" x2="633.498" y2="-833.640"
style="stroke:rgb(128,128,128);stroke-width:1" /><line x1="636.200"
y1="-849.281" x2="599.406" y2="-824.074"
style="stroke:rgb(128,128,128);stroke-width:1" /><line x1="659.328"
y1="-796.017" x2="695.640" y2="-821.914"
style="stroke:rgb(128,128,128);stroke-width:1" /><line x1="661.190"
y1="-811.656" x2="693.033" y2="-833.640"
style="stroke:rgb(128,128,128);stroke-width:1" /><line x1="695.735"
y1="-849.281" x2="658.941" y2="-824.074"
style="stroke:rgb(128,128,128);stroke-width:1" /><arc cx="1139.286"
cy="-767.345" r="14.464" ang1=" 1.682" ang2=" 4.601" stroke="rgb(79,0,0)"
stroke-width="0" /><line x1="1137.685" y1="-752.970" x2="1151.510"
y2="-752.970" style="stroke:rgb(79,0,0);stroke-width:0" /><line
x1="1137.685" y1="-781.721" x2="1151.510" y2="-781.721"
style="stroke:rgb(79,0,0);stroke-width:0" /><line x1="1151.510"
y1="-747.294" x2="1151.510" y2="-787.426"
style="stroke:rgb(79,0,0);stroke-width:0" /><line x1="1151.510"
y1="-747.294" x2="1178.173" y2="-747.294"
style="stroke:rgb(79,0,0);stroke-width:0" /><line x1="1178.173"
y1="-747.294" x2="1178.173" y2="-787.426"
style="stroke:rgb(79,0,0);stroke-width:0" /><line x1="1178.173"
y1="-787.426" x2="1151.510" y2="-787.426"
style="stroke:rgb(79,0,0);stroke-width:0" /><arc cx="1139.003"
cy="-858.899" r="14.464" ang1=" 1.682" ang2=" 4.601"
stroke="rgb(15,72,0)" stroke-width="1" /><line x1="1137.402"
y1="-873.422" x2="1151.227" y2="-873.422"
style="stroke:rgb(15,72,0);stroke-width:1" /><line x1="1151.227"
y1="-867.746" x2="1151.227" y2="-907.878"
style="stroke:rgb(15,72,0);stroke-width:1" /><line x1="1151.227"
y1="-867.746" x2="1177.890" y2="-867.746"
style="stroke:rgb(15,72,0);stroke-width:1" /><line x1="1177.890"
y1="-867.746" x2="1177.890" y2="-907.878"
style="stroke:rgb(15,72,0);stroke-width:1" /><line x1="1177.890"
y1="-907.878" x2="1151.227" y2="-907.878"
style="stroke:rgb(15,72,0);stroke-width:1" /><line x1="665.881"
y1="-907.494" x2="665.881" y2="-945.780"
style="stroke:rgb(47,47,47);stroke-width:3" /><line x1="665.881"
y1="-945.780" x2="689.692" y2="-945.780"
style="stroke:rgb(47,47,47);stroke-width:3" /><line x1="689.692"
y1="-945.780" x2="689.692" y2="-907.494"
style="stroke:rgb(47,47,47);stroke-width:3" /><line x1="689.692"
y1="-907.494" x2="665.881" y2="-907.494"
style="stroke:rgb(47,47,47);stroke-width:3" /><line x1="606.346"
y1="-907.494" x2="606.346" y2="-945.780"
style="stroke:rgb(0,255,0);stroke-width:3" /><line x1="606.346"
y1="-945.780" x2="630.157" y2="-945.780"
style="stroke:rgb(0,255,0);stroke-width:3" /><line x1="630.157"
y1="-945.780" x2="630.157" y2="-907.494"
style="stroke:rgb(0,255,0);stroke-width:3" /><line x1="630.157"
y1="-907.494" x2="606.346" y2="-907.494"
style="stroke:rgb(0,255,0);stroke-width:3" /><line x1="1176.402"
y1="-557.230" x2="1176.402" y2="-601.324"
style="stroke:rgb(128,128,128);stroke-width:1" /><line x1="1176.402"
y1="-601.324" x2="1211.660" y2="-601.324"
style="stroke:rgb(128,128,128);stroke-width:1" /><line x1="1211.660"
y1="-601.324" x2="1211.660" y2="-557.230"
style="stroke:rgb(128,128,128);stroke-width:1" /><line x1="1211.660"
y1="-557.230" x2="1176.402" y2="-557.230"
style="stroke:rgb(128,128,128);stroke-width:1" /><line x1="527.864"
y1="-628.284" x2="587.972" y2="-628.284"
style="stroke:rgb(255,0,0);stroke-width:10" /><line x1="541.436"
y1="-585.081" x2="587.644" y2="-614.470"
style="stroke:rgb(47,47,47);stroke-width:10" /><line x1="950.299"
y1="-845.592" x2="1012.040" y2="-845.592"
style="stroke:rgb(47,47,47);stroke-width:10" /><line x1="969.338"
y1="-803.508" x2="1011.712" y2="-830.462"
style="stroke:rgb(0,255,0);stroke-width:10" /><line x1="487.260"
y1="-616.280" x2="511.537" y2="-640.437"
style="stroke:rgb(144,152,0);stroke-width:1" /><line x1="487.260"
y1="-640.437" x2="511.537" y2="-616.280"
style="stroke:rgb(144,152,0);stroke-width:1" /><line x1="646.639"
y1="-640.480" x2="670.916" y2="-616.323"
style="stroke:rgb(144,152,0);stroke-width:1" /><line x1="646.639"
y1="-616.323" x2="670.916" y2="-640.480"
style="stroke:rgb(144,152,0);stroke-width:1" /><line x1="402.892"
y1="-615.089" x2="402.892" y2="-581.204"
style="stroke:rgb(47,47,47);stroke-width:10" /><line x1="369.398"
y1="-628.401" x2="389.580" y2="-628.401"
style="stroke:rgb(47,47,47);stroke-width:10" /><line x1="355.694"
y1="-628.401" x2="389.580" y2="-628.401"
style="stroke:rgb(47,47,47);stroke-width:10" /><line x1="416.204"
y1="-628.401" x2="439.298" y2="-628.401"
style="stroke:rgb(47,47,47);stroke-width:10" /><line x1="416.204"
y1="-628.401" x2="450.089" y2="-628.401"
style="stroke:rgb(47,47,47);stroke-width:10" /><line x1="402.892"
y1="-641.713" x2="402.892" y2="-675.599"
style="stroke:rgb(47,47,47);stroke-width:10" /><line x1="314.691"
y1="-628.401" x2="294.973" y2="-628.401"
style="stroke:rgb(144,152,0);stroke-width:1" /><text id="101" x="178.109"
y="-165.471" transform="rotate( 1.571,0,0)" font-family="SimHei"
font-size="18" fill="rgb(0,255,0)"> ORT400</text><line x1="1234.583"
y1="-768.358" x2="1246.775" y2="-751.739"
style="stroke:rgb(47,47,47);stroke-width:3" /><line x1="1234.583"
y1="-768.358" x2="1222.017" y2="-784.697"
style="stroke:rgb(47,47,47);stroke-width:3" /><line x1="1221.080"
y1="-752.785" x2="1248.085" y2="-783.932"
style="stroke:rgb(47,47,47);stroke-width:3" /><line x1="1124.183"
y1="-563.020" x2="1151.188" y2="-594.166"
style="stroke:rgb(47,47,47);stroke-width:3" /><line x1="1137.686"
y1="-578.593" x2="1125.120" y2="-594.932"
style="stroke:rgb(47,47,47);stroke-width:3" /><line x1="1137.686"
y1="-578.593" x2="1149.878" y2="-561.974"
style="stroke:rgb(47,47,47);stroke-width:3" /><line x1="1221.018"
y1="-436.177" x2="1248.023" y2="-467.324"
style="stroke:rgb(47,47,47);stroke-width:3" /><line x1="1234.520"
y1="-451.750" x2="1221.955" y2="-468.089"
style="stroke:rgb(47,47,47);stroke-width:3" /><line x1="1234.520"
y1="-451.750" x2="1246.713" y2="-435.131"
style="stroke:rgb(47,47,47);stroke-width:3" /><line x1="1221.018"
y1="-379.512" x2="1248.023" y2="-410.658"
style="stroke:rgb(47,47,47);stroke-width:3" /><line x1="1234.520"
y1="-395.085" x2="1221.955" y2="-411.424"
style="stroke:rgb(47,47,47);stroke-width:3" /><line x1="1234.520"
y1="-395.085" x2="1246.713" y2="-378.466"
style="stroke:rgb(47,47,47);stroke-width:3" /><line x1="1221.080"
y1="-320.104" x2="1248.085" y2="-351.250"
style="stroke:rgb(47,47,47);stroke-width:3" /><line x1="1234.583"
y1="-335.677" x2="1222.017" y2="-352.016"
style="stroke:rgb(47,47,47);stroke-width:3" /><line x1="1234.583"
y1="-335.677" x2="1246.775" y2="-319.058"
style="stroke:rgb(47,47,47);stroke-width:3" /><line x1="989.953"
y1="-435.440" x2="1016.958" y2="-466.586"
style="stroke:rgb(47,47,47);stroke-width:3" /><line x1="1003.455"
y1="-451.013" x2="990.890" y2="-467.352"
style="stroke:rgb(47,47,47);stroke-width:3" /><line x1="1003.455"
y1="-451.013" x2="1015.648" y2="-434.394"
style="stroke:rgb(47,47,47);stroke-width:3" /><line x1="989.953"
y1="-378.774" x2="1016.958" y2="-409.921"
style="stroke:rgb(47,47,47);stroke-width:3" /><line x1="1003.455"
y1="-394.348" x2="990.890" y2="-410.687"
style="stroke:rgb(47,47,47);stroke-width:3" /><line x1="1003.455"
y1="-394.348" x2="1015.648" y2="-377.729"
style="stroke:rgb(47,47,47);stroke-width:3" /><line x1="990.015"
y1="-319.367" x2="1017.020" y2="-350.513"
style="stroke:rgb(47,47,47);stroke-width:3" /><line x1="1003.518"
y1="-334.940" x2="990.952" y2="-351.279"
style="stroke:rgb(47,47,47);stroke-width:3" /><line x1="1003.518"
y1="-334.940" x2="1015.710" y2="-318.321"
style="stroke:rgb(47,47,47);stroke-width:3" /><line x1="732.078"
y1="-615.089" x2="732.078" y2="-581.204"
style="stroke:rgb(47,47,47);stroke-width:10" /><line x1="684.880"
y1="-628.401" x2="718.766" y2="-628.401"
style="stroke:rgb(47,47,47);stroke-width:10" /><line x1="698.584"
y1="-628.401" x2="718.766" y2="-628.401"
style="stroke:rgb(47,47,47);stroke-width:10" /><line x1="732.078"
y1="-641.713" x2="732.078" y2="-675.599"
style="stroke:rgb(47,47,47);stroke-width:10" /><line x1="745.390"
y1="-628.401" x2="779.275" y2="-628.401"
style="stroke:rgb(47,47,47);stroke-width:10" /><line x1="745.390"
y1="-628.401" x2="768.484" y2="-628.401"
style="stroke:rgb(47,47,47);stroke-width:10" /><arc cx="617.876"
cy="-856.399" r="19.880" ang1=" 2.828" ang2=" 0.351"
stroke="rgb(128,128,128)" stroke-width="1" /><arc cx="618.247"
cy="-789.246" r="19.880" ang1=" 5.951" ang2=" 3.474"
stroke="rgb(128,128,128)" stroke-width="1" /><arc cx="677.411"
cy="-856.399" r="19.880" ang1=" 2.828" ang2=" 0.351"
stroke="rgb(128,128,128)" stroke-width="1" /><arc cx="677.782"
cy="-789.246" r="19.880" ang1=" 5.951" ang2=" 3.474"
stroke="rgb(128,128,128)" stroke-width="1" /><line x1="572.976"
y1="-661.504" x2="794.668" y2="-1012.957"
style="stroke:rgb(99,99,99);stroke-width:1" /><line x1="572.976"
y1="-661.504" x2="569.014" y2="-700.096"
style="stroke:rgb(99,99,99);stroke-width:1" /><line x1="572.976"
y1="-661.504" x2="604.673" y2="-692.180"
style="stroke:rgb(99,99,99);stroke-width:1" /><line x1="808.177"
y1="-956.875" x2="805.778" y2="-994.170"
style="stroke:rgb(96,176,207);stroke-width:1" /><line x1="834.839"
y1="-988.309" x2="834.839" y2="-957.408"
style="stroke:rgb(96,176,207);stroke-width:1" /><line x1="819.908"
y1="-983.514" x2="815.643" y2="-991.506"
style="stroke:rgb(96,176,207);stroke-width:1" /><line x1="799.668"
y1="-993.085" x2="798.760" y2="-986.341"
style="stroke:rgb(96,176,207);stroke-width:1" /><line x1="802.173"
y1="-988.094" x2="803.313" y2="-982.854"
style="stroke:rgb(96,176,207);stroke-width:1" /><line x1="835.921"
y1="-987.638" x2="829.080" y2="-990.600"
style="stroke:rgb(96,176,207);stroke-width:1" /><line x1="839.341"
y1="-1010.649" x2="844.814" y2="-980.803"
style="stroke:rgb(96,176,207);stroke-width:1" /><line x1="828.173"
y1="-916.118" x2="831.373" y2="-917.184"
style="stroke:rgb(96,176,207);stroke-width:1" /><line x1="831.373"
y1="-917.184" x2="834.039" y2="-915.585"
style="stroke:rgb(96,176,207);stroke-width:1" /><line x1="811.110"
y1="-914.520" x2="811.643" y2="-915.852"
style="stroke:rgb(96,176,207);stroke-width:1" /><line x1="811.643"
y1="-915.852" x2="815.376" y2="-913.454"
style="stroke:rgb(96,176,207);stroke-width:1" /><line x1="815.376"
y1="-913.454" x2="815.909" y2="-913.454"
style="stroke:rgb(96,176,207);stroke-width:1" /><line x1="820.975"
y1="-955.810" x2="819.908" y2="-953.146"
style="stroke:rgb(96,176,207);stroke-width:1" /><line x1="819.908"
y1="-953.146" x2="820.442" y2="-952.880"
style="stroke:rgb(96,176,207);stroke-width:1" /><line x1="820.442"
y1="-952.880" x2="818.309" y2="-913.987"
style="stroke:rgb(96,176,207);stroke-width:1" /><line x1="818.309"
y1="-913.987" x2="817.242" y2="-913.721"
style="stroke:rgb(96,176,207);stroke-width:1" /><line x1="817.242"
y1="-913.721" x2="819.375" y2="-909.459"
style="stroke:rgb(96,176,207);stroke-width:1" /><line x1="819.375"
y1="-909.459" x2="819.375" y2="-907.860"
style="stroke:rgb(96,176,207);stroke-width:1" /><line x1="819.375"
y1="-907.860" x2="811.643" y2="-907.327"
style="stroke:rgb(96,176,207);stroke-width:1" /><line x1="811.643"
y1="-907.327" x2="806.578" y2="-907.594"
style="stroke:rgb(96,176,207);stroke-width:1" /><line x1="806.578"
y1="-907.594" x2="803.378" y2="-907.594"
style="stroke:rgb(96,176,207);stroke-width:1" /><line x1="803.378"
y1="-907.594" x2="803.378" y2="-909.991"
style="stroke:rgb(96,176,207);stroke-width:1" /><line x1="803.378"
y1="-909.991" x2="809.510" y2="-913.987"
style="stroke:rgb(96,176,207);stroke-width:1" /><line x1="809.510"
y1="-913.987" x2="808.177" y2="-953.146"
style="stroke:rgb(96,176,207);stroke-width:1" /><line x1="808.177"
y1="-953.146" x2="808.711" y2="-955.544"
style="stroke:rgb(96,176,207);stroke-width:1" /><line x1="808.711"
y1="-955.544" x2="808.177" y2="-956.875"
style="stroke:rgb(96,176,207);stroke-width:1" /><line x1="834.839"
y1="-957.408" x2="835.639" y2="-954.478"
style="stroke:rgb(96,176,207);stroke-width:1" /><line x1="835.639"
y1="-954.478" x2="835.105" y2="-915.053"
style="stroke:rgb(96,176,207);stroke-width:1" /><line x1="835.105"
y1="-915.053" x2="832.439" y2="-914.254"
style="stroke:rgb(96,176,207);stroke-width:1" /><line x1="832.439"
y1="-914.254" x2="834.039" y2="-911.057"
style="stroke:rgb(96,176,207);stroke-width:1" /><line x1="834.039"
y1="-911.057" x2="835.639" y2="-909.459"
style="stroke:rgb(96,176,207);stroke-width:1" /><line x1="835.639"
y1="-909.459" x2="835.639" y2="-907.860"
style="stroke:rgb(96,176,207);stroke-width:1" /><line x1="835.639"
y1="-907.860" x2="831.639" y2="-907.594"
style="stroke:rgb(96,176,207);stroke-width:1" /><line x1="831.639"
y1="-907.594" x2="823.908" y2="-907.327"
style="stroke:rgb(96,176,207);stroke-width:1" /><line x1="823.908"
y1="-907.327" x2="822.841" y2="-909.459"
style="stroke:rgb(96,176,207);stroke-width:1" /><line x1="822.841"
y1="-909.459" x2="823.908" y2="-911.323"
style="stroke:rgb(96,176,207);stroke-width:1" /><line x1="823.908"
y1="-911.323" x2="827.107" y2="-914.254"
style="stroke:rgb(96,176,207);stroke-width:1" /><line x1="827.107"
y1="-914.254" x2="826.041" y2="-915.585"
style="stroke:rgb(96,176,207);stroke-width:1" /><line x1="826.041"
y1="-915.585" x2="822.308" y2="-953.679"
style="stroke:rgb(96,176,207);stroke-width:1" /><line x1="822.308"
y1="-953.679" x2="821.508" y2="-956.343"
style="stroke:rgb(96,176,207);stroke-width:1" /><line x1="821.508"
y1="-956.343" x2="819.908" y2="-983.514"
style="stroke:rgb(96,176,207);stroke-width:1" /><line x1="798.760"
y1="-986.341" x2="799.539" y2="-986.082"
style="stroke:rgb(96,176,207);stroke-width:1" /><line x1="799.539"
y1="-986.082" x2="800.058" y2="-984.655"
style="stroke:rgb(96,176,207);stroke-width:1" /><line x1="800.058"
y1="-984.655" x2="800.966" y2="-984.525"
style="stroke:rgb(96,176,207);stroke-width:1" /><line x1="800.966"
y1="-984.525" x2="801.226" y2="-983.488"
style="stroke:rgb(96,176,207);stroke-width:1" /><line x1="801.226"
y1="-983.488" x2="802.913" y2="-982.969"
style="stroke:rgb(96,176,207);stroke-width:1" /><line x1="803.313"
y1="-982.854" x2="803.997" y2="-979.892"
style="stroke:rgb(96,176,207);stroke-width:1" /><line x1="803.997"
y1="-979.892" x2="806.506" y2="-980.803"
style="stroke:rgb(96,176,207);stroke-width:1" /><line x1="843.902"
y1="-981.487" x2="840.482" y2="-983.765"
style="stroke:rgb(96,176,207);stroke-width:1" /><line x1="840.482"
y1="-983.765" x2="835.921" y2="-987.638"
style="stroke:rgb(96,176,207);stroke-width:1" /><line x1="844.814"
y1="-980.803" x2="842.306" y2="-980.575"
style="stroke:rgb(96,176,207);stroke-width:1" /><line x1="842.306"
y1="-980.575" x2="838.201" y2="-982.626"
style="stroke:rgb(96,176,207);stroke-width:1" /><line x1="838.201"
y1="-982.626" x2="835.009" y2="-983.309"
style="stroke:rgb(96,176,207);stroke-width:1" /><line x1="817.511"
y1="-1076.979" x2="817.979" y2="-1077.446"
style="stroke:rgb(96,176,207);stroke-width:1" /><line x1="817.979"
y1="-1077.446" x2="818.821" y2="-1077.166"
style="stroke:rgb(96,176,207);stroke-width:1" /><line x1="812.085"
y1="-1077.540" x2="812.647" y2="-1077.726"
style="stroke:rgb(96,176,207);stroke-width:1" /><line x1="812.647"
y1="-1077.726" x2="813.208" y2="-1077.072"
style="stroke:rgb(96,176,207);stroke-width:1" /><line x1="810.214"
y1="-1078.661" x2="812.366" y2="-1079.129"
style="stroke:rgb(96,176,207);stroke-width:1" /><line x1="812.366"
y1="-1079.129" x2="814.518" y2="-1078.287"
style="stroke:rgb(96,176,207);stroke-width:1" /><line x1="810.869"
y1="-1077.820" x2="813.021" y2="-1077.913"
style="stroke:rgb(96,176,207);stroke-width:1" /><line x1="813.021"
y1="-1077.913" x2="814.518" y2="-1077.353"
style="stroke:rgb(96,176,207);stroke-width:1" /><line x1="814.518"
y1="-1077.353" x2="814.143" y2="-1076.792"
style="stroke:rgb(96,176,207);stroke-width:1" /><line x1="814.143"
y1="-1076.792" x2="813.114" y2="-1076.885"
style="stroke:rgb(96,176,207);stroke-width:1" /><line x1="813.114"
y1="-1076.885" x2="811.337" y2="-1077.353"
style="stroke:rgb(96,176,207);stroke-width:1" /><line x1="816.576"
y1="-1078.194" x2="817.792" y2="-1079.129"
style="stroke:rgb(96,176,207);stroke-width:1" /><line x1="817.792"
y1="-1079.129" x2="820.692" y2="-1078.848"
style="stroke:rgb(96,176,207);stroke-width:1" /><line x1="820.692"
y1="-1078.848" x2="821.160" y2="-1078.100"
style="stroke:rgb(96,176,207);stroke-width:1" /><line x1="820.318"
y1="-1077.913" x2="819.101" y2="-1078.007"
style="stroke:rgb(96,176,207);stroke-width:1" /><line x1="819.101"
y1="-1078.007" x2="817.511" y2="-1077.820"
style="stroke:rgb(96,176,207);stroke-width:1" /><line x1="817.511"
y1="-1077.820" x2="816.763" y2="-1077.353"
style="stroke:rgb(96,176,207);stroke-width:1" /><line x1="816.763"
y1="-1077.353" x2="817.231" y2="-1076.792"
style="stroke:rgb(96,176,207);stroke-width:1" /><line x1="817.231"
y1="-1076.792" x2="818.447" y2="-1076.698"
style="stroke:rgb(96,176,207);stroke-width:1" /><line x1="818.447"
y1="-1076.698" x2="820.318" y2="-1077.353"
style="stroke:rgb(96,176,207);stroke-width:1" /><line x1="812.927"
y1="-1070.062" x2="814.518" y2="-1070.529"
style="stroke:rgb(96,176,207);stroke-width:1" /><line x1="814.518"
y1="-1070.529" x2="815.360" y2="-1070.436"
style="stroke:rgb(96,176,207);stroke-width:1" /><line x1="815.360"
y1="-1070.436" x2="817.324" y2="-1070.155"
style="stroke:rgb(96,176,207);stroke-width:1" /><line x1="813.582"
y1="-1072.679" x2="813.863" y2="-1072.212"
style="stroke:rgb(96,176,207);stroke-width:1" /><line x1="813.863"
y1="-1072.212" x2="815.921" y2="-1072.305"
style="stroke:rgb(96,176,207);stroke-width:1" /><line x1="815.921"
y1="-1072.305" x2="816.950" y2="-1072.773"
style="stroke:rgb(96,176,207);stroke-width:1" /><line x1="826.305"
y1="-1078.568" x2="826.773" y2="-1079.222"
style="stroke:rgb(96,176,207);stroke-width:1" /><line x1="826.773"
y1="-1079.222" x2="827.614" y2="-1079.502"
style="stroke:rgb(96,176,207);stroke-width:1" /><line x1="827.614"
y1="-1079.502" x2="828.269" y2="-1078.848"
style="stroke:rgb(96,176,207);stroke-width:1" /><line x1="828.269"
y1="-1078.848" x2="828.644" y2="-1077.913"
style="stroke:rgb(96,176,207);stroke-width:1" /><line x1="828.644"
y1="-1077.913" x2="828.363" y2="-1076.138"
style="stroke:rgb(96,176,207);stroke-width:1" /><line x1="828.363"
y1="-1076.138" x2="827.802" y2="-1074.829"
style="stroke:rgb(96,176,207);stroke-width:1" /><line x1="827.802"
y1="-1074.829" x2="826.773" y2="-1073.707"
style="stroke:rgb(96,176,207);stroke-width:1" /><line x1="826.773"
y1="-1073.707" x2="826.118" y2="-1072.866"
style="stroke:rgb(96,176,207);stroke-width:1" /><line x1="826.118"
y1="-1072.866" x2="825.556" y2="-1072.586"
style="stroke:rgb(96,176,207);stroke-width:1" /><line x1="825.556"
y1="-1072.586" x2="825.369" y2="-1073.146"
style="stroke:rgb(96,176,207);stroke-width:1" /><line x1="814.237"
y1="-1069.408" x2="815.921" y2="-1069.314"
style="stroke:rgb(96,176,207);stroke-width:1" /><line x1="812.647"
y1="-1065.202" x2="812.553" y2="-1064.921"
style="stroke:rgb(96,176,207);stroke-width:1" /><line x1="812.553"
y1="-1064.921" x2="814.705" y2="-1064.641"
style="stroke:rgb(96,176,207);stroke-width:1" /><line x1="825.556"
y1="-1065.762" x2="825.931" y2="-1065.202"
style="stroke:rgb(96,176,207);stroke-width:1" /><line x1="825.931"
y1="-1065.202" x2="822.843" y2="-1064.734"
style="stroke:rgb(96,176,207);stroke-width:1" /><line x1="822.843"
y1="-1064.734" x2="819.289" y2="-1064.734"
style="stroke:rgb(96,176,207);stroke-width:1" /><line x1="814.611"
y1="-1063.052" x2="816.014" y2="-1059.967"
style="stroke:rgb(96,176,207);stroke-width:1" /><line x1="816.014"
y1="-1059.967" x2="816.669" y2="-1059.407"
style="stroke:rgb(96,176,207);stroke-width:1" /><line x1="816.669"
y1="-1059.407" x2="818.353" y2="-1060.061"
style="stroke:rgb(96,176,207);stroke-width:1" /><line x1="818.353"
y1="-1060.061" x2="819.476" y2="-1062.771"
style="stroke:rgb(96,176,207);stroke-width:1" /><line x1="813.301"
y1="-1065.575" x2="812.460" y2="-1065.575"
style="stroke:rgb(96,176,207);stroke-width:1" /><line x1="812.460"
y1="-1065.575" x2="811.805" y2="-1065.108"
style="stroke:rgb(96,176,207);stroke-width:1" /><line x1="811.805"
y1="-1065.108" x2="810.401" y2="-1059.220"
style="stroke:rgb(96,176,207);stroke-width:1" /><line x1="810.401"
y1="-1059.220" x2="814.050" y2="-1063.052"
style="stroke:rgb(96,176,207);stroke-width:1" /><line x1="814.050"
y1="-1063.052" x2="815.640" y2="-1064.547"
style="stroke:rgb(96,176,207);stroke-width:1" /><line x1="815.640"
y1="-1064.547" x2="818.821" y2="-1064.454"
style="stroke:rgb(96,176,207);stroke-width:1" /><line x1="818.821"
y1="-1064.454" x2="822.750" y2="-1058.565"
style="stroke:rgb(96,176,207);stroke-width:1" /><line x1="822.750"
y1="-1058.565" x2="825.931" y2="-1060.622"
style="stroke:rgb(96,176,207);stroke-width:1" /><line x1="825.931"
y1="-1060.622" x2="827.802" y2="-1061.837"
style="stroke:rgb(96,176,207);stroke-width:1" /><line x1="827.802"
y1="-1061.837" x2="827.240" y2="-1063.706"
style="stroke:rgb(96,176,207);stroke-width:1" /><line x1="827.240"
y1="-1063.706" x2="826.960" y2="-1065.856"
style="stroke:rgb(96,176,207);stroke-width:1" /><line x1="826.960"
y1="-1065.856" x2="826.024" y2="-1065.762"
style="stroke:rgb(96,176,207);stroke-width:1" /><line x1="827.147"
y1="-1073.894" x2="826.211" y2="-1071.558"
style="stroke:rgb(96,176,207);stroke-width:1" /><line x1="826.211"
y1="-1071.558" x2="825.837" y2="-1067.819"
style="stroke:rgb(96,176,207);stroke-width:1" /><line x1="825.837"
y1="-1067.819" x2="825.650" y2="-1065.762"
style="stroke:rgb(96,176,207);stroke-width:1" /><line x1="810.495"
y1="-1085.765" x2="811.056" y2="-1086.419"
style="stroke:rgb(96,176,207);stroke-width:1" /><line x1="811.056"
y1="-1086.419" x2="814.985" y2="-1086.606"
style="stroke:rgb(96,176,207);stroke-width:1" /><line x1="814.985"
y1="-1086.606" x2="819.382" y2="-1086.513"
style="stroke:rgb(96,176,207);stroke-width:1" /><line x1="819.382"
y1="-1086.513" x2="821.440" y2="-1086.139"
style="stroke:rgb(96,176,207);stroke-width:1" /><line x1="821.440"
y1="-1086.139" x2="823.498" y2="-1085.297"
style="stroke:rgb(96,176,207);stroke-width:1" /><line x1="823.498"
y1="-1085.297" x2="824.527" y2="-1083.241"
style="stroke:rgb(96,176,207);stroke-width:1" /><line x1="824.527"
y1="-1083.241" x2="824.902" y2="-1081.278"
style="stroke:rgb(96,176,207);stroke-width:1" /><line x1="824.902"
y1="-1081.278" x2="825.931" y2="-1080.344"
style="stroke:rgb(96,176,207);stroke-width:1" /><line x1="825.931"
y1="-1080.344" x2="825.931" y2="-1079.502"
style="stroke:rgb(96,176,207);stroke-width:1" /><line x1="825.931"
y1="-1079.502" x2="826.305" y2="-1079.315"
style="stroke:rgb(96,176,207);stroke-width:1" /><line x1="814.237"
y1="-1065.015" x2="813.582" y2="-1066.043"
style="stroke:rgb(96,176,207);stroke-width:1" /><line x1="813.582"
y1="-1066.043" x2="812.647" y2="-1066.230"
style="stroke:rgb(96,176,207);stroke-width:1" /><line x1="812.647"
y1="-1066.230" x2="811.618" y2="-1067.445"
style="stroke:rgb(96,176,207);stroke-width:1" /><line x1="811.618"
y1="-1067.445" x2="810.401" y2="-1069.875"
style="stroke:rgb(96,176,207);stroke-width:1" /><line x1="810.401"
y1="-1069.875" x2="809.372" y2="-1074.268"
style="stroke:rgb(96,176,207);stroke-width:1" /><line x1="809.372"
y1="-1074.268" x2="810.121" y2="-1077.166"
style="stroke:rgb(96,176,207);stroke-width:1" /><line x1="810.121"
y1="-1077.166" x2="809.559" y2="-1078.381"
style="stroke:rgb(96,176,207);stroke-width:1" /><line x1="809.559"
y1="-1078.381" x2="809.559" y2="-1081.185"
style="stroke:rgb(96,176,207);stroke-width:1" /><line x1="809.559"
y1="-1081.185" x2="810.308" y2="-1085.484"
style="stroke:rgb(96,176,207);stroke-width:1" /><line x1="810.308"
y1="-1085.484" x2="810.121" y2="-1087.634"
style="stroke:rgb(96,176,207);stroke-width:1" /><line x1="810.121"
y1="-1087.634" x2="811.430" y2="-1088.943"
style="stroke:rgb(96,176,207);stroke-width:1" /><line x1="811.430"
y1="-1088.943" x2="816.389" y2="-1089.784"
style="stroke:rgb(96,176,207);stroke-width:1" /><line x1="816.389"
y1="-1089.784" x2="823.592" y2="-1089.410"
style="stroke:rgb(96,176,207);stroke-width:1" /><line x1="823.592"
y1="-1089.410" x2="826.398" y2="-1088.662"
style="stroke:rgb(96,176,207);stroke-width:1" /><line x1="826.398"
y1="-1088.662" x2="827.895" y2="-1086.045"
style="stroke:rgb(96,176,207);stroke-width:1" /><line x1="827.895"
y1="-1086.045" x2="828.644" y2="-1083.241"
style="stroke:rgb(96,176,207);stroke-width:1" /><line x1="828.644"
y1="-1083.241" x2="828.269" y2="-1080.904"
style="stroke:rgb(96,176,207);stroke-width:1" /><line x1="828.269"
y1="-1080.904" x2="827.614" y2="-1079.596"
style="stroke:rgb(96,176,207);stroke-width:1" /><line x1="825.660"
y1="-1030.242" x2="829.308" y2="-1030.698"
style="stroke:rgb(96,176,207);stroke-width:1" /><line x1="829.308"
y1="-1030.698" x2="834.097" y2="-1032.976"
style="stroke:rgb(96,176,207);stroke-width:1" /><line x1="834.097"
y1="-1032.976" x2="836.833" y2="-1032.976"
style="stroke:rgb(96,176,207);stroke-width:1" /><line x1="836.833"
y1="-1032.976" x2="835.237" y2="-1033.432"
style="stroke:rgb(96,176,207);stroke-width:1" /><line x1="835.237"
y1="-1033.432" x2="837.061" y2="-1041.406"
style="stroke:rgb(96,176,207);stroke-width:1" /><line x1="837.061"
y1="-1041.406" x2="834.553" y2="-1039.811"
style="stroke:rgb(96,176,207);stroke-width:1" /><line x1="810.610"
y1="-1011.560" x2="814.259" y2="-1010.649"
style="stroke:rgb(96,176,207);stroke-width:1" /><line x1="814.259"
y1="-1010.649" x2="818.819" y2="-1011.332"
style="stroke:rgb(96,176,207);stroke-width:1" /><line x1="826.148"
y1="-1029.009" x2="825.239" y2="-1029.138"
style="stroke:rgb(96,176,207);stroke-width:1" /><line x1="825.239"
y1="-1029.138" x2="824.330" y2="-1031.343"
style="stroke:rgb(96,176,207);stroke-width:1" /><line x1="824.330"
y1="-1031.343" x2="823.032" y2="-1032.770"
style="stroke:rgb(96,176,207);stroke-width:1" /><line x1="823.032"
y1="-1032.770" x2="821.864" y2="-1032.770"
style="stroke:rgb(96,176,207);stroke-width:1" /><line x1="821.864"
y1="-1032.770" x2="820.047" y2="-1033.159"
style="stroke:rgb(96,176,207);stroke-width:1" /><line x1="820.047"
y1="-1033.159" x2="819.528" y2="-1032.251"
style="stroke:rgb(96,176,207);stroke-width:1" /><line x1="819.528"
y1="-1032.251" x2="819.917" y2="-1031.213"
style="stroke:rgb(96,176,207);stroke-width:1" /><line x1="819.917"
y1="-1031.213" x2="821.345" y2="-1030.565"
style="stroke:rgb(96,176,207);stroke-width:1" /><line x1="821.345"
y1="-1030.565" x2="822.254" y2="-1029.398"
style="stroke:rgb(96,176,207);stroke-width:1" /><line x1="822.254"
y1="-1029.398" x2="820.696" y2="-1027.712"
style="stroke:rgb(96,176,207);stroke-width:1" /><line x1="820.696"
y1="-1027.712" x2="817.451" y2="-1025.766"
style="stroke:rgb(96,176,207);stroke-width:1" /><line x1="817.451"
y1="-1025.766" x2="817.191" y2="-1024.340"
style="stroke:rgb(96,176,207);stroke-width:1" /><line x1="817.191"
y1="-1024.340" x2="818.489" y2="-1024.080"
style="stroke:rgb(96,176,207);stroke-width:1" /><line x1="818.489"
y1="-1024.080" x2="816.542" y2="-1022.135"
style="stroke:rgb(96,176,207);stroke-width:1" /><line x1="816.542"
y1="-1022.135" x2="816.672" y2="-1021.357"
style="stroke:rgb(96,176,207);stroke-width:1" /><line x1="816.672"
y1="-1021.357" x2="817.321" y2="-1020.838"
style="stroke:rgb(96,176,207);stroke-width:1" /><line x1="817.321"
y1="-1020.838" x2="816.672" y2="-1019.801"
style="stroke:rgb(96,176,207);stroke-width:1" /><line x1="816.672"
y1="-1019.801" x2="817.451" y2="-1019.023"
style="stroke:rgb(96,176,207);stroke-width:1" /><line x1="817.451"
y1="-1019.023" x2="817.191" y2="-1017.596"
style="stroke:rgb(96,176,207);stroke-width:1" /><line x1="817.191"
y1="-1017.596" x2="817.840" y2="-1016.688"
style="stroke:rgb(96,176,207);stroke-width:1" /><line x1="817.840"
y1="-1016.688" x2="819.528" y2="-1017.207"
style="stroke:rgb(96,176,207);stroke-width:1" /><line x1="819.528"
y1="-1017.207" x2="822.383" y2="-1019.541"
style="stroke:rgb(96,176,207);stroke-width:1" /><line x1="822.383"
y1="-1019.541" x2="824.071" y2="-1022.135"
style="stroke:rgb(96,176,207);stroke-width:1" /><line x1="824.071"
y1="-1022.135" x2="826.148" y2="-1023.562"
style="stroke:rgb(96,176,207);stroke-width:1" /><line x1="826.148"
y1="-1023.562" x2="828.224" y2="-1023.043"
style="stroke:rgb(96,176,207);stroke-width:1" /><line x1="826.800"
y1="-1021.585" x2="828.852" y2="-1022.724"
style="stroke:rgb(96,176,207);stroke-width:1" /><line x1="828.852"
y1="-1022.724" x2="829.764" y2="-1025.914"
style="stroke:rgb(96,176,207);stroke-width:1" /><line x1="829.764"
y1="-1025.914" x2="829.080" y2="-1028.875"
style="stroke:rgb(96,176,207);stroke-width:1" /><line x1="829.080"
y1="-1028.875" x2="827.028" y2="-1030.015"
style="stroke:rgb(96,176,207);stroke-width:1" /><line x1="827.028"
y1="-1030.015" x2="825.660" y2="-1030.242"
style="stroke:rgb(96,176,207);stroke-width:1" /><line x1="818.016"
y1="-1059.109" x2="817.245" y2="-1050.244"
style="stroke:rgb(96,176,207);stroke-width:1" /><line x1="817.245"
y1="-1050.244" x2="817.824" y2="-1038.488"
style="stroke:rgb(96,176,207);stroke-width:1" /><line x1="817.824"
y1="-1038.488" x2="818.016" y2="-1033.284"
style="stroke:rgb(96,176,207);stroke-width:1" /><line x1="818.016"
y1="-1033.284" x2="819.174" y2="-1027.888"
style="stroke:rgb(96,176,207);stroke-width:1" /><line x1="831.361"
y1="-1060.316" x2="830.676" y2="-1056.443"
style="stroke:rgb(96,176,207);stroke-width:1" /><line x1="830.676"
y1="-1056.443" x2="827.712" y2="-1054.848"
style="stroke:rgb(96,176,207);stroke-width:1" /><line x1="827.712"
y1="-1054.848" x2="830.448" y2="-1053.709"
style="stroke:rgb(96,176,207);stroke-width:1" /><line x1="830.448"
y1="-1053.709" x2="827.712" y2="-1050.292"
style="stroke:rgb(96,176,207);stroke-width:1" /><line x1="827.712"
y1="-1050.292" x2="825.888" y2="-1043.001"
style="stroke:rgb(96,176,207);stroke-width:1" /><line x1="825.888"
y1="-1043.001" x2="824.292" y2="-1033.204"
style="stroke:rgb(96,176,207);stroke-width:1" /><line x1="827.484"
y1="-1062.139" x2="823.608" y2="-1054.165"
style="stroke:rgb(96,176,207);stroke-width:1" /><line x1="823.608"
y1="-1054.165" x2="820.643" y2="-1047.330"
style="stroke:rgb(96,176,207);stroke-width:1" /><line x1="820.643"
y1="-1047.330" x2="819.959" y2="-1038.444"
style="stroke:rgb(96,176,207);stroke-width:1" /><line x1="819.959"
y1="-1038.444" x2="819.731" y2="-1033.660"
style="stroke:rgb(96,176,207);stroke-width:1" /><line x1="810.382"
y1="-1062.367" x2="808.102" y2="-1059.633"
style="stroke:rgb(96,176,207);stroke-width:1" /><line x1="808.102"
y1="-1059.633" x2="807.418" y2="-1053.025"
style="stroke:rgb(96,176,207);stroke-width:1" /><line x1="807.418"
y1="-1053.025" x2="807.874" y2="-1041.862"
style="stroke:rgb(96,176,207);stroke-width:1" /><line x1="807.874"
y1="-1041.862" x2="810.154" y2="-1025.914"
style="stroke:rgb(96,176,207);stroke-width:1" /><line x1="815.171"
y1="-1059.860" x2="812.434" y2="-1050.975"
style="stroke:rgb(96,176,207);stroke-width:1" /><line x1="812.434"
y1="-1050.975" x2="811.294" y2="-1036.166"
style="stroke:rgb(96,176,207);stroke-width:1" /><line x1="811.294"
y1="-1036.166" x2="810.610" y2="-1023.180"
style="stroke:rgb(96,176,207);stroke-width:1" /><line x1="810.610"
y1="-1023.180" x2="809.698" y2="-1017.939"
style="stroke:rgb(96,176,207);stroke-width:1" /><line x1="809.698"
y1="-1017.939" x2="814.715" y2="-1012.699"
style="stroke:rgb(96,176,207);stroke-width:1" /><line x1="814.715"
y1="-1012.699" x2="818.363" y2="-1016.573"
style="stroke:rgb(96,176,207);stroke-width:1" /><line x1="805.366"
y1="-1060.088" x2="802.401" y2="-1056.671"
style="stroke:rgb(96,176,207);stroke-width:1" /><line x1="802.401"
y1="-1056.671" x2="804.910" y2="-1054.848"
style="stroke:rgb(96,176,207);stroke-width:1" /><line x1="804.910"
y1="-1054.848" x2="801.717" y2="-1052.570"
style="stroke:rgb(96,176,207);stroke-width:1" /><line x1="801.717"
y1="-1052.570" x2="804.225" y2="-1045.507"
style="stroke:rgb(96,176,207);stroke-width:1" /><line x1="804.225"
y1="-1045.507" x2="807.646" y2="-1032.976"
style="stroke:rgb(96,176,207);stroke-width:1" /><line x1="807.646"
y1="-1032.976" x2="809.698" y2="-1023.180"
style="stroke:rgb(96,176,207);stroke-width:1" /><line x1="809.698"
y1="-1023.180" x2="810.154" y2="-1020.901"
style="stroke:rgb(96,176,207);stroke-width:1" /><line x1="811.294"
y1="-1063.506" x2="806.278" y2="-1060.544"
style="stroke:rgb(96,176,207);stroke-width:1" /><line x1="806.278"
y1="-1060.544" x2="801.489" y2="-1058.493"
style="stroke:rgb(96,176,207);stroke-width:1" /><line x1="801.489"
y1="-1058.493" x2="798.981" y2="-1056.671"
style="stroke:rgb(96,176,207);stroke-width:1" /><line x1="798.981"
y1="-1056.671" x2="796.929" y2="-1053.709"
style="stroke:rgb(96,176,207);stroke-width:1" /><line x1="796.929"
y1="-1053.709" x2="795.104" y2="-1048.013"
style="stroke:rgb(96,176,207);stroke-width:1" /><line x1="795.104"
y1="-1048.013" x2="796.245" y2="-1037.077"
style="stroke:rgb(96,176,207);stroke-width:1" /><line x1="796.245"
y1="-1037.077" x2="795.560" y2="-1029.103"
style="stroke:rgb(96,176,207);stroke-width:1" /><line x1="795.560"
y1="-1029.103" x2="795.788" y2="-1026.597"
style="stroke:rgb(96,176,207);stroke-width:1" /><line x1="795.788"
y1="-1026.597" x2="799.665" y2="-1004.497"
style="stroke:rgb(96,176,207);stroke-width:1" /><line x1="799.665"
y1="-1004.497" x2="800.577" y2="-1004.042"
style="stroke:rgb(96,176,207);stroke-width:1" /><line x1="800.577"
y1="-1004.042" x2="801.033" y2="-1000.169"
style="stroke:rgb(96,176,207);stroke-width:1" /><line x1="801.033"
y1="-1000.169" x2="801.717" y2="-1000.169"
style="stroke:rgb(96,176,207);stroke-width:1" /><line x1="801.717"
y1="-1000.169" x2="802.401" y2="-1000.169"
style="stroke:rgb(96,176,207);stroke-width:1" /><line x1="827.940"
y1="-1063.278" x2="832.045" y2="-1061.000"
style="stroke:rgb(96,176,207);stroke-width:1" /><line x1="832.045"
y1="-1061.000" x2="837.973" y2="-1058.949"
style="stroke:rgb(96,176,207);stroke-width:1" /><line x1="837.973"
y1="-1058.949" x2="842.762" y2="-1057.354"
style="stroke:rgb(96,176,207);stroke-width:1" /><line x1="842.762"
y1="-1057.354" x2="845.726" y2="-1052.798"
style="stroke:rgb(96,176,207);stroke-width:1" /><line x1="845.726"
y1="-1052.798" x2="847.094" y2="-1042.317"
style="stroke:rgb(96,176,207);stroke-width:1" /><line x1="847.094"
y1="-1042.317" x2="846.638" y2="-1030.242"
style="stroke:rgb(96,176,207);stroke-width:1" /><line x1="846.638"
y1="-1030.242" x2="843.674" y2="-1025.458"
style="stroke:rgb(96,176,207);stroke-width:1" /><line x1="843.674"
y1="-1025.458" x2="839.797" y2="-1022.040"
style="stroke:rgb(96,176,207);stroke-width:1" /><line x1="839.797"
y1="-1022.040" x2="836.833" y2="-1019.762"
style="stroke:rgb(96,176,207);stroke-width:1" /><line x1="836.833"
y1="-1019.762" x2="830.904" y2="-1019.762"
style="stroke:rgb(96,176,207);stroke-width:1" /><line x1="830.904"
y1="-1019.762" x2="827.484" y2="-1019.990"
style="stroke:rgb(96,176,207);stroke-width:1" /><line x1="827.484"
y1="-1019.990" x2="824.976" y2="-1021.357"
style="stroke:rgb(96,176,207);stroke-width:1" /><line x1="801.875"
y1="-999.829" x2="800.447" y2="-996.586"
style="stroke:rgb(96,176,207);stroke-width:1" /><line x1="800.447"
y1="-996.586" x2="799.668" y2="-993.085"
style="stroke:rgb(96,176,207);stroke-width:1" /><line x1="802.857"
y1="-991.511" x2="801.945" y2="-1000.397"
style="stroke:rgb(96,176,207);stroke-width:1" /><line x1="801.945"
y1="-1000.397" x2="801.945" y2="-1007.459"
style="stroke:rgb(96,176,207);stroke-width:1" /><line x1="801.945"
y1="-1007.459" x2="801.261" y2="-1014.294"
style="stroke:rgb(96,176,207);stroke-width:1" /><line x1="801.261"
y1="-1014.294" x2="801.261" y2="-1019.990"
style="stroke:rgb(96,176,207);stroke-width:1" /><line x1="801.261"
y1="-1019.990" x2="801.261" y2="-1026.141"
style="stroke:rgb(96,176,207);stroke-width:1" /><line x1="801.261"
y1="-1026.141" x2="801.717" y2="-1036.622"
style="stroke:rgb(96,176,207);stroke-width:1" /><line x1="801.717"
y1="-1036.622" x2="799.437" y2="-1043.457"
style="stroke:rgb(96,176,207);stroke-width:1" /><line x1="811.294"
y1="-1016.117" x2="810.154" y2="-1011.332"
style="stroke:rgb(96,176,207);stroke-width:1" /><line x1="810.154"
y1="-1011.332" x2="809.242" y2="-1007.915"
style="stroke:rgb(96,176,207);stroke-width:1" /><line x1="809.242"
y1="-1007.915" x2="809.242" y2="-1001.536"
style="stroke:rgb(96,176,207);stroke-width:1" /><line x1="809.242"
y1="-1001.536" x2="806.962" y2="-997.207"
style="stroke:rgb(96,176,207);stroke-width:1" /><line x1="806.962"
y1="-997.207" x2="804.453" y2="-994.473"
style="stroke:rgb(96,176,207);stroke-width:1" /><line x1="804.453"
y1="-994.473" x2="802.629" y2="-991.055"
style="stroke:rgb(96,176,207);stroke-width:1" /><line x1="802.629"
y1="-991.055" x2="802.173" y2="-988.094"
style="stroke:rgb(96,176,207);stroke-width:1" /><line x1="829.080"
y1="-990.600" x2="823.608" y2="-996.979"
style="stroke:rgb(96,176,207);stroke-width:1" /><line x1="823.608"
y1="-996.979" x2="819.275" y2="-1003.586"
style="stroke:rgb(96,176,207);stroke-width:1" /><line x1="819.275"
y1="-1003.586" x2="819.047" y2="-1009.738"
style="stroke:rgb(96,176,207);stroke-width:1" /><line x1="819.047"
y1="-1009.738" x2="819.503" y2="-1016.345"
style="stroke:rgb(96,176,207);stroke-width:1" /><line x1="840.026"
y1="-1021.585" x2="839.797" y2="-1018.623"
style="stroke:rgb(96,176,207);stroke-width:1" /><line x1="839.797"
y1="-1018.623" x2="839.341" y2="-1010.649"
style="stroke:rgb(96,176,207);stroke-width:1" /></g></svg>
