<?xml version="1.0" encoding="utf-8"?><svg><g
transform="translate(0,1200)"><rect x="0" y="-1199" width="1599"
height="1199" style="fill:rgb(0,0,0)" /><line x1=" 0.000" y1="-0.000"
x2="1600.000" y2="-0.000" style="stroke:rgb(99,99,99);stroke-width:1" /><line
x1="1600.000" y1="-0.000" x2="1600.000" y2="-1200.000"
style="stroke:rgb(99,99,99);stroke-width:1" /><line x1="1600.000"
y1="-1200.000" x2=" 0.000" y2="-1200.000"
style="stroke:rgb(99,99,99);stroke-width:1" /><line x1=" 0.000"
y1="-1200.000" x2=" 0.000" y2="-0.000"
style="stroke:rgb(99,99,99);stroke-width:1" /><line x1="146.877"
y1="-134.245" x2="146.877" y2="-1100.245"
style="stroke:rgb(0,0,255);stroke-width:3" /><line x1="146.877"
y1="-1100.245" x2="1462.877" y2="-1100.245"
style="stroke:rgb(0,0,255);stroke-width:3" /><line x1="1462.877"
y1="-134.245" x2="1462.877" y2="-1100.245"
style="stroke:rgb(0,0,255);stroke-width:3" /><line x1="146.877"
y1="-134.245" x2="1462.877" y2="-134.245"
style="stroke:rgb(0,0,255);stroke-width:3" /><arc cx="401.268"
cy="-628.457" r="86.578" ang1=" 1.637" ang2=" 4.647"
stroke="rgb(144,152,0)" stroke-width="1" /><line x1="470.137"
y1="-628.358" x2="499.398" y2="-628.358"
style="stroke:rgb(144,152,0);stroke-width:1" /><line x1="527.864"
y1="-628.284" x2="587.972" y2="-628.284"
style="stroke:rgb(47,47,47);stroke-width:10" /><line x1="541.436"
y1="-585.081" x2="587.644" y2="-614.470"
style="stroke:rgb(47,47,47);stroke-width:10" /><line x1="604.226"
y1="-628.401" x2="658.778" y2="-628.401"
style="stroke:rgb(144,152,0);stroke-width:1" /><circle cx="849.835"
cy="-544.810" r="20.660" stroke="rgb(128,128,128)" stroke-width="1"
fill="rgb(0,0,0)" /><circle cx="896.281" cy="-544.810" r="20.660"
stroke="rgb(128,128,128)" stroke-width="1" fill="rgb(0,0,0)" /><line
x1="846.039" y1="-572.658" x2="846.039" y2="-590.445"
style="stroke:rgb(128,128,128);stroke-width:1" /><line x1="851.710"
y1="-569.744" x2="851.710" y2="-587.532"
style="stroke:rgb(128,128,128);stroke-width:1" /><line x1="840.368"
y1="-583.085" x2="859.986" y2="-574.651"
style="stroke:rgb(128,128,128);stroke-width:1" /><line x1="891.641"
y1="-571.431" x2="891.641" y2="-589.219"
style="stroke:rgb(128,128,128);stroke-width:1" /><line x1="897.312"
y1="-568.518" x2="897.312" y2="-586.305"
style="stroke:rgb(128,128,128);stroke-width:1" /><line x1="885.970"
y1="-581.858" x2="905.588" y2="-573.425"
style="stroke:rgb(128,128,128);stroke-width:1" /><line x1="811.402"
y1="-547.063" x2="938.318" y2="-547.063"
style="stroke:rgb(128,128,128);stroke-width:1" /><circle cx="846.464"
cy="-689.827" r="20.660" stroke="rgb(128,128,128)" stroke-width="1"
fill="rgb(0,0,0)" /><circle cx="892.910" cy="-689.827" r="20.660"
stroke="rgb(128,128,128)" stroke-width="1" fill="rgb(0,0,0)" /><line
x1="842.668" y1="-717.675" x2="842.668" y2="-735.462"
style="stroke:rgb(128,128,128);stroke-width:1" /><line x1="848.339"
y1="-714.762" x2="848.339" y2="-732.549"
style="stroke:rgb(128,128,128);stroke-width:1" /><line x1="836.997"
y1="-728.102" x2="856.615" y2="-719.668"
style="stroke:rgb(128,128,128);stroke-width:1" /><line x1="888.270"
y1="-716.449" x2="888.270" y2="-734.236"
style="stroke:rgb(128,128,128);stroke-width:1" /><line x1="893.941"
y1="-713.535" x2="893.941" y2="-731.323"
style="stroke:rgb(128,128,128);stroke-width:1" /><line x1="882.599"
y1="-726.876" x2="902.217" y2="-718.442"
style="stroke:rgb(128,128,128);stroke-width:1" /><line x1="808.031"
y1="-692.080" x2="934.947" y2="-692.080"
style="stroke:rgb(128,128,128);stroke-width:1" /><line x1="294.987"
y1="-240.318" x2="294.960" y2="-1017.927"
style="stroke:rgb(144,152,0);stroke-width:1" /><arc cx="714.026"
cy="-629.329" r="86.578" ang1=" 4.778" ang2=" 1.505"
stroke="rgb(144,152,0)" stroke-width="1" /><line x1="973.954"
y1="-625.112" x2="973.954" y2="-501.175"
style="stroke:rgb(144,152,0);stroke-width:1" /><line x1="973.954"
y1="-501.175" x2="906.458" y2="-501.175"
style="stroke:rgb(144,152,0);stroke-width:1" /><line x1="906.458"
y1="-501.175" x2="906.458" y2="-394.207"
style="stroke:rgb(144,152,0);stroke-width:1" /><line x1="906.458"
y1="-394.207" x2="934.495" y2="-394.207"
style="stroke:rgb(144,152,0);stroke-width:1" /><line x1="934.495"
y1="-380.896" x2="934.495" y2="-407.461"
style="stroke:rgb(144,152,0);stroke-width:1" /><line x1="940.840"
y1="-380.896" x2="940.840" y2="-407.461"
style="stroke:rgb(144,152,0);stroke-width:1" /><circle cx="1003.518"
cy="-334.940" r="21.009" stroke="rgb(47,47,47)" stroke-width="3"
fill="rgb(0,0,0)" /><circle cx="1003.455" cy="-394.348" r="21.009"
stroke="rgb(47,47,47)" stroke-width="3" fill="rgb(0,0,0)" /><circle
cx="1003.455" cy="-451.013" r="21.009" stroke="rgb(47,47,47)"
stroke-width="3" fill="rgb(0,0,0)" /><line x1="982.446" y1="-394.348"
x2="940.840" y2="-394.348" style="stroke:rgb(144,152,0);stroke-width:1" /><line
x1="1024.464" y1="-394.348" x2="1039.314" y2="-394.348"
style="stroke:rgb(144,152,0);stroke-width:1" /><line x1="1039.389"
y1="-379.368" x2="1039.389" y2="-409.005"
style="stroke:rgb(144,152,0);stroke-width:1" /><line x1="1042.743"
y1="-383.871" x2="1042.743" y2="-403.158"
style="stroke:rgb(144,152,0);stroke-width:1" /><line x1="1046.461"
y1="-389.244" x2="1046.461" y2="-397.785"
style="stroke:rgb(144,152,0);stroke-width:1" /><line x1="973.954"
y1="-625.112" x2="973.954" y2="-752.757"
style="stroke:rgb(144,152,0);stroke-width:1" /><line x1="973.954"
y1="-752.757" x2="905.641" y2="-752.757"
style="stroke:rgb(144,152,0);stroke-width:1" /><line x1="905.641"
y1="-752.757" x2="905.641" y2="-920.955"
style="stroke:rgb(144,152,0);stroke-width:1" /><line x1="905.641"
y1="-920.955" x2="942.293" y2="-920.955"
style="stroke:rgb(144,152,0);stroke-width:1" /><line x1="950.299"
y1="-845.592" x2="1012.040" y2="-845.592"
style="stroke:rgb(255,0,0);stroke-width:3" /><line x1="969.338"
y1="-803.508" x2="1011.712" y2="-830.462"
style="stroke:rgb(0,255,0);stroke-width:3" /><line x1="934.954"
y1="-827.346" x2="934.954" y2="-858.793"
style="stroke:rgb(144,152,0);stroke-width:1" /><line x1="934.954"
y1="-842.122" x2="905.641" y2="-842.122"
style="stroke:rgb(144,152,0);stroke-width:1" /><line x1="1024.464"
y1="-841.460" x2="1039.314" y2="-841.460"
style="stroke:rgb(144,152,0);stroke-width:1" /><line x1="1039.389"
y1="-826.479" x2="1039.389" y2="-856.116"
style="stroke:rgb(144,152,0);stroke-width:1" /><line x1="1042.743"
y1="-830.983" x2="1042.743" y2="-850.270"
style="stroke:rgb(144,152,0);stroke-width:1" /><line x1="1046.461"
y1="-836.356" x2="1046.461" y2="-844.897"
style="stroke:rgb(144,152,0);stroke-width:1" /><line x1="947.687"
y1="-911.433" x2="1010.828" y2="-911.433"
style="stroke:rgb(144,152,0);stroke-width:2" /><line x1="1010.828"
y1="-911.433" x2="1010.828" y2="-930.562"
style="stroke:rgb(144,152,0);stroke-width:2" /><line x1="1010.828"
y1="-930.562" x2="947.687" y2="-930.562"
style="stroke:rgb(144,152,0);stroke-width:2" /><line x1="947.687"
y1="-930.562" x2="947.687" y2="-911.433"
style="stroke:rgb(144,152,0);stroke-width:2" /><line x1="942.293"
y1="-920.955" x2="957.131" y2="-920.955"
style="stroke:rgb(144,152,0);stroke-width:2" /><line x1="957.131"
y1="-914.606" x2="957.131" y2="-927.305"
style="stroke:rgb(144,152,0);stroke-width:2" /><line x1="957.131"
y1="-927.305" x2="992.844" y2="-920.955"
style="stroke:rgb(144,152,0);stroke-width:2" /><line x1="957.131"
y1="-914.606" x2="992.844" y2="-920.955"
style="stroke:rgb(144,152,0);stroke-width:2" /><line x1="1024.576"
y1="-921.116" x2="1039.426" y2="-921.116"
style="stroke:rgb(144,152,0);stroke-width:1" /><line x1="1039.500"
y1="-906.136" x2="1039.500" y2="-935.773"
style="stroke:rgb(144,152,0);stroke-width:1" /><line x1="1042.854"
y1="-910.639" x2="1042.854" y2="-929.927"
style="stroke:rgb(144,152,0);stroke-width:1" /><line x1="1046.572"
y1="-916.012" x2="1046.572" y2="-924.554"
style="stroke:rgb(144,152,0);stroke-width:1" /><line x1="800.599"
y1="-628.401" x2="1085.672" y2="-628.401"
style="stroke:rgb(144,152,0);stroke-width:1" /><circle cx="1234.583"
cy="-335.677" r="21.009" stroke="rgb(47,47,47)" stroke-width="3"
fill="rgb(0,0,0)" /><circle cx="1234.520" cy="-395.085" r="21.009"
stroke="rgb(47,47,47)" stroke-width="3" fill="rgb(0,0,0)" /><circle
cx="1234.520" cy="-451.750" r="21.009" stroke="rgb(47,47,47)"
stroke-width="3" fill="rgb(0,0,0)" /><circle cx="1137.686" cy="-578.593"
r="21.009" stroke="rgb(47,47,47)" stroke-width="3" fill="rgb(0,0,0)" /><line
x1="1094.575" y1="-261.289" x2="1094.575" y2="-619.250"
style="stroke:rgb(128,128,128);stroke-width:1" /><line x1="1094.575"
y1="-619.250" x2="1339.165" y2="-619.250"
style="stroke:rgb(128,128,128);stroke-width:1" /><line x1="1339.165"
y1="-619.250" x2="1339.165" y2="-261.289"
style="stroke:rgb(128,128,128);stroke-width:1" /><line x1="1339.165"
y1="-261.289" x2="1094.575" y2="-261.289"
style="stroke:rgb(128,128,128);stroke-width:1" /><circle cx="1234.583"
cy="-768.358" r="21.009" stroke="rgb(47,47,47)" stroke-width="3"
fill="rgb(0,0,0)" /><circle cx="1234.520" cy="-886.900" r="21.009"
stroke="rgb(255,0,0)" stroke-width="3" fill="rgb(0,0,0)" /><line
x1="1221.018" y1="-871.326" x2="1248.023" y2="-902.473"
style="stroke:rgb(255,0,0);stroke-width:3" /><line x1="1234.520"
y1="-886.900" x2="1221.955" y2="-903.238"
style="stroke:rgb(255,0,0);stroke-width:3" /><line x1="1234.520"
y1="-886.900" x2="1246.713" y2="-870.281"
style="stroke:rgb(255,0,0);stroke-width:3" /><line x1="1094.575"
y1="-653.148" x2="1094.575" y2="-1011.109"
style="stroke:rgb(128,128,128);stroke-width:1" /><line x1="1094.575"
y1="-1011.109" x2="1339.165" y2="-1011.109"
style="stroke:rgb(128,128,128);stroke-width:1" /><line x1="1339.165"
y1="-1011.109" x2="1339.165" y2="-653.148"
style="stroke:rgb(128,128,128);stroke-width:1" /><line x1="1339.165"
y1="-653.148" x2="1094.575" y2="-653.148"
style="stroke:rgb(128,128,128);stroke-width:1" /><line x1="599.793"
y1="-796.017" x2="636.105" y2="-821.914"
style="stroke:rgb(128,128,128);stroke-width:1" /><line x1="601.655"
y1="-811.656" x2="633.498" y2="-833.640"
style="stroke:rgb(128,128,128);stroke-width:1" /><line x1="636.200"
y1="-849.281" x2="599.406" y2="-824.074"
style="stroke:rgb(128,128,128);stroke-width:1" /><line x1="659.328"
y1="-796.017" x2="695.640" y2="-821.914"
style="stroke:rgb(128,128,128);stroke-width:1" /><line x1="661.190"
y1="-811.656" x2="693.033" y2="-833.640"
style="stroke:rgb(128,128,128);stroke-width:1" /><line x1="695.735"
y1="-849.281" x2="658.941" y2="-824.074"
style="stroke:rgb(128,128,128);stroke-width:1" /><arc cx="1139.286"
cy="-767.345" r="14.464" ang1=" 1.682" ang2=" 4.601" stroke="rgb(79,0,0)"
stroke-width="0" /><line x1="1137.685" y1="-752.970" x2="1151.510"
y2="-752.970" style="stroke:rgb(79,0,0);stroke-width:0" /><line
x1="1137.685" y1="-781.721" x2="1151.510" y2="-781.721"
style="stroke:rgb(79,0,0);stroke-width:0" /><line x1="1151.510"
y1="-747.294" x2="1151.510" y2="-787.426"
style="stroke:rgb(79,0,0);stroke-width:0" /><line x1="1151.510"
y1="-747.294" x2="1178.173" y2="-747.294"
style="stroke:rgb(79,0,0);stroke-width:0" /><line x1="1178.173"
y1="-747.294" x2="1178.173" y2="-787.426"
style="stroke:rgb(79,0,0);stroke-width:0" /><line x1="1178.173"
y1="-787.426" x2="1151.510" y2="-787.426"
style="stroke:rgb(79,0,0);stroke-width:0" /><arc cx="1139.003"
cy="-858.899" r="14.464" ang1=" 1.682" ang2=" 4.601"
stroke="rgb(15,72,0)" stroke-width="1" /><line x1="1137.402"
y1="-873.422" x2="1151.227" y2="-873.422"
style="stroke:rgb(15,72,0);stroke-width:1" /><line x1="1151.227"
y1="-867.746" x2="1151.227" y2="-907.878"
style="stroke:rgb(15,72,0);stroke-width:1" /><line x1="1151.227"
y1="-867.746" x2="1177.890" y2="-867.746"
style="stroke:rgb(15,72,0);stroke-width:1" /><line x1="1177.890"
y1="-867.746" x2="1177.890" y2="-907.878"
style="stroke:rgb(15,72,0);stroke-width:1" /><line x1="1177.890"
y1="-907.878" x2="1151.227" y2="-907.878"
style="stroke:rgb(15,72,0);stroke-width:1" /><line x1="665.881"
y1="-907.494" x2="665.881" y2="-945.780"
style="stroke:rgb(255,0,0);stroke-width:3" /><line x1="665.881"
y1="-945.780" x2="689.692" y2="-945.780"
style="stroke:rgb(255,0,0);stroke-width:3" /><line x1="689.692"
y1="-945.780" x2="689.692" y2="-907.494"
style="stroke:rgb(255,0,0);stroke-width:3" /><line x1="689.692"
y1="-907.494" x2="665.881" y2="-907.494"
style="stroke:rgb(255,0,0);stroke-width:3" /><line x1="606.346"
y1="-907.494" x2="606.346" y2="-945.780"
style="stroke:rgb(47,47,47);stroke-width:3" /><line x1="606.346"
y1="-945.780" x2="630.157" y2="-945.780"
style="stroke:rgb(47,47,47);stroke-width:3" /><line x1="630.157"
y1="-945.780" x2="630.157" y2="-907.494"
style="stroke:rgb(47,47,47);stroke-width:3" /><line x1="630.157"
y1="-907.494" x2="606.346" y2="-907.494"
style="stroke:rgb(47,47,47);stroke-width:3" /><line x1="1176.402"
y1="-557.230" x2="1176.402" y2="-601.324"
style="stroke:rgb(128,128,128);stroke-width:1" /><line x1="1176.402"
y1="-601.324" x2="1211.660" y2="-601.324"
style="stroke:rgb(128,128,128);stroke-width:1" /><line x1="1211.660"
y1="-601.324" x2="1211.660" y2="-557.230"
style="stroke:rgb(128,128,128);stroke-width:1" /><line x1="1211.660"
y1="-557.230" x2="1176.402" y2="-557.230"
style="stroke:rgb(128,128,128);stroke-width:1" /><line x1="527.864"
y1="-628.284" x2="587.972" y2="-628.284"
style="stroke:rgb(47,47,47);stroke-width:10" /><line x1="541.436"
y1="-585.081" x2="587.644" y2="-614.470"
style="stroke:rgb(47,47,47);stroke-width:10" /><line x1="950.299"
y1="-845.592" x2="1012.040" y2="-845.592"
style="stroke:rgb(47,47,47);stroke-width:10" /><line x1="969.338"
y1="-803.508" x2="1011.712" y2="-830.462"
style="stroke:rgb(0,255,0);stroke-width:10" /><line x1="487.260"
y1="-616.280" x2="511.537" y2="-640.437"
style="stroke:rgb(144,152,0);stroke-width:1" /><line x1="487.260"
y1="-640.437" x2="511.537" y2="-616.280"
style="stroke:rgb(144,152,0);stroke-width:1" /><line x1="646.639"
y1="-640.480" x2="670.916" y2="-616.323"
style="stroke:rgb(144,152,0);stroke-width:1" /><line x1="646.639"
y1="-616.323" x2="670.916" y2="-640.480"
style="stroke:rgb(144,152,0);stroke-width:1" /><line x1="402.892"
y1="-615.089" x2="402.892" y2="-581.204"
style="stroke:rgb(47,47,47);stroke-width:10" /><line x1="369.398"
y1="-628.401" x2="389.580" y2="-628.401"
style="stroke:rgb(47,47,47);stroke-width:10" /><line x1="355.694"
y1="-628.401" x2="389.580" y2="-628.401"
style="stroke:rgb(47,47,47);stroke-width:10" /><line x1="416.204"
y1="-628.401" x2="439.298" y2="-628.401"
style="stroke:rgb(47,47,47);stroke-width:10" /><line x1="416.204"
y1="-628.401" x2="450.089" y2="-628.401"
style="stroke:rgb(47,47,47);stroke-width:10" /><line x1="402.892"
y1="-641.713" x2="402.892" y2="-675.599"
style="stroke:rgb(47,47,47);stroke-width:10" /><line x1="314.691"
y1="-628.401" x2="294.973" y2="-628.401"
style="stroke:rgb(144,152,0);stroke-width:1" /><text id="101" x="178.109"
y="-165.471" transform="rotate( 1.571,0,0)" font-family="SimHei"
font-size="18" fill="rgb(0,255,0)"> ORT400</text><line x1="1234.583"
y1="-768.358" x2="1246.775" y2="-751.739"
style="stroke:rgb(47,47,47);stroke-width:3" /><line x1="1234.583"
y1="-768.358" x2="1222.017" y2="-784.697"
style="stroke:rgb(47,47,47);stroke-width:3" /><line x1="1221.080"
y1="-752.785" x2="1248.085" y2="-783.932"
style="stroke:rgb(47,47,47);stroke-width:3" /><line x1="1124.183"
y1="-563.020" x2="1151.188" y2="-594.166"
style="stroke:rgb(47,47,47);stroke-width:3" /><line x1="1137.686"
y1="-578.593" x2="1125.120" y2="-594.932"
style="stroke:rgb(47,47,47);stroke-width:3" /><line x1="1137.686"
y1="-578.593" x2="1149.878" y2="-561.974"
style="stroke:rgb(47,47,47);stroke-width:3" /><line x1="1221.018"
y1="-436.177" x2="1248.023" y2="-467.324"
style="stroke:rgb(47,47,47);stroke-width:3" /><line x1="1234.520"
y1="-451.750" x2="1221.955" y2="-468.089"
style="stroke:rgb(47,47,47);stroke-width:3" /><line x1="1234.520"
y1="-451.750" x2="1246.713" y2="-435.131"
style="stroke:rgb(47,47,47);stroke-width:3" /><line x1="1221.018"
y1="-379.512" x2="1248.023" y2="-410.658"
style="stroke:rgb(47,47,47);stroke-width:3" /><line x1="1234.520"
y1="-395.085" x2="1221.955" y2="-411.424"
style="stroke:rgb(47,47,47);stroke-width:3" /><line x1="1234.520"
y1="-395.085" x2="1246.713" y2="-378.466"
style="stroke:rgb(47,47,47);stroke-width:3" /><line x1="1221.080"
y1="-320.104" x2="1248.085" y2="-351.250"
style="stroke:rgb(47,47,47);stroke-width:3" /><line x1="1234.583"
y1="-335.677" x2="1222.017" y2="-352.016"
style="stroke:rgb(47,47,47);stroke-width:3" /><line x1="1234.583"
y1="-335.677" x2="1246.775" y2="-319.058"
style="stroke:rgb(47,47,47);stroke-width:3" /><line x1="989.953"
y1="-435.440" x2="1016.958" y2="-466.586"
style="stroke:rgb(47,47,47);stroke-width:3" /><line x1="1003.455"
y1="-451.013" x2="990.890" y2="-467.352"
style="stroke:rgb(47,47,47);stroke-width:3" /><line x1="1003.455"
y1="-451.013" x2="1015.648" y2="-434.394"
style="stroke:rgb(47,47,47);stroke-width:3" /><line x1="989.953"
y1="-378.774" x2="1016.958" y2="-409.921"
style="stroke:rgb(47,47,47);stroke-width:3" /><line x1="1003.455"
y1="-394.348" x2="990.890" y2="-410.687"
style="stroke:rgb(47,47,47);stroke-width:3" /><line x1="1003.455"
y1="-394.348" x2="1015.648" y2="-377.729"
style="stroke:rgb(47,47,47);stroke-width:3" /><line x1="990.015"
y1="-319.367" x2="1017.020" y2="-350.513"
style="stroke:rgb(47,47,47);stroke-width:3" /><line x1="1003.518"
y1="-334.940" x2="990.952" y2="-351.279"
style="stroke:rgb(47,47,47);stroke-width:3" /><line x1="1003.518"
y1="-334.940" x2="1015.710" y2="-318.321"
style="stroke:rgb(47,47,47);stroke-width:3" /><line x1="732.078"
y1="-615.089" x2="732.078" y2="-581.204"
style="stroke:rgb(47,47,47);stroke-width:10" /><line x1="684.880"
y1="-628.401" x2="718.766" y2="-628.401"
style="stroke:rgb(47,47,47);stroke-width:10" /><line x1="698.584"
y1="-628.401" x2="718.766" y2="-628.401"
style="stroke:rgb(47,47,47);stroke-width:10" /><line x1="732.078"
y1="-641.713" x2="732.078" y2="-675.599"
style="stroke:rgb(47,47,47);stroke-width:10" /><line x1="745.390"
y1="-628.401" x2="779.275" y2="-628.401"
style="stroke:rgb(47,47,47);stroke-width:10" /><line x1="745.390"
y1="-628.401" x2="768.484" y2="-628.401"
style="stroke:rgb(47,47,47);stroke-width:10" /><arc cx="617.876"
cy="-856.399" r="19.880" ang1=" 2.828" ang2=" 0.351"
stroke="rgb(128,128,128)" stroke-width="1" /><arc cx="618.247"
cy="-789.246" r="19.880" ang1=" 5.951" ang2=" 3.474"
stroke="rgb(128,128,128)" stroke-width="1" /><arc cx="677.411"
cy="-856.399" r="19.880" ang1=" 2.828" ang2=" 0.351"
stroke="rgb(128,128,128)" stroke-width="1" /><arc cx="677.782"
cy="-789.246" r="19.880" ang1=" 5.951" ang2=" 3.474"
stroke="rgb(128,128,128)" stroke-width="1" /><line x1="790.565"
y1="-1013.653" x2="659.018" y2="-970.759"
style="stroke:rgb(99,99,99);stroke-width:1" /><line x1="659.018"
y1="-970.759" x2="688.036" y2="-997.843"
style="stroke:rgb(99,99,99);stroke-width:1" /><line x1="659.018"
y1="-970.759" x2="703.158" y2="-967.368"
style="stroke:rgb(99,99,99);stroke-width:1" /><line x1="807.695"
y1="-953.945" x2="805.296" y2="-991.239"
style="stroke:rgb(96,176,207);stroke-width:1" /><line x1="834.357"
y1="-985.379" x2="834.357" y2="-954.478"
style="stroke:rgb(96,176,207);stroke-width:1" /><line x1="819.426"
y1="-980.584" x2="815.161" y2="-988.575"
style="stroke:rgb(96,176,207);stroke-width:1" /><line x1="799.187"
y1="-990.154" x2="798.278" y2="-983.410"
style="stroke:rgb(96,176,207);stroke-width:1" /><line x1="801.691"
y1="-985.163" x2="802.831" y2="-979.923"
style="stroke:rgb(96,176,207);stroke-width:1" /><line x1="835.439"
y1="-984.707" x2="828.598" y2="-987.669"
style="stroke:rgb(96,176,207);stroke-width:1" /><line x1="838.860"
y1="-1007.718" x2="844.332" y2="-977.872"
style="stroke:rgb(96,176,207);stroke-width:1" /><line x1="827.692"
y1="-913.188" x2="830.891" y2="-914.253"
style="stroke:rgb(96,176,207);stroke-width:1" /><line x1="830.891"
y1="-914.253" x2="833.557" y2="-912.655"
style="stroke:rgb(96,176,207);stroke-width:1" /><line x1="810.628"
y1="-911.589" x2="811.161" y2="-912.921"
style="stroke:rgb(96,176,207);stroke-width:1" /><line x1="811.161"
y1="-912.921" x2="814.894" y2="-910.524"
style="stroke:rgb(96,176,207);stroke-width:1" /><line x1="814.894"
y1="-910.524" x2="815.427" y2="-910.524"
style="stroke:rgb(96,176,207);stroke-width:1" /><line x1="820.493"
y1="-952.879" x2="819.426" y2="-950.215"
style="stroke:rgb(96,176,207);stroke-width:1" /><line x1="819.426"
y1="-950.215" x2="819.960" y2="-949.949"
style="stroke:rgb(96,176,207);stroke-width:1" /><line x1="819.960"
y1="-949.949" x2="817.827" y2="-911.057"
style="stroke:rgb(96,176,207);stroke-width:1" /><line x1="817.827"
y1="-911.057" x2="816.760" y2="-910.790"
style="stroke:rgb(96,176,207);stroke-width:1" /><line x1="816.760"
y1="-910.790" x2="818.893" y2="-906.528"
style="stroke:rgb(96,176,207);stroke-width:1" /><line x1="818.893"
y1="-906.528" x2="818.893" y2="-904.930"
style="stroke:rgb(96,176,207);stroke-width:1" /><line x1="818.893"
y1="-904.930" x2="811.161" y2="-904.397"
style="stroke:rgb(96,176,207);stroke-width:1" /><line x1="811.161"
y1="-904.397" x2="806.096" y2="-904.663"
style="stroke:rgb(96,176,207);stroke-width:1" /><line x1="806.096"
y1="-904.663" x2="802.896" y2="-904.663"
style="stroke:rgb(96,176,207);stroke-width:1" /><line x1="802.896"
y1="-904.663" x2="802.896" y2="-907.061"
style="stroke:rgb(96,176,207);stroke-width:1" /><line x1="802.896"
y1="-907.061" x2="809.028" y2="-911.057"
style="stroke:rgb(96,176,207);stroke-width:1" /><line x1="809.028"
y1="-911.057" x2="807.695" y2="-950.215"
style="stroke:rgb(96,176,207);stroke-width:1" /><line x1="807.695"
y1="-950.215" x2="808.229" y2="-952.613"
style="stroke:rgb(96,176,207);stroke-width:1" /><line x1="808.229"
y1="-952.613" x2="807.695" y2="-953.945"
style="stroke:rgb(96,176,207);stroke-width:1" /><line x1="834.357"
y1="-954.478" x2="835.157" y2="-951.547"
style="stroke:rgb(96,176,207);stroke-width:1" /><line x1="835.157"
y1="-951.547" x2="834.624" y2="-912.122"
style="stroke:rgb(96,176,207);stroke-width:1" /><line x1="834.624"
y1="-912.122" x2="831.957" y2="-911.323"
style="stroke:rgb(96,176,207);stroke-width:1" /><line x1="831.957"
y1="-911.323" x2="833.557" y2="-908.126"
style="stroke:rgb(96,176,207);stroke-width:1" /><line x1="833.557"
y1="-908.126" x2="835.157" y2="-906.528"
style="stroke:rgb(96,176,207);stroke-width:1" /><line x1="835.157"
y1="-906.528" x2="835.157" y2="-904.930"
style="stroke:rgb(96,176,207);stroke-width:1" /><line x1="835.157"
y1="-904.930" x2="831.158" y2="-904.663"
style="stroke:rgb(96,176,207);stroke-width:1" /><line x1="831.158"
y1="-904.663" x2="823.426" y2="-904.397"
style="stroke:rgb(96,176,207);stroke-width:1" /><line x1="823.426"
y1="-904.397" x2="822.359" y2="-906.528"
style="stroke:rgb(96,176,207);stroke-width:1" /><line x1="822.359"
y1="-906.528" x2="823.426" y2="-908.393"
style="stroke:rgb(96,176,207);stroke-width:1" /><line x1="823.426"
y1="-908.393" x2="826.625" y2="-911.323"
style="stroke:rgb(96,176,207);stroke-width:1" /><line x1="826.625"
y1="-911.323" x2="825.559" y2="-912.655"
style="stroke:rgb(96,176,207);stroke-width:1" /><line x1="825.559"
y1="-912.655" x2="821.826" y2="-950.748"
style="stroke:rgb(96,176,207);stroke-width:1" /><line x1="821.826"
y1="-950.748" x2="821.026" y2="-953.412"
style="stroke:rgb(96,176,207);stroke-width:1" /><line x1="821.026"
y1="-953.412" x2="819.426" y2="-980.584"
style="stroke:rgb(96,176,207);stroke-width:1" /><line x1="798.278"
y1="-983.410" x2="799.057" y2="-983.151"
style="stroke:rgb(96,176,207);stroke-width:1" /><line x1="799.057"
y1="-983.151" x2="799.576" y2="-981.724"
style="stroke:rgb(96,176,207);stroke-width:1" /><line x1="799.576"
y1="-981.724" x2="800.485" y2="-981.595"
style="stroke:rgb(96,176,207);stroke-width:1" /><line x1="800.485"
y1="-981.595" x2="800.744" y2="-980.557"
style="stroke:rgb(96,176,207);stroke-width:1" /><line x1="800.744"
y1="-980.557" x2="802.432" y2="-980.039"
style="stroke:rgb(96,176,207);stroke-width:1" /><line x1="802.831"
y1="-979.923" x2="803.516" y2="-976.961"
style="stroke:rgb(96,176,207);stroke-width:1" /><line x1="803.516"
y1="-976.961" x2="806.024" y2="-977.872"
style="stroke:rgb(96,176,207);stroke-width:1" /><line x1="843.420"
y1="-978.556" x2="840.000" y2="-980.834"
style="stroke:rgb(96,176,207);stroke-width:1" /><line x1="840.000"
y1="-980.834" x2="835.439" y2="-984.707"
style="stroke:rgb(96,176,207);stroke-width:1" /><line x1="844.332"
y1="-977.872" x2="841.824" y2="-977.645"
style="stroke:rgb(96,176,207);stroke-width:1" /><line x1="841.824"
y1="-977.645" x2="837.719" y2="-979.695"
style="stroke:rgb(96,176,207);stroke-width:1" /><line x1="837.719"
y1="-979.695" x2="834.527" y2="-980.379"
style="stroke:rgb(96,176,207);stroke-width:1" /><line x1="817.029"
y1="-1074.048" x2="817.497" y2="-1074.515"
style="stroke:rgb(96,176,207);stroke-width:1" /><line x1="817.497"
y1="-1074.515" x2="818.339" y2="-1074.235"
style="stroke:rgb(96,176,207);stroke-width:1" /><line x1="811.603"
y1="-1074.609" x2="812.165" y2="-1074.796"
style="stroke:rgb(96,176,207);stroke-width:1" /><line x1="812.165"
y1="-1074.796" x2="812.726" y2="-1074.142"
style="stroke:rgb(96,176,207);stroke-width:1" /><line x1="809.732"
y1="-1075.731" x2="811.884" y2="-1076.198"
style="stroke:rgb(96,176,207);stroke-width:1" /><line x1="811.884"
y1="-1076.198" x2="814.036" y2="-1075.357"
style="stroke:rgb(96,176,207);stroke-width:1" /><line x1="810.387"
y1="-1074.889" x2="812.539" y2="-1074.983"
style="stroke:rgb(96,176,207);stroke-width:1" /><line x1="812.539"
y1="-1074.983" x2="814.036" y2="-1074.422"
style="stroke:rgb(96,176,207);stroke-width:1" /><line x1="814.036"
y1="-1074.422" x2="813.662" y2="-1073.861"
style="stroke:rgb(96,176,207);stroke-width:1" /><line x1="813.662"
y1="-1073.861" x2="812.632" y2="-1073.955"
style="stroke:rgb(96,176,207);stroke-width:1" /><line x1="812.632"
y1="-1073.955" x2="810.855" y2="-1074.422"
style="stroke:rgb(96,176,207);stroke-width:1" /><line x1="816.094"
y1="-1075.263" x2="817.310" y2="-1076.198"
style="stroke:rgb(96,176,207);stroke-width:1" /><line x1="817.310"
y1="-1076.198" x2="820.210" y2="-1075.917"
style="stroke:rgb(96,176,207);stroke-width:1" /><line x1="820.210"
y1="-1075.917" x2="820.678" y2="-1075.170"
style="stroke:rgb(96,176,207);stroke-width:1" /><line x1="819.836"
y1="-1074.983" x2="818.620" y2="-1075.076"
style="stroke:rgb(96,176,207);stroke-width:1" /><line x1="818.620"
y1="-1075.076" x2="817.029" y2="-1074.889"
style="stroke:rgb(96,176,207);stroke-width:1" /><line x1="817.029"
y1="-1074.889" x2="816.281" y2="-1074.422"
style="stroke:rgb(96,176,207);stroke-width:1" /><line x1="816.281"
y1="-1074.422" x2="816.749" y2="-1073.861"
style="stroke:rgb(96,176,207);stroke-width:1" /><line x1="816.749"
y1="-1073.861" x2="817.965" y2="-1073.768"
style="stroke:rgb(96,176,207);stroke-width:1" /><line x1="817.965"
y1="-1073.768" x2="819.836" y2="-1074.422"
style="stroke:rgb(96,176,207);stroke-width:1" /><line x1="812.445"
y1="-1067.131" x2="814.036" y2="-1067.599"
style="stroke:rgb(96,176,207);stroke-width:1" /><line x1="814.036"
y1="-1067.599" x2="814.878" y2="-1067.505"
style="stroke:rgb(96,176,207);stroke-width:1" /><line x1="814.878"
y1="-1067.505" x2="816.842" y2="-1067.225"
style="stroke:rgb(96,176,207);stroke-width:1" /><line x1="813.100"
y1="-1069.749" x2="813.381" y2="-1069.281"
style="stroke:rgb(96,176,207);stroke-width:1" /><line x1="813.381"
y1="-1069.281" x2="815.439" y2="-1069.375"
style="stroke:rgb(96,176,207);stroke-width:1" /><line x1="815.439"
y1="-1069.375" x2="816.468" y2="-1069.842"
style="stroke:rgb(96,176,207);stroke-width:1" /><line x1="825.823"
y1="-1075.637" x2="826.291" y2="-1076.291"
style="stroke:rgb(96,176,207);stroke-width:1" /><line x1="826.291"
y1="-1076.291" x2="827.133" y2="-1076.572"
style="stroke:rgb(96,176,207);stroke-width:1" /><line x1="827.133"
y1="-1076.572" x2="827.787" y2="-1075.917"
style="stroke:rgb(96,176,207);stroke-width:1" /><line x1="827.787"
y1="-1075.917" x2="828.162" y2="-1074.983"
style="stroke:rgb(96,176,207);stroke-width:1" /><line x1="828.162"
y1="-1074.983" x2="827.881" y2="-1073.207"
style="stroke:rgb(96,176,207);stroke-width:1" /><line x1="827.881"
y1="-1073.207" x2="827.320" y2="-1071.898"
style="stroke:rgb(96,176,207);stroke-width:1" /><line x1="827.320"
y1="-1071.898" x2="826.291" y2="-1070.777"
style="stroke:rgb(96,176,207);stroke-width:1" /><line x1="826.291"
y1="-1070.777" x2="825.636" y2="-1069.935"
style="stroke:rgb(96,176,207);stroke-width:1" /><line x1="825.636"
y1="-1069.935" x2="825.074" y2="-1069.655"
style="stroke:rgb(96,176,207);stroke-width:1" /><line x1="825.074"
y1="-1069.655" x2="824.887" y2="-1070.216"
style="stroke:rgb(96,176,207);stroke-width:1" /><line x1="813.755"
y1="-1066.477" x2="815.439" y2="-1066.384"
style="stroke:rgb(96,176,207);stroke-width:1" /><line x1="812.165"
y1="-1062.271" x2="812.071" y2="-1061.991"
style="stroke:rgb(96,176,207);stroke-width:1" /><line x1="812.071"
y1="-1061.991" x2="814.223" y2="-1061.710"
style="stroke:rgb(96,176,207);stroke-width:1" /><line x1="825.074"
y1="-1062.832" x2="825.449" y2="-1062.271"
style="stroke:rgb(96,176,207);stroke-width:1" /><line x1="825.449"
y1="-1062.271" x2="822.362" y2="-1061.804"
style="stroke:rgb(96,176,207);stroke-width:1" /><line x1="822.362"
y1="-1061.804" x2="818.807" y2="-1061.804"
style="stroke:rgb(96,176,207);stroke-width:1" /><line x1="814.129"
y1="-1060.121" x2="815.532" y2="-1057.037"
style="stroke:rgb(96,176,207);stroke-width:1" /><line x1="815.532"
y1="-1057.037" x2="816.187" y2="-1056.476"
style="stroke:rgb(96,176,207);stroke-width:1" /><line x1="816.187"
y1="-1056.476" x2="817.871" y2="-1057.130"
style="stroke:rgb(96,176,207);stroke-width:1" /><line x1="817.871"
y1="-1057.130" x2="818.994" y2="-1059.841"
style="stroke:rgb(96,176,207);stroke-width:1" /><line x1="812.820"
y1="-1062.645" x2="811.978" y2="-1062.645"
style="stroke:rgb(96,176,207);stroke-width:1" /><line x1="811.978"
y1="-1062.645" x2="811.323" y2="-1062.178"
style="stroke:rgb(96,176,207);stroke-width:1" /><line x1="811.323"
y1="-1062.178" x2="809.920" y2="-1056.289"
style="stroke:rgb(96,176,207);stroke-width:1" /><line x1="809.920"
y1="-1056.289" x2="813.568" y2="-1060.121"
style="stroke:rgb(96,176,207);stroke-width:1" /><line x1="813.568"
y1="-1060.121" x2="815.158" y2="-1061.617"
style="stroke:rgb(96,176,207);stroke-width:1" /><line x1="815.158"
y1="-1061.617" x2="818.339" y2="-1061.523"
style="stroke:rgb(96,176,207);stroke-width:1" /><line x1="818.339"
y1="-1061.523" x2="822.268" y2="-1055.635"
style="stroke:rgb(96,176,207);stroke-width:1" /><line x1="822.268"
y1="-1055.635" x2="825.449" y2="-1057.691"
style="stroke:rgb(96,176,207);stroke-width:1" /><line x1="825.449"
y1="-1057.691" x2="827.320" y2="-1058.906"
style="stroke:rgb(96,176,207);stroke-width:1" /><line x1="827.320"
y1="-1058.906" x2="826.758" y2="-1060.775"
style="stroke:rgb(96,176,207);stroke-width:1" /><line x1="826.758"
y1="-1060.775" x2="826.478" y2="-1062.925"
style="stroke:rgb(96,176,207);stroke-width:1" /><line x1="826.478"
y1="-1062.925" x2="825.542" y2="-1062.832"
style="stroke:rgb(96,176,207);stroke-width:1" /><line x1="826.665"
y1="-1070.964" x2="825.729" y2="-1068.627"
style="stroke:rgb(96,176,207);stroke-width:1" /><line x1="825.729"
y1="-1068.627" x2="825.355" y2="-1064.888"
style="stroke:rgb(96,176,207);stroke-width:1" /><line x1="825.355"
y1="-1064.888" x2="825.168" y2="-1062.832"
style="stroke:rgb(96,176,207);stroke-width:1" /><line x1="810.013"
y1="-1082.834" x2="810.574" y2="-1083.488"
style="stroke:rgb(96,176,207);stroke-width:1" /><line x1="810.574"
y1="-1083.488" x2="814.503" y2="-1083.675"
style="stroke:rgb(96,176,207);stroke-width:1" /><line x1="814.503"
y1="-1083.675" x2="818.900" y2="-1083.582"
style="stroke:rgb(96,176,207);stroke-width:1" /><line x1="818.900"
y1="-1083.582" x2="820.958" y2="-1083.208"
style="stroke:rgb(96,176,207);stroke-width:1" /><line x1="820.958"
y1="-1083.208" x2="823.016" y2="-1082.367"
style="stroke:rgb(96,176,207);stroke-width:1" /><line x1="823.016"
y1="-1082.367" x2="824.045" y2="-1080.311"
style="stroke:rgb(96,176,207);stroke-width:1" /><line x1="824.045"
y1="-1080.311" x2="824.420" y2="-1078.348"
style="stroke:rgb(96,176,207);stroke-width:1" /><line x1="824.420"
y1="-1078.348" x2="825.449" y2="-1077.413"
style="stroke:rgb(96,176,207);stroke-width:1" /><line x1="825.449"
y1="-1077.413" x2="825.449" y2="-1076.572"
style="stroke:rgb(96,176,207);stroke-width:1" /><line x1="825.449"
y1="-1076.572" x2="825.823" y2="-1076.385"
style="stroke:rgb(96,176,207);stroke-width:1" /><line x1="813.755"
y1="-1062.084" x2="813.100" y2="-1063.112"
style="stroke:rgb(96,176,207);stroke-width:1" /><line x1="813.100"
y1="-1063.112" x2="812.165" y2="-1063.299"
style="stroke:rgb(96,176,207);stroke-width:1" /><line x1="812.165"
y1="-1063.299" x2="811.136" y2="-1064.514"
style="stroke:rgb(96,176,207);stroke-width:1" /><line x1="811.136"
y1="-1064.514" x2="809.920" y2="-1066.944"
style="stroke:rgb(96,176,207);stroke-width:1" /><line x1="809.920"
y1="-1066.944" x2="808.891" y2="-1071.337"
style="stroke:rgb(96,176,207);stroke-width:1" /><line x1="808.891"
y1="-1071.337" x2="809.639" y2="-1074.235"
style="stroke:rgb(96,176,207);stroke-width:1" /><line x1="809.639"
y1="-1074.235" x2="809.078" y2="-1075.450"
style="stroke:rgb(96,176,207);stroke-width:1" /><line x1="809.078"
y1="-1075.450" x2="809.078" y2="-1078.254"
style="stroke:rgb(96,176,207);stroke-width:1" /><line x1="809.078"
y1="-1078.254" x2="809.826" y2="-1082.554"
style="stroke:rgb(96,176,207);stroke-width:1" /><line x1="809.826"
y1="-1082.554" x2="809.639" y2="-1084.704"
style="stroke:rgb(96,176,207);stroke-width:1" /><line x1="809.639"
y1="-1084.704" x2="810.949" y2="-1086.012"
style="stroke:rgb(96,176,207);stroke-width:1" /><line x1="810.949"
y1="-1086.012" x2="815.907" y2="-1086.853"
style="stroke:rgb(96,176,207);stroke-width:1" /><line x1="815.907"
y1="-1086.853" x2="823.110" y2="-1086.479"
style="stroke:rgb(96,176,207);stroke-width:1" /><line x1="823.110"
y1="-1086.479" x2="825.916" y2="-1085.732"
style="stroke:rgb(96,176,207);stroke-width:1" /><line x1="825.916"
y1="-1085.732" x2="827.413" y2="-1083.115"
style="stroke:rgb(96,176,207);stroke-width:1" /><line x1="827.413"
y1="-1083.115" x2="828.162" y2="-1080.311"
style="stroke:rgb(96,176,207);stroke-width:1" /><line x1="828.162"
y1="-1080.311" x2="827.787" y2="-1077.974"
style="stroke:rgb(96,176,207);stroke-width:1" /><line x1="827.787"
y1="-1077.974" x2="827.133" y2="-1076.665"
style="stroke:rgb(96,176,207);stroke-width:1" /><line x1="825.178"
y1="-1027.312" x2="828.826" y2="-1027.767"
style="stroke:rgb(96,176,207);stroke-width:1" /><line x1="828.826"
y1="-1027.767" x2="833.615" y2="-1030.046"
style="stroke:rgb(96,176,207);stroke-width:1" /><line x1="833.615"
y1="-1030.046" x2="836.351" y2="-1030.046"
style="stroke:rgb(96,176,207);stroke-width:1" /><line x1="836.351"
y1="-1030.046" x2="834.755" y2="-1030.501"
style="stroke:rgb(96,176,207);stroke-width:1" /><line x1="834.755"
y1="-1030.501" x2="836.579" y2="-1038.475"
style="stroke:rgb(96,176,207);stroke-width:1" /><line x1="836.579"
y1="-1038.475" x2="834.071" y2="-1036.881"
style="stroke:rgb(96,176,207);stroke-width:1" /><line x1="810.128"
y1="-1008.630" x2="813.777" y2="-1007.718"
style="stroke:rgb(96,176,207);stroke-width:1" /><line x1="813.777"
y1="-1007.718" x2="818.337" y2="-1008.402"
style="stroke:rgb(96,176,207);stroke-width:1" /><line x1="825.666"
y1="-1026.078" x2="824.757" y2="-1026.208"
style="stroke:rgb(96,176,207);stroke-width:1" /><line x1="824.757"
y1="-1026.208" x2="823.848" y2="-1028.412"
style="stroke:rgb(96,176,207);stroke-width:1" /><line x1="823.848"
y1="-1028.412" x2="822.550" y2="-1029.839"
style="stroke:rgb(96,176,207);stroke-width:1" /><line x1="822.550"
y1="-1029.839" x2="821.382" y2="-1029.839"
style="stroke:rgb(96,176,207);stroke-width:1" /><line x1="821.382"
y1="-1029.839" x2="819.565" y2="-1030.228"
style="stroke:rgb(96,176,207);stroke-width:1" /><line x1="819.565"
y1="-1030.228" x2="819.046" y2="-1029.320"
style="stroke:rgb(96,176,207);stroke-width:1" /><line x1="819.046"
y1="-1029.320" x2="819.435" y2="-1028.283"
style="stroke:rgb(96,176,207);stroke-width:1" /><line x1="819.435"
y1="-1028.283" x2="820.863" y2="-1027.634"
style="stroke:rgb(96,176,207);stroke-width:1" /><line x1="820.863"
y1="-1027.634" x2="821.772" y2="-1026.467"
style="stroke:rgb(96,176,207);stroke-width:1" /><line x1="821.772"
y1="-1026.467" x2="820.214" y2="-1024.781"
style="stroke:rgb(96,176,207);stroke-width:1" /><line x1="820.214"
y1="-1024.781" x2="816.969" y2="-1022.836"
style="stroke:rgb(96,176,207);stroke-width:1" /><line x1="816.969"
y1="-1022.836" x2="816.709" y2="-1021.409"
style="stroke:rgb(96,176,207);stroke-width:1" /><line x1="816.709"
y1="-1021.409" x2="818.007" y2="-1021.150"
style="stroke:rgb(96,176,207);stroke-width:1" /><line x1="818.007"
y1="-1021.150" x2="816.060" y2="-1019.204"
style="stroke:rgb(96,176,207);stroke-width:1" /><line x1="816.060"
y1="-1019.204" x2="816.190" y2="-1018.426"
style="stroke:rgb(96,176,207);stroke-width:1" /><line x1="816.190"
y1="-1018.426" x2="816.839" y2="-1017.908"
style="stroke:rgb(96,176,207);stroke-width:1" /><line x1="816.839"
y1="-1017.908" x2="816.190" y2="-1016.870"
style="stroke:rgb(96,176,207);stroke-width:1" /><line x1="816.190"
y1="-1016.870" x2="816.969" y2="-1016.092"
style="stroke:rgb(96,176,207);stroke-width:1" /><line x1="816.969"
y1="-1016.092" x2="816.709" y2="-1014.665"
style="stroke:rgb(96,176,207);stroke-width:1" /><line x1="816.709"
y1="-1014.665" x2="817.358" y2="-1013.758"
style="stroke:rgb(96,176,207);stroke-width:1" /><line x1="817.358"
y1="-1013.758" x2="819.046" y2="-1014.276"
style="stroke:rgb(96,176,207);stroke-width:1" /><line x1="819.046"
y1="-1014.276" x2="821.901" y2="-1016.611"
style="stroke:rgb(96,176,207);stroke-width:1" /><line x1="821.901"
y1="-1016.611" x2="823.589" y2="-1019.204"
style="stroke:rgb(96,176,207);stroke-width:1" /><line x1="823.589"
y1="-1019.204" x2="825.666" y2="-1020.631"
style="stroke:rgb(96,176,207);stroke-width:1" /><line x1="825.666"
y1="-1020.631" x2="827.742" y2="-1020.112"
style="stroke:rgb(96,176,207);stroke-width:1" /><line x1="826.318"
y1="-1018.654" x2="828.370" y2="-1019.793"
style="stroke:rgb(96,176,207);stroke-width:1" /><line x1="828.370"
y1="-1019.793" x2="829.282" y2="-1022.983"
style="stroke:rgb(96,176,207);stroke-width:1" /><line x1="829.282"
y1="-1022.983" x2="828.598" y2="-1025.945"
style="stroke:rgb(96,176,207);stroke-width:1" /><line x1="828.598"
y1="-1025.945" x2="826.546" y2="-1027.084"
style="stroke:rgb(96,176,207);stroke-width:1" /><line x1="826.546"
y1="-1027.084" x2="825.178" y2="-1027.312"
style="stroke:rgb(96,176,207);stroke-width:1" /><line x1="817.535"
y1="-1056.179" x2="816.763" y2="-1047.313"
style="stroke:rgb(96,176,207);stroke-width:1" /><line x1="816.763"
y1="-1047.313" x2="817.342" y2="-1035.557"
style="stroke:rgb(96,176,207);stroke-width:1" /><line x1="817.342"
y1="-1035.557" x2="817.535" y2="-1030.353"
style="stroke:rgb(96,176,207);stroke-width:1" /><line x1="817.535"
y1="-1030.353" x2="818.692" y2="-1024.957"
style="stroke:rgb(96,176,207);stroke-width:1" /><line x1="830.879"
y1="-1057.385" x2="830.195" y2="-1053.512"
style="stroke:rgb(96,176,207);stroke-width:1" /><line x1="830.195"
y1="-1053.512" x2="827.230" y2="-1051.918"
style="stroke:rgb(96,176,207);stroke-width:1" /><line x1="827.230"
y1="-1051.918" x2="829.967" y2="-1050.778"
style="stroke:rgb(96,176,207);stroke-width:1" /><line x1="829.967"
y1="-1050.778" x2="827.230" y2="-1047.361"
style="stroke:rgb(96,176,207);stroke-width:1" /><line x1="827.230"
y1="-1047.361" x2="825.406" y2="-1040.070"
style="stroke:rgb(96,176,207);stroke-width:1" /><line x1="825.406"
y1="-1040.070" x2="823.810" y2="-1030.274"
style="stroke:rgb(96,176,207);stroke-width:1" /><line x1="827.002"
y1="-1059.208" x2="823.126" y2="-1051.234"
style="stroke:rgb(96,176,207);stroke-width:1" /><line x1="823.126"
y1="-1051.234" x2="820.161" y2="-1044.399"
style="stroke:rgb(96,176,207);stroke-width:1" /><line x1="820.161"
y1="-1044.399" x2="819.477" y2="-1035.514"
style="stroke:rgb(96,176,207);stroke-width:1" /><line x1="819.477"
y1="-1035.514" x2="819.249" y2="-1030.729"
style="stroke:rgb(96,176,207);stroke-width:1" /><line x1="809.900"
y1="-1059.436" x2="807.620" y2="-1056.702"
style="stroke:rgb(96,176,207);stroke-width:1" /><line x1="807.620"
y1="-1056.702" x2="806.936" y2="-1050.095"
style="stroke:rgb(96,176,207);stroke-width:1" /><line x1="806.936"
y1="-1050.095" x2="807.392" y2="-1038.931"
style="stroke:rgb(96,176,207);stroke-width:1" /><line x1="807.392"
y1="-1038.931" x2="809.672" y2="-1022.983"
style="stroke:rgb(96,176,207);stroke-width:1" /><line x1="814.689"
y1="-1056.930" x2="811.952" y2="-1048.044"
style="stroke:rgb(96,176,207);stroke-width:1" /><line x1="811.952"
y1="-1048.044" x2="810.812" y2="-1033.235"
style="stroke:rgb(96,176,207);stroke-width:1" /><line x1="810.812"
y1="-1033.235" x2="810.128" y2="-1020.249"
style="stroke:rgb(96,176,207);stroke-width:1" /><line x1="810.128"
y1="-1020.249" x2="809.216" y2="-1015.009"
style="stroke:rgb(96,176,207);stroke-width:1" /><line x1="809.216"
y1="-1015.009" x2="814.233" y2="-1009.769"
style="stroke:rgb(96,176,207);stroke-width:1" /><line x1="814.233"
y1="-1009.769" x2="817.881" y2="-1013.642"
style="stroke:rgb(96,176,207);stroke-width:1" /><line x1="804.884"
y1="-1057.158" x2="801.919" y2="-1053.740"
style="stroke:rgb(96,176,207);stroke-width:1" /><line x1="801.919"
y1="-1053.740" x2="804.428" y2="-1051.918"
style="stroke:rgb(96,176,207);stroke-width:1" /><line x1="804.428"
y1="-1051.918" x2="801.235" y2="-1049.639"
style="stroke:rgb(96,176,207);stroke-width:1" /><line x1="801.235"
y1="-1049.639" x2="803.744" y2="-1042.576"
style="stroke:rgb(96,176,207);stroke-width:1" /><line x1="803.744"
y1="-1042.576" x2="807.164" y2="-1030.046"
style="stroke:rgb(96,176,207);stroke-width:1" /><line x1="807.164"
y1="-1030.046" x2="809.216" y2="-1020.249"
style="stroke:rgb(96,176,207);stroke-width:1" /><line x1="809.216"
y1="-1020.249" x2="809.672" y2="-1017.971"
style="stroke:rgb(96,176,207);stroke-width:1" /><line x1="810.812"
y1="-1060.575" x2="805.796" y2="-1057.613"
style="stroke:rgb(96,176,207);stroke-width:1" /><line x1="805.796"
y1="-1057.613" x2="801.007" y2="-1055.563"
style="stroke:rgb(96,176,207);stroke-width:1" /><line x1="801.007"
y1="-1055.563" x2="798.499" y2="-1053.740"
style="stroke:rgb(96,176,207);stroke-width:1" /><line x1="798.499"
y1="-1053.740" x2="796.447" y2="-1050.778"
style="stroke:rgb(96,176,207);stroke-width:1" /><line x1="796.447"
y1="-1050.778" x2="794.623" y2="-1045.083"
style="stroke:rgb(96,176,207);stroke-width:1" /><line x1="794.623"
y1="-1045.083" x2="795.763" y2="-1034.147"
style="stroke:rgb(96,176,207);stroke-width:1" /><line x1="795.763"
y1="-1034.147" x2="795.079" y2="-1026.173"
style="stroke:rgb(96,176,207);stroke-width:1" /><line x1="795.079"
y1="-1026.173" x2="795.307" y2="-1023.666"
style="stroke:rgb(96,176,207);stroke-width:1" /><line x1="795.307"
y1="-1023.666" x2="799.183" y2="-1001.567"
style="stroke:rgb(96,176,207);stroke-width:1" /><line x1="799.183"
y1="-1001.567" x2="800.095" y2="-1001.111"
style="stroke:rgb(96,176,207);stroke-width:1" /><line x1="800.095"
y1="-1001.111" x2="800.551" y2="-997.238"
style="stroke:rgb(96,176,207);stroke-width:1" /><line x1="800.551"
y1="-997.238" x2="801.235" y2="-997.238"
style="stroke:rgb(96,176,207);stroke-width:1" /><line x1="801.235"
y1="-997.238" x2="801.919" y2="-997.238"
style="stroke:rgb(96,176,207);stroke-width:1" /><line x1="827.458"
y1="-1060.347" x2="831.563" y2="-1058.069"
style="stroke:rgb(96,176,207);stroke-width:1" /><line x1="831.563"
y1="-1058.069" x2="837.491" y2="-1056.018"
style="stroke:rgb(96,176,207);stroke-width:1" /><line x1="837.491"
y1="-1056.018" x2="842.280" y2="-1054.424"
style="stroke:rgb(96,176,207);stroke-width:1" /><line x1="842.280"
y1="-1054.424" x2="845.244" y2="-1049.867"
style="stroke:rgb(96,176,207);stroke-width:1" /><line x1="845.244"
y1="-1049.867" x2="846.612" y2="-1039.387"
style="stroke:rgb(96,176,207);stroke-width:1" /><line x1="846.612"
y1="-1039.387" x2="846.156" y2="-1027.312"
style="stroke:rgb(96,176,207);stroke-width:1" /><line x1="846.156"
y1="-1027.312" x2="843.192" y2="-1022.527"
style="stroke:rgb(96,176,207);stroke-width:1" /><line x1="843.192"
y1="-1022.527" x2="839.316" y2="-1019.110"
style="stroke:rgb(96,176,207);stroke-width:1" /><line x1="839.316"
y1="-1019.110" x2="836.351" y2="-1016.832"
style="stroke:rgb(96,176,207);stroke-width:1" /><line x1="836.351"
y1="-1016.832" x2="830.423" y2="-1016.832"
style="stroke:rgb(96,176,207);stroke-width:1" /><line x1="830.423"
y1="-1016.832" x2="827.002" y2="-1017.059"
style="stroke:rgb(96,176,207);stroke-width:1" /><line x1="827.002"
y1="-1017.059" x2="824.494" y2="-1018.426"
style="stroke:rgb(96,176,207);stroke-width:1" /><line x1="801.393"
y1="-996.898" x2="799.965" y2="-993.656"
style="stroke:rgb(96,176,207);stroke-width:1" /><line x1="799.965"
y1="-993.656" x2="799.187" y2="-990.154"
style="stroke:rgb(96,176,207);stroke-width:1" /><line x1="802.375"
y1="-988.580" x2="801.463" y2="-997.466"
style="stroke:rgb(96,176,207);stroke-width:1" /><line x1="801.463"
y1="-997.466" x2="801.463" y2="-1004.529"
style="stroke:rgb(96,176,207);stroke-width:1" /><line x1="801.463"
y1="-1004.529" x2="800.779" y2="-1011.364"
style="stroke:rgb(96,176,207);stroke-width:1" /><line x1="800.779"
y1="-1011.364" x2="800.779" y2="-1017.059"
style="stroke:rgb(96,176,207);stroke-width:1" /><line x1="800.779"
y1="-1017.059" x2="800.779" y2="-1023.211"
style="stroke:rgb(96,176,207);stroke-width:1" /><line x1="800.779"
y1="-1023.211" x2="801.235" y2="-1033.691"
style="stroke:rgb(96,176,207);stroke-width:1" /><line x1="801.235"
y1="-1033.691" x2="798.955" y2="-1040.526"
style="stroke:rgb(96,176,207);stroke-width:1" /><line x1="810.812"
y1="-1013.186" x2="809.672" y2="-1008.402"
style="stroke:rgb(96,176,207);stroke-width:1" /><line x1="809.672"
y1="-1008.402" x2="808.760" y2="-1004.984"
style="stroke:rgb(96,176,207);stroke-width:1" /><line x1="808.760"
y1="-1004.984" x2="808.760" y2="-998.605"
style="stroke:rgb(96,176,207);stroke-width:1" /><line x1="808.760"
y1="-998.605" x2="806.480" y2="-994.276"
style="stroke:rgb(96,176,207);stroke-width:1" /><line x1="806.480"
y1="-994.276" x2="803.972" y2="-991.542"
style="stroke:rgb(96,176,207);stroke-width:1" /><line x1="803.972"
y1="-991.542" x2="802.147" y2="-988.125"
style="stroke:rgb(96,176,207);stroke-width:1" /><line x1="802.147"
y1="-988.125" x2="801.691" y2="-985.163"
style="stroke:rgb(96,176,207);stroke-width:1" /><line x1="828.598"
y1="-987.669" x2="823.126" y2="-994.048"
style="stroke:rgb(96,176,207);stroke-width:1" /><line x1="823.126"
y1="-994.048" x2="818.793" y2="-1000.656"
style="stroke:rgb(96,176,207);stroke-width:1" /><line x1="818.793"
y1="-1000.656" x2="818.565" y2="-1006.807"
style="stroke:rgb(96,176,207);stroke-width:1" /><line x1="818.565"
y1="-1006.807" x2="819.021" y2="-1013.414"
style="stroke:rgb(96,176,207);stroke-width:1" /><line x1="839.544"
y1="-1018.654" x2="839.316" y2="-1015.692"
style="stroke:rgb(96,176,207);stroke-width:1" /><line x1="839.316"
y1="-1015.692" x2="838.860" y2="-1007.718"
style="stroke:rgb(96,176,207);stroke-width:1" /></g></svg>
