<?xml version="1.0" encoding="utf-8"?><svg><g
transform="translate(0,1200)"><rect x="0" y="-1199" width="1599"
height="1199" style="fill:rgb(0,0,0)" /><line x1=" 0.000" y1="-0.000"
x2="1600.000" y2="-0.000" style="stroke:rgb(99,99,99);stroke-width:1" /><line
x1="1600.000" y1="-0.000" x2="1600.000" y2="-1200.000"
style="stroke:rgb(99,99,99);stroke-width:1" /><line x1="1600.000"
y1="-1200.000" x2=" 0.000" y2="-1200.000"
style="stroke:rgb(99,99,99);stroke-width:1" /><line x1=" 0.000"
y1="-1200.000" x2=" 0.000" y2="-0.000"
style="stroke:rgb(99,99,99);stroke-width:1" /><line x1="146.877"
y1="-134.245" x2="146.877" y2="-1100.245"
style="stroke:rgb(0,0,255);stroke-width:3" /><line x1="146.877"
y1="-1100.245" x2="1462.877" y2="-1100.245"
style="stroke:rgb(0,0,255);stroke-width:3" /><line x1="1462.877"
y1="-134.245" x2="1462.877" y2="-1100.245"
style="stroke:rgb(0,0,255);stroke-width:3" /><line x1="146.877"
y1="-134.245" x2="1462.877" y2="-134.245"
style="stroke:rgb(0,0,255);stroke-width:3" /><arc cx="401.268"
cy="-628.457" r="86.578" ang1=" 1.637" ang2=" 4.647"
stroke="rgb(144,152,0)" stroke-width="1" /><line x1="470.137"
y1="-628.358" x2="499.398" y2="-628.358"
style="stroke:rgb(144,152,0);stroke-width:1" /><line x1="527.864"
y1="-628.284" x2="587.972" y2="-628.284"
style="stroke:rgb(47,47,47);stroke-width:10" /><line x1="541.436"
y1="-585.081" x2="587.644" y2="-614.470"
style="stroke:rgb(47,47,47);stroke-width:10" /><line x1="604.226"
y1="-628.401" x2="658.778" y2="-628.401"
style="stroke:rgb(144,152,0);stroke-width:1" /><circle cx="849.835"
cy="-544.810" r="20.660" stroke="rgb(128,128,128)" stroke-width="1"
fill="rgb(0,0,0)" /><circle cx="896.281" cy="-544.810" r="20.660"
stroke="rgb(128,128,128)" stroke-width="1" fill="rgb(0,0,0)" /><line
x1="846.039" y1="-572.658" x2="846.039" y2="-590.445"
style="stroke:rgb(128,128,128);stroke-width:1" /><line x1="851.710"
y1="-569.744" x2="851.710" y2="-587.532"
style="stroke:rgb(128,128,128);stroke-width:1" /><line x1="840.368"
y1="-583.085" x2="859.986" y2="-574.651"
style="stroke:rgb(128,128,128);stroke-width:1" /><line x1="891.641"
y1="-571.431" x2="891.641" y2="-589.219"
style="stroke:rgb(128,128,128);stroke-width:1" /><line x1="897.312"
y1="-568.518" x2="897.312" y2="-586.305"
style="stroke:rgb(128,128,128);stroke-width:1" /><line x1="885.970"
y1="-581.858" x2="905.588" y2="-573.425"
style="stroke:rgb(128,128,128);stroke-width:1" /><line x1="811.402"
y1="-547.063" x2="938.318" y2="-547.063"
style="stroke:rgb(128,128,128);stroke-width:1" /><circle cx="846.464"
cy="-689.827" r="20.660" stroke="rgb(128,128,128)" stroke-width="1"
fill="rgb(0,0,0)" /><circle cx="892.910" cy="-689.827" r="20.660"
stroke="rgb(128,128,128)" stroke-width="1" fill="rgb(0,0,0)" /><line
x1="842.668" y1="-717.675" x2="842.668" y2="-735.462"
style="stroke:rgb(128,128,128);stroke-width:1" /><line x1="848.339"
y1="-714.762" x2="848.339" y2="-732.549"
style="stroke:rgb(128,128,128);stroke-width:1" /><line x1="836.997"
y1="-728.102" x2="856.615" y2="-719.668"
style="stroke:rgb(128,128,128);stroke-width:1" /><line x1="888.270"
y1="-716.449" x2="888.270" y2="-734.236"
style="stroke:rgb(128,128,128);stroke-width:1" /><line x1="893.941"
y1="-713.535" x2="893.941" y2="-731.323"
style="stroke:rgb(128,128,128);stroke-width:1" /><line x1="882.599"
y1="-726.876" x2="902.217" y2="-718.442"
style="stroke:rgb(128,128,128);stroke-width:1" /><line x1="808.031"
y1="-692.080" x2="934.947" y2="-692.080"
style="stroke:rgb(128,128,128);stroke-width:1" /><line x1="294.987"
y1="-240.318" x2="294.960" y2="-1017.927"
style="stroke:rgb(144,152,0);stroke-width:1" /><arc cx="714.026"
cy="-629.329" r="86.578" ang1=" 4.778" ang2=" 1.505"
stroke="rgb(144,152,0)" stroke-width="1" /><line x1="973.954"
y1="-625.112" x2="973.954" y2="-501.175"
style="stroke:rgb(144,152,0);stroke-width:1" /><line x1="973.954"
y1="-501.175" x2="906.458" y2="-501.175"
style="stroke:rgb(144,152,0);stroke-width:1" /><line x1="906.458"
y1="-501.175" x2="906.458" y2="-394.207"
style="stroke:rgb(144,152,0);stroke-width:1" /><line x1="906.458"
y1="-394.207" x2="934.495" y2="-394.207"
style="stroke:rgb(144,152,0);stroke-width:1" /><line x1="934.495"
y1="-380.896" x2="934.495" y2="-407.461"
style="stroke:rgb(144,152,0);stroke-width:1" /><line x1="940.840"
y1="-380.896" x2="940.840" y2="-407.461"
style="stroke:rgb(144,152,0);stroke-width:1" /><circle cx="1003.518"
cy="-334.940" r="21.009" stroke="rgb(255,0,0)" stroke-width="3"
fill="rgb(0,0,0)" /><circle cx="1003.455" cy="-394.348" r="21.009"
stroke="rgb(47,47,47)" stroke-width="3" fill="rgb(0,0,0)" /><circle
cx="1003.455" cy="-451.013" r="21.009" stroke="rgb(47,47,47)"
stroke-width="3" fill="rgb(0,0,0)" /><line x1="982.446" y1="-394.348"
x2="940.840" y2="-394.348" style="stroke:rgb(144,152,0);stroke-width:1" /><line
x1="1024.464" y1="-394.348" x2="1039.314" y2="-394.348"
style="stroke:rgb(144,152,0);stroke-width:1" /><line x1="1039.389"
y1="-379.368" x2="1039.389" y2="-409.005"
style="stroke:rgb(144,152,0);stroke-width:1" /><line x1="1042.743"
y1="-383.871" x2="1042.743" y2="-403.158"
style="stroke:rgb(144,152,0);stroke-width:1" /><line x1="1046.461"
y1="-389.244" x2="1046.461" y2="-397.785"
style="stroke:rgb(144,152,0);stroke-width:1" /><line x1="973.954"
y1="-625.112" x2="973.954" y2="-752.757"
style="stroke:rgb(144,152,0);stroke-width:1" /><line x1="973.954"
y1="-752.757" x2="905.641" y2="-752.757"
style="stroke:rgb(144,152,0);stroke-width:1" /><line x1="905.641"
y1="-752.757" x2="905.641" y2="-920.955"
style="stroke:rgb(144,152,0);stroke-width:1" /><line x1="905.641"
y1="-920.955" x2="942.293" y2="-920.955"
style="stroke:rgb(144,152,0);stroke-width:1" /><line x1="950.299"
y1="-845.592" x2="1012.040" y2="-845.592"
style="stroke:rgb(47,47,47);stroke-width:3" /><line x1="969.338"
y1="-803.508" x2="1011.712" y2="-830.462"
style="stroke:rgb(0,255,0);stroke-width:3" /><line x1="934.954"
y1="-827.346" x2="934.954" y2="-858.793"
style="stroke:rgb(144,152,0);stroke-width:1" /><line x1="934.954"
y1="-842.122" x2="905.641" y2="-842.122"
style="stroke:rgb(144,152,0);stroke-width:1" /><line x1="1024.464"
y1="-841.460" x2="1039.314" y2="-841.460"
style="stroke:rgb(144,152,0);stroke-width:1" /><line x1="1039.389"
y1="-826.479" x2="1039.389" y2="-856.116"
style="stroke:rgb(144,152,0);stroke-width:1" /><line x1="1042.743"
y1="-830.983" x2="1042.743" y2="-850.270"
style="stroke:rgb(144,152,0);stroke-width:1" /><line x1="1046.461"
y1="-836.356" x2="1046.461" y2="-844.897"
style="stroke:rgb(144,152,0);stroke-width:1" /><line x1="947.687"
y1="-911.433" x2="1010.828" y2="-911.433"
style="stroke:rgb(144,152,0);stroke-width:2" /><line x1="1010.828"
y1="-911.433" x2="1010.828" y2="-930.562"
style="stroke:rgb(144,152,0);stroke-width:2" /><line x1="1010.828"
y1="-930.562" x2="947.687" y2="-930.562"
style="stroke:rgb(144,152,0);stroke-width:2" /><line x1="947.687"
y1="-930.562" x2="947.687" y2="-911.433"
style="stroke:rgb(144,152,0);stroke-width:2" /><line x1="942.293"
y1="-920.955" x2="957.131" y2="-920.955"
style="stroke:rgb(144,152,0);stroke-width:2" /><line x1="957.131"
y1="-914.606" x2="957.131" y2="-927.305"
style="stroke:rgb(144,152,0);stroke-width:2" /><line x1="957.131"
y1="-927.305" x2="992.844" y2="-920.955"
style="stroke:rgb(144,152,0);stroke-width:2" /><line x1="957.131"
y1="-914.606" x2="992.844" y2="-920.955"
style="stroke:rgb(144,152,0);stroke-width:2" /><line x1="1024.576"
y1="-921.116" x2="1039.426" y2="-921.116"
style="stroke:rgb(144,152,0);stroke-width:1" /><line x1="1039.500"
y1="-906.136" x2="1039.500" y2="-935.773"
style="stroke:rgb(144,152,0);stroke-width:1" /><line x1="1042.854"
y1="-910.639" x2="1042.854" y2="-929.927"
style="stroke:rgb(144,152,0);stroke-width:1" /><line x1="1046.572"
y1="-916.012" x2="1046.572" y2="-924.554"
style="stroke:rgb(144,152,0);stroke-width:1" /><line x1="800.599"
y1="-628.401" x2="1085.672" y2="-628.401"
style="stroke:rgb(144,152,0);stroke-width:1" /><circle cx="1234.583"
cy="-335.677" r="21.009" stroke="rgb(47,47,47)" stroke-width="3"
fill="rgb(0,0,0)" /><circle cx="1234.520" cy="-395.085" r="21.009"
stroke="rgb(47,47,47)" stroke-width="3" fill="rgb(0,0,0)" /><circle
cx="1234.520" cy="-451.750" r="21.009" stroke="rgb(47,47,47)"
stroke-width="3" fill="rgb(0,0,0)" /><circle cx="1137.686" cy="-578.593"
r="21.009" stroke="rgb(47,47,47)" stroke-width="3" fill="rgb(0,0,0)" /><line
x1="1094.575" y1="-261.289" x2="1094.575" y2="-619.250"
style="stroke:rgb(128,128,128);stroke-width:1" /><line x1="1094.575"
y1="-619.250" x2="1339.165" y2="-619.250"
style="stroke:rgb(128,128,128);stroke-width:1" /><line x1="1339.165"
y1="-619.250" x2="1339.165" y2="-261.289"
style="stroke:rgb(128,128,128);stroke-width:1" /><line x1="1339.165"
y1="-261.289" x2="1094.575" y2="-261.289"
style="stroke:rgb(128,128,128);stroke-width:1" /><circle cx="1234.583"
cy="-768.358" r="21.009" stroke="rgb(255,0,0)" stroke-width="3"
fill="rgb(0,0,0)" /><circle cx="1234.520" cy="-886.900" r="21.009"
stroke="rgb(47,47,47)" stroke-width="3" fill="rgb(0,0,0)" /><line
x1="1221.018" y1="-871.326" x2="1248.023" y2="-902.473"
style="stroke:rgb(47,47,47);stroke-width:3" /><line x1="1234.520"
y1="-886.900" x2="1221.955" y2="-903.238"
style="stroke:rgb(47,47,47);stroke-width:3" /><line x1="1234.520"
y1="-886.900" x2="1246.713" y2="-870.281"
style="stroke:rgb(47,47,47);stroke-width:3" /><line x1="1094.575"
y1="-653.148" x2="1094.575" y2="-1011.109"
style="stroke:rgb(128,128,128);stroke-width:1" /><line x1="1094.575"
y1="-1011.109" x2="1339.165" y2="-1011.109"
style="stroke:rgb(128,128,128);stroke-width:1" /><line x1="1339.165"
y1="-1011.109" x2="1339.165" y2="-653.148"
style="stroke:rgb(128,128,128);stroke-width:1" /><line x1="1339.165"
y1="-653.148" x2="1094.575" y2="-653.148"
style="stroke:rgb(128,128,128);stroke-width:1" /><line x1="599.793"
y1="-796.017" x2="636.105" y2="-821.914"
style="stroke:rgb(128,128,128);stroke-width:1" /><line x1="601.655"
y1="-811.656" x2="633.498" y2="-833.640"
style="stroke:rgb(128,128,128);stroke-width:1" /><line x1="636.200"
y1="-849.281" x2="599.406" y2="-824.074"
style="stroke:rgb(128,128,128);stroke-width:1" /><line x1="659.328"
y1="-796.017" x2="695.640" y2="-821.914"
style="stroke:rgb(128,128,128);stroke-width:1" /><line x1="661.190"
y1="-811.656" x2="693.033" y2="-833.640"
style="stroke:rgb(128,128,128);stroke-width:1" /><line x1="695.735"
y1="-849.281" x2="658.941" y2="-824.074"
style="stroke:rgb(128,128,128);stroke-width:1" /><arc cx="1139.286"
cy="-767.345" r="14.464" ang1=" 1.682" ang2=" 4.601" stroke="rgb(79,0,0)"
stroke-width="0" /><line x1="1137.685" y1="-752.970" x2="1151.510"
y2="-752.970" style="stroke:rgb(79,0,0);stroke-width:0" /><line
x1="1137.685" y1="-781.721" x2="1151.510" y2="-781.721"
style="stroke:rgb(79,0,0);stroke-width:0" /><line x1="1151.510"
y1="-747.294" x2="1151.510" y2="-787.426"
style="stroke:rgb(79,0,0);stroke-width:0" /><line x1="1151.510"
y1="-747.294" x2="1178.173" y2="-747.294"
style="stroke:rgb(79,0,0);stroke-width:0" /><line x1="1178.173"
y1="-747.294" x2="1178.173" y2="-787.426"
style="stroke:rgb(79,0,0);stroke-width:0" /><line x1="1178.173"
y1="-787.426" x2="1151.510" y2="-787.426"
style="stroke:rgb(79,0,0);stroke-width:0" /><arc cx="1139.003"
cy="-858.899" r="14.464" ang1=" 1.682" ang2=" 4.601"
stroke="rgb(15,72,0)" stroke-width="1" /><line x1="1137.402"
y1="-873.422" x2="1151.227" y2="-873.422"
style="stroke:rgb(15,72,0);stroke-width:1" /><line x1="1151.227"
y1="-867.746" x2="1151.227" y2="-907.878"
style="stroke:rgb(15,72,0);stroke-width:1" /><line x1="1151.227"
y1="-867.746" x2="1177.890" y2="-867.746"
style="stroke:rgb(15,72,0);stroke-width:1" /><line x1="1177.890"
y1="-867.746" x2="1177.890" y2="-907.878"
style="stroke:rgb(15,72,0);stroke-width:1" /><line x1="1177.890"
y1="-907.878" x2="1151.227" y2="-907.878"
style="stroke:rgb(15,72,0);stroke-width:1" /><line x1="665.881"
y1="-907.494" x2="665.881" y2="-945.780"
style="stroke:rgb(47,47,47);stroke-width:3" /><line x1="665.881"
y1="-945.780" x2="689.692" y2="-945.780"
style="stroke:rgb(47,47,47);stroke-width:3" /><line x1="689.692"
y1="-945.780" x2="689.692" y2="-907.494"
style="stroke:rgb(47,47,47);stroke-width:3" /><line x1="689.692"
y1="-907.494" x2="665.881" y2="-907.494"
style="stroke:rgb(47,47,47);stroke-width:3" /><line x1="606.346"
y1="-907.494" x2="606.346" y2="-945.780"
style="stroke:rgb(0,255,0);stroke-width:3" /><line x1="606.346"
y1="-945.780" x2="630.157" y2="-945.780"
style="stroke:rgb(0,255,0);stroke-width:3" /><line x1="630.157"
y1="-945.780" x2="630.157" y2="-907.494"
style="stroke:rgb(0,255,0);stroke-width:3" /><line x1="630.157"
y1="-907.494" x2="606.346" y2="-907.494"
style="stroke:rgb(0,255,0);stroke-width:3" /><line x1="1176.402"
y1="-557.230" x2="1176.402" y2="-601.324"
style="stroke:rgb(128,128,128);stroke-width:1" /><line x1="1176.402"
y1="-601.324" x2="1211.660" y2="-601.324"
style="stroke:rgb(128,128,128);stroke-width:1" /><line x1="1211.660"
y1="-601.324" x2="1211.660" y2="-557.230"
style="stroke:rgb(128,128,128);stroke-width:1" /><line x1="1211.660"
y1="-557.230" x2="1176.402" y2="-557.230"
style="stroke:rgb(128,128,128);stroke-width:1" /><line x1="527.864"
y1="-628.284" x2="587.972" y2="-628.284"
style="stroke:rgb(47,47,47);stroke-width:10" /><line x1="541.436"
y1="-585.081" x2="587.644" y2="-614.470"
style="stroke:rgb(47,47,47);stroke-width:10" /><line x1="950.299"
y1="-845.592" x2="1012.040" y2="-845.592"
style="stroke:rgb(47,47,47);stroke-width:10" /><line x1="969.338"
y1="-803.508" x2="1011.712" y2="-830.462"
style="stroke:rgb(0,255,0);stroke-width:10" /><line x1="487.260"
y1="-616.280" x2="511.537" y2="-640.437"
style="stroke:rgb(144,152,0);stroke-width:1" /><line x1="487.260"
y1="-640.437" x2="511.537" y2="-616.280"
style="stroke:rgb(144,152,0);stroke-width:1" /><line x1="646.639"
y1="-640.480" x2="670.916" y2="-616.323"
style="stroke:rgb(144,152,0);stroke-width:1" /><line x1="646.639"
y1="-616.323" x2="670.916" y2="-640.480"
style="stroke:rgb(144,152,0);stroke-width:1" /><line x1="402.892"
y1="-615.089" x2="402.892" y2="-581.204"
style="stroke:rgb(47,47,47);stroke-width:10" /><line x1="369.398"
y1="-628.401" x2="389.580" y2="-628.401"
style="stroke:rgb(47,47,47);stroke-width:10" /><line x1="355.694"
y1="-628.401" x2="389.580" y2="-628.401"
style="stroke:rgb(47,47,47);stroke-width:10" /><line x1="416.204"
y1="-628.401" x2="439.298" y2="-628.401"
style="stroke:rgb(47,47,47);stroke-width:10" /><line x1="416.204"
y1="-628.401" x2="450.089" y2="-628.401"
style="stroke:rgb(47,47,47);stroke-width:10" /><line x1="402.892"
y1="-641.713" x2="402.892" y2="-675.599"
style="stroke:rgb(47,47,47);stroke-width:10" /><line x1="314.691"
y1="-628.401" x2="294.973" y2="-628.401"
style="stroke:rgb(144,152,0);stroke-width:1" /><text id="101" x="178.109"
y="-165.471" transform="rotate( 1.571,0,0)" font-family="SimHei"
font-size="18" fill="rgb(0,255,0)"> ORT400</text><line x1="1234.583"
y1="-768.358" x2="1246.775" y2="-751.739"
style="stroke:rgb(255,0,0);stroke-width:3" /><line x1="1234.583"
y1="-768.358" x2="1222.017" y2="-784.697"
style="stroke:rgb(255,0,0);stroke-width:3" /><line x1="1221.080"
y1="-752.785" x2="1248.085" y2="-783.932"
style="stroke:rgb(255,0,0);stroke-width:3" /><line x1="1124.183"
y1="-563.020" x2="1151.188" y2="-594.166"
style="stroke:rgb(47,47,47);stroke-width:3" /><line x1="1137.686"
y1="-578.593" x2="1125.120" y2="-594.932"
style="stroke:rgb(47,47,47);stroke-width:3" /><line x1="1137.686"
y1="-578.593" x2="1149.878" y2="-561.974"
style="stroke:rgb(47,47,47);stroke-width:3" /><line x1="1221.018"
y1="-436.177" x2="1248.023" y2="-467.324"
style="stroke:rgb(47,47,47);stroke-width:3" /><line x1="1234.520"
y1="-451.750" x2="1221.955" y2="-468.089"
style="stroke:rgb(47,47,47);stroke-width:3" /><line x1="1234.520"
y1="-451.750" x2="1246.713" y2="-435.131"
style="stroke:rgb(47,47,47);stroke-width:3" /><line x1="1221.018"
y1="-379.512" x2="1248.023" y2="-410.658"
style="stroke:rgb(47,47,47);stroke-width:3" /><line x1="1234.520"
y1="-395.085" x2="1221.955" y2="-411.424"
style="stroke:rgb(47,47,47);stroke-width:3" /><line x1="1234.520"
y1="-395.085" x2="1246.713" y2="-378.466"
style="stroke:rgb(47,47,47);stroke-width:3" /><line x1="1221.080"
y1="-320.104" x2="1248.085" y2="-351.250"
style="stroke:rgb(47,47,47);stroke-width:3" /><line x1="1234.583"
y1="-335.677" x2="1222.017" y2="-352.016"
style="stroke:rgb(47,47,47);stroke-width:3" /><line x1="1234.583"
y1="-335.677" x2="1246.775" y2="-319.058"
style="stroke:rgb(47,47,47);stroke-width:3" /><line x1="989.953"
y1="-435.440" x2="1016.958" y2="-466.586"
style="stroke:rgb(47,47,47);stroke-width:3" /><line x1="1003.455"
y1="-451.013" x2="990.890" y2="-467.352"
style="stroke:rgb(47,47,47);stroke-width:3" /><line x1="1003.455"
y1="-451.013" x2="1015.648" y2="-434.394"
style="stroke:rgb(47,47,47);stroke-width:3" /><line x1="989.953"
y1="-378.774" x2="1016.958" y2="-409.921"
style="stroke:rgb(47,47,47);stroke-width:3" /><line x1="1003.455"
y1="-394.348" x2="990.890" y2="-410.687"
style="stroke:rgb(47,47,47);stroke-width:3" /><line x1="1003.455"
y1="-394.348" x2="1015.648" y2="-377.729"
style="stroke:rgb(47,47,47);stroke-width:3" /><line x1="990.015"
y1="-319.367" x2="1017.020" y2="-350.513"
style="stroke:rgb(255,0,0);stroke-width:3" /><line x1="1003.518"
y1="-334.940" x2="990.952" y2="-351.279"
style="stroke:rgb(255,0,0);stroke-width:3" /><line x1="1003.518"
y1="-334.940" x2="1015.710" y2="-318.321"
style="stroke:rgb(255,0,0);stroke-width:3" /><line x1="732.078"
y1="-615.089" x2="732.078" y2="-581.204"
style="stroke:rgb(47,47,47);stroke-width:10" /><line x1="684.880"
y1="-628.401" x2="718.766" y2="-628.401"
style="stroke:rgb(47,47,47);stroke-width:10" /><line x1="698.584"
y1="-628.401" x2="718.766" y2="-628.401"
style="stroke:rgb(47,47,47);stroke-width:10" /><line x1="732.078"
y1="-641.713" x2="732.078" y2="-675.599"
style="stroke:rgb(47,47,47);stroke-width:10" /><line x1="745.390"
y1="-628.401" x2="779.275" y2="-628.401"
style="stroke:rgb(47,47,47);stroke-width:10" /><line x1="745.390"
y1="-628.401" x2="768.484" y2="-628.401"
style="stroke:rgb(47,47,47);stroke-width:10" /><arc cx="617.876"
cy="-856.399" r="19.880" ang1=" 2.828" ang2=" 0.351"
stroke="rgb(128,128,128)" stroke-width="1" /><arc cx="618.247"
cy="-789.246" r="19.880" ang1=" 5.951" ang2=" 3.474"
stroke="rgb(128,128,128)" stroke-width="1" /><arc cx="677.411"
cy="-856.399" r="19.880" ang1=" 2.828" ang2=" 0.351"
stroke="rgb(128,128,128)" stroke-width="1" /><arc cx="677.782"
cy="-789.246" r="19.880" ang1=" 5.951" ang2=" 3.474"
stroke="rgb(128,128,128)" stroke-width="1" /><line x1="785.648"
y1="-1013.206" x2="960.357" y2="-426.518"
style="stroke:rgb(99,99,99);stroke-width:1" /><line x1="1169.638"
y1="-840.651" x2="785.648" y2="-1013.206"
style="stroke:rgb(99,99,99);stroke-width:1" /><line x1="960.357"
y1="-426.518" x2="918.983" y2="-461.325"
style="stroke:rgb(99,99,99);stroke-width:1" /><line x1="960.357"
y1="-426.518" x2="962.707" y2="-481.720"
style="stroke:rgb(99,99,99);stroke-width:1" /><line x1="1169.638"
y1="-840.651" x2="1154.828" y2="-864.011"
style="stroke:rgb(99,99,99);stroke-width:1" /><line x1="1169.638"
y1="-840.651" x2="1146.254" y2="-831.307"
style="stroke:rgb(99,99,99);stroke-width:1" /><line x1="740.293"
y1="-1022.032" x2="740.749" y2="-1014.058"
style="stroke:rgb(96,176,207);stroke-width:1" /><line x1="740.065"
y1="-1024.994" x2="740.293" y2="-1022.032"
style="stroke:rgb(96,176,207);stroke-width:1" /><line x1="761.044"
y1="-1013.146" x2="760.588" y2="-1019.754"
style="stroke:rgb(96,176,207);stroke-width:1" /><line x1="760.816"
y1="-1006.995" x2="761.044" y2="-1013.146"
style="stroke:rgb(96,176,207);stroke-width:1" /><line x1="756.483"
y1="-1000.388" x2="760.816" y2="-1006.995"
style="stroke:rgb(96,176,207);stroke-width:1" /><line x1="751.011"
y1="-994.009" x2="756.483" y2="-1000.388"
style="stroke:rgb(96,176,207);stroke-width:1" /><line x1="777.462"
y1="-994.464" x2="777.918" y2="-991.503"
style="stroke:rgb(96,176,207);stroke-width:1" /><line x1="775.637"
y1="-997.882" x2="777.462" y2="-994.464"
style="stroke:rgb(96,176,207);stroke-width:1" /><line x1="773.129"
y1="-1000.616" x2="775.637" y2="-997.882"
style="stroke:rgb(96,176,207);stroke-width:1" /><line x1="770.849"
y1="-1004.945" x2="773.129" y2="-1000.616"
style="stroke:rgb(96,176,207);stroke-width:1" /><line x1="770.849"
y1="-1011.324" x2="770.849" y2="-1004.945"
style="stroke:rgb(96,176,207);stroke-width:1" /><line x1="769.937"
y1="-1014.741" x2="770.849" y2="-1011.324"
style="stroke:rgb(96,176,207);stroke-width:1" /><line x1="768.797"
y1="-1019.526" x2="769.937" y2="-1014.741"
style="stroke:rgb(96,176,207);stroke-width:1" /><line x1="778.374"
y1="-1040.031" x2="780.654" y2="-1046.866"
style="stroke:rgb(96,176,207);stroke-width:1" /><line x1="778.830"
y1="-1029.550" x2="778.374" y2="-1040.031"
style="stroke:rgb(96,176,207);stroke-width:1" /><line x1="778.830"
y1="-1023.399" x2="778.830" y2="-1029.550"
style="stroke:rgb(96,176,207);stroke-width:1" /><line x1="778.830"
y1="-1017.703" x2="778.830" y2="-1023.399"
style="stroke:rgb(96,176,207);stroke-width:1" /><line x1="778.146"
y1="-1010.868" x2="778.830" y2="-1017.703"
style="stroke:rgb(96,176,207);stroke-width:1" /><line x1="778.146"
y1="-1003.805" x2="778.146" y2="-1010.868"
style="stroke:rgb(96,176,207);stroke-width:1" /><line x1="777.234"
y1="-994.920" x2="778.146" y2="-1003.805"
style="stroke:rgb(96,176,207);stroke-width:1" /><line x1="779.644"
y1="-999.995" x2="780.422" y2="-996.494"
style="stroke:rgb(96,176,207);stroke-width:1" /><line x1="778.216"
y1="-1003.238" x2="779.644" y2="-999.995"
style="stroke:rgb(96,176,207);stroke-width:1" /><line x1="752.607"
y1="-1023.399" x2="755.115" y2="-1024.766"
style="stroke:rgb(96,176,207);stroke-width:1" /><line x1="749.186"
y1="-1023.171" x2="752.607" y2="-1023.399"
style="stroke:rgb(96,176,207);stroke-width:1" /><line x1="743.258"
y1="-1023.171" x2="749.186" y2="-1023.171"
style="stroke:rgb(96,176,207);stroke-width:1" /><line x1="740.293"
y1="-1025.449" x2="743.258" y2="-1023.171"
style="stroke:rgb(96,176,207);stroke-width:1" /><line x1="736.417"
y1="-1028.867" x2="740.293" y2="-1025.449"
style="stroke:rgb(96,176,207);stroke-width:1" /><line x1="733.453"
y1="-1033.651" x2="736.417" y2="-1028.867"
style="stroke:rgb(96,176,207);stroke-width:1" /><line x1="732.997"
y1="-1045.726" x2="733.453" y2="-1033.651"
style="stroke:rgb(96,176,207);stroke-width:1" /><line x1="734.365"
y1="-1056.207" x2="732.997" y2="-1045.726"
style="stroke:rgb(96,176,207);stroke-width:1" /><line x1="737.329"
y1="-1060.763" x2="734.365" y2="-1056.207"
style="stroke:rgb(96,176,207);stroke-width:1" /><line x1="742.118"
y1="-1062.358" x2="737.329" y2="-1060.763"
style="stroke:rgb(96,176,207);stroke-width:1" /><line x1="748.046"
y1="-1064.408" x2="742.118" y2="-1062.358"
style="stroke:rgb(96,176,207);stroke-width:1" /><line x1="752.151"
y1="-1066.687" x2="748.046" y2="-1064.408"
style="stroke:rgb(96,176,207);stroke-width:1" /><line x1="778.374"
y1="-1003.578" x2="777.690" y2="-1003.578"
style="stroke:rgb(96,176,207);stroke-width:1" /><line x1="779.058"
y1="-1003.578" x2="778.374" y2="-1003.578"
style="stroke:rgb(96,176,207);stroke-width:1" /><line x1="779.514"
y1="-1007.451" x2="779.058" y2="-1003.578"
style="stroke:rgb(96,176,207);stroke-width:1" /><line x1="780.426"
y1="-1007.906" x2="779.514" y2="-1007.451"
style="stroke:rgb(96,176,207);stroke-width:1" /><line x1="784.302"
y1="-1030.006" x2="780.426" y2="-1007.906"
style="stroke:rgb(96,176,207);stroke-width:1" /><line x1="784.530"
y1="-1032.512" x2="784.302" y2="-1030.006"
style="stroke:rgb(96,176,207);stroke-width:1" /><line x1="783.846"
y1="-1040.486" x2="784.530" y2="-1032.512"
style="stroke:rgb(96,176,207);stroke-width:1" /><line x1="784.986"
y1="-1051.422" x2="783.846" y2="-1040.486"
style="stroke:rgb(96,176,207);stroke-width:1" /><line x1="783.162"
y1="-1057.118" x2="784.986" y2="-1051.422"
style="stroke:rgb(96,176,207);stroke-width:1" /><line x1="781.110"
y1="-1060.080" x2="783.162" y2="-1057.118"
style="stroke:rgb(96,176,207);stroke-width:1" /><line x1="778.602"
y1="-1061.902" x2="781.110" y2="-1060.080"
style="stroke:rgb(96,176,207);stroke-width:1" /><line x1="773.813"
y1="-1063.953" x2="778.602" y2="-1061.902"
style="stroke:rgb(96,176,207);stroke-width:1" /><line x1="768.797"
y1="-1066.915" x2="773.813" y2="-1063.953"
style="stroke:rgb(96,176,207);stroke-width:1" /><line x1="770.393"
y1="-1026.589" x2="769.937" y2="-1024.310"
style="stroke:rgb(96,176,207);stroke-width:1" /><line x1="772.445"
y1="-1036.385" x2="770.393" y2="-1026.589"
style="stroke:rgb(96,176,207);stroke-width:1" /><line x1="775.865"
y1="-1048.916" x2="772.445" y2="-1036.385"
style="stroke:rgb(96,176,207);stroke-width:1" /><line x1="778.374"
y1="-1055.979" x2="775.865" y2="-1048.916"
style="stroke:rgb(96,176,207);stroke-width:1" /><line x1="775.181"
y1="-1058.257" x2="778.374" y2="-1055.979"
style="stroke:rgb(96,176,207);stroke-width:1" /><line x1="777.690"
y1="-1060.080" x2="775.181" y2="-1058.257"
style="stroke:rgb(96,176,207);stroke-width:1" /><line x1="774.725"
y1="-1063.497" x2="777.690" y2="-1060.080"
style="stroke:rgb(96,176,207);stroke-width:1" /><line x1="765.376"
y1="-1016.108" x2="761.728" y2="-1019.981"
style="stroke:rgb(96,176,207);stroke-width:1" /><line x1="770.393"
y1="-1021.348" x2="765.376" y2="-1016.108"
style="stroke:rgb(96,176,207);stroke-width:1" /><line x1="769.481"
y1="-1026.589" x2="770.393" y2="-1021.348"
style="stroke:rgb(96,176,207);stroke-width:1" /><line x1="768.797"
y1="-1039.575" x2="769.481" y2="-1026.589"
style="stroke:rgb(96,176,207);stroke-width:1" /><line x1="767.657"
y1="-1054.384" x2="768.797" y2="-1039.575"
style="stroke:rgb(96,176,207);stroke-width:1" /><line x1="764.920"
y1="-1063.269" x2="767.657" y2="-1054.384"
style="stroke:rgb(96,176,207);stroke-width:1" /><line x1="772.217"
y1="-1045.271" x2="769.937" y2="-1029.323"
style="stroke:rgb(96,176,207);stroke-width:1" /><line x1="772.673"
y1="-1056.434" x2="772.217" y2="-1045.271"
style="stroke:rgb(96,176,207);stroke-width:1" /><line x1="771.989"
y1="-1063.042" x2="772.673" y2="-1056.434"
style="stroke:rgb(96,176,207);stroke-width:1" /><line x1="769.709"
y1="-1065.775" x2="771.989" y2="-1063.042"
style="stroke:rgb(96,176,207);stroke-width:1" /><line x1="760.132"
y1="-1041.853" x2="760.360" y2="-1037.069"
style="stroke:rgb(96,176,207);stroke-width:1" /><line x1="759.448"
y1="-1050.739" x2="760.132" y2="-1041.853"
style="stroke:rgb(96,176,207);stroke-width:1" /><line x1="756.483"
y1="-1057.574" x2="759.448" y2="-1050.739"
style="stroke:rgb(96,176,207);stroke-width:1" /><line x1="752.607"
y1="-1065.548" x2="756.483" y2="-1057.574"
style="stroke:rgb(96,176,207);stroke-width:1" /><line x1="754.203"
y1="-1046.410" x2="755.799" y2="-1036.613"
style="stroke:rgb(96,176,207);stroke-width:1" /><line x1="752.379"
y1="-1053.700" x2="754.203" y2="-1046.410"
style="stroke:rgb(96,176,207);stroke-width:1" /><line x1="749.642"
y1="-1057.118" x2="752.379" y2="-1053.700"
style="stroke:rgb(96,176,207);stroke-width:1" /><line x1="752.379"
y1="-1058.257" x2="749.642" y2="-1057.118"
style="stroke:rgb(96,176,207);stroke-width:1" /><line x1="749.414"
y1="-1059.852" x2="752.379" y2="-1058.257"
style="stroke:rgb(96,176,207);stroke-width:1" /><line x1="748.730"
y1="-1063.725" x2="749.414" y2="-1059.852"
style="stroke:rgb(96,176,207);stroke-width:1" /><line x1="762.074"
y1="-1036.693" x2="760.917" y2="-1031.297"
style="stroke:rgb(96,176,207);stroke-width:1" /><line x1="762.267"
y1="-1041.897" x2="762.074" y2="-1036.693"
style="stroke:rgb(96,176,207);stroke-width:1" /><line x1="762.846"
y1="-1053.653" x2="762.267" y2="-1041.897"
style="stroke:rgb(96,176,207);stroke-width:1" /><line x1="762.074"
y1="-1062.518" x2="762.846" y2="-1053.653"
style="stroke:rgb(96,176,207);stroke-width:1" /><line x1="753.063"
y1="-1033.423" x2="754.431" y2="-1033.651"
style="stroke:rgb(96,176,207);stroke-width:1" /><line x1="751.011"
y1="-1032.284" x2="753.063" y2="-1033.423"
style="stroke:rgb(96,176,207);stroke-width:1" /><line x1="750.327"
y1="-1029.323" x2="751.011" y2="-1032.284"
style="stroke:rgb(96,176,207);stroke-width:1" /><line x1="751.239"
y1="-1026.133" x2="750.327" y2="-1029.323"
style="stroke:rgb(96,176,207);stroke-width:1" /><line x1="753.291"
y1="-1024.994" x2="751.239" y2="-1026.133"
style="stroke:rgb(96,176,207);stroke-width:1" /><line x1="753.943"
y1="-1026.971" x2="751.867" y2="-1026.452"
style="stroke:rgb(96,176,207);stroke-width:1" /><line x1="756.020"
y1="-1025.544" x2="753.943" y2="-1026.971"
style="stroke:rgb(96,176,207);stroke-width:1" /><line x1="757.708"
y1="-1022.950" x2="756.020" y2="-1025.544"
style="stroke:rgb(96,176,207);stroke-width:1" /><line x1="760.563"
y1="-1020.616" x2="757.708" y2="-1022.950"
style="stroke:rgb(96,176,207);stroke-width:1" /><line x1="762.251"
y1="-1020.097" x2="760.563" y2="-1020.616"
style="stroke:rgb(96,176,207);stroke-width:1" /><line x1="762.900"
y1="-1021.005" x2="762.251" y2="-1020.097"
style="stroke:rgb(96,176,207);stroke-width:1" /><line x1="762.640"
y1="-1022.431" x2="762.900" y2="-1021.005"
style="stroke:rgb(96,176,207);stroke-width:1" /><line x1="763.419"
y1="-1023.210" x2="762.640" y2="-1022.431"
style="stroke:rgb(96,176,207);stroke-width:1" /><line x1="762.770"
y1="-1024.247" x2="763.419" y2="-1023.210"
style="stroke:rgb(96,176,207);stroke-width:1" /><line x1="763.419"
y1="-1024.766" x2="762.770" y2="-1024.247"
style="stroke:rgb(96,176,207);stroke-width:1" /><line x1="763.549"
y1="-1025.544" x2="763.419" y2="-1024.766"
style="stroke:rgb(96,176,207);stroke-width:1" /><line x1="761.602"
y1="-1027.489" x2="763.549" y2="-1025.544"
style="stroke:rgb(96,176,207);stroke-width:1" /><line x1="762.900"
y1="-1027.749" x2="761.602" y2="-1027.489"
style="stroke:rgb(96,176,207);stroke-width:1" /><line x1="762.640"
y1="-1029.175" x2="762.900" y2="-1027.749"
style="stroke:rgb(96,176,207);stroke-width:1" /><line x1="759.395"
y1="-1031.121" x2="762.640" y2="-1029.175"
style="stroke:rgb(96,176,207);stroke-width:1" /><line x1="757.837"
y1="-1032.807" x2="759.395" y2="-1031.121"
style="stroke:rgb(96,176,207);stroke-width:1" /><line x1="758.746"
y1="-1033.974" x2="757.837" y2="-1032.807"
style="stroke:rgb(96,176,207);stroke-width:1" /><line x1="760.174"
y1="-1034.622" x2="758.746" y2="-1033.974"
style="stroke:rgb(96,176,207);stroke-width:1" /><line x1="760.563"
y1="-1035.660" x2="760.174" y2="-1034.622"
style="stroke:rgb(96,176,207);stroke-width:1" /><line x1="760.044"
y1="-1036.568" x2="760.563" y2="-1035.660"
style="stroke:rgb(96,176,207);stroke-width:1" /><line x1="758.227"
y1="-1036.178" x2="760.044" y2="-1036.568"
style="stroke:rgb(96,176,207);stroke-width:1" /><line x1="757.059"
y1="-1036.178" x2="758.227" y2="-1036.178"
style="stroke:rgb(96,176,207);stroke-width:1" /><line x1="755.761"
y1="-1034.752" x2="757.059" y2="-1036.178"
style="stroke:rgb(96,176,207);stroke-width:1" /><line x1="754.852"
y1="-1032.547" x2="755.761" y2="-1034.752"
style="stroke:rgb(96,176,207);stroke-width:1" /><line x1="753.943"
y1="-1032.418" x2="754.852" y2="-1032.547"
style="stroke:rgb(96,176,207);stroke-width:1" /><line x1="765.832"
y1="-1014.058" x2="761.272" y2="-1014.741"
style="stroke:rgb(96,176,207);stroke-width:1" /><line x1="769.481"
y1="-1014.969" x2="765.832" y2="-1014.058"
style="stroke:rgb(96,176,207);stroke-width:1" /><line x1="743.030"
y1="-1044.815" x2="745.538" y2="-1043.220"
style="stroke:rgb(96,176,207);stroke-width:1" /><line x1="744.854"
y1="-1036.841" x2="743.030" y2="-1044.815"
style="stroke:rgb(96,176,207);stroke-width:1" /><line x1="743.258"
y1="-1036.385" x2="744.854" y2="-1036.841"
style="stroke:rgb(96,176,207);stroke-width:1" /><line x1="745.994"
y1="-1036.385" x2="743.258" y2="-1036.385"
style="stroke:rgb(96,176,207);stroke-width:1" /><line x1="750.783"
y1="-1034.107" x2="745.994" y2="-1036.385"
style="stroke:rgb(96,176,207);stroke-width:1" /><line x1="754.431"
y1="-1033.651" x2="750.783" y2="-1034.107"
style="stroke:rgb(96,176,207);stroke-width:1" /><line x1="751.822"
y1="-1084.313" x2="752.476" y2="-1083.005"
style="stroke:rgb(96,176,207);stroke-width:1" /><line x1="751.447"
y1="-1086.650" x2="751.822" y2="-1084.313"
style="stroke:rgb(96,176,207);stroke-width:1" /><line x1="752.196"
y1="-1089.454" x2="751.447" y2="-1086.650"
style="stroke:rgb(96,176,207);stroke-width:1" /><line x1="753.693"
y1="-1092.071" x2="752.196" y2="-1089.454"
style="stroke:rgb(96,176,207);stroke-width:1" /><line x1="756.499"
y1="-1092.819" x2="753.693" y2="-1092.071"
style="stroke:rgb(96,176,207);stroke-width:1" /><line x1="763.702"
y1="-1093.193" x2="756.499" y2="-1092.819"
style="stroke:rgb(96,176,207);stroke-width:1" /><line x1="768.660"
y1="-1092.352" x2="763.702" y2="-1093.193"
style="stroke:rgb(96,176,207);stroke-width:1" /><line x1="769.970"
y1="-1091.043" x2="768.660" y2="-1092.352"
style="stroke:rgb(96,176,207);stroke-width:1" /><line x1="769.783"
y1="-1088.893" x2="769.970" y2="-1091.043"
style="stroke:rgb(96,176,207);stroke-width:1" /><line x1="770.531"
y1="-1084.594" x2="769.783" y2="-1088.893"
style="stroke:rgb(96,176,207);stroke-width:1" /><line x1="770.531"
y1="-1081.790" x2="770.531" y2="-1084.594"
style="stroke:rgb(96,176,207);stroke-width:1" /><line x1="769.970"
y1="-1080.575" x2="770.531" y2="-1081.790"
style="stroke:rgb(96,176,207);stroke-width:1" /><line x1="770.718"
y1="-1077.677" x2="769.970" y2="-1080.575"
style="stroke:rgb(96,176,207);stroke-width:1" /><line x1="769.689"
y1="-1073.284" x2="770.718" y2="-1077.677"
style="stroke:rgb(96,176,207);stroke-width:1" /><line x1="768.473"
y1="-1070.854" x2="769.689" y2="-1073.284"
style="stroke:rgb(96,176,207);stroke-width:1" /><line x1="767.444"
y1="-1069.639" x2="768.473" y2="-1070.854"
style="stroke:rgb(96,176,207);stroke-width:1" /><line x1="766.509"
y1="-1069.452" x2="767.444" y2="-1069.639"
style="stroke:rgb(96,176,207);stroke-width:1" /><line x1="765.854"
y1="-1068.424" x2="766.509" y2="-1069.452"
style="stroke:rgb(96,176,207);stroke-width:1" /><line x1="754.160"
y1="-1082.911" x2="753.786" y2="-1082.724"
style="stroke:rgb(96,176,207);stroke-width:1" /><line x1="754.160"
y1="-1083.753" x2="754.160" y2="-1082.911"
style="stroke:rgb(96,176,207);stroke-width:1" /><line x1="755.189"
y1="-1084.687" x2="754.160" y2="-1083.753"
style="stroke:rgb(96,176,207);stroke-width:1" /><line x1="755.564"
y1="-1086.650" x2="755.189" y2="-1084.687"
style="stroke:rgb(96,176,207);stroke-width:1" /><line x1="756.593"
y1="-1088.706" x2="755.564" y2="-1086.650"
style="stroke:rgb(96,176,207);stroke-width:1" /><line x1="758.651"
y1="-1089.548" x2="756.593" y2="-1088.706"
style="stroke:rgb(96,176,207);stroke-width:1" /><line x1="760.709"
y1="-1089.921" x2="758.651" y2="-1089.548"
style="stroke:rgb(96,176,207);stroke-width:1" /><line x1="765.106"
y1="-1090.015" x2="760.709" y2="-1089.921"
style="stroke:rgb(96,176,207);stroke-width:1" /><line x1="769.035"
y1="-1089.828" x2="765.106" y2="-1090.015"
style="stroke:rgb(96,176,207);stroke-width:1" /><line x1="769.596"
y1="-1089.174" x2="769.035" y2="-1089.828"
style="stroke:rgb(96,176,207);stroke-width:1" /><line x1="754.254"
y1="-1071.228" x2="754.441" y2="-1069.171"
style="stroke:rgb(96,176,207);stroke-width:1" /><line x1="753.880"
y1="-1074.966" x2="754.254" y2="-1071.228"
style="stroke:rgb(96,176,207);stroke-width:1" /><line x1="752.944"
y1="-1077.303" x2="753.880" y2="-1074.966"
style="stroke:rgb(96,176,207);stroke-width:1" /><line x1="753.131"
y1="-1069.265" x2="754.067" y2="-1069.171"
style="stroke:rgb(96,176,207);stroke-width:1" /><line x1="752.851"
y1="-1067.115" x2="753.131" y2="-1069.265"
style="stroke:rgb(96,176,207);stroke-width:1" /><line x1="752.289"
y1="-1065.246" x2="752.851" y2="-1067.115"
style="stroke:rgb(96,176,207);stroke-width:1" /><line x1="754.160"
y1="-1064.031" x2="752.289" y2="-1065.246"
style="stroke:rgb(96,176,207);stroke-width:1" /><line x1="757.341"
y1="-1061.974" x2="754.160" y2="-1064.031"
style="stroke:rgb(96,176,207);stroke-width:1" /><line x1="761.270"
y1="-1067.863" x2="757.341" y2="-1061.974"
style="stroke:rgb(96,176,207);stroke-width:1" /><line x1="764.451"
y1="-1067.956" x2="761.270" y2="-1067.863"
style="stroke:rgb(96,176,207);stroke-width:1" /><line x1="766.041"
y1="-1066.461" x2="764.451" y2="-1067.956"
style="stroke:rgb(96,176,207);stroke-width:1" /><line x1="769.689"
y1="-1062.628" x2="766.041" y2="-1066.461"
style="stroke:rgb(96,176,207);stroke-width:1" /><line x1="768.286"
y1="-1068.517" x2="769.689" y2="-1062.628"
style="stroke:rgb(96,176,207);stroke-width:1" /><line x1="767.631"
y1="-1068.984" x2="768.286" y2="-1068.517"
style="stroke:rgb(96,176,207);stroke-width:1" /><line x1="766.789"
y1="-1068.984" x2="767.631" y2="-1068.984"
style="stroke:rgb(96,176,207);stroke-width:1" /><line x1="761.738"
y1="-1063.470" x2="760.615" y2="-1066.180"
style="stroke:rgb(96,176,207);stroke-width:1" /><line x1="763.422"
y1="-1062.815" x2="761.738" y2="-1063.470"
style="stroke:rgb(96,176,207);stroke-width:1" /><line x1="764.077"
y1="-1063.376" x2="763.422" y2="-1062.815"
style="stroke:rgb(96,176,207);stroke-width:1" /><line x1="765.480"
y1="-1066.461" x2="764.077" y2="-1063.376"
style="stroke:rgb(96,176,207);stroke-width:1" /><line x1="757.247"
y1="-1068.143" x2="760.802" y2="-1068.143"
style="stroke:rgb(96,176,207);stroke-width:1" /><line x1="754.160"
y1="-1068.611" x2="757.247" y2="-1068.143"
style="stroke:rgb(96,176,207);stroke-width:1" /><line x1="754.535"
y1="-1069.171" x2="754.160" y2="-1068.611"
style="stroke:rgb(96,176,207);stroke-width:1" /><line x1="767.538"
y1="-1068.330" x2="765.386" y2="-1068.050"
style="stroke:rgb(96,176,207);stroke-width:1" /><line x1="767.444"
y1="-1068.611" x2="767.538" y2="-1068.330"
style="stroke:rgb(96,176,207);stroke-width:1" /><line x1="765.854"
y1="-1072.817" x2="764.170" y2="-1072.723"
style="stroke:rgb(96,176,207);stroke-width:1" /><line x1="754.535"
y1="-1075.995" x2="754.722" y2="-1076.555"
style="stroke:rgb(96,176,207);stroke-width:1" /><line x1="753.973"
y1="-1076.275" x2="754.535" y2="-1075.995"
style="stroke:rgb(96,176,207);stroke-width:1" /><line x1="753.318"
y1="-1077.116" x2="753.973" y2="-1076.275"
style="stroke:rgb(96,176,207);stroke-width:1" /><line x1="752.289"
y1="-1078.238" x2="753.318" y2="-1077.116"
style="stroke:rgb(96,176,207);stroke-width:1" /><line x1="751.728"
y1="-1079.546" x2="752.289" y2="-1078.238"
style="stroke:rgb(96,176,207);stroke-width:1" /><line x1="751.447"
y1="-1081.322" x2="751.728" y2="-1079.546"
style="stroke:rgb(96,176,207);stroke-width:1" /><line x1="751.822"
y1="-1082.257" x2="751.447" y2="-1081.322"
style="stroke:rgb(96,176,207);stroke-width:1" /><line x1="752.476"
y1="-1082.911" x2="751.822" y2="-1082.257"
style="stroke:rgb(96,176,207);stroke-width:1" /><line x1="753.318"
y1="-1082.631" x2="752.476" y2="-1082.911"
style="stroke:rgb(96,176,207);stroke-width:1" /><line x1="753.786"
y1="-1081.977" x2="753.318" y2="-1082.631"
style="stroke:rgb(96,176,207);stroke-width:1" /><line x1="764.170"
y1="-1075.714" x2="763.141" y2="-1076.182"
style="stroke:rgb(96,176,207);stroke-width:1" /><line x1="766.228"
y1="-1075.621" x2="764.170" y2="-1075.714"
style="stroke:rgb(96,176,207);stroke-width:1" /><line x1="766.509"
y1="-1076.088" x2="766.228" y2="-1075.621"
style="stroke:rgb(96,176,207);stroke-width:1" /><line x1="764.731"
y1="-1073.845" x2="762.767" y2="-1073.564"
style="stroke:rgb(96,176,207);stroke-width:1" /><line x1="765.573"
y1="-1073.938" x2="764.731" y2="-1073.845"
style="stroke:rgb(96,176,207);stroke-width:1" /><line x1="767.164"
y1="-1073.471" x2="765.573" y2="-1073.938"
style="stroke:rgb(96,176,207);stroke-width:1" /><line x1="761.644"
y1="-1080.107" x2="759.773" y2="-1080.762"
style="stroke:rgb(96,176,207);stroke-width:1" /><line x1="762.860"
y1="-1080.201" x2="761.644" y2="-1080.107"
style="stroke:rgb(96,176,207);stroke-width:1" /><line x1="763.328"
y1="-1080.762" x2="762.860" y2="-1080.201"
style="stroke:rgb(96,176,207);stroke-width:1" /><line x1="762.580"
y1="-1081.229" x2="763.328" y2="-1080.762"
style="stroke:rgb(96,176,207);stroke-width:1" /><line x1="760.989"
y1="-1081.416" x2="762.580" y2="-1081.229"
style="stroke:rgb(96,176,207);stroke-width:1" /><line x1="759.773"
y1="-1081.322" x2="760.989" y2="-1081.416"
style="stroke:rgb(96,176,207);stroke-width:1" /><line x1="759.399"
y1="-1082.257" x2="758.931" y2="-1081.509"
style="stroke:rgb(96,176,207);stroke-width:1" /><line x1="762.299"
y1="-1082.537" x2="759.399" y2="-1082.257"
style="stroke:rgb(96,176,207);stroke-width:1" /><line x1="763.515"
y1="-1081.603" x2="762.299" y2="-1082.537"
style="stroke:rgb(96,176,207);stroke-width:1" /><line x1="766.977"
y1="-1080.294" x2="768.754" y2="-1080.762"
style="stroke:rgb(96,176,207);stroke-width:1" /><line x1="765.947"
y1="-1080.201" x2="766.977" y2="-1080.294"
style="stroke:rgb(96,176,207);stroke-width:1" /><line x1="765.573"
y1="-1080.762" x2="765.947" y2="-1080.201"
style="stroke:rgb(96,176,207);stroke-width:1" /><line x1="767.070"
y1="-1081.322" x2="765.573" y2="-1080.762"
style="stroke:rgb(96,176,207);stroke-width:1" /><line x1="769.222"
y1="-1081.229" x2="767.070" y2="-1081.322"
style="stroke:rgb(96,176,207);stroke-width:1" /><line x1="767.725"
y1="-1082.537" x2="765.573" y2="-1081.696"
style="stroke:rgb(96,176,207);stroke-width:1" /><line x1="769.877"
y1="-1082.070" x2="767.725" y2="-1082.537"
style="stroke:rgb(96,176,207);stroke-width:1" /><line x1="767.444"
y1="-1081.135" x2="766.883" y2="-1080.481"
style="stroke:rgb(96,176,207);stroke-width:1" /><line x1="768.006"
y1="-1080.948" x2="767.444" y2="-1081.135"
style="stroke:rgb(96,176,207);stroke-width:1" /><line x1="762.112"
y1="-1080.855" x2="761.270" y2="-1080.575"
style="stroke:rgb(96,176,207);stroke-width:1" /><line x1="762.580"
y1="-1080.388" x2="762.112" y2="-1080.855"
style="stroke:rgb(96,176,207);stroke-width:1" /><line x1="741.890"
y1="-986.035" x2="745.082" y2="-986.718"
style="stroke:rgb(96,176,207);stroke-width:1" /><line x1="737.785"
y1="-983.984" x2="741.890" y2="-986.035"
style="stroke:rgb(96,176,207);stroke-width:1" /><line x1="735.277"
y1="-984.212" x2="737.785" y2="-983.984"
style="stroke:rgb(96,176,207);stroke-width:1" /><line x1="739.609"
y1="-987.174" x2="744.170" y2="-991.047"
style="stroke:rgb(96,176,207);stroke-width:1" /><line x1="736.189"
y1="-984.895" x2="739.609" y2="-987.174"
style="stroke:rgb(96,176,207);stroke-width:1" /><line x1="776.093"
y1="-983.301" x2="773.585" y2="-984.212"
style="stroke:rgb(96,176,207);stroke-width:1" /><line x1="776.778"
y1="-986.262" x2="776.093" y2="-983.301"
style="stroke:rgb(96,176,207);stroke-width:1" /><line x1="778.865"
y1="-986.897" x2="777.177" y2="-986.378"
style="stroke:rgb(96,176,207);stroke-width:1" /><line x1="779.124"
y1="-987.934" x2="778.865" y2="-986.897"
style="stroke:rgb(96,176,207);stroke-width:1" /><line x1="780.033"
y1="-988.064" x2="779.124" y2="-987.934"
style="stroke:rgb(96,176,207);stroke-width:1" /><line x1="780.552"
y1="-989.491" x2="780.033" y2="-988.064"
style="stroke:rgb(96,176,207);stroke-width:1" /><line x1="781.331"
y1="-989.750" x2="780.552" y2="-989.491"
style="stroke:rgb(96,176,207);stroke-width:1" /><line x1="758.583"
y1="-959.752" x2="760.183" y2="-986.923"
style="stroke:rgb(96,176,207);stroke-width:1" /><line x1="757.783"
y1="-957.088" x2="758.583" y2="-959.752"
style="stroke:rgb(96,176,207);stroke-width:1" /><line x1="754.050"
y1="-918.994" x2="757.783" y2="-957.088"
style="stroke:rgb(96,176,207);stroke-width:1" /><line x1="752.984"
y1="-917.662" x2="754.050" y2="-918.994"
style="stroke:rgb(96,176,207);stroke-width:1" /><line x1="756.183"
y1="-914.732" x2="752.984" y2="-917.662"
style="stroke:rgb(96,176,207);stroke-width:1" /><line x1="757.250"
y1="-912.867" x2="756.183" y2="-914.732"
style="stroke:rgb(96,176,207);stroke-width:1" /><line x1="756.183"
y1="-910.736" x2="757.250" y2="-912.867"
style="stroke:rgb(96,176,207);stroke-width:1" /><line x1="748.451"
y1="-911.003" x2="756.183" y2="-910.736"
style="stroke:rgb(96,176,207);stroke-width:1" /><line x1="744.452"
y1="-911.269" x2="748.451" y2="-911.003"
style="stroke:rgb(96,176,207);stroke-width:1" /><line x1="744.452"
y1="-912.867" x2="744.452" y2="-911.269"
style="stroke:rgb(96,176,207);stroke-width:1" /><line x1="746.052"
y1="-914.466" x2="744.452" y2="-912.867"
style="stroke:rgb(96,176,207);stroke-width:1" /><line x1="747.652"
y1="-917.662" x2="746.052" y2="-914.466"
style="stroke:rgb(96,176,207);stroke-width:1" /><line x1="744.985"
y1="-918.462" x2="747.652" y2="-917.662"
style="stroke:rgb(96,176,207);stroke-width:1" /><line x1="744.452"
y1="-957.887" x2="744.985" y2="-918.462"
style="stroke:rgb(96,176,207);stroke-width:1" /><line x1="745.252"
y1="-960.817" x2="744.452" y2="-957.887"
style="stroke:rgb(96,176,207);stroke-width:1" /><line x1="771.380"
y1="-958.952" x2="771.914" y2="-960.284"
style="stroke:rgb(96,176,207);stroke-width:1" /><line x1="771.914"
y1="-956.555" x2="771.380" y2="-958.952"
style="stroke:rgb(96,176,207);stroke-width:1" /><line x1="770.581"
y1="-917.396" x2="771.914" y2="-956.555"
style="stroke:rgb(96,176,207);stroke-width:1" /><line x1="776.713"
y1="-913.400" x2="770.581" y2="-917.396"
style="stroke:rgb(96,176,207);stroke-width:1" /><line x1="776.713"
y1="-911.003" x2="776.713" y2="-913.400"
style="stroke:rgb(96,176,207);stroke-width:1" /><line x1="773.513"
y1="-911.003" x2="776.713" y2="-911.003"
style="stroke:rgb(96,176,207);stroke-width:1" /><line x1="768.448"
y1="-910.736" x2="773.513" y2="-911.003"
style="stroke:rgb(96,176,207);stroke-width:1" /><line x1="760.716"
y1="-911.269" x2="768.448" y2="-910.736"
style="stroke:rgb(96,176,207);stroke-width:1" /><line x1="760.716"
y1="-912.867" x2="760.716" y2="-911.269"
style="stroke:rgb(96,176,207);stroke-width:1" /><line x1="762.849"
y1="-917.130" x2="760.716" y2="-912.867"
style="stroke:rgb(96,176,207);stroke-width:1" /><line x1="761.782"
y1="-917.396" x2="762.849" y2="-917.130"
style="stroke:rgb(96,176,207);stroke-width:1" /><line x1="759.649"
y1="-956.289" x2="761.782" y2="-917.396"
style="stroke:rgb(96,176,207);stroke-width:1" /><line x1="760.183"
y1="-956.555" x2="759.649" y2="-956.289"
style="stroke:rgb(96,176,207);stroke-width:1" /><line x1="759.116"
y1="-959.219" x2="760.183" y2="-956.555"
style="stroke:rgb(96,176,207);stroke-width:1" /><line x1="764.715"
y1="-916.863" x2="764.182" y2="-916.863"
style="stroke:rgb(96,176,207);stroke-width:1" /><line x1="768.448"
y1="-919.261" x2="764.715" y2="-916.863"
style="stroke:rgb(96,176,207);stroke-width:1" /><line x1="768.981"
y1="-917.929" x2="768.448" y2="-919.261"
style="stroke:rgb(96,176,207);stroke-width:1" /><line x1="748.718"
y1="-920.593" x2="746.052" y2="-918.994"
style="stroke:rgb(96,176,207);stroke-width:1" /><line x1="751.917"
y1="-919.527" x2="748.718" y2="-920.593"
style="stroke:rgb(96,176,207);stroke-width:1" /><line x1="740.749"
y1="-1014.058" x2="735.277" y2="-984.212"
style="stroke:rgb(96,176,207);stroke-width:1" /><line x1="744.170"
y1="-991.047" x2="751.011" y2="-994.009"
style="stroke:rgb(96,176,207);stroke-width:1" /><line x1="777.918"
y1="-991.503" x2="776.778" y2="-986.262"
style="stroke:rgb(96,176,207);stroke-width:1" /><line x1="780.422"
y1="-996.494" x2="781.331" y2="-989.750"
style="stroke:rgb(96,176,207);stroke-width:1" /><line x1="760.183"
y1="-986.923" x2="764.448" y2="-994.915"
style="stroke:rgb(96,176,207);stroke-width:1" /><line x1="745.252"
y1="-991.718" x2="745.252" y2="-960.817"
style="stroke:rgb(96,176,207);stroke-width:1" /><line x1="771.914"
y1="-960.284" x2="774.313" y2="-997.579"
style="stroke:rgb(96,176,207);stroke-width:1" /></g></svg>
