<?xml version="1.0" encoding="utf-8"?><svg><g
transform="translate(0,1200)"><rect x="0" y="-1199" width="1599"
height="1199" style="fill:rgb(0,0,0)" /><line x1=" 0.000" y1="-0.000"
x2="1600.000" y2="-0.000" style="stroke:rgb(99,99,99);stroke-width:1" /><line
x1="1600.000" y1="-0.000" x2="1600.000" y2="-1200.000"
style="stroke:rgb(99,99,99);stroke-width:1" /><line x1="1600.000"
y1="-1200.000" x2=" 0.000" y2="-1200.000"
style="stroke:rgb(99,99,99);stroke-width:1" /><line x1=" 0.000"
y1="-1200.000" x2=" 0.000" y2="-0.000"
style="stroke:rgb(99,99,99);stroke-width:1" /><line x1="146.877"
y1="-134.245" x2="146.877" y2="-1100.245"
style="stroke:rgb(0,0,255);stroke-width:3" /><line x1="146.877"
y1="-1100.245" x2="1462.877" y2="-1100.245"
style="stroke:rgb(0,0,255);stroke-width:3" /><line x1="1462.877"
y1="-134.245" x2="1462.877" y2="-1100.245"
style="stroke:rgb(0,0,255);stroke-width:3" /><line x1="146.877"
y1="-134.245" x2="1462.877" y2="-134.245"
style="stroke:rgb(0,0,255);stroke-width:3" /><arc cx="401.268"
cy="-628.457" r="86.578" ang1=" 1.637" ang2=" 4.647"
stroke="rgb(144,152,0)" stroke-width="1" /><line x1="470.137"
y1="-628.358" x2="499.398" y2="-628.358"
style="stroke:rgb(144,152,0);stroke-width:1" /><line x1="527.864"
y1="-628.284" x2="587.972" y2="-628.284"
style="stroke:rgb(47,47,47);stroke-width:10" /><line x1="541.436"
y1="-585.081" x2="587.644" y2="-614.470"
style="stroke:rgb(47,47,47);stroke-width:10" /><line x1="604.226"
y1="-628.401" x2="658.778" y2="-628.401"
style="stroke:rgb(144,152,0);stroke-width:1" /><circle cx="849.835"
cy="-544.810" r="20.660" stroke="rgb(128,128,128)" stroke-width="1"
fill="rgb(0,0,0)" /><circle cx="896.281" cy="-544.810" r="20.660"
stroke="rgb(128,128,128)" stroke-width="1" fill="rgb(0,0,0)" /><line
x1="846.039" y1="-572.658" x2="846.039" y2="-590.445"
style="stroke:rgb(128,128,128);stroke-width:1" /><line x1="851.710"
y1="-569.744" x2="851.710" y2="-587.532"
style="stroke:rgb(128,128,128);stroke-width:1" /><line x1="840.368"
y1="-583.085" x2="859.986" y2="-574.651"
style="stroke:rgb(128,128,128);stroke-width:1" /><line x1="891.641"
y1="-571.431" x2="891.641" y2="-589.219"
style="stroke:rgb(128,128,128);stroke-width:1" /><line x1="897.312"
y1="-568.518" x2="897.312" y2="-586.305"
style="stroke:rgb(128,128,128);stroke-width:1" /><line x1="885.970"
y1="-581.858" x2="905.588" y2="-573.425"
style="stroke:rgb(128,128,128);stroke-width:1" /><line x1="811.402"
y1="-547.063" x2="938.318" y2="-547.063"
style="stroke:rgb(128,128,128);stroke-width:1" /><circle cx="846.464"
cy="-689.827" r="20.660" stroke="rgb(128,128,128)" stroke-width="1"
fill="rgb(0,0,0)" /><circle cx="892.910" cy="-689.827" r="20.660"
stroke="rgb(128,128,128)" stroke-width="1" fill="rgb(0,0,0)" /><line
x1="842.668" y1="-717.675" x2="842.668" y2="-735.462"
style="stroke:rgb(128,128,128);stroke-width:1" /><line x1="848.339"
y1="-714.762" x2="848.339" y2="-732.549"
style="stroke:rgb(128,128,128);stroke-width:1" /><line x1="836.997"
y1="-728.102" x2="856.615" y2="-719.668"
style="stroke:rgb(128,128,128);stroke-width:1" /><line x1="888.270"
y1="-716.449" x2="888.270" y2="-734.236"
style="stroke:rgb(128,128,128);stroke-width:1" /><line x1="893.941"
y1="-713.535" x2="893.941" y2="-731.323"
style="stroke:rgb(128,128,128);stroke-width:1" /><line x1="882.599"
y1="-726.876" x2="902.217" y2="-718.442"
style="stroke:rgb(128,128,128);stroke-width:1" /><line x1="808.031"
y1="-692.080" x2="934.947" y2="-692.080"
style="stroke:rgb(128,128,128);stroke-width:1" /><line x1="294.987"
y1="-240.318" x2="294.960" y2="-1017.927"
style="stroke:rgb(144,152,0);stroke-width:1" /><arc cx="714.026"
cy="-629.329" r="86.578" ang1=" 4.778" ang2=" 1.505"
stroke="rgb(144,152,0)" stroke-width="1" /><line x1="973.954"
y1="-625.112" x2="973.954" y2="-501.175"
style="stroke:rgb(144,152,0);stroke-width:1" /><line x1="973.954"
y1="-501.175" x2="906.458" y2="-501.175"
style="stroke:rgb(144,152,0);stroke-width:1" /><line x1="906.458"
y1="-501.175" x2="906.458" y2="-394.207"
style="stroke:rgb(144,152,0);stroke-width:1" /><line x1="906.458"
y1="-394.207" x2="934.495" y2="-394.207"
style="stroke:rgb(144,152,0);stroke-width:1" /><line x1="934.495"
y1="-380.896" x2="934.495" y2="-407.461"
style="stroke:rgb(144,152,0);stroke-width:1" /><line x1="940.840"
y1="-380.896" x2="940.840" y2="-407.461"
style="stroke:rgb(144,152,0);stroke-width:1" /><circle cx="1003.518"
cy="-334.940" r="21.009" stroke="rgb(47,47,47)" stroke-width="3"
fill="rgb(0,0,0)" /><circle cx="1003.455" cy="-394.348" r="21.009"
stroke="rgb(47,47,47)" stroke-width="3" fill="rgb(0,0,0)" /><circle
cx="1003.455" cy="-451.013" r="21.009" stroke="rgb(47,47,47)"
stroke-width="3" fill="rgb(0,0,0)" /><line x1="982.446" y1="-394.348"
x2="940.840" y2="-394.348" style="stroke:rgb(144,152,0);stroke-width:1" /><line
x1="1024.464" y1="-394.348" x2="1039.314" y2="-394.348"
style="stroke:rgb(144,152,0);stroke-width:1" /><line x1="1039.389"
y1="-379.368" x2="1039.389" y2="-409.005"
style="stroke:rgb(144,152,0);stroke-width:1" /><line x1="1042.743"
y1="-383.871" x2="1042.743" y2="-403.158"
style="stroke:rgb(144,152,0);stroke-width:1" /><line x1="1046.461"
y1="-389.244" x2="1046.461" y2="-397.785"
style="stroke:rgb(144,152,0);stroke-width:1" /><line x1="973.954"
y1="-625.112" x2="973.954" y2="-752.757"
style="stroke:rgb(144,152,0);stroke-width:1" /><line x1="973.954"
y1="-752.757" x2="905.641" y2="-752.757"
style="stroke:rgb(144,152,0);stroke-width:1" /><line x1="905.641"
y1="-752.757" x2="905.641" y2="-920.955"
style="stroke:rgb(144,152,0);stroke-width:1" /><line x1="905.641"
y1="-920.955" x2="942.293" y2="-920.955"
style="stroke:rgb(144,152,0);stroke-width:1" /><line x1="950.299"
y1="-845.592" x2="1012.040" y2="-845.592"
style="stroke:rgb(47,47,47);stroke-width:3" /><line x1="969.338"
y1="-803.508" x2="1011.712" y2="-830.462"
style="stroke:rgb(0,255,0);stroke-width:3" /><line x1="934.954"
y1="-827.346" x2="934.954" y2="-858.793"
style="stroke:rgb(144,152,0);stroke-width:1" /><line x1="934.954"
y1="-842.122" x2="905.641" y2="-842.122"
style="stroke:rgb(144,152,0);stroke-width:1" /><line x1="1024.464"
y1="-841.460" x2="1039.314" y2="-841.460"
style="stroke:rgb(144,152,0);stroke-width:1" /><line x1="1039.389"
y1="-826.479" x2="1039.389" y2="-856.116"
style="stroke:rgb(144,152,0);stroke-width:1" /><line x1="1042.743"
y1="-830.983" x2="1042.743" y2="-850.270"
style="stroke:rgb(144,152,0);stroke-width:1" /><line x1="1046.461"
y1="-836.356" x2="1046.461" y2="-844.897"
style="stroke:rgb(144,152,0);stroke-width:1" /><line x1="947.687"
y1="-911.433" x2="1010.828" y2="-911.433"
style="stroke:rgb(144,152,0);stroke-width:2" /><line x1="1010.828"
y1="-911.433" x2="1010.828" y2="-930.562"
style="stroke:rgb(144,152,0);stroke-width:2" /><line x1="1010.828"
y1="-930.562" x2="947.687" y2="-930.562"
style="stroke:rgb(144,152,0);stroke-width:2" /><line x1="947.687"
y1="-930.562" x2="947.687" y2="-911.433"
style="stroke:rgb(144,152,0);stroke-width:2" /><line x1="942.293"
y1="-920.955" x2="957.131" y2="-920.955"
style="stroke:rgb(144,152,0);stroke-width:2" /><line x1="957.131"
y1="-914.606" x2="957.131" y2="-927.305"
style="stroke:rgb(144,152,0);stroke-width:2" /><line x1="957.131"
y1="-927.305" x2="992.844" y2="-920.955"
style="stroke:rgb(144,152,0);stroke-width:2" /><line x1="957.131"
y1="-914.606" x2="992.844" y2="-920.955"
style="stroke:rgb(144,152,0);stroke-width:2" /><line x1="1024.576"
y1="-921.116" x2="1039.426" y2="-921.116"
style="stroke:rgb(144,152,0);stroke-width:1" /><line x1="1039.500"
y1="-906.136" x2="1039.500" y2="-935.773"
style="stroke:rgb(144,152,0);stroke-width:1" /><line x1="1042.854"
y1="-910.639" x2="1042.854" y2="-929.927"
style="stroke:rgb(144,152,0);stroke-width:1" /><line x1="1046.572"
y1="-916.012" x2="1046.572" y2="-924.554"
style="stroke:rgb(144,152,0);stroke-width:1" /><line x1="800.599"
y1="-628.401" x2="1085.672" y2="-628.401"
style="stroke:rgb(144,152,0);stroke-width:1" /><circle cx="1234.583"
cy="-335.677" r="21.009" stroke="rgb(47,47,47)" stroke-width="3"
fill="rgb(0,0,0)" /><circle cx="1234.520" cy="-395.085" r="21.009"
stroke="rgb(47,47,47)" stroke-width="3" fill="rgb(0,0,0)" /><circle
cx="1234.520" cy="-451.750" r="21.009" stroke="rgb(47,47,47)"
stroke-width="3" fill="rgb(0,0,0)" /><circle cx="1137.686" cy="-578.593"
r="21.009" stroke="rgb(47,47,47)" stroke-width="3" fill="rgb(0,0,0)" /><line
x1="1094.575" y1="-261.289" x2="1094.575" y2="-619.250"
style="stroke:rgb(128,128,128);stroke-width:1" /><line x1="1094.575"
y1="-619.250" x2="1339.165" y2="-619.250"
style="stroke:rgb(128,128,128);stroke-width:1" /><line x1="1339.165"
y1="-619.250" x2="1339.165" y2="-261.289"
style="stroke:rgb(128,128,128);stroke-width:1" /><line x1="1339.165"
y1="-261.289" x2="1094.575" y2="-261.289"
style="stroke:rgb(128,128,128);stroke-width:1" /><circle cx="1234.583"
cy="-768.358" r="21.009" stroke="rgb(47,47,47)" stroke-width="3"
fill="rgb(0,0,0)" /><circle cx="1234.520" cy="-886.900" r="21.009"
stroke="rgb(255,0,0)" stroke-width="3" fill="rgb(0,0,0)" /><line
x1="1221.018" y1="-871.326" x2="1248.023" y2="-902.473"
style="stroke:rgb(255,0,0);stroke-width:3" /><line x1="1234.520"
y1="-886.900" x2="1221.955" y2="-903.238"
style="stroke:rgb(255,0,0);stroke-width:3" /><line x1="1234.520"
y1="-886.900" x2="1246.713" y2="-870.281"
style="stroke:rgb(255,0,0);stroke-width:3" /><line x1="1094.575"
y1="-653.148" x2="1094.575" y2="-1011.109"
style="stroke:rgb(128,128,128);stroke-width:1" /><line x1="1094.575"
y1="-1011.109" x2="1339.165" y2="-1011.109"
style="stroke:rgb(128,128,128);stroke-width:1" /><line x1="1339.165"
y1="-1011.109" x2="1339.165" y2="-653.148"
style="stroke:rgb(128,128,128);stroke-width:1" /><line x1="1339.165"
y1="-653.148" x2="1094.575" y2="-653.148"
style="stroke:rgb(128,128,128);stroke-width:1" /><line x1="599.793"
y1="-796.017" x2="636.105" y2="-821.914"
style="stroke:rgb(128,128,128);stroke-width:1" /><line x1="601.655"
y1="-811.656" x2="633.498" y2="-833.640"
style="stroke:rgb(128,128,128);stroke-width:1" /><line x1="636.200"
y1="-849.281" x2="599.406" y2="-824.074"
style="stroke:rgb(128,128,128);stroke-width:1" /><line x1="659.328"
y1="-796.017" x2="695.640" y2="-821.914"
style="stroke:rgb(128,128,128);stroke-width:1" /><line x1="661.190"
y1="-811.656" x2="693.033" y2="-833.640"
style="stroke:rgb(128,128,128);stroke-width:1" /><line x1="695.735"
y1="-849.281" x2="658.941" y2="-824.074"
style="stroke:rgb(128,128,128);stroke-width:1" /><arc cx="1139.286"
cy="-767.345" r="14.464" ang1=" 1.682" ang2=" 4.601" stroke="rgb(79,0,0)"
stroke-width="0" /><line x1="1137.685" y1="-752.970" x2="1151.510"
y2="-752.970" style="stroke:rgb(79,0,0);stroke-width:0" /><line
x1="1137.685" y1="-781.721" x2="1151.510" y2="-781.721"
style="stroke:rgb(79,0,0);stroke-width:0" /><line x1="1151.510"
y1="-747.294" x2="1151.510" y2="-787.426"
style="stroke:rgb(79,0,0);stroke-width:0" /><line x1="1151.510"
y1="-747.294" x2="1178.173" y2="-747.294"
style="stroke:rgb(79,0,0);stroke-width:0" /><line x1="1178.173"
y1="-747.294" x2="1178.173" y2="-787.426"
style="stroke:rgb(79,0,0);stroke-width:0" /><line x1="1178.173"
y1="-787.426" x2="1151.510" y2="-787.426"
style="stroke:rgb(79,0,0);stroke-width:0" /><arc cx="1139.003"
cy="-858.899" r="14.464" ang1=" 1.682" ang2=" 4.601"
stroke="rgb(15,72,0)" stroke-width="1" /><line x1="1137.402"
y1="-873.422" x2="1151.227" y2="-873.422"
style="stroke:rgb(15,72,0);stroke-width:1" /><line x1="1151.227"
y1="-867.746" x2="1151.227" y2="-907.878"
style="stroke:rgb(15,72,0);stroke-width:1" /><line x1="1151.227"
y1="-867.746" x2="1177.890" y2="-867.746"
style="stroke:rgb(15,72,0);stroke-width:1" /><line x1="1177.890"
y1="-867.746" x2="1177.890" y2="-907.878"
style="stroke:rgb(15,72,0);stroke-width:1" /><line x1="1177.890"
y1="-907.878" x2="1151.227" y2="-907.878"
style="stroke:rgb(15,72,0);stroke-width:1" /><line x1="665.881"
y1="-907.494" x2="665.881" y2="-945.780"
style="stroke:rgb(47,47,47);stroke-width:3" /><line x1="665.881"
y1="-945.780" x2="689.692" y2="-945.780"
style="stroke:rgb(47,47,47);stroke-width:3" /><line x1="689.692"
y1="-945.780" x2="689.692" y2="-907.494"
style="stroke:rgb(47,47,47);stroke-width:3" /><line x1="689.692"
y1="-907.494" x2="665.881" y2="-907.494"
style="stroke:rgb(47,47,47);stroke-width:3" /><line x1="606.346"
y1="-907.494" x2="606.346" y2="-945.780"
style="stroke:rgb(0,255,0);stroke-width:3" /><line x1="606.346"
y1="-945.780" x2="630.157" y2="-945.780"
style="stroke:rgb(0,255,0);stroke-width:3" /><line x1="630.157"
y1="-945.780" x2="630.157" y2="-907.494"
style="stroke:rgb(0,255,0);stroke-width:3" /><line x1="630.157"
y1="-907.494" x2="606.346" y2="-907.494"
style="stroke:rgb(0,255,0);stroke-width:3" /><line x1="1176.402"
y1="-557.230" x2="1176.402" y2="-601.324"
style="stroke:rgb(128,128,128);stroke-width:1" /><line x1="1176.402"
y1="-601.324" x2="1211.660" y2="-601.324"
style="stroke:rgb(128,128,128);stroke-width:1" /><line x1="1211.660"
y1="-601.324" x2="1211.660" y2="-557.230"
style="stroke:rgb(128,128,128);stroke-width:1" /><line x1="1211.660"
y1="-557.230" x2="1176.402" y2="-557.230"
style="stroke:rgb(128,128,128);stroke-width:1" /><line x1="527.864"
y1="-628.284" x2="587.972" y2="-628.284"
style="stroke:rgb(47,47,47);stroke-width:10" /><line x1="541.436"
y1="-585.081" x2="587.644" y2="-614.470"
style="stroke:rgb(47,47,47);stroke-width:10" /><line x1="950.299"
y1="-845.592" x2="1012.040" y2="-845.592"
style="stroke:rgb(47,47,47);stroke-width:10" /><line x1="969.338"
y1="-803.508" x2="1011.712" y2="-830.462"
style="stroke:rgb(0,255,0);stroke-width:10" /><line x1="487.260"
y1="-616.280" x2="511.537" y2="-640.437"
style="stroke:rgb(144,152,0);stroke-width:1" /><line x1="487.260"
y1="-640.437" x2="511.537" y2="-616.280"
style="stroke:rgb(144,152,0);stroke-width:1" /><line x1="646.639"
y1="-640.480" x2="670.916" y2="-616.323"
style="stroke:rgb(144,152,0);stroke-width:1" /><line x1="646.639"
y1="-616.323" x2="670.916" y2="-640.480"
style="stroke:rgb(144,152,0);stroke-width:1" /><line x1="402.892"
y1="-615.089" x2="402.892" y2="-581.204"
style="stroke:rgb(47,47,47);stroke-width:10" /><line x1="369.398"
y1="-628.401" x2="389.580" y2="-628.401"
style="stroke:rgb(47,47,47);stroke-width:10" /><line x1="355.694"
y1="-628.401" x2="389.580" y2="-628.401"
style="stroke:rgb(47,47,47);stroke-width:10" /><line x1="416.204"
y1="-628.401" x2="439.298" y2="-628.401"
style="stroke:rgb(47,47,47);stroke-width:10" /><line x1="416.204"
y1="-628.401" x2="450.089" y2="-628.401"
style="stroke:rgb(47,47,47);stroke-width:10" /><line x1="402.892"
y1="-641.713" x2="402.892" y2="-675.599"
style="stroke:rgb(47,47,47);stroke-width:10" /><line x1="314.691"
y1="-628.401" x2="294.973" y2="-628.401"
style="stroke:rgb(144,152,0);stroke-width:1" /><text id="101" x="178.109"
y="-165.471" transform="rotate( 1.571,0,0)" font-family="SimHei"
font-size="18" fill="rgb(0,255,0)"> ORT400</text><line x1="1234.583"
y1="-768.358" x2="1246.775" y2="-751.739"
style="stroke:rgb(47,47,47);stroke-width:3" /><line x1="1234.583"
y1="-768.358" x2="1222.017" y2="-784.697"
style="stroke:rgb(47,47,47);stroke-width:3" /><line x1="1221.080"
y1="-752.785" x2="1248.085" y2="-783.932"
style="stroke:rgb(47,47,47);stroke-width:3" /><line x1="1124.183"
y1="-563.020" x2="1151.188" y2="-594.166"
style="stroke:rgb(47,47,47);stroke-width:3" /><line x1="1137.686"
y1="-578.593" x2="1125.120" y2="-594.932"
style="stroke:rgb(47,47,47);stroke-width:3" /><line x1="1137.686"
y1="-578.593" x2="1149.878" y2="-561.974"
style="stroke:rgb(47,47,47);stroke-width:3" /><line x1="1221.018"
y1="-436.177" x2="1248.023" y2="-467.324"
style="stroke:rgb(47,47,47);stroke-width:3" /><line x1="1234.520"
y1="-451.750" x2="1221.955" y2="-468.089"
style="stroke:rgb(47,47,47);stroke-width:3" /><line x1="1234.520"
y1="-451.750" x2="1246.713" y2="-435.131"
style="stroke:rgb(47,47,47);stroke-width:3" /><line x1="1221.018"
y1="-379.512" x2="1248.023" y2="-410.658"
style="stroke:rgb(47,47,47);stroke-width:3" /><line x1="1234.520"
y1="-395.085" x2="1221.955" y2="-411.424"
style="stroke:rgb(47,47,47);stroke-width:3" /><line x1="1234.520"
y1="-395.085" x2="1246.713" y2="-378.466"
style="stroke:rgb(47,47,47);stroke-width:3" /><line x1="1221.080"
y1="-320.104" x2="1248.085" y2="-351.250"
style="stroke:rgb(47,47,47);stroke-width:3" /><line x1="1234.583"
y1="-335.677" x2="1222.017" y2="-352.016"
style="stroke:rgb(47,47,47);stroke-width:3" /><line x1="1234.583"
y1="-335.677" x2="1246.775" y2="-319.058"
style="stroke:rgb(47,47,47);stroke-width:3" /><line x1="989.953"
y1="-435.440" x2="1016.958" y2="-466.586"
style="stroke:rgb(47,47,47);stroke-width:3" /><line x1="1003.455"
y1="-451.013" x2="990.890" y2="-467.352"
style="stroke:rgb(47,47,47);stroke-width:3" /><line x1="1003.455"
y1="-451.013" x2="1015.648" y2="-434.394"
style="stroke:rgb(47,47,47);stroke-width:3" /><line x1="989.953"
y1="-378.774" x2="1016.958" y2="-409.921"
style="stroke:rgb(47,47,47);stroke-width:3" /><line x1="1003.455"
y1="-394.348" x2="990.890" y2="-410.687"
style="stroke:rgb(47,47,47);stroke-width:3" /><line x1="1003.455"
y1="-394.348" x2="1015.648" y2="-377.729"
style="stroke:rgb(47,47,47);stroke-width:3" /><line x1="990.015"
y1="-319.367" x2="1017.020" y2="-350.513"
style="stroke:rgb(47,47,47);stroke-width:3" /><line x1="1003.518"
y1="-334.940" x2="990.952" y2="-351.279"
style="stroke:rgb(47,47,47);stroke-width:3" /><line x1="1003.518"
y1="-334.940" x2="1015.710" y2="-318.321"
style="stroke:rgb(47,47,47);stroke-width:3" /><line x1="732.078"
y1="-615.089" x2="732.078" y2="-581.204"
style="stroke:rgb(47,47,47);stroke-width:10" /><line x1="684.880"
y1="-628.401" x2="718.766" y2="-628.401"
style="stroke:rgb(47,47,47);stroke-width:10" /><line x1="698.584"
y1="-628.401" x2="718.766" y2="-628.401"
style="stroke:rgb(47,47,47);stroke-width:10" /><line x1="732.078"
y1="-641.713" x2="732.078" y2="-675.599"
style="stroke:rgb(47,47,47);stroke-width:10" /><line x1="745.390"
y1="-628.401" x2="779.275" y2="-628.401"
style="stroke:rgb(47,47,47);stroke-width:10" /><line x1="745.390"
y1="-628.401" x2="768.484" y2="-628.401"
style="stroke:rgb(47,47,47);stroke-width:10" /><arc cx="617.876"
cy="-856.399" r="19.880" ang1=" 2.828" ang2=" 0.351"
stroke="rgb(128,128,128)" stroke-width="1" /><arc cx="618.247"
cy="-789.246" r="19.880" ang1=" 5.951" ang2=" 3.474"
stroke="rgb(128,128,128)" stroke-width="1" /><arc cx="677.411"
cy="-856.399" r="19.880" ang1=" 2.828" ang2=" 0.351"
stroke="rgb(128,128,128)" stroke-width="1" /><arc cx="677.782"
cy="-789.246" r="19.880" ang1=" 5.951" ang2=" 3.474"
stroke="rgb(128,128,128)" stroke-width="1" /><line x1="786.591"
y1="-997.563" x2="960.357" y2="-426.518"
style="stroke:rgb(99,99,99);stroke-width:1" /><line x1="1169.638"
y1="-840.651" x2="786.591" y2="-997.563"
style="stroke:rgb(99,99,99);stroke-width:1" /><line x1="960.357"
y1="-426.518" x2="918.983" y2="-461.325"
style="stroke:rgb(99,99,99);stroke-width:1" /><line x1="960.357"
y1="-426.518" x2="962.707" y2="-481.720"
style="stroke:rgb(99,99,99);stroke-width:1" /><line x1="1169.638"
y1="-840.651" x2="1154.828" y2="-864.011"
style="stroke:rgb(99,99,99);stroke-width:1" /><line x1="1169.638"
y1="-840.651" x2="1146.254" y2="-831.307"
style="stroke:rgb(99,99,99);stroke-width:1" /><line x1="774.411"
y1="-948.528" x2="776.811" y2="-985.822"
style="stroke:rgb(96,176,207);stroke-width:1" /><line x1="747.750"
y1="-979.961" x2="747.750" y2="-949.060"
style="stroke:rgb(96,176,207);stroke-width:1" /><line x1="762.680"
y1="-975.166" x2="766.946" y2="-983.158"
style="stroke:rgb(96,176,207);stroke-width:1" /><line x1="782.920"
y1="-984.737" x2="783.829" y2="-977.993"
style="stroke:rgb(96,176,207);stroke-width:1" /><line x1="780.416"
y1="-979.746" x2="779.275" y2="-974.506"
style="stroke:rgb(96,176,207);stroke-width:1" /><line x1="746.668"
y1="-979.290" x2="753.508" y2="-982.252"
style="stroke:rgb(96,176,207);stroke-width:1" /><line x1="743.247"
y1="-1002.301" x2="737.775" y2="-972.455"
style="stroke:rgb(96,176,207);stroke-width:1" /><line x1="754.415"
y1="-907.770" x2="751.216" y2="-908.836"
style="stroke:rgb(96,176,207);stroke-width:1" /><line x1="751.216"
y1="-908.836" x2="748.550" y2="-907.238"
style="stroke:rgb(96,176,207);stroke-width:1" /><line x1="771.479"
y1="-906.172" x2="770.945" y2="-907.504"
style="stroke:rgb(96,176,207);stroke-width:1" /><line x1="770.945"
y1="-907.504" x2="767.213" y2="-905.106"
style="stroke:rgb(96,176,207);stroke-width:1" /><line x1="767.213"
y1="-905.106" x2="766.680" y2="-905.106"
style="stroke:rgb(96,176,207);stroke-width:1" /><line x1="761.614"
y1="-947.462" x2="762.680" y2="-944.798"
style="stroke:rgb(96,176,207);stroke-width:1" /><line x1="762.680"
y1="-944.798" x2="762.147" y2="-944.532"
style="stroke:rgb(96,176,207);stroke-width:1" /><line x1="762.147"
y1="-944.532" x2="764.280" y2="-905.639"
style="stroke:rgb(96,176,207);stroke-width:1" /><line x1="764.280"
y1="-905.639" x2="765.347" y2="-905.373"
style="stroke:rgb(96,176,207);stroke-width:1" /><line x1="765.347"
y1="-905.373" x2="763.214" y2="-901.111"
style="stroke:rgb(96,176,207);stroke-width:1" /><line x1="763.214"
y1="-901.111" x2="763.214" y2="-899.512"
style="stroke:rgb(96,176,207);stroke-width:1" /><line x1="763.214"
y1="-899.512" x2="770.945" y2="-898.980"
style="stroke:rgb(96,176,207);stroke-width:1" /><line x1="770.945"
y1="-898.980" x2="776.011" y2="-899.246"
style="stroke:rgb(96,176,207);stroke-width:1" /><line x1="776.011"
y1="-899.246" x2="779.211" y2="-899.246"
style="stroke:rgb(96,176,207);stroke-width:1" /><line x1="779.211"
y1="-899.246" x2="779.211" y2="-901.643"
style="stroke:rgb(96,176,207);stroke-width:1" /><line x1="779.211"
y1="-901.643" x2="773.078" y2="-905.639"
style="stroke:rgb(96,176,207);stroke-width:1" /><line x1="773.078"
y1="-905.639" x2="774.411" y2="-944.798"
style="stroke:rgb(96,176,207);stroke-width:1" /><line x1="774.411"
y1="-944.798" x2="773.878" y2="-947.196"
style="stroke:rgb(96,176,207);stroke-width:1" /><line x1="773.878"
y1="-947.196" x2="774.411" y2="-948.528"
style="stroke:rgb(96,176,207);stroke-width:1" /><line x1="747.750"
y1="-949.060" x2="746.950" y2="-946.130"
style="stroke:rgb(96,176,207);stroke-width:1" /><line x1="746.950"
y1="-946.130" x2="747.483" y2="-906.705"
style="stroke:rgb(96,176,207);stroke-width:1" /><line x1="747.483"
y1="-906.705" x2="750.149" y2="-905.906"
style="stroke:rgb(96,176,207);stroke-width:1" /><line x1="750.149"
y1="-905.906" x2="748.550" y2="-902.709"
style="stroke:rgb(96,176,207);stroke-width:1" /><line x1="748.550"
y1="-902.709" x2="746.950" y2="-901.111"
style="stroke:rgb(96,176,207);stroke-width:1" /><line x1="746.950"
y1="-901.111" x2="746.950" y2="-899.512"
style="stroke:rgb(96,176,207);stroke-width:1" /><line x1="746.950"
y1="-899.512" x2="750.949" y2="-899.246"
style="stroke:rgb(96,176,207);stroke-width:1" /><line x1="750.949"
y1="-899.246" x2="758.681" y2="-898.980"
style="stroke:rgb(96,176,207);stroke-width:1" /><line x1="758.681"
y1="-898.980" x2="759.748" y2="-901.111"
style="stroke:rgb(96,176,207);stroke-width:1" /><line x1="759.748"
y1="-901.111" x2="758.681" y2="-902.975"
style="stroke:rgb(96,176,207);stroke-width:1" /><line x1="758.681"
y1="-902.975" x2="755.482" y2="-905.906"
style="stroke:rgb(96,176,207);stroke-width:1" /><line x1="755.482"
y1="-905.906" x2="756.548" y2="-907.238"
style="stroke:rgb(96,176,207);stroke-width:1" /><line x1="756.548"
y1="-907.238" x2="760.281" y2="-945.331"
style="stroke:rgb(96,176,207);stroke-width:1" /><line x1="760.281"
y1="-945.331" x2="761.081" y2="-947.995"
style="stroke:rgb(96,176,207);stroke-width:1" /><line x1="761.081"
y1="-947.995" x2="762.680" y2="-975.166"
style="stroke:rgb(96,176,207);stroke-width:1" /><line x1="783.829"
y1="-977.993" x2="783.050" y2="-977.734"
style="stroke:rgb(96,176,207);stroke-width:1" /><line x1="783.050"
y1="-977.734" x2="782.531" y2="-976.307"
style="stroke:rgb(96,176,207);stroke-width:1" /><line x1="782.531"
y1="-976.307" x2="781.622" y2="-976.178"
style="stroke:rgb(96,176,207);stroke-width:1" /><line x1="781.622"
y1="-976.178" x2="781.363" y2="-975.140"
style="stroke:rgb(96,176,207);stroke-width:1" /><line x1="781.363"
y1="-975.140" x2="779.675" y2="-974.621"
style="stroke:rgb(96,176,207);stroke-width:1" /><line x1="779.275"
y1="-974.506" x2="778.591" y2="-971.544"
style="stroke:rgb(96,176,207);stroke-width:1" /><line x1="778.591"
y1="-971.544" x2="776.083" y2="-972.455"
style="stroke:rgb(96,176,207);stroke-width:1" /><line x1="738.687"
y1="-973.139" x2="742.107" y2="-975.417"
style="stroke:rgb(96,176,207);stroke-width:1" /><line x1="742.107"
y1="-975.417" x2="746.668" y2="-979.290"
style="stroke:rgb(96,176,207);stroke-width:1" /><line x1="737.775"
y1="-972.455" x2="740.283" y2="-972.227"
style="stroke:rgb(96,176,207);stroke-width:1" /><line x1="740.283"
y1="-972.227" x2="744.387" y2="-974.278"
style="stroke:rgb(96,176,207);stroke-width:1" /><line x1="744.387"
y1="-974.278" x2="747.580" y2="-974.961"
style="stroke:rgb(96,176,207);stroke-width:1" /><line x1="765.078"
y1="-1068.631" x2="764.610" y2="-1069.098"
style="stroke:rgb(96,176,207);stroke-width:1" /><line x1="764.610"
y1="-1069.098" x2="763.768" y2="-1068.818"
style="stroke:rgb(96,176,207);stroke-width:1" /><line x1="770.503"
y1="-1069.192" x2="769.942" y2="-1069.379"
style="stroke:rgb(96,176,207);stroke-width:1" /><line x1="769.942"
y1="-1069.379" x2="769.381" y2="-1068.724"
style="stroke:rgb(96,176,207);stroke-width:1" /><line x1="772.374"
y1="-1070.313" x2="770.223" y2="-1070.781"
style="stroke:rgb(96,176,207);stroke-width:1" /><line x1="770.223"
y1="-1070.781" x2="768.071" y2="-1069.939"
style="stroke:rgb(96,176,207);stroke-width:1" /><line x1="771.720"
y1="-1069.472" x2="769.568" y2="-1069.566"
style="stroke:rgb(96,176,207);stroke-width:1" /><line x1="769.568"
y1="-1069.566" x2="768.071" y2="-1069.005"
style="stroke:rgb(96,176,207);stroke-width:1" /><line x1="768.071"
y1="-1069.005" x2="768.445" y2="-1068.444"
style="stroke:rgb(96,176,207);stroke-width:1" /><line x1="768.445"
y1="-1068.444" x2="769.474" y2="-1068.537"
style="stroke:rgb(96,176,207);stroke-width:1" /><line x1="769.474"
y1="-1068.537" x2="771.252" y2="-1069.005"
style="stroke:rgb(96,176,207);stroke-width:1" /><line x1="766.013"
y1="-1069.846" x2="764.797" y2="-1070.781"
style="stroke:rgb(96,176,207);stroke-width:1" /><line x1="764.797"
y1="-1070.781" x2="761.897" y2="-1070.500"
style="stroke:rgb(96,176,207);stroke-width:1" /><line x1="761.897"
y1="-1070.500" x2="761.429" y2="-1069.752"
style="stroke:rgb(96,176,207);stroke-width:1" /><line x1="762.271"
y1="-1069.566" x2="763.487" y2="-1069.659"
style="stroke:rgb(96,176,207);stroke-width:1" /><line x1="763.487"
y1="-1069.659" x2="765.078" y2="-1069.472"
style="stroke:rgb(96,176,207);stroke-width:1" /><line x1="765.078"
y1="-1069.472" x2="765.826" y2="-1069.005"
style="stroke:rgb(96,176,207);stroke-width:1" /><line x1="765.826"
y1="-1069.005" x2="765.358" y2="-1068.444"
style="stroke:rgb(96,176,207);stroke-width:1" /><line x1="765.358"
y1="-1068.444" x2="764.142" y2="-1068.350"
style="stroke:rgb(96,176,207);stroke-width:1" /><line x1="764.142"
y1="-1068.350" x2="762.271" y2="-1069.005"
style="stroke:rgb(96,176,207);stroke-width:1" /><line x1="769.661"
y1="-1061.714" x2="768.071" y2="-1062.181"
style="stroke:rgb(96,176,207);stroke-width:1" /><line x1="768.071"
y1="-1062.181" x2="767.229" y2="-1062.088"
style="stroke:rgb(96,176,207);stroke-width:1" /><line x1="767.229"
y1="-1062.088" x2="765.265" y2="-1061.808"
style="stroke:rgb(96,176,207);stroke-width:1" /><line x1="769.007"
y1="-1064.331" x2="768.726" y2="-1063.864"
style="stroke:rgb(96,176,207);stroke-width:1" /><line x1="768.726"
y1="-1063.864" x2="766.668" y2="-1063.957"
style="stroke:rgb(96,176,207);stroke-width:1" /><line x1="766.668"
y1="-1063.957" x2="765.639" y2="-1064.425"
style="stroke:rgb(96,176,207);stroke-width:1" /><line x1="756.284"
y1="-1070.220" x2="755.816" y2="-1070.874"
style="stroke:rgb(96,176,207);stroke-width:1" /><line x1="755.816"
y1="-1070.874" x2="754.974" y2="-1071.154"
style="stroke:rgb(96,176,207);stroke-width:1" /><line x1="754.974"
y1="-1071.154" x2="754.319" y2="-1070.500"
style="stroke:rgb(96,176,207);stroke-width:1" /><line x1="754.319"
y1="-1070.500" x2="753.945" y2="-1069.566"
style="stroke:rgb(96,176,207);stroke-width:1" /><line x1="753.945"
y1="-1069.566" x2="754.226" y2="-1067.790"
style="stroke:rgb(96,176,207);stroke-width:1" /><line x1="754.226"
y1="-1067.790" x2="754.787" y2="-1066.481"
style="stroke:rgb(96,176,207);stroke-width:1" /><line x1="754.787"
y1="-1066.481" x2="755.816" y2="-1065.359"
style="stroke:rgb(96,176,207);stroke-width:1" /><line x1="755.816"
y1="-1065.359" x2="756.471" y2="-1064.518"
style="stroke:rgb(96,176,207);stroke-width:1" /><line x1="756.471"
y1="-1064.518" x2="757.032" y2="-1064.238"
style="stroke:rgb(96,176,207);stroke-width:1" /><line x1="757.032"
y1="-1064.238" x2="757.219" y2="-1064.799"
style="stroke:rgb(96,176,207);stroke-width:1" /><line x1="768.352"
y1="-1061.060" x2="766.668" y2="-1060.966"
style="stroke:rgb(96,176,207);stroke-width:1" /><line x1="769.942"
y1="-1056.854" x2="770.036" y2="-1056.573"
style="stroke:rgb(96,176,207);stroke-width:1" /><line x1="770.036"
y1="-1056.573" x2="767.884" y2="-1056.293"
style="stroke:rgb(96,176,207);stroke-width:1" /><line x1="757.032"
y1="-1057.415" x2="756.658" y2="-1056.854"
style="stroke:rgb(96,176,207);stroke-width:1" /><line x1="756.658"
y1="-1056.854" x2="759.745" y2="-1056.386"
style="stroke:rgb(96,176,207);stroke-width:1" /><line x1="759.745"
y1="-1056.386" x2="763.300" y2="-1056.386"
style="stroke:rgb(96,176,207);stroke-width:1" /><line x1="767.978"
y1="-1054.704" x2="766.574" y2="-1051.619"
style="stroke:rgb(96,176,207);stroke-width:1" /><line x1="766.574"
y1="-1051.619" x2="765.920" y2="-1051.059"
style="stroke:rgb(96,176,207);stroke-width:1" /><line x1="765.920"
y1="-1051.059" x2="764.236" y2="-1051.713"
style="stroke:rgb(96,176,207);stroke-width:1" /><line x1="764.236"
y1="-1051.713" x2="763.113" y2="-1054.423"
style="stroke:rgb(96,176,207);stroke-width:1" /><line x1="769.287"
y1="-1057.228" x2="770.129" y2="-1057.228"
style="stroke:rgb(96,176,207);stroke-width:1" /><line x1="770.129"
y1="-1057.228" x2="770.784" y2="-1056.760"
style="stroke:rgb(96,176,207);stroke-width:1" /><line x1="770.784"
y1="-1056.760" x2="772.187" y2="-1050.872"
style="stroke:rgb(96,176,207);stroke-width:1" /><line x1="772.187"
y1="-1050.872" x2="768.539" y2="-1054.704"
style="stroke:rgb(96,176,207);stroke-width:1" /><line x1="768.539"
y1="-1054.704" x2="766.949" y2="-1056.199"
style="stroke:rgb(96,176,207);stroke-width:1" /><line x1="766.949"
y1="-1056.199" x2="763.768" y2="-1056.106"
style="stroke:rgb(96,176,207);stroke-width:1" /><line x1="763.768"
y1="-1056.106" x2="759.839" y2="-1050.217"
style="stroke:rgb(96,176,207);stroke-width:1" /><line x1="759.839"
y1="-1050.217" x2="756.658" y2="-1052.274"
style="stroke:rgb(96,176,207);stroke-width:1" /><line x1="756.658"
y1="-1052.274" x2="754.787" y2="-1053.489"
style="stroke:rgb(96,176,207);stroke-width:1" /><line x1="754.787"
y1="-1053.489" x2="755.348" y2="-1055.358"
style="stroke:rgb(96,176,207);stroke-width:1" /><line x1="755.348"
y1="-1055.358" x2="755.629" y2="-1057.508"
style="stroke:rgb(96,176,207);stroke-width:1" /><line x1="755.629"
y1="-1057.508" x2="756.565" y2="-1057.415"
style="stroke:rgb(96,176,207);stroke-width:1" /><line x1="755.442"
y1="-1065.546" x2="756.378" y2="-1063.210"
style="stroke:rgb(96,176,207);stroke-width:1" /><line x1="756.378"
y1="-1063.210" x2="756.752" y2="-1059.471"
style="stroke:rgb(96,176,207);stroke-width:1" /><line x1="756.752"
y1="-1059.471" x2="756.939" y2="-1057.415"
style="stroke:rgb(96,176,207);stroke-width:1" /><line x1="772.094"
y1="-1077.417" x2="771.532" y2="-1078.071"
style="stroke:rgb(96,176,207);stroke-width:1" /><line x1="771.532"
y1="-1078.071" x2="767.603" y2="-1078.258"
style="stroke:rgb(96,176,207);stroke-width:1" /><line x1="767.603"
y1="-1078.258" x2="763.207" y2="-1078.165"
style="stroke:rgb(96,176,207);stroke-width:1" /><line x1="763.207"
y1="-1078.165" x2="761.149" y2="-1077.791"
style="stroke:rgb(96,176,207);stroke-width:1" /><line x1="761.149"
y1="-1077.791" x2="759.090" y2="-1076.950"
style="stroke:rgb(96,176,207);stroke-width:1" /><line x1="759.090"
y1="-1076.950" x2="758.061" y2="-1074.893"
style="stroke:rgb(96,176,207);stroke-width:1" /><line x1="758.061"
y1="-1074.893" x2="757.687" y2="-1072.930"
style="stroke:rgb(96,176,207);stroke-width:1" /><line x1="757.687"
y1="-1072.930" x2="756.658" y2="-1071.996"
style="stroke:rgb(96,176,207);stroke-width:1" /><line x1="756.658"
y1="-1071.996" x2="756.658" y2="-1071.154"
style="stroke:rgb(96,176,207);stroke-width:1" /><line x1="756.658"
y1="-1071.154" x2="756.284" y2="-1070.968"
style="stroke:rgb(96,176,207);stroke-width:1" /><line x1="768.352"
y1="-1056.667" x2="769.007" y2="-1057.695"
style="stroke:rgb(96,176,207);stroke-width:1" /><line x1="769.007"
y1="-1057.695" x2="769.942" y2="-1057.882"
style="stroke:rgb(96,176,207);stroke-width:1" /><line x1="769.942"
y1="-1057.882" x2="770.971" y2="-1059.097"
style="stroke:rgb(96,176,207);stroke-width:1" /><line x1="770.971"
y1="-1059.097" x2="772.187" y2="-1061.527"
style="stroke:rgb(96,176,207);stroke-width:1" /><line x1="772.187"
y1="-1061.527" x2="773.216" y2="-1065.920"
style="stroke:rgb(96,176,207);stroke-width:1" /><line x1="773.216"
y1="-1065.920" x2="772.468" y2="-1068.818"
style="stroke:rgb(96,176,207);stroke-width:1" /><line x1="772.468"
y1="-1068.818" x2="773.029" y2="-1070.033"
style="stroke:rgb(96,176,207);stroke-width:1" /><line x1="773.029"
y1="-1070.033" x2="773.029" y2="-1072.837"
style="stroke:rgb(96,176,207);stroke-width:1" /><line x1="773.029"
y1="-1072.837" x2="772.281" y2="-1077.137"
style="stroke:rgb(96,176,207);stroke-width:1" /><line x1="772.281"
y1="-1077.137" x2="772.468" y2="-1079.286"
style="stroke:rgb(96,176,207);stroke-width:1" /><line x1="772.468"
y1="-1079.286" x2="771.158" y2="-1080.595"
style="stroke:rgb(96,176,207);stroke-width:1" /><line x1="771.158"
y1="-1080.595" x2="766.200" y2="-1081.436"
style="stroke:rgb(96,176,207);stroke-width:1" /><line x1="766.200"
y1="-1081.436" x2="758.997" y2="-1081.062"
style="stroke:rgb(96,176,207);stroke-width:1" /><line x1="758.997"
y1="-1081.062" x2="756.190" y2="-1080.314"
style="stroke:rgb(96,176,207);stroke-width:1" /><line x1="756.190"
y1="-1080.314" x2="754.694" y2="-1077.697"
style="stroke:rgb(96,176,207);stroke-width:1" /><line x1="754.694"
y1="-1077.697" x2="753.945" y2="-1074.893"
style="stroke:rgb(96,176,207);stroke-width:1" /><line x1="753.945"
y1="-1074.893" x2="754.319" y2="-1072.557"
style="stroke:rgb(96,176,207);stroke-width:1" /><line x1="754.319"
y1="-1072.557" x2="754.974" y2="-1071.248"
style="stroke:rgb(96,176,207);stroke-width:1" /><line x1="756.929"
y1="-1021.894" x2="753.280" y2="-1022.350"
style="stroke:rgb(96,176,207);stroke-width:1" /><line x1="753.280"
y1="-1022.350" x2="748.492" y2="-1024.628"
style="stroke:rgb(96,176,207);stroke-width:1" /><line x1="748.492"
y1="-1024.628" x2="745.756" y2="-1024.628"
style="stroke:rgb(96,176,207);stroke-width:1" /><line x1="745.756"
y1="-1024.628" x2="747.352" y2="-1025.084"
style="stroke:rgb(96,176,207);stroke-width:1" /><line x1="747.352"
y1="-1025.084" x2="745.528" y2="-1033.058"
style="stroke:rgb(96,176,207);stroke-width:1" /><line x1="745.528"
y1="-1033.058" x2="748.036" y2="-1031.463"
style="stroke:rgb(96,176,207);stroke-width:1" /><line x1="771.979"
y1="-1003.212" x2="768.330" y2="-1002.301"
style="stroke:rgb(96,176,207);stroke-width:1" /><line x1="768.330"
y1="-1002.301" x2="763.770" y2="-1002.984"
style="stroke:rgb(96,176,207);stroke-width:1" /><line x1="756.441"
y1="-1020.661" x2="757.350" y2="-1020.790"
style="stroke:rgb(96,176,207);stroke-width:1" /><line x1="757.350"
y1="-1020.790" x2="758.258" y2="-1022.995"
style="stroke:rgb(96,176,207);stroke-width:1" /><line x1="758.258"
y1="-1022.995" x2="759.556" y2="-1024.422"
style="stroke:rgb(96,176,207);stroke-width:1" /><line x1="759.556"
y1="-1024.422" x2="760.725" y2="-1024.422"
style="stroke:rgb(96,176,207);stroke-width:1" /><line x1="760.725"
y1="-1024.422" x2="762.542" y2="-1024.811"
style="stroke:rgb(96,176,207);stroke-width:1" /><line x1="762.542"
y1="-1024.811" x2="763.061" y2="-1023.903"
style="stroke:rgb(96,176,207);stroke-width:1" /><line x1="763.061"
y1="-1023.903" x2="762.672" y2="-1022.865"
style="stroke:rgb(96,176,207);stroke-width:1" /><line x1="762.672"
y1="-1022.865" x2="761.244" y2="-1022.217"
style="stroke:rgb(96,176,207);stroke-width:1" /><line x1="761.244"
y1="-1022.217" x2="760.335" y2="-1021.050"
style="stroke:rgb(96,176,207);stroke-width:1" /><line x1="760.335"
y1="-1021.050" x2="761.893" y2="-1019.364"
style="stroke:rgb(96,176,207);stroke-width:1" /><line x1="761.893"
y1="-1019.364" x2="765.138" y2="-1017.418"
style="stroke:rgb(96,176,207);stroke-width:1" /><line x1="765.138"
y1="-1017.418" x2="765.397" y2="-1015.992"
style="stroke:rgb(96,176,207);stroke-width:1" /><line x1="765.397"
y1="-1015.992" x2="764.099" y2="-1015.733"
style="stroke:rgb(96,176,207);stroke-width:1" /><line x1="764.099"
y1="-1015.733" x2="766.046" y2="-1013.787"
style="stroke:rgb(96,176,207);stroke-width:1" /><line x1="766.046"
y1="-1013.787" x2="765.917" y2="-1013.009"
style="stroke:rgb(96,176,207);stroke-width:1" /><line x1="765.917"
y1="-1013.009" x2="765.268" y2="-1012.490"
style="stroke:rgb(96,176,207);stroke-width:1" /><line x1="765.268"
y1="-1012.490" x2="765.917" y2="-1011.453"
style="stroke:rgb(96,176,207);stroke-width:1" /><line x1="765.917"
y1="-1011.453" x2="765.138" y2="-1010.675"
style="stroke:rgb(96,176,207);stroke-width:1" /><line x1="765.138"
y1="-1010.675" x2="765.397" y2="-1009.248"
style="stroke:rgb(96,176,207);stroke-width:1" /><line x1="765.397"
y1="-1009.248" x2="764.748" y2="-1008.340"
style="stroke:rgb(96,176,207);stroke-width:1" /><line x1="764.748"
y1="-1008.340" x2="763.061" y2="-1008.859"
style="stroke:rgb(96,176,207);stroke-width:1" /><line x1="763.061"
y1="-1008.859" x2="760.205" y2="-1011.193"
style="stroke:rgb(96,176,207);stroke-width:1" /><line x1="760.205"
y1="-1011.193" x2="758.518" y2="-1013.787"
style="stroke:rgb(96,176,207);stroke-width:1" /><line x1="758.518"
y1="-1013.787" x2="756.441" y2="-1015.214"
style="stroke:rgb(96,176,207);stroke-width:1" /><line x1="756.441"
y1="-1015.214" x2="754.364" y2="-1014.695"
style="stroke:rgb(96,176,207);stroke-width:1" /><line x1="755.789"
y1="-1013.237" x2="753.737" y2="-1014.376"
style="stroke:rgb(96,176,207);stroke-width:1" /><line x1="753.737"
y1="-1014.376" x2="752.824" y2="-1017.566"
style="stroke:rgb(96,176,207);stroke-width:1" /><line x1="752.824"
y1="-1017.566" x2="753.508" y2="-1020.527"
style="stroke:rgb(96,176,207);stroke-width:1" /><line x1="753.508"
y1="-1020.527" x2="755.561" y2="-1021.667"
style="stroke:rgb(96,176,207);stroke-width:1" /><line x1="755.561"
y1="-1021.667" x2="756.929" y2="-1021.894"
style="stroke:rgb(96,176,207);stroke-width:1" /><line x1="764.572"
y1="-1050.761" x2="765.344" y2="-1041.896"
style="stroke:rgb(96,176,207);stroke-width:1" /><line x1="765.344"
y1="-1041.896" x2="764.765" y2="-1030.140"
style="stroke:rgb(96,176,207);stroke-width:1" /><line x1="764.765"
y1="-1030.140" x2="764.572" y2="-1024.936"
style="stroke:rgb(96,176,207);stroke-width:1" /><line x1="764.572"
y1="-1024.936" x2="763.415" y2="-1019.540"
style="stroke:rgb(96,176,207);stroke-width:1" /><line x1="751.228"
y1="-1051.968" x2="751.912" y2="-1048.095"
style="stroke:rgb(96,176,207);stroke-width:1" /><line x1="751.912"
y1="-1048.095" x2="754.877" y2="-1046.500"
style="stroke:rgb(96,176,207);stroke-width:1" /><line x1="754.877"
y1="-1046.500" x2="752.140" y2="-1045.361"
style="stroke:rgb(96,176,207);stroke-width:1" /><line x1="752.140"
y1="-1045.361" x2="754.877" y2="-1041.944"
style="stroke:rgb(96,176,207);stroke-width:1" /><line x1="754.877"
y1="-1041.944" x2="756.701" y2="-1034.653"
style="stroke:rgb(96,176,207);stroke-width:1" /><line x1="756.701"
y1="-1034.653" x2="758.297" y2="-1024.856"
style="stroke:rgb(96,176,207);stroke-width:1" /><line x1="755.105"
y1="-1053.791" x2="758.981" y2="-1045.817"
style="stroke:rgb(96,176,207);stroke-width:1" /><line x1="758.981"
y1="-1045.817" x2="761.945" y2="-1038.982"
style="stroke:rgb(96,176,207);stroke-width:1" /><line x1="761.945"
y1="-1038.982" x2="762.630" y2="-1030.096"
style="stroke:rgb(96,176,207);stroke-width:1" /><line x1="762.630"
y1="-1030.096" x2="762.858" y2="-1025.312"
style="stroke:rgb(96,176,207);stroke-width:1" /><line x1="772.207"
y1="-1054.019" x2="774.487" y2="-1051.285"
style="stroke:rgb(96,176,207);stroke-width:1" /><line x1="774.487"
y1="-1051.285" x2="775.171" y2="-1044.678"
style="stroke:rgb(96,176,207);stroke-width:1" /><line x1="775.171"
y1="-1044.678" x2="774.715" y2="-1033.514"
style="stroke:rgb(96,176,207);stroke-width:1" /><line x1="774.715"
y1="-1033.514" x2="772.435" y2="-1017.566"
style="stroke:rgb(96,176,207);stroke-width:1" /><line x1="767.418"
y1="-1051.513" x2="770.154" y2="-1042.627"
style="stroke:rgb(96,176,207);stroke-width:1" /><line x1="770.154"
y1="-1042.627" x2="771.295" y2="-1027.818"
style="stroke:rgb(96,176,207);stroke-width:1" /><line x1="771.295"
y1="-1027.818" x2="771.979" y2="-1014.832"
style="stroke:rgb(96,176,207);stroke-width:1" /><line x1="771.979"
y1="-1014.832" x2="772.891" y2="-1009.592"
style="stroke:rgb(96,176,207);stroke-width:1" /><line x1="772.891"
y1="-1009.592" x2="767.874" y2="-1004.351"
style="stroke:rgb(96,176,207);stroke-width:1" /><line x1="767.874"
y1="-1004.351" x2="764.226" y2="-1008.225"
style="stroke:rgb(96,176,207);stroke-width:1" /><line x1="777.223"
y1="-1051.740" x2="780.188" y2="-1048.323"
style="stroke:rgb(96,176,207);stroke-width:1" /><line x1="780.188"
y1="-1048.323" x2="777.679" y2="-1046.500"
style="stroke:rgb(96,176,207);stroke-width:1" /><line x1="777.679"
y1="-1046.500" x2="780.872" y2="-1044.222"
style="stroke:rgb(96,176,207);stroke-width:1" /><line x1="780.872"
y1="-1044.222" x2="778.363" y2="-1037.159"
style="stroke:rgb(96,176,207);stroke-width:1" /><line x1="778.363"
y1="-1037.159" x2="774.943" y2="-1024.628"
style="stroke:rgb(96,176,207);stroke-width:1" /><line x1="774.943"
y1="-1024.628" x2="772.891" y2="-1014.832"
style="stroke:rgb(96,176,207);stroke-width:1" /><line x1="772.891"
y1="-1014.832" x2="772.435" y2="-1012.553"
style="stroke:rgb(96,176,207);stroke-width:1" /><line x1="771.295"
y1="-1055.158" x2="776.311" y2="-1052.196"
style="stroke:rgb(96,176,207);stroke-width:1" /><line x1="776.311"
y1="-1052.196" x2="781.100" y2="-1050.146"
style="stroke:rgb(96,176,207);stroke-width:1" /><line x1="781.100"
y1="-1050.146" x2="783.608" y2="-1048.323"
style="stroke:rgb(96,176,207);stroke-width:1" /><line x1="783.608"
y1="-1048.323" x2="785.660" y2="-1045.361"
style="stroke:rgb(96,176,207);stroke-width:1" /><line x1="785.660"
y1="-1045.361" x2="787.484" y2="-1039.665"
style="stroke:rgb(96,176,207);stroke-width:1" /><line x1="787.484"
y1="-1039.665" x2="786.344" y2="-1028.729"
style="stroke:rgb(96,176,207);stroke-width:1" /><line x1="786.344"
y1="-1028.729" x2="787.028" y2="-1020.755"
style="stroke:rgb(96,176,207);stroke-width:1" /><line x1="787.028"
y1="-1020.755" x2="786.800" y2="-1018.249"
style="stroke:rgb(96,176,207);stroke-width:1" /><line x1="786.800"
y1="-1018.249" x2="782.924" y2="-996.150"
style="stroke:rgb(96,176,207);stroke-width:1" /><line x1="782.924"
y1="-996.150" x2="782.012" y2="-995.694"
style="stroke:rgb(96,176,207);stroke-width:1" /><line x1="782.012"
y1="-995.694" x2="781.556" y2="-991.821"
style="stroke:rgb(96,176,207);stroke-width:1" /><line x1="781.556"
y1="-991.821" x2="780.872" y2="-991.821"
style="stroke:rgb(96,176,207);stroke-width:1" /><line x1="780.872"
y1="-991.821" x2="780.188" y2="-991.821"
style="stroke:rgb(96,176,207);stroke-width:1" /><line x1="754.649"
y1="-1054.930" x2="750.544" y2="-1052.652"
style="stroke:rgb(96,176,207);stroke-width:1" /><line x1="750.544"
y1="-1052.652" x2="744.615" y2="-1050.601"
style="stroke:rgb(96,176,207);stroke-width:1" /><line x1="744.615"
y1="-1050.601" x2="739.827" y2="-1049.006"
style="stroke:rgb(96,176,207);stroke-width:1" /><line x1="739.827"
y1="-1049.006" x2="736.863" y2="-1044.450"
style="stroke:rgb(96,176,207);stroke-width:1" /><line x1="736.863"
y1="-1044.450" x2="735.494" y2="-1033.970"
style="stroke:rgb(96,176,207);stroke-width:1" /><line x1="735.494"
y1="-1033.970" x2="735.950" y2="-1021.894"
style="stroke:rgb(96,176,207);stroke-width:1" /><line x1="735.950"
y1="-1021.894" x2="738.915" y2="-1017.110"
style="stroke:rgb(96,176,207);stroke-width:1" /><line x1="738.915"
y1="-1017.110" x2="742.791" y2="-1013.693"
style="stroke:rgb(96,176,207);stroke-width:1" /><line x1="742.791"
y1="-1013.693" x2="745.756" y2="-1011.414"
style="stroke:rgb(96,176,207);stroke-width:1" /><line x1="745.756"
y1="-1011.414" x2="751.684" y2="-1011.414"
style="stroke:rgb(96,176,207);stroke-width:1" /><line x1="751.684"
y1="-1011.414" x2="755.105" y2="-1011.642"
style="stroke:rgb(96,176,207);stroke-width:1" /><line x1="755.105"
y1="-1011.642" x2="757.613" y2="-1013.009"
style="stroke:rgb(96,176,207);stroke-width:1" /><line x1="780.714"
y1="-991.481" x2="782.142" y2="-988.239"
style="stroke:rgb(96,176,207);stroke-width:1" /><line x1="782.142"
y1="-988.239" x2="782.920" y2="-984.737"
style="stroke:rgb(96,176,207);stroke-width:1" /><line x1="779.731"
y1="-983.163" x2="780.644" y2="-992.049"
style="stroke:rgb(96,176,207);stroke-width:1" /><line x1="780.644"
y1="-992.049" x2="780.644" y2="-999.111"
style="stroke:rgb(96,176,207);stroke-width:1" /><line x1="780.644"
y1="-999.111" x2="781.328" y2="-1005.946"
style="stroke:rgb(96,176,207);stroke-width:1" /><line x1="781.328"
y1="-1005.946" x2="781.328" y2="-1011.642"
style="stroke:rgb(96,176,207);stroke-width:1" /><line x1="781.328"
y1="-1011.642" x2="781.328" y2="-1017.794"
style="stroke:rgb(96,176,207);stroke-width:1" /><line x1="781.328"
y1="-1017.794" x2="780.872" y2="-1028.274"
style="stroke:rgb(96,176,207);stroke-width:1" /><line x1="780.872"
y1="-1028.274" x2="783.152" y2="-1035.109"
style="stroke:rgb(96,176,207);stroke-width:1" /><line x1="771.295"
y1="-1007.769" x2="772.435" y2="-1002.984"
style="stroke:rgb(96,176,207);stroke-width:1" /><line x1="772.435"
y1="-1002.984" x2="773.347" y2="-999.567"
style="stroke:rgb(96,176,207);stroke-width:1" /><line x1="773.347"
y1="-999.567" x2="773.347" y2="-993.188"
style="stroke:rgb(96,176,207);stroke-width:1" /><line x1="773.347"
y1="-993.188" x2="775.627" y2="-988.859"
style="stroke:rgb(96,176,207);stroke-width:1" /><line x1="775.627"
y1="-988.859" x2="778.135" y2="-986.125"
style="stroke:rgb(96,176,207);stroke-width:1" /><line x1="778.135"
y1="-986.125" x2="779.959" y2="-982.708"
style="stroke:rgb(96,176,207);stroke-width:1" /><line x1="779.959"
y1="-982.708" x2="780.416" y2="-979.746"
style="stroke:rgb(96,176,207);stroke-width:1" /><line x1="753.508"
y1="-982.252" x2="758.981" y2="-988.631"
style="stroke:rgb(96,176,207);stroke-width:1" /><line x1="758.981"
y1="-988.631" x2="763.314" y2="-995.238"
style="stroke:rgb(96,176,207);stroke-width:1" /><line x1="763.314"
y1="-995.238" x2="763.542" y2="-1001.390"
style="stroke:rgb(96,176,207);stroke-width:1" /><line x1="763.542"
y1="-1001.390" x2="763.086" y2="-1007.997"
style="stroke:rgb(96,176,207);stroke-width:1" /><line x1="742.563"
y1="-1013.237" x2="742.791" y2="-1010.275"
style="stroke:rgb(96,176,207);stroke-width:1" /><line x1="742.791"
y1="-1010.275" x2="743.247" y2="-1002.301"
style="stroke:rgb(96,176,207);stroke-width:1" /></g></svg>
