<?xml version="1.0" encoding="utf-8"?><svg><g
transform="translate(0,1200)"><rect x="0" y="-1199" width="1599"
height="1199" style="fill:rgb(0,0,0)" /><line x1=" 0.000" y1="-0.000"
x2="1600.000" y2="-0.000" style="stroke:rgb(99,99,99);stroke-width:1" /><line
x1="1600.000" y1="-0.000" x2="1600.000" y2="-1200.000"
style="stroke:rgb(99,99,99);stroke-width:1" /><line x1="1600.000"
y1="-1200.000" x2=" 0.000" y2="-1200.000"
style="stroke:rgb(99,99,99);stroke-width:1" /><line x1=" 0.000"
y1="-1200.000" x2=" 0.000" y2="-0.000"
style="stroke:rgb(99,99,99);stroke-width:1" /><line x1="146.877"
y1="-134.245" x2="146.877" y2="-1100.245"
style="stroke:rgb(0,0,255);stroke-width:3" /><line x1="146.877"
y1="-1100.245" x2="1462.877" y2="-1100.245"
style="stroke:rgb(0,0,255);stroke-width:3" /><line x1="1462.877"
y1="-134.245" x2="1462.877" y2="-1100.245"
style="stroke:rgb(0,0,255);stroke-width:3" /><line x1="146.877"
y1="-134.245" x2="1462.877" y2="-134.245"
style="stroke:rgb(0,0,255);stroke-width:3" /><arc cx="401.268"
cy="-628.457" r="86.578" ang1=" 1.637" ang2=" 4.647"
stroke="rgb(144,152,0)" stroke-width="1" /><line x1="470.137"
y1="-628.358" x2="499.398" y2="-628.358"
style="stroke:rgb(144,152,0);stroke-width:1" /><line x1="527.864"
y1="-628.284" x2="587.972" y2="-628.284"
style="stroke:rgb(47,47,47);stroke-width:10" /><line x1="541.436"
y1="-585.081" x2="587.644" y2="-614.470"
style="stroke:rgb(47,47,47);stroke-width:10" /><line x1="604.226"
y1="-628.401" x2="658.778" y2="-628.401"
style="stroke:rgb(144,152,0);stroke-width:1" /><circle cx="849.835"
cy="-544.810" r="20.660" stroke="rgb(128,128,128)" stroke-width="1"
fill="rgb(0,0,0)" /><circle cx="896.281" cy="-544.810" r="20.660"
stroke="rgb(128,128,128)" stroke-width="1" fill="rgb(0,0,0)" /><line
x1="846.039" y1="-572.658" x2="846.039" y2="-590.445"
style="stroke:rgb(128,128,128);stroke-width:1" /><line x1="851.710"
y1="-569.744" x2="851.710" y2="-587.532"
style="stroke:rgb(128,128,128);stroke-width:1" /><line x1="840.368"
y1="-583.085" x2="859.986" y2="-574.651"
style="stroke:rgb(128,128,128);stroke-width:1" /><line x1="891.641"
y1="-571.431" x2="891.641" y2="-589.219"
style="stroke:rgb(128,128,128);stroke-width:1" /><line x1="897.312"
y1="-568.518" x2="897.312" y2="-586.305"
style="stroke:rgb(128,128,128);stroke-width:1" /><line x1="885.970"
y1="-581.858" x2="905.588" y2="-573.425"
style="stroke:rgb(128,128,128);stroke-width:1" /><line x1="811.402"
y1="-547.063" x2="938.318" y2="-547.063"
style="stroke:rgb(128,128,128);stroke-width:1" /><circle cx="846.464"
cy="-689.827" r="20.660" stroke="rgb(128,128,128)" stroke-width="1"
fill="rgb(0,0,0)" /><circle cx="892.910" cy="-689.827" r="20.660"
stroke="rgb(128,128,128)" stroke-width="1" fill="rgb(0,0,0)" /><line
x1="842.668" y1="-717.675" x2="842.668" y2="-735.462"
style="stroke:rgb(128,128,128);stroke-width:1" /><line x1="848.339"
y1="-714.762" x2="848.339" y2="-732.549"
style="stroke:rgb(128,128,128);stroke-width:1" /><line x1="836.997"
y1="-728.102" x2="856.615" y2="-719.668"
style="stroke:rgb(128,128,128);stroke-width:1" /><line x1="888.270"
y1="-716.449" x2="888.270" y2="-734.236"
style="stroke:rgb(128,128,128);stroke-width:1" /><line x1="893.941"
y1="-713.535" x2="893.941" y2="-731.323"
style="stroke:rgb(128,128,128);stroke-width:1" /><line x1="882.599"
y1="-726.876" x2="902.217" y2="-718.442"
style="stroke:rgb(128,128,128);stroke-width:1" /><line x1="808.031"
y1="-692.080" x2="934.947" y2="-692.080"
style="stroke:rgb(128,128,128);stroke-width:1" /><line x1="294.987"
y1="-240.318" x2="294.960" y2="-1017.927"
style="stroke:rgb(144,152,0);stroke-width:1" /><arc cx="714.026"
cy="-629.329" r="86.578" ang1=" 4.778" ang2=" 1.505"
stroke="rgb(144,152,0)" stroke-width="1" /><line x1="973.954"
y1="-625.112" x2="973.954" y2="-501.175"
style="stroke:rgb(144,152,0);stroke-width:1" /><line x1="973.954"
y1="-501.175" x2="906.458" y2="-501.175"
style="stroke:rgb(144,152,0);stroke-width:1" /><line x1="906.458"
y1="-501.175" x2="906.458" y2="-394.207"
style="stroke:rgb(144,152,0);stroke-width:1" /><line x1="906.458"
y1="-394.207" x2="934.495" y2="-394.207"
style="stroke:rgb(144,152,0);stroke-width:1" /><line x1="934.495"
y1="-380.896" x2="934.495" y2="-407.461"
style="stroke:rgb(144,152,0);stroke-width:1" /><line x1="940.840"
y1="-380.896" x2="940.840" y2="-407.461"
style="stroke:rgb(144,152,0);stroke-width:1" /><circle cx="1003.518"
cy="-334.940" r="21.009" stroke="rgb(47,47,47)" stroke-width="3"
fill="rgb(0,0,0)" /><circle cx="1003.455" cy="-394.348" r="21.009"
stroke="rgb(255,0,0)" stroke-width="3" fill="rgb(0,0,0)" /><circle
cx="1003.455" cy="-451.013" r="21.009" stroke="rgb(47,47,47)"
stroke-width="3" fill="rgb(0,0,0)" /><line x1="982.446" y1="-394.348"
x2="940.840" y2="-394.348" style="stroke:rgb(144,152,0);stroke-width:1" /><line
x1="1024.464" y1="-394.348" x2="1039.314" y2="-394.348"
style="stroke:rgb(144,152,0);stroke-width:1" /><line x1="1039.389"
y1="-379.368" x2="1039.389" y2="-409.005"
style="stroke:rgb(144,152,0);stroke-width:1" /><line x1="1042.743"
y1="-383.871" x2="1042.743" y2="-403.158"
style="stroke:rgb(144,152,0);stroke-width:1" /><line x1="1046.461"
y1="-389.244" x2="1046.461" y2="-397.785"
style="stroke:rgb(144,152,0);stroke-width:1" /><line x1="973.954"
y1="-625.112" x2="973.954" y2="-752.757"
style="stroke:rgb(144,152,0);stroke-width:1" /><line x1="973.954"
y1="-752.757" x2="905.641" y2="-752.757"
style="stroke:rgb(144,152,0);stroke-width:1" /><line x1="905.641"
y1="-752.757" x2="905.641" y2="-920.955"
style="stroke:rgb(144,152,0);stroke-width:1" /><line x1="905.641"
y1="-920.955" x2="942.293" y2="-920.955"
style="stroke:rgb(144,152,0);stroke-width:1" /><line x1="950.299"
y1="-845.592" x2="1012.040" y2="-845.592"
style="stroke:rgb(47,47,47);stroke-width:3" /><line x1="969.338"
y1="-803.508" x2="1011.712" y2="-830.462"
style="stroke:rgb(0,255,0);stroke-width:3" /><line x1="934.954"
y1="-827.346" x2="934.954" y2="-858.793"
style="stroke:rgb(144,152,0);stroke-width:1" /><line x1="934.954"
y1="-842.122" x2="905.641" y2="-842.122"
style="stroke:rgb(144,152,0);stroke-width:1" /><line x1="1024.464"
y1="-841.460" x2="1039.314" y2="-841.460"
style="stroke:rgb(144,152,0);stroke-width:1" /><line x1="1039.389"
y1="-826.479" x2="1039.389" y2="-856.116"
style="stroke:rgb(144,152,0);stroke-width:1" /><line x1="1042.743"
y1="-830.983" x2="1042.743" y2="-850.270"
style="stroke:rgb(144,152,0);stroke-width:1" /><line x1="1046.461"
y1="-836.356" x2="1046.461" y2="-844.897"
style="stroke:rgb(144,152,0);stroke-width:1" /><line x1="947.687"
y1="-911.433" x2="1010.828" y2="-911.433"
style="stroke:rgb(144,152,0);stroke-width:2" /><line x1="1010.828"
y1="-911.433" x2="1010.828" y2="-930.562"
style="stroke:rgb(144,152,0);stroke-width:2" /><line x1="1010.828"
y1="-930.562" x2="947.687" y2="-930.562"
style="stroke:rgb(144,152,0);stroke-width:2" /><line x1="947.687"
y1="-930.562" x2="947.687" y2="-911.433"
style="stroke:rgb(144,152,0);stroke-width:2" /><line x1="942.293"
y1="-920.955" x2="957.131" y2="-920.955"
style="stroke:rgb(144,152,0);stroke-width:2" /><line x1="957.131"
y1="-914.606" x2="957.131" y2="-927.305"
style="stroke:rgb(144,152,0);stroke-width:2" /><line x1="957.131"
y1="-927.305" x2="992.844" y2="-920.955"
style="stroke:rgb(144,152,0);stroke-width:2" /><line x1="957.131"
y1="-914.606" x2="992.844" y2="-920.955"
style="stroke:rgb(144,152,0);stroke-width:2" /><line x1="1024.576"
y1="-921.116" x2="1039.426" y2="-921.116"
style="stroke:rgb(144,152,0);stroke-width:1" /><line x1="1039.500"
y1="-906.136" x2="1039.500" y2="-935.773"
style="stroke:rgb(144,152,0);stroke-width:1" /><line x1="1042.854"
y1="-910.639" x2="1042.854" y2="-929.927"
style="stroke:rgb(144,152,0);stroke-width:1" /><line x1="1046.572"
y1="-916.012" x2="1046.572" y2="-924.554"
style="stroke:rgb(144,152,0);stroke-width:1" /><line x1="800.599"
y1="-628.401" x2="1085.672" y2="-628.401"
style="stroke:rgb(144,152,0);stroke-width:1" /><circle cx="1234.583"
cy="-335.677" r="21.009" stroke="rgb(47,47,47)" stroke-width="3"
fill="rgb(0,0,0)" /><circle cx="1234.520" cy="-395.085" r="21.009"
stroke="rgb(47,47,47)" stroke-width="3" fill="rgb(0,0,0)" /><circle
cx="1234.520" cy="-451.750" r="21.009" stroke="rgb(47,47,47)"
stroke-width="3" fill="rgb(0,0,0)" /><circle cx="1137.686" cy="-578.593"
r="21.009" stroke="rgb(47,47,47)" stroke-width="3" fill="rgb(0,0,0)" /><line
x1="1094.575" y1="-261.289" x2="1094.575" y2="-619.250"
style="stroke:rgb(128,128,128);stroke-width:1" /><line x1="1094.575"
y1="-619.250" x2="1339.165" y2="-619.250"
style="stroke:rgb(128,128,128);stroke-width:1" /><line x1="1339.165"
y1="-619.250" x2="1339.165" y2="-261.289"
style="stroke:rgb(128,128,128);stroke-width:1" /><line x1="1339.165"
y1="-261.289" x2="1094.575" y2="-261.289"
style="stroke:rgb(128,128,128);stroke-width:1" /><circle cx="1234.583"
cy="-768.358" r="21.009" stroke="rgb(255,0,0)" stroke-width="3"
fill="rgb(0,0,0)" /><circle cx="1234.520" cy="-886.900" r="21.009"
stroke="rgb(47,47,47)" stroke-width="3" fill="rgb(0,0,0)" /><line
x1="1221.018" y1="-871.326" x2="1248.023" y2="-902.473"
style="stroke:rgb(47,47,47);stroke-width:3" /><line x1="1234.520"
y1="-886.900" x2="1221.955" y2="-903.238"
style="stroke:rgb(47,47,47);stroke-width:3" /><line x1="1234.520"
y1="-886.900" x2="1246.713" y2="-870.281"
style="stroke:rgb(47,47,47);stroke-width:3" /><line x1="1094.575"
y1="-653.148" x2="1094.575" y2="-1011.109"
style="stroke:rgb(128,128,128);stroke-width:1" /><line x1="1094.575"
y1="-1011.109" x2="1339.165" y2="-1011.109"
style="stroke:rgb(128,128,128);stroke-width:1" /><line x1="1339.165"
y1="-1011.109" x2="1339.165" y2="-653.148"
style="stroke:rgb(128,128,128);stroke-width:1" /><line x1="1339.165"
y1="-653.148" x2="1094.575" y2="-653.148"
style="stroke:rgb(128,128,128);stroke-width:1" /><line x1="599.793"
y1="-796.017" x2="636.105" y2="-821.914"
style="stroke:rgb(128,128,128);stroke-width:1" /><line x1="601.655"
y1="-811.656" x2="633.498" y2="-833.640"
style="stroke:rgb(128,128,128);stroke-width:1" /><line x1="636.200"
y1="-849.281" x2="599.406" y2="-824.074"
style="stroke:rgb(128,128,128);stroke-width:1" /><line x1="659.328"
y1="-796.017" x2="695.640" y2="-821.914"
style="stroke:rgb(128,128,128);stroke-width:1" /><line x1="661.190"
y1="-811.656" x2="693.033" y2="-833.640"
style="stroke:rgb(128,128,128);stroke-width:1" /><line x1="695.735"
y1="-849.281" x2="658.941" y2="-824.074"
style="stroke:rgb(128,128,128);stroke-width:1" /><arc cx="1139.286"
cy="-767.345" r="14.464" ang1=" 1.682" ang2=" 4.601" stroke="rgb(79,0,0)"
stroke-width="0" /><line x1="1137.685" y1="-752.970" x2="1151.510"
y2="-752.970" style="stroke:rgb(79,0,0);stroke-width:0" /><line
x1="1137.685" y1="-781.721" x2="1151.510" y2="-781.721"
style="stroke:rgb(79,0,0);stroke-width:0" /><line x1="1151.510"
y1="-747.294" x2="1151.510" y2="-787.426"
style="stroke:rgb(79,0,0);stroke-width:0" /><line x1="1151.510"
y1="-747.294" x2="1178.173" y2="-747.294"
style="stroke:rgb(79,0,0);stroke-width:0" /><line x1="1178.173"
y1="-747.294" x2="1178.173" y2="-787.426"
style="stroke:rgb(79,0,0);stroke-width:0" /><line x1="1178.173"
y1="-787.426" x2="1151.510" y2="-787.426"
style="stroke:rgb(79,0,0);stroke-width:0" /><arc cx="1139.003"
cy="-858.899" r="14.464" ang1=" 1.682" ang2=" 4.601"
stroke="rgb(15,72,0)" stroke-width="1" /><line x1="1137.402"
y1="-873.422" x2="1151.227" y2="-873.422"
style="stroke:rgb(15,72,0);stroke-width:1" /><line x1="1151.227"
y1="-867.746" x2="1151.227" y2="-907.878"
style="stroke:rgb(15,72,0);stroke-width:1" /><line x1="1151.227"
y1="-867.746" x2="1177.890" y2="-867.746"
style="stroke:rgb(15,72,0);stroke-width:1" /><line x1="1177.890"
y1="-867.746" x2="1177.890" y2="-907.878"
style="stroke:rgb(15,72,0);stroke-width:1" /><line x1="1177.890"
y1="-907.878" x2="1151.227" y2="-907.878"
style="stroke:rgb(15,72,0);stroke-width:1" /><line x1="665.881"
y1="-907.494" x2="665.881" y2="-945.780"
style="stroke:rgb(47,47,47);stroke-width:3" /><line x1="665.881"
y1="-945.780" x2="689.692" y2="-945.780"
style="stroke:rgb(47,47,47);stroke-width:3" /><line x1="689.692"
y1="-945.780" x2="689.692" y2="-907.494"
style="stroke:rgb(47,47,47);stroke-width:3" /><line x1="689.692"
y1="-907.494" x2="665.881" y2="-907.494"
style="stroke:rgb(47,47,47);stroke-width:3" /><line x1="606.346"
y1="-907.494" x2="606.346" y2="-945.780"
style="stroke:rgb(0,255,0);stroke-width:3" /><line x1="606.346"
y1="-945.780" x2="630.157" y2="-945.780"
style="stroke:rgb(0,255,0);stroke-width:3" /><line x1="630.157"
y1="-945.780" x2="630.157" y2="-907.494"
style="stroke:rgb(0,255,0);stroke-width:3" /><line x1="630.157"
y1="-907.494" x2="606.346" y2="-907.494"
style="stroke:rgb(0,255,0);stroke-width:3" /><line x1="1176.402"
y1="-557.230" x2="1176.402" y2="-601.324"
style="stroke:rgb(128,128,128);stroke-width:1" /><line x1="1176.402"
y1="-601.324" x2="1211.660" y2="-601.324"
style="stroke:rgb(128,128,128);stroke-width:1" /><line x1="1211.660"
y1="-601.324" x2="1211.660" y2="-557.230"
style="stroke:rgb(128,128,128);stroke-width:1" /><line x1="1211.660"
y1="-557.230" x2="1176.402" y2="-557.230"
style="stroke:rgb(128,128,128);stroke-width:1" /><line x1="527.864"
y1="-628.284" x2="587.972" y2="-628.284"
style="stroke:rgb(47,47,47);stroke-width:10" /><line x1="541.436"
y1="-585.081" x2="587.644" y2="-614.470"
style="stroke:rgb(47,47,47);stroke-width:10" /><line x1="950.299"
y1="-845.592" x2="1012.040" y2="-845.592"
style="stroke:rgb(47,47,47);stroke-width:10" /><line x1="969.338"
y1="-803.508" x2="1011.712" y2="-830.462"
style="stroke:rgb(0,255,0);stroke-width:10" /><line x1="487.260"
y1="-616.280" x2="511.537" y2="-640.437"
style="stroke:rgb(144,152,0);stroke-width:1" /><line x1="487.260"
y1="-640.437" x2="511.537" y2="-616.280"
style="stroke:rgb(144,152,0);stroke-width:1" /><line x1="646.639"
y1="-640.480" x2="670.916" y2="-616.323"
style="stroke:rgb(144,152,0);stroke-width:1" /><line x1="646.639"
y1="-616.323" x2="670.916" y2="-640.480"
style="stroke:rgb(144,152,0);stroke-width:1" /><line x1="402.892"
y1="-615.089" x2="402.892" y2="-581.204"
style="stroke:rgb(47,47,47);stroke-width:10" /><line x1="369.398"
y1="-628.401" x2="389.580" y2="-628.401"
style="stroke:rgb(47,47,47);stroke-width:10" /><line x1="355.694"
y1="-628.401" x2="389.580" y2="-628.401"
style="stroke:rgb(47,47,47);stroke-width:10" /><line x1="416.204"
y1="-628.401" x2="439.298" y2="-628.401"
style="stroke:rgb(47,47,47);stroke-width:10" /><line x1="416.204"
y1="-628.401" x2="450.089" y2="-628.401"
style="stroke:rgb(47,47,47);stroke-width:10" /><line x1="402.892"
y1="-641.713" x2="402.892" y2="-675.599"
style="stroke:rgb(47,47,47);stroke-width:10" /><line x1="314.691"
y1="-628.401" x2="294.973" y2="-628.401"
style="stroke:rgb(144,152,0);stroke-width:1" /><text id="101" x="178.109"
y="-165.471" transform="rotate( 1.571,0,0)" font-family="SimHei"
font-size="18" fill="rgb(0,255,0)"> ORT400</text><line x1="1234.583"
y1="-768.358" x2="1246.775" y2="-751.739"
style="stroke:rgb(255,0,0);stroke-width:3" /><line x1="1234.583"
y1="-768.358" x2="1222.017" y2="-784.697"
style="stroke:rgb(255,0,0);stroke-width:3" /><line x1="1221.080"
y1="-752.785" x2="1248.085" y2="-783.932"
style="stroke:rgb(255,0,0);stroke-width:3" /><line x1="1124.183"
y1="-563.020" x2="1151.188" y2="-594.166"
style="stroke:rgb(47,47,47);stroke-width:3" /><line x1="1137.686"
y1="-578.593" x2="1125.120" y2="-594.932"
style="stroke:rgb(47,47,47);stroke-width:3" /><line x1="1137.686"
y1="-578.593" x2="1149.878" y2="-561.974"
style="stroke:rgb(47,47,47);stroke-width:3" /><line x1="1221.018"
y1="-436.177" x2="1248.023" y2="-467.324"
style="stroke:rgb(47,47,47);stroke-width:3" /><line x1="1234.520"
y1="-451.750" x2="1221.955" y2="-468.089"
style="stroke:rgb(47,47,47);stroke-width:3" /><line x1="1234.520"
y1="-451.750" x2="1246.713" y2="-435.131"
style="stroke:rgb(47,47,47);stroke-width:3" /><line x1="1221.018"
y1="-379.512" x2="1248.023" y2="-410.658"
style="stroke:rgb(47,47,47);stroke-width:3" /><line x1="1234.520"
y1="-395.085" x2="1221.955" y2="-411.424"
style="stroke:rgb(47,47,47);stroke-width:3" /><line x1="1234.520"
y1="-395.085" x2="1246.713" y2="-378.466"
style="stroke:rgb(47,47,47);stroke-width:3" /><line x1="1221.080"
y1="-320.104" x2="1248.085" y2="-351.250"
style="stroke:rgb(47,47,47);stroke-width:3" /><line x1="1234.583"
y1="-335.677" x2="1222.017" y2="-352.016"
style="stroke:rgb(47,47,47);stroke-width:3" /><line x1="1234.583"
y1="-335.677" x2="1246.775" y2="-319.058"
style="stroke:rgb(47,47,47);stroke-width:3" /><line x1="989.953"
y1="-435.440" x2="1016.958" y2="-466.586"
style="stroke:rgb(47,47,47);stroke-width:3" /><line x1="1003.455"
y1="-451.013" x2="990.890" y2="-467.352"
style="stroke:rgb(47,47,47);stroke-width:3" /><line x1="1003.455"
y1="-451.013" x2="1015.648" y2="-434.394"
style="stroke:rgb(47,47,47);stroke-width:3" /><line x1="989.953"
y1="-378.774" x2="1016.958" y2="-409.921"
style="stroke:rgb(255,0,0);stroke-width:3" /><line x1="1003.455"
y1="-394.348" x2="990.890" y2="-410.687"
style="stroke:rgb(255,0,0);stroke-width:3" /><line x1="1003.455"
y1="-394.348" x2="1015.648" y2="-377.729"
style="stroke:rgb(255,0,0);stroke-width:3" /><line x1="990.015"
y1="-319.367" x2="1017.020" y2="-350.513"
style="stroke:rgb(47,47,47);stroke-width:3" /><line x1="1003.518"
y1="-334.940" x2="990.952" y2="-351.279"
style="stroke:rgb(47,47,47);stroke-width:3" /><line x1="1003.518"
y1="-334.940" x2="1015.710" y2="-318.321"
style="stroke:rgb(47,47,47);stroke-width:3" /><line x1="732.078"
y1="-615.089" x2="732.078" y2="-581.204"
style="stroke:rgb(47,47,47);stroke-width:10" /><line x1="684.880"
y1="-628.401" x2="718.766" y2="-628.401"
style="stroke:rgb(47,47,47);stroke-width:10" /><line x1="698.584"
y1="-628.401" x2="718.766" y2="-628.401"
style="stroke:rgb(47,47,47);stroke-width:10" /><line x1="732.078"
y1="-641.713" x2="732.078" y2="-675.599"
style="stroke:rgb(47,47,47);stroke-width:10" /><line x1="745.390"
y1="-628.401" x2="779.275" y2="-628.401"
style="stroke:rgb(47,47,47);stroke-width:10" /><line x1="745.390"
y1="-628.401" x2="768.484" y2="-628.401"
style="stroke:rgb(47,47,47);stroke-width:10" /><arc cx="617.876"
cy="-856.399" r="19.880" ang1=" 2.828" ang2=" 0.351"
stroke="rgb(128,128,128)" stroke-width="1" /><arc cx="618.247"
cy="-789.246" r="19.880" ang1=" 5.951" ang2=" 3.474"
stroke="rgb(128,128,128)" stroke-width="1" /><arc cx="677.411"
cy="-856.399" r="19.880" ang1=" 2.828" ang2=" 0.351"
stroke="rgb(128,128,128)" stroke-width="1" /><arc cx="677.782"
cy="-789.246" r="19.880" ang1=" 5.951" ang2=" 3.474"
stroke="rgb(128,128,128)" stroke-width="1" /><line x1="783.523"
y1="-992.336" x2="960.357" y2="-426.518"
style="stroke:rgb(99,99,99);stroke-width:1" /><line x1="1169.638"
y1="-840.651" x2="783.523" y2="-992.336"
style="stroke:rgb(99,99,99);stroke-width:1" /><line x1="960.357"
y1="-426.518" x2="918.983" y2="-461.325"
style="stroke:rgb(99,99,99);stroke-width:1" /><line x1="960.357"
y1="-426.518" x2="962.707" y2="-481.720"
style="stroke:rgb(99,99,99);stroke-width:1" /><line x1="1169.638"
y1="-840.651" x2="1154.828" y2="-864.011"
style="stroke:rgb(99,99,99);stroke-width:1" /><line x1="1169.638"
y1="-840.651" x2="1146.254" y2="-831.307"
style="stroke:rgb(99,99,99);stroke-width:1" /><line x1="771.637"
y1="-938.230" x2="774.037" y2="-975.525"
style="stroke:rgb(96,176,207);stroke-width:1" /><line x1="744.976"
y1="-969.664" x2="744.976" y2="-938.763"
style="stroke:rgb(96,176,207);stroke-width:1" /><line x1="759.906"
y1="-964.869" x2="764.172" y2="-972.861"
style="stroke:rgb(96,176,207);stroke-width:1" /><line x1="780.146"
y1="-974.440" x2="781.055" y2="-967.696"
style="stroke:rgb(96,176,207);stroke-width:1" /><line x1="777.641"
y1="-969.449" x2="776.501" y2="-964.208"
style="stroke:rgb(96,176,207);stroke-width:1" /><line x1="743.893"
y1="-968.993" x2="750.734" y2="-971.955"
style="stroke:rgb(96,176,207);stroke-width:1" /><line x1="740.473"
y1="-992.004" x2="735.000" y2="-962.158"
style="stroke:rgb(96,176,207);stroke-width:1" /><line x1="751.641"
y1="-897.473" x2="748.442" y2="-898.539"
style="stroke:rgb(96,176,207);stroke-width:1" /><line x1="748.442"
y1="-898.539" x2="745.775" y2="-896.940"
style="stroke:rgb(96,176,207);stroke-width:1" /><line x1="768.704"
y1="-895.875" x2="768.171" y2="-897.207"
style="stroke:rgb(96,176,207);stroke-width:1" /><line x1="768.171"
y1="-897.207" x2="764.439" y2="-894.809"
style="stroke:rgb(96,176,207);stroke-width:1" /><line x1="764.439"
y1="-894.809" x2="763.905" y2="-894.809"
style="stroke:rgb(96,176,207);stroke-width:1" /><line x1="758.840"
y1="-937.165" x2="759.906" y2="-934.501"
style="stroke:rgb(96,176,207);stroke-width:1" /><line x1="759.906"
y1="-934.501" x2="759.373" y2="-934.235"
style="stroke:rgb(96,176,207);stroke-width:1" /><line x1="759.373"
y1="-934.235" x2="761.506" y2="-895.342"
style="stroke:rgb(96,176,207);stroke-width:1" /><line x1="761.506"
y1="-895.342" x2="762.572" y2="-895.076"
style="stroke:rgb(96,176,207);stroke-width:1" /><line x1="762.572"
y1="-895.076" x2="760.439" y2="-890.814"
style="stroke:rgb(96,176,207);stroke-width:1" /><line x1="760.439"
y1="-890.814" x2="760.439" y2="-889.215"
style="stroke:rgb(96,176,207);stroke-width:1" /><line x1="760.439"
y1="-889.215" x2="768.171" y2="-888.682"
style="stroke:rgb(96,176,207);stroke-width:1" /><line x1="768.171"
y1="-888.682" x2="773.237" y2="-888.949"
style="stroke:rgb(96,176,207);stroke-width:1" /><line x1="773.237"
y1="-888.949" x2="776.436" y2="-888.949"
style="stroke:rgb(96,176,207);stroke-width:1" /><line x1="776.436"
y1="-888.949" x2="776.436" y2="-891.346"
style="stroke:rgb(96,176,207);stroke-width:1" /><line x1="776.436"
y1="-891.346" x2="770.304" y2="-895.342"
style="stroke:rgb(96,176,207);stroke-width:1" /><line x1="770.304"
y1="-895.342" x2="771.637" y2="-934.501"
style="stroke:rgb(96,176,207);stroke-width:1" /><line x1="771.637"
y1="-934.501" x2="771.104" y2="-936.898"
style="stroke:rgb(96,176,207);stroke-width:1" /><line x1="771.104"
y1="-936.898" x2="771.637" y2="-938.230"
style="stroke:rgb(96,176,207);stroke-width:1" /><line x1="744.976"
y1="-938.763" x2="744.176" y2="-935.833"
style="stroke:rgb(96,176,207);stroke-width:1" /><line x1="744.176"
y1="-935.833" x2="744.709" y2="-896.408"
style="stroke:rgb(96,176,207);stroke-width:1" /><line x1="744.709"
y1="-896.408" x2="747.375" y2="-895.608"
style="stroke:rgb(96,176,207);stroke-width:1" /><line x1="747.375"
y1="-895.608" x2="745.775" y2="-892.412"
style="stroke:rgb(96,176,207);stroke-width:1" /><line x1="745.775"
y1="-892.412" x2="744.176" y2="-890.814"
style="stroke:rgb(96,176,207);stroke-width:1" /><line x1="744.176"
y1="-890.814" x2="744.176" y2="-889.215"
style="stroke:rgb(96,176,207);stroke-width:1" /><line x1="744.176"
y1="-889.215" x2="748.175" y2="-888.949"
style="stroke:rgb(96,176,207);stroke-width:1" /><line x1="748.175"
y1="-888.949" x2="755.907" y2="-888.682"
style="stroke:rgb(96,176,207);stroke-width:1" /><line x1="755.907"
y1="-888.682" x2="756.973" y2="-890.814"
style="stroke:rgb(96,176,207);stroke-width:1" /><line x1="756.973"
y1="-890.814" x2="755.907" y2="-892.678"
style="stroke:rgb(96,176,207);stroke-width:1" /><line x1="755.907"
y1="-892.678" x2="752.707" y2="-895.608"
style="stroke:rgb(96,176,207);stroke-width:1" /><line x1="752.707"
y1="-895.608" x2="753.774" y2="-896.940"
style="stroke:rgb(96,176,207);stroke-width:1" /><line x1="753.774"
y1="-896.940" x2="757.507" y2="-935.034"
style="stroke:rgb(96,176,207);stroke-width:1" /><line x1="757.507"
y1="-935.034" x2="758.306" y2="-937.698"
style="stroke:rgb(96,176,207);stroke-width:1" /><line x1="758.306"
y1="-937.698" x2="759.906" y2="-964.869"
style="stroke:rgb(96,176,207);stroke-width:1" /><line x1="781.055"
y1="-967.696" x2="780.276" y2="-967.437"
style="stroke:rgb(96,176,207);stroke-width:1" /><line x1="780.276"
y1="-967.437" x2="779.757" y2="-966.010"
style="stroke:rgb(96,176,207);stroke-width:1" /><line x1="779.757"
y1="-966.010" x2="778.848" y2="-965.880"
style="stroke:rgb(96,176,207);stroke-width:1" /><line x1="778.848"
y1="-965.880" x2="778.588" y2="-964.843"
style="stroke:rgb(96,176,207);stroke-width:1" /><line x1="778.588"
y1="-964.843" x2="776.901" y2="-964.324"
style="stroke:rgb(96,176,207);stroke-width:1" /><line x1="776.501"
y1="-964.208" x2="775.817" y2="-961.247"
style="stroke:rgb(96,176,207);stroke-width:1" /><line x1="775.817"
y1="-961.247" x2="773.309" y2="-962.158"
style="stroke:rgb(96,176,207);stroke-width:1" /><line x1="735.912"
y1="-962.841" x2="739.333" y2="-965.120"
style="stroke:rgb(96,176,207);stroke-width:1" /><line x1="739.333"
y1="-965.120" x2="743.893" y2="-968.993"
style="stroke:rgb(96,176,207);stroke-width:1" /><line x1="735.000"
y1="-962.158" x2="737.509" y2="-961.930"
style="stroke:rgb(96,176,207);stroke-width:1" /><line x1="737.509"
y1="-961.930" x2="741.613" y2="-963.981"
style="stroke:rgb(96,176,207);stroke-width:1" /><line x1="741.613"
y1="-963.981" x2="744.805" y2="-964.664"
style="stroke:rgb(96,176,207);stroke-width:1" /><line x1="762.303"
y1="-1058.334" x2="761.836" y2="-1058.801"
style="stroke:rgb(96,176,207);stroke-width:1" /><line x1="761.836"
y1="-1058.801" x2="760.994" y2="-1058.521"
style="stroke:rgb(96,176,207);stroke-width:1" /><line x1="767.729"
y1="-1058.894" x2="767.168" y2="-1059.081"
style="stroke:rgb(96,176,207);stroke-width:1" /><line x1="767.168"
y1="-1059.081" x2="766.607" y2="-1058.427"
style="stroke:rgb(96,176,207);stroke-width:1" /><line x1="769.600"
y1="-1060.016" x2="767.448" y2="-1060.483"
style="stroke:rgb(96,176,207);stroke-width:1" /><line x1="767.448"
y1="-1060.483" x2="765.297" y2="-1059.642"
style="stroke:rgb(96,176,207);stroke-width:1" /><line x1="768.945"
y1="-1059.175" x2="766.794" y2="-1059.268"
style="stroke:rgb(96,176,207);stroke-width:1" /><line x1="766.794"
y1="-1059.268" x2="765.297" y2="-1058.708"
style="stroke:rgb(96,176,207);stroke-width:1" /><line x1="765.297"
y1="-1058.708" x2="765.671" y2="-1058.147"
style="stroke:rgb(96,176,207);stroke-width:1" /><line x1="765.671"
y1="-1058.147" x2="766.700" y2="-1058.240"
style="stroke:rgb(96,176,207);stroke-width:1" /><line x1="766.700"
y1="-1058.240" x2="768.477" y2="-1058.708"
style="stroke:rgb(96,176,207);stroke-width:1" /><line x1="763.239"
y1="-1059.549" x2="762.023" y2="-1060.483"
style="stroke:rgb(96,176,207);stroke-width:1" /><line x1="762.023"
y1="-1060.483" x2="759.123" y2="-1060.203"
style="stroke:rgb(96,176,207);stroke-width:1" /><line x1="759.123"
y1="-1060.203" x2="758.655" y2="-1059.455"
style="stroke:rgb(96,176,207);stroke-width:1" /><line x1="759.497"
y1="-1059.268" x2="760.713" y2="-1059.362"
style="stroke:rgb(96,176,207);stroke-width:1" /><line x1="760.713"
y1="-1059.362" x2="762.303" y2="-1059.175"
style="stroke:rgb(96,176,207);stroke-width:1" /><line x1="762.303"
y1="-1059.175" x2="763.052" y2="-1058.708"
style="stroke:rgb(96,176,207);stroke-width:1" /><line x1="763.052"
y1="-1058.708" x2="762.584" y2="-1058.147"
style="stroke:rgb(96,176,207);stroke-width:1" /><line x1="762.584"
y1="-1058.147" x2="761.368" y2="-1058.053"
style="stroke:rgb(96,176,207);stroke-width:1" /><line x1="761.368"
y1="-1058.053" x2="759.497" y2="-1058.708"
style="stroke:rgb(96,176,207);stroke-width:1" /><line x1="766.887"
y1="-1051.417" x2="765.297" y2="-1051.884"
style="stroke:rgb(96,176,207);stroke-width:1" /><line x1="765.297"
y1="-1051.884" x2="764.455" y2="-1051.791"
style="stroke:rgb(96,176,207);stroke-width:1" /><line x1="764.455"
y1="-1051.791" x2="762.490" y2="-1051.510"
style="stroke:rgb(96,176,207);stroke-width:1" /><line x1="766.232"
y1="-1054.034" x2="765.952" y2="-1053.567"
style="stroke:rgb(96,176,207);stroke-width:1" /><line x1="765.952"
y1="-1053.567" x2="763.894" y2="-1053.660"
style="stroke:rgb(96,176,207);stroke-width:1" /><line x1="763.894"
y1="-1053.660" x2="762.865" y2="-1054.128"
style="stroke:rgb(96,176,207);stroke-width:1" /><line x1="753.510"
y1="-1059.923" x2="753.042" y2="-1060.577"
style="stroke:rgb(96,176,207);stroke-width:1" /><line x1="753.042"
y1="-1060.577" x2="752.200" y2="-1060.857"
style="stroke:rgb(96,176,207);stroke-width:1" /><line x1="752.200"
y1="-1060.857" x2="751.545" y2="-1060.203"
style="stroke:rgb(96,176,207);stroke-width:1" /><line x1="751.545"
y1="-1060.203" x2="751.171" y2="-1059.268"
style="stroke:rgb(96,176,207);stroke-width:1" /><line x1="751.171"
y1="-1059.268" x2="751.452" y2="-1057.492"
style="stroke:rgb(96,176,207);stroke-width:1" /><line x1="751.452"
y1="-1057.492" x2="752.013" y2="-1056.184"
style="stroke:rgb(96,176,207);stroke-width:1" /><line x1="752.013"
y1="-1056.184" x2="753.042" y2="-1055.062"
style="stroke:rgb(96,176,207);stroke-width:1" /><line x1="753.042"
y1="-1055.062" x2="753.697" y2="-1054.221"
style="stroke:rgb(96,176,207);stroke-width:1" /><line x1="753.697"
y1="-1054.221" x2="754.258" y2="-1053.941"
style="stroke:rgb(96,176,207);stroke-width:1" /><line x1="754.258"
y1="-1053.941" x2="754.445" y2="-1054.501"
style="stroke:rgb(96,176,207);stroke-width:1" /><line x1="765.577"
y1="-1050.763" x2="763.894" y2="-1050.669"
style="stroke:rgb(96,176,207);stroke-width:1" /><line x1="767.168"
y1="-1046.557" x2="767.261" y2="-1046.276"
style="stroke:rgb(96,176,207);stroke-width:1" /><line x1="767.261"
y1="-1046.276" x2="765.110" y2="-1045.996"
style="stroke:rgb(96,176,207);stroke-width:1" /><line x1="754.258"
y1="-1047.117" x2="753.884" y2="-1046.557"
style="stroke:rgb(96,176,207);stroke-width:1" /><line x1="753.884"
y1="-1046.557" x2="756.971" y2="-1046.089"
style="stroke:rgb(96,176,207);stroke-width:1" /><line x1="756.971"
y1="-1046.089" x2="760.526" y2="-1046.089"
style="stroke:rgb(96,176,207);stroke-width:1" /><line x1="765.203"
y1="-1044.407" x2="763.800" y2="-1041.322"
style="stroke:rgb(96,176,207);stroke-width:1" /><line x1="763.800"
y1="-1041.322" x2="763.145" y2="-1040.761"
style="stroke:rgb(96,176,207);stroke-width:1" /><line x1="763.145"
y1="-1040.761" x2="761.461" y2="-1041.416"
style="stroke:rgb(96,176,207);stroke-width:1" /><line x1="761.461"
y1="-1041.416" x2="760.339" y2="-1044.126"
style="stroke:rgb(96,176,207);stroke-width:1" /><line x1="766.513"
y1="-1046.930" x2="767.355" y2="-1046.930"
style="stroke:rgb(96,176,207);stroke-width:1" /><line x1="767.355"
y1="-1046.930" x2="768.010" y2="-1046.463"
style="stroke:rgb(96,176,207);stroke-width:1" /><line x1="768.010"
y1="-1046.463" x2="769.413" y2="-1040.575"
style="stroke:rgb(96,176,207);stroke-width:1" /><line x1="769.413"
y1="-1040.575" x2="765.765" y2="-1044.407"
style="stroke:rgb(96,176,207);stroke-width:1" /><line x1="765.765"
y1="-1044.407" x2="764.174" y2="-1045.902"
style="stroke:rgb(96,176,207);stroke-width:1" /><line x1="764.174"
y1="-1045.902" x2="760.994" y2="-1045.809"
style="stroke:rgb(96,176,207);stroke-width:1" /><line x1="760.994"
y1="-1045.809" x2="757.065" y2="-1039.920"
style="stroke:rgb(96,176,207);stroke-width:1" /><line x1="757.065"
y1="-1039.920" x2="753.884" y2="-1041.977"
style="stroke:rgb(96,176,207);stroke-width:1" /><line x1="753.884"
y1="-1041.977" x2="752.013" y2="-1043.192"
style="stroke:rgb(96,176,207);stroke-width:1" /><line x1="752.013"
y1="-1043.192" x2="752.574" y2="-1045.061"
style="stroke:rgb(96,176,207);stroke-width:1" /><line x1="752.574"
y1="-1045.061" x2="752.855" y2="-1047.211"
style="stroke:rgb(96,176,207);stroke-width:1" /><line x1="752.855"
y1="-1047.211" x2="753.790" y2="-1047.117"
style="stroke:rgb(96,176,207);stroke-width:1" /><line x1="752.668"
y1="-1055.249" x2="753.603" y2="-1052.912"
style="stroke:rgb(96,176,207);stroke-width:1" /><line x1="753.603"
y1="-1052.912" x2="753.977" y2="-1049.174"
style="stroke:rgb(96,176,207);stroke-width:1" /><line x1="753.977"
y1="-1049.174" x2="754.164" y2="-1047.117"
style="stroke:rgb(96,176,207);stroke-width:1" /><line x1="769.319"
y1="-1067.120" x2="768.758" y2="-1067.774"
style="stroke:rgb(96,176,207);stroke-width:1" /><line x1="768.758"
y1="-1067.774" x2="764.829" y2="-1067.961"
style="stroke:rgb(96,176,207);stroke-width:1" /><line x1="764.829"
y1="-1067.961" x2="760.432" y2="-1067.868"
style="stroke:rgb(96,176,207);stroke-width:1" /><line x1="760.432"
y1="-1067.868" x2="758.374" y2="-1067.494"
style="stroke:rgb(96,176,207);stroke-width:1" /><line x1="758.374"
y1="-1067.494" x2="756.316" y2="-1066.652"
style="stroke:rgb(96,176,207);stroke-width:1" /><line x1="756.316"
y1="-1066.652" x2="755.287" y2="-1064.596"
style="stroke:rgb(96,176,207);stroke-width:1" /><line x1="755.287"
y1="-1064.596" x2="754.913" y2="-1062.633"
style="stroke:rgb(96,176,207);stroke-width:1" /><line x1="754.913"
y1="-1062.633" x2="753.884" y2="-1061.699"
style="stroke:rgb(96,176,207);stroke-width:1" /><line x1="753.884"
y1="-1061.699" x2="753.884" y2="-1060.857"
style="stroke:rgb(96,176,207);stroke-width:1" /><line x1="753.884"
y1="-1060.857" x2="753.510" y2="-1060.670"
style="stroke:rgb(96,176,207);stroke-width:1" /><line x1="765.577"
y1="-1046.370" x2="766.232" y2="-1047.398"
style="stroke:rgb(96,176,207);stroke-width:1" /><line x1="766.232"
y1="-1047.398" x2="767.168" y2="-1047.585"
style="stroke:rgb(96,176,207);stroke-width:1" /><line x1="767.168"
y1="-1047.585" x2="768.197" y2="-1048.800"
style="stroke:rgb(96,176,207);stroke-width:1" /><line x1="768.197"
y1="-1048.800" x2="769.413" y2="-1051.230"
style="stroke:rgb(96,176,207);stroke-width:1" /><line x1="769.413"
y1="-1051.230" x2="770.442" y2="-1055.623"
style="stroke:rgb(96,176,207);stroke-width:1" /><line x1="770.442"
y1="-1055.623" x2="769.694" y2="-1058.521"
style="stroke:rgb(96,176,207);stroke-width:1" /><line x1="769.694"
y1="-1058.521" x2="770.255" y2="-1059.736"
style="stroke:rgb(96,176,207);stroke-width:1" /><line x1="770.255"
y1="-1059.736" x2="770.255" y2="-1062.540"
style="stroke:rgb(96,176,207);stroke-width:1" /><line x1="770.255"
y1="-1062.540" x2="769.507" y2="-1066.839"
style="stroke:rgb(96,176,207);stroke-width:1" /><line x1="769.507"
y1="-1066.839" x2="769.694" y2="-1068.989"
style="stroke:rgb(96,176,207);stroke-width:1" /><line x1="769.694"
y1="-1068.989" x2="768.384" y2="-1070.298"
style="stroke:rgb(96,176,207);stroke-width:1" /><line x1="768.384"
y1="-1070.298" x2="763.426" y2="-1071.139"
style="stroke:rgb(96,176,207);stroke-width:1" /><line x1="763.426"
y1="-1071.139" x2="756.223" y2="-1070.765"
style="stroke:rgb(96,176,207);stroke-width:1" /><line x1="756.223"
y1="-1070.765" x2="753.416" y2="-1070.017"
style="stroke:rgb(96,176,207);stroke-width:1" /><line x1="753.416"
y1="-1070.017" x2="751.919" y2="-1067.400"
style="stroke:rgb(96,176,207);stroke-width:1" /><line x1="751.919"
y1="-1067.400" x2="751.171" y2="-1064.596"
style="stroke:rgb(96,176,207);stroke-width:1" /><line x1="751.171"
y1="-1064.596" x2="751.545" y2="-1062.259"
style="stroke:rgb(96,176,207);stroke-width:1" /><line x1="751.545"
y1="-1062.259" x2="752.200" y2="-1060.951"
style="stroke:rgb(96,176,207);stroke-width:1" /><line x1="754.155"
y1="-1011.597" x2="750.506" y2="-1012.053"
style="stroke:rgb(96,176,207);stroke-width:1" /><line x1="750.506"
y1="-1012.053" x2="745.718" y2="-1014.331"
style="stroke:rgb(96,176,207);stroke-width:1" /><line x1="745.718"
y1="-1014.331" x2="742.981" y2="-1014.331"
style="stroke:rgb(96,176,207);stroke-width:1" /><line x1="742.981"
y1="-1014.331" x2="744.577" y2="-1014.787"
style="stroke:rgb(96,176,207);stroke-width:1" /><line x1="744.577"
y1="-1014.787" x2="742.753" y2="-1022.761"
style="stroke:rgb(96,176,207);stroke-width:1" /><line x1="742.753"
y1="-1022.761" x2="745.262" y2="-1021.166"
style="stroke:rgb(96,176,207);stroke-width:1" /><line x1="769.204"
y1="-992.915" x2="765.556" y2="-992.004"
style="stroke:rgb(96,176,207);stroke-width:1" /><line x1="765.556"
y1="-992.004" x2="760.995" y2="-992.687"
style="stroke:rgb(96,176,207);stroke-width:1" /><line x1="753.667"
y1="-1010.364" x2="754.576" y2="-1010.493"
style="stroke:rgb(96,176,207);stroke-width:1" /><line x1="754.576"
y1="-1010.493" x2="755.484" y2="-1012.698"
style="stroke:rgb(96,176,207);stroke-width:1" /><line x1="755.484"
y1="-1012.698" x2="756.782" y2="-1014.124"
style="stroke:rgb(96,176,207);stroke-width:1" /><line x1="756.782"
y1="-1014.124" x2="757.950" y2="-1014.124"
style="stroke:rgb(96,176,207);stroke-width:1" /><line x1="757.950"
y1="-1014.124" x2="759.767" y2="-1014.514"
style="stroke:rgb(96,176,207);stroke-width:1" /><line x1="759.767"
y1="-1014.514" x2="760.287" y2="-1013.606"
style="stroke:rgb(96,176,207);stroke-width:1" /><line x1="760.287"
y1="-1013.606" x2="759.897" y2="-1012.568"
style="stroke:rgb(96,176,207);stroke-width:1" /><line x1="759.897"
y1="-1012.568" x2="758.469" y2="-1011.920"
style="stroke:rgb(96,176,207);stroke-width:1" /><line x1="758.469"
y1="-1011.920" x2="757.561" y2="-1010.753"
style="stroke:rgb(96,176,207);stroke-width:1" /><line x1="757.561"
y1="-1010.753" x2="759.118" y2="-1009.067"
style="stroke:rgb(96,176,207);stroke-width:1" /><line x1="759.118"
y1="-1009.067" x2="762.363" y2="-1007.121"
style="stroke:rgb(96,176,207);stroke-width:1" /><line x1="762.363"
y1="-1007.121" x2="762.623" y2="-1005.695"
style="stroke:rgb(96,176,207);stroke-width:1" /><line x1="762.623"
y1="-1005.695" x2="761.325" y2="-1005.435"
style="stroke:rgb(96,176,207);stroke-width:1" /><line x1="761.325"
y1="-1005.435" x2="763.272" y2="-1003.490"
style="stroke:rgb(96,176,207);stroke-width:1" /><line x1="763.272"
y1="-1003.490" x2="763.142" y2="-1002.712"
style="stroke:rgb(96,176,207);stroke-width:1" /><line x1="763.142"
y1="-1002.712" x2="762.493" y2="-1002.193"
style="stroke:rgb(96,176,207);stroke-width:1" /><line x1="762.493"
y1="-1002.193" x2="763.142" y2="-1001.156"
style="stroke:rgb(96,176,207);stroke-width:1" /><line x1="763.142"
y1="-1001.156" x2="762.363" y2="-1000.377"
style="stroke:rgb(96,176,207);stroke-width:1" /><line x1="762.363"
y1="-1000.377" x2="762.623" y2="-998.951"
style="stroke:rgb(96,176,207);stroke-width:1" /><line x1="762.623"
y1="-998.951" x2="761.974" y2="-998.043"
style="stroke:rgb(96,176,207);stroke-width:1" /><line x1="761.974"
y1="-998.043" x2="760.287" y2="-998.562"
style="stroke:rgb(96,176,207);stroke-width:1" /><line x1="760.287"
y1="-998.562" x2="757.431" y2="-1000.896"
style="stroke:rgb(96,176,207);stroke-width:1" /><line x1="757.431"
y1="-1000.896" x2="755.744" y2="-1003.490"
style="stroke:rgb(96,176,207);stroke-width:1" /><line x1="755.744"
y1="-1003.490" x2="753.667" y2="-1004.917"
style="stroke:rgb(96,176,207);stroke-width:1" /><line x1="753.667"
y1="-1004.917" x2="751.590" y2="-1004.398"
style="stroke:rgb(96,176,207);stroke-width:1" /><line x1="753.014"
y1="-1002.940" x2="750.962" y2="-1004.079"
style="stroke:rgb(96,176,207);stroke-width:1" /><line x1="750.962"
y1="-1004.079" x2="750.050" y2="-1007.269"
style="stroke:rgb(96,176,207);stroke-width:1" /><line x1="750.050"
y1="-1007.269" x2="750.734" y2="-1010.230"
style="stroke:rgb(96,176,207);stroke-width:1" /><line x1="750.734"
y1="-1010.230" x2="752.786" y2="-1011.369"
style="stroke:rgb(96,176,207);stroke-width:1" /><line x1="752.786"
y1="-1011.369" x2="754.155" y2="-1011.597"
style="stroke:rgb(96,176,207);stroke-width:1" /><line x1="761.798"
y1="-1040.464" x2="762.570" y2="-1031.599"
style="stroke:rgb(96,176,207);stroke-width:1" /><line x1="762.570"
y1="-1031.599" x2="761.991" y2="-1019.843"
style="stroke:rgb(96,176,207);stroke-width:1" /><line x1="761.991"
y1="-1019.843" x2="761.798" y2="-1014.639"
style="stroke:rgb(96,176,207);stroke-width:1" /><line x1="761.798"
y1="-1014.639" x2="760.641" y2="-1009.243"
style="stroke:rgb(96,176,207);stroke-width:1" /><line x1="748.454"
y1="-1041.671" x2="749.138" y2="-1037.798"
style="stroke:rgb(96,176,207);stroke-width:1" /><line x1="749.138"
y1="-1037.798" x2="752.102" y2="-1036.203"
style="stroke:rgb(96,176,207);stroke-width:1" /><line x1="752.102"
y1="-1036.203" x2="749.366" y2="-1035.064"
style="stroke:rgb(96,176,207);stroke-width:1" /><line x1="749.366"
y1="-1035.064" x2="752.102" y2="-1031.646"
style="stroke:rgb(96,176,207);stroke-width:1" /><line x1="752.102"
y1="-1031.646" x2="753.927" y2="-1024.356"
style="stroke:rgb(96,176,207);stroke-width:1" /><line x1="753.927"
y1="-1024.356" x2="755.523" y2="-1014.559"
style="stroke:rgb(96,176,207);stroke-width:1" /><line x1="752.330"
y1="-1043.494" x2="756.207" y2="-1035.520"
style="stroke:rgb(96,176,207);stroke-width:1" /><line x1="756.207"
y1="-1035.520" x2="759.171" y2="-1028.685"
style="stroke:rgb(96,176,207);stroke-width:1" /><line x1="759.171"
y1="-1028.685" x2="759.855" y2="-1019.799"
style="stroke:rgb(96,176,207);stroke-width:1" /><line x1="759.855"
y1="-1019.799" x2="760.083" y2="-1015.015"
style="stroke:rgb(96,176,207);stroke-width:1" /><line x1="769.432"
y1="-1043.721" x2="771.713" y2="-1040.988"
style="stroke:rgb(96,176,207);stroke-width:1" /><line x1="771.713"
y1="-1040.988" x2="772.397" y2="-1034.380"
style="stroke:rgb(96,176,207);stroke-width:1" /><line x1="772.397"
y1="-1034.380" x2="771.941" y2="-1023.217"
style="stroke:rgb(96,176,207);stroke-width:1" /><line x1="771.941"
y1="-1023.217" x2="769.660" y2="-1007.269"
style="stroke:rgb(96,176,207);stroke-width:1" /><line x1="764.644"
y1="-1041.215" x2="767.380" y2="-1032.330"
style="stroke:rgb(96,176,207);stroke-width:1" /><line x1="767.380"
y1="-1032.330" x2="768.520" y2="-1017.521"
style="stroke:rgb(96,176,207);stroke-width:1" /><line x1="768.520"
y1="-1017.521" x2="769.204" y2="-1004.535"
style="stroke:rgb(96,176,207);stroke-width:1" /><line x1="769.204"
y1="-1004.535" x2="770.116" y2="-999.294"
style="stroke:rgb(96,176,207);stroke-width:1" /><line x1="770.116"
y1="-999.294" x2="765.100" y2="-994.054"
style="stroke:rgb(96,176,207);stroke-width:1" /><line x1="765.100"
y1="-994.054" x2="761.451" y2="-997.927"
style="stroke:rgb(96,176,207);stroke-width:1" /><line x1="774.449"
y1="-1041.443" x2="777.413" y2="-1038.026"
style="stroke:rgb(96,176,207);stroke-width:1" /><line x1="777.413"
y1="-1038.026" x2="774.905" y2="-1036.203"
style="stroke:rgb(96,176,207);stroke-width:1" /><line x1="774.905"
y1="-1036.203" x2="778.097" y2="-1033.925"
style="stroke:rgb(96,176,207);stroke-width:1" /><line x1="778.097"
y1="-1033.925" x2="775.589" y2="-1026.862"
style="stroke:rgb(96,176,207);stroke-width:1" /><line x1="775.589"
y1="-1026.862" x2="772.169" y2="-1014.331"
style="stroke:rgb(96,176,207);stroke-width:1" /><line x1="772.169"
y1="-1014.331" x2="770.116" y2="-1004.535"
style="stroke:rgb(96,176,207);stroke-width:1" /><line x1="770.116"
y1="-1004.535" x2="769.660" y2="-1002.256"
style="stroke:rgb(96,176,207);stroke-width:1" /><line x1="768.520"
y1="-1044.861" x2="773.537" y2="-1041.899"
style="stroke:rgb(96,176,207);stroke-width:1" /><line x1="773.537"
y1="-1041.899" x2="778.325" y2="-1039.848"
style="stroke:rgb(96,176,207);stroke-width:1" /><line x1="778.325"
y1="-1039.848" x2="780.834" y2="-1038.026"
style="stroke:rgb(96,176,207);stroke-width:1" /><line x1="780.834"
y1="-1038.026" x2="782.886" y2="-1035.064"
style="stroke:rgb(96,176,207);stroke-width:1" /><line x1="782.886"
y1="-1035.064" x2="784.710" y2="-1029.368"
style="stroke:rgb(96,176,207);stroke-width:1" /><line x1="784.710"
y1="-1029.368" x2="783.570" y2="-1018.432"
style="stroke:rgb(96,176,207);stroke-width:1" /><line x1="783.570"
y1="-1018.432" x2="784.254" y2="-1010.458"
style="stroke:rgb(96,176,207);stroke-width:1" /><line x1="784.254"
y1="-1010.458" x2="784.026" y2="-1007.952"
style="stroke:rgb(96,176,207);stroke-width:1" /><line x1="784.026"
y1="-1007.952" x2="780.149" y2="-985.852"
style="stroke:rgb(96,176,207);stroke-width:1" /><line x1="780.149"
y1="-985.852" x2="779.237" y2="-985.397"
style="stroke:rgb(96,176,207);stroke-width:1" /><line x1="779.237"
y1="-985.397" x2="778.781" y2="-981.524"
style="stroke:rgb(96,176,207);stroke-width:1" /><line x1="778.781"
y1="-981.524" x2="778.097" y2="-981.524"
style="stroke:rgb(96,176,207);stroke-width:1" /><line x1="778.097"
y1="-981.524" x2="777.413" y2="-981.524"
style="stroke:rgb(96,176,207);stroke-width:1" /><line x1="751.874"
y1="-1044.633" x2="747.770" y2="-1042.355"
style="stroke:rgb(96,176,207);stroke-width:1" /><line x1="747.770"
y1="-1042.355" x2="741.841" y2="-1040.304"
style="stroke:rgb(96,176,207);stroke-width:1" /><line x1="741.841"
y1="-1040.304" x2="737.053" y2="-1038.709"
style="stroke:rgb(96,176,207);stroke-width:1" /><line x1="737.053"
y1="-1038.709" x2="734.088" y2="-1034.153"
style="stroke:rgb(96,176,207);stroke-width:1" /><line x1="734.088"
y1="-1034.153" x2="732.720" y2="-1023.672"
style="stroke:rgb(96,176,207);stroke-width:1" /><line x1="732.720"
y1="-1023.672" x2="733.176" y2="-1011.597"
style="stroke:rgb(96,176,207);stroke-width:1" /><line x1="733.176"
y1="-1011.597" x2="736.140" y2="-1006.813"
style="stroke:rgb(96,176,207);stroke-width:1" /><line x1="736.140"
y1="-1006.813" x2="740.017" y2="-1003.395"
style="stroke:rgb(96,176,207);stroke-width:1" /><line x1="740.017"
y1="-1003.395" x2="742.981" y2="-1001.117"
style="stroke:rgb(96,176,207);stroke-width:1" /><line x1="742.981"
y1="-1001.117" x2="748.910" y2="-1001.117"
style="stroke:rgb(96,176,207);stroke-width:1" /><line x1="748.910"
y1="-1001.117" x2="752.330" y2="-1001.345"
style="stroke:rgb(96,176,207);stroke-width:1" /><line x1="752.330"
y1="-1001.345" x2="754.839" y2="-1002.712"
style="stroke:rgb(96,176,207);stroke-width:1" /><line x1="777.939"
y1="-981.184" x2="779.367" y2="-977.941"
style="stroke:rgb(96,176,207);stroke-width:1" /><line x1="779.367"
y1="-977.941" x2="780.146" y2="-974.440"
style="stroke:rgb(96,176,207);stroke-width:1" /><line x1="776.957"
y1="-972.866" x2="777.869" y2="-981.751"
style="stroke:rgb(96,176,207);stroke-width:1" /><line x1="777.869"
y1="-981.751" x2="777.869" y2="-988.814"
style="stroke:rgb(96,176,207);stroke-width:1" /><line x1="777.869"
y1="-988.814" x2="778.553" y2="-995.649"
style="stroke:rgb(96,176,207);stroke-width:1" /><line x1="778.553"
y1="-995.649" x2="778.553" y2="-1001.345"
style="stroke:rgb(96,176,207);stroke-width:1" /><line x1="778.553"
y1="-1001.345" x2="778.553" y2="-1007.496"
style="stroke:rgb(96,176,207);stroke-width:1" /><line x1="778.553"
y1="-1007.496" x2="778.097" y2="-1017.977"
style="stroke:rgb(96,176,207);stroke-width:1" /><line x1="778.097"
y1="-1017.977" x2="780.378" y2="-1024.812"
style="stroke:rgb(96,176,207);stroke-width:1" /><line x1="768.520"
y1="-997.472" x2="769.660" y2="-992.687"
style="stroke:rgb(96,176,207);stroke-width:1" /><line x1="769.660"
y1="-992.687" x2="770.572" y2="-989.270"
style="stroke:rgb(96,176,207);stroke-width:1" /><line x1="770.572"
y1="-989.270" x2="770.572" y2="-982.891"
style="stroke:rgb(96,176,207);stroke-width:1" /><line x1="770.572"
y1="-982.891" x2="772.853" y2="-978.562"
style="stroke:rgb(96,176,207);stroke-width:1" /><line x1="772.853"
y1="-978.562" x2="775.361" y2="-975.828"
style="stroke:rgb(96,176,207);stroke-width:1" /><line x1="775.361"
y1="-975.828" x2="777.185" y2="-972.410"
style="stroke:rgb(96,176,207);stroke-width:1" /><line x1="777.185"
y1="-972.410" x2="777.641" y2="-969.449"
style="stroke:rgb(96,176,207);stroke-width:1" /><line x1="750.734"
y1="-971.955" x2="756.207" y2="-978.334"
style="stroke:rgb(96,176,207);stroke-width:1" /><line x1="756.207"
y1="-978.334" x2="760.539" y2="-984.941"
style="stroke:rgb(96,176,207);stroke-width:1" /><line x1="760.539"
y1="-984.941" x2="760.767" y2="-991.093"
style="stroke:rgb(96,176,207);stroke-width:1" /><line x1="760.767"
y1="-991.093" x2="760.311" y2="-997.700"
style="stroke:rgb(96,176,207);stroke-width:1" /><line x1="739.789"
y1="-1002.940" x2="740.017" y2="-999.978"
style="stroke:rgb(96,176,207);stroke-width:1" /><line x1="740.017"
y1="-999.978" x2="740.473" y2="-992.004"
style="stroke:rgb(96,176,207);stroke-width:1" /></g></svg>
