<?xml version="1.0" encoding="utf-8"?><svg><g
transform="translate(0,1200)"><rect x="0" y="-1199" width="1599"
height="1199" style="fill:rgb(0,0,0)" /><line x1=" 0.000" y1="-0.000"
x2="1600.000" y2="-0.000" style="stroke:rgb(99,99,99);stroke-width:1" /><line
x1="1600.000" y1="-0.000" x2="1600.000" y2="-1200.000"
style="stroke:rgb(99,99,99);stroke-width:1" /><line x1="1600.000"
y1="-1200.000" x2=" 0.000" y2="-1200.000"
style="stroke:rgb(99,99,99);stroke-width:1" /><line x1=" 0.000"
y1="-1200.000" x2=" 0.000" y2="-0.000"
style="stroke:rgb(99,99,99);stroke-width:1" /><line x1="146.877"
y1="-134.245" x2="146.877" y2="-1100.245"
style="stroke:rgb(0,0,255);stroke-width:3" /><line x1="146.877"
y1="-1100.245" x2="1462.877" y2="-1100.245"
style="stroke:rgb(0,0,255);stroke-width:3" /><line x1="1462.877"
y1="-134.245" x2="1462.877" y2="-1100.245"
style="stroke:rgb(0,0,255);stroke-width:3" /><line x1="146.877"
y1="-134.245" x2="1462.877" y2="-134.245"
style="stroke:rgb(0,0,255);stroke-width:3" /><arc cx="401.268"
cy="-628.457" r="86.578" ang1=" 1.637" ang2=" 4.647"
stroke="rgb(144,152,0)" stroke-width="1" /><line x1="470.137"
y1="-628.358" x2="499.398" y2="-628.358"
style="stroke:rgb(144,152,0);stroke-width:1" /><line x1="527.864"
y1="-628.284" x2="587.972" y2="-628.284"
style="stroke:rgb(47,47,47);stroke-width:10" /><line x1="541.436"
y1="-585.081" x2="587.644" y2="-614.470"
style="stroke:rgb(47,47,47);stroke-width:10" /><line x1="604.226"
y1="-628.401" x2="658.778" y2="-628.401"
style="stroke:rgb(144,152,0);stroke-width:1" /><circle cx="849.835"
cy="-544.810" r="20.660" stroke="rgb(128,128,128)" stroke-width="1"
fill="rgb(0,0,0)" /><circle cx="896.281" cy="-544.810" r="20.660"
stroke="rgb(128,128,128)" stroke-width="1" fill="rgb(0,0,0)" /><line
x1="846.039" y1="-572.658" x2="846.039" y2="-590.445"
style="stroke:rgb(128,128,128);stroke-width:1" /><line x1="851.710"
y1="-569.744" x2="851.710" y2="-587.532"
style="stroke:rgb(128,128,128);stroke-width:1" /><line x1="840.368"
y1="-583.085" x2="859.986" y2="-574.651"
style="stroke:rgb(128,128,128);stroke-width:1" /><line x1="891.641"
y1="-571.431" x2="891.641" y2="-589.219"
style="stroke:rgb(128,128,128);stroke-width:1" /><line x1="897.312"
y1="-568.518" x2="897.312" y2="-586.305"
style="stroke:rgb(128,128,128);stroke-width:1" /><line x1="885.970"
y1="-581.858" x2="905.588" y2="-573.425"
style="stroke:rgb(128,128,128);stroke-width:1" /><line x1="811.402"
y1="-547.063" x2="938.318" y2="-547.063"
style="stroke:rgb(128,128,128);stroke-width:1" /><circle cx="846.464"
cy="-689.827" r="20.660" stroke="rgb(128,128,128)" stroke-width="1"
fill="rgb(0,0,0)" /><circle cx="892.910" cy="-689.827" r="20.660"
stroke="rgb(128,128,128)" stroke-width="1" fill="rgb(0,0,0)" /><line
x1="842.668" y1="-717.675" x2="842.668" y2="-735.462"
style="stroke:rgb(128,128,128);stroke-width:1" /><line x1="848.339"
y1="-714.762" x2="848.339" y2="-732.549"
style="stroke:rgb(128,128,128);stroke-width:1" /><line x1="836.997"
y1="-728.102" x2="856.615" y2="-719.668"
style="stroke:rgb(128,128,128);stroke-width:1" /><line x1="888.270"
y1="-716.449" x2="888.270" y2="-734.236"
style="stroke:rgb(128,128,128);stroke-width:1" /><line x1="893.941"
y1="-713.535" x2="893.941" y2="-731.323"
style="stroke:rgb(128,128,128);stroke-width:1" /><line x1="882.599"
y1="-726.876" x2="902.217" y2="-718.442"
style="stroke:rgb(128,128,128);stroke-width:1" /><line x1="808.031"
y1="-692.080" x2="934.947" y2="-692.080"
style="stroke:rgb(128,128,128);stroke-width:1" /><line x1="294.987"
y1="-240.318" x2="294.960" y2="-1017.927"
style="stroke:rgb(144,152,0);stroke-width:1" /><arc cx="714.026"
cy="-629.329" r="86.578" ang1=" 4.778" ang2=" 1.505"
stroke="rgb(144,152,0)" stroke-width="1" /><line x1="973.954"
y1="-625.112" x2="973.954" y2="-501.175"
style="stroke:rgb(144,152,0);stroke-width:1" /><line x1="973.954"
y1="-501.175" x2="906.458" y2="-501.175"
style="stroke:rgb(144,152,0);stroke-width:1" /><line x1="906.458"
y1="-501.175" x2="906.458" y2="-394.207"
style="stroke:rgb(144,152,0);stroke-width:1" /><line x1="906.458"
y1="-394.207" x2="934.495" y2="-394.207"
style="stroke:rgb(144,152,0);stroke-width:1" /><line x1="934.495"
y1="-380.896" x2="934.495" y2="-407.461"
style="stroke:rgb(144,152,0);stroke-width:1" /><line x1="940.840"
y1="-380.896" x2="940.840" y2="-407.461"
style="stroke:rgb(144,152,0);stroke-width:1" /><circle cx="1003.518"
cy="-334.940" r="21.009" stroke="rgb(47,47,47)" stroke-width="3"
fill="rgb(0,0,0)" /><circle cx="1003.455" cy="-394.348" r="21.009"
stroke="rgb(47,47,47)" stroke-width="3" fill="rgb(0,0,0)" /><circle
cx="1003.455" cy="-451.013" r="21.009" stroke="rgb(255,0,0)"
stroke-width="3" fill="rgb(0,0,0)" /><line x1="982.446" y1="-394.348"
x2="940.840" y2="-394.348" style="stroke:rgb(144,152,0);stroke-width:1" /><line
x1="1024.464" y1="-394.348" x2="1039.314" y2="-394.348"
style="stroke:rgb(144,152,0);stroke-width:1" /><line x1="1039.389"
y1="-379.368" x2="1039.389" y2="-409.005"
style="stroke:rgb(144,152,0);stroke-width:1" /><line x1="1042.743"
y1="-383.871" x2="1042.743" y2="-403.158"
style="stroke:rgb(144,152,0);stroke-width:1" /><line x1="1046.461"
y1="-389.244" x2="1046.461" y2="-397.785"
style="stroke:rgb(144,152,0);stroke-width:1" /><line x1="973.954"
y1="-625.112" x2="973.954" y2="-752.757"
style="stroke:rgb(144,152,0);stroke-width:1" /><line x1="973.954"
y1="-752.757" x2="905.641" y2="-752.757"
style="stroke:rgb(144,152,0);stroke-width:1" /><line x1="905.641"
y1="-752.757" x2="905.641" y2="-920.955"
style="stroke:rgb(144,152,0);stroke-width:1" /><line x1="905.641"
y1="-920.955" x2="942.293" y2="-920.955"
style="stroke:rgb(144,152,0);stroke-width:1" /><line x1="950.299"
y1="-845.592" x2="1012.040" y2="-845.592"
style="stroke:rgb(47,47,47);stroke-width:3" /><line x1="969.338"
y1="-803.508" x2="1011.712" y2="-830.462"
style="stroke:rgb(0,255,0);stroke-width:3" /><line x1="934.954"
y1="-827.346" x2="934.954" y2="-858.793"
style="stroke:rgb(144,152,0);stroke-width:1" /><line x1="934.954"
y1="-842.122" x2="905.641" y2="-842.122"
style="stroke:rgb(144,152,0);stroke-width:1" /><line x1="1024.464"
y1="-841.460" x2="1039.314" y2="-841.460"
style="stroke:rgb(144,152,0);stroke-width:1" /><line x1="1039.389"
y1="-826.479" x2="1039.389" y2="-856.116"
style="stroke:rgb(144,152,0);stroke-width:1" /><line x1="1042.743"
y1="-830.983" x2="1042.743" y2="-850.270"
style="stroke:rgb(144,152,0);stroke-width:1" /><line x1="1046.461"
y1="-836.356" x2="1046.461" y2="-844.897"
style="stroke:rgb(144,152,0);stroke-width:1" /><line x1="947.687"
y1="-911.433" x2="1010.828" y2="-911.433"
style="stroke:rgb(144,152,0);stroke-width:2" /><line x1="1010.828"
y1="-911.433" x2="1010.828" y2="-930.562"
style="stroke:rgb(144,152,0);stroke-width:2" /><line x1="1010.828"
y1="-930.562" x2="947.687" y2="-930.562"
style="stroke:rgb(144,152,0);stroke-width:2" /><line x1="947.687"
y1="-930.562" x2="947.687" y2="-911.433"
style="stroke:rgb(144,152,0);stroke-width:2" /><line x1="942.293"
y1="-920.955" x2="957.131" y2="-920.955"
style="stroke:rgb(144,152,0);stroke-width:2" /><line x1="957.131"
y1="-914.606" x2="957.131" y2="-927.305"
style="stroke:rgb(144,152,0);stroke-width:2" /><line x1="957.131"
y1="-927.305" x2="992.844" y2="-920.955"
style="stroke:rgb(144,152,0);stroke-width:2" /><line x1="957.131"
y1="-914.606" x2="992.844" y2="-920.955"
style="stroke:rgb(144,152,0);stroke-width:2" /><line x1="1024.576"
y1="-921.116" x2="1039.426" y2="-921.116"
style="stroke:rgb(144,152,0);stroke-width:1" /><line x1="1039.500"
y1="-906.136" x2="1039.500" y2="-935.773"
style="stroke:rgb(144,152,0);stroke-width:1" /><line x1="1042.854"
y1="-910.639" x2="1042.854" y2="-929.927"
style="stroke:rgb(144,152,0);stroke-width:1" /><line x1="1046.572"
y1="-916.012" x2="1046.572" y2="-924.554"
style="stroke:rgb(144,152,0);stroke-width:1" /><line x1="800.599"
y1="-628.401" x2="1085.672" y2="-628.401"
style="stroke:rgb(144,152,0);stroke-width:1" /><circle cx="1234.583"
cy="-335.677" r="21.009" stroke="rgb(47,47,47)" stroke-width="3"
fill="rgb(0,0,0)" /><circle cx="1234.520" cy="-395.085" r="21.009"
stroke="rgb(47,47,47)" stroke-width="3" fill="rgb(0,0,0)" /><circle
cx="1234.520" cy="-451.750" r="21.009" stroke="rgb(47,47,47)"
stroke-width="3" fill="rgb(0,0,0)" /><circle cx="1137.686" cy="-578.593"
r="21.009" stroke="rgb(47,47,47)" stroke-width="3" fill="rgb(0,0,0)" /><line
x1="1094.575" y1="-261.289" x2="1094.575" y2="-619.250"
style="stroke:rgb(128,128,128);stroke-width:1" /><line x1="1094.575"
y1="-619.250" x2="1339.165" y2="-619.250"
style="stroke:rgb(128,128,128);stroke-width:1" /><line x1="1339.165"
y1="-619.250" x2="1339.165" y2="-261.289"
style="stroke:rgb(128,128,128);stroke-width:1" /><line x1="1339.165"
y1="-261.289" x2="1094.575" y2="-261.289"
style="stroke:rgb(128,128,128);stroke-width:1" /><circle cx="1234.583"
cy="-768.358" r="21.009" stroke="rgb(255,0,0)" stroke-width="3"
fill="rgb(0,0,0)" /><circle cx="1234.520" cy="-886.900" r="21.009"
stroke="rgb(47,47,47)" stroke-width="3" fill="rgb(0,0,0)" /><line
x1="1221.018" y1="-871.326" x2="1248.023" y2="-902.473"
style="stroke:rgb(47,47,47);stroke-width:3" /><line x1="1234.520"
y1="-886.900" x2="1221.955" y2="-903.238"
style="stroke:rgb(47,47,47);stroke-width:3" /><line x1="1234.520"
y1="-886.900" x2="1246.713" y2="-870.281"
style="stroke:rgb(47,47,47);stroke-width:3" /><line x1="1094.575"
y1="-653.148" x2="1094.575" y2="-1011.109"
style="stroke:rgb(128,128,128);stroke-width:1" /><line x1="1094.575"
y1="-1011.109" x2="1339.165" y2="-1011.109"
style="stroke:rgb(128,128,128);stroke-width:1" /><line x1="1339.165"
y1="-1011.109" x2="1339.165" y2="-653.148"
style="stroke:rgb(128,128,128);stroke-width:1" /><line x1="1339.165"
y1="-653.148" x2="1094.575" y2="-653.148"
style="stroke:rgb(128,128,128);stroke-width:1" /><line x1="599.793"
y1="-796.017" x2="636.105" y2="-821.914"
style="stroke:rgb(128,128,128);stroke-width:1" /><line x1="601.655"
y1="-811.656" x2="633.498" y2="-833.640"
style="stroke:rgb(128,128,128);stroke-width:1" /><line x1="636.200"
y1="-849.281" x2="599.406" y2="-824.074"
style="stroke:rgb(128,128,128);stroke-width:1" /><line x1="659.328"
y1="-796.017" x2="695.640" y2="-821.914"
style="stroke:rgb(128,128,128);stroke-width:1" /><line x1="661.190"
y1="-811.656" x2="693.033" y2="-833.640"
style="stroke:rgb(128,128,128);stroke-width:1" /><line x1="695.735"
y1="-849.281" x2="658.941" y2="-824.074"
style="stroke:rgb(128,128,128);stroke-width:1" /><arc cx="1139.286"
cy="-767.345" r="14.464" ang1=" 1.682" ang2=" 4.601" stroke="rgb(79,0,0)"
stroke-width="0" /><line x1="1137.685" y1="-752.970" x2="1151.510"
y2="-752.970" style="stroke:rgb(79,0,0);stroke-width:0" /><line
x1="1137.685" y1="-781.721" x2="1151.510" y2="-781.721"
style="stroke:rgb(79,0,0);stroke-width:0" /><line x1="1151.510"
y1="-747.294" x2="1151.510" y2="-787.426"
style="stroke:rgb(79,0,0);stroke-width:0" /><line x1="1151.510"
y1="-747.294" x2="1178.173" y2="-747.294"
style="stroke:rgb(79,0,0);stroke-width:0" /><line x1="1178.173"
y1="-747.294" x2="1178.173" y2="-787.426"
style="stroke:rgb(79,0,0);stroke-width:0" /><line x1="1178.173"
y1="-787.426" x2="1151.510" y2="-787.426"
style="stroke:rgb(79,0,0);stroke-width:0" /><arc cx="1139.003"
cy="-858.899" r="14.464" ang1=" 1.682" ang2=" 4.601"
stroke="rgb(15,72,0)" stroke-width="1" /><line x1="1137.402"
y1="-873.422" x2="1151.227" y2="-873.422"
style="stroke:rgb(15,72,0);stroke-width:1" /><line x1="1151.227"
y1="-867.746" x2="1151.227" y2="-907.878"
style="stroke:rgb(15,72,0);stroke-width:1" /><line x1="1151.227"
y1="-867.746" x2="1177.890" y2="-867.746"
style="stroke:rgb(15,72,0);stroke-width:1" /><line x1="1177.890"
y1="-867.746" x2="1177.890" y2="-907.878"
style="stroke:rgb(15,72,0);stroke-width:1" /><line x1="1177.890"
y1="-907.878" x2="1151.227" y2="-907.878"
style="stroke:rgb(15,72,0);stroke-width:1" /><line x1="665.881"
y1="-907.494" x2="665.881" y2="-945.780"
style="stroke:rgb(47,47,47);stroke-width:3" /><line x1="665.881"
y1="-945.780" x2="689.692" y2="-945.780"
style="stroke:rgb(47,47,47);stroke-width:3" /><line x1="689.692"
y1="-945.780" x2="689.692" y2="-907.494"
style="stroke:rgb(47,47,47);stroke-width:3" /><line x1="689.692"
y1="-907.494" x2="665.881" y2="-907.494"
style="stroke:rgb(47,47,47);stroke-width:3" /><line x1="606.346"
y1="-907.494" x2="606.346" y2="-945.780"
style="stroke:rgb(0,255,0);stroke-width:3" /><line x1="606.346"
y1="-945.780" x2="630.157" y2="-945.780"
style="stroke:rgb(0,255,0);stroke-width:3" /><line x1="630.157"
y1="-945.780" x2="630.157" y2="-907.494"
style="stroke:rgb(0,255,0);stroke-width:3" /><line x1="630.157"
y1="-907.494" x2="606.346" y2="-907.494"
style="stroke:rgb(0,255,0);stroke-width:3" /><line x1="1176.402"
y1="-557.230" x2="1176.402" y2="-601.324"
style="stroke:rgb(128,128,128);stroke-width:1" /><line x1="1176.402"
y1="-601.324" x2="1211.660" y2="-601.324"
style="stroke:rgb(128,128,128);stroke-width:1" /><line x1="1211.660"
y1="-601.324" x2="1211.660" y2="-557.230"
style="stroke:rgb(128,128,128);stroke-width:1" /><line x1="1211.660"
y1="-557.230" x2="1176.402" y2="-557.230"
style="stroke:rgb(128,128,128);stroke-width:1" /><line x1="527.864"
y1="-628.284" x2="587.972" y2="-628.284"
style="stroke:rgb(47,47,47);stroke-width:10" /><line x1="541.436"
y1="-585.081" x2="587.644" y2="-614.470"
style="stroke:rgb(47,47,47);stroke-width:10" /><line x1="950.299"
y1="-845.592" x2="1012.040" y2="-845.592"
style="stroke:rgb(47,47,47);stroke-width:10" /><line x1="969.338"
y1="-803.508" x2="1011.712" y2="-830.462"
style="stroke:rgb(0,255,0);stroke-width:10" /><line x1="487.260"
y1="-616.280" x2="511.537" y2="-640.437"
style="stroke:rgb(144,152,0);stroke-width:1" /><line x1="487.260"
y1="-640.437" x2="511.537" y2="-616.280"
style="stroke:rgb(144,152,0);stroke-width:1" /><line x1="646.639"
y1="-640.480" x2="670.916" y2="-616.323"
style="stroke:rgb(144,152,0);stroke-width:1" /><line x1="646.639"
y1="-616.323" x2="670.916" y2="-640.480"
style="stroke:rgb(144,152,0);stroke-width:1" /><line x1="402.892"
y1="-615.089" x2="402.892" y2="-581.204"
style="stroke:rgb(47,47,47);stroke-width:10" /><line x1="369.398"
y1="-628.401" x2="389.580" y2="-628.401"
style="stroke:rgb(47,47,47);stroke-width:10" /><line x1="355.694"
y1="-628.401" x2="389.580" y2="-628.401"
style="stroke:rgb(47,47,47);stroke-width:10" /><line x1="416.204"
y1="-628.401" x2="439.298" y2="-628.401"
style="stroke:rgb(47,47,47);stroke-width:10" /><line x1="416.204"
y1="-628.401" x2="450.089" y2="-628.401"
style="stroke:rgb(47,47,47);stroke-width:10" /><line x1="402.892"
y1="-641.713" x2="402.892" y2="-675.599"
style="stroke:rgb(47,47,47);stroke-width:10" /><line x1="314.691"
y1="-628.401" x2="294.973" y2="-628.401"
style="stroke:rgb(144,152,0);stroke-width:1" /><text id="101" x="178.109"
y="-165.471" transform="rotate( 1.571,0,0)" font-family="SimHei"
font-size="18" fill="rgb(0,255,0)"> ORT400</text><line x1="1234.583"
y1="-768.358" x2="1246.775" y2="-751.739"
style="stroke:rgb(255,0,0);stroke-width:3" /><line x1="1234.583"
y1="-768.358" x2="1222.017" y2="-784.697"
style="stroke:rgb(255,0,0);stroke-width:3" /><line x1="1221.080"
y1="-752.785" x2="1248.085" y2="-783.932"
style="stroke:rgb(255,0,0);stroke-width:3" /><line x1="1124.183"
y1="-563.020" x2="1151.188" y2="-594.166"
style="stroke:rgb(47,47,47);stroke-width:3" /><line x1="1137.686"
y1="-578.593" x2="1125.120" y2="-594.932"
style="stroke:rgb(47,47,47);stroke-width:3" /><line x1="1137.686"
y1="-578.593" x2="1149.878" y2="-561.974"
style="stroke:rgb(47,47,47);stroke-width:3" /><line x1="1221.018"
y1="-436.177" x2="1248.023" y2="-467.324"
style="stroke:rgb(47,47,47);stroke-width:3" /><line x1="1234.520"
y1="-451.750" x2="1221.955" y2="-468.089"
style="stroke:rgb(47,47,47);stroke-width:3" /><line x1="1234.520"
y1="-451.750" x2="1246.713" y2="-435.131"
style="stroke:rgb(47,47,47);stroke-width:3" /><line x1="1221.018"
y1="-379.512" x2="1248.023" y2="-410.658"
style="stroke:rgb(47,47,47);stroke-width:3" /><line x1="1234.520"
y1="-395.085" x2="1221.955" y2="-411.424"
style="stroke:rgb(47,47,47);stroke-width:3" /><line x1="1234.520"
y1="-395.085" x2="1246.713" y2="-378.466"
style="stroke:rgb(47,47,47);stroke-width:3" /><line x1="1221.080"
y1="-320.104" x2="1248.085" y2="-351.250"
style="stroke:rgb(47,47,47);stroke-width:3" /><line x1="1234.583"
y1="-335.677" x2="1222.017" y2="-352.016"
style="stroke:rgb(47,47,47);stroke-width:3" /><line x1="1234.583"
y1="-335.677" x2="1246.775" y2="-319.058"
style="stroke:rgb(47,47,47);stroke-width:3" /><line x1="989.953"
y1="-435.440" x2="1016.958" y2="-466.586"
style="stroke:rgb(255,0,0);stroke-width:3" /><line x1="1003.455"
y1="-451.013" x2="990.890" y2="-467.352"
style="stroke:rgb(255,0,0);stroke-width:3" /><line x1="1003.455"
y1="-451.013" x2="1015.648" y2="-434.394"
style="stroke:rgb(255,0,0);stroke-width:3" /><line x1="989.953"
y1="-378.774" x2="1016.958" y2="-409.921"
style="stroke:rgb(47,47,47);stroke-width:3" /><line x1="1003.455"
y1="-394.348" x2="990.890" y2="-410.687"
style="stroke:rgb(47,47,47);stroke-width:3" /><line x1="1003.455"
y1="-394.348" x2="1015.648" y2="-377.729"
style="stroke:rgb(47,47,47);stroke-width:3" /><line x1="990.015"
y1="-319.367" x2="1017.020" y2="-350.513"
style="stroke:rgb(47,47,47);stroke-width:3" /><line x1="1003.518"
y1="-334.940" x2="990.952" y2="-351.279"
style="stroke:rgb(47,47,47);stroke-width:3" /><line x1="1003.518"
y1="-334.940" x2="1015.710" y2="-318.321"
style="stroke:rgb(47,47,47);stroke-width:3" /><line x1="732.078"
y1="-615.089" x2="732.078" y2="-581.204"
style="stroke:rgb(47,47,47);stroke-width:10" /><line x1="684.880"
y1="-628.401" x2="718.766" y2="-628.401"
style="stroke:rgb(47,47,47);stroke-width:10" /><line x1="698.584"
y1="-628.401" x2="718.766" y2="-628.401"
style="stroke:rgb(47,47,47);stroke-width:10" /><line x1="732.078"
y1="-641.713" x2="732.078" y2="-675.599"
style="stroke:rgb(47,47,47);stroke-width:10" /><line x1="745.390"
y1="-628.401" x2="779.275" y2="-628.401"
style="stroke:rgb(47,47,47);stroke-width:10" /><line x1="745.390"
y1="-628.401" x2="768.484" y2="-628.401"
style="stroke:rgb(47,47,47);stroke-width:10" /><arc cx="617.876"
cy="-856.399" r="19.880" ang1=" 2.828" ang2=" 0.351"
stroke="rgb(128,128,128)" stroke-width="1" /><arc cx="618.247"
cy="-789.246" r="19.880" ang1=" 5.951" ang2=" 3.474"
stroke="rgb(128,128,128)" stroke-width="1" /><arc cx="677.411"
cy="-856.399" r="19.880" ang1=" 2.828" ang2=" 0.351"
stroke="rgb(128,128,128)" stroke-width="1" /><arc cx="677.782"
cy="-789.246" r="19.880" ang1=" 5.951" ang2=" 3.474"
stroke="rgb(128,128,128)" stroke-width="1" /><line x1="783.698"
y1="-991.668" x2="960.357" y2="-426.518"
style="stroke:rgb(99,99,99);stroke-width:1" /><line x1="1169.638"
y1="-840.651" x2="783.698" y2="-991.668"
style="stroke:rgb(99,99,99);stroke-width:1" /><line x1="960.357"
y1="-426.518" x2="918.983" y2="-461.325"
style="stroke:rgb(99,99,99);stroke-width:1" /><line x1="960.357"
y1="-426.518" x2="962.707" y2="-481.720"
style="stroke:rgb(99,99,99);stroke-width:1" /><line x1="1169.638"
y1="-840.651" x2="1154.828" y2="-864.011"
style="stroke:rgb(99,99,99);stroke-width:1" /><line x1="1169.638"
y1="-840.651" x2="1146.254" y2="-831.307"
style="stroke:rgb(99,99,99);stroke-width:1" /><line x1="768.429"
y1="-931.054" x2="770.828" y2="-968.349"
style="stroke:rgb(96,176,207);stroke-width:1" /><line x1="741.767"
y1="-962.488" x2="741.767" y2="-931.587"
style="stroke:rgb(96,176,207);stroke-width:1" /><line x1="756.698"
y1="-957.693" x2="760.964" y2="-965.685"
style="stroke:rgb(96,176,207);stroke-width:1" /><line x1="776.938"
y1="-967.264" x2="777.846" y2="-960.520"
style="stroke:rgb(96,176,207);stroke-width:1" /><line x1="774.433"
y1="-962.272" x2="773.293" y2="-957.032"
style="stroke:rgb(96,176,207);stroke-width:1" /><line x1="740.685"
y1="-961.817" x2="747.526" y2="-964.779"
style="stroke:rgb(96,176,207);stroke-width:1" /><line x1="737.265"
y1="-984.828" x2="731.792" y2="-954.982"
style="stroke:rgb(96,176,207);stroke-width:1" /><line x1="748.433"
y1="-890.297" x2="745.233" y2="-891.363"
style="stroke:rgb(96,176,207);stroke-width:1" /><line x1="745.233"
y1="-891.363" x2="742.567" y2="-889.764"
style="stroke:rgb(96,176,207);stroke-width:1" /><line x1="765.496"
y1="-888.699" x2="764.963" y2="-890.031"
style="stroke:rgb(96,176,207);stroke-width:1" /><line x1="764.963"
y1="-890.031" x2="761.230" y2="-887.633"
style="stroke:rgb(96,176,207);stroke-width:1" /><line x1="761.230"
y1="-887.633" x2="760.697" y2="-887.633"
style="stroke:rgb(96,176,207);stroke-width:1" /><line x1="755.631"
y1="-929.989" x2="756.698" y2="-927.325"
style="stroke:rgb(96,176,207);stroke-width:1" /><line x1="756.698"
y1="-927.325" x2="756.165" y2="-927.059"
style="stroke:rgb(96,176,207);stroke-width:1" /><line x1="756.165"
y1="-927.059" x2="758.297" y2="-888.166"
style="stroke:rgb(96,176,207);stroke-width:1" /><line x1="758.297"
y1="-888.166" x2="759.364" y2="-887.900"
style="stroke:rgb(96,176,207);stroke-width:1" /><line x1="759.364"
y1="-887.900" x2="757.231" y2="-883.637"
style="stroke:rgb(96,176,207);stroke-width:1" /><line x1="757.231"
y1="-883.637" x2="757.231" y2="-882.039"
style="stroke:rgb(96,176,207);stroke-width:1" /><line x1="757.231"
y1="-882.039" x2="764.963" y2="-881.506"
style="stroke:rgb(96,176,207);stroke-width:1" /><line x1="764.963"
y1="-881.506" x2="770.029" y2="-881.773"
style="stroke:rgb(96,176,207);stroke-width:1" /><line x1="770.029"
y1="-881.773" x2="773.228" y2="-881.773"
style="stroke:rgb(96,176,207);stroke-width:1" /><line x1="773.228"
y1="-881.773" x2="773.228" y2="-884.170"
style="stroke:rgb(96,176,207);stroke-width:1" /><line x1="773.228"
y1="-884.170" x2="767.096" y2="-888.166"
style="stroke:rgb(96,176,207);stroke-width:1" /><line x1="767.096"
y1="-888.166" x2="768.429" y2="-927.325"
style="stroke:rgb(96,176,207);stroke-width:1" /><line x1="768.429"
y1="-927.325" x2="767.896" y2="-929.722"
style="stroke:rgb(96,176,207);stroke-width:1" /><line x1="767.896"
y1="-929.722" x2="768.429" y2="-931.054"
style="stroke:rgb(96,176,207);stroke-width:1" /><line x1="741.767"
y1="-931.587" x2="740.968" y2="-928.657"
style="stroke:rgb(96,176,207);stroke-width:1" /><line x1="740.968"
y1="-928.657" x2="741.501" y2="-889.232"
style="stroke:rgb(96,176,207);stroke-width:1" /><line x1="741.501"
y1="-889.232" x2="744.167" y2="-888.432"
style="stroke:rgb(96,176,207);stroke-width:1" /><line x1="744.167"
y1="-888.432" x2="742.567" y2="-885.236"
style="stroke:rgb(96,176,207);stroke-width:1" /><line x1="742.567"
y1="-885.236" x2="740.968" y2="-883.637"
style="stroke:rgb(96,176,207);stroke-width:1" /><line x1="740.968"
y1="-883.637" x2="740.968" y2="-882.039"
style="stroke:rgb(96,176,207);stroke-width:1" /><line x1="740.968"
y1="-882.039" x2="744.967" y2="-881.773"
style="stroke:rgb(96,176,207);stroke-width:1" /><line x1="744.967"
y1="-881.773" x2="752.699" y2="-881.506"
style="stroke:rgb(96,176,207);stroke-width:1" /><line x1="752.699"
y1="-881.506" x2="753.765" y2="-883.637"
style="stroke:rgb(96,176,207);stroke-width:1" /><line x1="753.765"
y1="-883.637" x2="752.699" y2="-885.502"
style="stroke:rgb(96,176,207);stroke-width:1" /><line x1="752.699"
y1="-885.502" x2="749.499" y2="-888.432"
style="stroke:rgb(96,176,207);stroke-width:1" /><line x1="749.499"
y1="-888.432" x2="750.566" y2="-889.764"
style="stroke:rgb(96,176,207);stroke-width:1" /><line x1="750.566"
y1="-889.764" x2="754.298" y2="-927.858"
style="stroke:rgb(96,176,207);stroke-width:1" /><line x1="754.298"
y1="-927.858" x2="755.098" y2="-930.522"
style="stroke:rgb(96,176,207);stroke-width:1" /><line x1="755.098"
y1="-930.522" x2="756.698" y2="-957.693"
style="stroke:rgb(96,176,207);stroke-width:1" /><line x1="777.846"
y1="-960.520" x2="777.068" y2="-960.261"
style="stroke:rgb(96,176,207);stroke-width:1" /><line x1="777.068"
y1="-960.261" x2="776.548" y2="-958.834"
style="stroke:rgb(96,176,207);stroke-width:1" /><line x1="776.548"
y1="-958.834" x2="775.640" y2="-958.704"
style="stroke:rgb(96,176,207);stroke-width:1" /><line x1="775.640"
y1="-958.704" x2="775.380" y2="-957.667"
style="stroke:rgb(96,176,207);stroke-width:1" /><line x1="775.380"
y1="-957.667" x2="773.693" y2="-957.148"
style="stroke:rgb(96,176,207);stroke-width:1" /><line x1="773.293"
y1="-957.032" x2="772.609" y2="-954.071"
style="stroke:rgb(96,176,207);stroke-width:1" /><line x1="772.609"
y1="-954.071" x2="770.100" y2="-954.982"
style="stroke:rgb(96,176,207);stroke-width:1" /><line x1="732.704"
y1="-955.665" x2="736.125" y2="-957.944"
style="stroke:rgb(96,176,207);stroke-width:1" /><line x1="736.125"
y1="-957.944" x2="740.685" y2="-961.817"
style="stroke:rgb(96,176,207);stroke-width:1" /><line x1="731.792"
y1="-954.982" x2="734.300" y2="-954.754"
style="stroke:rgb(96,176,207);stroke-width:1" /><line x1="734.300"
y1="-954.754" x2="738.405" y2="-956.805"
style="stroke:rgb(96,176,207);stroke-width:1" /><line x1="738.405"
y1="-956.805" x2="741.597" y2="-957.488"
style="stroke:rgb(96,176,207);stroke-width:1" /><line x1="759.095"
y1="-1051.158" x2="758.627" y2="-1051.625"
style="stroke:rgb(96,176,207);stroke-width:1" /><line x1="758.627"
y1="-1051.625" x2="757.785" y2="-1051.344"
style="stroke:rgb(96,176,207);stroke-width:1" /><line x1="764.521"
y1="-1051.718" x2="763.960" y2="-1051.905"
style="stroke:rgb(96,176,207);stroke-width:1" /><line x1="763.960"
y1="-1051.905" x2="763.398" y2="-1051.251"
style="stroke:rgb(96,176,207);stroke-width:1" /><line x1="766.392"
y1="-1052.840" x2="764.240" y2="-1053.307"
style="stroke:rgb(96,176,207);stroke-width:1" /><line x1="764.240"
y1="-1053.307" x2="762.089" y2="-1052.466"
style="stroke:rgb(96,176,207);stroke-width:1" /><line x1="765.737"
y1="-1051.999" x2="763.585" y2="-1052.092"
style="stroke:rgb(96,176,207);stroke-width:1" /><line x1="763.585"
y1="-1052.092" x2="762.089" y2="-1051.531"
style="stroke:rgb(96,176,207);stroke-width:1" /><line x1="762.089"
y1="-1051.531" x2="762.463" y2="-1050.971"
style="stroke:rgb(96,176,207);stroke-width:1" /><line x1="762.463"
y1="-1050.971" x2="763.492" y2="-1051.064"
style="stroke:rgb(96,176,207);stroke-width:1" /><line x1="763.492"
y1="-1051.064" x2="765.269" y2="-1051.531"
style="stroke:rgb(96,176,207);stroke-width:1" /><line x1="760.030"
y1="-1052.373" x2="758.814" y2="-1053.307"
style="stroke:rgb(96,176,207);stroke-width:1" /><line x1="758.814"
y1="-1053.307" x2="755.914" y2="-1053.027"
style="stroke:rgb(96,176,207);stroke-width:1" /><line x1="755.914"
y1="-1053.027" x2="755.447" y2="-1052.279"
style="stroke:rgb(96,176,207);stroke-width:1" /><line x1="756.289"
y1="-1052.092" x2="757.505" y2="-1052.186"
style="stroke:rgb(96,176,207);stroke-width:1" /><line x1="757.505"
y1="-1052.186" x2="759.095" y2="-1051.999"
style="stroke:rgb(96,176,207);stroke-width:1" /><line x1="759.095"
y1="-1051.999" x2="759.843" y2="-1051.531"
style="stroke:rgb(96,176,207);stroke-width:1" /><line x1="759.843"
y1="-1051.531" x2="759.376" y2="-1050.971"
style="stroke:rgb(96,176,207);stroke-width:1" /><line x1="759.376"
y1="-1050.971" x2="758.160" y2="-1050.877"
style="stroke:rgb(96,176,207);stroke-width:1" /><line x1="758.160"
y1="-1050.877" x2="756.289" y2="-1051.531"
style="stroke:rgb(96,176,207);stroke-width:1" /><line x1="763.679"
y1="-1044.241" x2="762.089" y2="-1044.708"
style="stroke:rgb(96,176,207);stroke-width:1" /><line x1="762.089"
y1="-1044.708" x2="761.247" y2="-1044.615"
style="stroke:rgb(96,176,207);stroke-width:1" /><line x1="761.247"
y1="-1044.615" x2="759.282" y2="-1044.334"
style="stroke:rgb(96,176,207);stroke-width:1" /><line x1="763.024"
y1="-1046.858" x2="762.743" y2="-1046.391"
style="stroke:rgb(96,176,207);stroke-width:1" /><line x1="762.743"
y1="-1046.391" x2="760.685" y2="-1046.484"
style="stroke:rgb(96,176,207);stroke-width:1" /><line x1="760.685"
y1="-1046.484" x2="759.656" y2="-1046.951"
style="stroke:rgb(96,176,207);stroke-width:1" /><line x1="750.301"
y1="-1052.747" x2="749.834" y2="-1053.401"
style="stroke:rgb(96,176,207);stroke-width:1" /><line x1="749.834"
y1="-1053.401" x2="748.992" y2="-1053.681"
style="stroke:rgb(96,176,207);stroke-width:1" /><line x1="748.992"
y1="-1053.681" x2="748.337" y2="-1053.027"
style="stroke:rgb(96,176,207);stroke-width:1" /><line x1="748.337"
y1="-1053.027" x2="747.963" y2="-1052.092"
style="stroke:rgb(96,176,207);stroke-width:1" /><line x1="747.963"
y1="-1052.092" x2="748.243" y2="-1050.316"
style="stroke:rgb(96,176,207);stroke-width:1" /><line x1="748.243"
y1="-1050.316" x2="748.805" y2="-1049.008"
style="stroke:rgb(96,176,207);stroke-width:1" /><line x1="748.805"
y1="-1049.008" x2="749.834" y2="-1047.886"
style="stroke:rgb(96,176,207);stroke-width:1" /><line x1="749.834"
y1="-1047.886" x2="750.488" y2="-1047.045"
style="stroke:rgb(96,176,207);stroke-width:1" /><line x1="750.488"
y1="-1047.045" x2="751.050" y2="-1046.765"
style="stroke:rgb(96,176,207);stroke-width:1" /><line x1="751.050"
y1="-1046.765" x2="751.237" y2="-1047.325"
style="stroke:rgb(96,176,207);stroke-width:1" /><line x1="762.369"
y1="-1043.587" x2="760.685" y2="-1043.493"
style="stroke:rgb(96,176,207);stroke-width:1" /><line x1="763.960"
y1="-1039.380" x2="764.053" y2="-1039.100"
style="stroke:rgb(96,176,207);stroke-width:1" /><line x1="764.053"
y1="-1039.100" x2="761.901" y2="-1038.820"
style="stroke:rgb(96,176,207);stroke-width:1" /><line x1="751.050"
y1="-1039.941" x2="750.676" y2="-1039.380"
style="stroke:rgb(96,176,207);stroke-width:1" /><line x1="750.676"
y1="-1039.380" x2="753.763" y2="-1038.913"
style="stroke:rgb(96,176,207);stroke-width:1" /><line x1="753.763"
y1="-1038.913" x2="757.318" y2="-1038.913"
style="stroke:rgb(96,176,207);stroke-width:1" /><line x1="761.995"
y1="-1037.231" x2="760.592" y2="-1034.146"
style="stroke:rgb(96,176,207);stroke-width:1" /><line x1="760.592"
y1="-1034.146" x2="759.937" y2="-1033.585"
style="stroke:rgb(96,176,207);stroke-width:1" /><line x1="759.937"
y1="-1033.585" x2="758.253" y2="-1034.240"
style="stroke:rgb(96,176,207);stroke-width:1" /><line x1="758.253"
y1="-1034.240" x2="757.130" y2="-1036.950"
style="stroke:rgb(96,176,207);stroke-width:1" /><line x1="763.305"
y1="-1039.754" x2="764.147" y2="-1039.754"
style="stroke:rgb(96,176,207);stroke-width:1" /><line x1="764.147"
y1="-1039.754" x2="764.802" y2="-1039.287"
style="stroke:rgb(96,176,207);stroke-width:1" /><line x1="764.802"
y1="-1039.287" x2="766.205" y2="-1033.398"
style="stroke:rgb(96,176,207);stroke-width:1" /><line x1="766.205"
y1="-1033.398" x2="762.556" y2="-1037.231"
style="stroke:rgb(96,176,207);stroke-width:1" /><line x1="762.556"
y1="-1037.231" x2="760.966" y2="-1038.726"
style="stroke:rgb(96,176,207);stroke-width:1" /><line x1="760.966"
y1="-1038.726" x2="757.785" y2="-1038.633"
style="stroke:rgb(96,176,207);stroke-width:1" /><line x1="757.785"
y1="-1038.633" x2="753.856" y2="-1032.744"
style="stroke:rgb(96,176,207);stroke-width:1" /><line x1="753.856"
y1="-1032.744" x2="750.676" y2="-1034.800"
style="stroke:rgb(96,176,207);stroke-width:1" /><line x1="750.676"
y1="-1034.800" x2="748.805" y2="-1036.016"
style="stroke:rgb(96,176,207);stroke-width:1" /><line x1="748.805"
y1="-1036.016" x2="749.366" y2="-1037.885"
style="stroke:rgb(96,176,207);stroke-width:1" /><line x1="749.366"
y1="-1037.885" x2="749.647" y2="-1040.035"
style="stroke:rgb(96,176,207);stroke-width:1" /><line x1="749.647"
y1="-1040.035" x2="750.582" y2="-1039.941"
style="stroke:rgb(96,176,207);stroke-width:1" /><line x1="749.459"
y1="-1048.073" x2="750.395" y2="-1045.736"
style="stroke:rgb(96,176,207);stroke-width:1" /><line x1="750.395"
y1="-1045.736" x2="750.769" y2="-1041.998"
style="stroke:rgb(96,176,207);stroke-width:1" /><line x1="750.769"
y1="-1041.998" x2="750.956" y2="-1039.941"
style="stroke:rgb(96,176,207);stroke-width:1" /><line x1="766.111"
y1="-1059.944" x2="765.550" y2="-1060.598"
style="stroke:rgb(96,176,207);stroke-width:1" /><line x1="765.550"
y1="-1060.598" x2="761.621" y2="-1060.785"
style="stroke:rgb(96,176,207);stroke-width:1" /><line x1="761.621"
y1="-1060.785" x2="757.224" y2="-1060.691"
style="stroke:rgb(96,176,207);stroke-width:1" /><line x1="757.224"
y1="-1060.691" x2="755.166" y2="-1060.318"
style="stroke:rgb(96,176,207);stroke-width:1" /><line x1="755.166"
y1="-1060.318" x2="753.108" y2="-1059.476"
style="stroke:rgb(96,176,207);stroke-width:1" /><line x1="753.108"
y1="-1059.476" x2="752.079" y2="-1057.420"
style="stroke:rgb(96,176,207);stroke-width:1" /><line x1="752.079"
y1="-1057.420" x2="751.705" y2="-1055.457"
style="stroke:rgb(96,176,207);stroke-width:1" /><line x1="751.705"
y1="-1055.457" x2="750.676" y2="-1054.522"
style="stroke:rgb(96,176,207);stroke-width:1" /><line x1="750.676"
y1="-1054.522" x2="750.676" y2="-1053.681"
style="stroke:rgb(96,176,207);stroke-width:1" /><line x1="750.676"
y1="-1053.681" x2="750.301" y2="-1053.494"
style="stroke:rgb(96,176,207);stroke-width:1" /><line x1="762.369"
y1="-1039.194" x2="763.024" y2="-1040.222"
style="stroke:rgb(96,176,207);stroke-width:1" /><line x1="763.024"
y1="-1040.222" x2="763.960" y2="-1040.409"
style="stroke:rgb(96,176,207);stroke-width:1" /><line x1="763.960"
y1="-1040.409" x2="764.989" y2="-1041.624"
style="stroke:rgb(96,176,207);stroke-width:1" /><line x1="764.989"
y1="-1041.624" x2="766.205" y2="-1044.054"
style="stroke:rgb(96,176,207);stroke-width:1" /><line x1="766.205"
y1="-1044.054" x2="767.234" y2="-1048.447"
style="stroke:rgb(96,176,207);stroke-width:1" /><line x1="767.234"
y1="-1048.447" x2="766.485" y2="-1051.344"
style="stroke:rgb(96,176,207);stroke-width:1" /><line x1="766.485"
y1="-1051.344" x2="767.047" y2="-1052.560"
style="stroke:rgb(96,176,207);stroke-width:1" /><line x1="767.047"
y1="-1052.560" x2="767.047" y2="-1055.364"
style="stroke:rgb(96,176,207);stroke-width:1" /><line x1="767.047"
y1="-1055.364" x2="766.298" y2="-1059.663"
style="stroke:rgb(96,176,207);stroke-width:1" /><line x1="766.298"
y1="-1059.663" x2="766.485" y2="-1061.813"
style="stroke:rgb(96,176,207);stroke-width:1" /><line x1="766.485"
y1="-1061.813" x2="765.176" y2="-1063.122"
style="stroke:rgb(96,176,207);stroke-width:1" /><line x1="765.176"
y1="-1063.122" x2="760.218" y2="-1063.963"
style="stroke:rgb(96,176,207);stroke-width:1" /><line x1="760.218"
y1="-1063.963" x2="753.014" y2="-1063.589"
style="stroke:rgb(96,176,207);stroke-width:1" /><line x1="753.014"
y1="-1063.589" x2="750.208" y2="-1062.841"
style="stroke:rgb(96,176,207);stroke-width:1" /><line x1="750.208"
y1="-1062.841" x2="748.711" y2="-1060.224"
style="stroke:rgb(96,176,207);stroke-width:1" /><line x1="748.711"
y1="-1060.224" x2="747.963" y2="-1057.420"
style="stroke:rgb(96,176,207);stroke-width:1" /><line x1="747.963"
y1="-1057.420" x2="748.337" y2="-1055.083"
style="stroke:rgb(96,176,207);stroke-width:1" /><line x1="748.337"
y1="-1055.083" x2="748.992" y2="-1053.775"
style="stroke:rgb(96,176,207);stroke-width:1" /><line x1="750.946"
y1="-1004.421" x2="747.298" y2="-1004.877"
style="stroke:rgb(96,176,207);stroke-width:1" /><line x1="747.298"
y1="-1004.877" x2="742.509" y2="-1007.155"
style="stroke:rgb(96,176,207);stroke-width:1" /><line x1="742.509"
y1="-1007.155" x2="739.773" y2="-1007.155"
style="stroke:rgb(96,176,207);stroke-width:1" /><line x1="739.773"
y1="-1007.155" x2="741.369" y2="-1007.611"
style="stroke:rgb(96,176,207);stroke-width:1" /><line x1="741.369"
y1="-1007.611" x2="739.545" y2="-1015.585"
style="stroke:rgb(96,176,207);stroke-width:1" /><line x1="739.545"
y1="-1015.585" x2="742.053" y2="-1013.990"
style="stroke:rgb(96,176,207);stroke-width:1" /><line x1="765.996"
y1="-985.739" x2="762.348" y2="-984.828"
style="stroke:rgb(96,176,207);stroke-width:1" /><line x1="762.348"
y1="-984.828" x2="757.787" y2="-985.511"
style="stroke:rgb(96,176,207);stroke-width:1" /><line x1="750.459"
y1="-1003.187" x2="751.367" y2="-1003.317"
style="stroke:rgb(96,176,207);stroke-width:1" /><line x1="751.367"
y1="-1003.317" x2="752.276" y2="-1005.522"
style="stroke:rgb(96,176,207);stroke-width:1" /><line x1="752.276"
y1="-1005.522" x2="753.574" y2="-1006.948"
style="stroke:rgb(96,176,207);stroke-width:1" /><line x1="753.574"
y1="-1006.948" x2="754.742" y2="-1006.948"
style="stroke:rgb(96,176,207);stroke-width:1" /><line x1="754.742"
y1="-1006.948" x2="756.559" y2="-1007.337"
style="stroke:rgb(96,176,207);stroke-width:1" /><line x1="756.559"
y1="-1007.337" x2="757.078" y2="-1006.430"
style="stroke:rgb(96,176,207);stroke-width:1" /><line x1="757.078"
y1="-1006.430" x2="756.689" y2="-1005.392"
style="stroke:rgb(96,176,207);stroke-width:1" /><line x1="756.689"
y1="-1005.392" x2="755.261" y2="-1004.744"
style="stroke:rgb(96,176,207);stroke-width:1" /><line x1="755.261"
y1="-1004.744" x2="754.353" y2="-1003.576"
style="stroke:rgb(96,176,207);stroke-width:1" /><line x1="754.353"
y1="-1003.576" x2="755.910" y2="-1001.891"
style="stroke:rgb(96,176,207);stroke-width:1" /><line x1="755.910"
y1="-1001.891" x2="759.155" y2="-999.945"
style="stroke:rgb(96,176,207);stroke-width:1" /><line x1="759.155"
y1="-999.945" x2="759.415" y2="-998.519"
style="stroke:rgb(96,176,207);stroke-width:1" /><line x1="759.415"
y1="-998.519" x2="758.117" y2="-998.259"
style="stroke:rgb(96,176,207);stroke-width:1" /><line x1="758.117"
y1="-998.259" x2="760.064" y2="-996.314"
style="stroke:rgb(96,176,207);stroke-width:1" /><line x1="760.064"
y1="-996.314" x2="759.934" y2="-995.536"
style="stroke:rgb(96,176,207);stroke-width:1" /><line x1="759.934"
y1="-995.536" x2="759.285" y2="-995.017"
style="stroke:rgb(96,176,207);stroke-width:1" /><line x1="759.285"
y1="-995.017" x2="759.934" y2="-993.980"
style="stroke:rgb(96,176,207);stroke-width:1" /><line x1="759.934"
y1="-993.980" x2="759.155" y2="-993.201"
style="stroke:rgb(96,176,207);stroke-width:1" /><line x1="759.155"
y1="-993.201" x2="759.415" y2="-991.775"
style="stroke:rgb(96,176,207);stroke-width:1" /><line x1="759.415"
y1="-991.775" x2="758.766" y2="-990.867"
style="stroke:rgb(96,176,207);stroke-width:1" /><line x1="758.766"
y1="-990.867" x2="757.078" y2="-991.386"
style="stroke:rgb(96,176,207);stroke-width:1" /><line x1="757.078"
y1="-991.386" x2="754.223" y2="-993.720"
style="stroke:rgb(96,176,207);stroke-width:1" /><line x1="754.223"
y1="-993.720" x2="752.535" y2="-996.314"
style="stroke:rgb(96,176,207);stroke-width:1" /><line x1="752.535"
y1="-996.314" x2="750.459" y2="-997.741"
style="stroke:rgb(96,176,207);stroke-width:1" /><line x1="750.459"
y1="-997.741" x2="748.382" y2="-997.222"
style="stroke:rgb(96,176,207);stroke-width:1" /><line x1="749.806"
y1="-995.764" x2="747.754" y2="-996.903"
style="stroke:rgb(96,176,207);stroke-width:1" /><line x1="747.754"
y1="-996.903" x2="746.842" y2="-1000.092"
style="stroke:rgb(96,176,207);stroke-width:1" /><line x1="746.842"
y1="-1000.092" x2="747.526" y2="-1003.054"
style="stroke:rgb(96,176,207);stroke-width:1" /><line x1="747.526"
y1="-1003.054" x2="749.578" y2="-1004.193"
style="stroke:rgb(96,176,207);stroke-width:1" /><line x1="749.578"
y1="-1004.193" x2="750.946" y2="-1004.421"
style="stroke:rgb(96,176,207);stroke-width:1" /><line x1="758.590"
y1="-1033.288" x2="759.361" y2="-1024.423"
style="stroke:rgb(96,176,207);stroke-width:1" /><line x1="759.361"
y1="-1024.423" x2="758.783" y2="-1012.667"
style="stroke:rgb(96,176,207);stroke-width:1" /><line x1="758.783"
y1="-1012.667" x2="758.590" y2="-1007.463"
style="stroke:rgb(96,176,207);stroke-width:1" /><line x1="758.590"
y1="-1007.463" x2="757.432" y2="-1002.067"
style="stroke:rgb(96,176,207);stroke-width:1" /><line x1="745.246"
y1="-1034.495" x2="745.930" y2="-1030.622"
style="stroke:rgb(96,176,207);stroke-width:1" /><line x1="745.930"
y1="-1030.622" x2="748.894" y2="-1029.027"
style="stroke:rgb(96,176,207);stroke-width:1" /><line x1="748.894"
y1="-1029.027" x2="746.158" y2="-1027.888"
style="stroke:rgb(96,176,207);stroke-width:1" /><line x1="746.158"
y1="-1027.888" x2="748.894" y2="-1024.470"
style="stroke:rgb(96,176,207);stroke-width:1" /><line x1="748.894"
y1="-1024.470" x2="750.718" y2="-1017.180"
style="stroke:rgb(96,176,207);stroke-width:1" /><line x1="750.718"
y1="-1017.180" x2="752.314" y2="-1007.383"
style="stroke:rgb(96,176,207);stroke-width:1" /><line x1="749.122"
y1="-1036.318" x2="752.999" y2="-1028.343"
style="stroke:rgb(96,176,207);stroke-width:1" /><line x1="752.999"
y1="-1028.343" x2="755.963" y2="-1021.509"
style="stroke:rgb(96,176,207);stroke-width:1" /><line x1="755.963"
y1="-1021.509" x2="756.647" y2="-1012.623"
style="stroke:rgb(96,176,207);stroke-width:1" /><line x1="756.647"
y1="-1012.623" x2="756.875" y2="-1007.839"
style="stroke:rgb(96,176,207);stroke-width:1" /><line x1="766.224"
y1="-1036.545" x2="768.504" y2="-1033.811"
style="stroke:rgb(96,176,207);stroke-width:1" /><line x1="768.504"
y1="-1033.811" x2="769.188" y2="-1027.204"
style="stroke:rgb(96,176,207);stroke-width:1" /><line x1="769.188"
y1="-1027.204" x2="768.732" y2="-1016.041"
style="stroke:rgb(96,176,207);stroke-width:1" /><line x1="768.732"
y1="-1016.041" x2="766.452" y2="-1000.092"
style="stroke:rgb(96,176,207);stroke-width:1" /><line x1="761.435"
y1="-1034.039" x2="764.172" y2="-1025.154"
style="stroke:rgb(96,176,207);stroke-width:1" /><line x1="764.172"
y1="-1025.154" x2="765.312" y2="-1010.345"
style="stroke:rgb(96,176,207);stroke-width:1" /><line x1="765.312"
y1="-1010.345" x2="765.996" y2="-997.358"
style="stroke:rgb(96,176,207);stroke-width:1" /><line x1="765.996"
y1="-997.358" x2="766.908" y2="-992.118"
style="stroke:rgb(96,176,207);stroke-width:1" /><line x1="766.908"
y1="-992.118" x2="761.892" y2="-986.878"
style="stroke:rgb(96,176,207);stroke-width:1" /><line x1="761.892"
y1="-986.878" x2="758.243" y2="-990.751"
style="stroke:rgb(96,176,207);stroke-width:1" /><line x1="771.241"
y1="-1034.267" x2="774.205" y2="-1030.850"
style="stroke:rgb(96,176,207);stroke-width:1" /><line x1="774.205"
y1="-1030.850" x2="771.697" y2="-1029.027"
style="stroke:rgb(96,176,207);stroke-width:1" /><line x1="771.697"
y1="-1029.027" x2="774.889" y2="-1026.749"
style="stroke:rgb(96,176,207);stroke-width:1" /><line x1="774.889"
y1="-1026.749" x2="772.381" y2="-1019.686"
style="stroke:rgb(96,176,207);stroke-width:1" /><line x1="772.381"
y1="-1019.686" x2="768.960" y2="-1007.155"
style="stroke:rgb(96,176,207);stroke-width:1" /><line x1="768.960"
y1="-1007.155" x2="766.908" y2="-997.358"
style="stroke:rgb(96,176,207);stroke-width:1" /><line x1="766.908"
y1="-997.358" x2="766.452" y2="-995.080"
style="stroke:rgb(96,176,207);stroke-width:1" /><line x1="765.312"
y1="-1037.685" x2="770.328" y2="-1034.723"
style="stroke:rgb(96,176,207);stroke-width:1" /><line x1="770.328"
y1="-1034.723" x2="775.117" y2="-1032.672"
style="stroke:rgb(96,176,207);stroke-width:1" /><line x1="775.117"
y1="-1032.672" x2="777.625" y2="-1030.850"
style="stroke:rgb(96,176,207);stroke-width:1" /><line x1="777.625"
y1="-1030.850" x2="779.678" y2="-1027.888"
style="stroke:rgb(96,176,207);stroke-width:1" /><line x1="779.678"
y1="-1027.888" x2="781.502" y2="-1022.192"
style="stroke:rgb(96,176,207);stroke-width:1" /><line x1="781.502"
y1="-1022.192" x2="780.362" y2="-1011.256"
style="stroke:rgb(96,176,207);stroke-width:1" /><line x1="780.362"
y1="-1011.256" x2="781.046" y2="-1003.282"
style="stroke:rgb(96,176,207);stroke-width:1" /><line x1="781.046"
y1="-1003.282" x2="780.818" y2="-1000.776"
style="stroke:rgb(96,176,207);stroke-width:1" /><line x1="780.818"
y1="-1000.776" x2="776.941" y2="-978.676"
style="stroke:rgb(96,176,207);stroke-width:1" /><line x1="776.941"
y1="-978.676" x2="776.029" y2="-978.221"
style="stroke:rgb(96,176,207);stroke-width:1" /><line x1="776.029"
y1="-978.221" x2="775.573" y2="-974.348"
style="stroke:rgb(96,176,207);stroke-width:1" /><line x1="775.573"
y1="-974.348" x2="774.889" y2="-974.348"
style="stroke:rgb(96,176,207);stroke-width:1" /><line x1="774.889"
y1="-974.348" x2="774.205" y2="-974.348"
style="stroke:rgb(96,176,207);stroke-width:1" /><line x1="748.666"
y1="-1037.457" x2="744.562" y2="-1035.178"
style="stroke:rgb(96,176,207);stroke-width:1" /><line x1="744.562"
y1="-1035.178" x2="738.633" y2="-1033.128"
style="stroke:rgb(96,176,207);stroke-width:1" /><line x1="738.633"
y1="-1033.128" x2="733.844" y2="-1031.533"
style="stroke:rgb(96,176,207);stroke-width:1" /><line x1="733.844"
y1="-1031.533" x2="730.880" y2="-1026.976"
style="stroke:rgb(96,176,207);stroke-width:1" /><line x1="730.880"
y1="-1026.976" x2="729.512" y2="-1016.496"
style="stroke:rgb(96,176,207);stroke-width:1" /><line x1="729.512"
y1="-1016.496" x2="729.968" y2="-1004.421"
style="stroke:rgb(96,176,207);stroke-width:1" /><line x1="729.968"
y1="-1004.421" x2="732.932" y2="-999.637"
style="stroke:rgb(96,176,207);stroke-width:1" /><line x1="732.932"
y1="-999.637" x2="736.809" y2="-996.219"
style="stroke:rgb(96,176,207);stroke-width:1" /><line x1="736.809"
y1="-996.219" x2="739.773" y2="-993.941"
style="stroke:rgb(96,176,207);stroke-width:1" /><line x1="739.773"
y1="-993.941" x2="745.702" y2="-993.941"
style="stroke:rgb(96,176,207);stroke-width:1" /><line x1="745.702"
y1="-993.941" x2="749.122" y2="-994.169"
style="stroke:rgb(96,176,207);stroke-width:1" /><line x1="749.122"
y1="-994.169" x2="751.630" y2="-995.536"
style="stroke:rgb(96,176,207);stroke-width:1" /><line x1="774.731"
y1="-974.008" x2="776.159" y2="-970.765"
style="stroke:rgb(96,176,207);stroke-width:1" /><line x1="776.159"
y1="-970.765" x2="776.938" y2="-967.264"
style="stroke:rgb(96,176,207);stroke-width:1" /><line x1="773.749"
y1="-965.690" x2="774.661" y2="-974.575"
style="stroke:rgb(96,176,207);stroke-width:1" /><line x1="774.661"
y1="-974.575" x2="774.661" y2="-981.638"
style="stroke:rgb(96,176,207);stroke-width:1" /><line x1="774.661"
y1="-981.638" x2="775.345" y2="-988.473"
style="stroke:rgb(96,176,207);stroke-width:1" /><line x1="775.345"
y1="-988.473" x2="775.345" y2="-994.169"
style="stroke:rgb(96,176,207);stroke-width:1" /><line x1="775.345"
y1="-994.169" x2="775.345" y2="-1000.320"
style="stroke:rgb(96,176,207);stroke-width:1" /><line x1="775.345"
y1="-1000.320" x2="774.889" y2="-1010.800"
style="stroke:rgb(96,176,207);stroke-width:1" /><line x1="774.889"
y1="-1010.800" x2="777.169" y2="-1017.635"
style="stroke:rgb(96,176,207);stroke-width:1" /><line x1="765.312"
y1="-990.296" x2="766.452" y2="-985.511"
style="stroke:rgb(96,176,207);stroke-width:1" /><line x1="766.452"
y1="-985.511" x2="767.364" y2="-982.094"
style="stroke:rgb(96,176,207);stroke-width:1" /><line x1="767.364"
y1="-982.094" x2="767.364" y2="-975.714"
style="stroke:rgb(96,176,207);stroke-width:1" /><line x1="767.364"
y1="-975.714" x2="769.644" y2="-971.386"
style="stroke:rgb(96,176,207);stroke-width:1" /><line x1="769.644"
y1="-971.386" x2="772.153" y2="-968.652"
style="stroke:rgb(96,176,207);stroke-width:1" /><line x1="772.153"
y1="-968.652" x2="773.977" y2="-965.234"
style="stroke:rgb(96,176,207);stroke-width:1" /><line x1="773.977"
y1="-965.234" x2="774.433" y2="-962.272"
style="stroke:rgb(96,176,207);stroke-width:1" /><line x1="747.526"
y1="-964.779" x2="752.999" y2="-971.158"
style="stroke:rgb(96,176,207);stroke-width:1" /><line x1="752.999"
y1="-971.158" x2="757.331" y2="-977.765"
style="stroke:rgb(96,176,207);stroke-width:1" /><line x1="757.331"
y1="-977.765" x2="757.559" y2="-983.916"
style="stroke:rgb(96,176,207);stroke-width:1" /><line x1="757.559"
y1="-983.916" x2="757.103" y2="-990.524"
style="stroke:rgb(96,176,207);stroke-width:1" /><line x1="736.581"
y1="-995.764" x2="736.809" y2="-992.802"
style="stroke:rgb(96,176,207);stroke-width:1" /><line x1="736.809"
y1="-992.802" x2="737.265" y2="-984.828"
style="stroke:rgb(96,176,207);stroke-width:1" /></g></svg>
