<?xml version="1.0" encoding="utf-8"?><svg><g
transform="translate(0,1200)"><rect x="0" y="-1199" width="1599"
height="1199" style="fill:rgb(0,0,0)" /><line x1=" 0.000" y1="-0.000"
x2="1600.000" y2="-0.000" style="stroke:rgb(99,99,99);stroke-width:1" /><line
x1="1600.000" y1="-0.000" x2="1600.000" y2="-1200.000"
style="stroke:rgb(99,99,99);stroke-width:1" /><line x1="1600.000"
y1="-1200.000" x2=" 0.000" y2="-1200.000"
style="stroke:rgb(99,99,99);stroke-width:1" /><line x1=" 0.000"
y1="-1200.000" x2=" 0.000" y2="-0.000"
style="stroke:rgb(99,99,99);stroke-width:1" /><line x1="146.877"
y1="-134.245" x2="146.877" y2="-1100.245"
style="stroke:rgb(0,0,255);stroke-width:3" /><line x1="146.877"
y1="-1100.245" x2="1462.877" y2="-1100.245"
style="stroke:rgb(0,0,255);stroke-width:3" /><line x1="1462.877"
y1="-134.245" x2="1462.877" y2="-1100.245"
style="stroke:rgb(0,0,255);stroke-width:3" /><line x1="146.877"
y1="-134.245" x2="1462.877" y2="-134.245"
style="stroke:rgb(0,0,255);stroke-width:3" /><arc cx="401.268"
cy="-628.457" r="86.578" ang1=" 1.637" ang2=" 4.647"
stroke="rgb(144,152,0)" stroke-width="1" /><line x1="470.137"
y1="-628.358" x2="499.398" y2="-628.358"
style="stroke:rgb(144,152,0);stroke-width:1" /><line x1="527.864"
y1="-628.284" x2="587.972" y2="-628.284"
style="stroke:rgb(47,47,47);stroke-width:10" /><line x1="541.436"
y1="-585.081" x2="587.644" y2="-614.470"
style="stroke:rgb(47,47,47);stroke-width:10" /><line x1="604.226"
y1="-628.401" x2="658.778" y2="-628.401"
style="stroke:rgb(144,152,0);stroke-width:1" /><circle cx="849.835"
cy="-544.810" r="20.660" stroke="rgb(128,128,128)" stroke-width="1"
fill="rgb(0,0,0)" /><circle cx="896.281" cy="-544.810" r="20.660"
stroke="rgb(128,128,128)" stroke-width="1" fill="rgb(0,0,0)" /><line
x1="846.039" y1="-572.658" x2="846.039" y2="-590.445"
style="stroke:rgb(128,128,128);stroke-width:1" /><line x1="851.710"
y1="-569.744" x2="851.710" y2="-587.532"
style="stroke:rgb(128,128,128);stroke-width:1" /><line x1="840.368"
y1="-583.085" x2="859.986" y2="-574.651"
style="stroke:rgb(128,128,128);stroke-width:1" /><line x1="891.641"
y1="-571.431" x2="891.641" y2="-589.219"
style="stroke:rgb(128,128,128);stroke-width:1" /><line x1="897.312"
y1="-568.518" x2="897.312" y2="-586.305"
style="stroke:rgb(128,128,128);stroke-width:1" /><line x1="885.970"
y1="-581.858" x2="905.588" y2="-573.425"
style="stroke:rgb(128,128,128);stroke-width:1" /><line x1="811.402"
y1="-547.063" x2="938.318" y2="-547.063"
style="stroke:rgb(128,128,128);stroke-width:1" /><circle cx="846.464"
cy="-689.827" r="20.660" stroke="rgb(128,128,128)" stroke-width="1"
fill="rgb(0,0,0)" /><circle cx="892.910" cy="-689.827" r="20.660"
stroke="rgb(128,128,128)" stroke-width="1" fill="rgb(0,0,0)" /><line
x1="842.668" y1="-717.675" x2="842.668" y2="-735.462"
style="stroke:rgb(128,128,128);stroke-width:1" /><line x1="848.339"
y1="-714.762" x2="848.339" y2="-732.549"
style="stroke:rgb(128,128,128);stroke-width:1" /><line x1="836.997"
y1="-728.102" x2="856.615" y2="-719.668"
style="stroke:rgb(128,128,128);stroke-width:1" /><line x1="888.270"
y1="-716.449" x2="888.270" y2="-734.236"
style="stroke:rgb(128,128,128);stroke-width:1" /><line x1="893.941"
y1="-713.535" x2="893.941" y2="-731.323"
style="stroke:rgb(128,128,128);stroke-width:1" /><line x1="882.599"
y1="-726.876" x2="902.217" y2="-718.442"
style="stroke:rgb(128,128,128);stroke-width:1" /><line x1="808.031"
y1="-692.080" x2="934.947" y2="-692.080"
style="stroke:rgb(128,128,128);stroke-width:1" /><line x1="294.987"
y1="-240.318" x2="294.960" y2="-1017.927"
style="stroke:rgb(144,152,0);stroke-width:1" /><arc cx="714.026"
cy="-629.329" r="86.578" ang1=" 4.778" ang2=" 1.505"
stroke="rgb(144,152,0)" stroke-width="1" /><line x1="973.954"
y1="-625.112" x2="973.954" y2="-501.175"
style="stroke:rgb(144,152,0);stroke-width:1" /><line x1="973.954"
y1="-501.175" x2="906.458" y2="-501.175"
style="stroke:rgb(144,152,0);stroke-width:1" /><line x1="906.458"
y1="-501.175" x2="906.458" y2="-394.207"
style="stroke:rgb(144,152,0);stroke-width:1" /><line x1="906.458"
y1="-394.207" x2="934.495" y2="-394.207"
style="stroke:rgb(144,152,0);stroke-width:1" /><line x1="934.495"
y1="-380.896" x2="934.495" y2="-407.461"
style="stroke:rgb(144,152,0);stroke-width:1" /><line x1="940.840"
y1="-380.896" x2="940.840" y2="-407.461"
style="stroke:rgb(144,152,0);stroke-width:1" /><circle cx="1003.518"
cy="-334.940" r="21.009" stroke="rgb(47,47,47)" stroke-width="3"
fill="rgb(0,0,0)" /><circle cx="1003.455" cy="-394.348" r="21.009"
stroke="rgb(47,47,47)" stroke-width="3" fill="rgb(0,0,0)" /><circle
cx="1003.455" cy="-451.013" r="21.009" stroke="rgb(47,47,47)"
stroke-width="3" fill="rgb(0,0,0)" /><line x1="982.446" y1="-394.348"
x2="940.840" y2="-394.348" style="stroke:rgb(144,152,0);stroke-width:1" /><line
x1="1024.464" y1="-394.348" x2="1039.314" y2="-394.348"
style="stroke:rgb(144,152,0);stroke-width:1" /><line x1="1039.389"
y1="-379.368" x2="1039.389" y2="-409.005"
style="stroke:rgb(144,152,0);stroke-width:1" /><line x1="1042.743"
y1="-383.871" x2="1042.743" y2="-403.158"
style="stroke:rgb(144,152,0);stroke-width:1" /><line x1="1046.461"
y1="-389.244" x2="1046.461" y2="-397.785"
style="stroke:rgb(144,152,0);stroke-width:1" /><line x1="973.954"
y1="-625.112" x2="973.954" y2="-752.757"
style="stroke:rgb(144,152,0);stroke-width:1" /><line x1="973.954"
y1="-752.757" x2="905.641" y2="-752.757"
style="stroke:rgb(144,152,0);stroke-width:1" /><line x1="905.641"
y1="-752.757" x2="905.641" y2="-920.955"
style="stroke:rgb(144,152,0);stroke-width:1" /><line x1="905.641"
y1="-920.955" x2="942.293" y2="-920.955"
style="stroke:rgb(144,152,0);stroke-width:1" /><line x1="950.299"
y1="-845.592" x2="1012.040" y2="-845.592"
style="stroke:rgb(47,47,47);stroke-width:3" /><line x1="969.338"
y1="-803.508" x2="1011.712" y2="-830.462"
style="stroke:rgb(0,255,0);stroke-width:3" /><line x1="934.954"
y1="-827.346" x2="934.954" y2="-858.793"
style="stroke:rgb(144,152,0);stroke-width:1" /><line x1="934.954"
y1="-842.122" x2="905.641" y2="-842.122"
style="stroke:rgb(144,152,0);stroke-width:1" /><line x1="1024.464"
y1="-841.460" x2="1039.314" y2="-841.460"
style="stroke:rgb(144,152,0);stroke-width:1" /><line x1="1039.389"
y1="-826.479" x2="1039.389" y2="-856.116"
style="stroke:rgb(144,152,0);stroke-width:1" /><line x1="1042.743"
y1="-830.983" x2="1042.743" y2="-850.270"
style="stroke:rgb(144,152,0);stroke-width:1" /><line x1="1046.461"
y1="-836.356" x2="1046.461" y2="-844.897"
style="stroke:rgb(144,152,0);stroke-width:1" /><line x1="947.687"
y1="-911.433" x2="1010.828" y2="-911.433"
style="stroke:rgb(144,152,0);stroke-width:2" /><line x1="1010.828"
y1="-911.433" x2="1010.828" y2="-930.562"
style="stroke:rgb(144,152,0);stroke-width:2" /><line x1="1010.828"
y1="-930.562" x2="947.687" y2="-930.562"
style="stroke:rgb(144,152,0);stroke-width:2" /><line x1="947.687"
y1="-930.562" x2="947.687" y2="-911.433"
style="stroke:rgb(144,152,0);stroke-width:2" /><line x1="942.293"
y1="-920.955" x2="957.131" y2="-920.955"
style="stroke:rgb(144,152,0);stroke-width:2" /><line x1="957.131"
y1="-914.606" x2="957.131" y2="-927.305"
style="stroke:rgb(144,152,0);stroke-width:2" /><line x1="957.131"
y1="-927.305" x2="992.844" y2="-920.955"
style="stroke:rgb(144,152,0);stroke-width:2" /><line x1="957.131"
y1="-914.606" x2="992.844" y2="-920.955"
style="stroke:rgb(144,152,0);stroke-width:2" /><line x1="1024.576"
y1="-921.116" x2="1039.426" y2="-921.116"
style="stroke:rgb(144,152,0);stroke-width:1" /><line x1="1039.500"
y1="-906.136" x2="1039.500" y2="-935.773"
style="stroke:rgb(144,152,0);stroke-width:1" /><line x1="1042.854"
y1="-910.639" x2="1042.854" y2="-929.927"
style="stroke:rgb(144,152,0);stroke-width:1" /><line x1="1046.572"
y1="-916.012" x2="1046.572" y2="-924.554"
style="stroke:rgb(144,152,0);stroke-width:1" /><line x1="800.599"
y1="-628.401" x2="1085.672" y2="-628.401"
style="stroke:rgb(144,152,0);stroke-width:1" /><circle cx="1234.583"
cy="-335.677" r="21.009" stroke="rgb(47,47,47)" stroke-width="3"
fill="rgb(0,0,0)" /><circle cx="1234.520" cy="-395.085" r="21.009"
stroke="rgb(255,0,0)" stroke-width="3" fill="rgb(0,0,0)" /><circle
cx="1234.520" cy="-451.750" r="21.009" stroke="rgb(255,0,0)"
stroke-width="3" fill="rgb(0,0,0)" /><circle cx="1137.686" cy="-578.593"
r="21.009" stroke="rgb(47,47,47)" stroke-width="3" fill="rgb(0,0,0)" /><line
x1="1094.575" y1="-261.289" x2="1094.575" y2="-619.250"
style="stroke:rgb(128,128,128);stroke-width:1" /><line x1="1094.575"
y1="-619.250" x2="1339.165" y2="-619.250"
style="stroke:rgb(128,128,128);stroke-width:1" /><line x1="1339.165"
y1="-619.250" x2="1339.165" y2="-261.289"
style="stroke:rgb(128,128,128);stroke-width:1" /><line x1="1339.165"
y1="-261.289" x2="1094.575" y2="-261.289"
style="stroke:rgb(128,128,128);stroke-width:1" /><circle cx="1234.583"
cy="-768.358" r="21.009" stroke="rgb(47,47,47)" stroke-width="3"
fill="rgb(0,0,0)" /><circle cx="1234.520" cy="-886.900" r="21.009"
stroke="rgb(255,0,0)" stroke-width="3" fill="rgb(0,0,0)" /><line
x1="1221.018" y1="-871.326" x2="1248.023" y2="-902.473"
style="stroke:rgb(255,0,0);stroke-width:3" /><line x1="1234.520"
y1="-886.900" x2="1221.955" y2="-903.238"
style="stroke:rgb(255,0,0);stroke-width:3" /><line x1="1234.520"
y1="-886.900" x2="1246.713" y2="-870.281"
style="stroke:rgb(255,0,0);stroke-width:3" /><line x1="1094.575"
y1="-653.148" x2="1094.575" y2="-1011.109"
style="stroke:rgb(128,128,128);stroke-width:1" /><line x1="1094.575"
y1="-1011.109" x2="1339.165" y2="-1011.109"
style="stroke:rgb(128,128,128);stroke-width:1" /><line x1="1339.165"
y1="-1011.109" x2="1339.165" y2="-653.148"
style="stroke:rgb(128,128,128);stroke-width:1" /><line x1="1339.165"
y1="-653.148" x2="1094.575" y2="-653.148"
style="stroke:rgb(128,128,128);stroke-width:1" /><line x1="599.793"
y1="-796.017" x2="636.105" y2="-821.914"
style="stroke:rgb(128,128,128);stroke-width:1" /><line x1="601.655"
y1="-811.656" x2="633.498" y2="-833.640"
style="stroke:rgb(128,128,128);stroke-width:1" /><line x1="636.200"
y1="-849.281" x2="599.406" y2="-824.074"
style="stroke:rgb(128,128,128);stroke-width:1" /><line x1="659.328"
y1="-796.017" x2="695.640" y2="-821.914"
style="stroke:rgb(128,128,128);stroke-width:1" /><line x1="661.190"
y1="-811.656" x2="693.033" y2="-833.640"
style="stroke:rgb(128,128,128);stroke-width:1" /><line x1="695.735"
y1="-849.281" x2="658.941" y2="-824.074"
style="stroke:rgb(128,128,128);stroke-width:1" /><arc cx="1139.286"
cy="-767.345" r="14.464" ang1=" 1.682" ang2=" 4.601" stroke="rgb(79,0,0)"
stroke-width="0" /><line x1="1137.685" y1="-752.970" x2="1151.510"
y2="-752.970" style="stroke:rgb(79,0,0);stroke-width:0" /><line
x1="1137.685" y1="-781.721" x2="1151.510" y2="-781.721"
style="stroke:rgb(79,0,0);stroke-width:0" /><line x1="1151.510"
y1="-747.294" x2="1151.510" y2="-787.426"
style="stroke:rgb(79,0,0);stroke-width:0" /><line x1="1151.510"
y1="-747.294" x2="1178.173" y2="-747.294"
style="stroke:rgb(79,0,0);stroke-width:0" /><line x1="1178.173"
y1="-747.294" x2="1178.173" y2="-787.426"
style="stroke:rgb(79,0,0);stroke-width:0" /><line x1="1178.173"
y1="-787.426" x2="1151.510" y2="-787.426"
style="stroke:rgb(79,0,0);stroke-width:0" /><arc cx="1139.003"
cy="-858.899" r="14.464" ang1=" 1.682" ang2=" 4.601"
stroke="rgb(15,72,0)" stroke-width="1" /><line x1="1137.402"
y1="-873.422" x2="1151.227" y2="-873.422"
style="stroke:rgb(15,72,0);stroke-width:1" /><line x1="1151.227"
y1="-867.746" x2="1151.227" y2="-907.878"
style="stroke:rgb(15,72,0);stroke-width:1" /><line x1="1151.227"
y1="-867.746" x2="1177.890" y2="-867.746"
style="stroke:rgb(15,72,0);stroke-width:1" /><line x1="1177.890"
y1="-867.746" x2="1177.890" y2="-907.878"
style="stroke:rgb(15,72,0);stroke-width:1" /><line x1="1177.890"
y1="-907.878" x2="1151.227" y2="-907.878"
style="stroke:rgb(15,72,0);stroke-width:1" /><line x1="665.881"
y1="-907.494" x2="665.881" y2="-945.780"
style="stroke:rgb(47,47,47);stroke-width:3" /><line x1="665.881"
y1="-945.780" x2="689.692" y2="-945.780"
style="stroke:rgb(47,47,47);stroke-width:3" /><line x1="689.692"
y1="-945.780" x2="689.692" y2="-907.494"
style="stroke:rgb(47,47,47);stroke-width:3" /><line x1="689.692"
y1="-907.494" x2="665.881" y2="-907.494"
style="stroke:rgb(47,47,47);stroke-width:3" /><line x1="606.346"
y1="-907.494" x2="606.346" y2="-945.780"
style="stroke:rgb(0,255,0);stroke-width:3" /><line x1="606.346"
y1="-945.780" x2="630.157" y2="-945.780"
style="stroke:rgb(0,255,0);stroke-width:3" /><line x1="630.157"
y1="-945.780" x2="630.157" y2="-907.494"
style="stroke:rgb(0,255,0);stroke-width:3" /><line x1="630.157"
y1="-907.494" x2="606.346" y2="-907.494"
style="stroke:rgb(0,255,0);stroke-width:3" /><line x1="1176.402"
y1="-557.230" x2="1176.402" y2="-601.324"
style="stroke:rgb(128,128,128);stroke-width:1" /><line x1="1176.402"
y1="-601.324" x2="1211.660" y2="-601.324"
style="stroke:rgb(128,128,128);stroke-width:1" /><line x1="1211.660"
y1="-601.324" x2="1211.660" y2="-557.230"
style="stroke:rgb(128,128,128);stroke-width:1" /><line x1="1211.660"
y1="-557.230" x2="1176.402" y2="-557.230"
style="stroke:rgb(128,128,128);stroke-width:1" /><line x1="527.864"
y1="-628.284" x2="587.972" y2="-628.284"
style="stroke:rgb(47,47,47);stroke-width:10" /><line x1="541.436"
y1="-585.081" x2="587.644" y2="-614.470"
style="stroke:rgb(47,47,47);stroke-width:10" /><line x1="950.299"
y1="-845.592" x2="1012.040" y2="-845.592"
style="stroke:rgb(47,47,47);stroke-width:10" /><line x1="969.338"
y1="-803.508" x2="1011.712" y2="-830.462"
style="stroke:rgb(0,255,0);stroke-width:10" /><line x1="487.260"
y1="-616.280" x2="511.537" y2="-640.437"
style="stroke:rgb(144,152,0);stroke-width:1" /><line x1="487.260"
y1="-640.437" x2="511.537" y2="-616.280"
style="stroke:rgb(144,152,0);stroke-width:1" /><line x1="646.639"
y1="-640.480" x2="670.916" y2="-616.323"
style="stroke:rgb(144,152,0);stroke-width:1" /><line x1="646.639"
y1="-616.323" x2="670.916" y2="-640.480"
style="stroke:rgb(144,152,0);stroke-width:1" /><line x1="402.892"
y1="-615.089" x2="402.892" y2="-581.204"
style="stroke:rgb(47,47,47);stroke-width:10" /><line x1="369.398"
y1="-628.401" x2="389.580" y2="-628.401"
style="stroke:rgb(47,47,47);stroke-width:10" /><line x1="355.694"
y1="-628.401" x2="389.580" y2="-628.401"
style="stroke:rgb(47,47,47);stroke-width:10" /><line x1="416.204"
y1="-628.401" x2="439.298" y2="-628.401"
style="stroke:rgb(47,47,47);stroke-width:10" /><line x1="416.204"
y1="-628.401" x2="450.089" y2="-628.401"
style="stroke:rgb(47,47,47);stroke-width:10" /><line x1="402.892"
y1="-641.713" x2="402.892" y2="-675.599"
style="stroke:rgb(47,47,47);stroke-width:10" /><line x1="314.691"
y1="-628.401" x2="294.973" y2="-628.401"
style="stroke:rgb(144,152,0);stroke-width:1" /><text id="101" x="178.109"
y="-165.471" transform="rotate( 1.571,0,0)" font-family="SimHei"
font-size="18" fill="rgb(0,255,0)"> ORT400</text><line x1="1234.583"
y1="-768.358" x2="1246.775" y2="-751.739"
style="stroke:rgb(47,47,47);stroke-width:3" /><line x1="1234.583"
y1="-768.358" x2="1222.017" y2="-784.697"
style="stroke:rgb(47,47,47);stroke-width:3" /><line x1="1221.080"
y1="-752.785" x2="1248.085" y2="-783.932"
style="stroke:rgb(47,47,47);stroke-width:3" /><line x1="1124.183"
y1="-563.020" x2="1151.188" y2="-594.166"
style="stroke:rgb(47,47,47);stroke-width:3" /><line x1="1137.686"
y1="-578.593" x2="1125.120" y2="-594.932"
style="stroke:rgb(47,47,47);stroke-width:3" /><line x1="1137.686"
y1="-578.593" x2="1149.878" y2="-561.974"
style="stroke:rgb(47,47,47);stroke-width:3" /><line x1="1221.018"
y1="-436.177" x2="1248.023" y2="-467.324"
style="stroke:rgb(255,0,0);stroke-width:3" /><line x1="1234.520"
y1="-451.750" x2="1221.955" y2="-468.089"
style="stroke:rgb(255,0,0);stroke-width:3" /><line x1="1234.520"
y1="-451.750" x2="1246.713" y2="-435.131"
style="stroke:rgb(255,0,0);stroke-width:3" /><line x1="1221.018"
y1="-379.512" x2="1248.023" y2="-410.658"
style="stroke:rgb(255,0,0);stroke-width:3" /><line x1="1234.520"
y1="-395.085" x2="1221.955" y2="-411.424"
style="stroke:rgb(255,0,0);stroke-width:3" /><line x1="1234.520"
y1="-395.085" x2="1246.713" y2="-378.466"
style="stroke:rgb(255,0,0);stroke-width:3" /><line x1="1221.080"
y1="-320.104" x2="1248.085" y2="-351.250"
style="stroke:rgb(47,47,47);stroke-width:3" /><line x1="1234.583"
y1="-335.677" x2="1222.017" y2="-352.016"
style="stroke:rgb(47,47,47);stroke-width:3" /><line x1="1234.583"
y1="-335.677" x2="1246.775" y2="-319.058"
style="stroke:rgb(47,47,47);stroke-width:3" /><line x1="989.953"
y1="-435.440" x2="1016.958" y2="-466.586"
style="stroke:rgb(47,47,47);stroke-width:3" /><line x1="1003.455"
y1="-451.013" x2="990.890" y2="-467.352"
style="stroke:rgb(47,47,47);stroke-width:3" /><line x1="1003.455"
y1="-451.013" x2="1015.648" y2="-434.394"
style="stroke:rgb(47,47,47);stroke-width:3" /><line x1="989.953"
y1="-378.774" x2="1016.958" y2="-409.921"
style="stroke:rgb(47,47,47);stroke-width:3" /><line x1="1003.455"
y1="-394.348" x2="990.890" y2="-410.687"
style="stroke:rgb(47,47,47);stroke-width:3" /><line x1="1003.455"
y1="-394.348" x2="1015.648" y2="-377.729"
style="stroke:rgb(47,47,47);stroke-width:3" /><line x1="990.015"
y1="-319.367" x2="1017.020" y2="-350.513"
style="stroke:rgb(47,47,47);stroke-width:3" /><line x1="1003.518"
y1="-334.940" x2="990.952" y2="-351.279"
style="stroke:rgb(47,47,47);stroke-width:3" /><line x1="1003.518"
y1="-334.940" x2="1015.710" y2="-318.321"
style="stroke:rgb(47,47,47);stroke-width:3" /><line x1="732.078"
y1="-615.089" x2="732.078" y2="-581.204"
style="stroke:rgb(47,47,47);stroke-width:10" /><line x1="684.880"
y1="-628.401" x2="718.766" y2="-628.401"
style="stroke:rgb(47,47,47);stroke-width:10" /><line x1="698.584"
y1="-628.401" x2="718.766" y2="-628.401"
style="stroke:rgb(47,47,47);stroke-width:10" /><line x1="732.078"
y1="-641.713" x2="732.078" y2="-675.599"
style="stroke:rgb(47,47,47);stroke-width:10" /><line x1="745.390"
y1="-628.401" x2="779.275" y2="-628.401"
style="stroke:rgb(47,47,47);stroke-width:10" /><line x1="745.390"
y1="-628.401" x2="768.484" y2="-628.401"
style="stroke:rgb(47,47,47);stroke-width:10" /><arc cx="617.876"
cy="-856.399" r="19.880" ang1=" 2.828" ang2=" 0.351"
stroke="rgb(128,128,128)" stroke-width="1" /><arc cx="618.247"
cy="-789.246" r="19.880" ang1=" 5.951" ang2=" 3.474"
stroke="rgb(128,128,128)" stroke-width="1" /><arc cx="677.411"
cy="-856.399" r="19.880" ang1=" 2.828" ang2=" 0.351"
stroke="rgb(128,128,128)" stroke-width="1" /><arc cx="677.782"
cy="-789.246" r="19.880" ang1=" 5.951" ang2=" 3.474"
stroke="rgb(128,128,128)" stroke-width="1" /><line x1="1160.636"
y1="-405.646" x2="778.380" y2="-978.297"
style="stroke:rgb(99,99,99);stroke-width:1" /><line x1="1160.636"
y1="-405.646" x2="1113.601" y2="-423.622"
style="stroke:rgb(99,99,99);stroke-width:1" /><line x1="1160.636"
y1="-405.646" x2="1163.274" y2="-460.859"
style="stroke:rgb(99,99,99);stroke-width:1" /><line x1="767.022"
y1="-923.863" x2="769.421" y2="-961.158"
style="stroke:rgb(96,176,207);stroke-width:1" /><line x1="740.360"
y1="-955.297" x2="740.360" y2="-924.396"
style="stroke:rgb(96,176,207);stroke-width:1" /><line x1="755.291"
y1="-950.502" x2="759.556" y2="-958.494"
style="stroke:rgb(96,176,207);stroke-width:1" /><line x1="775.530"
y1="-960.073" x2="776.439" y2="-953.329"
style="stroke:rgb(96,176,207);stroke-width:1" /><line x1="773.026"
y1="-955.081" x2="771.886" y2="-949.841"
style="stroke:rgb(96,176,207);stroke-width:1" /><line x1="739.278"
y1="-954.626" x2="746.119" y2="-957.588"
style="stroke:rgb(96,176,207);stroke-width:1" /><line x1="735.857"
y1="-977.637" x2="730.385" y2="-947.791"
style="stroke:rgb(96,176,207);stroke-width:1" /><line x1="747.025"
y1="-883.106" x2="743.826" y2="-884.172"
style="stroke:rgb(96,176,207);stroke-width:1" /><line x1="743.826"
y1="-884.172" x2="741.160" y2="-882.573"
style="stroke:rgb(96,176,207);stroke-width:1" /><line x1="764.089"
y1="-881.508" x2="763.556" y2="-882.840"
style="stroke:rgb(96,176,207);stroke-width:1" /><line x1="763.556"
y1="-882.840" x2="759.823" y2="-880.442"
style="stroke:rgb(96,176,207);stroke-width:1" /><line x1="759.823"
y1="-880.442" x2="759.290" y2="-880.442"
style="stroke:rgb(96,176,207);stroke-width:1" /><line x1="754.224"
y1="-922.798" x2="755.291" y2="-920.134"
style="stroke:rgb(96,176,207);stroke-width:1" /><line x1="755.291"
y1="-920.134" x2="754.757" y2="-919.868"
style="stroke:rgb(96,176,207);stroke-width:1" /><line x1="754.757"
y1="-919.868" x2="756.890" y2="-880.975"
style="stroke:rgb(96,176,207);stroke-width:1" /><line x1="756.890"
y1="-880.975" x2="757.957" y2="-880.709"
style="stroke:rgb(96,176,207);stroke-width:1" /><line x1="757.957"
y1="-880.709" x2="755.824" y2="-876.446"
style="stroke:rgb(96,176,207);stroke-width:1" /><line x1="755.824"
y1="-876.446" x2="755.824" y2="-874.848"
style="stroke:rgb(96,176,207);stroke-width:1" /><line x1="755.824"
y1="-874.848" x2="763.556" y2="-874.315"
style="stroke:rgb(96,176,207);stroke-width:1" /><line x1="763.556"
y1="-874.315" x2="768.621" y2="-874.582"
style="stroke:rgb(96,176,207);stroke-width:1" /><line x1="768.621"
y1="-874.582" x2="771.821" y2="-874.582"
style="stroke:rgb(96,176,207);stroke-width:1" /><line x1="771.821"
y1="-874.582" x2="771.821" y2="-876.979"
style="stroke:rgb(96,176,207);stroke-width:1" /><line x1="771.821"
y1="-876.979" x2="765.689" y2="-880.975"
style="stroke:rgb(96,176,207);stroke-width:1" /><line x1="765.689"
y1="-880.975" x2="767.022" y2="-920.134"
style="stroke:rgb(96,176,207);stroke-width:1" /><line x1="767.022"
y1="-920.134" x2="766.488" y2="-922.531"
style="stroke:rgb(96,176,207);stroke-width:1" /><line x1="766.488"
y1="-922.531" x2="767.022" y2="-923.863"
style="stroke:rgb(96,176,207);stroke-width:1" /><line x1="740.360"
y1="-924.396" x2="739.560" y2="-921.466"
style="stroke:rgb(96,176,207);stroke-width:1" /><line x1="739.560"
y1="-921.466" x2="740.093" y2="-882.041"
style="stroke:rgb(96,176,207);stroke-width:1" /><line x1="740.093"
y1="-882.041" x2="742.760" y2="-881.241"
style="stroke:rgb(96,176,207);stroke-width:1" /><line x1="742.760"
y1="-881.241" x2="741.160" y2="-878.045"
style="stroke:rgb(96,176,207);stroke-width:1" /><line x1="741.160"
y1="-878.045" x2="739.560" y2="-876.446"
style="stroke:rgb(96,176,207);stroke-width:1" /><line x1="739.560"
y1="-876.446" x2="739.560" y2="-874.848"
style="stroke:rgb(96,176,207);stroke-width:1" /><line x1="739.560"
y1="-874.848" x2="743.559" y2="-874.582"
style="stroke:rgb(96,176,207);stroke-width:1" /><line x1="743.559"
y1="-874.582" x2="751.291" y2="-874.315"
style="stroke:rgb(96,176,207);stroke-width:1" /><line x1="751.291"
y1="-874.315" x2="752.358" y2="-876.446"
style="stroke:rgb(96,176,207);stroke-width:1" /><line x1="752.358"
y1="-876.446" x2="751.291" y2="-878.311"
style="stroke:rgb(96,176,207);stroke-width:1" /><line x1="751.291"
y1="-878.311" x2="748.092" y2="-881.241"
style="stroke:rgb(96,176,207);stroke-width:1" /><line x1="748.092"
y1="-881.241" x2="749.158" y2="-882.573"
style="stroke:rgb(96,176,207);stroke-width:1" /><line x1="749.158"
y1="-882.573" x2="752.891" y2="-920.667"
style="stroke:rgb(96,176,207);stroke-width:1" /><line x1="752.891"
y1="-920.667" x2="753.691" y2="-923.331"
style="stroke:rgb(96,176,207);stroke-width:1" /><line x1="753.691"
y1="-923.331" x2="755.291" y2="-950.502"
style="stroke:rgb(96,176,207);stroke-width:1" /><line x1="776.439"
y1="-953.329" x2="775.660" y2="-953.070"
style="stroke:rgb(96,176,207);stroke-width:1" /><line x1="775.660"
y1="-953.070" x2="775.141" y2="-951.643"
style="stroke:rgb(96,176,207);stroke-width:1" /><line x1="775.141"
y1="-951.643" x2="774.232" y2="-951.513"
style="stroke:rgb(96,176,207);stroke-width:1" /><line x1="774.232"
y1="-951.513" x2="773.973" y2="-950.476"
style="stroke:rgb(96,176,207);stroke-width:1" /><line x1="773.973"
y1="-950.476" x2="772.285" y2="-949.957"
style="stroke:rgb(96,176,207);stroke-width:1" /><line x1="771.886"
y1="-949.841" x2="771.201" y2="-946.880"
style="stroke:rgb(96,176,207);stroke-width:1" /><line x1="771.201"
y1="-946.880" x2="768.693" y2="-947.791"
style="stroke:rgb(96,176,207);stroke-width:1" /><line x1="731.297"
y1="-948.474" x2="734.717" y2="-950.753"
style="stroke:rgb(96,176,207);stroke-width:1" /><line x1="734.717"
y1="-950.753" x2="739.278" y2="-954.626"
style="stroke:rgb(96,176,207);stroke-width:1" /><line x1="730.385"
y1="-947.791" x2="732.893" y2="-947.563"
style="stroke:rgb(96,176,207);stroke-width:1" /><line x1="732.893"
y1="-947.563" x2="736.998" y2="-949.614"
style="stroke:rgb(96,176,207);stroke-width:1" /><line x1="736.998"
y1="-949.614" x2="740.190" y2="-950.297"
style="stroke:rgb(96,176,207);stroke-width:1" /><line x1="757.688"
y1="-1043.967" x2="757.220" y2="-1044.434"
style="stroke:rgb(96,176,207);stroke-width:1" /><line x1="757.220"
y1="-1044.434" x2="756.378" y2="-1044.154"
style="stroke:rgb(96,176,207);stroke-width:1" /><line x1="763.114"
y1="-1044.527" x2="762.552" y2="-1044.714"
style="stroke:rgb(96,176,207);stroke-width:1" /><line x1="762.552"
y1="-1044.714" x2="761.991" y2="-1044.060"
style="stroke:rgb(96,176,207);stroke-width:1" /><line x1="764.985"
y1="-1045.649" x2="762.833" y2="-1046.116"
style="stroke:rgb(96,176,207);stroke-width:1" /><line x1="762.833"
y1="-1046.116" x2="760.681" y2="-1045.275"
style="stroke:rgb(96,176,207);stroke-width:1" /><line x1="764.330"
y1="-1044.808" x2="762.178" y2="-1044.901"
style="stroke:rgb(96,176,207);stroke-width:1" /><line x1="762.178"
y1="-1044.901" x2="760.681" y2="-1044.340"
style="stroke:rgb(96,176,207);stroke-width:1" /><line x1="760.681"
y1="-1044.340" x2="761.056" y2="-1043.780"
style="stroke:rgb(96,176,207);stroke-width:1" /><line x1="761.056"
y1="-1043.780" x2="762.085" y2="-1043.873"
style="stroke:rgb(96,176,207);stroke-width:1" /><line x1="762.085"
y1="-1043.873" x2="763.862" y2="-1044.340"
style="stroke:rgb(96,176,207);stroke-width:1" /><line x1="758.623"
y1="-1045.182" x2="757.407" y2="-1046.116"
style="stroke:rgb(96,176,207);stroke-width:1" /><line x1="757.407"
y1="-1046.116" x2="754.507" y2="-1045.836"
style="stroke:rgb(96,176,207);stroke-width:1" /><line x1="754.507"
y1="-1045.836" x2="754.039" y2="-1045.088"
style="stroke:rgb(96,176,207);stroke-width:1" /><line x1="754.881"
y1="-1044.901" x2="756.097" y2="-1044.995"
style="stroke:rgb(96,176,207);stroke-width:1" /><line x1="756.097"
y1="-1044.995" x2="757.688" y2="-1044.808"
style="stroke:rgb(96,176,207);stroke-width:1" /><line x1="757.688"
y1="-1044.808" x2="758.436" y2="-1044.340"
style="stroke:rgb(96,176,207);stroke-width:1" /><line x1="758.436"
y1="-1044.340" x2="757.968" y2="-1043.780"
style="stroke:rgb(96,176,207);stroke-width:1" /><line x1="757.968"
y1="-1043.780" x2="756.752" y2="-1043.686"
style="stroke:rgb(96,176,207);stroke-width:1" /><line x1="756.752"
y1="-1043.686" x2="754.881" y2="-1044.340"
style="stroke:rgb(96,176,207);stroke-width:1" /><line x1="762.272"
y1="-1037.050" x2="760.681" y2="-1037.517"
style="stroke:rgb(96,176,207);stroke-width:1" /><line x1="760.681"
y1="-1037.517" x2="759.839" y2="-1037.424"
style="stroke:rgb(96,176,207);stroke-width:1" /><line x1="759.839"
y1="-1037.424" x2="757.875" y2="-1037.143"
style="stroke:rgb(96,176,207);stroke-width:1" /><line x1="761.617"
y1="-1039.667" x2="761.336" y2="-1039.200"
style="stroke:rgb(96,176,207);stroke-width:1" /><line x1="761.336"
y1="-1039.200" x2="759.278" y2="-1039.293"
style="stroke:rgb(96,176,207);stroke-width:1" /><line x1="759.278"
y1="-1039.293" x2="758.249" y2="-1039.760"
style="stroke:rgb(96,176,207);stroke-width:1" /><line x1="748.894"
y1="-1045.556" x2="748.426" y2="-1046.210"
style="stroke:rgb(96,176,207);stroke-width:1" /><line x1="748.426"
y1="-1046.210" x2="747.584" y2="-1046.490"
style="stroke:rgb(96,176,207);stroke-width:1" /><line x1="747.584"
y1="-1046.490" x2="746.930" y2="-1045.836"
style="stroke:rgb(96,176,207);stroke-width:1" /><line x1="746.930"
y1="-1045.836" x2="746.555" y2="-1044.901"
style="stroke:rgb(96,176,207);stroke-width:1" /><line x1="746.555"
y1="-1044.901" x2="746.836" y2="-1043.125"
style="stroke:rgb(96,176,207);stroke-width:1" /><line x1="746.836"
y1="-1043.125" x2="747.397" y2="-1041.817"
style="stroke:rgb(96,176,207);stroke-width:1" /><line x1="747.397"
y1="-1041.817" x2="748.426" y2="-1040.695"
style="stroke:rgb(96,176,207);stroke-width:1" /><line x1="748.426"
y1="-1040.695" x2="749.081" y2="-1039.854"
style="stroke:rgb(96,176,207);stroke-width:1" /><line x1="749.081"
y1="-1039.854" x2="749.643" y2="-1039.574"
style="stroke:rgb(96,176,207);stroke-width:1" /><line x1="749.643"
y1="-1039.574" x2="749.830" y2="-1040.134"
style="stroke:rgb(96,176,207);stroke-width:1" /><line x1="760.962"
y1="-1036.396" x2="759.278" y2="-1036.302"
style="stroke:rgb(96,176,207);stroke-width:1" /><line x1="762.552"
y1="-1032.189" x2="762.646" y2="-1031.909"
style="stroke:rgb(96,176,207);stroke-width:1" /><line x1="762.646"
y1="-1031.909" x2="760.494" y2="-1031.629"
style="stroke:rgb(96,176,207);stroke-width:1" /><line x1="749.643"
y1="-1032.750" x2="749.268" y2="-1032.189"
style="stroke:rgb(96,176,207);stroke-width:1" /><line x1="749.268"
y1="-1032.189" x2="752.355" y2="-1031.722"
style="stroke:rgb(96,176,207);stroke-width:1" /><line x1="752.355"
y1="-1031.722" x2="755.910" y2="-1031.722"
style="stroke:rgb(96,176,207);stroke-width:1" /><line x1="760.588"
y1="-1030.040" x2="759.185" y2="-1026.955"
style="stroke:rgb(96,176,207);stroke-width:1" /><line x1="759.185"
y1="-1026.955" x2="758.530" y2="-1026.394"
style="stroke:rgb(96,176,207);stroke-width:1" /><line x1="758.530"
y1="-1026.394" x2="756.846" y2="-1027.049"
style="stroke:rgb(96,176,207);stroke-width:1" /><line x1="756.846"
y1="-1027.049" x2="755.723" y2="-1029.759"
style="stroke:rgb(96,176,207);stroke-width:1" /><line x1="761.897"
y1="-1032.563" x2="762.739" y2="-1032.563"
style="stroke:rgb(96,176,207);stroke-width:1" /><line x1="762.739"
y1="-1032.563" x2="763.394" y2="-1032.096"
style="stroke:rgb(96,176,207);stroke-width:1" /><line x1="763.394"
y1="-1032.096" x2="764.797" y2="-1026.207"
style="stroke:rgb(96,176,207);stroke-width:1" /><line x1="764.797"
y1="-1026.207" x2="761.149" y2="-1030.040"
style="stroke:rgb(96,176,207);stroke-width:1" /><line x1="761.149"
y1="-1030.040" x2="759.559" y2="-1031.535"
style="stroke:rgb(96,176,207);stroke-width:1" /><line x1="759.559"
y1="-1031.535" x2="756.378" y2="-1031.442"
style="stroke:rgb(96,176,207);stroke-width:1" /><line x1="756.378"
y1="-1031.442" x2="752.449" y2="-1025.553"
style="stroke:rgb(96,176,207);stroke-width:1" /><line x1="752.449"
y1="-1025.553" x2="749.268" y2="-1027.609"
style="stroke:rgb(96,176,207);stroke-width:1" /><line x1="749.268"
y1="-1027.609" x2="747.397" y2="-1028.825"
style="stroke:rgb(96,176,207);stroke-width:1" /><line x1="747.397"
y1="-1028.825" x2="747.959" y2="-1030.694"
style="stroke:rgb(96,176,207);stroke-width:1" /><line x1="747.959"
y1="-1030.694" x2="748.239" y2="-1032.844"
style="stroke:rgb(96,176,207);stroke-width:1" /><line x1="748.239"
y1="-1032.844" x2="749.175" y2="-1032.750"
style="stroke:rgb(96,176,207);stroke-width:1" /><line x1="748.052"
y1="-1040.882" x2="748.988" y2="-1038.545"
style="stroke:rgb(96,176,207);stroke-width:1" /><line x1="748.988"
y1="-1038.545" x2="749.362" y2="-1034.807"
style="stroke:rgb(96,176,207);stroke-width:1" /><line x1="749.362"
y1="-1034.807" x2="749.549" y2="-1032.750"
style="stroke:rgb(96,176,207);stroke-width:1" /><line x1="764.704"
y1="-1052.753" x2="764.143" y2="-1053.407"
style="stroke:rgb(96,176,207);stroke-width:1" /><line x1="764.143"
y1="-1053.407" x2="760.214" y2="-1053.594"
style="stroke:rgb(96,176,207);stroke-width:1" /><line x1="760.214"
y1="-1053.594" x2="755.817" y2="-1053.500"
style="stroke:rgb(96,176,207);stroke-width:1" /><line x1="755.817"
y1="-1053.500" x2="753.759" y2="-1053.127"
style="stroke:rgb(96,176,207);stroke-width:1" /><line x1="753.759"
y1="-1053.127" x2="751.701" y2="-1052.285"
style="stroke:rgb(96,176,207);stroke-width:1" /><line x1="751.701"
y1="-1052.285" x2="750.672" y2="-1050.229"
style="stroke:rgb(96,176,207);stroke-width:1" /><line x1="750.672"
y1="-1050.229" x2="750.297" y2="-1048.266"
style="stroke:rgb(96,176,207);stroke-width:1" /><line x1="750.297"
y1="-1048.266" x2="749.268" y2="-1047.331"
style="stroke:rgb(96,176,207);stroke-width:1" /><line x1="749.268"
y1="-1047.331" x2="749.268" y2="-1046.490"
style="stroke:rgb(96,176,207);stroke-width:1" /><line x1="749.268"
y1="-1046.490" x2="748.894" y2="-1046.303"
style="stroke:rgb(96,176,207);stroke-width:1" /><line x1="760.962"
y1="-1032.003" x2="761.617" y2="-1033.031"
style="stroke:rgb(96,176,207);stroke-width:1" /><line x1="761.617"
y1="-1033.031" x2="762.552" y2="-1033.218"
style="stroke:rgb(96,176,207);stroke-width:1" /><line x1="762.552"
y1="-1033.218" x2="763.581" y2="-1034.433"
style="stroke:rgb(96,176,207);stroke-width:1" /><line x1="763.581"
y1="-1034.433" x2="764.797" y2="-1036.863"
style="stroke:rgb(96,176,207);stroke-width:1" /><line x1="764.797"
y1="-1036.863" x2="765.827" y2="-1041.256"
style="stroke:rgb(96,176,207);stroke-width:1" /><line x1="765.827"
y1="-1041.256" x2="765.078" y2="-1044.154"
style="stroke:rgb(96,176,207);stroke-width:1" /><line x1="765.078"
y1="-1044.154" x2="765.639" y2="-1045.369"
style="stroke:rgb(96,176,207);stroke-width:1" /><line x1="765.639"
y1="-1045.369" x2="765.639" y2="-1048.173"
style="stroke:rgb(96,176,207);stroke-width:1" /><line x1="765.639"
y1="-1048.173" x2="764.891" y2="-1052.472"
style="stroke:rgb(96,176,207);stroke-width:1" /><line x1="764.891"
y1="-1052.472" x2="765.078" y2="-1054.622"
style="stroke:rgb(96,176,207);stroke-width:1" /><line x1="765.078"
y1="-1054.622" x2="763.768" y2="-1055.931"
style="stroke:rgb(96,176,207);stroke-width:1" /><line x1="763.768"
y1="-1055.931" x2="758.810" y2="-1056.772"
style="stroke:rgb(96,176,207);stroke-width:1" /><line x1="758.810"
y1="-1056.772" x2="751.607" y2="-1056.398"
style="stroke:rgb(96,176,207);stroke-width:1" /><line x1="751.607"
y1="-1056.398" x2="748.801" y2="-1055.650"
style="stroke:rgb(96,176,207);stroke-width:1" /><line x1="748.801"
y1="-1055.650" x2="747.304" y2="-1053.033"
style="stroke:rgb(96,176,207);stroke-width:1" /><line x1="747.304"
y1="-1053.033" x2="746.555" y2="-1050.229"
style="stroke:rgb(96,176,207);stroke-width:1" /><line x1="746.555"
y1="-1050.229" x2="746.930" y2="-1047.892"
style="stroke:rgb(96,176,207);stroke-width:1" /><line x1="746.930"
y1="-1047.892" x2="747.584" y2="-1046.584"
style="stroke:rgb(96,176,207);stroke-width:1" /><line x1="749.539"
y1="-997.230" x2="745.891" y2="-997.686"
style="stroke:rgb(96,176,207);stroke-width:1" /><line x1="745.891"
y1="-997.686" x2="741.102" y2="-999.964"
style="stroke:rgb(96,176,207);stroke-width:1" /><line x1="741.102"
y1="-999.964" x2="738.366" y2="-999.964"
style="stroke:rgb(96,176,207);stroke-width:1" /><line x1="738.366"
y1="-999.964" x2="739.962" y2="-1000.420"
style="stroke:rgb(96,176,207);stroke-width:1" /><line x1="739.962"
y1="-1000.420" x2="738.138" y2="-1008.394"
style="stroke:rgb(96,176,207);stroke-width:1" /><line x1="738.138"
y1="-1008.394" x2="740.646" y2="-1006.799"
style="stroke:rgb(96,176,207);stroke-width:1" /><line x1="764.589"
y1="-978.548" x2="760.940" y2="-977.637"
style="stroke:rgb(96,176,207);stroke-width:1" /><line x1="760.940"
y1="-977.637" x2="756.380" y2="-978.320"
style="stroke:rgb(96,176,207);stroke-width:1" /><line x1="749.051"
y1="-995.996" x2="749.960" y2="-996.126"
style="stroke:rgb(96,176,207);stroke-width:1" /><line x1="749.960"
y1="-996.126" x2="750.869" y2="-998.331"
style="stroke:rgb(96,176,207);stroke-width:1" /><line x1="750.869"
y1="-998.331" x2="752.167" y2="-999.757"
style="stroke:rgb(96,176,207);stroke-width:1" /><line x1="752.167"
y1="-999.757" x2="753.335" y2="-999.757"
style="stroke:rgb(96,176,207);stroke-width:1" /><line x1="753.335"
y1="-999.757" x2="755.152" y2="-1000.146"
style="stroke:rgb(96,176,207);stroke-width:1" /><line x1="755.152"
y1="-1000.146" x2="755.671" y2="-999.239"
style="stroke:rgb(96,176,207);stroke-width:1" /><line x1="755.671"
y1="-999.239" x2="755.282" y2="-998.201"
style="stroke:rgb(96,176,207);stroke-width:1" /><line x1="755.282"
y1="-998.201" x2="753.854" y2="-997.553"
style="stroke:rgb(96,176,207);stroke-width:1" /><line x1="753.854"
y1="-997.553" x2="752.945" y2="-996.385"
style="stroke:rgb(96,176,207);stroke-width:1" /><line x1="752.945"
y1="-996.385" x2="754.503" y2="-994.700"
style="stroke:rgb(96,176,207);stroke-width:1" /><line x1="754.503"
y1="-994.700" x2="757.748" y2="-992.754"
style="stroke:rgb(96,176,207);stroke-width:1" /><line x1="757.748"
y1="-992.754" x2="758.008" y2="-991.328"
style="stroke:rgb(96,176,207);stroke-width:1" /><line x1="758.008"
y1="-991.328" x2="756.710" y2="-991.068"
style="stroke:rgb(96,176,207);stroke-width:1" /><line x1="756.710"
y1="-991.068" x2="758.657" y2="-989.123"
style="stroke:rgb(96,176,207);stroke-width:1" /><line x1="758.657"
y1="-989.123" x2="758.527" y2="-988.345"
style="stroke:rgb(96,176,207);stroke-width:1" /><line x1="758.527"
y1="-988.345" x2="757.878" y2="-987.826"
style="stroke:rgb(96,176,207);stroke-width:1" /><line x1="757.878"
y1="-987.826" x2="758.527" y2="-986.789"
style="stroke:rgb(96,176,207);stroke-width:1" /><line x1="758.527"
y1="-986.789" x2="757.748" y2="-986.010"
style="stroke:rgb(96,176,207);stroke-width:1" /><line x1="757.748"
y1="-986.010" x2="758.008" y2="-984.584"
style="stroke:rgb(96,176,207);stroke-width:1" /><line x1="758.008"
y1="-984.584" x2="757.359" y2="-983.676"
style="stroke:rgb(96,176,207);stroke-width:1" /><line x1="757.359"
y1="-983.676" x2="755.671" y2="-984.195"
style="stroke:rgb(96,176,207);stroke-width:1" /><line x1="755.671"
y1="-984.195" x2="752.816" y2="-986.529"
style="stroke:rgb(96,176,207);stroke-width:1" /><line x1="752.816"
y1="-986.529" x2="751.128" y2="-989.123"
style="stroke:rgb(96,176,207);stroke-width:1" /><line x1="751.128"
y1="-989.123" x2="749.051" y2="-990.550"
style="stroke:rgb(96,176,207);stroke-width:1" /><line x1="749.051"
y1="-990.550" x2="746.975" y2="-990.031"
style="stroke:rgb(96,176,207);stroke-width:1" /><line x1="748.399"
y1="-988.573" x2="746.347" y2="-989.712"
style="stroke:rgb(96,176,207);stroke-width:1" /><line x1="746.347"
y1="-989.712" x2="745.435" y2="-992.901"
style="stroke:rgb(96,176,207);stroke-width:1" /><line x1="745.435"
y1="-992.901" x2="746.119" y2="-995.863"
style="stroke:rgb(96,176,207);stroke-width:1" /><line x1="746.119"
y1="-995.863" x2="748.171" y2="-997.002"
style="stroke:rgb(96,176,207);stroke-width:1" /><line x1="748.171"
y1="-997.002" x2="749.539" y2="-997.230"
style="stroke:rgb(96,176,207);stroke-width:1" /><line x1="757.182"
y1="-1026.097" x2="757.954" y2="-1017.232"
style="stroke:rgb(96,176,207);stroke-width:1" /><line x1="757.954"
y1="-1017.232" x2="757.375" y2="-1005.476"
style="stroke:rgb(96,176,207);stroke-width:1" /><line x1="757.375"
y1="-1005.476" x2="757.182" y2="-1000.272"
style="stroke:rgb(96,176,207);stroke-width:1" /><line x1="757.182"
y1="-1000.272" x2="756.025" y2="-994.876"
style="stroke:rgb(96,176,207);stroke-width:1" /><line x1="743.838"
y1="-1027.304" x2="744.522" y2="-1023.431"
style="stroke:rgb(96,176,207);stroke-width:1" /><line x1="744.522"
y1="-1023.431" x2="747.487" y2="-1021.836"
style="stroke:rgb(96,176,207);stroke-width:1" /><line x1="747.487"
y1="-1021.836" x2="744.750" y2="-1020.697"
style="stroke:rgb(96,176,207);stroke-width:1" /><line x1="744.750"
y1="-1020.697" x2="747.487" y2="-1017.279"
style="stroke:rgb(96,176,207);stroke-width:1" /><line x1="747.487"
y1="-1017.279" x2="749.311" y2="-1009.989"
style="stroke:rgb(96,176,207);stroke-width:1" /><line x1="749.311"
y1="-1009.989" x2="750.907" y2="-1000.192"
style="stroke:rgb(96,176,207);stroke-width:1" /><line x1="747.715"
y1="-1029.127" x2="751.591" y2="-1021.152"
style="stroke:rgb(96,176,207);stroke-width:1" /><line x1="751.591"
y1="-1021.152" x2="754.556" y2="-1014.318"
style="stroke:rgb(96,176,207);stroke-width:1" /><line x1="754.556"
y1="-1014.318" x2="755.240" y2="-1005.432"
style="stroke:rgb(96,176,207);stroke-width:1" /><line x1="755.240"
y1="-1005.432" x2="755.468" y2="-1000.648"
style="stroke:rgb(96,176,207);stroke-width:1" /><line x1="764.817"
y1="-1029.354" x2="767.097" y2="-1026.620"
style="stroke:rgb(96,176,207);stroke-width:1" /><line x1="767.097"
y1="-1026.620" x2="767.781" y2="-1020.013"
style="stroke:rgb(96,176,207);stroke-width:1" /><line x1="767.781"
y1="-1020.013" x2="767.325" y2="-1008.850"
style="stroke:rgb(96,176,207);stroke-width:1" /><line x1="767.325"
y1="-1008.850" x2="765.045" y2="-992.901"
style="stroke:rgb(96,176,207);stroke-width:1" /><line x1="760.028"
y1="-1026.848" x2="762.765" y2="-1017.963"
style="stroke:rgb(96,176,207);stroke-width:1" /><line x1="762.765"
y1="-1017.963" x2="763.905" y2="-1003.154"
style="stroke:rgb(96,176,207);stroke-width:1" /><line x1="763.905"
y1="-1003.154" x2="764.589" y2="-990.167"
style="stroke:rgb(96,176,207);stroke-width:1" /><line x1="764.589"
y1="-990.167" x2="765.501" y2="-984.927"
style="stroke:rgb(96,176,207);stroke-width:1" /><line x1="765.501"
y1="-984.927" x2="760.484" y2="-979.687"
style="stroke:rgb(96,176,207);stroke-width:1" /><line x1="760.484"
y1="-979.687" x2="756.836" y2="-983.560"
style="stroke:rgb(96,176,207);stroke-width:1" /><line x1="769.833"
y1="-1027.076" x2="772.798" y2="-1023.659"
style="stroke:rgb(96,176,207);stroke-width:1" /><line x1="772.798"
y1="-1023.659" x2="770.289" y2="-1021.836"
style="stroke:rgb(96,176,207);stroke-width:1" /><line x1="770.289"
y1="-1021.836" x2="773.482" y2="-1019.558"
style="stroke:rgb(96,176,207);stroke-width:1" /><line x1="773.482"
y1="-1019.558" x2="770.973" y2="-1012.495"
style="stroke:rgb(96,176,207);stroke-width:1" /><line x1="770.973"
y1="-1012.495" x2="767.553" y2="-999.964"
style="stroke:rgb(96,176,207);stroke-width:1" /><line x1="767.553"
y1="-999.964" x2="765.501" y2="-990.167"
style="stroke:rgb(96,176,207);stroke-width:1" /><line x1="765.501"
y1="-990.167" x2="765.045" y2="-987.889"
style="stroke:rgb(96,176,207);stroke-width:1" /><line x1="763.905"
y1="-1030.494" x2="768.921" y2="-1027.532"
style="stroke:rgb(96,176,207);stroke-width:1" /><line x1="768.921"
y1="-1027.532" x2="773.710" y2="-1025.481"
style="stroke:rgb(96,176,207);stroke-width:1" /><line x1="773.710"
y1="-1025.481" x2="776.218" y2="-1023.659"
style="stroke:rgb(96,176,207);stroke-width:1" /><line x1="776.218"
y1="-1023.659" x2="778.270" y2="-1020.697"
style="stroke:rgb(96,176,207);stroke-width:1" /><line x1="778.270"
y1="-1020.697" x2="780.095" y2="-1015.001"
style="stroke:rgb(96,176,207);stroke-width:1" /><line x1="780.095"
y1="-1015.001" x2="778.954" y2="-1004.065"
style="stroke:rgb(96,176,207);stroke-width:1" /><line x1="778.954"
y1="-1004.065" x2="779.638" y2="-996.091"
style="stroke:rgb(96,176,207);stroke-width:1" /><line x1="779.638"
y1="-996.091" x2="779.410" y2="-993.585"
style="stroke:rgb(96,176,207);stroke-width:1" /><line x1="779.410"
y1="-993.585" x2="775.534" y2="-971.485"
style="stroke:rgb(96,176,207);stroke-width:1" /><line x1="775.534"
y1="-971.485" x2="774.622" y2="-971.030"
style="stroke:rgb(96,176,207);stroke-width:1" /><line x1="774.622"
y1="-971.030" x2="774.166" y2="-967.157"
style="stroke:rgb(96,176,207);stroke-width:1" /><line x1="774.166"
y1="-967.157" x2="773.482" y2="-967.157"
style="stroke:rgb(96,176,207);stroke-width:1" /><line x1="773.482"
y1="-967.157" x2="772.798" y2="-967.157"
style="stroke:rgb(96,176,207);stroke-width:1" /><line x1="747.259"
y1="-1030.266" x2="743.154" y2="-1027.987"
style="stroke:rgb(96,176,207);stroke-width:1" /><line x1="743.154"
y1="-1027.987" x2="737.226" y2="-1025.937"
style="stroke:rgb(96,176,207);stroke-width:1" /><line x1="737.226"
y1="-1025.937" x2="732.437" y2="-1024.342"
style="stroke:rgb(96,176,207);stroke-width:1" /><line x1="732.437"
y1="-1024.342" x2="729.473" y2="-1019.786"
style="stroke:rgb(96,176,207);stroke-width:1" /><line x1="729.473"
y1="-1019.786" x2="728.105" y2="-1009.305"
style="stroke:rgb(96,176,207);stroke-width:1" /><line x1="728.105"
y1="-1009.305" x2="728.561" y2="-997.230"
style="stroke:rgb(96,176,207);stroke-width:1" /><line x1="728.561"
y1="-997.230" x2="731.525" y2="-992.446"
style="stroke:rgb(96,176,207);stroke-width:1" /><line x1="731.525"
y1="-992.446" x2="735.401" y2="-989.028"
style="stroke:rgb(96,176,207);stroke-width:1" /><line x1="735.401"
y1="-989.028" x2="738.366" y2="-986.750"
style="stroke:rgb(96,176,207);stroke-width:1" /><line x1="738.366"
y1="-986.750" x2="744.294" y2="-986.750"
style="stroke:rgb(96,176,207);stroke-width:1" /><line x1="744.294"
y1="-986.750" x2="747.715" y2="-986.978"
style="stroke:rgb(96,176,207);stroke-width:1" /><line x1="747.715"
y1="-986.978" x2="750.223" y2="-988.345"
style="stroke:rgb(96,176,207);stroke-width:1" /><line x1="773.324"
y1="-966.817" x2="774.752" y2="-963.574"
style="stroke:rgb(96,176,207);stroke-width:1" /><line x1="774.752"
y1="-963.574" x2="775.530" y2="-960.073"
style="stroke:rgb(96,176,207);stroke-width:1" /><line x1="772.342"
y1="-958.499" x2="773.254" y2="-967.384"
style="stroke:rgb(96,176,207);stroke-width:1" /><line x1="773.254"
y1="-967.384" x2="773.254" y2="-974.447"
style="stroke:rgb(96,176,207);stroke-width:1" /><line x1="773.254"
y1="-974.447" x2="773.938" y2="-981.282"
style="stroke:rgb(96,176,207);stroke-width:1" /><line x1="773.938"
y1="-981.282" x2="773.938" y2="-986.978"
style="stroke:rgb(96,176,207);stroke-width:1" /><line x1="773.938"
y1="-986.978" x2="773.938" y2="-993.129"
style="stroke:rgb(96,176,207);stroke-width:1" /><line x1="773.938"
y1="-993.129" x2="773.482" y2="-1003.609"
style="stroke:rgb(96,176,207);stroke-width:1" /><line x1="773.482"
y1="-1003.609" x2="775.762" y2="-1010.444"
style="stroke:rgb(96,176,207);stroke-width:1" /><line x1="763.905"
y1="-983.105" x2="765.045" y2="-978.320"
style="stroke:rgb(96,176,207);stroke-width:1" /><line x1="765.045"
y1="-978.320" x2="765.957" y2="-974.903"
style="stroke:rgb(96,176,207);stroke-width:1" /><line x1="765.957"
y1="-974.903" x2="765.957" y2="-968.524"
style="stroke:rgb(96,176,207);stroke-width:1" /><line x1="765.957"
y1="-968.524" x2="768.237" y2="-964.195"
style="stroke:rgb(96,176,207);stroke-width:1" /><line x1="768.237"
y1="-964.195" x2="770.745" y2="-961.461"
style="stroke:rgb(96,176,207);stroke-width:1" /><line x1="770.745"
y1="-961.461" x2="772.570" y2="-958.043"
style="stroke:rgb(96,176,207);stroke-width:1" /><line x1="772.570"
y1="-958.043" x2="773.026" y2="-955.081"
style="stroke:rgb(96,176,207);stroke-width:1" /><line x1="746.119"
y1="-957.588" x2="751.591" y2="-963.967"
style="stroke:rgb(96,176,207);stroke-width:1" /><line x1="751.591"
y1="-963.967" x2="755.924" y2="-970.574"
style="stroke:rgb(96,176,207);stroke-width:1" /><line x1="755.924"
y1="-970.574" x2="756.152" y2="-976.725"
style="stroke:rgb(96,176,207);stroke-width:1" /><line x1="756.152"
y1="-976.725" x2="755.696" y2="-983.333"
style="stroke:rgb(96,176,207);stroke-width:1" /><line x1="735.173"
y1="-988.573" x2="735.401" y2="-985.611"
style="stroke:rgb(96,176,207);stroke-width:1" /><line x1="735.401"
y1="-985.611" x2="735.857" y2="-977.637"
style="stroke:rgb(96,176,207);stroke-width:1" /></g></svg>
