<?xml version="1.0" encoding="utf-8"?><svg><g
transform="translate(0,1200)"><rect x="0" y="-1199" width="1599"
height="1199" style="fill:rgb(0,0,0)" /><line x1=" 0.000" y1="-0.000"
x2="1600.000" y2="-0.000" style="stroke:rgb(99,99,99);stroke-width:1" /><line
x1="1600.000" y1="-0.000" x2="1600.000" y2="-1200.000"
style="stroke:rgb(99,99,99);stroke-width:1" /><line x1="1600.000"
y1="-1200.000" x2=" 0.000" y2="-1200.000"
style="stroke:rgb(99,99,99);stroke-width:1" /><line x1=" 0.000"
y1="-1200.000" x2=" 0.000" y2="-0.000"
style="stroke:rgb(99,99,99);stroke-width:1" /><line x1="146.877"
y1="-134.245" x2="146.877" y2="-1100.245"
style="stroke:rgb(0,0,255);stroke-width:3" /><line x1="146.877"
y1="-1100.245" x2="1462.877" y2="-1100.245"
style="stroke:rgb(0,0,255);stroke-width:3" /><line x1="1462.877"
y1="-134.245" x2="1462.877" y2="-1100.245"
style="stroke:rgb(0,0,255);stroke-width:3" /><line x1="146.877"
y1="-134.245" x2="1462.877" y2="-134.245"
style="stroke:rgb(0,0,255);stroke-width:3" /><arc cx="401.268"
cy="-628.457" r="86.578" ang1=" 1.637" ang2=" 4.647"
stroke="rgb(144,152,0)" stroke-width="1" /><line x1="470.137"
y1="-628.358" x2="499.398" y2="-628.358"
style="stroke:rgb(144,152,0);stroke-width:1" /><line x1="527.864"
y1="-628.284" x2="587.972" y2="-628.284"
style="stroke:rgb(47,47,47);stroke-width:10" /><line x1="541.436"
y1="-585.081" x2="587.644" y2="-614.470"
style="stroke:rgb(47,47,47);stroke-width:10" /><line x1="604.226"
y1="-628.401" x2="658.778" y2="-628.401"
style="stroke:rgb(144,152,0);stroke-width:1" /><circle cx="849.835"
cy="-544.810" r="20.660" stroke="rgb(128,128,128)" stroke-width="1"
fill="rgb(0,0,0)" /><circle cx="896.281" cy="-544.810" r="20.660"
stroke="rgb(128,128,128)" stroke-width="1" fill="rgb(0,0,0)" /><line
x1="846.039" y1="-572.658" x2="846.039" y2="-590.445"
style="stroke:rgb(128,128,128);stroke-width:1" /><line x1="851.710"
y1="-569.744" x2="851.710" y2="-587.532"
style="stroke:rgb(128,128,128);stroke-width:1" /><line x1="840.368"
y1="-583.085" x2="859.986" y2="-574.651"
style="stroke:rgb(128,128,128);stroke-width:1" /><line x1="891.641"
y1="-571.431" x2="891.641" y2="-589.219"
style="stroke:rgb(128,128,128);stroke-width:1" /><line x1="897.312"
y1="-568.518" x2="897.312" y2="-586.305"
style="stroke:rgb(128,128,128);stroke-width:1" /><line x1="885.970"
y1="-581.858" x2="905.588" y2="-573.425"
style="stroke:rgb(128,128,128);stroke-width:1" /><line x1="811.402"
y1="-547.063" x2="938.318" y2="-547.063"
style="stroke:rgb(128,128,128);stroke-width:1" /><circle cx="846.464"
cy="-689.827" r="20.660" stroke="rgb(128,128,128)" stroke-width="1"
fill="rgb(0,0,0)" /><circle cx="892.910" cy="-689.827" r="20.660"
stroke="rgb(128,128,128)" stroke-width="1" fill="rgb(0,0,0)" /><line
x1="842.668" y1="-717.675" x2="842.668" y2="-735.462"
style="stroke:rgb(128,128,128);stroke-width:1" /><line x1="848.339"
y1="-714.762" x2="848.339" y2="-732.549"
style="stroke:rgb(128,128,128);stroke-width:1" /><line x1="836.997"
y1="-728.102" x2="856.615" y2="-719.668"
style="stroke:rgb(128,128,128);stroke-width:1" /><line x1="888.270"
y1="-716.449" x2="888.270" y2="-734.236"
style="stroke:rgb(128,128,128);stroke-width:1" /><line x1="893.941"
y1="-713.535" x2="893.941" y2="-731.323"
style="stroke:rgb(128,128,128);stroke-width:1" /><line x1="882.599"
y1="-726.876" x2="902.217" y2="-718.442"
style="stroke:rgb(128,128,128);stroke-width:1" /><line x1="808.031"
y1="-692.080" x2="934.947" y2="-692.080"
style="stroke:rgb(128,128,128);stroke-width:1" /><line x1="294.987"
y1="-240.318" x2="294.960" y2="-1017.927"
style="stroke:rgb(144,152,0);stroke-width:1" /><arc cx="714.026"
cy="-629.329" r="86.578" ang1=" 4.778" ang2=" 1.505"
stroke="rgb(144,152,0)" stroke-width="1" /><line x1="973.954"
y1="-625.112" x2="973.954" y2="-501.175"
style="stroke:rgb(144,152,0);stroke-width:1" /><line x1="973.954"
y1="-501.175" x2="906.458" y2="-501.175"
style="stroke:rgb(144,152,0);stroke-width:1" /><line x1="906.458"
y1="-501.175" x2="906.458" y2="-394.207"
style="stroke:rgb(144,152,0);stroke-width:1" /><line x1="906.458"
y1="-394.207" x2="934.495" y2="-394.207"
style="stroke:rgb(144,152,0);stroke-width:1" /><line x1="934.495"
y1="-380.896" x2="934.495" y2="-407.461"
style="stroke:rgb(144,152,0);stroke-width:1" /><line x1="940.840"
y1="-380.896" x2="940.840" y2="-407.461"
style="stroke:rgb(144,152,0);stroke-width:1" /><circle cx="1003.518"
cy="-334.940" r="21.009" stroke="rgb(47,47,47)" stroke-width="3"
fill="rgb(0,0,0)" /><circle cx="1003.455" cy="-394.348" r="21.009"
stroke="rgb(47,47,47)" stroke-width="3" fill="rgb(0,0,0)" /><circle
cx="1003.455" cy="-451.013" r="21.009" stroke="rgb(47,47,47)"
stroke-width="3" fill="rgb(0,0,0)" /><line x1="982.446" y1="-394.348"
x2="940.840" y2="-394.348" style="stroke:rgb(144,152,0);stroke-width:1" /><line
x1="1024.464" y1="-394.348" x2="1039.314" y2="-394.348"
style="stroke:rgb(144,152,0);stroke-width:1" /><line x1="1039.389"
y1="-379.368" x2="1039.389" y2="-409.005"
style="stroke:rgb(144,152,0);stroke-width:1" /><line x1="1042.743"
y1="-383.871" x2="1042.743" y2="-403.158"
style="stroke:rgb(144,152,0);stroke-width:1" /><line x1="1046.461"
y1="-389.244" x2="1046.461" y2="-397.785"
style="stroke:rgb(144,152,0);stroke-width:1" /><line x1="973.954"
y1="-625.112" x2="973.954" y2="-752.757"
style="stroke:rgb(144,152,0);stroke-width:1" /><line x1="973.954"
y1="-752.757" x2="905.641" y2="-752.757"
style="stroke:rgb(144,152,0);stroke-width:1" /><line x1="905.641"
y1="-752.757" x2="905.641" y2="-920.955"
style="stroke:rgb(144,152,0);stroke-width:1" /><line x1="905.641"
y1="-920.955" x2="942.293" y2="-920.955"
style="stroke:rgb(144,152,0);stroke-width:1" /><line x1="950.299"
y1="-845.592" x2="1012.040" y2="-845.592"
style="stroke:rgb(47,47,47);stroke-width:3" /><line x1="969.338"
y1="-803.508" x2="1011.712" y2="-830.462"
style="stroke:rgb(0,255,0);stroke-width:3" /><line x1="934.954"
y1="-827.346" x2="934.954" y2="-858.793"
style="stroke:rgb(144,152,0);stroke-width:1" /><line x1="934.954"
y1="-842.122" x2="905.641" y2="-842.122"
style="stroke:rgb(144,152,0);stroke-width:1" /><line x1="1024.464"
y1="-841.460" x2="1039.314" y2="-841.460"
style="stroke:rgb(144,152,0);stroke-width:1" /><line x1="1039.389"
y1="-826.479" x2="1039.389" y2="-856.116"
style="stroke:rgb(144,152,0);stroke-width:1" /><line x1="1042.743"
y1="-830.983" x2="1042.743" y2="-850.270"
style="stroke:rgb(144,152,0);stroke-width:1" /><line x1="1046.461"
y1="-836.356" x2="1046.461" y2="-844.897"
style="stroke:rgb(144,152,0);stroke-width:1" /><line x1="947.687"
y1="-911.433" x2="1010.828" y2="-911.433"
style="stroke:rgb(144,152,0);stroke-width:2" /><line x1="1010.828"
y1="-911.433" x2="1010.828" y2="-930.562"
style="stroke:rgb(144,152,0);stroke-width:2" /><line x1="1010.828"
y1="-930.562" x2="947.687" y2="-930.562"
style="stroke:rgb(144,152,0);stroke-width:2" /><line x1="947.687"
y1="-930.562" x2="947.687" y2="-911.433"
style="stroke:rgb(144,152,0);stroke-width:2" /><line x1="942.293"
y1="-920.955" x2="957.131" y2="-920.955"
style="stroke:rgb(144,152,0);stroke-width:2" /><line x1="957.131"
y1="-914.606" x2="957.131" y2="-927.305"
style="stroke:rgb(144,152,0);stroke-width:2" /><line x1="957.131"
y1="-927.305" x2="992.844" y2="-920.955"
style="stroke:rgb(144,152,0);stroke-width:2" /><line x1="957.131"
y1="-914.606" x2="992.844" y2="-920.955"
style="stroke:rgb(144,152,0);stroke-width:2" /><line x1="1024.576"
y1="-921.116" x2="1039.426" y2="-921.116"
style="stroke:rgb(144,152,0);stroke-width:1" /><line x1="1039.500"
y1="-906.136" x2="1039.500" y2="-935.773"
style="stroke:rgb(144,152,0);stroke-width:1" /><line x1="1042.854"
y1="-910.639" x2="1042.854" y2="-929.927"
style="stroke:rgb(144,152,0);stroke-width:1" /><line x1="1046.572"
y1="-916.012" x2="1046.572" y2="-924.554"
style="stroke:rgb(144,152,0);stroke-width:1" /><line x1="800.599"
y1="-628.401" x2="1085.672" y2="-628.401"
style="stroke:rgb(144,152,0);stroke-width:1" /><circle cx="1234.583"
cy="-335.677" r="21.009" stroke="rgb(255,0,0)" stroke-width="3"
fill="rgb(0,0,0)" /><circle cx="1234.520" cy="-395.085" r="21.009"
stroke="rgb(47,47,47)" stroke-width="3" fill="rgb(0,0,0)" /><circle
cx="1234.520" cy="-451.750" r="21.009" stroke="rgb(255,0,0)"
stroke-width="3" fill="rgb(0,0,0)" /><circle cx="1137.686" cy="-578.593"
r="21.009" stroke="rgb(47,47,47)" stroke-width="3" fill="rgb(0,0,0)" /><line
x1="1094.575" y1="-261.289" x2="1094.575" y2="-619.250"
style="stroke:rgb(128,128,128);stroke-width:1" /><line x1="1094.575"
y1="-619.250" x2="1339.165" y2="-619.250"
style="stroke:rgb(128,128,128);stroke-width:1" /><line x1="1339.165"
y1="-619.250" x2="1339.165" y2="-261.289"
style="stroke:rgb(128,128,128);stroke-width:1" /><line x1="1339.165"
y1="-261.289" x2="1094.575" y2="-261.289"
style="stroke:rgb(128,128,128);stroke-width:1" /><circle cx="1234.583"
cy="-768.358" r="21.009" stroke="rgb(47,47,47)" stroke-width="3"
fill="rgb(0,0,0)" /><circle cx="1234.520" cy="-886.900" r="21.009"
stroke="rgb(255,0,0)" stroke-width="3" fill="rgb(0,0,0)" /><line
x1="1221.018" y1="-871.326" x2="1248.023" y2="-902.473"
style="stroke:rgb(255,0,0);stroke-width:3" /><line x1="1234.520"
y1="-886.900" x2="1221.955" y2="-903.238"
style="stroke:rgb(255,0,0);stroke-width:3" /><line x1="1234.520"
y1="-886.900" x2="1246.713" y2="-870.281"
style="stroke:rgb(255,0,0);stroke-width:3" /><line x1="1094.575"
y1="-653.148" x2="1094.575" y2="-1011.109"
style="stroke:rgb(128,128,128);stroke-width:1" /><line x1="1094.575"
y1="-1011.109" x2="1339.165" y2="-1011.109"
style="stroke:rgb(128,128,128);stroke-width:1" /><line x1="1339.165"
y1="-1011.109" x2="1339.165" y2="-653.148"
style="stroke:rgb(128,128,128);stroke-width:1" /><line x1="1339.165"
y1="-653.148" x2="1094.575" y2="-653.148"
style="stroke:rgb(128,128,128);stroke-width:1" /><line x1="599.793"
y1="-796.017" x2="636.105" y2="-821.914"
style="stroke:rgb(128,128,128);stroke-width:1" /><line x1="601.655"
y1="-811.656" x2="633.498" y2="-833.640"
style="stroke:rgb(128,128,128);stroke-width:1" /><line x1="636.200"
y1="-849.281" x2="599.406" y2="-824.074"
style="stroke:rgb(128,128,128);stroke-width:1" /><line x1="659.328"
y1="-796.017" x2="695.640" y2="-821.914"
style="stroke:rgb(128,128,128);stroke-width:1" /><line x1="661.190"
y1="-811.656" x2="693.033" y2="-833.640"
style="stroke:rgb(128,128,128);stroke-width:1" /><line x1="695.735"
y1="-849.281" x2="658.941" y2="-824.074"
style="stroke:rgb(128,128,128);stroke-width:1" /><arc cx="1139.286"
cy="-767.345" r="14.464" ang1=" 1.682" ang2=" 4.601" stroke="rgb(79,0,0)"
stroke-width="0" /><line x1="1137.685" y1="-752.970" x2="1151.510"
y2="-752.970" style="stroke:rgb(79,0,0);stroke-width:0" /><line
x1="1137.685" y1="-781.721" x2="1151.510" y2="-781.721"
style="stroke:rgb(79,0,0);stroke-width:0" /><line x1="1151.510"
y1="-747.294" x2="1151.510" y2="-787.426"
style="stroke:rgb(79,0,0);stroke-width:0" /><line x1="1151.510"
y1="-747.294" x2="1178.173" y2="-747.294"
style="stroke:rgb(79,0,0);stroke-width:0" /><line x1="1178.173"
y1="-747.294" x2="1178.173" y2="-787.426"
style="stroke:rgb(79,0,0);stroke-width:0" /><line x1="1178.173"
y1="-787.426" x2="1151.510" y2="-787.426"
style="stroke:rgb(79,0,0);stroke-width:0" /><arc cx="1139.003"
cy="-858.899" r="14.464" ang1=" 1.682" ang2=" 4.601"
stroke="rgb(15,72,0)" stroke-width="1" /><line x1="1137.402"
y1="-873.422" x2="1151.227" y2="-873.422"
style="stroke:rgb(15,72,0);stroke-width:1" /><line x1="1151.227"
y1="-867.746" x2="1151.227" y2="-907.878"
style="stroke:rgb(15,72,0);stroke-width:1" /><line x1="1151.227"
y1="-867.746" x2="1177.890" y2="-867.746"
style="stroke:rgb(15,72,0);stroke-width:1" /><line x1="1177.890"
y1="-867.746" x2="1177.890" y2="-907.878"
style="stroke:rgb(15,72,0);stroke-width:1" /><line x1="1177.890"
y1="-907.878" x2="1151.227" y2="-907.878"
style="stroke:rgb(15,72,0);stroke-width:1" /><line x1="665.881"
y1="-907.494" x2="665.881" y2="-945.780"
style="stroke:rgb(47,47,47);stroke-width:3" /><line x1="665.881"
y1="-945.780" x2="689.692" y2="-945.780"
style="stroke:rgb(47,47,47);stroke-width:3" /><line x1="689.692"
y1="-945.780" x2="689.692" y2="-907.494"
style="stroke:rgb(47,47,47);stroke-width:3" /><line x1="689.692"
y1="-907.494" x2="665.881" y2="-907.494"
style="stroke:rgb(47,47,47);stroke-width:3" /><line x1="606.346"
y1="-907.494" x2="606.346" y2="-945.780"
style="stroke:rgb(0,255,0);stroke-width:3" /><line x1="606.346"
y1="-945.780" x2="630.157" y2="-945.780"
style="stroke:rgb(0,255,0);stroke-width:3" /><line x1="630.157"
y1="-945.780" x2="630.157" y2="-907.494"
style="stroke:rgb(0,255,0);stroke-width:3" /><line x1="630.157"
y1="-907.494" x2="606.346" y2="-907.494"
style="stroke:rgb(0,255,0);stroke-width:3" /><line x1="1176.402"
y1="-557.230" x2="1176.402" y2="-601.324"
style="stroke:rgb(128,128,128);stroke-width:1" /><line x1="1176.402"
y1="-601.324" x2="1211.660" y2="-601.324"
style="stroke:rgb(128,128,128);stroke-width:1" /><line x1="1211.660"
y1="-601.324" x2="1211.660" y2="-557.230"
style="stroke:rgb(128,128,128);stroke-width:1" /><line x1="1211.660"
y1="-557.230" x2="1176.402" y2="-557.230"
style="stroke:rgb(128,128,128);stroke-width:1" /><line x1="527.864"
y1="-628.284" x2="587.972" y2="-628.284"
style="stroke:rgb(47,47,47);stroke-width:10" /><line x1="541.436"
y1="-585.081" x2="587.644" y2="-614.470"
style="stroke:rgb(47,47,47);stroke-width:10" /><line x1="950.299"
y1="-845.592" x2="1012.040" y2="-845.592"
style="stroke:rgb(47,47,47);stroke-width:10" /><line x1="969.338"
y1="-803.508" x2="1011.712" y2="-830.462"
style="stroke:rgb(0,255,0);stroke-width:10" /><line x1="487.260"
y1="-616.280" x2="511.537" y2="-640.437"
style="stroke:rgb(144,152,0);stroke-width:1" /><line x1="487.260"
y1="-640.437" x2="511.537" y2="-616.280"
style="stroke:rgb(144,152,0);stroke-width:1" /><line x1="646.639"
y1="-640.480" x2="670.916" y2="-616.323"
style="stroke:rgb(144,152,0);stroke-width:1" /><line x1="646.639"
y1="-616.323" x2="670.916" y2="-640.480"
style="stroke:rgb(144,152,0);stroke-width:1" /><line x1="402.892"
y1="-615.089" x2="402.892" y2="-581.204"
style="stroke:rgb(47,47,47);stroke-width:10" /><line x1="369.398"
y1="-628.401" x2="389.580" y2="-628.401"
style="stroke:rgb(47,47,47);stroke-width:10" /><line x1="355.694"
y1="-628.401" x2="389.580" y2="-628.401"
style="stroke:rgb(47,47,47);stroke-width:10" /><line x1="416.204"
y1="-628.401" x2="439.298" y2="-628.401"
style="stroke:rgb(47,47,47);stroke-width:10" /><line x1="416.204"
y1="-628.401" x2="450.089" y2="-628.401"
style="stroke:rgb(47,47,47);stroke-width:10" /><line x1="402.892"
y1="-641.713" x2="402.892" y2="-675.599"
style="stroke:rgb(47,47,47);stroke-width:10" /><line x1="314.691"
y1="-628.401" x2="294.973" y2="-628.401"
style="stroke:rgb(144,152,0);stroke-width:1" /><text id="101" x="178.109"
y="-165.471" transform="rotate( 1.571,0,0)" font-family="SimHei"
font-size="18" fill="rgb(0,255,0)"> ORT400</text><line x1="1234.583"
y1="-768.358" x2="1246.775" y2="-751.739"
style="stroke:rgb(47,47,47);stroke-width:3" /><line x1="1234.583"
y1="-768.358" x2="1222.017" y2="-784.697"
style="stroke:rgb(47,47,47);stroke-width:3" /><line x1="1221.080"
y1="-752.785" x2="1248.085" y2="-783.932"
style="stroke:rgb(47,47,47);stroke-width:3" /><line x1="1124.183"
y1="-563.020" x2="1151.188" y2="-594.166"
style="stroke:rgb(47,47,47);stroke-width:3" /><line x1="1137.686"
y1="-578.593" x2="1125.120" y2="-594.932"
style="stroke:rgb(47,47,47);stroke-width:3" /><line x1="1137.686"
y1="-578.593" x2="1149.878" y2="-561.974"
style="stroke:rgb(47,47,47);stroke-width:3" /><line x1="1221.018"
y1="-436.177" x2="1248.023" y2="-467.324"
style="stroke:rgb(255,0,0);stroke-width:3" /><line x1="1234.520"
y1="-451.750" x2="1221.955" y2="-468.089"
style="stroke:rgb(255,0,0);stroke-width:3" /><line x1="1234.520"
y1="-451.750" x2="1246.713" y2="-435.131"
style="stroke:rgb(255,0,0);stroke-width:3" /><line x1="1221.018"
y1="-379.512" x2="1248.023" y2="-410.658"
style="stroke:rgb(47,47,47);stroke-width:3" /><line x1="1234.520"
y1="-395.085" x2="1221.955" y2="-411.424"
style="stroke:rgb(47,47,47);stroke-width:3" /><line x1="1234.520"
y1="-395.085" x2="1246.713" y2="-378.466"
style="stroke:rgb(47,47,47);stroke-width:3" /><line x1="1221.080"
y1="-320.104" x2="1248.085" y2="-351.250"
style="stroke:rgb(255,0,0);stroke-width:3" /><line x1="1234.583"
y1="-335.677" x2="1222.017" y2="-352.016"
style="stroke:rgb(255,0,0);stroke-width:3" /><line x1="1234.583"
y1="-335.677" x2="1246.775" y2="-319.058"
style="stroke:rgb(255,0,0);stroke-width:3" /><line x1="989.953"
y1="-435.440" x2="1016.958" y2="-466.586"
style="stroke:rgb(47,47,47);stroke-width:3" /><line x1="1003.455"
y1="-451.013" x2="990.890" y2="-467.352"
style="stroke:rgb(47,47,47);stroke-width:3" /><line x1="1003.455"
y1="-451.013" x2="1015.648" y2="-434.394"
style="stroke:rgb(47,47,47);stroke-width:3" /><line x1="989.953"
y1="-378.774" x2="1016.958" y2="-409.921"
style="stroke:rgb(47,47,47);stroke-width:3" /><line x1="1003.455"
y1="-394.348" x2="990.890" y2="-410.687"
style="stroke:rgb(47,47,47);stroke-width:3" /><line x1="1003.455"
y1="-394.348" x2="1015.648" y2="-377.729"
style="stroke:rgb(47,47,47);stroke-width:3" /><line x1="990.015"
y1="-319.367" x2="1017.020" y2="-350.513"
style="stroke:rgb(47,47,47);stroke-width:3" /><line x1="1003.518"
y1="-334.940" x2="990.952" y2="-351.279"
style="stroke:rgb(47,47,47);stroke-width:3" /><line x1="1003.518"
y1="-334.940" x2="1015.710" y2="-318.321"
style="stroke:rgb(47,47,47);stroke-width:3" /><line x1="732.078"
y1="-615.089" x2="732.078" y2="-581.204"
style="stroke:rgb(47,47,47);stroke-width:10" /><line x1="684.880"
y1="-628.401" x2="718.766" y2="-628.401"
style="stroke:rgb(47,47,47);stroke-width:10" /><line x1="698.584"
y1="-628.401" x2="718.766" y2="-628.401"
style="stroke:rgb(47,47,47);stroke-width:10" /><line x1="732.078"
y1="-641.713" x2="732.078" y2="-675.599"
style="stroke:rgb(47,47,47);stroke-width:10" /><line x1="745.390"
y1="-628.401" x2="779.275" y2="-628.401"
style="stroke:rgb(47,47,47);stroke-width:10" /><line x1="745.390"
y1="-628.401" x2="768.484" y2="-628.401"
style="stroke:rgb(47,47,47);stroke-width:10" /><arc cx="617.876"
cy="-856.399" r="19.880" ang1=" 2.828" ang2=" 0.351"
stroke="rgb(128,128,128)" stroke-width="1" /><arc cx="618.247"
cy="-789.246" r="19.880" ang1=" 5.951" ang2=" 3.474"
stroke="rgb(128,128,128)" stroke-width="1" /><arc cx="677.411"
cy="-856.399" r="19.880" ang1=" 2.828" ang2=" 0.351"
stroke="rgb(128,128,128)" stroke-width="1" /><arc cx="677.782"
cy="-789.246" r="19.880" ang1=" 5.951" ang2=" 3.474"
stroke="rgb(128,128,128)" stroke-width="1" /><line x1="1160.636"
y1="-405.646" x2="771.643" y2="-990.455"
style="stroke:rgb(99,99,99);stroke-width:1" /><line x1="1160.636"
y1="-405.646" x2="1113.601" y2="-423.622"
style="stroke:rgb(99,99,99);stroke-width:1" /><line x1="1160.636"
y1="-405.646" x2="1163.274" y2="-460.859"
style="stroke:rgb(99,99,99);stroke-width:1" /><line x1="759.798"
y1="-940.476" x2="762.197" y2="-977.770"
style="stroke:rgb(96,176,207);stroke-width:1" /><line x1="733.136"
y1="-971.910" x2="733.136" y2="-941.009"
style="stroke:rgb(96,176,207);stroke-width:1" /><line x1="748.067"
y1="-967.115" x2="752.332" y2="-975.107"
style="stroke:rgb(96,176,207);stroke-width:1" /><line x1="768.307"
y1="-976.686" x2="769.215" y2="-969.942"
style="stroke:rgb(96,176,207);stroke-width:1" /><line x1="765.802"
y1="-971.694" x2="764.662" y2="-966.454"
style="stroke:rgb(96,176,207);stroke-width:1" /><line x1="732.054"
y1="-971.239" x2="738.895" y2="-974.200"
style="stroke:rgb(96,176,207);stroke-width:1" /><line x1="728.634"
y1="-994.250" x2="723.161" y2="-964.404"
style="stroke:rgb(96,176,207);stroke-width:1" /><line x1="739.802"
y1="-899.719" x2="736.602" y2="-900.785"
style="stroke:rgb(96,176,207);stroke-width:1" /><line x1="736.602"
y1="-900.785" x2="733.936" y2="-899.186"
style="stroke:rgb(96,176,207);stroke-width:1" /><line x1="756.865"
y1="-898.121" x2="756.332" y2="-899.453"
style="stroke:rgb(96,176,207);stroke-width:1" /><line x1="756.332"
y1="-899.453" x2="752.599" y2="-897.055"
style="stroke:rgb(96,176,207);stroke-width:1" /><line x1="752.599"
y1="-897.055" x2="752.066" y2="-897.055"
style="stroke:rgb(96,176,207);stroke-width:1" /><line x1="747.000"
y1="-939.411" x2="748.067" y2="-936.747"
style="stroke:rgb(96,176,207);stroke-width:1" /><line x1="748.067"
y1="-936.747" x2="747.533" y2="-936.480"
style="stroke:rgb(96,176,207);stroke-width:1" /><line x1="747.533"
y1="-936.480" x2="749.666" y2="-897.588"
style="stroke:rgb(96,176,207);stroke-width:1" /><line x1="749.666"
y1="-897.588" x2="750.733" y2="-897.321"
style="stroke:rgb(96,176,207);stroke-width:1" /><line x1="750.733"
y1="-897.321" x2="748.600" y2="-893.059"
style="stroke:rgb(96,176,207);stroke-width:1" /><line x1="748.600"
y1="-893.059" x2="748.600" y2="-891.461"
style="stroke:rgb(96,176,207);stroke-width:1" /><line x1="748.600"
y1="-891.461" x2="756.332" y2="-890.928"
style="stroke:rgb(96,176,207);stroke-width:1" /><line x1="756.332"
y1="-890.928" x2="761.397" y2="-891.195"
style="stroke:rgb(96,176,207);stroke-width:1" /><line x1="761.397"
y1="-891.195" x2="764.597" y2="-891.195"
style="stroke:rgb(96,176,207);stroke-width:1" /><line x1="764.597"
y1="-891.195" x2="764.597" y2="-893.592"
style="stroke:rgb(96,176,207);stroke-width:1" /><line x1="764.597"
y1="-893.592" x2="758.465" y2="-897.588"
style="stroke:rgb(96,176,207);stroke-width:1" /><line x1="758.465"
y1="-897.588" x2="759.798" y2="-936.747"
style="stroke:rgb(96,176,207);stroke-width:1" /><line x1="759.798"
y1="-936.747" x2="759.264" y2="-939.144"
style="stroke:rgb(96,176,207);stroke-width:1" /><line x1="759.264"
y1="-939.144" x2="759.798" y2="-940.476"
style="stroke:rgb(96,176,207);stroke-width:1" /><line x1="733.136"
y1="-941.009" x2="732.336" y2="-938.079"
style="stroke:rgb(96,176,207);stroke-width:1" /><line x1="732.336"
y1="-938.079" x2="732.870" y2="-898.653"
style="stroke:rgb(96,176,207);stroke-width:1" /><line x1="732.870"
y1="-898.653" x2="735.536" y2="-897.854"
style="stroke:rgb(96,176,207);stroke-width:1" /><line x1="735.536"
y1="-897.854" x2="733.936" y2="-894.658"
style="stroke:rgb(96,176,207);stroke-width:1" /><line x1="733.936"
y1="-894.658" x2="732.336" y2="-893.059"
style="stroke:rgb(96,176,207);stroke-width:1" /><line x1="732.336"
y1="-893.059" x2="732.336" y2="-891.461"
style="stroke:rgb(96,176,207);stroke-width:1" /><line x1="732.336"
y1="-891.461" x2="736.336" y2="-891.195"
style="stroke:rgb(96,176,207);stroke-width:1" /><line x1="736.336"
y1="-891.195" x2="744.067" y2="-890.928"
style="stroke:rgb(96,176,207);stroke-width:1" /><line x1="744.067"
y1="-890.928" x2="745.134" y2="-893.059"
style="stroke:rgb(96,176,207);stroke-width:1" /><line x1="745.134"
y1="-893.059" x2="744.067" y2="-894.924"
style="stroke:rgb(96,176,207);stroke-width:1" /><line x1="744.067"
y1="-894.924" x2="740.868" y2="-897.854"
style="stroke:rgb(96,176,207);stroke-width:1" /><line x1="740.868"
y1="-897.854" x2="741.934" y2="-899.186"
style="stroke:rgb(96,176,207);stroke-width:1" /><line x1="741.934"
y1="-899.186" x2="745.667" y2="-937.280"
style="stroke:rgb(96,176,207);stroke-width:1" /><line x1="745.667"
y1="-937.280" x2="746.467" y2="-939.943"
style="stroke:rgb(96,176,207);stroke-width:1" /><line x1="746.467"
y1="-939.943" x2="748.067" y2="-967.115"
style="stroke:rgb(96,176,207);stroke-width:1" /><line x1="769.215"
y1="-969.942" x2="768.436" y2="-969.682"
style="stroke:rgb(96,176,207);stroke-width:1" /><line x1="768.436"
y1="-969.682" x2="767.917" y2="-968.256"
style="stroke:rgb(96,176,207);stroke-width:1" /><line x1="767.917"
y1="-968.256" x2="767.009" y2="-968.126"
style="stroke:rgb(96,176,207);stroke-width:1" /><line x1="767.009"
y1="-968.126" x2="766.749" y2="-967.089"
style="stroke:rgb(96,176,207);stroke-width:1" /><line x1="766.749"
y1="-967.089" x2="765.062" y2="-966.570"
style="stroke:rgb(96,176,207);stroke-width:1" /><line x1="764.662"
y1="-966.454" x2="763.978" y2="-963.492"
style="stroke:rgb(96,176,207);stroke-width:1" /><line x1="763.978"
y1="-963.492" x2="761.469" y2="-964.404"
style="stroke:rgb(96,176,207);stroke-width:1" /><line x1="724.073"
y1="-965.087" x2="727.493" y2="-967.366"
style="stroke:rgb(96,176,207);stroke-width:1" /><line x1="727.493"
y1="-967.366" x2="732.054" y2="-971.239"
style="stroke:rgb(96,176,207);stroke-width:1" /><line x1="723.161"
y1="-964.404" x2="725.669" y2="-964.176"
style="stroke:rgb(96,176,207);stroke-width:1" /><line x1="725.669"
y1="-964.176" x2="729.774" y2="-966.226"
style="stroke:rgb(96,176,207);stroke-width:1" /><line x1="729.774"
y1="-966.226" x2="732.966" y2="-966.910"
style="stroke:rgb(96,176,207);stroke-width:1" /><line x1="750.464"
y1="-1060.579" x2="749.996" y2="-1061.047"
style="stroke:rgb(96,176,207);stroke-width:1" /><line x1="749.996"
y1="-1061.047" x2="749.154" y2="-1060.766"
style="stroke:rgb(96,176,207);stroke-width:1" /><line x1="755.890"
y1="-1061.140" x2="755.328" y2="-1061.327"
style="stroke:rgb(96,176,207);stroke-width:1" /><line x1="755.328"
y1="-1061.327" x2="754.767" y2="-1060.673"
style="stroke:rgb(96,176,207);stroke-width:1" /><line x1="757.761"
y1="-1062.262" x2="755.609" y2="-1062.729"
style="stroke:rgb(96,176,207);stroke-width:1" /><line x1="755.609"
y1="-1062.729" x2="753.457" y2="-1061.888"
style="stroke:rgb(96,176,207);stroke-width:1" /><line x1="757.106"
y1="-1061.421" x2="754.954" y2="-1061.514"
style="stroke:rgb(96,176,207);stroke-width:1" /><line x1="754.954"
y1="-1061.514" x2="753.457" y2="-1060.953"
style="stroke:rgb(96,176,207);stroke-width:1" /><line x1="753.457"
y1="-1060.953" x2="753.832" y2="-1060.392"
style="stroke:rgb(96,176,207);stroke-width:1" /><line x1="753.832"
y1="-1060.392" x2="754.861" y2="-1060.486"
style="stroke:rgb(96,176,207);stroke-width:1" /><line x1="754.861"
y1="-1060.486" x2="756.638" y2="-1060.953"
style="stroke:rgb(96,176,207);stroke-width:1" /><line x1="751.399"
y1="-1061.795" x2="750.183" y2="-1062.729"
style="stroke:rgb(96,176,207);stroke-width:1" /><line x1="750.183"
y1="-1062.729" x2="747.283" y2="-1062.449"
style="stroke:rgb(96,176,207);stroke-width:1" /><line x1="747.283"
y1="-1062.449" x2="746.815" y2="-1061.701"
style="stroke:rgb(96,176,207);stroke-width:1" /><line x1="747.657"
y1="-1061.514" x2="748.873" y2="-1061.608"
style="stroke:rgb(96,176,207);stroke-width:1" /><line x1="748.873"
y1="-1061.608" x2="750.464" y2="-1061.421"
style="stroke:rgb(96,176,207);stroke-width:1" /><line x1="750.464"
y1="-1061.421" x2="751.212" y2="-1060.953"
style="stroke:rgb(96,176,207);stroke-width:1" /><line x1="751.212"
y1="-1060.953" x2="750.744" y2="-1060.392"
style="stroke:rgb(96,176,207);stroke-width:1" /><line x1="750.744"
y1="-1060.392" x2="749.528" y2="-1060.299"
style="stroke:rgb(96,176,207);stroke-width:1" /><line x1="749.528"
y1="-1060.299" x2="747.657" y2="-1060.953"
style="stroke:rgb(96,176,207);stroke-width:1" /><line x1="755.048"
y1="-1053.663" x2="753.457" y2="-1054.130"
style="stroke:rgb(96,176,207);stroke-width:1" /><line x1="753.457"
y1="-1054.130" x2="752.615" y2="-1054.037"
style="stroke:rgb(96,176,207);stroke-width:1" /><line x1="752.615"
y1="-1054.037" x2="750.651" y2="-1053.756"
style="stroke:rgb(96,176,207);stroke-width:1" /><line x1="754.393"
y1="-1056.280" x2="754.112" y2="-1055.813"
style="stroke:rgb(96,176,207);stroke-width:1" /><line x1="754.112"
y1="-1055.813" x2="752.054" y2="-1055.906"
style="stroke:rgb(96,176,207);stroke-width:1" /><line x1="752.054"
y1="-1055.906" x2="751.025" y2="-1056.373"
style="stroke:rgb(96,176,207);stroke-width:1" /><line x1="741.670"
y1="-1062.168" x2="741.202" y2="-1062.823"
style="stroke:rgb(96,176,207);stroke-width:1" /><line x1="741.202"
y1="-1062.823" x2="740.360" y2="-1063.103"
style="stroke:rgb(96,176,207);stroke-width:1" /><line x1="740.360"
y1="-1063.103" x2="739.706" y2="-1062.449"
style="stroke:rgb(96,176,207);stroke-width:1" /><line x1="739.706"
y1="-1062.449" x2="739.331" y2="-1061.514"
style="stroke:rgb(96,176,207);stroke-width:1" /><line x1="739.331"
y1="-1061.514" x2="739.612" y2="-1059.738"
style="stroke:rgb(96,176,207);stroke-width:1" /><line x1="739.612"
y1="-1059.738" x2="740.173" y2="-1058.430"
style="stroke:rgb(96,176,207);stroke-width:1" /><line x1="740.173"
y1="-1058.430" x2="741.202" y2="-1057.308"
style="stroke:rgb(96,176,207);stroke-width:1" /><line x1="741.202"
y1="-1057.308" x2="741.857" y2="-1056.467"
style="stroke:rgb(96,176,207);stroke-width:1" /><line x1="741.857"
y1="-1056.467" x2="742.419" y2="-1056.186"
style="stroke:rgb(96,176,207);stroke-width:1" /><line x1="742.419"
y1="-1056.186" x2="742.606" y2="-1056.747"
style="stroke:rgb(96,176,207);stroke-width:1" /><line x1="753.738"
y1="-1053.008" x2="752.054" y2="-1052.915"
style="stroke:rgb(96,176,207);stroke-width:1" /><line x1="755.328"
y1="-1048.802" x2="755.422" y2="-1048.522"
style="stroke:rgb(96,176,207);stroke-width:1" /><line x1="755.422"
y1="-1048.522" x2="753.270" y2="-1048.242"
style="stroke:rgb(96,176,207);stroke-width:1" /><line x1="742.419"
y1="-1049.363" x2="742.044" y2="-1048.802"
style="stroke:rgb(96,176,207);stroke-width:1" /><line x1="742.044"
y1="-1048.802" x2="745.131" y2="-1048.335"
style="stroke:rgb(96,176,207);stroke-width:1" /><line x1="745.131"
y1="-1048.335" x2="748.686" y2="-1048.335"
style="stroke:rgb(96,176,207);stroke-width:1" /><line x1="753.364"
y1="-1046.653" x2="751.961" y2="-1043.568"
style="stroke:rgb(96,176,207);stroke-width:1" /><line x1="751.961"
y1="-1043.568" x2="751.306" y2="-1043.007"
style="stroke:rgb(96,176,207);stroke-width:1" /><line x1="751.306"
y1="-1043.007" x2="749.622" y2="-1043.662"
style="stroke:rgb(96,176,207);stroke-width:1" /><line x1="749.622"
y1="-1043.662" x2="748.499" y2="-1046.372"
style="stroke:rgb(96,176,207);stroke-width:1" /><line x1="754.674"
y1="-1049.176" x2="755.515" y2="-1049.176"
style="stroke:rgb(96,176,207);stroke-width:1" /><line x1="755.515"
y1="-1049.176" x2="756.170" y2="-1048.709"
style="stroke:rgb(96,176,207);stroke-width:1" /><line x1="756.170"
y1="-1048.709" x2="757.574" y2="-1042.820"
style="stroke:rgb(96,176,207);stroke-width:1" /><line x1="757.574"
y1="-1042.820" x2="753.925" y2="-1046.653"
style="stroke:rgb(96,176,207);stroke-width:1" /><line x1="753.925"
y1="-1046.653" x2="752.335" y2="-1048.148"
style="stroke:rgb(96,176,207);stroke-width:1" /><line x1="752.335"
y1="-1048.148" x2="749.154" y2="-1048.055"
style="stroke:rgb(96,176,207);stroke-width:1" /><line x1="749.154"
y1="-1048.055" x2="745.225" y2="-1042.166"
style="stroke:rgb(96,176,207);stroke-width:1" /><line x1="745.225"
y1="-1042.166" x2="742.044" y2="-1044.222"
style="stroke:rgb(96,176,207);stroke-width:1" /><line x1="742.044"
y1="-1044.222" x2="740.173" y2="-1045.437"
style="stroke:rgb(96,176,207);stroke-width:1" /><line x1="740.173"
y1="-1045.437" x2="740.735" y2="-1047.307"
style="stroke:rgb(96,176,207);stroke-width:1" /><line x1="740.735"
y1="-1047.307" x2="741.015" y2="-1049.457"
style="stroke:rgb(96,176,207);stroke-width:1" /><line x1="741.015"
y1="-1049.457" x2="741.951" y2="-1049.363"
style="stroke:rgb(96,176,207);stroke-width:1" /><line x1="740.828"
y1="-1057.495" x2="741.764" y2="-1055.158"
style="stroke:rgb(96,176,207);stroke-width:1" /><line x1="741.764"
y1="-1055.158" x2="742.138" y2="-1051.419"
style="stroke:rgb(96,176,207);stroke-width:1" /><line x1="742.138"
y1="-1051.419" x2="742.325" y2="-1049.363"
style="stroke:rgb(96,176,207);stroke-width:1" /><line x1="757.480"
y1="-1069.366" x2="756.919" y2="-1070.020"
style="stroke:rgb(96,176,207);stroke-width:1" /><line x1="756.919"
y1="-1070.020" x2="752.990" y2="-1070.207"
style="stroke:rgb(96,176,207);stroke-width:1" /><line x1="752.990"
y1="-1070.207" x2="748.593" y2="-1070.113"
style="stroke:rgb(96,176,207);stroke-width:1" /><line x1="748.593"
y1="-1070.113" x2="746.535" y2="-1069.739"
style="stroke:rgb(96,176,207);stroke-width:1" /><line x1="746.535"
y1="-1069.739" x2="744.477" y2="-1068.898"
style="stroke:rgb(96,176,207);stroke-width:1" /><line x1="744.477"
y1="-1068.898" x2="743.448" y2="-1066.842"
style="stroke:rgb(96,176,207);stroke-width:1" /><line x1="743.448"
y1="-1066.842" x2="743.073" y2="-1064.879"
style="stroke:rgb(96,176,207);stroke-width:1" /><line x1="743.073"
y1="-1064.879" x2="742.044" y2="-1063.944"
style="stroke:rgb(96,176,207);stroke-width:1" /><line x1="742.044"
y1="-1063.944" x2="742.044" y2="-1063.103"
style="stroke:rgb(96,176,207);stroke-width:1" /><line x1="742.044"
y1="-1063.103" x2="741.670" y2="-1062.916"
style="stroke:rgb(96,176,207);stroke-width:1" /><line x1="753.738"
y1="-1048.615" x2="754.393" y2="-1049.644"
style="stroke:rgb(96,176,207);stroke-width:1" /><line x1="754.393"
y1="-1049.644" x2="755.328" y2="-1049.830"
style="stroke:rgb(96,176,207);stroke-width:1" /><line x1="755.328"
y1="-1049.830" x2="756.357" y2="-1051.046"
style="stroke:rgb(96,176,207);stroke-width:1" /><line x1="756.357"
y1="-1051.046" x2="757.574" y2="-1053.476"
style="stroke:rgb(96,176,207);stroke-width:1" /><line x1="757.574"
y1="-1053.476" x2="758.603" y2="-1057.869"
style="stroke:rgb(96,176,207);stroke-width:1" /><line x1="758.603"
y1="-1057.869" x2="757.854" y2="-1060.766"
style="stroke:rgb(96,176,207);stroke-width:1" /><line x1="757.854"
y1="-1060.766" x2="758.415" y2="-1061.981"
style="stroke:rgb(96,176,207);stroke-width:1" /><line x1="758.415"
y1="-1061.981" x2="758.415" y2="-1064.786"
style="stroke:rgb(96,176,207);stroke-width:1" /><line x1="758.415"
y1="-1064.786" x2="757.667" y2="-1069.085"
style="stroke:rgb(96,176,207);stroke-width:1" /><line x1="757.667"
y1="-1069.085" x2="757.854" y2="-1071.235"
style="stroke:rgb(96,176,207);stroke-width:1" /><line x1="757.854"
y1="-1071.235" x2="756.544" y2="-1072.543"
style="stroke:rgb(96,176,207);stroke-width:1" /><line x1="756.544"
y1="-1072.543" x2="751.586" y2="-1073.385"
style="stroke:rgb(96,176,207);stroke-width:1" /><line x1="751.586"
y1="-1073.385" x2="744.383" y2="-1073.011"
style="stroke:rgb(96,176,207);stroke-width:1" /><line x1="744.383"
y1="-1073.011" x2="741.577" y2="-1072.263"
style="stroke:rgb(96,176,207);stroke-width:1" /><line x1="741.577"
y1="-1072.263" x2="740.080" y2="-1069.646"
style="stroke:rgb(96,176,207);stroke-width:1" /><line x1="740.080"
y1="-1069.646" x2="739.331" y2="-1066.842"
style="stroke:rgb(96,176,207);stroke-width:1" /><line x1="739.331"
y1="-1066.842" x2="739.706" y2="-1064.505"
style="stroke:rgb(96,176,207);stroke-width:1" /><line x1="739.706"
y1="-1064.505" x2="740.360" y2="-1063.197"
style="stroke:rgb(96,176,207);stroke-width:1" /><line x1="742.315"
y1="-1013.843" x2="738.667" y2="-1014.299"
style="stroke:rgb(96,176,207);stroke-width:1" /><line x1="738.667"
y1="-1014.299" x2="733.878" y2="-1016.577"
style="stroke:rgb(96,176,207);stroke-width:1" /><line x1="733.878"
y1="-1016.577" x2="731.142" y2="-1016.577"
style="stroke:rgb(96,176,207);stroke-width:1" /><line x1="731.142"
y1="-1016.577" x2="732.738" y2="-1017.033"
style="stroke:rgb(96,176,207);stroke-width:1" /><line x1="732.738"
y1="-1017.033" x2="730.914" y2="-1025.007"
style="stroke:rgb(96,176,207);stroke-width:1" /><line x1="730.914"
y1="-1025.007" x2="733.422" y2="-1023.412"
style="stroke:rgb(96,176,207);stroke-width:1" /><line x1="757.365"
y1="-995.161" x2="753.716" y2="-994.250"
style="stroke:rgb(96,176,207);stroke-width:1" /><line x1="753.716"
y1="-994.250" x2="749.156" y2="-994.933"
style="stroke:rgb(96,176,207);stroke-width:1" /><line x1="741.827"
y1="-1012.609" x2="742.736" y2="-1012.739"
style="stroke:rgb(96,176,207);stroke-width:1" /><line x1="742.736"
y1="-1012.739" x2="743.645" y2="-1014.944"
style="stroke:rgb(96,176,207);stroke-width:1" /><line x1="743.645"
y1="-1014.944" x2="744.943" y2="-1016.370"
style="stroke:rgb(96,176,207);stroke-width:1" /><line x1="744.943"
y1="-1016.370" x2="746.111" y2="-1016.370"
style="stroke:rgb(96,176,207);stroke-width:1" /><line x1="746.111"
y1="-1016.370" x2="747.928" y2="-1016.759"
style="stroke:rgb(96,176,207);stroke-width:1" /><line x1="747.928"
y1="-1016.759" x2="748.447" y2="-1015.852"
style="stroke:rgb(96,176,207);stroke-width:1" /><line x1="748.447"
y1="-1015.852" x2="748.058" y2="-1014.814"
style="stroke:rgb(96,176,207);stroke-width:1" /><line x1="748.058"
y1="-1014.814" x2="746.630" y2="-1014.166"
style="stroke:rgb(96,176,207);stroke-width:1" /><line x1="746.630"
y1="-1014.166" x2="745.721" y2="-1012.998"
style="stroke:rgb(96,176,207);stroke-width:1" /><line x1="745.721"
y1="-1012.998" x2="747.279" y2="-1011.312"
style="stroke:rgb(96,176,207);stroke-width:1" /><line x1="747.279"
y1="-1011.312" x2="750.524" y2="-1009.367"
style="stroke:rgb(96,176,207);stroke-width:1" /><line x1="750.524"
y1="-1009.367" x2="750.784" y2="-1007.941"
style="stroke:rgb(96,176,207);stroke-width:1" /><line x1="750.784"
y1="-1007.941" x2="749.486" y2="-1007.681"
style="stroke:rgb(96,176,207);stroke-width:1" /><line x1="749.486"
y1="-1007.681" x2="751.433" y2="-1005.736"
style="stroke:rgb(96,176,207);stroke-width:1" /><line x1="751.433"
y1="-1005.736" x2="751.303" y2="-1004.958"
style="stroke:rgb(96,176,207);stroke-width:1" /><line x1="751.303"
y1="-1004.958" x2="750.654" y2="-1004.439"
style="stroke:rgb(96,176,207);stroke-width:1" /><line x1="750.654"
y1="-1004.439" x2="751.303" y2="-1003.401"
style="stroke:rgb(96,176,207);stroke-width:1" /><line x1="751.303"
y1="-1003.401" x2="750.524" y2="-1002.623"
style="stroke:rgb(96,176,207);stroke-width:1" /><line x1="750.524"
y1="-1002.623" x2="750.784" y2="-1001.197"
style="stroke:rgb(96,176,207);stroke-width:1" /><line x1="750.784"
y1="-1001.197" x2="750.135" y2="-1000.289"
style="stroke:rgb(96,176,207);stroke-width:1" /><line x1="750.135"
y1="-1000.289" x2="748.447" y2="-1000.808"
style="stroke:rgb(96,176,207);stroke-width:1" /><line x1="748.447"
y1="-1000.808" x2="745.592" y2="-1003.142"
style="stroke:rgb(96,176,207);stroke-width:1" /><line x1="745.592"
y1="-1003.142" x2="743.904" y2="-1005.736"
style="stroke:rgb(96,176,207);stroke-width:1" /><line x1="743.904"
y1="-1005.736" x2="741.827" y2="-1007.162"
style="stroke:rgb(96,176,207);stroke-width:1" /><line x1="741.827"
y1="-1007.162" x2="739.751" y2="-1006.644"
style="stroke:rgb(96,176,207);stroke-width:1" /><line x1="741.175"
y1="-1005.186" x2="739.123" y2="-1006.325"
style="stroke:rgb(96,176,207);stroke-width:1" /><line x1="739.123"
y1="-1006.325" x2="738.211" y2="-1009.514"
style="stroke:rgb(96,176,207);stroke-width:1" /><line x1="738.211"
y1="-1009.514" x2="738.895" y2="-1012.476"
style="stroke:rgb(96,176,207);stroke-width:1" /><line x1="738.895"
y1="-1012.476" x2="740.947" y2="-1013.615"
style="stroke:rgb(96,176,207);stroke-width:1" /><line x1="740.947"
y1="-1013.615" x2="742.315" y2="-1013.843"
style="stroke:rgb(96,176,207);stroke-width:1" /><line x1="749.959"
y1="-1042.710" x2="750.730" y2="-1033.845"
style="stroke:rgb(96,176,207);stroke-width:1" /><line x1="750.730"
y1="-1033.845" x2="750.151" y2="-1022.088"
style="stroke:rgb(96,176,207);stroke-width:1" /><line x1="750.151"
y1="-1022.088" x2="749.959" y2="-1016.885"
style="stroke:rgb(96,176,207);stroke-width:1" /><line x1="749.959"
y1="-1016.885" x2="748.801" y2="-1011.489"
style="stroke:rgb(96,176,207);stroke-width:1" /><line x1="736.614"
y1="-1043.917" x2="737.299" y2="-1040.044"
style="stroke:rgb(96,176,207);stroke-width:1" /><line x1="737.299"
y1="-1040.044" x2="740.263" y2="-1038.449"
style="stroke:rgb(96,176,207);stroke-width:1" /><line x1="740.263"
y1="-1038.449" x2="737.527" y2="-1037.310"
style="stroke:rgb(96,176,207);stroke-width:1" /><line x1="737.527"
y1="-1037.310" x2="740.263" y2="-1033.892"
style="stroke:rgb(96,176,207);stroke-width:1" /><line x1="740.263"
y1="-1033.892" x2="742.087" y2="-1026.602"
style="stroke:rgb(96,176,207);stroke-width:1" /><line x1="742.087"
y1="-1026.602" x2="743.683" y2="-1016.805"
style="stroke:rgb(96,176,207);stroke-width:1" /><line x1="740.491"
y1="-1045.739" x2="744.367" y2="-1037.765"
style="stroke:rgb(96,176,207);stroke-width:1" /><line x1="744.367"
y1="-1037.765" x2="747.332" y2="-1030.930"
style="stroke:rgb(96,176,207);stroke-width:1" /><line x1="747.332"
y1="-1030.930" x2="748.016" y2="-1022.045"
style="stroke:rgb(96,176,207);stroke-width:1" /><line x1="748.016"
y1="-1022.045" x2="748.244" y2="-1017.261"
style="stroke:rgb(96,176,207);stroke-width:1" /><line x1="757.593"
y1="-1045.967" x2="759.873" y2="-1043.233"
style="stroke:rgb(96,176,207);stroke-width:1" /><line x1="759.873"
y1="-1043.233" x2="760.557" y2="-1036.626"
style="stroke:rgb(96,176,207);stroke-width:1" /><line x1="760.557"
y1="-1036.626" x2="760.101" y2="-1025.462"
style="stroke:rgb(96,176,207);stroke-width:1" /><line x1="760.101"
y1="-1025.462" x2="757.821" y2="-1009.514"
style="stroke:rgb(96,176,207);stroke-width:1" /><line x1="752.804"
y1="-1043.461" x2="755.541" y2="-1034.576"
style="stroke:rgb(96,176,207);stroke-width:1" /><line x1="755.541"
y1="-1034.576" x2="756.681" y2="-1019.767"
style="stroke:rgb(96,176,207);stroke-width:1" /><line x1="756.681"
y1="-1019.767" x2="757.365" y2="-1006.780"
style="stroke:rgb(96,176,207);stroke-width:1" /><line x1="757.365"
y1="-1006.780" x2="758.277" y2="-1001.540"
style="stroke:rgb(96,176,207);stroke-width:1" /><line x1="758.277"
y1="-1001.540" x2="753.260" y2="-996.300"
style="stroke:rgb(96,176,207);stroke-width:1" /><line x1="753.260"
y1="-996.300" x2="749.612" y2="-1000.173"
style="stroke:rgb(96,176,207);stroke-width:1" /><line x1="762.609"
y1="-1043.689" x2="765.574" y2="-1040.272"
style="stroke:rgb(96,176,207);stroke-width:1" /><line x1="765.574"
y1="-1040.272" x2="763.065" y2="-1038.449"
style="stroke:rgb(96,176,207);stroke-width:1" /><line x1="763.065"
y1="-1038.449" x2="766.258" y2="-1036.171"
style="stroke:rgb(96,176,207);stroke-width:1" /><line x1="766.258"
y1="-1036.171" x2="763.750" y2="-1029.108"
style="stroke:rgb(96,176,207);stroke-width:1" /><line x1="763.750"
y1="-1029.108" x2="760.329" y2="-1016.577"
style="stroke:rgb(96,176,207);stroke-width:1" /><line x1="760.329"
y1="-1016.577" x2="758.277" y2="-1006.780"
style="stroke:rgb(96,176,207);stroke-width:1" /><line x1="758.277"
y1="-1006.780" x2="757.821" y2="-1004.502"
style="stroke:rgb(96,176,207);stroke-width:1" /><line x1="756.681"
y1="-1047.106" x2="761.697" y2="-1044.145"
style="stroke:rgb(96,176,207);stroke-width:1" /><line x1="761.697"
y1="-1044.145" x2="766.486" y2="-1042.094"
style="stroke:rgb(96,176,207);stroke-width:1" /><line x1="766.486"
y1="-1042.094" x2="768.994" y2="-1040.272"
style="stroke:rgb(96,176,207);stroke-width:1" /><line x1="768.994"
y1="-1040.272" x2="771.046" y2="-1037.310"
style="stroke:rgb(96,176,207);stroke-width:1" /><line x1="771.046"
y1="-1037.310" x2="772.871" y2="-1031.614"
style="stroke:rgb(96,176,207);stroke-width:1" /><line x1="772.871"
y1="-1031.614" x2="771.730" y2="-1020.678"
style="stroke:rgb(96,176,207);stroke-width:1" /><line x1="771.730"
y1="-1020.678" x2="772.415" y2="-1012.704"
style="stroke:rgb(96,176,207);stroke-width:1" /><line x1="772.415"
y1="-1012.704" x2="772.186" y2="-1010.198"
style="stroke:rgb(96,176,207);stroke-width:1" /><line x1="772.186"
y1="-1010.198" x2="768.310" y2="-988.098"
style="stroke:rgb(96,176,207);stroke-width:1" /><line x1="768.310"
y1="-988.098" x2="767.398" y2="-987.643"
style="stroke:rgb(96,176,207);stroke-width:1" /><line x1="767.398"
y1="-987.643" x2="766.942" y2="-983.769"
style="stroke:rgb(96,176,207);stroke-width:1" /><line x1="766.942"
y1="-983.769" x2="766.258" y2="-983.769"
style="stroke:rgb(96,176,207);stroke-width:1" /><line x1="766.258"
y1="-983.769" x2="765.574" y2="-983.769"
style="stroke:rgb(96,176,207);stroke-width:1" /><line x1="740.035"
y1="-1046.879" x2="735.930" y2="-1044.600"
style="stroke:rgb(96,176,207);stroke-width:1" /><line x1="735.930"
y1="-1044.600" x2="730.002" y2="-1042.550"
style="stroke:rgb(96,176,207);stroke-width:1" /><line x1="730.002"
y1="-1042.550" x2="725.213" y2="-1040.955"
style="stroke:rgb(96,176,207);stroke-width:1" /><line x1="725.213"
y1="-1040.955" x2="722.249" y2="-1036.398"
style="stroke:rgb(96,176,207);stroke-width:1" /><line x1="722.249"
y1="-1036.398" x2="720.881" y2="-1025.918"
style="stroke:rgb(96,176,207);stroke-width:1" /><line x1="720.881"
y1="-1025.918" x2="721.337" y2="-1013.843"
style="stroke:rgb(96,176,207);stroke-width:1" /><line x1="721.337"
y1="-1013.843" x2="724.301" y2="-1009.059"
style="stroke:rgb(96,176,207);stroke-width:1" /><line x1="724.301"
y1="-1009.059" x2="728.177" y2="-1005.641"
style="stroke:rgb(96,176,207);stroke-width:1" /><line x1="728.177"
y1="-1005.641" x2="731.142" y2="-1003.363"
style="stroke:rgb(96,176,207);stroke-width:1" /><line x1="731.142"
y1="-1003.363" x2="737.070" y2="-1003.363"
style="stroke:rgb(96,176,207);stroke-width:1" /><line x1="737.070"
y1="-1003.363" x2="740.491" y2="-1003.591"
style="stroke:rgb(96,176,207);stroke-width:1" /><line x1="740.491"
y1="-1003.591" x2="742.999" y2="-1004.958"
style="stroke:rgb(96,176,207);stroke-width:1" /><line x1="766.100"
y1="-983.429" x2="767.528" y2="-980.187"
style="stroke:rgb(96,176,207);stroke-width:1" /><line x1="767.528"
y1="-980.187" x2="768.307" y2="-976.686"
style="stroke:rgb(96,176,207);stroke-width:1" /><line x1="765.118"
y1="-975.112" x2="766.030" y2="-983.997"
style="stroke:rgb(96,176,207);stroke-width:1" /><line x1="766.030"
y1="-983.997" x2="766.030" y2="-991.060"
style="stroke:rgb(96,176,207);stroke-width:1" /><line x1="766.030"
y1="-991.060" x2="766.714" y2="-997.895"
style="stroke:rgb(96,176,207);stroke-width:1" /><line x1="766.714"
y1="-997.895" x2="766.714" y2="-1003.591"
style="stroke:rgb(96,176,207);stroke-width:1" /><line x1="766.714"
y1="-1003.591" x2="766.714" y2="-1009.742"
style="stroke:rgb(96,176,207);stroke-width:1" /><line x1="766.714"
y1="-1009.742" x2="766.258" y2="-1020.222"
style="stroke:rgb(96,176,207);stroke-width:1" /><line x1="766.258"
y1="-1020.222" x2="768.538" y2="-1027.057"
style="stroke:rgb(96,176,207);stroke-width:1" /><line x1="756.681"
y1="-999.718" x2="757.821" y2="-994.933"
style="stroke:rgb(96,176,207);stroke-width:1" /><line x1="757.821"
y1="-994.933" x2="758.733" y2="-991.516"
style="stroke:rgb(96,176,207);stroke-width:1" /><line x1="758.733"
y1="-991.516" x2="758.733" y2="-985.136"
style="stroke:rgb(96,176,207);stroke-width:1" /><line x1="758.733"
y1="-985.136" x2="761.013" y2="-980.808"
style="stroke:rgb(96,176,207);stroke-width:1" /><line x1="761.013"
y1="-980.808" x2="763.521" y2="-978.074"
style="stroke:rgb(96,176,207);stroke-width:1" /><line x1="763.521"
y1="-978.074" x2="765.346" y2="-974.656"
style="stroke:rgb(96,176,207);stroke-width:1" /><line x1="765.346"
y1="-974.656" x2="765.802" y2="-971.694"
style="stroke:rgb(96,176,207);stroke-width:1" /><line x1="738.895"
y1="-974.200" x2="744.367" y2="-980.580"
style="stroke:rgb(96,176,207);stroke-width:1" /><line x1="744.367"
y1="-980.580" x2="748.700" y2="-987.187"
style="stroke:rgb(96,176,207);stroke-width:1" /><line x1="748.700"
y1="-987.187" x2="748.928" y2="-993.338"
style="stroke:rgb(96,176,207);stroke-width:1" /><line x1="748.928"
y1="-993.338" x2="748.472" y2="-999.945"
style="stroke:rgb(96,176,207);stroke-width:1" /><line x1="727.949"
y1="-1005.186" x2="728.177" y2="-1002.224"
style="stroke:rgb(96,176,207);stroke-width:1" /><line x1="728.177"
y1="-1002.224" x2="728.634" y2="-994.250"
style="stroke:rgb(96,176,207);stroke-width:1" /></g></svg>
