  0
SECTION
  2
HEADER
  9
$ACADVER
  1
AC1015
  9
$ACADMAINTVER
 70
    20
  9
$DWGCODEPAGE
  3
ANSI_936
  9
$INSBASE
 10
0.0
 20
0.0
 30
0.0
  9
$EXTMIN
 10
-0.1071142801288261
 20
-0.032362008016662
 30
-0.0000000000003045
  9
$EXTMAX
 10
1800.020900212666
 20
1200.06770861138
 30
0.0000000000000471
  9
$LIMMIN
 10
0.0
 20
0.0
  9
$LIMMAX
 10
420.0
 20
297.0
  9
$ORTHOMODE
 70
     1
  9
$REGENMODE
 70
     1
  9
$FILLMODE
 70
     1
  9
$QTEXTMODE
 70
     0
  9
$MIRRTEXT
 70
     0
  9
$LTSCALE
 40
1.0
  9
$ATTMODE
 70
     1
  9
$TEXTSIZE
 40
2.5
  9
$TRACEWID
 40
1.0
  9
$TEXTSTYLE
  7
Standard
  9
$CLAYER
  8
0
  9
$CELTYPE
  6
ByLayer
  9
$CECOLOR
 62
   256
  9
$CELTSCALE
 40
1.0
  9
$DISPSILH
 70
     0
  9
$DIMSCALE
 40
1.0
  9
$DIMASZ
 40
2.5
  9
$DIMEXO
 40
0.625
  9
$DIMDLI
 40
3.75
  9
$DIMRND
 40
0.0
  9
$DIMDLE
 40
0.0
  9
$DIMEXE
 40
1.25
  9
$DIMTP
 40
0.0
  9
$DIMTM
 40
0.0
  9
$DIMTXT
 40
2.5
  9
$DIMCEN
 40
2.5
  9
$DIMTSZ
 40
0.0
  9
$DIMTOL
 70
     0
  9
$DIMLIM
 70
     0
  9
$DIMTIH
 70
     0
  9
$DIMTOH
 70
     0
  9
$DIMSE1
 70
     0
  9
$DIMSE2
 70
     0
  9
$DIMTAD
 70
     1
  9
$DIMZIN
 70
     8
  9
$DIMBLK
  1

  9
$DIMASO
 70
     1
  9
$DIMSHO
 70
     1
  9
$DIMPOST
  1

  9
$DIMAPOST
  1

  9
$DIMALT
 70
     0
  9
$DIMALTD
 70
     3
  9
$DIMALTF
 40
0.03937007874016
  9
$DIMLFAC
 40
1.0
  9
$DIMTOFL
 70
     1
  9
$DIMTVP
 40
0.0
  9
$DIMTIX
 70
     0
  9
$DIMSOXD
 70
     0
  9
$DIMSAH
 70
     0
  9
$DIMBLK1
  1

  9
$DIMBLK2
  1

  9
$DIMSTYLE
  2
ISO-25
  9
$DIMCLRD
 70
     0
  9
$DIMCLRE
 70
     0
  9
$DIMCLRT
 70
     0
  9
$DIMTFAC
 40
1.0
  9
$DIMGAP
 40
0.625
  9
$DIMJUST
 70
     0
  9
$DIMSD1
 70
     0
  9
$DIMSD2
 70
     0
  9
$DIMTOLJ
 70
     0
  9
$DIMTZIN
 70
     8
  9
$DIMALTZ
 70
     0
  9
$DIMALTTZ
 70
     0
  9
$DIMUPT
 70
     0
  9
$DIMDEC
 70
     2
  9
$DIMTDEC
 70
     2
  9
$DIMALTU
 70
     2
  9
$DIMALTTD
 70
     3
  9
$DIMTXSTY
  7
Standard
  9
$DIMAUNIT
 70
     0
  9
$DIMADEC
 70
     0
  9
$DIMALTRND
 40
0.0
  9
$DIMAZIN
 70
     0
  9
$DIMDSEP
 70
    44
  9
$DIMATFIT
 70
     3
  9
$DIMFRAC
 70
     0
  9
$DIMLDRBLK
  1

  9
$DIMLUNIT
 70
     2
  9
$DIMLWD
 70
    -2
  9
$DIMLWE
 70
    -2
  9
$DIMTMOVE
 70
     0
  9
$LUNITS
 70
     2
  9
$LUPREC
 70
     4
  9
$SKETCHINC
 40
1.0
  9
$FILLETRAD
 40
0.0
  9
$AUNITS
 70
     0
  9
$AUPREC
 70
     0
  9
$MENU
  1
.
  9
$ELEVATION
 40
0.0
  9
$PELEVATION
 40
0.0
  9
$THICKNESS
 40
0.0
  9
$LIMCHECK
 70
     0
  9
$CHAMFERA
 40
0.0
  9
$CHAMFERB
 40
0.0
  9
$CHAMFERC
 40
0.0
  9
$CHAMFERD
 40
0.0
  9
$SKPOLY
 70
     0
  9
$TDCREATE
 40
2456202.934251655
  9
$TDUCREATE
 40
2456202.600918322
  9
$TDUPDATE
 40
2456209.961942627
  9
$TDUUPDATE
 40
2456209.628609294
  9
$TDINDWG
 40
0.0513141898
  9
$TDUSRTIMER
 40
0.0513084028
  9
$USRTIMER
 70
     1
  9
$ANGBASE
 50
0.0
  9
$ANGDIR
 70
     0
  9
$PDMODE
 70
     0
  9
$PDSIZE
 40
0.0
  9
$PLINEWID
 40
0.0
  9
$SPLFRAME
 70
     0
  9
$SPLINETYPE
 70
     6
  9
$SPLINESEGS
 70
     8
  9
$HANDSEED
  5
B83
  9
$SURFTAB1
 70
     6
  9
$SURFTAB2
 70
     6
  9
$SURFTYPE
 70
     6
  9
$SURFU
 70
     6
  9
$SURFV
 70
     6
  9
$UCSBASE
  2

  9
$UCSNAME
  2

  9
$UCSORG
 10
0.0
 20
0.0
 30
0.0
  9
$UCSXDIR
 10
1.0
 20
0.0
 30
0.0
  9
$UCSYDIR
 10
0.0
 20
1.0
 30
-0.0000000000000002
  9
$UCSORTHOREF
  2

  9
$UCSORTHOVIEW
 70
     0
  9
$UCSORGTOP
 10
0.0
 20
0.0
 30
0.0
  9
$UCSORGBOTTOM
 10
0.0
 20
0.0
 30
0.0
  9
$UCSORGLEFT
 10
0.0
 20
0.0
 30
0.0
  9
$UCSORGRIGHT
 10
0.0
 20
0.0
 30
0.0
  9
$UCSORGFRONT
 10
0.0
 20
0.0
 30
0.0
  9
$UCSORGBACK
 10
0.0
 20
0.0
 30
0.0
  9
$PUCSBASE
  2

  9
$PUCSNAME
  2

  9
$PUCSORG
 10
0.0
 20
0.0
 30
0.0
  9
$PUCSXDIR
 10
1.0
 20
0.0
 30
0.0
  9
$PUCSYDIR
 10
0.0
 20
1.0
 30
0.0
  9
$PUCSORTHOREF
  2

  9
$PUCSORTHOVIEW
 70
     0
  9
$PUCSORGTOP
 10
0.0
 20
0.0
 30
0.0
  9
$PUCSORGBOTTOM
 10
0.0
 20
0.0
 30
0.0
  9
$PUCSORGLEFT
 10
0.0
 20
0.0
 30
0.0
  9
$PUCSORGRIGHT
 10
0.0
 20
0.0
 30
0.0
  9
$PUCSORGFRONT
 10
0.0
 20
0.0
 30
0.0
  9
$PUCSORGBACK
 10
0.0
 20
0.0
 30
0.0
  9
$USERI1
 70
     0
  9
$USERI2
 70
     0
  9
$USERI3
 70
     0
  9
$USERI4
 70
     0
  9
$USERI5
 70
     0
  9
$USERR1
 40
0.0
  9
$USERR2
 40
0.0
  9
$USERR3
 40
0.0
  9
$USERR4
 40
0.0
  9
$USERR5
 40
0.0
  9
$WORLDVIEW
 70
     1
  9
$SHADEDGE
 70
     3
  9
$SHADEDIF
 70
    70
  9
$TILEMODE
 70
     1
  9
$MAXACTVP
 70
    64
  9
$PINSBASE
 10
0.0
 20
0.0
 30
0.0
  9
$PLIMCHECK
 70
     0
  9
$PEXTMIN
 10
0.0
 20
0.0
 30
0.0
  9
$PEXTMAX
 10
0.0
 20
0.0
 30
0.0
  9
$PLIMMIN
 10
0.0
 20
0.0
  9
$PLIMMAX
 10
12.0
 20
9.0
  9
$UNITMODE
 70
     0
  9
$VISRETAIN
 70
     1
  9
$PLINEGEN
 70
     0
  9
$PSLTSCALE
 70
     1
  9
$TREEDEPTH
 70
  3020
  9
$CMLSTYLE
  2
Standard
  9
$CMLJUST
 70
     0
  9
$CMLSCALE
 40
20.0
  9
$PROXYGRAPHICS
 70
     1
  9
$MEASUREMENT
 70
     1
  9
$CELWEIGHT
370
    -1
  9
$ENDCAPS
280
     0
  9
$JOINSTYLE
280
     0
  9
$LWDISPLAY
290
     1
  9
$INSUNITS
 70
     4
  9
$HYPERLINKBASE
  1

  9
$STYLESHEET
  1

  9
$XEDIT
290
     1
  9
$CEPSNTYPE
380
     0
  9
$PSTYLEMODE
290
     1
  9
$FINGERPRINTGUID
  2
{FDEAD578-A652-11D2-9A35-0060089B3A3F}
  9
$VERSIONGUID
  2
{0A9DAF0F-01F2-45B0-AFC8-985900548D7D}
  9
$EXTNAMES
290
     1
  9
$PSVPSCALE
 40
0.0
  9
$OLESTARTUP
290
     0
  0
ENDSEC
  0
SECTION
  2
CLASSES
  0
CLASS
  1
ACDBDICTIONARYWDFLT
  2
AcDbDictionaryWithDefault
  3
ObjectDBX Classes
 90
        0
280
     0
281
     0
  0
CLASS
  1
ACDBPLACEHOLDER
  2
AcDbPlaceHolder
  3
ObjectDBX Classes
 90
        0
280
     0
281
     0
  0
CLASS
  1
LAYOUT
  2
AcDbLayout
  3
ObjectDBX Classes
 90
        0
280
     0
281
     0
  0
CLASS
  1
DICTIONARYVAR
  2
AcDbDictionaryVar
  3
ObjectDBX Classes
 90
        0
280
     0
281
     0
  0
ENDSEC
  0
SECTION
  2
TABLES
  0
TABLE
  2
VPORT
  5
8
330
0
100
AcDbSymbolTable
 70
     5
  0
VPORT
  5
B79
330
8
100
AcDbSymbolTableRecord
100
AcDbViewportTableRecord
  2
*Active
 70
     0
 10
0.0
 20
0.0
 11
1.0
 21
1.0
 12
899.9568896914492
 22
-600.0176752883422
 13
0.0
 23
0.0
 14
10.0
 24
10.0
 15
10.0
 25
10.0
 16
0.0
 26
-0.0000000000000001
 36
-1.0
 17
0.0
 27
0.0
 37
0.0
 40
1273.463080409217
 41
2.293805309734513
 42
50.0
 43
0.0
 44
0.0
 50
0.0
 51
180.0
 71
     0
 72
  1000
 73
     1
 74
     3
 75
     0
 76
     0
 77
     0
 78
     0
281
     0
 65
     1
110
0.0
120
0.0
130
0.0
111
1.0
121
0.0
131
0.0
112
0.0
122
1.0
132
-0.0000000000000002
 79
     0
146
0.0
  0
ENDTAB
  0
TABLE
  2
LTYPE
  5
5
330
0
100
AcDbSymbolTable
 70
     1
  0
LTYPE
  5
14
330
5
100
AcDbSymbolTableRecord
100
AcDbLinetypeTableRecord
  2
ByBlock
 70
     0
  3

 72
    65
 73
     0
 40
0.0
  0
LTYPE
  5
15
330
5
100
AcDbSymbolTableRecord
100
AcDbLinetypeTableRecord
  2
ByLayer
 70
     0
  3

 72
    65
 73
     0
 40
0.0
  0
LTYPE
  5
16
330
5
100
AcDbSymbolTableRecord
100
AcDbLinetypeTableRecord
  2
Continuous
 70
     0
  3
Solid line
 72
    65
 73
     0
 40
0.0
  0
ENDTAB
  0
TABLE
  2
LAYER
  5
2
330
0
100
AcDbSymbolTable
 70
     3
  0
LAYER
  5
10
330
2
100
AcDbSymbolTableRecord
100
AcDbLayerTableRecord
  2
0
 70
     0
 62
     7
  6
Continuous
370
    -3
390
F
  0
LAYER
  5
111
330
2
100
AcDbSymbolTableRecord
100
AcDbLayerTableRecord
  2
DTEXT
 70
     0
 62
    10
  6
Continuous
370
    -3
390
F
  0
LAYER
  5
2F0
330
2
100
AcDbSymbolTableRecord
100
AcDbLayerTableRecord
  2
6-家具-143
 70
     0
 62
   143
  6
Continuous
370
    -3
390
F
  0
ENDTAB
  0
TABLE
  2
STYLE
  5
3
330
0
100
AcDbSymbolTable
 70
     1
  0
STYLE
  5
11
330
3
100
AcDbSymbolTableRecord
100
AcDbTextStyleTableRecord
  2
Standard
 70
     0
 40
0.0
 41
1.0
 50
0.0
 71
     0
 42
2.5
  3
txt
  4

  0
ENDTAB
  0
TABLE
  2
VIEW
  5
6
330
0
100
AcDbSymbolTable
 70
     0
  0
ENDTAB
  0
TABLE
  2
UCS
  5
7
330
0
100
AcDbSymbolTable
 70
     0
  0
ENDTAB
  0
TABLE
  2
APPID
  5
9
330
0
100
AcDbSymbolTable
 70
     2
  0
APPID
  5
12
330
9
100
AcDbSymbolTableRecord
100
AcDbRegAppTableRecord
  2
ACAD
 70
     0
  0
APPID
  5
218
330
9
100
AcDbSymbolTableRecord
100
AcDbRegAppTableRecord
  2
ACAD_PSEXT
 70
     0
  0
ENDTAB
  0
TABLE
  2
DIMSTYLE
  5
A
330
0
100
AcDbSymbolTable
 70
     2
100
AcDbDimStyleTable
 71
     0
  0
DIMSTYLE
105
27
330
A
100
AcDbSymbolTableRecord
100
AcDbDimStyleTableRecord
  2
ISO-25
 70
     0
 41
2.5
 42
0.625
 43
3.75
 44
1.25
 73
     0
 74
     0
 77
     1
 78
     8
140
2.5
141
2.5
143
0.03937007874016
147
0.625
171
     3
172
     1
271
     2
272
     2
274
     3
278
    44
283
     0
284
     8
340
11
  0
DIMSTYLE
105
2F3
330
A
100
AcDbSymbolTableRecord
100
AcDbDimStyleTableRecord
  2
STANDARD
 70
     0
340
11
  0
ENDTAB
  0
TABLE
  2
BLOCK_RECORD
  5
1
330
0
100
AcDbSymbolTable
 70
     1
  0
BLOCK_RECORD
  5
1F
330
1
100
AcDbSymbolTableRecord
100
AcDbBlockTableRecord
  2
*Model_Space
340
22
  0
BLOCK_RECORD
  5
50
330
1
100
AcDbSymbolTableRecord
100
AcDbBlockTableRecord
  2
*Paper_Space
340
51
  0
BLOCK_RECORD
  5
55
330
1
100
AcDbSymbolTableRecord
100
AcDbBlockTableRecord
  2
*Paper_Space0
340
56
  0
ENDTAB
  0
ENDSEC
  0
SECTION
  2
BLOCKS
  0
BLOCK
  5
20
330
1F
100
AcDbEntity
  8
0
100
AcDbBlockBegin
  2
*Model_Space
 70
     0
 10
0.0
 20
0.0
 30
0.0
  3
*Model_Space
  1

  0
ENDBLK
  5
21
330
1F
100
AcDbEntity
  8
0
100
AcDbBlockEnd
  0
BLOCK
  5
52
330
50
100
AcDbEntity
 67
     1
  8
0
100
AcDbBlockBegin
  2
*Paper_Space
 70
     0
 10
0.0
 20
0.0
 30
0.0
  3
*Paper_Space
  1

  0
ENDBLK
  5
53
330
50
100
AcDbEntity
 67
     1
  8
0
100
AcDbBlockEnd
  0
BLOCK
  5
57
330
55
100
AcDbEntity
  8
0
100
AcDbBlockBegin
  2
*Paper_Space0
 70
     0
 10
0.0
 20
0.0
 30
0.0
  3
*Paper_Space0
  1

  0
ENDBLK
  5
58
330
55
100
AcDbEntity
  8
0
100
AcDbBlockEnd
  0
ENDSEC
  0
SECTION
  2
ENTITIES
  0
LINE
  5
AD
330
1F
100
AcDbEntity
  8
0
100
AcDbLine
 10
-0.0000000000002274
 20
1200.0
 30
-0.000000000000147
 11
1800.0
 21
1200.0
 31
-0.000000000000147
210
0.0
220
-0.0000000000000001
230
-1.0
  0
LINE
  5
AE
330
1F
100
AcDbEntity
  8
0
100
AcDbLine
 10
1800.0
 20
1200.0
 30
-0.000000000000147
 11
1800.0
 21
0.0
 31
0.0
210
0.0
220
-0.0000000000000001
230
-1.0
  0
LINE
  5
AF
330
1F
100
AcDbEntity
  8
0
100
AcDbLine
 10
1800.0
 20
0.0
 30
0.0
 11
0.0
 21
0.0
 31
0.0
210
0.0
220
-0.0000000000000001
230
-1.0
  0
LINE
  5
B0
330
1F
100
AcDbEntity
  8
0
100
AcDbLine
 10
0.0
 20
0.0
 30
0.0
 11
0.0
 21
1200.0
 31
-0.000000000000147
210
0.0
220
-0.0000000000000001
230
-1.0
  0
MTEXT
  5
101
330
1F
100
AcDbEntity
  8
DTEXT
100
AcDbMText
 10
896.1848718034532
 20
291.6004254811618
 30
-0.0000000000000613
 40
30.0
 41
115.7363435239194
 71
     1
 72
     5
  1
1001
210
0.0
220
-0.0000000000000001
230
-1.0
 73
     1
 44
1.0
1001
ACAD
1000
MTEXTBEGIN
1070
    73
1070
     1
1070
    44
1040
1.0
1070
    74
1070
     0
1000
MTEXTEND
  0
MTEXT
  5
112
330
1F
100
AcDbEntity
  8
0
 62
     5
100
AcDbMText
 10
1006.484863345577
 20
290.8994461705558
 30
-0.0000000000000612
 40
30.0
 41
71.82278966770581
 71
     1
 72
     5
  1
mm
210
0.0
220
-0.0000000000000001
230
-1.0
 73
     1
 44
1.0
1001
ACAD
1000
MTEXTBEGIN
1070
    73
1070
     1
1070
    44
1040
1.0
1070
    74
1070
     0
1000
MTEXTEND
  0
LINE
  5
181
330
1F
100
AcDbEntity
  8
0
100
AcDbLine
 10
316.9838964937707
 20
710.1999559288969
 30
-0.0000000000001421
 11
1114.212806445706
 21
710.1999559288969
 31
-0.0000000000001421
  0
LINE
  5
183
330
1F
100
AcDbEntity
  8
0
100
AcDbLine
 10
836.4727660077161
 20
261.3620685817632
 30
-0.0000000000001619
 11
967.6438172898105
 21
261.3620685817632
 31
-0.0000000000001619
  0
LINE
  5
184
330
1F
100
AcDbEntity
  8
0
100
AcDbLine
 10
836.4727660077161
 20
355.6176926227698
 30
-0.0000000000000192
 11
967.6438172898105
 21
355.6176926227698
 31
-0.0000000000000192
  0
LINE
  5
185
330
1F
100
AcDbEntity
  8
0
100
AcDbLine
 10
908.9227080838464
 20
213.0815334105252
 30
-0.0000000000002289
 11
908.9227080838464
 21
261.3620685817632
 31
-0.0000000000001619
  0
LINE
  5
186
330
1F
100
AcDbEntity
  8
0
100
AcDbLine
 10
908.9227080838464
 20
261.3620685817632
 30
-0.0000000000001619
 11
898.9498952034983
 21
241.8768138264735
 31
-0.0000000000002347
  0
LINE
  5
187
330
1F
100
AcDbEntity
  8
0
100
AcDbLine
 10
908.9227080838464
 20
261.3620685817632
 30
-0.0000000000001619
 11
918.8955209641944
 21
241.8768138264735
 31
-0.0000000000002347
  0
LINE
  5
189
330
1F
100
AcDbEntity
  8
0
100
AcDbLine
 10
908.9227080838464
 20
355.6176926227698
 30
-0.0000000000000192
 11
918.8955209641944
 21
375.1029473780599
 31
-0.0000000000000998
  0
LINE
  5
18A
330
1F
100
AcDbEntity
  8
0
100
AcDbLine
 10
908.9227080838464
 20
355.6176926227698
 30
-0.0000000000000192
 11
898.9498952034983
 21
375.1029473780599
 31
-0.0000000000000998
  0
LINE
  5
18B
330
1F
100
AcDbEntity
  8
0
100
AcDbLine
 10
908.9227080838464
 20
403.8982277940077
 30
-0.0000000000001056
 11
908.9227080838464
 21
355.6176926227698
 31
-0.0000000000000192
  0
LINE
  5
18C
330
1F
100
AcDbEntity
  8
0
100
AcDbLine
 10
842.7835695450319
 20
319.0499806252478
 30
-0.0000000000000638
 11
881.376006362373
 21
319.0499806252478
 31
-0.0000000000000638
  0
LINE
  5
18E
330
1F
100
AcDbEntity
  8
0
100
AcDbLine
 10
862.0797879537024
 20
286.8048377979656
 30
-0.0000000000000574
 11
842.7835695450319
 21
319.0499806252478
 31
-0.0000000000000638
  0
LINE
  5
18F
330
1F
100
AcDbEntity
  8
0
100
AcDbLine
 10
881.376006362373
 20
319.0499806252478
 30
-0.0000000000000638
 11
862.0797879537024
 21
286.8048377979656
 31
-0.0000000000000574
  0
LINE
  5
19E
330
1F
100
AcDbEntity
  8
0
100
AcDbLine
 10
342.7802518056103
 20
710.1999559288969
 30
-0.0000000000001421
 11
306.7900405548478
 21
761.5484341705942
 31
-0.0000000000001523
  0
LINE
  5
19F
330
1F
100
AcDbEntity
  8
0
100
AcDbLine
 10
365.018490751622
 20
710.1999559288969
 30
-0.0000000000001421
 11
329.0282795008597
 21
761.5484341705942
 31
-0.0000000000001523
  0
LINE
  5
1A0
330
1F
100
AcDbEntity
  8
0
100
AcDbLine
 10
385.4776637416632
 20
710.1999559288969
 30
-0.0000000000001421
 11
349.487452490901
 21
761.5484341705942
 31
-0.0000000000001523
  0
LINE
  5
1A1
330
1F
100
AcDbEntity
  8
0
100
AcDbLine
 10
469.6039248810473
 20
710.1999559288969
 30
-0.0000000000001421
 11
433.6137136302848
 21
761.5484341705942
 31
-0.0000000000001523
  0
LINE
  5
1A2
330
1F
100
AcDbEntity
  8
0
100
AcDbLine
 10
449.144751891006
 20
710.1999559288969
 30
-0.0000000000001421
 11
413.1545406402437
 21
761.5484341705942
 31
-0.0000000000001523
  0
LINE
  5
1A3
330
1F
100
AcDbEntity
  8
0
100
AcDbLine
 10
426.9065129449942
 20
710.1999559288969
 30
-0.0000000000001421
 11
390.9163016942321
 21
761.5484341705942
 31
-0.0000000000001523
  0
LINE
  5
1A4
330
1F
100
AcDbEntity
  8
0
100
AcDbLine
 10
601.9800706092143
 20
710.1999559288969
 30
-0.0000000000001421
 11
565.989859358452
 21
761.5484341705942
 31
-0.0000000000001523
  0
LINE
  5
1A5
330
1F
100
AcDbEntity
  8
0
100
AcDbLine
 10
624.2183095552261
 20
710.1999559288969
 30
-0.0000000000001421
 11
588.2280983044636
 21
761.5484341705942
 31
-0.0000000000001523
  0
LINE
  5
1A6
330
1F
100
AcDbEntity
  8
0
100
AcDbLine
 10
644.6774825452672
 20
710.1999559288969
 30
-0.0000000000001421
 11
608.687271294505
 21
761.5484341705942
 31
-0.0000000000001523
  0
LINE
  5
1A7
330
1F
100
AcDbEntity
  8
0
100
AcDbLine
 10
560.5512214058832
 20
710.1999559288969
 30
-0.0000000000001421
 11
524.5610101551208
 21
761.5484341705942
 31
-0.0000000000001523
  0
LINE
  5
1A8
330
1F
100
AcDbEntity
  8
0
100
AcDbLine
 10
540.0920484158421
 20
710.1999559288969
 30
-0.0000000000001421
 11
504.1018371650794
 21
761.5484341705942
 31
-0.0000000000001523
  0
LINE
  5
1A9
330
1F
100
AcDbEntity
  8
0
100
AcDbLine
 10
517.8538094698303
 20
710.1999559288969
 30
-0.0000000000001421
 11
481.8635982190678
 21
761.5484341705942
 31
-0.0000000000001523
  0
LINE
  5
1AA
330
1F
100
AcDbEntity
  8
0
100
AcDbLine
 10
717.4353228743591
 20
710.1999559288969
 30
-0.0000000000001421
 11
681.4451116235966
 21
761.5484341705942
 31
-0.0000000000001523
  0
LINE
  5
1AB
330
1F
100
AcDbEntity
  8
0
100
AcDbLine
 10
696.9761498843178
 20
710.1999559288969
 30
-0.0000000000001421
 11
660.9859386335555
 21
761.5484341705942
 31
-0.0000000000001523
  0
LINE
  5
1AC
330
1F
100
AcDbEntity
  8
0
100
AcDbLine
 10
674.7379109383061
 20
710.1999559288969
 30
-0.0000000000001421
 11
638.7476996875436
 21
761.5484341705942
 31
-0.0000000000001523
  0
LINE
  5
1AD
330
1F
100
AcDbEntity
  8
0
100
AcDbLine
 10
761.1378531305263
 20
710.1999559288969
 30
-0.0000000000001421
 11
725.1476418797635
 21
761.5484341705942
 31
-0.0000000000001523
  0
LINE
  5
1AE
330
1F
100
AcDbEntity
  8
0
100
AcDbLine
 10
783.3760920765378
 20
710.1999559288969
 30
-0.0000000000001421
 11
747.3858808257753
 21
761.5484341705942
 31
-0.0000000000001523
  0
LINE
  5
1AF
330
1F
100
AcDbEntity
  8
0
100
AcDbLine
 10
803.8352650665791
 20
710.1999559288969
 30
-0.0000000000001421
 11
767.8450538158165
 21
761.5484341705942
 31
-0.0000000000001523
  0
LINE
  5
1B0
330
1F
100
AcDbEntity
  8
0
100
AcDbLine
 10
856.7375646123387
 20
710.1999559288969
 30
-0.0000000000001421
 11
820.7473533615765
 21
761.5484341705942
 31
-0.0000000000001523
  0
LINE
  5
1B1
330
1F
100
AcDbEntity
  8
0
100
AcDbLine
 10
877.1967376023802
 20
710.1999559288969
 30
-0.0000000000001421
 11
841.2065263516179
 21
761.5484341705942
 31
-0.0000000000001523
  0
LINE
  5
1B2
330
1F
100
AcDbEntity
  8
0
100
AcDbLine
 10
922.0501853893081
 20
710.1999559288969
 30
-0.0000000000001421
 11
886.0599741385456
 21
761.5484341705942
 31
-0.0000000000001523
  0
LINE
  5
1B3
330
1F
100
AcDbEntity
  8
0
100
AcDbLine
 10
944.2884243353198
 20
710.1999559288969
 30
-0.0000000000001421
 11
908.2982130845577
 21
761.5484341705942
 31
-0.0000000000001523
  0
LINE
  5
1B4
330
1F
100
AcDbEntity
  8
0
100
AcDbLine
 10
964.7475973253612
 20
710.1999559288969
 30
-0.0000000000001421
 11
928.7573860745986
 21
761.5484341705942
 31
-0.0000000000001523
  0
LINE
  5
1B5
330
1F
100
AcDbEntity
  8
0
100
AcDbLine
 10
1051.018763299486
 20
710.1999559288969
 30
-0.0000000000001421
 11
1015.028552048724
 21
761.5484341705942
 31
-0.0000000000001523
  0
LINE
  5
1B6
330
1F
100
AcDbEntity
  8
0
100
AcDbLine
 10
1030.559590309445
 20
710.1999559288969
 30
-0.0000000000001421
 11
994.5693790586826
 21
761.5484341705942
 31
-0.0000000000001523
  0
LINE
  5
1B7
330
1F
100
AcDbEntity
  8
0
100
AcDbLine
 10
1008.321351363433
 20
710.1999559288969
 30
-0.0000000000001421
 11
972.3311401126711
 21
761.5484341705942
 31
-0.0000000000001523
  0
LINE
  5
4BA
330
1F
100
AcDbEntity
  8
6-家具-143
 62
   143
100
AcDbLine
 10
1205.052143210691
 20
273.9400402238217
 30
-0.0000000000000548
 11
1217.571010980784
 21
281.9452709305889
 31
-0.0000000000000564
  0
LINE
  5
4BB
330
1F
100
AcDbEntity
  8
6-家具-143
 62
   143
100
AcDbLine
 10
1156.97969097356
 20
287.4488670414985
 30
-0.0000000000000575
 11
1160.484973949176
 21
279.4436363347314
 31
-0.0000000000000559
  0
LINE
  5
4BC
330
1F
100
AcDbEntity
  8
6-家具-143
 62
   143
100
AcDbLine
 10
1152.472898576321
 20
305.4606361317537
 30
-0.0000000000000611
 11
1156.97969097356
 21
287.4488670414985
 31
-0.0000000000000575
  0
LINE
  5
4BD
330
1F
100
AcDbEntity
  8
6-家具-143
 62
   143
100
AcDbLine
 10
1148.466860889894
 20
336.4809051204911
 30
-0.0000000000000673
 11
1152.472898576321
 21
305.4606361317537
 31
-0.0000000000000611
  0
LINE
  5
4BE
330
1F
100
AcDbEntity
  8
6-家具-143
 62
   143
100
AcDbLine
 10
1147.966106179083
 20
368.5018279475599
 30
-0.0000000000000737
 11
1148.466860889894
 21
336.4809051204911
 31
-0.0000000000000673
  0
LINE
  5
4BF
330
1F
100
AcDbEntity
  8
6-家具-143
 62
   143
100
AcDbLine
 10
1156.97969097356
 20
323.472405222009
 30
-0.0000000000000647
 11
1155.978181551938
 21
354.4926742107464
 31
-0.0000000000000709
  0
LINE
  5
4C0
330
1F
100
AcDbEntity
  8
6-家具-143
 62
   143
100
AcDbLine
 10
1157.981200395152
 20
301.4580207783702
 30
-0.0000000000000603
 11
1156.97969097356
 21
323.472405222009
 31
-0.0000000000000647
  0
LINE
  5
4C1
330
1F
100
AcDbEntity
  8
6-家具-143
 62
   143
100
AcDbLine
 10
1163.489502213983
 20
281.4449440114523
 30
-0.0000000000000563
 11
1157.981200395152
 21
301.4580207783702
 31
-0.0000000000000603
  0
LINE
  5
4C2
330
1F
100
AcDbEntity
  8
6-家具-143
 62
   143
100
AcDbLine
 10
1151.4713891547
 20
293.452790071603
 30
-0.0000000000000587
 11
1151.4713891547
 21
303.459328455091
 31
-0.0000000000000607
  0
LINE
  5
4C3
330
1F
100
AcDbEntity
  8
6-家具-143
 62
   143
100
AcDbLine
 10
1155.978181551938
 20
283.9465786073098
 30
-0.0000000000000568
 11
1151.4713891547
 21
293.452790071603
 31
-0.0000000000000587
  0
LINE
  5
4C4
330
1F
100
AcDbEntity
  8
6-家具-143
 62
   143
100
AcDbLine
 10
1160.985728659987
 20
277.9426555772052
 30
-0.0000000000000556
 11
1155.978181551938
 21
283.9465786073098
 31
-0.0000000000000568
  0
LINE
  5
4C5
330
1F
100
AcDbEntity
  8
6-家具-143
 62
   143
100
AcDbLine
 10
1149.969125022296
 20
312.4652130001897
 30
-0.0000000000000625
 11
1145.963087335869
 21
324.4730590603404
 31
-0.0000000000000649
  0
LINE
  5
4C6
330
1F
100
AcDbEntity
  8
6-家具-143
 62
   143
100
AcDbLine
 10
1159.984219238366
 20
360.4965972407927
 30
-0.0000000000000721
 11
1158.481955105963
 21
345.9871165847844
 31
-0.0000000000000692
  0
LINE
  5
4C7
330
1F
100
AcDbEntity
  8
6-家具-143
 62
   143
100
AcDbLine
 10
1156.478936262749
 20
366.5005202708972
 30
-0.0000000000000733
 11
1159.984219238366
 21
360.4965972407927
 31
-0.0000000000000721
  0
LINE
  5
4C8
330
1F
100
AcDbEntity
  8
6-家具-143
 62
   143
100
AcDbLine
 10
1197.570278495929
 20
255.1689522915377
 30
-0.000000000000051
 11
1200.185985444288
 21
261.9204225708937
 31
-0.0000000000000524
  0
LINE
  5
4C9
330
1F
100
AcDbEntity
  8
6-家具-143
 62
   143
100
AcDbLine
 10
1203.237643550703
 20
242.3193798243856
 30
-0.0000000000000485
 11
1201.057887760399
 21
246.45737773756
 31
-0.0000000000000493
  0
LINE
  5
4CA
330
1F
100
AcDbEntity
  8
6-家具-143
 62
   143
100
AcDbLine
 10
1203.237643550703
 20
238.8347500027713
 30
-0.0000000000000478
 11
1203.237643550703
 21
242.3193798243856
 31
-0.0000000000000485
  0
LINE
  5
4CB
330
1F
100
AcDbEntity
  8
6-家具-143
 62
   143
100
AcDbLine
 10
1204.981448182923
 20
230.994332904168
 30
-0.0000000000000462
 11
1203.237643550703
 21
238.8347500027713
 31
-0.0000000000000478
  0
LINE
  5
4CC
330
1F
100
AcDbEntity
  8
6-家具-143
 62
   143
100
AcDbLine
 10
1204.763472603896
 20
223.3717051694376
 30
-0.0000000000000447
 11
1204.981448182923
 21
230.994332904168
 31
-0.0000000000000462
  0
LINE
  5
4CD
330
1F
100
AcDbEntity
  8
6-家具-143
 62
   143
100
AcDbLine
 10
1203.455619129731
 20
216.6202348900816
 30
-0.0000000000000433
 11
1204.763472603896
 21
223.3717051694376
 31
-0.0000000000000447
  0
LINE
  5
4CE
330
1F
100
AcDbEntity
  8
6-家具-143
 62
   143
100
AcDbLine
 10
1201.929790076509
 20
211.1755007938456
 30
-0.0000000000000422
 11
1203.455619129731
 21
216.6202348900816
 31
-0.0000000000000433
  0
LINE
  5
4CF
330
1F
100
AcDbEntity
  8
6-家具-143
 62
   143
100
AcDbLine
 10
1197.570278495929
 20
208.5620284276057
 30
-0.0000000000000417
 11
1201.929790076509
 21
211.1755007938456
 31
-0.0000000000000422
  0
LINE
  5
4D0
330
1F
100
AcDbEntity
  8
6-家具-143
 62
   143
100
AcDbLine
 10
1151.795406899706
 20
258.8713714770247
 30
-0.0000000000000518
 11
1152.885284794873
 21
255.8223203830977
 31
-0.0000000000000512
  0
LINE
  5
4D1
330
1F
100
AcDbEntity
  8
6-家具-143
 62
   143
100
AcDbLine
 10
1151.577431320679
 20
261.2670544793336
 30
-0.0000000000000523
 11
1151.795406899706
 21
258.8713714770247
 31
-0.0000000000000518
  0
LINE
  5
4D2
330
1F
100
AcDbEntity
  8
6-家具-143
 62
   143
100
AcDbLine
 10
1153.321235952928
 20
263.6627374817008
 30
-0.0000000000000527
 11
1151.577431320679
 21
261.2670544793336
 31
-0.0000000000000523
  0
LINE
  5
4D3
330
1F
100
AcDbEntity
  8
6-家具-143
 62
   143
100
AcDbLine
 10
1157.898723112536
 20
264.0983162093881
 30
-0.0000000000000528
 11
1153.321235952928
 21
263.6627374817008
 31
-0.0000000000000527
  0
LINE
  5
4D4
330
1F
100
AcDbEntity
  8
6-家具-143
 62
   143
100
AcDbLine
 10
1161.168356797978
 20
264.3161055732609
 30
-0.0000000000000529
 11
1157.898723112536
 21
264.0983162093881
 31
-0.0000000000000528
  0
LINE
  5
4D5
330
1F
100
AcDbEntity
  8
6-家具-143
 62
   143
100
AcDbLine
 10
1162.6941858512
 20
266.2762098479408
 30
-0.0000000000000533
 11
1161.168356797978
 21
264.3161055732609
 31
-0.0000000000000529
  0
LINE
  5
4D6
330
1F
100
AcDbEntity
  8
6-家具-143
 62
   143
100
AcDbLine
 10
1192.992791336291
 20
263.4449481178864
 30
-0.0000000000000527
 11
1200.83991218137
 21
261.7026332070791
 31
-0.0000000000000524
  0
LINE
  5
4D7
330
1F
100
AcDbEntity
  8
6-家具-143
 62
   143
100
AcDbLine
 10
1182.529963542881
 20
265.405052392508
 30
-0.0000000000000531
 11
1192.992791336291
 21
263.4449481178864
 31
-0.0000000000000527
  0
LINE
  5
4D8
330
1F
100
AcDbEntity
  8
6-家具-143
 62
   143
100
AcDbLine
 10
1171.41320901239
 20
266.2762098479408
 30
-0.0000000000000533
 11
1182.529963542881
 21
265.405052392508
 31
-0.0000000000000531
  0
LINE
  5
4D9
330
1F
100
AcDbEntity
  8
6-家具-143
 62
   143
100
AcDbLine
 10
1166.617746273725
 20
266.711788575628
 30
-0.0000000000000534
 11
1171.41320901239
 21
266.2762098479408
 31
-0.0000000000000533
  0
LINE
  5
4DA
330
1F
100
AcDbEntity
  8
6-家具-143
 62
   143
100
AcDbLine
 10
1167.489648589835
 20
280.21472913434
 30
-0.0000000000000561
 11
1166.617746273725
 21
266.711788575628
 31
-0.0000000000000534
  0
LINE
  5
4DB
330
1F
100
AcDbEntity
  8
6-家具-143
 62
   143
100
AcDbLine
 10
1175.772720592969
 20
277.6012567681
 30
-0.0000000000000555
 11
1167.489648589835
 21
280.21472913434
 31
-0.0000000000000561
  0
LINE
  5
4DC
330
1F
100
AcDbEntity
  8
6-家具-143
 62
   143
100
AcDbLine
 10
1187.979353018628
 20
274.9877844019185
 30
-0.000000000000055
 11
1175.772720592969
 21
277.6012567681
 31
-0.0000000000000555
  0
LINE
  5
4DD
330
1F
100
AcDbEntity
  8
6-家具-143
 62
   143
100
AcDbLine
 10
1199.968009865261
 20
274.3344163103584
 30
-0.0000000000000549
 11
1187.979353018628
 21
274.9877844019185
 31
-0.000000000000055
  0
LINE
  5
4DE
330
1F
100
AcDbEntity
  8
6-家具-143
 62
   143
100
AcDbLine
 10
1204.763472603896
 20
272.5921013995513
 30
-0.0000000000000545
 11
1199.968009865261
 21
274.3344163103584
 31
-0.0000000000000549
  0
LINE
  5
4DF
330
1F
100
AcDbEntity
  8
6-家具-143
 62
   143
100
AcDbLine
 10
1203.237643550703
 20
261.2670544793336
 30
-0.0000000000000523
 11
1204.763472603896
 21
272.5921013995513
 31
-0.0000000000000545
  0
LINE
  5
4E0
330
1F
100
AcDbEntity
  8
6-家具-143
 62
   143
100
AcDbLine
 10
1198.660156391066
 20
261.0492651155192
 30
-0.0000000000000522
 11
1203.237643550703
 21
261.2670544793336
 31
-0.0000000000000523
  0
LINE
  5
4E1
330
1F
100
AcDbEntity
  8
6-家具-143
 62
   143
100
AcDbLine
 10
1162.912161430228
 20
279.5613610427799
 30
-0.0000000000000559
 11
1166.617746273725
 21
274.5522056742312
 31
-0.0000000000000549
  0
LINE
  5
4E2
330
1F
100
AcDbEntity
  8
6-家具-143
 62
   143
100
AcDbLine
 10
1161.604307956062
 20
279.7791504065946
 30
-0.000000000000056
 11
1162.912161430228
 21
279.5613610427799
 31
-0.0000000000000559
  0
LINE
  5
4E3
330
1F
100
AcDbEntity
  8
6-家具-143
 62
   143
100
AcDbLine
 10
1160.95038121895
 20
271.5031545803041
 30
-0.0000000000000543
 11
1161.604307956062
 21
279.7791504065946
 31
-0.000000000000056
  0
LINE
  5
4E4
330
1F
100
AcDbEntity
  8
6-家具-143
 62
   143
100
AcDbLine
 10
1162.6941858512
 20
268.2363141225625
 30
-0.0000000000000537
 11
1160.95038121895
 21
271.5031545803041
 31
-0.0000000000000543
  0
LINE
  5
4E5
330
1F
100
AcDbEntity
  8
6-家具-143
 62
   143
100
AcDbLine
 10
1165.963819536642
 20
267.5829460310025
 30
-0.0000000000000535
 11
1162.6941858512
 21
268.2363141225625
 31
-0.0000000000000537
  0
LINE
  5
4E6
330
1F
100
AcDbEntity
  8
6-家具-143
 62
   143
100
AcDbLine
 10
1155.71896732226
 20
279.3435716789073
 30
-0.0000000000000559
 11
1162.040259114118
 21
266.4939992117552
 31
-0.0000000000000533
  0
LINE
  5
4E7
330
1F
100
AcDbEntity
  8
6-家具-143
 62
   143
100
AcDbLine
 10
1160.732405639923
 20
276.5123099488529
 30
-0.0000000000000553
 11
1155.71896732226
 21
279.3435716789073
 31
-0.0000000000000559
  0
LINE
  5
4E8
330
1F
100
AcDbEntity
  8
6-家具-143
 62
   143
100
AcDbLine
 10
1182.529963542881
 20
261.2670544793336
 30
-0.0000000000000523
 11
1187.761377439602
 21
258.8713714770247
 31
-0.0000000000000518
  0
LINE
  5
4E9
330
1F
100
AcDbEntity
  8
6-家具-143
 62
   143
100
AcDbLine
 10
1174.02891596072
 20
263.6627374817008
 30
-0.0000000000000527
 11
1182.529963542881
 21
261.2670544793336
 31
-0.0000000000000523
  0
LINE
  5
4EA
330
1F
100
AcDbEntity
  8
6-家具-143
 62
   143
100
AcDbLine
 10
1166.399770694698
 20
264.3161055732609
 30
-0.0000000000000529
 11
1174.02891596072
 21
263.6627374817008
 31
-0.0000000000000527
  0
LINE
  5
4EB
330
1F
100
AcDbEntity
  8
6-家具-143
 62
   143
100
AcDbLine
 10
1203.049124367477
 20
339.4828666355433
 30
-0.0000000000000679
 11
1210.560445029521
 21
352.9916934532203
 31
-0.0000000000000706
  0
LINE
  5
4EC
330
1F
100
AcDbEntity
  8
6-家具-143
 62
   143
100
AcDbLine
 10
1220.57553924559
 20
358.49528956413
 30
-0.0000000000000717
 11
1203.049124367477
 21
339.4828666355433
 31
-0.0000000000000679
  0
LINE
  5
4ED
330
1F
100
AcDbEntity
  8
6-家具-143
 62
   143
100
AcDbLine
 10
1220.07478453478
 20
363.9988856750397
 30
-0.0000000000000728
 11
1220.57553924559
 21
358.49528956413
 31
-0.0000000000000717
  0
LINE
  5
4EE
330
1F
100
AcDbEntity
  8
6-家具-143
 62
   143
100
AcDbLine
 10
1237.100444702111
 20
314.9668475960472
 30
-0.000000000000063
 11
1247.616293628991
 21
342.4848281505374
 31
-0.0000000000000685
  0
LINE
  5
4EF
330
1F
100
AcDbEntity
  8
6-家具-143
 62
   143
100
AcDbLine
 10
1227.586105196853
 20
298.9563861825127
 30
-0.0000000000000598
 11
1237.100444702111
 21
314.9668475960472
 31
-0.000000000000063
  0
LINE
  5
4F0
330
1F
100
AcDbEntity
  8
6-家具-143
 62
   143
100
AcDbLine
 10
1217.571010980784
 20
281.9452709305889
 30
-0.0000000000000564
 11
1227.586105196853
 21
298.9563861825127
 31
-0.0000000000000598
  0
LINE
  5
4F1
330
1F
100
AcDbEntity
  8
6-家具-143
 62
   143
100
AcDbLine
 10
1186.023464200145
 20
303.9596553742276
 30
-0.0000000000000608
 11
1190.029501886573
 21
314.9668475960472
 31
-0.000000000000063
  0
LINE
  5
4F2
330
1F
100
AcDbEntity
  8
6-家具-143
 62
   143
100
AcDbLine
 10
1187.024973621767
 20
290.9511554757455
 30
-0.0000000000000582
 11
1186.023464200145
 21
303.9596553742276
 31
-0.0000000000000608
  0
LINE
  5
4F3
330
1F
100
AcDbEntity
  8
6-家具-143
 62
   143
100
AcDbLine
 10
1084.370257907052
 20
373.5050971392748
 30
-0.0000000000000747
 11
1106.904219893215
 21
375.5064048159957
 31
-0.0000000000000751
  0
LINE
  5
4F4
330
1F
100
AcDbEntity
  8
6-家具-143
 62
   143
100
AcDbLine
 10
1071.851390136959
 20
370.5031356242807
 30
-0.0000000000000741
 11
1084.370257907052
 21
373.5050971392748
 31
-0.0000000000000747
  0
LINE
  5
4F5
330
1F
100
AcDbEntity
  8
6-家具-143
 62
   143
100
AcDbLine
 10
1071.350635426148
 20
368.5018279475599
 30
-0.0000000000000737
 11
1071.851390136959
 21
370.5031356242807
 31
-0.0000000000000741
  0
LINE
  5
4F6
330
1F
100
AcDbEntity
  8
6-家具-143
 62
   143
100
AcDbLine
 10
1063.338560053292
 20
373.5050971392748
 30
-0.0000000000000747
 11
1071.350635426148
 21
368.5018279475599
 31
-0.0000000000000737
  0
LINE
  5
4F7
330
1F
100
AcDbEntity
  8
6-家具-143
 62
   143
100
AcDbLine
 10
1056.327994102059
 20
377.5077124926584
 30
-0.0000000000000755
 11
1063.338560053292
 21
373.5050971392748
 31
-0.0000000000000747
  0
LINE
  5
4F8
330
1F
100
AcDbEntity
  8
6-家具-143
 62
   143
100
AcDbLine
 10
1037.299315091513
 20
385.5129431994255
 30
-0.0000000000000771
 11
1056.327994102059
 21
377.5077124926584
 31
-0.0000000000000755
  0
LINE
  5
4F9
330
1F
100
AcDbEntity
  8
6-家具-143
 62
   143
100
AcDbLine
 10
1035.2962962483
 20
382.5109816844316
 30
-0.0000000000000765
 11
1037.299315091513
 21
385.5129431994255
 31
-0.0000000000000771
  0
LINE
  5
4FA
330
1F
100
AcDbEntity
  8
6-家具-143
 62
   143
100
AcDbLine
 10
1044.810635753558
 20
375.0060778968008
 30
-0.000000000000075
 11
1035.2962962483
 21
382.5109816844316
 31
-0.0000000000000765
  0
LINE
  5
4FB
330
1F
100
AcDbEntity
  8
6-家具-143
 62
   143
100
AcDbLine
 10
1028.285730297066
 20
379.5090201693792
 30
-0.0000000000000759
 11
1044.810635753558
 21
375.0060778968008
 31
-0.000000000000075
  0
LINE
  5
4FC
330
1F
100
AcDbEntity
  8
6-家具-143
 62
   143
100
AcDbLine
 10
1026.783466164634
 20
376.507058654327
 30
-0.0000000000000753
 11
1028.285730297066
 21
379.5090201693792
 31
-0.0000000000000759
  0
LINE
  5
4FD
330
1F
100
AcDbEntity
  8
6-家具-143
 62
   143
100
AcDbLine
 10
1041.806107488751
 20
370.5031356242807
 30
-0.0000000000000741
 11
1026.783466164634
 21
376.507058654327
 31
-0.0000000000000753
  0
LINE
  5
4FE
330
1F
100
AcDbEntity
  8
6-家具-143
 62
   143
100
AcDbLine
 10
1021.275164345803
 20
374.5057509776643
 30
-0.0000000000000749
 11
1041.806107488751
 21
370.5031356242807
 31
-0.0000000000000741
  0
LINE
  5
4FF
330
1F
100
AcDbEntity
  8
6-家具-143
 62
   143
100
AcDbLine
 10
1020.774409634992
 20
371.0034625434173
 30
-0.0000000000000742
 11
1021.275164345803
 21
374.5057509776643
 31
-0.0000000000000749
  0
LINE
  5
500
330
1F
100
AcDbEntity
  8
6-家具-143
 62
   143
100
AcDbLine
 10
1039.302333934727
 20
362.4979049175137
 30
-0.0000000000000725
 11
1020.774409634992
 21
371.0034625434173
 31
-0.0000000000000742
  0
LINE
  5
501
330
1F
100
AcDbEntity
  8
6-家具-143
 62
   143
100
AcDbLine
 10
1022.276673767425
 20
365.4998664325077
 30
-0.0000000000000731
 11
1039.302333934727
 21
362.4979049175137
 31
-0.0000000000000725
  0
LINE
  5
502
330
1F
100
AcDbEntity
  8
6-家具-143
 62
   143
100
AcDbLine
 10
1022.777428478206
 20
361.9975779983188
 30
-0.0000000000000724
 11
1022.276673767425
 21
365.4998664325077
 31
-0.0000000000000731
  0
LINE
  5
503
330
1F
100
AcDbEntity
  8
6-家具-143
 62
   143
100
AcDbLine
 10
1045.311390464369
 20
352.9916934532203
 30
-0.0000000000000706
 11
1022.777428478206
 21
361.9975779983188
 31
-0.0000000000000724
  0
LINE
  5
504
330
1F
100
AcDbEntity
  8
6-家具-143
 62
   143
100
AcDbLine
 10
1046.813654596772
 20
350.4900588573046
 30
-0.0000000000000701
 11
1045.311390464369
 21
352.9916934532203
 31
-0.0000000000000706
  0
LINE
  5
505
330
1F
100
AcDbEntity
  8
6-家具-143
 62
   143
100
AcDbLine
 10
1042.807616910344
 20
348.4887511806419
 30
-0.0000000000000697
 11
1046.813654596772
 21
350.4900588573046
 31
-0.0000000000000701
  0
LINE
  5
506
330
1F
100
AcDbEntity
  8
6-家具-143
 62
   143
100
AcDbLine
 10
1036.798560380703
 20
347.9884242614472
 30
-0.0000000000000696
 11
1042.807616910344
 21
348.4887511806419
 31
-0.0000000000000697
  0
LINE
  5
507
330
1F
100
AcDbEntity
  8
6-家具-143
 62
   143
100
AcDbLine
 10
1039.302333934727
 20
344.9864627464532
 30
-0.000000000000069
 11
1036.798560380703
 21
347.9884242614472
 31
-0.0000000000000696
  0
LINE
  5
508
330
1F
100
AcDbEntity
  8
6-家具-143
 62
   143
100
AcDbLine
 10
1049.317428150796
 20
343.9858089080635
 30
-0.0000000000000688
 11
1039.302333934727
 21
344.9864627464532
 31
-0.000000000000069
  0
LINE
  5
509
330
1F
100
AcDbEntity
  8
6-家具-143
 62
   143
100
AcDbLine
 10
1056.82874881287
 20
344.9864627464532
 30
-0.000000000000069
 11
1049.317428150796
 21
343.9858089080635
 31
-0.0000000000000688
  0
LINE
  5
50A
330
1F
100
AcDbEntity
  8
6-家具-143
 62
   143
100
AcDbLine
 10
1065.341578896507
 20
351.9910396148307
 30
-0.0000000000000704
 11
1056.82874881287
 21
344.9864627464532
 31
-0.000000000000069
  0
LINE
  5
50B
330
1F
100
AcDbEntity
  8
6-家具-143
 62
   143
100
AcDbLine
 10
1067.344597739721
 20
352.9916934532203
 30
-0.0000000000000706
 11
1065.341578896507
 21
351.9910396148307
 31
-0.0000000000000704
  0
LINE
  5
50C
330
1F
100
AcDbEntity
  8
6-家具-143
 62
   143
100
AcDbLine
 10
1069.848371293745
 20
350.4900588573046
 30
-0.0000000000000701
 11
1067.344597739721
 21
352.9916934532203
 31
-0.0000000000000706
  0
LINE
  5
50D
330
1F
100
AcDbEntity
  8
6-家具-143
 62
   143
100
AcDbLine
 10
1080.864974931436
 20
353.9923472915516
 30
-0.0000000000000708
 11
1069.848371293745
 21
350.4900588573046
 31
-0.0000000000000701
  0
LINE
  5
50E
330
1F
100
AcDbEntity
  8
6-家具-143
 62
   143
100
AcDbLine
 10
1096.388370966335
 20
351.4907126956942
 30
-0.0000000000000703
 11
1080.864974931436
 21
353.9923472915516
 31
-0.0000000000000708
  0
LINE
  5
50F
330
1F
100
AcDbEntity
  8
6-家具-143
 62
   143
100
AcDbLine
 10
1122.928370638925
 20
342.4848281505374
 30
-0.0000000000000685
 11
1096.388370966335
 21
351.4907126956942
 31
-0.0000000000000703
  0
LINE
  5
510
330
1F
100
AcDbEntity
  8
6-家具-143
 62
   143
100
AcDbLine
 10
1126.433653614542
 20
343.4854819889269
 30
-0.0000000000000687
 11
1122.928370638925
 21
342.4848281505374
 31
-0.0000000000000685
  0
LINE
  5
511
330
1F
100
AcDbEntity
  8
6-家具-143
 62
   143
100
AcDbLine
 10
1145.963087335869
 20
324.4730590603404
 30
-0.0000000000000649
 11
1126.433653614542
 21
343.4854819889269
 31
-0.0000000000000687
  0
LINE
  5
512
330
1F
100
AcDbEntity
  8
6-家具-143
 62
   143
100
AcDbLine
 10
1071.851389226649
 20
352.9916932792958
 30
-0.0000000000000553
 11
1073.854408433283
 21
360.4965965137207
 31
-0.0000000000000796
  0
LINE
  5
513
330
1F
100
AcDbEntity
  8
6-家具-143
 62
   143
100
AcDbLine
 10
1073.854408433283
 20
360.4965965137207
 30
-0.0000000000000796
 11
1072.852898829966
 21
368.5018280397608
 31
-0.0000000000001021
  0
LINE
  5
514
330
1F
100
AcDbEntity
  8
6-家具-143
 62
   143
100
AcDbLine
 10
1228.587614618446
 20
378.0080394118531
 30
-0.0000000000000756
 11
1220.07478453478
 21
363.9988856750397
 31
-0.0000000000000728
  0
LINE
  5
515
330
1F
100
AcDbEntity
  8
6-家具-143
 62
   143
100
AcDbLine
 10
1235.598180569708
 20
412.5305968347793
 30
-0.0000000000000825
 11
1228.587614618446
 21
378.0080394118531
 31
-0.0000000000000756
  0
LINE
  5
516
330
1F
100
AcDbEntity
  8
6-家具-143
 62
   143
100
AcDbLine
 10
1237.601199412922
 20
427.5404044099822
 30
-0.0000000000000855
 11
1235.598180569708
 21
412.5305968347793
 31
-0.0000000000000825
  0
LINE
  5
517
330
1F
100
AcDbEntity
  8
6-家具-143
 62
   143
100
AcDbLine
 10
1241.60723709935
 20
427.5404044099822
 30
-0.0000000000000855
 11
1237.601199412922
 21
427.5404044099822
 31
-0.0000000000000855
  0
LINE
  5
518
330
1F
100
AcDbEntity
  8
6-家具-143
 62
   143
100
AcDbLine
 10
1240.605727677728
 20
429.5417120867031
 30
-0.0000000000000859
 11
1241.60723709935
 21
427.5404044099822
 31
-0.0000000000000855
  0
LINE
  5
519
330
1F
100
AcDbEntity
  8
6-家具-143
 62
   143
100
AcDbLine
 10
1233.595161726495
 20
435.0453081976128
 30
-0.000000000000087
 11
1240.605727677728
 21
429.5417120867031
 31
-0.0000000000000859
  0
LINE
  5
51A
330
1F
100
AcDbEntity
  8
6-家具-143
 62
   143
100
AcDbLine
 10
1233.595161726495
 20
440.0485773893278
 30
-0.000000000000088
 11
1233.595161726495
 21
435.0453081976128
 31
-0.000000000000087
  0
LINE
  5
51B
330
1F
100
AcDbEntity
  8
6-家具-143
 62
   143
100
AcDbLine
 10
1230.089878750849
 20
446.0525004193741
 30
-0.0000000000000892
 11
1233.595161726495
 21
440.0485773893278
 31
-0.000000000000088
  0
LINE
  5
51C
330
1F
100
AcDbEntity
  8
6-家具-143
 62
   143
100
AcDbLine
 10
1229.088369329256
 20
450.055115772816
 30
-0.00000000000009
 11
1230.089878750849
 21
446.0525004193741
 31
-0.0000000000000892
  0
LINE
  5
51D
330
1F
100
AcDbEntity
  8
6-家具-143
 62
   143
100
AcDbLine
 10
1231.09138817247
 20
451.0557696111471
 30
-0.0000000000000902
 11
1229.088369329256
 21
450.055115772816
 31
-0.00000000000009
  0
LINE
  5
51E
330
1F
100
AcDbEntity
  8
6-家具-143
 62
   143
100
AcDbLine
 10
1234.095916437276
 20
448.053808096095
 30
-0.0000000000000896
 11
1231.09138817247
 21
451.0557696111471
 31
-0.0000000000000902
  0
LINE
  5
51F
330
1F
100
AcDbEntity
  8
6-家具-143
 62
   143
100
AcDbLine
 10
1254.626859580225
 20
442.5502119851853
 30
-0.0000000000000885
 11
1253.124595447821
 21
455.0583849645309
 31
-0.000000000000091
  0
LINE
  5
520
330
1F
100
AcDbEntity
  8
6-家具-143
 62
   143
100
AcDbLine
 10
1254.626859580225
 20
429.5417120867031
 30
-0.0000000000000859
 11
1254.626859580225
 21
442.5502119851853
 31
-0.0000000000000885
  0
LINE
  5
521
330
1F
100
AcDbEntity
  8
6-家具-143
 62
   143
100
AcDbLine
 10
1260.635916109866
 20
426.0394236524562
 30
-0.0000000000000852
 11
1254.626859580225
 21
429.5417120867031
 31
-0.0000000000000859
  0
LINE
  5
522
330
1F
100
AcDbEntity
  8
6-家具-143
 62
   143
100
AcDbLine
 10
1264.141199085483
 20
407.5273276430642
 30
-0.0000000000000815
 11
1260.635916109866
 21
426.0394236524562
 31
-0.0000000000000852
  0
LINE
  5
523
330
1F
100
AcDbEntity
  8
6-家具-143
 62
   143
100
AcDbLine
 10
1258.632897266652
 20
378.0080394118531
 30
-0.0000000000000756
 11
1264.141199085483
 21
407.5273276430642
 31
-0.0000000000000815
  0
LINE
  5
524
330
1F
100
AcDbEntity
  8
6-家具-143
 62
   143
100
AcDbLine
 10
1250.620821893797
 20
354.4926742107464
 30
-0.0000000000000709
 11
1258.632897266652
 21
378.0080394118531
 31
-0.0000000000000756
  0
LINE
  5
525
330
1F
100
AcDbEntity
  8
6-家具-143
 62
   143
100
AcDbLine
 10
1161.720659240644
 20
435.0820966878063
 30
-0.000000000000087
 11
1161.720659240644
 21
457.7115889122332
 31
-0.0000000000000916
  0
LINE
  5
526
330
1F
100
AcDbEntity
  8
6-家具-143
 62
   143
100
AcDbLine
 10
1159.661673696275
 20
415.1955732178731
 30
-0.0000000000000831
 11
1161.720659240644
 21
435.0820966878063
 31
-0.000000000000087
  0
LINE
  5
527
330
1F
100
AcDbEntity
  8
6-家具-143
 62
   143
100
AcDbLine
 10
1159.661673696275
 20
400.1092450682746
 30
-0.00000000000008
 11
1159.661673696275
 21
415.1955732178731
 31
-0.0000000000000831
  0
LINE
  5
528
330
1F
100
AcDbEntity
  8
6-家具-143
 62
   143
100
AcDbLine
 10
1148.466860889894
 20
382.5109816844316
 30
-0.0000000000000765
 11
1147.966106179083
 21
368.5018279475599
 31
-0.0000000000000737
  0
LINE
  5
529
330
1F
100
AcDbEntity
  8
6-家具-143
 62
   143
100
AcDbLine
 10
1147.465351468272
 20
397.0204623404399
 30
-0.0000000000000794
 11
1148.466860889894
 21
382.5109816844316
 31
-0.0000000000000765
  0
LINE
  5
52A
330
1F
100
AcDbEntity
  8
6-家具-143
 62
   143
100
AcDbLine
 10
1151.4713891547
 20
385.012616280289
 30
-0.000000000000077
 11
1147.465351468272
 21
397.0204623404399
 31
-0.0000000000000794
  0
LINE
  5
52B
330
1F
100
AcDbEntity
  8
6-家具-143
 62
   143
100
AcDbLine
 10
1153.474407997914
 20
376.507058654327
 30
-0.0000000000000753
 11
1151.4713891547
 21
385.012616280289
 31
-0.000000000000077
  0
LINE
  5
52C
330
1F
100
AcDbEntity
  8
6-家具-143
 62
   143
100
AcDbLine
 10
1155.978181551938
 20
354.4926742107464
 30
-0.0000000000000709
 11
1153.474407997914
 21
376.507058654327
 31
-0.0000000000000753
  0
LINE
  5
52D
330
1F
100
AcDbEntity
  8
6-家具-143
 62
   143
100
AcDbLine
 10
1144.460823203466
 20
376.0067317351324
 30
-0.0000000000000752
 11
1145.963087335869
 21
374.5057509776643
 31
-0.0000000000000749
  0
LINE
  5
52E
330
1F
100
AcDbEntity
  8
6-家具-143
 62
   143
100
AcDbLine
 10
1106.904219893215
 20
375.5064048159957
 30
-0.0000000000000751
 11
1144.460823203466
 21
376.0067317351324
 31
-0.0000000000000752
  0
LINE
  5
52F
330
1F
100
AcDbEntity
  8
6-家具-143
 62
   143
100
AcDbLine
 10
1226.083841064421
 20
390.5162123911987
 30
-0.0000000000000781
 11
1231.09138817247
 21
393.0178469870562
 31
-0.0000000000000786
  0
LINE
  5
530
330
1F
100
AcDbEntity
  8
6-家具-143
 62
   143
100
AcDbLine
 10
1211.061199740332
 20
392.0171931487249
 30
-0.0000000000000784
 11
1226.083841064421
 21
390.5162123911987
 31
-0.0000000000000781
  0
LINE
  5
531
330
1F
100
AcDbEntity
  8
6-家具-143
 62
   143
100
AcDbLine
 10
1192.533275440597
 20
393.0178469870562
 30
-0.0000000000000786
 11
1211.061199740332
 21
392.0171931487249
 31
-0.0000000000000784
  0
LINE
  5
532
330
1F
100
AcDbEntity
  8
6-家具-143
 62
   143
100
AcDbLine
 10
1179.012898248912
 20
397.0204623404399
 30
-0.0000000000000794
 11
1192.533275440597
 21
393.0178469870562
 31
-0.0000000000000786
  0
LINE
  5
533
330
1F
100
AcDbEntity
  8
6-家具-143
 62
   143
100
AcDbLine
 10
1165.993275768007
 20
399.5220969362973
 30
-0.0000000000000799
 11
1179.012898248912
 21
397.0204623404399
 31
-0.0000000000000794
  0
LINE
  5
534
330
1F
100
AcDbEntity
  8
6-家具-143
 62
   143
100
AcDbLine
 10
1159.483464527555
 20
398.5214430979659
 30
-0.0000000000000797
 11
1165.993275768007
 21
399.5220969362973
 31
-0.0000000000000799
  0
LINE
  5
535
330
1F
100
AcDbEntity
  8
6-家具-143
 62
   143
100
AcDbLine
 10
1158.481955105963
 20
391.0165393103353
 30
-0.0000000000000782
 11
1159.483464527555
 21
398.5214430979659
 31
-0.0000000000000797
  0
LINE
  5
536
330
1F
100
AcDbEntity
  8
6-家具-143
 62
   143
100
AcDbLine
 10
1156.97969097356
 20
377.0073855735218
 30
-0.0000000000000754
 11
1158.481955105963
 21
391.0165393103353
 31
-0.0000000000000782
  0
LINE
  5
537
330
1F
100
AcDbEntity
  8
6-家具-143
 62
   143
100
AcDbLine
 10
1159.984219238366
 20
367.5011741092286
 30
-0.0000000000000735
 11
1156.97969097356
 21
377.0073855735218
 31
-0.0000000000000754
  0
LINE
  5
538
330
1F
100
AcDbEntity
  8
6-家具-143
 62
   143
100
AcDbLine
 10
1240.605728766299
 20
425.5390968493274
 30
-0.0000000000000721
 11
1248.61780395743
 21
424.5384423800833
 31
-0.0000000000000847
  0
LINE
  5
539
330
1F
100
AcDbEntity
  8
6-家具-143
 62
   143
100
AcDbLine
 10
1248.61780395743
 20
424.5384423800833
 30
-0.0000000000000847
 11
1258.132142735849
 21
425.5390968493274
 31
-0.0000000000000904
  0
LINE
  5
53A
330
1F
100
AcDbEntity
  8
6-家具-143
 62
   143
100
AcDbLine
 10
1235.598180569708
 20
467.5665579438763
 30
-0.0000000000000935
 11
1232.593652304873
 21
466.0655771863503
 31
-0.0000000000000932
  0
LINE
  5
53B
330
1F
100
AcDbEntity
  8
6-家具-143
 62
   143
100
AcDbLine
 10
1236.09893528049
 20
470.0681925397339
 30
-0.000000000000094
 11
1235.598180569708
 21
467.5665579438763
 31
-0.0000000000000935
  0
LINE
  5
53C
330
1F
100
AcDbEntity
  8
6-家具-143
 62
   143
100
AcDbLine
 10
1239.103463545325
 20
471.5691732972016
 30
-0.0000000000000943
 11
1236.09893528049
 21
470.0681925397339
 31
-0.000000000000094
  0
LINE
  5
53D
330
1F
100
AcDbEntity
  8
6-家具-143
 62
   143
100
AcDbLine
 10
1242.107991810131
 20
466.5659041054868
 30
-0.0000000000000933
 11
1239.103463545325
 21
471.5691732972016
 31
-0.0000000000000943
  0
LINE
  5
53E
330
1F
100
AcDbEntity
  8
6-家具-143
 62
   143
100
AcDbLine
 10
1245.112520074967
 20
466.5659041054868
 30
-0.0000000000000933
 11
1242.107991810131
 21
466.5659041054868
 31
-0.0000000000000933
  0
LINE
  5
53F
330
1F
100
AcDbEntity
  8
6-家具-143
 62
   143
100
AcDbLine
 10
1248.117048339772
 20
463.5639425904346
 30
-0.0000000000000927
 11
1245.112520074967
 21
466.5659041054868
 31
-0.0000000000000933
  0
LINE
  5
540
330
1F
100
AcDbEntity
  8
6-家具-143
 62
   143
100
AcDbLine
 10
1251.622331315419
 20
463.5639425904346
 30
-0.0000000000000927
 11
1248.117048339772
 21
463.5639425904346
 31
-0.0000000000000927
  0
LINE
  5
541
330
1F
100
AcDbEntity
  8
6-家具-143
 62
   143
100
AcDbLine
 10
1185.742157258443
 20
462.5117842325679
 30
-0.0000000000000925
 11
1184.142687665473
 21
458.0117850433425
 31
-0.0000000000000916
  0
LINE
  5
542
330
1F
100
AcDbEntity
  8
6-家具-143
 62
   143
100
AcDbLine
 10
1232.593652304873
 20
466.0655771863503
 30
-0.0000000000000932
 11
1234.095916437276
 21
448.053808096095
 31
-0.0000000000000896
  0
LINE
  5
543
330
1F
100
AcDbEntity
  8
6-家具-143
 62
   143
100
AcDbLine
 10
1253.124595447821
 20
455.0583849645309
 30
-0.000000000000091
 11
1251.622331315419
 21
463.5639425904346
 31
-0.0000000000000927
  0
LINE
  5
544
330
1F
100
AcDbEntity
  8
6-家具-143
 62
   143
100
AcDbLine
 10
1184.142687665473
 20
458.0117850433425
 30
-0.0000000000000916
 11
1182.390044877247
 21
440.1824881392504
 31
-0.000000000000088
  0
LINE
  5
545
330
1F
100
AcDbEntity
  8
6-家具-143
 62
   143
100
AcDbLine
 10
1230.353510720044
 20
533.8289718489368
 30
-0.0000000000001068
 11
1238.589452897577
 21
470.7406904959906
 31
-0.0000000000000942
  0
LINE
  5
546
330
1F
100
AcDbEntity
  8
6-家具-143
 62
   143
100
AcDbLine
 10
1232.412496264442
 20
540.6863937351126
 30
-0.0000000000001082
 11
1230.353510720044
 21
533.8289718489368
 31
-0.0000000000001068
  0
LINE
  5
547
330
1F
100
AcDbEntity
  8
6-家具-143
 62
   143
100
AcDbLine
 10
1235.15781032361
 20
644.2334642165779
 30
-0.0000000000001289
 11
1232.412496264442
 21
540.6863937351126
 31
-0.0000000000001082
  0
LINE
  5
548
330
1F
100
AcDbEntity
  8
6-家具-143
 62
   143
100
AcDbLine
 10
1231.726167749643
 20
644.9192064052303
 30
-0.000000000000129
 11
1235.15781032361
 21
644.2334642165779
 31
-0.0000000000001289
  0
LINE
  5
549
330
1F
100
AcDbEntity
  8
6-家具-143
 62
   143
100
AcDbLine
 10
1237.903124382806
 20
653.148112668653
 30
-0.0000000000001306
 11
1231.726167749643
 21
644.9192064052303
 31
-0.000000000000129
  0
LINE
  5
54A
330
1F
100
AcDbEntity
  8
6-家具-143
 62
   143
100
AcDbLine
 10
1236.530467353208
 20
658.6340501775821
 30
-0.0000000000001317
 11
1237.903124382806
 21
653.148112668653
 31
-0.0000000000001306
  0
LINE
  5
54B
330
1F
100
AcDbEntity
  8
6-家具-143
 62
   143
100
AcDbLine
 10
1174.760901021742
 20
657.2625658003352
 30
-0.0000000000001315
 11
1236.530467353208
 21
658.6340501775821
 31
-0.0000000000001317
  0
LINE
  5
54C
330
1F
100
AcDbEntity
  8
6-家具-143
 62
   143
100
AcDbLine
 10
1141.817132311611
 20
657.9483079889877
 30
-0.0000000000001316
 11
1174.760901021742
 21
657.2625658003352
 31
-0.0000000000001315
  0
LINE
  5
54D
330
1F
100
AcDbEntity
  8
6-家具-143
 62
   143
100
AcDbLine
 10
1128.090562015743
 20
655.8910814230885
 30
-0.0000000000001312
 11
1141.817132311611
 21
657.9483079889877
 31
-0.0000000000001316
  0
LINE
  5
54E
330
1F
100
AcDbEntity
  8
6-家具-143
 62
   143
100
AcDbLine
 10
1135.640175678476
 20
648.3479173483182
 30
-0.0000000000001297
 11
1128.090562015743
 21
655.8910814230885
 31
-0.0000000000001312
  0
LINE
  5
54F
330
1F
100
AcDbEntity
  8
6-家具-143
 62
   143
100
AcDbLine
 10
1149.366745974345
 20
644.2334642165779
 30
-0.0000000000001289
 11
1135.640175678476
 21
648.3479173483182
 31
-0.0000000000001297
  0
LINE
  5
550
330
1F
100
AcDbEntity
  8
6-家具-143
 62
   143
100
AcDbLine
 10
1162.406987755443
 20
637.376042330402
 30
-0.0000000000001275
 11
1149.366745974345
 21
644.2334642165779
 31
-0.0000000000001289
  0
LINE
  5
551
330
1F
100
AcDbEntity
  8
6-家具-143
 62
   143
100
AcDbLine
 10
1171.329258447775
 20
637.376042330402
 30
-0.0000000000001275
 11
1162.406987755443
 21
637.376042330402
 31
-0.0000000000001275
  0
LINE
  5
552
330
1F
100
AcDbEntity
  8
6-家具-143
 62
   143
100
AcDbLine
 10
1165.152301814611
 20
632.5758470100672
 30
-0.0000000000001265
 11
1171.329258447775
 21
637.376042330402
 31
-0.0000000000001275
  0
LINE
  5
553
330
1F
100
AcDbEntity
  8
6-家具-143
 62
   143
100
AcDbLine
 10
1165.152301814611
 20
546.8580734326941
 30
-0.0000000000001094
 11
1165.152301814611
 21
632.5758470100672
 31
-0.0000000000001265
  0
LINE
  5
554
330
1F
100
AcDbEntity
  8
6-家具-143
 62
   143
100
AcDbLine
 10
1161.034330725844
 20
536.5719406034304
 30
-0.0000000000001073
 11
1165.152301814611
 21
546.8580734326941
 31
-0.0000000000001094
  0
LINE
  5
555
330
1F
100
AcDbEntity
  8
6-家具-143
 62
   143
100
AcDbLine
 10
1193.291770921176
 20
535.2004562261836
 30
-0.0000000000001071
 11
1185.742157258443
 21
462.5117842325679
 31
-0.0000000000000925
  0
LINE
  5
556
330
1F
100
AcDbEntity
  8
6-家具-143
 62
   143
100
AcDbLine
 10
1198.782399039541
 20
555.7727218847693
 30
-0.0000000000001112
 11
1193.291770921176
 21
535.2004562261836
 31
-0.0000000000001071
  0
LINE
  5
557
330
1F
100
AcDbEntity
  8
6-家具-143
 62
   143
100
AcDbLine
 10
1197.409742009943
 20
637.376042330402
 30
-0.0000000000001275
 11
1198.782399039541
 21
555.7727218847693
 31
-0.0000000000001112
  0
LINE
  5
558
330
1F
100
AcDbEntity
  8
6-家具-143
 62
   143
100
AcDbLine
 10
1210.449983791041
 20
642.1762376507367
 30
-0.0000000000001284
 11
1197.409742009943
 21
637.376042330402
 31
-0.0000000000001275
  0
LINE
  5
559
330
1F
100
AcDbEntity
  8
6-家具-143
 62
   143
100
AcDbLine
 10
1194.664427950774
 20
641.4904954621427
 30
-0.0000000000001283
 11
1210.449983791041
 21
642.1762376507367
 31
-0.0000000000001284
  0
LINE
  5
55A
330
1F
100
AcDbEntity
  8
6-家具-143
 62
   143
100
AcDbLine
 10
1183.683171714074
 20
646.290690782419
 30
-0.0000000000001293
 11
1194.664427950774
 21
641.4904954621427
 31
-0.0000000000001283
  0
LINE
  5
55B
330
1F
100
AcDbEntity
  8
6-家具-143
 62
   143
100
AcDbLine
 10
1170.642929932976
 20
653.148112668653
 30
-0.0000000000001306
 11
1183.683171714074
 21
646.290690782419
 31
-0.0000000000001293
  0
LINE
  5
55C
330
1F
100
AcDbEntity
  8
6-家具-143
 62
   143
100
AcDbLine
 10
1170.642929932976
 20
657.2625658003352
 30
-0.0000000000001315
 11
1170.642929932976
 21
653.148112668653
 31
-0.0000000000001306
  0
LINE
  5
55D
330
1F
100
AcDbEntity
  8
6-家具-143
 62
   143
100
AcDbLine
 10
1161.720659240644
 20
457.7115889122332
 30
-0.0000000000000916
 11
1161.034330725844
 21
536.5719406034304
 31
-0.0000000000001073
  0
LINE
  5
55E
330
1F
100
AcDbEntity
  8
6-家具-143
 62
   143
100
AcDbLine
 10
1199.968009865261
 20
248.6352713760545
 30
-0.0000000000000497
 11
1197.570278495929
 21
255.1689522915377
 31
-0.000000000000051
  0
LINE
  5
55F
330
1F
100
AcDbEntity
  8
6-家具-143
 62
   143
100
AcDbLine
 10
1201.057887760399
 20
246.45737773756
 30
-0.0000000000000493
 11
1199.968009865261
 21
248.6352713760545
 31
-0.0000000000000497
  0
LINE
  5
560
330
1F
100
AcDbEntity
  8
6-家具-143
 62
   143
100
AcDbLine
 10
1194.736595968541
 20
209.2153965191656
 30
-0.0000000000000419
 11
1197.570278495929
 21
208.5620284276057
 31
-0.0000000000000417
  0
LINE
  5
561
330
1F
100
AcDbEntity
  8
6-家具-143
 62
   143
100
AcDbLine
 10
1192.992791336291
 20
207.6908709722312
 30
-0.0000000000000416
 11
1194.736595968541
 21
209.2153965191656
 31
-0.0000000000000419
  0
LINE
  5
562
330
1F
100
AcDbEntity
  8
6-家具-143
 62
   143
100
AcDbLine
 10
1179.26032985744
 20
206.1663454252967
 30
-0.0000000000000412
 11
1192.992791336291
 21
207.6908709722312
 31
-0.0000000000000416
  0
LINE
  5
563
330
1F
100
AcDbEntity
  8
6-家具-143
 62
   143
100
AcDbLine
 10
1165.30989279956
 20
205.7307666976095
 30
-0.0000000000000412
 11
1179.26032985744
 21
206.1663454252967
 31
-0.0000000000000412
  0
LINE
  5
564
330
1F
100
AcDbEntity
  8
6-家具-143
 62
   143
100
AcDbLine
 10
1158.552649849647
 20
207.4730816083585
 30
-0.0000000000000415
 11
1165.30989279956
 21
205.7307666976095
 31
-0.0000000000000412
  0
LINE
  5
565
330
1F
100
AcDbEntity
  8
6-家具-143
 62
   143
100
AcDbLine
 10
1154.411113848065
 20
210.9577114299727
 30
-0.0000000000000422
 11
1158.552649849647
 21
207.4730816083585
 31
-0.0000000000000415
  0
LINE
  5
566
330
1F
100
AcDbEntity
  8
6-家具-143
 62
   143
100
AcDbLine
 10
1153.539211531956
 20
213.5711837962126
 30
-0.0000000000000427
 11
1154.411113848065
 21
210.9577114299727
 31
-0.0000000000000422
  0
LINE
  5
567
330
1F
100
AcDbEntity
  8
6-家具-143
 62
   143
100
AcDbLine
 10
1155.283016164205
 20
213.1356050684673
 30
-0.0000000000000426
 11
1153.539211531956
 21
213.5711837962126
 31
-0.0000000000000427
  0
LINE
  5
568
330
1F
100
AcDbEntity
  8
6-家具-143
 62
   143
100
AcDbLine
 10
1153.321235952928
 20
217.7091817093288
 30
-0.0000000000000436
 11
1155.283016164205
 21
213.1356050684673
 31
-0.0000000000000426
  0
LINE
  5
569
330
1F
100
AcDbEntity
  8
6-家具-143
 62
   143
100
AcDbLine
 10
1151.35945574165
 20
225.9851775356192
 30
-0.0000000000000452
 11
1153.321235952928
 21
217.7091817093288
 31
-0.0000000000000436
  0
LINE
  5
56A
330
1F
100
AcDbEntity
  8
6-家具-143
 62
   143
100
AcDbLine
 10
1151.141480162624
 20
231.2121222680407
 30
-0.0000000000000463
 11
1151.35945574165
 21
225.9851775356192
 31
-0.0000000000000452
  0
LINE
  5
56B
330
1F
100
AcDbEntity
  8
6-家具-143
 62
   143
100
AcDbLine
 10
1151.577431320679
 20
232.954437178848
 30
-0.0000000000000466
 11
1151.141480162624
 21
231.2121222680407
 31
-0.0000000000000463
  0
LINE
  5
56C
330
1F
100
AcDbEntity
  8
6-家具-143
 62
   143
100
AcDbLine
 10
1152.013382478763
 20
235.1323308173423
 30
-0.000000000000047
 11
1151.577431320679
 21
232.954437178848
 31
-0.0000000000000466
  0
LINE
  5
56D
330
1F
100
AcDbEntity
  8
6-家具-143
 62
   143
100
AcDbLine
 10
1150.923504583595
 20
239.705907458204
 30
-0.000000000000048
 11
1152.013382478763
 21
235.1323308173423
 31
-0.000000000000047
  0
LINE
  5
56E
330
1F
100
AcDbEntity
  8
6-家具-143
 62
   143
100
AcDbLine
 10
1149.397675530403
 20
243.84390537132
 30
-0.0000000000000488
 11
1150.923504583595
 21
239.705907458204
 31
-0.000000000000048
  0
LINE
  5
56F
330
1F
100
AcDbEntity
  8
6-家具-143
 62
   143
100
AcDbLine
 10
1148.525773214264
 20
246.6751671013744
 30
-0.0000000000000493
 11
1149.397675530403
 21
243.84390537132
 31
-0.0000000000000488
  0
LINE
  5
570
330
1F
100
AcDbEntity
  8
6-家具-143
 62
   143
100
AcDbLine
 10
1150.487553425541
 20
248.1996926483671
 30
-0.0000000000000497
 11
1148.525773214264
 21
246.6751671013744
 31
-0.0000000000000493
  0
LINE
  5
571
330
1F
100
AcDbEntity
  8
6-家具-143
 62
   143
100
AcDbLine
 10
1152.23135805779
 20
253.4266373807305
 30
-0.0000000000000507
 11
1150.487553425541
 21
248.1996926483671
 31
-0.0000000000000497
  0
LINE
  5
572
330
1F
100
AcDbEntity
  8
6-家具-143
 62
   143
100
AcDbLine
 10
1152.885284794873
 20
255.8223203830977
 30
-0.0000000000000512
 11
1152.23135805779
 21
253.4266373807305
 31
-0.0000000000000507
  0
LINE
  5
573
330
1F
100
AcDbEntity
  8
6-家具-143
 62
   143
100
AcDbLine
 10
1157.46277195448
 20
211.6110795215327
 30
-0.0000000000000423
 11
1154.84706500612
 21
212.4822369769072
 31
-0.0000000000000425
  0
LINE
  5
574
330
1F
100
AcDbEntity
  8
6-家具-143
 62
   143
100
AcDbLine
 10
1162.912161430228
 20
210.0865539745984
 30
-0.000000000000042
 11
1157.46277195448
 21
211.6110795215327
 31
-0.0000000000000423
  0
LINE
  5
575
330
1F
100
AcDbEntity
  8
6-家具-143
 62
   143
100
AcDbLine
 10
1169.887379959168
 20
209.2153965191656
 30
-0.0000000000000419
 11
1162.912161430228
 21
210.0865539745984
 31
-0.000000000000042
  0
LINE
  5
576
330
1F
100
AcDbEntity
  8
6-家具-143
 62
   143
100
AcDbLine
 10
1172.939038065582
 20
209.4331858830384
 30
-0.0000000000000419
 11
1169.887379959168
 21
209.2153965191656
 31
-0.0000000000000419
  0
LINE
  5
577
330
1F
100
AcDbEntity
  8
6-家具-143
 62
   143
100
AcDbLine
 10
1175.990696171997
 20
210.5221327022855
 30
-0.0000000000000421
 11
1172.939038065582
 21
209.4331858830384
 31
-0.0000000000000419
  0
LINE
  5
578
330
1F
100
AcDbEntity
  8
6-家具-143
 62
   143
100
AcDbLine
 10
1178.606403120357
 20
211.3932901576601
 30
-0.0000000000000423
 11
1175.990696171997
 21
210.5221327022855
 31
-0.0000000000000421
  0
LINE
  5
579
330
1F
100
AcDbEntity
  8
6-家具-143
 62
   143
100
AcDbLine
 10
1175.990696171997
 20
212.0466582492199
 30
-0.0000000000000424
 11
1178.606403120357
 21
211.3932901576601
 31
-0.0000000000000423
  0
LINE
  5
57A
330
1F
100
AcDbEntity
  8
6-家具-143
 62
   143
100
AcDbLine
 10
1173.374989223637
 20
214.4423412515871
 30
-0.0000000000000429
 11
1175.990696171997
 21
212.0466582492199
 31
-0.0000000000000424
  0
LINE
  5
57B
330
1F
100
AcDbEntity
  8
6-家具-143
 62
   143
100
AcDbLine
 10
1172.067135749472
 20
217.9269710732016
 30
-0.0000000000000436
 11
1173.374989223637
 21
214.4423412515871
 31
-0.0000000000000429
  0
LINE
  5
57C
330
1F
100
AcDbEntity
  8
6-家具-143
 62
   143
100
AcDbLine
 10
1172.721062486554
 20
223.1539158055648
 30
-0.0000000000000446
 11
1172.067135749472
 21
217.9269710732016
 31
-0.0000000000000436
  0
LINE
  5
57D
330
1F
100
AcDbEntity
  8
6-家具-143
 62
   143
100
AcDbLine
 10
1176.208671751025
 20
228.8164392656736
 30
-0.0000000000000458
 11
1172.721062486554
 21
223.1539158055648
 31
-0.0000000000000446
  0
LINE
  5
57E
330
1F
100
AcDbEntity
  8
6-家具-143
 62
   143
100
AcDbLine
 10
1177.952476383274
 20
234.2611733619679
 30
-0.0000000000000469
 11
1176.208671751025
 21
228.8164392656736
 31
-0.0000000000000458
  0
LINE
  5
57F
330
1F
100
AcDbEntity
  8
6-家具-143
 62
   143
100
AcDbLine
 10
1180.13223217355
 20
237.0924350920223
 30
-0.0000000000000474
 11
1177.952476383274
 21
234.2611733619679
 31
-0.0000000000000469
  0
LINE
  5
580
330
1F
100
AcDbEntity
  8
6-家具-143
 62
   143
100
AcDbLine
 10
1181.658061226772
 20
237.3102244558369
 30
-0.0000000000000475
 11
1180.13223217355
 21
237.0924350920223
 31
-0.0000000000000474
  0
LINE
  5
581
330
1F
100
AcDbEntity
  8
6-家具-143
 62
   143
100
AcDbLine
 10
1182.74793912191
 20
236.6568563642768
 30
-0.0000000000000473
 11
1181.658061226772
 21
237.3102244558369
 31
-0.0000000000000475
  0
LINE
  5
582
330
1F
100
AcDbEntity
  8
6-家具-143
 62
   143
100
AcDbLine
 10
1195.172547126596
 20
246.2395883736872
 30
-0.0000000000000493
 11
1194.082669231459
 21
244.2794840990655
 31
-0.0000000000000489
  0
LINE
  5
583
330
1F
100
AcDbEntity
  8
6-家具-143
 62
   143
100
AcDbLine
 10
1195.390522705624
 20
249.0708501037417
 30
-0.0000000000000498
 11
1195.172547126596
 21
246.2395883736872
 31
-0.0000000000000493
  0
LINE
  5
584
330
1F
100
AcDbEntity
  8
6-家具-143
 62
   143
100
AcDbLine
 10
1195.390522705624
 20
252.7732692892288
 30
-0.0000000000000506
 11
1195.390522705624
 21
249.0708501037417
 31
-0.0000000000000498
  0
LINE
  5
585
330
1F
100
AcDbEntity
  8
6-家具-143
 62
   143
100
AcDbLine
 10
1196.480400600762
 20
255.1689522915377
 30
-0.000000000000051
 11
1195.390522705624
 21
252.7732692892288
 31
-0.0000000000000506
  0
LINE
  5
586
330
1F
100
AcDbEntity
  8
6-家具-143
 62
   143
100
AcDbLine
 10
1186.889475123462
 20
249.9420075591744
 30
-0.00000000000005
 11
1185.145670491242
 21
247.3285351929344
 31
-0.0000000000000495
  0
LINE
  5
587
330
1F
100
AcDbEntity
  8
6-家具-143
 62
   143
100
AcDbLine
 10
1188.415304176684
 20
250.1597969229888
 30
-0.00000000000005
 11
1186.889475123462
 21
249.9420075591744
 31
-0.00000000000005
  0
LINE
  5
588
330
1F
100
AcDbEntity
  8
6-家具-143
 62
   143
100
AcDbLine
 10
1191.031011125044
 20
248.8530607398689
 30
-0.0000000000000498
 11
1188.415304176684
 21
250.1597969229888
 31
-0.00000000000005
  0
LINE
  5
589
330
1F
100
AcDbEntity
  8
6-家具-143
 62
   143
100
AcDbLine
 10
1192.338864599209
 20
244.9328521906255
 30
-0.000000000000049
 11
1191.031011125044
 21
248.8530607398689
 31
-0.0000000000000498
  0
LINE
  5
58A
330
1F
100
AcDbEntity
  8
6-家具-143
 62
   143
100
AcDbLine
 10
1194.518620389514
 20
239.705907458204
 30
-0.000000000000048
 11
1192.338864599209
 21
244.9328521906255
 31
-0.000000000000049
  0
LINE
  5
58B
330
1F
100
AcDbEntity
  8
6-家具-143
 62
   143
100
AcDbLine
 10
1194.954571547569
 20
235.3501201812152
 30
-0.0000000000000471
 11
1194.518620389514
 21
239.705907458204
 31
-0.000000000000048
  0
LINE
  5
58C
330
1F
100
AcDbEntity
  8
6-家具-143
 62
   143
100
AcDbLine
 10
1193.428742494376
 20
231.8654903596007
 30
-0.0000000000000464
 11
1194.954571547569
 21
235.3501201812152
 31
-0.0000000000000471
  0
LINE
  5
58D
330
1F
100
AcDbEntity
  8
6-家具-143
 62
   143
100
AcDbLine
 10
1189.069230913767
 20
231.2121222680407
 30
-0.0000000000000463
 11
1193.428742494376
 21
231.8654903596007
 31
-0.0000000000000464
  0
LINE
  5
58E
330
1F
100
AcDbEntity
  8
6-家具-143
 62
   143
100
AcDbLine
 10
1185.799597228324
 20
233.3900159065353
 30
-0.0000000000000467
 11
1189.069230913767
 21
231.2121222680407
 31
-0.0000000000000463
  0
LINE
  5
58F
330
1F
100
AcDbEntity
  8
6-家具-143
 62
   143
100
AcDbLine
 10
1153.539211531956
 20
235.5679095450296
 30
-0.0000000000000471
 11
1152.23135805779
 21
236.0034882727169
 31
-0.0000000000000472
  0
LINE
  5
590
330
1F
100
AcDbEntity
  8
6-家具-143
 62
   143
100
AcDbLine
 10
1152.667309215845
 20
234.6967520896551
 30
-0.000000000000047
 11
1153.539211531956
 21
235.5679095450296
 31
-0.0000000000000471
  0
LINE
  5
591
330
1F
100
AcDbEntity
  8
6-家具-143
 62
   143
100
AcDbLine
 10
1159.860503323812
 20
236.6568563642768
 30
-0.0000000000000473
 11
1157.898723112536
 21
236.4390670004624
 31
-0.0000000000000473
  0
LINE
  5
592
330
1F
100
AcDbEntity
  8
6-家具-143
 62
   143
100
AcDbLine
 10
1164.002039325365
 20
235.3501201812152
 30
-0.0000000000000471
 11
1159.860503323812
 21
236.6568563642768
 31
-0.0000000000000473
  0
LINE
  5
593
330
1F
100
AcDbEntity
  8
6-家具-143
 62
   143
100
AcDbLine
 10
1165.745843957615
 20
233.8255946342224
 30
-0.0000000000000468
 11
1164.002039325365
 21
235.3501201812152
 31
-0.0000000000000471
  0
LINE
  5
594
330
1F
100
AcDbEntity
  8
6-家具-143
 62
   143
100
AcDbLine
 10
1161.604307956062
 20
232.954437178848
 30
-0.0000000000000466
 11
1165.745843957615
 21
233.8255946342224
 31
-0.0000000000000468
  0
LINE
  5
595
330
1F
100
AcDbEntity
  8
6-家具-143
 62
   143
100
AcDbLine
 10
1156.59086963837
 20
232.3010690872879
 30
-0.0000000000000465
 11
1161.604307956062
 21
232.954437178848
 31
-0.0000000000000466
  0
LINE
  5
596
330
1F
100
AcDbEntity
  8
6-家具-143
 62
   143
100
AcDbLine
 10
1161.386332377006
 20
235.7856989089024
 30
-0.0000000000000503
 11
1158.552649849647
 21
234.9145414534697
 31
-0.000000000000049
  0
LINE
  5
597
330
1F
100
AcDbEntity
  8
6-家具-143
 62
   143
100
AcDbLine
 10
1154.84706658803
 20
254.7333734392279
 30
-0.000000000000041
 11
1156.590871432825
 21
254.2977938056547
 31
-0.0000000000000517
  0
LINE
  5
598
330
1F
100
AcDbEntity
  8
6-家具-143
 62
   143
100
AcDbLine
 10
1153.321235952928
 20
253.208848016916
 30
-0.0000000000000621
 11
1158.116697959951
 21
253.6444270465264
 31
-0.0000000000000545
  0
LINE
  5
599
330
1F
100
AcDbEntity
  8
6-家具-143
 62
   143
100
AcDbLine
 10
1150.269579003274
 20
246.6751672786751
 30
-0.0000000000000534
 11
1153.975163846771
 21
247.7641140979222
 31
-0.0000000000000276
  0
LINE
  5
ADE
330
1F
100
AcDbEntity
  8
0
 62
     1
 48
0.015
100
AcDbLine
 10
802.1182182053124
 20
483.8120298049692
 30
-0.0000000000000448
 11
802.1182182053124
 21
385.4541003926243
 31
-0.0000000000000251
  0
LINE
  5
ADF
330
1F
100
AcDbEntity
  8
0
 62
     1
 48
0.015
100
AcDbLine
 10
601.9099024144341
 20
483.8120298049692
 30
-0.0000000000000448
 11
601.9099024144341
 21
385.2450301155067
 31
-0.0000000000000251
  0
LINE
  5
AE0
330
1F
100
AcDbEntity
  8
0
 62
     1
 48
0.015
100
AcDbLine
 10
623.264060309873
 20
533.9575809624434
 30
-0.0000000000000548
 11
780.7640603098732
 21
533.9575809624434
 31
-0.0000000000000548
  0
LINE
  5
AE1
330
1F
100
AcDbEntity
  8
0
 62
     1
 48
0.01
100
AcDbLine
 10
623.264060309873
 20
533.9575809624434
 30
-0.0000000000000548
 11
601.9099024144341
 21
483.8120298049692
 31
-0.0000000000000448
  0
LINE
  5
AE2
330
1F
100
AcDbEntity
  8
0
 62
     1
 48
0.01
100
AcDbLine
 10
780.7640603098732
 20
533.9575809624434
 30
-0.0000000000000548
 11
802.1182182053124
 21
483.8120298049692
 31
-0.0000000000000448
  0
LINE
  5
AE3
330
1F
100
AcDbEntity
  8
0
 62
     1
 48
0.015
100
AcDbLine
 10
822.1527418686875
 20
385.1489402481199
 30
-0.0000000000000251
 11
582.5694453430111
 21
385.2450195499312
 31
-0.0000000000000251
  0
LINE
  5
AE4
330
1F
100
AcDbEntity
  8
0
 62
     1
 48
0.015
100
AcDbLine
 10
822.1408990495429
 20
355.6176926227698
 30
-0.0000000000000192
 11
582.5576025238511
 21
355.7137719245733
 31
-0.0000000000000192
  0
LINE
  5
AE5
330
1F
100
AcDbEntity
  8
0
 62
     1
 48
0.015
100
AcDbLine
 10
582.5694453430111
 20
385.2450195499312
 30
-0.0000000000000251
 11
582.5576025238511
 21
355.7137719245733
 31
-0.0000000000000192
  0
LINE
  5
AE6
330
1F
100
AcDbEntity
  8
0
 62
     1
 48
0.015
100
AcDbLine
 10
822.1527418686875
 20
385.1489402481199
 30
-0.0000000000000251
 11
822.1408990495429
 21
355.6176926227698
 31
-0.0000000000000192
  0
LINE
  5
AE7
330
1F
100
AcDbEntity
  8
0
 62
     1
 48
0.025
100
AcDbLine
 10
623.264060309873
 20
754.6657322736717
 30
-0.000000000000099
 11
623.264060309873
 21
533.9575809624434
 31
-0.0000000000000548
  0
LINE
  5
AE8
330
1F
100
AcDbEntity
  8
0
 62
     1
 48
0.015
100
AcDbLine
 10
780.7640603098732
 20
754.6657322736717
 30
-0.000000000000099
 11
780.7640603098732
 21
533.9575809624434
 31
-0.0000000000000548
  0
LINE
  5
AEB
330
1F
100
AcDbEntity
  8
0
 62
     1
100
AcDbLine
 10
623.2640603098732
 20
1010.25153487908
 30
-0.0000000000001501
 11
623.264060309873
 21
754.6657322736717
 31
-0.000000000000099
  0
LINE
  5
AEC
330
1F
100
AcDbEntity
  8
0
 62
     1
100
AcDbLine
 10
780.7640603098732
 20
1010.25153487908
 30
-0.0000000000001501
 11
780.7640603098732
 21
754.6657322736717
 31
-0.000000000000099
  0
LINE
  5
AED
330
1F
100
AcDbEntity
  8
0
 62
     3
 48
0.015
100
AcDbLine
 10
802.1182182053124
 20
389.5564057639626
 30
-0.0000000000001875
 11
802.1182182053124
 21
291.1984763516176
 31
-0.0000000000001678
  0
LINE
  5
AEE
330
1F
100
AcDbEntity
  8
0
 62
     3
 48
0.015
100
AcDbLine
 10
601.9099024144341
 20
389.5564057639626
 30
-0.0000000000001875
 11
601.9099024144341
 21
290.9894060744999
 31
-0.0000000000001678
  0
LINE
  5
AEF
330
1F
100
AcDbEntity
  8
0
 62
     3
 48
0.015
100
AcDbLine
 10
623.264060309873
 20
439.701956921437
 30
-0.0000000000001975
 11
780.7640603098732
 21
439.701956921437
 31
-0.0000000000001975
  0
LINE
  5
AF0
330
1F
100
AcDbEntity
  8
0
 62
     3
 48
0.01
100
AcDbLine
 10
623.264060309873
 20
439.701956921437
 30
-0.0000000000001975
 11
601.9099024144341
 21
389.5564057639626
 31
-0.0000000000001875
  0
LINE
  5
AF1
330
1F
100
AcDbEntity
  8
0
 62
     3
 48
0.01
100
AcDbLine
 10
780.7640603098732
 20
439.701956921437
 30
-0.0000000000001975
 11
802.1182182053124
 21
389.5564057639626
 31
-0.0000000000001875
  0
LINE
  5
AF2
330
1F
100
AcDbEntity
  8
0
 62
     3
 48
0.015
100
AcDbLine
 10
822.1527418686875
 20
290.8933162071132
 30
-0.0000000000001678
 11
582.5694453430111
 21
290.9893955089243
 31
-0.0000000000001678
  0
LINE
  5
AF3
330
1F
100
AcDbEntity
  8
0
 62
     3
 48
0.015
100
AcDbLine
 10
822.1408990495429
 20
261.3620685817632
 30
-0.0000000000001619
 11
582.5576025238511
 21
261.4581478835666
 31
-0.0000000000001619
  0
LINE
  5
AF4
330
1F
100
AcDbEntity
  8
0
 62
     3
 48
0.015
100
AcDbLine
 10
582.5694453430111
 20
290.9893955089243
 30
-0.0000000000001678
 11
582.5576025238511
 21
261.4581478835666
 31
-0.0000000000001619
  0
LINE
  5
AF5
330
1F
100
AcDbEntity
  8
0
 62
     3
 48
0.015
100
AcDbLine
 10
822.1527418686875
 20
290.8933162071132
 30
-0.0000000000001678
 11
822.1408990495429
 21
261.3620685817632
 31
-0.0000000000001619
  0
LINE
  5
AF6
330
1F
100
AcDbEntity
  8
0
 62
     3
 48
0.025
100
AcDbLine
 10
623.264060309873
 20
660.4101082326646
 30
-0.0000000000002417
 11
623.264060309873
 21
439.701956921437
 31
-0.0000000000001975
  0
LINE
  5
AF7
330
1F
100
AcDbEntity
  8
0
 62
     3
 48
0.015
100
AcDbLine
 10
780.7640603098732
 20
660.4101082326646
 30
-0.0000000000002417
 11
780.7640603098732
 21
439.701956921437
 31
-0.0000000000001975
  0
LINE
  5
AFA
330
1F
100
AcDbEntity
  8
0
 62
     3
100
AcDbLine
 10
623.2640603098732
 20
915.9959108380736
 30
-0.0000000000002928
 11
623.264060309873
 21
660.4101082326646
 31
-0.0000000000002417
  0
LINE
  5
AFB
330
1F
100
AcDbEntity
  8
0
 62
     3
100
AcDbLine
 10
780.7640603098732
 20
915.9959108380736
 30
-0.0000000000002928
 11
780.7640603098732
 21
660.4101082326646
 31
-0.0000000000002417
  0
LINE
  5
B1E
330
1F
100
AcDbEntity
  8
0
 62
     3
100
AcDbLine
 10
623.2640603098732
 20
915.9959108380736
 30
-0.0000000000001832
 11
662.6390603098732
 21
938.8578485409519
 31
0.0000000000000087
  0
LINE
  5
B1F
330
1F
100
AcDbEntity
  8
0
 62
     3
100
AcDbLine
 10
662.6390603098732
 20
938.8578485409519
 30
0.0000000000000087
 11
702.0140603098747
 21
915.9959108380713
 31
0.0000000000000087
  0
LINE
  5
B20
330
1F
100
AcDbEntity
  8
0
 62
     3
100
AcDbLine
 10
702.0140603098747
 20
915.9959108380713
 30
0.0000000000000087
 11
741.3890603098732
 21
893.1339731351918
 31
0.0000000000000087
  0
LINE
  5
B21
330
1F
100
AcDbEntity
  8
0
 62
     3
100
AcDbLine
 10
741.3890603098732
 20
893.1339731351918
 30
0.0000000000000087
 11
780.7640603098732
 21
915.9959108380736
 31
-0.0000000000001832
  0
LINE
  5
B22
330
1F
100
AcDbEntity
  8
0
 62
     3
100
AcDbLine
 10
702.0140603098747
 20
915.9959108380713
 30
-0.0000000000001832
 11
741.3890603098732
 21
938.8578485409558
 31
0.0000000000000087
  0
LINE
  5
B23
330
1F
100
AcDbEntity
  8
0
 62
     3
100
AcDbLine
 10
741.3890603098732
 20
938.8578485409558
 30
0.0000000000000087
 11
780.7640603098732
 21
915.9959108380739
 31
-0.0000000000001832
  0
LINE
  5
B24
330
1F
100
AcDbEntity
  8
0
 62
     1
100
AcDbLine
 10
741.3890603098732
 20
1033.113472581962
 30
0.0000000000000418
 11
780.7640603098732
 21
1010.251534879081
 31
-0.0000000000001501
  0
LINE
  5
B25
330
1F
100
AcDbEntity
  8
0
 62
     1
100
AcDbLine
 10
702.0140603098747
 20
1010.251534879078
 30
-0.0000000000001501
 11
741.3890603098732
 21
1033.113472581962
 31
0.0000000000000418
  0
LINE
  5
B26
330
1F
100
AcDbEntity
  8
0
 62
     1
100
AcDbLine
 10
741.3890603098732
 20
987.3895971761983
 30
0.0000000000000418
 11
780.7640603098732
 21
1010.25153487908
 31
-0.0000000000001501
  0
LINE
  5
B27
330
1F
100
AcDbEntity
  8
0
 62
     1
100
AcDbLine
 10
702.0140603098747
 20
1010.251534879078
 30
0.0000000000000418
 11
741.3890603098732
 21
987.3895971761983
 31
0.0000000000000418
  0
LINE
  5
B28
330
1F
100
AcDbEntity
  8
0
 62
     1
100
AcDbLine
 10
662.6390603098732
 20
1033.113472581959
 30
0.0000000000000418
 11
702.0140603098747
 21
1010.251534879078
 31
0.0000000000000418
  0
LINE
  5
B29
330
1F
100
AcDbEntity
  8
0
 62
     1
100
AcDbLine
 10
623.2640603098732
 20
1010.25153487908
 30
-0.0000000000001501
 11
662.6390603098732
 21
1033.113472581959
 31
0.0000000000000418
  0
LINE
  5
B3F
330
1F
100
AcDbEntity
  8
0
 62
     5
370
    50
100
AcDbLine
 10
262.5847773796959
 20
142.424602419846
 30
0.0
 11
1454.64922248155
 21
142.424602419846
 31
0.0
  0
LINE
  5
B40
330
1F
100
AcDbEntity
  8
0
 62
     5
370
    50
100
AcDbLine
 10
1454.64922248155
 20
142.424602419846
 30
0.0
 11
1454.64922248155
 21
1065.040503044501
 31
0.0
  0
LINE
  5
B41
330
1F
100
AcDbEntity
  8
0
 62
     5
370
    50
100
AcDbLine
 10
1454.64922248155
 20
1065.040503044501
 30
0.0
 11
262.5847773796959
 21
1065.040503044501
 31
0.0
  0
LINE
  5
B42
330
1F
100
AcDbEntity
  8
0
 62
     5
370
    50
100
AcDbLine
 10
262.5847773796959
 20
1065.040503044501
 30
0.0
 11
262.5847773796959
 21
142.424602419846
 31
0.0
  0
ENDSEC
  0
SECTION
  2
OBJECTS
  0
DICTIONARY
  5
C
330
0
100
AcDbDictionary
281
     1
  3
ACAD_COLOR
350
6B
  3
ACAD_GROUP
350
D
  3
ACAD_LAYOUT
350
1A
  3
ACAD_MATERIAL
350
6A
  3
ACAD_MLINESTYLE
350
17
  3
ACAD_PLOTSETTINGS
350
19
  3
ACAD_PLOTSTYLENAME
350
E
  3
ACDBHEADERROUNDTRIPXREC
350
B7A
  3
AcDbVariableDictionary
350
5E
  0
DICTIONARY
  5
6B
102
{ACAD_REACTORS
330
C
102
}
330
C
100
AcDbDictionary
281
     1
  0
DICTIONARY
  5
D
102
{ACAD_REACTORS
330
C
102
}
330
C
100
AcDbDictionary
281
     1
  0
DICTIONARY
  5
1A
102
{ACAD_REACTORS
330
C
102
}
330
C
100
AcDbDictionary
281
     1
  3
Model
350
22
  3
布局1
350
51
  3
布局2
350
56
  0
DICTIONARY
  5
6A
102
{ACAD_REACTORS
330
C
102
}
330
C
100
AcDbDictionary
281
     1
  0
DICTIONARY
  5
17
102
{ACAD_REACTORS
330
C
102
}
330
C
100
AcDbDictionary
281
     1
  3
Standard
350
18
  0
DICTIONARY
  5
19
102
{ACAD_REACTORS
330
C
102
}
330
C
100
AcDbDictionary
281
     1
  0
ACDBDICTIONARYWDFLT
  5
E
102
{ACAD_REACTORS
330
C
102
}
330
C
100
AcDbDictionary
281
     1
  3
Normal
350
F
100
AcDbDictionaryWithDefault
340
F
  0
DICTIONARY
  5
B7A
102
{ACAD_REACTORS
330
C
102
}
330
C
100
AcDbDictionary
281
     1
  3
COLORDICT
350
B7C
  3
MATERIALDICT
350
B7B
  0
DICTIONARY
  5
5E
102
{ACAD_REACTORS
330
C
102
}
330
C
100
AcDbDictionary
281
     1
  3
DIMASSOC
350
5F
  3
HIDETEXT
350
63
  3
PROJECTNAME
350
8D
  0
LAYOUT
  5
22
102
{ACAD_XDICTIONARY
360
B7D
102
}
102
{ACAD_REACTORS
330
1A
102
}
330
1A
100
AcDbPlotSettings
  1

  2
none_device
  4
ANSI_A_(8.50_x_11.00_Inches)
  6

 40
6.349999904632567
 41
19.04999923706055
 42
6.350006103515625
 43
19.04998779296875
 44
215.8999938964844
 45
279.3999938964844
 46
0.0
 47
0.0
 48
0.0
 49
0.0
140
0.0
141
0.0
142
1.0
143
78.436453180766
 70
 11952
 72
     0
 73
     1
 74
     0
  7

 75
     0
147
0.0127491741332998
148
0.0
149
0.0
100
AcDbLayout
  1
Model
 70
     1
 71
     0
 10
0.0
 20
0.0
 11
12.0
 21
9.0
 12
0.0
 22
0.0
 32
0.0
 14
0.0
 24
0.0
 34
0.0
 15
0.0
 25
0.0
 35
0.0
146
0.0
 13
0.0
 23
0.0
 33
0.0
 16
1.0
 26
0.0
 36
0.0
 17
0.0
 27
1.0
 37
0.0
 76
     0
330
1F
  0
LAYOUT
  5
51
102
{ACAD_XDICTIONARY
360
B7F
102
}
102
{ACAD_REACTORS
330
1A
102
}
330
1A
100
AcDbPlotSettings
  1

  2
None
  4

  6

 40
0.0
 41
0.0
 42
0.0
 43
0.0
 44
0.0
 45
0.0
 46
0.0
 47
0.0
 48
0.0
 49
0.0
140
0.0
141
0.0
142
1.0
143
1.0
 70
   688
 72
     0
 73
     0
 74
     5
  7

 75
    16
147
1.0
148
0.0
149
0.0
100
AcDbLayout
  1
布局1
 70
     1
 71
     1
 10
0.0
 20
0.0
 11
12.0
 21
9.0
 12
0.0
 22
0.0
 32
0.0
 14
0.0
 24
0.0
 34
0.0
 15
0.0
 25
0.0
 35
0.0
146
0.0
 13
0.0
 23
0.0
 33
0.0
 16
1.0
 26
0.0
 36
0.0
 17
0.0
 27
1.0
 37
0.0
 76
     0
330
50
  0
LAYOUT
  5
56
102
{ACAD_XDICTIONARY
360
B81
102
}
102
{ACAD_REACTORS
330
1A
102
}
330
1A
100
AcDbPlotSettings
  1

  2
None
  4

  6

 40
0.0
 41
0.0
 42
0.0
 43
0.0
 44
0.0
 45
0.0
 46
0.0
 47
0.0
 48
0.0
 49
0.0
140
0.0
141
0.0
142
1.0
143
1.0
 70
   688
 72
     0
 73
     0
 74
     5
  7

 75
    16
147
1.0
148
0.0
149
0.0
100
AcDbLayout
  1
布局2
 70
     1
 71
     2
 10
0.0
 20
0.0
 11
12.0
 21
9.0
 12
0.0
 22
0.0
 32
0.0
 14
0.0
 24
0.0
 34
0.0
 15
0.0
 25
0.0
 35
0.0
146
0.0
 13
0.0
 23
0.0
 33
0.0
 16
1.0
 26
0.0
 36
0.0
 17
0.0
 27
1.0
 37
0.0
 76
     0
330
55
  0
MLINESTYLE
  5
18
102
{ACAD_REACTORS
330
17
102
}
330
17
100
AcDbMlineStyle
  2
STANDARD
 70
     0
  3

 62
   256
 51
90.0
 52
90.0
 71
     2
 49
0.5
 62
   256
  6
BYLAYER
 49
-0.5
 62
   256
  6
BYLAYER
  0
ACDBPLACEHOLDER
  5
F
102
{ACAD_REACTORS
330
E
102
}
330
E
  0
XRECORD
  5
B7C
102
{ACAD_REACTORS
330
B7A
102
}
330
B7A
100
AcDbXrecord
280
     1
340
6B
  0
XRECORD
  5
B7B
102
{ACAD_REACTORS
330
B7A
102
}
330
B7A
100
AcDbXrecord
280
     1
340
6A
  0
DICTIONARYVAR
  5
5F
102
{ACAD_REACTORS
330
5E
102
}
330
5E
100
DictionaryVariables
280
     0
  1
2
  0
DICTIONARYVAR
  5
63
102
{ACAD_REACTORS
330
5E
102
}
330
5E
100
DictionaryVariables
280
     0
  1
1
  0
DICTIONARYVAR
  5
8D
102
{ACAD_REACTORS
330
5E
102
}
330
5E
100
DictionaryVariables
280
     0
  1

  0
DICTIONARY
  5
B7D
330
22
100
AcDbDictionary
280
     1
281
     1
  3
ACAD_XREC_ROUNDTRIP
360
B7E
  0
DICTIONARY
  5
B7F
330
51
100
AcDbDictionary
280
     1
281
     1
  3
ACAD_XREC_ROUNDTRIP
360
B80
  0
DICTIONARY
  5
B81
330
56
100
AcDbDictionary
280
     1
281
     1
  3
ACAD_XREC_ROUNDTRIP
360
B82
  0
XRECORD
  5
B7E
102
{ACAD_REACTORS
330
B7D
102
}
330
B7D
100
AcDbXrecord
280
     1
102
SHADEPLOT
 70
     0
102
SHADEPLOTRESLEVEL
 70
     2
102
SHADEPLOTCUSTOMDPI
 70
   300
  0
XRECORD
  5
B80
102
{ACAD_REACTORS
330
B7F
102
}
330
B7F
100
AcDbXrecord
280
     1
102
SHADEPLOT
 70
     0
102
SHADEPLOTRESLEVEL
 70
     2
102
SHADEPLOTCUSTOMDPI
 70
   300
  0
XRECORD
  5
B82
102
{ACAD_REACTORS
330
B81
102
}
330
B81
100
AcDbXrecord
280
     1
102
SHADEPLOT
 70
     0
102
SHADEPLOTRESLEVEL
 70
     2
102
SHADEPLOTCUSTOMDPI
 70
   300
  0
ENDSEC
  0
EOF
