  0
SECTION
  2
HEADER
  9
$ACADVER
  1
AC1015
  9
$ACADMAINTVER
 70
    20
  9
$DWGCODEPAGE
  3
ANSI_936
  9
$INSBASE
 10
0.0
 20
0.0
 30
0.0
  9
$EXTMIN
 10
-0.122051684143571
 20
-0.0915387631080194
 30
-0.000000000000013
  9
$EXTMAX
 10
1600.00000745149
 20
1200.000005588617
 30
0.0000000000000023
  9
$LIMMIN
 10
0.0
 20
0.0
  9
$LIMMAX
 10
420.0
 20
297.0
  9
$ORTHOMODE
 70
     0
  9
$REGENMODE
 70
     1
  9
$FILLMODE
 70
     1
  9
$QTEXTMODE
 70
     0
  9
$MIRRTEXT
 70
     0
  9
$LTSCALE
 40
1.0
  9
$ATTMODE
 70
     1
  9
$TEXTSIZE
 40
2.5
  9
$TRACEWID
 40
1.0
  9
$TEXTSTYLE
  7
Standard
  9
$CLAYER
  8
0
  9
$CELTYPE
  6
ByLayer
  9
$CECOLOR
 62
   256
  9
$CELTSCALE
 40
1.0
  9
$DISPSILH
 70
     0
  9
$DIMSCALE
 40
1.0
  9
$DIMASZ
 40
2.5
  9
$DIMEXO
 40
1.0
  9
$DIMDLI
 40
7.0
  9
$DIMRND
 40
0.0
  9
$DIMDLE
 40
0.0
  9
$DIMEXE
 40
1.0
  9
$DIMTP
 40
0.0
  9
$DIMTM
 40
0.0
  9
$DIMTXT
 40
2.5
  9
$DIMCEN
 40
0.0
  9
$DIMTSZ
 40
0.0
  9
$DIMTOL
 70
     0
  9
$DIMLIM
 70
     0
  9
$DIMTIH
 70
     0
  9
$DIMTOH
 70
     0
  9
$DIMSE1
 70
     0
  9
$DIMSE2
 70
     0
  9
$DIMTAD
 70
     1
  9
$DIMZIN
 70
     8
  9
$DIMBLK
  1

  9
$DIMASO
 70
     1
  9
$DIMSHO
 70
     1
  9
$DIMPOST
  1

  9
$DIMAPOST
  1

  9
$DIMALT
 70
     0
  9
$DIMALTD
 70
     2
  9
$DIMALTF
 40
0.0394
  9
$DIMLFAC
 40
1.0
  9
$DIMTOFL
 70
     1
  9
$DIMTVP
 40
0.0
  9
$DIMTIX
 70
     1
  9
$DIMSOXD
 70
     1
  9
$DIMSAH
 70
     0
  9
$DIMBLK1
  1

  9
$DIMBLK2
  1

  9
$DIMSTYLE
  2
JIS
  9
$DIMCLRD
 70
     0
  9
$DIMCLRE
 70
     0
  9
$DIMCLRT
 70
     0
  9
$DIMTFAC
 40
1.0
  9
$DIMGAP
 40
0.0
  9
$DIMJUST
 70
     0
  9
$DIMSD1
 70
     0
  9
$DIMSD2
 70
     0
  9
$DIMTOLJ
 70
     1
  9
$DIMTZIN
 70
     0
  9
$DIMALTZ
 70
     0
  9
$DIMALTTZ
 70
     0
  9
$DIMUPT
 70
     0
  9
$DIMDEC
 70
     4
  9
$DIMTDEC
 70
     4
  9
$DIMALTU
 70
     2
  9
$DIMALTTD
 70
     2
  9
$DIMTXSTY
  7
Standard
  9
$DIMAUNIT
 70
     0
  9
$DIMADEC
 70
     0
  9
$DIMALTRND
 40
0.0
  9
$DIMAZIN
 70
     0
  9
$DIMDSEP
 70
    46
  9
$DIMATFIT
 70
     3
  9
$DIMFRAC
 70
     0
  9
$DIMLDRBLK
  1

  9
$DIMLUNIT
 70
     2
  9
$DIMLWD
 70
    -2
  9
$DIMLWE
 70
    -2
  9
$DIMTMOVE
 70
     0
  9
$LUNITS
 70
     2
  9
$LUPREC
 70
     4
  9
$SKETCHINC
 40
1.0
  9
$FILLETRAD
 40
0.0
  9
$AUNITS
 70
     0
  9
$AUPREC
 70
     0
  9
$MENU
  1
.
  9
$ELEVATION
 40
0.0
  9
$PELEVATION
 40
0.0
  9
$THICKNESS
 40
0.0
  9
$LIMCHECK
 70
     0
  9
$CHAMFERA
 40
0.0
  9
$CHAMFERB
 40
0.0
  9
$CHAMFERC
 40
0.0
  9
$CHAMFERD
 40
0.0
  9
$SKPOLY
 70
     0
  9
$TDCREATE
 40
2455955.017649734
  9
$TDUCREATE
 40
2455954.684316401
  9
$TDUPDATE
 40
2456193.629405741
  9
$TDUUPDATE
 40
2456193.296072408
  9
$TDINDWG
 40
0.0615227083
  9
$TDUSRTIMER
 40
0.0615172917
  9
$USRTIMER
 70
     1
  9
$ANGBASE
 50
0.0
  9
$ANGDIR
 70
     0
  9
$PDMODE
 70
     0
  9
$PDSIZE
 40
0.0
  9
$PLINEWID
 40
0.0
  9
$SPLFRAME
 70
     0
  9
$SPLINETYPE
 70
     6
  9
$SPLINESEGS
 70
   100
  9
$HANDSEED
  5
9C5
  9
$SURFTAB1
 70
     6
  9
$SURFTAB2
 70
     6
  9
$SURFTYPE
 70
     6
  9
$SURFU
 70
     6
  9
$SURFV
 70
     6
  9
$UCSBASE
  2

  9
$UCSNAME
  2

  9
$UCSORG
 10
0.0
 20
0.0
 30
0.0
  9
$UCSXDIR
 10
1.0
 20
0.0
 30
0.0
  9
$UCSYDIR
 10
0.0
 20
1.0
 30
0.0
  9
$UCSORTHOREF
  2

  9
$UCSORTHOVIEW
 70
     0
  9
$UCSORGTOP
 10
0.0
 20
0.0
 30
0.0
  9
$UCSORGBOTTOM
 10
0.0
 20
0.0
 30
0.0
  9
$UCSORGLEFT
 10
0.0
 20
0.0
 30
0.0
  9
$UCSORGRIGHT
 10
0.0
 20
0.0
 30
0.0
  9
$UCSORGFRONT
 10
0.0
 20
0.0
 30
0.0
  9
$UCSORGBACK
 10
0.0
 20
0.0
 30
0.0
  9
$PUCSBASE
  2

  9
$PUCSNAME
  2

  9
$PUCSORG
 10
0.0
 20
0.0
 30
0.0
  9
$PUCSXDIR
 10
1.0
 20
0.0
 30
0.0
  9
$PUCSYDIR
 10
0.0
 20
1.0
 30
0.0
  9
$PUCSORTHOREF
  2

  9
$PUCSORTHOVIEW
 70
     0
  9
$PUCSORGTOP
 10
0.0
 20
0.0
 30
0.0
  9
$PUCSORGBOTTOM
 10
0.0
 20
0.0
 30
0.0
  9
$PUCSORGLEFT
 10
0.0
 20
0.0
 30
0.0
  9
$PUCSORGRIGHT
 10
0.0
 20
0.0
 30
0.0
  9
$PUCSORGFRONT
 10
0.0
 20
0.0
 30
0.0
  9
$PUCSORGBACK
 10
0.0
 20
0.0
 30
0.0
  9
$USERI1
 70
     0
  9
$USERI2
 70
     0
  9
$USERI3
 70
     0
  9
$USERI4
 70
     0
  9
$USERI5
 70
     0
  9
$USERR1
 40
0.0
  9
$USERR2
 40
0.0
  9
$USERR3
 40
0.0
  9
$USERR4
 40
0.0
  9
$USERR5
 40
0.0
  9
$WORLDVIEW
 70
     1
  9
$SHADEDGE
 70
     3
  9
$SHADEDIF
 70
    70
  9
$TILEMODE
 70
     1
  9
$MAXACTVP
 70
    64
  9
$PINSBASE
 10
0.0
 20
0.0
 30
0.0
  9
$PLIMCHECK
 70
     0
  9
$PEXTMIN
 10
1.000000000000000E+20
 20
1.000000000000000E+20
 30
1.000000000000000E+20
  9
$PEXTMAX
 10
-1.000000000000000E+20
 20
-1.000000000000000E+20
 30
-1.000000000000000E+20
  9
$PLIMMIN
 10
0.0071835950613099
 20
0.0009369707933136
  9
$PLIMMAX
 10
841.0071835950612
 20
594.0009369707931
  9
$UNITMODE
 70
     0
  9
$VISRETAIN
 70
     1
  9
$PLINEGEN
 70
     0
  9
$PSLTSCALE
 70
     1
  9
$TREEDEPTH
 70
  3020
  9
$CMLSTYLE
  2
Standard
  9
$CMLJUST
 70
     0
  9
$CMLSCALE
 40
20.0
  9
$PROXYGRAPHICS
 70
     1
  9
$MEASUREMENT
 70
     1
  9
$CELWEIGHT
370
    -1
  9
$ENDCAPS
280
     0
  9
$JOINSTYLE
280
     0
  9
$LWDISPLAY
290
     1
  9
$INSUNITS
 70
     4
  9
$HYPERLINKBASE
  1

  9
$STYLESHEET
  1

  9
$XEDIT
290
     1
  9
$CEPSNTYPE
380
     0
  9
$PSTYLEMODE
290
     1
  9
$FINGERPRINTGUID
  2
{048D7354-A980-11D2-9A39-0060089B3A3F}
  9
$VERSIONGUID
  2
{946EE5A4-8127-462A-9C3D-2A4CED317526}
  9
$EXTNAMES
290
     1
  9
$PSVPSCALE
 40
0.0
  9
$OLESTARTUP
290
     0
  0
ENDSEC
  0
SECTION
  2
CLASSES
  0
CLASS
  1
ACDBDICTIONARYWDFLT
  2
AcDbDictionaryWithDefault
  3
ObjectDBX Classes
 90
        0
280
     0
281
     0
  0
CLASS
  1
ACDBPLACEHOLDER
  2
AcDbPlaceHolder
  3
ObjectDBX Classes
 90
        0
280
     0
281
     0
  0
CLASS
  1
LAYOUT
  2
AcDbLayout
  3
ObjectDBX Classes
 90
        0
280
     0
281
     0
  0
CLASS
  1
PLOTSETTINGS
  2
AcDbPlotSettings
  3
ObjectDBX Classes
 90
    32768
280
     0
281
     0
  0
CLASS
  1
DICTIONARYVAR
  2
AcDbDictionaryVar
  3
ObjectDBX Classes
 90
        0
280
     0
281
     0
  0
ENDSEC
  0
SECTION
  2
TABLES
  0
TABLE
  2
VPORT
  5
19
330
0
100
AcDbSymbolTable
 70
     6
  0
VPORT
  5
9BB
330
19
100
AcDbSymbolTableRecord
100
AcDbViewportTableRecord
  2
*Active
 70
     0
 10
0.0
 20
0.0
 11
1.0
 21
1.0
 12
799.9389722170474
 22
599.9542324808694
 13
0.0
 23
0.0
 14
10.0
 24
10.0
 15
10.0
 25
10.0
 16
0.0
 26
0.0
 36
1.0
 17
0.0
 27
0.0
 37
0.0
 40
1273.454033680502
 41
2.293805309734513
 42
50.0
 43
0.0
 44
0.0
 50
0.0
 51
0.0
 71
     0
 72
  2000
 73
     1
 74
     3
 75
     0
 76
     0
 77
     0
 78
     0
281
     0
 65
     1
110
0.0
120
0.0
130
0.0
111
1.0
121
0.0
131
0.0
112
0.0
122
1.0
132
0.0
 79
     0
146
0.0
  0
ENDTAB
  0
TABLE
  2
LTYPE
  5
14
330
0
100
AcDbSymbolTable
 70
     1
  0
LTYPE
  5
15
330
14
100
AcDbSymbolTableRecord
100
AcDbLinetypeTableRecord
  2
ByBlock
 70
     0
  3

 72
    65
 73
     0
 40
0.0
  0
LTYPE
  5
16
330
14
100
AcDbSymbolTableRecord
100
AcDbLinetypeTableRecord
  2
ByLayer
 70
     0
  3

 72
    65
 73
     0
 40
0.0
  0
LTYPE
  5
8
330
14
100
AcDbSymbolTableRecord
100
AcDbLinetypeTableRecord
  2
Continuous
 70
     0
  3
Solid line
 72
    65
 73
     0
 40
0.0
  0
ENDTAB
  0
TABLE
  2
LAYER
  5
10
102
{ACAD_XDICTIONARY
360
1A3
102
}
330
0
100
AcDbSymbolTable
 70
     4
  0
LAYER
  5
4
330
10
100
AcDbSymbolTableRecord
100
AcDbLayerTableRecord
  2
0
 70
     0
 62
     7
  6
Continuous
370
    -3
390
5
  0
LAYER
  5
28
330
10
100
AcDbSymbolTableRecord
100
AcDbLayerTableRecord
  2
Object
 70
     0
 62
     7
  6
Continuous
370
    -3
390
5
  0
LAYER
  5
1A2
330
10
100
AcDbSymbolTableRecord
100
AcDbLayerTableRecord
  2
TOPOVERLAY
 70
     0
 62
     2
  6
Continuous
370
    -3
390
5
  0
LAYER
  5
79C
330
10
100
AcDbSymbolTableRecord
100
AcDbLayerTableRecord
  2
6-家具-143
 70
     0
 62
   143
  6
Continuous
370
    -3
390
5
  0
ENDTAB
  0
TABLE
  2
STYLE
  5
11
330
0
100
AcDbSymbolTable
 70
     2
  0
STYLE
  5
12
330
11
100
AcDbSymbolTableRecord
100
AcDbTextStyleTableRecord
  2
Standard
 70
     0
 40
0.0
 41
1.0
 50
0.0
 71
     0
 42
2.5
  3
txt
  4

  0
STYLE
  5
2E
330
11
100
AcDbSymbolTableRecord
100
AcDbTextStyleTableRecord
  2
Roman
 70
     0
 40
0.0
 41
1.0
 50
0.0
 71
     0
 42
5.0
  3
romans
  4
bigfont
  0
ENDTAB
  0
TABLE
  2
VIEW
  5
17
330
0
100
AcDbSymbolTable
 70
     0
  0
ENDTAB
  0
TABLE
  2
UCS
  5
18
330
0
100
AcDbSymbolTable
 70
     0
  0
ENDTAB
  0
TABLE
  2
APPID
  5
1B
330
0
100
AcDbSymbolTable
 70
     1
  0
APPID
  5
1C
330
1B
100
AcDbSymbolTableRecord
100
AcDbRegAppTableRecord
  2
ACAD
 70
     0
  0
ENDTAB
  0
TABLE
  2
DIMSTYLE
  5
1D
330
0
100
AcDbSymbolTable
 70
     1
100
AcDbDimStyleTable
 71
     1
340
1E
  0
DIMSTYLE
105
1E
330
1D
100
AcDbSymbolTableRecord
100
AcDbDimStyleTableRecord
  2
JIS
 70
     0
 41
2.5
 42
1.0
 43
7.0
 44
1.0
 73
     0
 74
     0
 77
     1
 78
     8
140
2.5
141
0.0
143
0.0394
147
0.0
172
     1
174
     1
175
     1
340
12
  0
ENDTAB
  0
TABLE
  2
BLOCK_RECORD
  5
1
330
0
100
AcDbSymbolTable
 70
     1
  0
BLOCK_RECORD
  5
2
330
1
100
AcDbSymbolTableRecord
100
AcDbBlockTableRecord
  2
*Model_Space
340
A
  0
BLOCK_RECORD
  5
C
330
1
100
AcDbSymbolTableRecord
100
AcDbBlockTableRecord
  2
*Paper_Space
340
F
  0
ENDTAB
  0
ENDSEC
  0
SECTION
  2
BLOCKS
  0
BLOCK
  5
3
330
2
100
AcDbEntity
  8
0
100
AcDbBlockBegin
  2
*Model_Space
 70
     2
 10
0.0
 20
0.0
 30
0.0
  3
*Model_Space
  1

  0
ENDBLK
  5
9
330
2
100
AcDbEntity
  8
0
100
AcDbBlockEnd
  0
BLOCK
  5
D
330
C
100
AcDbEntity
 67
     1
  8
0
100
AcDbBlockBegin
  2
*Paper_Space
 70
     0
 10
0.0
 20
0.0
 30
0.0
  3
*Paper_Space
  1

  0
ENDBLK
  5
E
330
C
100
AcDbEntity
 67
     1
  8
0
100
AcDbBlockEnd
  0
ENDSEC
  0
SECTION
  2
ENTITIES
  0
LINE
  5
14F
330
2
100
AcDbEntity
  8
0
100
AcDbLine
 10
0.0
 20
0.0
 30
0.0
 11
1600.0
 21
0.0
 31
0.0
  0
LINE
  5
150
330
2
100
AcDbEntity
  8
0
100
AcDbLine
 10
1600.0
 20
0.0
 30
0.0
 11
1600.0
 21
1200.0
 31
0.0
  0
LINE
  5
151
330
2
100
AcDbEntity
  8
0
100
AcDbLine
 10
1600.0
 20
1200.0
 30
0.0
 11
0.0
 21
1200.0
 31
0.0
  0
LINE
  5
152
330
2
100
AcDbEntity
  8
0
100
AcDbLine
 10
0.0
 20
1200.0
 30
0.0
 11
0.0
 21
0.0
 31
0.0
  0
LINE
  5
24D
330
2
100
AcDbEntity
  8
0
 62
     5
370
    35
100
AcDbLine
 10
146.8773759648378
 20
134.2453454679304
 30
0.0
 11
146.8773759648378
 21
1100.245345467943
 31
0.0
  0
LINE
  5
24E
330
2
100
AcDbEntity
  8
0
 62
     5
370
    35
100
AcDbLine
 10
146.8773759648378
 20
1100.245345467943
 30
0.0
 11
1462.87737596485
 21
1100.245345467943
 31
0.0
  0
LINE
  5
24F
330
2
100
AcDbEntity
  8
0
 62
     5
370
    35
100
AcDbLine
 10
1462.87737596485
 20
134.2453454679304
 30
0.0
 11
1462.87737596485
 21
1100.245345467943
 31
0.0
  0
LINE
  5
250
330
2
100
AcDbEntity
  8
0
 62
     5
370
    35
100
AcDbLine
 10
146.8773759648378
 20
134.2453454679304
 30
0.0
 11
1462.87737596485
 21
134.2453454679304
 31
0.0
  0
ARC
  5
253
330
2
100
AcDbEntity
  8
0
 62
    56
100
AcDbCircle
 10
401.2681708086422
 20
628.4567916576502
 30
0.0
 40
86.57756336906864
100
AcDbArc
 50
93.76815435825868
 51
266.2318456417413
  0
LINE
  5
254
330
2
100
AcDbEntity
  8
0
 62
    56
100
AcDbLine
 10
470.1374477329405
 20
628.3583971343634
 30
0.0
 11
499.3982512737052
 21
628.3583971343634
 31
0.0
  0
LINE
  5
255
330
2
100
AcDbEntity
  8
0
 62
   250
370
   100
100
AcDbLine
 10
527.8635948504152
 20
628.2835470220474
 30
0.0
 11
587.9718373885777
 21
628.2835470220474
 31
0.0
  0
LINE
  5
256
330
2
100
AcDbEntity
  8
TOPOVERLAY
  6
Continuous
 62
   250
370
   100
100
AcDbLine
 10
541.4356581651294
 20
585.0814711308552
 30
0.0
 11
587.6442963840311
 21
614.4695149158027
 31
0.0
  0
LINE
  5
257
330
2
100
AcDbEntity
  8
0
 62
    56
100
AcDbLine
 10
604.2264970840532
 20
628.4012180692907
 30
0.0
 11
658.7775067137572
 21
628.4012180692907
 31
0.0
  0
CIRCLE
  5
25A
330
2
100
AcDbEntity
  8
0
 62
   252
100
AcDbCircle
 10
849.8347280698894
 20
544.8099052881846
 30
0.0
 40
20.66015533163439
  0
CIRCLE
  5
25B
330
2
100
AcDbEntity
  8
0
 62
   252
100
AcDbCircle
 10
896.2810363508351
 20
544.8099052881846
 30
0.0
 40
20.66015533163439
  0
LINE
  5
25C
330
2
100
AcDbEntity
  8
0
 62
   252
100
AcDbLine
 10
846.0386689126329
 20
572.6575850725935
 30
0.0
 11
846.0386689126329
 21
590.4449980898156
 31
0.0
  0
LINE
  5
25D
330
2
100
AcDbEntity
  8
0
 62
   252
100
AcDbLine
 10
851.7095168752783
 20
569.7441298102651
 30
0.0
 11
851.7095168752783
 21
587.5315428273284
 31
0.0
  0
LINE
  5
25E
330
2
100
AcDbEntity
  8
0
 62
   252
100
AcDbLine
 10
840.3678256780167
 20
583.0846877287699
 30
0.0
 11
859.9858798658585
 21
574.651003384211
 31
0.0
  0
LINE
  5
25F
330
2
100
AcDbEntity
  8
0
 62
   252
100
AcDbLine
 10
891.6408484796201
 20
571.4311248843483
 30
0.0
 11
891.6408484796201
 21
589.2185379015702
 31
0.0
  0
LINE
  5
260
330
2
100
AcDbEntity
  8
0
 62
   252
100
AcDbLine
 10
897.3116964422823
 20
568.5176696219882
 30
0.0
 11
897.3116964422823
 21
586.3050826390831
 31
0.0
  0
LINE
  5
261
330
2
100
AcDbEntity
  8
0
 62
   252
100
AcDbLine
 10
885.9700052450161
 20
581.8582275404926
 30
0.0
 11
905.5880594328653
 21
573.4245431959656
 31
0.0
  0
LINE
  5
262
330
2
100
AcDbEntity
  8
0
 62
   252
100
AcDbLine
 10
811.4020209092316
 20
547.0627865766075
 30
0.0
 11
938.3176685414612
 21
547.0627865766075
 31
0.0
  0
CIRCLE
  5
263
330
2
100
AcDbEntity
  8
0
 62
   252
100
AcDbCircle
 10
846.4638490603672
 20
689.8273729904121
 30
0.0
 40
20.66015533163439
  0
CIRCLE
  5
264
330
2
100
AcDbEntity
  8
0
 62
   252
100
AcDbCircle
 10
892.9101573412921
 20
689.8273729904121
 30
0.0
 40
20.66015533163439
  0
LINE
  5
265
330
2
100
AcDbEntity
  8
0
 62
   252
100
AcDbLine
 10
842.6677899030917
 20
717.6750527748207
 30
0.0
 11
842.6677899030917
 21
735.4624657919162
 31
0.0
  0
LINE
  5
266
330
2
100
AcDbEntity
  8
0
 62
   252
100
AcDbLine
 10
848.3386378657456
 20
714.761597512334
 30
0.0
 11
848.3386378657456
 21
732.549010529556
 31
0.0
  0
LINE
  5
267
330
2
100
AcDbEntity
  8
0
 62
   252
100
AcDbLine
 10
836.9969466684873
 20
728.1021554308705
 30
0.0
 11
856.6150008563175
 21
719.6684710864705
 31
0.0
  0
LINE
  5
268
330
2
100
AcDbEntity
  8
0
 62
   252
100
AcDbLine
 10
888.2699694700912
 20
716.448592586576
 30
0.0
 11
888.2699694700912
 21
734.2360056036708
 31
0.0
  0
LINE
  5
269
330
2
100
AcDbEntity
  8
0
 62
   252
100
AcDbLine
 10
893.9408174327452
 20
713.5351373240884
 30
0.0
 11
893.9408174327452
 21
731.3225503413426
 31
0.0
  0
LINE
  5
26A
330
2
100
AcDbEntity
  8
0
 62
   252
100
AcDbLine
 10
882.5991262354792
 20
726.8756952426248
 30
0.0
 11
902.2171804233362
 21
718.442010898098
 31
0.0
  0
LINE
  5
26B
330
2
100
AcDbEntity
  8
0
 62
   252
100
AcDbLine
 10
808.0311418997078
 20
692.0802542788354
 30
0.0
 11
934.9467895319213
 21
692.0802542788354
 31
0.0
  0
LINE
  5
26C
330
2
100
AcDbEntity
  8
0
 62
    56
100
AcDbLine
 10
294.9873178741801
 20
240.3176229270147
 30
0.0
 11
294.9595074320472
 21
1017.926882565553
 31
0.0
  0
ARC
  5
26E
330
2
100
AcDbEntity
  8
0
 62
    56
100
AcDbCircle
 10
714.0263533355915
 20
629.3287134877487
 30
0.0
 40
86.57756336906864
100
AcDbArc
 50
273.7681543582587
 51
86.23184564174131
  0
LINE
  5
26F
330
2
100
AcDbEntity
  8
0
 62
    56
100
AcDbLine
 10
973.9539700263961
 20
625.1124834942498
 30
0.0
 11
973.9539700263961
 21
501.1746429232616
 31
0.0
  0
LINE
  5
270
330
2
100
AcDbEntity
  8
0
 62
    56
100
AcDbLine
 10
973.9539700263961
 20
501.1746429232616
 30
0.0
 11
906.4579844358259
 21
501.1746429232616
 31
0.0
  0
LINE
  5
271
330
2
100
AcDbEntity
  8
0
 62
    56
100
AcDbLine
 10
906.4579844358259
 20
501.1746429232616
 30
0.0
 11
906.4579844358259
 21
394.2070817623431
 31
0.0
  0
LINE
  5
272
330
2
100
AcDbEntity
  8
0
 62
    56
100
AcDbLine
 10
906.4579844358259
 20
394.2070817623431
 30
0.0
 11
934.4953215517596
 21
394.2070817623431
 31
0.0
  0
LINE
  5
273
330
2
100
AcDbEntity
  8
0
 62
    56
100
AcDbLine
 10
934.4953215517596
 20
380.8960846563837
 30
0.0
 11
934.4953215517596
 21
407.460580247544
 31
0.0
  0
LINE
  5
274
330
2
100
AcDbEntity
  8
0
 62
    56
100
AcDbLine
 10
940.8403907057147
 20
380.8960846563837
 30
0.0
 11
940.8403907057147
 21
407.460580247544
 31
0.0
  0
CIRCLE
  5
275
330
2
100
AcDbEntity
  8
0
 62
   250
370
    30
100
AcDbCircle
 10
1003.517714356422
 20
334.9398966850963
 30
0.0
 40
21.00918010397843
  0
CIRCLE
  5
279
330
2
100
AcDbEntity
  8
0
 62
   250
370
    30
100
AcDbCircle
 10
1003.455272873811
 20
394.3476714354988
 30
0.0
 40
21.00918010397843
  0
CIRCLE
  5
27D
330
2
100
AcDbEntity
  8
0
 62
   250
370
    30
100
AcDbCircle
 10
1003.455272873811
 20
451.0131016931476
 30
0.0
 40
21.00918010397843
  0
LINE
  5
281
330
2
100
AcDbEntity
  8
0
 62
    56
100
AcDbLine
 10
982.4460927698423
 20
394.3476714354988
 30
0.0
 11
940.8403907057147
 21
394.3476714354988
 31
0.0
  0
LINE
  5
282
330
2
100
AcDbEntity
  8
0
 62
    56
100
AcDbLine
 10
1024.464452977806
 20
394.3476714354988
 30
0.0
 11
1039.314395454069
 21
394.3476714354988
 31
0.0
  0
LINE
  5
283
330
2
100
AcDbEntity
  8
0
 62
    56
100
AcDbLine
 10
1039.388990038443
 20
379.3676202292459
 30
0.0
 11
1039.388990038443
 21
409.00459600814
 31
0.0
  0
LINE
  5
284
330
2
100
AcDbEntity
  8
0
 62
    56
100
AcDbLine
 10
1042.74302770237
 20
383.8706902995915
 30
0.0
 11
1042.74302770237
 21
403.1583864851246
 31
0.0
  0
LINE
  5
285
330
2
100
AcDbEntity
  8
0
 62
    56
100
AcDbLine
 10
1046.461012423949
 20
389.243690747517
 30
0.0
 11
1046.461012423949
 21
397.7853860371993
 31
0.0
  0
LINE
  5
286
330
2
100
AcDbEntity
  8
0
 62
    56
100
AcDbLine
 10
973.9539700263961
 20
625.1124834942498
 30
0.0
 11
973.9539700263961
 21
752.756677270245
 31
0.0
  0
LINE
  5
287
330
2
100
AcDbEntity
  8
0
 62
    56
100
AcDbLine
 10
973.9539700263961
 20
752.756677270245
 30
0.0
 11
905.6413493840961
 21
752.756677270245
 31
0.0
  0
LINE
  5
288
330
2
100
AcDbEntity
  8
0
 62
    56
100
AcDbLine
 10
905.6413493840961
 20
752.756677270245
 30
0.0
 11
905.6413493840961
 21
920.9552148575816
 31
0.0
  0
LINE
  5
289
330
2
100
AcDbEntity
  8
0
 62
    56
100
AcDbLine
 10
905.6413493840961
 20
920.9552148575816
 30
0.0
 11
942.2925948928883
 21
920.9552148575816
 31
0.0
  0
LINE
  5
28A
330
2
100
AcDbEntity
  8
0
 62
   250
370
    30
100
AcDbLine
 10
950.2989489221251
 20
845.5916548606225
 30
0.0
 11
1012.039857522575
 21
845.5916548606225
 31
0.0
  0
LINE
  5
28B
330
2
100
AcDbEntity
  8
0
 62
     3
370
    30
100
AcDbLine
 10
969.3382320053286
 20
803.5084767944718
 30
0.0
 11
1011.712316518024
 21
830.4615642773709
 31
0.0
  0
LINE
  5
28C
330
2
100
AcDbEntity
  8
0
 62
    56
100
AcDbLine
 10
934.9535364719052
 20
827.3457265659777
 30
0.0
 11
934.9535364719052
 21
858.7929572286345
 31
0.0
  0
LINE
  5
28D
330
2
100
AcDbEntity
  8
0
 62
    56
100
AcDbLine
 10
934.9535364719052
 20
842.1221343767278
 30
0.0
 11
905.6413493840961
 21
842.1221343767278
 31
0.0
  0
LINE
  5
28E
330
2
100
AcDbEntity
  8
0
 62
    56
100
AcDbLine
 10
1024.464452977806
 20
841.4595212865702
 30
0.0
 11
1039.314395454069
 21
841.4595212865702
 31
0.0
  0
LINE
  5
28F
330
2
100
AcDbEntity
  8
0
 62
    56
100
AcDbLine
 10
1039.388990038443
 20
826.4794700803172
 30
0.0
 11
1039.388990038443
 21
856.1164458592115
 31
0.0
  0
LINE
  5
290
330
2
100
AcDbEntity
  8
0
 62
    56
100
AcDbLine
 10
1042.74302770237
 20
830.9825401507263
 30
0.0
 11
1042.74302770237
 21
850.2702363362281
 31
0.0
  0
LINE
  5
291
330
2
100
AcDbEntity
  8
0
 62
    56
100
AcDbLine
 10
1046.461012423949
 20
836.3555405986202
 30
0.0
 11
1046.461012423949
 21
844.8972358883024
 31
0.0
  0
LINE
  5
292
330
2
100
AcDbEntity
  8
0
 62
    56
370
    20
100
AcDbLine
 10
947.6868372289683
 20
911.4332543979623
 30
0.0
 11
1010.827803089492
 21
911.4332543979623
 31
0.0
  0
LINE
  5
293
330
2
100
AcDbEntity
  8
0
 62
    56
370
    20
100
AcDbLine
 10
1010.827803089492
 20
911.4332543979623
 30
0.0
 11
1010.827803089492
 21
930.5621469768404
 31
0.0
  0
LINE
  5
294
330
2
100
AcDbEntity
  8
0
 62
    56
370
    20
100
AcDbLine
 10
1010.827803089492
 20
930.5621469768404
 30
0.0
 11
947.6868372289683
 21
930.5621469768404
 31
0.0
  0
LINE
  5
295
330
2
100
AcDbEntity
  8
0
 62
    56
370
    20
100
AcDbLine
 10
947.6868372289683
 20
930.5621469768404
 30
0.0
 11
947.6868372289683
 21
911.4332543979623
 31
0.0
  0
LINE
  5
296
330
2
100
AcDbEntity
  8
0
 62
    56
370
    20
100
AcDbLine
 10
942.2925948928883
 20
920.9552148575816
 30
0.0
 11
957.1310260261633
 21
920.9552148575816
 31
0.0
  0
LINE
  5
297
330
2
100
AcDbEntity
  8
0
 62
    56
370
    20
100
AcDbLine
 10
957.1310260261633
 20
914.6058149412926
 30
0.0
 11
957.1310260261633
 21
927.30461477403
 31
0.0
  0
LINE
  5
298
330
2
100
AcDbEntity
  8
0
 62
    56
370
    20
100
AcDbLine
 10
957.1310260261633
 20
927.30461477403
 30
0.0
 11
992.8444137824833
 21
920.9552148575816
 31
0.0
  0
LINE
  5
299
330
2
100
AcDbEntity
  8
0
 62
    56
370
    20
100
AcDbLine
 10
957.1310260261633
 20
914.6058149412926
 30
0.0
 11
992.8444137824833
 21
920.9552148575816
 31
0.0
  0
LINE
  5
29A
330
2
100
AcDbEntity
  8
0
 62
    56
100
AcDbLine
 10
1024.575723114653
 20
921.1158627875423
 30
0.0
 11
1039.425665590903
 21
921.1158627875423
 31
0.0
  0
LINE
  5
29B
330
2
100
AcDbEntity
  8
0
 62
    56
100
AcDbLine
 10
1039.500260175289
 20
906.1358115812897
 30
0.0
 11
1039.500260175289
 21
935.7727873603113
 31
0.0
  0
LINE
  5
29C
330
2
100
AcDbEntity
  8
0
 62
    56
100
AcDbLine
 10
1042.854297839231
 20
910.6388816516666
 30
0.0
 11
1042.854297839231
 21
929.926577837328
 31
0.0
  0
LINE
  5
29D
330
2
100
AcDbEntity
  8
0
 62
    56
100
AcDbLine
 10
1046.572282560815
 20
916.0118820995927
 30
0.0
 11
1046.572282560815
 21
924.5535773894019
 31
0.0
  0
LINE
  5
29E
330
2
100
AcDbEntity
  8
0
 62
    56
100
AcDbLine
 10
800.5989484865619
 20
628.4012180692907
 30
0.0
 11
1085.671855937085
 21
628.4012180692907
 31
0.0
  0
CIRCLE
  5
29F
330
2
100
AcDbEntity
  8
0
 62
   250
370
    30
100
AcDbCircle
 10
1234.582622490346
 20
335.6770914340137
 30
0.0
 40
21.00918010397843
  0
CIRCLE
  5
2A3
330
2
100
AcDbEntity
  8
0
 62
   250
370
    30
100
AcDbCircle
 10
1234.520181007761
 20
395.0848661843843
 30
0.0
 40
21.00918010397843
  0
CIRCLE
  5
2A7
330
2
100
AcDbEntity
  8
0
 62
   250
370
    30
100
AcDbCircle
 10
1234.520181007761
 20
451.7502964421924
 30
0.0
 40
21.00918010397843
  0
CIRCLE
  5
2AB
330
2
100
AcDbEntity
  8
0
 62
   250
370
    30
100
AcDbCircle
 10
1137.685615453919
 20
578.5931509954439
 30
0.0
 40
21.00918010397843
  0
LINE
  5
2AE
330
2
100
AcDbEntity
  8
0
 62
   252
100
AcDbLine
 10
1094.57518754467
 20
261.2888166757517
 30
0.0
 11
1094.57518754467
 21
619.2495115365913
 31
0.0
  0
LINE
  5
2AF
330
2
100
AcDbEntity
  8
0
 62
   252
100
AcDbLine
 10
1094.57518754467
 20
619.2495115365913
 30
0.0
 11
1339.165136360506
 21
619.2495115365913
 31
0.0
  0
LINE
  5
2B0
330
2
100
AcDbEntity
  8
0
 62
   252
100
AcDbLine
 10
1339.165136360506
 20
619.2495115365913
 30
0.0
 11
1339.165136360506
 21
261.2888166757517
 31
0.0
  0
LINE
  5
2B1
330
2
100
AcDbEntity
  8
0
 62
   252
100
AcDbLine
 10
1339.165136360506
 20
261.2888166757517
 30
0.0
 11
1094.57518754467
 21
261.2888166757517
 31
0.0
  0
CIRCLE
  5
2B3
330
2
100
AcDbEntity
  8
0
 62
   250
370
    30
100
AcDbCircle
 10
1234.582622490346
 20
768.358341278077
 30
0.0
 40
21.00918010397843
  0
CIRCLE
  5
2B7
330
2
100
AcDbEntity
  8
0
 62
     1
370
    30
100
AcDbCircle
 10
1234.520181007761
 20
886.8995479778192
 30
0.0
 40
21.00918010397843
  0
LINE
  5
2B8
330
2
100
AcDbEntity
  8
0
 62
     1
370
    30
100
AcDbLine
 10
1221.017559352162
 20
871.3262743741145
 30
0.0
 11
1248.022798577847
 21
902.4728251238176
 31
0.0
  0
LINE
  5
2B9
330
2
100
AcDbEntity
  8
0
 62
     1
370
    30
100
AcDbLine
 10
1234.520181007761
 20
886.8995479778192
 30
0.0
 11
1221.954892414037
 21
903.2384942371871
 31
0.0
  0
LINE
  5
2BA
330
2
100
AcDbEntity
  8
0
 62
     1
370
    30
100
AcDbLine
 10
1234.520181007761
 20
886.8995479778192
 30
0.0
 11
1246.712678770662
 21
870.2805636342517
 31
0.0
  0
LINE
  5
2BB
330
2
100
AcDbEntity
  8
0
 62
   252
100
AcDbLine
 10
1094.57518754467
 20
653.1478911412072
 30
0.0
 11
1094.57518754467
 21
1011.108586001919
 31
0.0
  0
LINE
  5
2BC
330
2
100
AcDbEntity
  8
0
 62
   252
100
AcDbLine
 10
1094.57518754467
 20
1011.108586001919
 30
0.0
 11
1339.165136360506
 21
1011.108586001919
 31
0.0
  0
LINE
  5
2BD
330
2
100
AcDbEntity
  8
0
 62
   252
100
AcDbLine
 10
1339.165136360506
 20
1011.108586001919
 30
0.0
 11
1339.165136360506
 21
653.1478911412075
 31
0.0
  0
LINE
  5
2BE
330
2
100
AcDbEntity
  8
0
 62
   252
100
AcDbLine
 10
1339.165136360506
 20
653.1478911412075
 30
0.0
 11
1094.57518754467
 21
653.1478911412075
 31
0.0
  0
LINE
  5
2C1
330
2
100
AcDbEntity
  8
0
 62
   252
100
AcDbLine
 10
599.7926463441414
 20
796.0172651447789
 30
0.0
 11
636.104935636844
 21
821.9138351143877
 31
0.0
  0
LINE
  5
2C2
330
2
100
AcDbEntity
  8
0
 62
   252
100
AcDbLine
 10
601.6548179111188
 20
811.6557315550569
 30
0.0
 11
633.4979104466635
 21
833.6398903008328
 31
0.0
  0
LINE
  5
2C4
330
2
100
AcDbEntity
  8
0
 62
   252
100
AcDbLine
 10
636.2000600586878
 20
849.2813438231047
 30
0.0
 11
599.4059293878438
 21
824.0740703083114
 31
0.0
  0
LINE
  5
2C6
330
2
100
AcDbEntity
  8
0
 62
   252
100
AcDbLine
 10
659.3275608998866
 20
796.0172651447784
 30
0.0
 11
695.6398501925906
 21
821.9138351143874
 31
0.0
  0
LINE
  5
2C7
330
2
100
AcDbEntity
  8
0
 62
   252
100
AcDbLine
 10
661.1897324668648
 20
811.6557315550567
 30
0.0
 11
693.0328250024127
 21
833.6398903008332
 31
0.0
  0
LINE
  5
2C9
330
2
100
AcDbEntity
  8
0
 62
   252
100
AcDbLine
 10
695.734974614433
 20
849.2813438230722
 30
0.0
 11
658.9408439435697
 21
824.0740703082797
 31
0.0
  0
ARC
  5
2CA
330
2
100
AcDbEntity
  8
0
 62
    18
370
     0
100
AcDbCircle
 10
1139.286453494253
 20
767.3453875379626
 30
0.0
 40
14.46431580258922
100
AcDbArc
 50
96.35583041835197
 51
263.644169581648
  0
LINE
  5
2CB
330
2
100
AcDbEntity
  8
0
 62
    18
370
     0
100
AcDbLine
 10
1137.685213251165
 20
752.9699758457857
 30
0.0
 11
1151.510053583306
 21
752.9699758457857
 31
0.0
  0
LINE
  5
2CC
330
2
100
AcDbEntity
  8
0
 62
    18
370
     0
100
AcDbLine
 10
1137.685213251165
 20
781.7207992301703
 30
0.0
 11
1151.510053583306
 21
781.7207992301703
 31
0.0
  0
LINE
  5
2CD
330
2
100
AcDbEntity
  8
0
 62
    18
370
     0
100
AcDbLine
 10
1151.510053583306
 20
747.2938776490585
 30
0.0
 11
1151.510053583306
 21
787.4255459526518
 31
0.0
  0
LINE
  5
2CE
330
2
100
AcDbEntity
  8
0
 62
    18
370
     0
100
AcDbLine
 10
1151.510053583306
 20
747.2938776490585
 30
0.0
 11
1178.172928851987
 21
747.2938776490585
 31
0.0
  0
LINE
  5
2CF
330
2
100
AcDbEntity
  8
0
 62
    18
370
     0
100
AcDbLine
 10
1178.172928851987
 20
747.2938776490585
 30
0.0
 11
1178.172928851987
 21
787.4255459526518
 31
0.0
  0
LINE
  5
2D0
330
2
100
AcDbEntity
  8
0
 62
    18
370
     0
100
AcDbLine
 10
1178.172928851987
 20
787.4255459526518
 30
0.0
 11
1151.510053583306
 21
787.4255459526518
 31
0.0
  0
ARC
  5
2D1
330
2
100
AcDbEntity
  8
0
 62
    88
100
AcDbCircle
 10
1139.003241827325
 20
858.899169573338
 30
0.0
 40
14.46431580258922
100
AcDbArc
 50
96.35583041835197
 51
263.644169581648
  0
LINE
  5
2D2
330
2
100
AcDbEntity
  8
0
 62
    88
100
AcDbLine
 10
1137.402001584215
 20
873.421985177711
 30
0.0
 11
1151.226841916377
 21
873.421985177711
 31
0.0
  0
LINE
  5
2D3
330
2
100
AcDbEntity
  8
0
 62
    88
100
AcDbLine
 10
1151.226841916377
 20
867.7458869808249
 30
0.0
 11
1151.226841916377
 21
907.8775552845764
 31
0.0
  0
LINE
  5
2D4
330
2
100
AcDbEntity
  8
0
 62
    88
100
AcDbLine
 10
1151.226841916377
 20
867.7458869808249
 30
0.0
 11
1177.88971718507
 21
867.7458869808249
 31
0.0
  0
LINE
  5
2D5
330
2
100
AcDbEntity
  8
0
 62
    88
100
AcDbLine
 10
1177.88971718507
 20
867.7458869808249
 30
0.0
 11
1177.889717185057
 21
907.8775552845764
 31
0.0
  0
LINE
  5
2D6
330
2
100
AcDbEntity
  8
0
 62
    88
100
AcDbLine
 10
1177.88971718507
 20
907.8775552845764
 30
0.0
 11
1151.226841916377
 21
907.8775552845764
 31
0.0
  0
LINE
  5
2D7
330
2
100
AcDbEntity
  8
0
 62
   250
370
    30
100
AcDbLine
 10
665.8807654987732
 20
907.4940630177801
 30
0.0
 11
665.8807654987732
 21
945.7800229854225
 31
0.0
  0
LINE
  5
2D8
330
2
100
AcDbEntity
  8
0
 62
   250
370
    30
100
AcDbLine
 10
665.8807654987732
 20
945.7800229854225
 30
0.0
 11
689.6916630852606
 21
945.7800229854225
 31
0.0
  0
LINE
  5
2D9
330
2
100
AcDbEntity
  8
0
 62
   250
370
    30
100
AcDbLine
 10
689.6916630852606
 20
945.7800229854225
 30
0.0
 11
689.6916630852606
 21
907.4940630177801
 31
0.0
  0
LINE
  5
2DA
330
2
100
AcDbEntity
  8
0
 62
   250
370
    30
100
AcDbLine
 10
689.6916630852606
 20
907.4940630177801
 30
0.0
 11
665.8807654987732
 21
907.4940630177801
 31
0.0
  0
LINE
  5
2DB
330
2
100
AcDbEntity
  8
TOPOVERLAY
  6
Continuous
 62
     3
370
    30
100
AcDbLine
 10
606.3458509430277
 20
907.4940630177803
 30
0.0
 11
606.3458509430277
 21
945.7800229852642
 31
0.0
  0
LINE
  5
2DC
330
2
100
AcDbEntity
  8
TOPOVERLAY
  6
Continuous
 62
     3
370
    30
100
AcDbLine
 10
606.3458509430277
 20
945.7800229852642
 30
0.0
 11
630.1567485295541
 21
945.7800229852642
 31
0.0
  0
LINE
  5
2DD
330
2
100
AcDbEntity
  8
TOPOVERLAY
  6
Continuous
 62
     3
370
    30
100
AcDbLine
 10
630.1567485295541
 20
945.7800229852642
 30
0.0
 11
630.1567485295541
 21
907.4940630177803
 31
0.0
  0
LINE
  5
2DE
330
2
100
AcDbEntity
  8
TOPOVERLAY
  6
Continuous
 62
     3
370
    30
100
AcDbLine
 10
630.1567485295541
 20
907.4940630177803
 30
0.0
 11
606.3458509430277
 21
907.4940630177803
 31
0.0
  0
LINE
  5
2E0
330
2
100
AcDbEntity
  8
0
 62
   252
100
AcDbLine
 10
1176.401910468062
 20
557.2303403402433
 30
0.0
 11
1176.401910468062
 21
601.3235525283021
 31
0.0
  0
LINE
  5
2E1
330
2
100
AcDbEntity
  8
0
 62
   252
100
AcDbLine
 10
1176.401910468062
 20
601.3235525283021
 30
0.0
 11
1211.659521838679
 21
601.3235525283021
 31
0.0
  0
LINE
  5
2E2
330
2
100
AcDbEntity
  8
0
 62
   252
100
AcDbLine
 10
1211.659521838679
 20
601.3235525283021
 30
0.0
 11
1211.659521838679
 21
557.2303403402433
 31
0.0
  0
LINE
  5
2E3
330
2
100
AcDbEntity
  8
0
 62
   252
100
AcDbLine
 10
1211.659521838679
 20
557.2303403402433
 30
0.0
 11
1176.401910468062
 21
557.2303403402433
 31
0.0
  0
LINE
  5
2E6
330
2
100
AcDbEntity
  8
0
 62
   250
370
   100
100
AcDbLine
 10
527.8635948504152
 20
628.2835470220474
 30
0.0
 11
587.9718373885777
 21
628.2835470220474
 31
0.0
  0
LINE
  5
2E7
330
2
100
AcDbEntity
  8
TOPOVERLAY
  6
Continuous
 62
   250
370
   100
100
AcDbLine
 10
541.4356581651294
 20
585.0814711308552
 30
0.0
 11
587.6442963840311
 21
614.4695149158027
 31
0.0
  0
LINE
  5
2EA
330
2
100
AcDbEntity
  8
0
 62
   250
370
   100
100
AcDbLine
 10
950.2989489221251
 20
845.5916548606225
 30
0.0
 11
1012.039857522575
 21
845.5916548606225
 31
0.0
  0
LINE
  5
2EB
330
2
100
AcDbEntity
  8
TOPOVERLAY
  6
Continuous
 62
     3
370
   100
100
AcDbLine
 10
969.3382320053286
 20
803.5084767944718
 30
0.0
 11
1011.712316518024
 21
830.4615642773709
 31
0.0
  0
LINE
  5
2ED
330
2
100
AcDbEntity
  8
0
 62
    56
100
AcDbLine
 10
487.2596160318638
 20
616.2796927904357
 30
0.0
 11
511.5368865155466
 21
640.4371014782914
 31
0.0
  0
LINE
  5
2EE
330
2
100
AcDbEntity
  8
0
 62
    56
100
AcDbLine
 10
487.2596160318638
 20
640.4371014782914
 30
0.0
 11
511.5368865155466
 21
616.2796927904357
 31
0.0
  0
LINE
  5
2EF
330
2
100
AcDbEntity
  8
0
 62
    56
100
AcDbLine
 10
646.6388714719157
 20
640.4799224132188
 30
0.0
 11
670.9161419555982
 21
616.3225137253627
 31
0.0
  0
LINE
  5
2F0
330
2
100
AcDbEntity
  8
0
 62
    56
100
AcDbLine
 10
646.6388714719157
 20
616.3225137253627
 30
0.0
 11
670.9161419555982
 21
640.4799224132188
 31
0.0
  0
LINE
  5
34E
330
2
100
AcDbEntity
  8
TOPOVERLAY
  6
Continuous
 62
   250
370
   100
100
AcDbLine
 10
402.8918988683551
 20
615.0891707921307
 30
0.0
 11
402.8918988683551
 21
581.2038389636446
 31
0.0
  0
LINE
  5
34F
330
2
100
AcDbEntity
  8
0
 62
   250
370
   100
100
AcDbLine
 10
369.3976333107765
 20
628.4012180692907
 30
0.0
 11
389.5796502072763
 21
628.4012180692907
 31
0.0
  0
LINE
  5
350
330
2
100
AcDbEntity
  8
0
 62
   250
370
   100
100
AcDbLine
 10
355.6943183798837
 20
628.4012180692907
 30
0.0
 11
389.5796502072763
 21
628.4012180692907
 31
0.0
  0
LINE
  5
351
330
2
100
AcDbEntity
  8
0
 62
   250
370
   100
100
AcDbLine
 10
416.2037447646424
 20
628.4012180692907
 30
0.0
 11
439.2980590427089
 21
628.4012180692907
 31
0.0
  0
LINE
  5
352
330
2
100
AcDbEntity
  8
0
 62
   250
370
   100
100
AcDbLine
 10
416.2037447646424
 20
628.4012180692907
 30
0.0
 11
450.0890765920352
 21
628.4012180692907
 31
0.0
  0
LINE
  5
353
330
2
100
AcDbEntity
  8
TOPOVERLAY
  6
Continuous
 62
   250
370
   100
100
AcDbLine
 10
402.8918988683551
 20
641.7132653464506
 30
0.0
 11
402.8918988683551
 21
675.5985971749367
 31
0.0
  0
LINE
  5
3A7
330
2
100
AcDbEntity
  8
0
 62
    56
100
AcDbLine
 10
314.6906252757422
 20
628.4012180692907
 30
0.0
 11
294.9734384654401
 21
628.4005129031984
 31
0.0
  0
MTEXT
  5
41F
330
2
100
AcDbEntity
  8
0
100
AcDbMText
 10
178.1088203111944
 20
165.4714462935649
 30
0.0
 40
30.0
 41
3011.936264869754
 71
     1
 72
     5
  1
ORT400
 11
0.0000000000000001
 21
1.0
 31
0.0
 73
     1
 44
1.0
1001
ACAD
1000
MTEXTBEGIN
1070
    73
1070
     1
1070
    44
1040
1.0
1070
    74
1070
     0
1000
MTEXTEND
  0
LINE
  5
4D4
330
2
100
AcDbEntity
  8
0
 62
   250
370
    30
100
AcDbLine
 10
1234.582624533102
 20
768.3583395069299
 30
0.0
 11
1246.775122296003
 21
751.7393551633626
 31
0.0
  0
LINE
  5
4D5
330
2
100
AcDbEntity
  8
0
 62
   250
370
    30
100
AcDbLine
 10
1234.582624533102
 20
768.3583395069299
 30
0.0
 11
1222.017335939378
 21
784.697285766298
 31
0.0
  0
LINE
  5
4D6
330
2
100
AcDbEntity
  8
0
 62
   250
370
    30
100
AcDbLine
 10
1221.080002877503
 20
752.7850659032252
 30
0.0
 11
1248.085242103188
 21
783.9316166529283
 31
0.0
  0
LINE
  5
4D7
330
2
100
AcDbEntity
  8
0
 62
   250
370
    30
100
AcDbLine
 10
1124.182995841076
 20
563.0198756205922
 30
0.0
 11
1151.188235066761
 21
594.1664263702953
 31
0.0
  0
LINE
  5
4D8
330
2
100
AcDbEntity
  8
0
 62
   250
370
    30
100
AcDbLine
 10
1137.685617496675
 20
578.593149224297
 30
0.0
 11
1125.12032890295
 21
594.9320954836649
 31
0.0
  0
LINE
  5
4D9
330
2
100
AcDbEntity
  8
0
 62
   250
370
    30
100
AcDbLine
 10
1137.685617496675
 20
578.593149224297
 30
0.0
 11
1149.878115259576
 21
561.9741648807295
 31
0.0
  0
LINE
  5
4DA
330
2
100
AcDbEntity
  8
0
 62
   250
370
    30
100
AcDbLine
 10
1221.017561394918
 20
436.1770210673407
 30
0.0
 11
1248.022800620603
 21
467.3235718170438
 31
0.0
  0
LINE
  5
4DB
330
2
100
AcDbEntity
  8
0
 62
   250
370
    30
100
AcDbLine
 10
1234.520183050517
 20
451.7502946710455
 30
0.0
 11
1221.954894456793
 21
468.0892409304131
 31
0.0
  0
LINE
  5
4DC
330
2
100
AcDbEntity
  8
0
 62
   250
370
    30
100
AcDbLine
 10
1234.520183050517
 20
451.7502946710455
 30
0.0
 11
1246.712680813418
 21
435.131310327478
 31
0.0
  0
LINE
  5
4DD
330
2
100
AcDbEntity
  8
0
 62
   250
370
    30
100
AcDbLine
 10
1221.017561394918
 20
379.5115908095326
 30
0.0
 11
1248.022800620603
 21
410.6581415592358
 31
0.0
  0
LINE
  5
4DE
330
2
100
AcDbEntity
  8
0
 62
   250
370
    30
100
AcDbLine
 10
1234.520183050517
 20
395.0848644132374
 30
0.0
 11
1221.954894456793
 21
411.4238106726054
 31
0.0
  0
LINE
  5
4DF
330
2
100
AcDbEntity
  8
0
 62
   250
370
    30
100
AcDbLine
 10
1234.520183050517
 20
395.0848644132374
 30
0.0
 11
1246.712680813418
 21
378.4658800696699
 31
0.0
  0
LINE
  5
4E0
330
2
100
AcDbEntity
  8
0
 62
   250
370
    30
100
AcDbLine
 10
1221.080002877503
 20
320.103816059162
 30
0.0
 11
1248.085242103188
 21
351.2503668088652
 31
0.0
  0
LINE
  5
4E1
330
2
100
AcDbEntity
  8
0
 62
   250
370
    30
100
AcDbLine
 10
1234.582624533102
 20
335.6770896628668
 30
0.0
 11
1222.017335939378
 21
352.0160359222348
 31
0.0
  0
LINE
  5
4E2
330
2
100
AcDbEntity
  8
0
 62
   250
370
    30
100
AcDbLine
 10
1234.582624533102
 20
335.6770896628668
 30
0.0
 11
1246.775122296003
 21
319.0581053192993
 31
0.0
  0
LINE
  5
4E3
330
2
100
AcDbEntity
  8
0
 62
   250
370
    30
100
AcDbLine
 10
989.9526532609682
 20
435.4398263182958
 30
0.0
 11
1016.957892486653
 21
466.5863770679991
 31
0.0
  0
LINE
  5
4E4
330
2
100
AcDbEntity
  8
0
 62
   250
370
    30
100
AcDbLine
 10
1003.455274916567
 20
451.0130999220006
 30
0.0
 11
990.8899863228434
 21
467.3520461813687
 31
0.0
  0
LINE
  5
4E5
330
2
100
AcDbEntity
  8
0
 62
   250
370
    30
100
AcDbLine
 10
1003.455274916567
 20
451.0130999220006
 30
0.0
 11
1015.647772679468
 21
434.3941155784332
 31
0.0
  0
LINE
  5
4E6
330
2
100
AcDbEntity
  8
0
 62
   250
370
    30
100
AcDbLine
 10
989.9526532609682
 20
378.7743960606472
 30
0.0
 11
1016.957892486653
 21
409.92094681035
 31
0.0
  0
LINE
  5
4E7
330
2
100
AcDbEntity
  8
0
 62
   250
370
    30
100
AcDbLine
 10
1003.455274916567
 20
394.3476696643519
 30
0.0
 11
990.8899863228434
 21
410.6866159237197
 31
0.0
  0
LINE
  5
4E8
330
2
100
AcDbEntity
  8
0
 62
   250
370
    30
100
AcDbLine
 10
1003.455274916567
 20
394.3476696643519
 30
0.0
 11
1015.647772679468
 21
377.7286853207844
 31
0.0
  0
LINE
  5
4E9
330
2
100
AcDbEntity
  8
0
 62
   250
370
    30
100
AcDbLine
 10
990.0150947435792
 20
319.3666213102447
 30
0.0
 11
1017.020333969264
 21
350.5131720599478
 31
0.0
  0
LINE
  5
4EA
330
2
100
AcDbEntity
  8
0
 62
   250
370
    30
100
AcDbLine
 10
1003.517716399178
 20
334.9398949139493
 30
0.0
 11
990.9524278054542
 21
351.2788411733175
 31
0.0
  0
LINE
  5
4EB
330
2
100
AcDbEntity
  8
0
 62
   250
370
    30
100
AcDbLine
 10
1003.517716399178
 20
334.9398949139493
 30
0.0
 11
1015.710214162079
 21
318.3209105703819
 31
0.0
  0
LINE
  5
5FE
330
2
100
AcDbEntity
  8
TOPOVERLAY
  6
Continuous
 62
   250
370
   100
100
AcDbLine
 10
732.0778698662016
 20
615.0891707921307
 30
0.0
 11
732.0778698662013
 21
581.2038389636446
 31
0.0
  0
LINE
  5
5FF
330
2
100
AcDbEntity
  8
0
 62
   250
370
   100
100
AcDbLine
 10
684.8802893777299
 20
628.4012180692907
 30
0.0
 11
718.7656212051225
 21
628.4012180692907
 31
0.0
  0
LINE
  5
600
330
2
100
AcDbEntity
  8
0
 62
   250
370
   100
100
AcDbLine
 10
698.5836043086227
 20
628.4012180692907
 30
0.0
 11
718.7656212051225
 21
628.4012180692907
 31
0.0
  0
LINE
  5
601
330
2
100
AcDbEntity
  8
TOPOVERLAY
  6
Continuous
 62
   250
370
   100
100
AcDbLine
 10
732.0778698662016
 20
641.7132653464506
 30
0.0
 11
732.0778698662013
 21
675.5985971749367
 31
0.0
  0
LINE
  5
602
330
2
100
AcDbEntity
  8
0
 62
   250
370
   100
100
AcDbLine
 10
745.3897157624886
 20
628.4012180692907
 30
0.0
 11
779.2750475898814
 21
628.4012180692907
 31
0.0
  0
LINE
  5
603
330
2
100
AcDbEntity
  8
0
 62
   250
370
   100
100
AcDbLine
 10
745.3897157624886
 20
628.4012180692907
 30
0.0
 11
768.4840300405551
 21
628.4012180692907
 31
0.0
  0
ARC
  5
690
330
2
100
AcDbEntity
  8
0
 62
   252
100
AcDbCircle
 10
617.8764404623666
 20
856.3992904409591
 30
0.0
 40
19.88045606348704
100
AcDbArc
 50
162.0486963503322
 51
20.11213206675568
  0
ARC
  5
6A3
330
2
100
AcDbEntity
  8
0
 62
   252
100
AcDbCircle
 10
618.2472219321501
 20
789.2460880659657
 30
0.0
 40
19.88045606348704
100
AcDbArc
 50
340.9682821417888
 51
199.0317178582113
  0
ARC
  5
6A4
330
2
100
AcDbEntity
  8
0
 62
   252
100
AcDbCircle
 10
677.4113550180925
 20
856.3992904409273
 30
0.0
 40
19.88045606348704
100
AcDbArc
 50
162.0486963503322
 51
20.11213206675568
  0
ARC
  5
6A5
330
2
100
AcDbEntity
  8
0
 62
   252
100
AcDbCircle
 10
677.7821364878757
 20
789.2460880659341
 30
0.0
 40
19.88045606348704
100
AcDbArc
 50
340.9682821417888
 51
199.0317178582113
  0
LINE
  5
732
330
2
100
AcDbEntity
  8
0
100
AcDbLine
 10
619.2376256086636
 20
955.3546443743297
 30
0.0
 11
820.0349625875297
 21
1028.541501895818
 31
0.0
  0
LINE
  5
733
330
2
100
AcDbEntity
  8
0
100
AcDbLine
 10
820.0349625875297
 20
1028.541501895818
 30
0.0
 11
984.7461680341094
 21
829.2543266625884
 31
0.0
  0
LINE
  5
734
330
2
100
AcDbEntity
  8
0
100
AcDbLine
 10
1207.404452582615
 20
889.1485265383353
 30
0.0
 11
820.0349625875297
 21
1028.541501895818
 31
0.0
  0
LINE
  5
735
330
2
100
AcDbEntity
  8
0
100
AcDbLine
 10
619.2376256086636
 20
955.3546443743297
 30
0.0
 11
641.0079841069817
 21
978.2355027997699
 31
0.0
  0
LINE
  5
736
330
2
100
AcDbEntity
  8
0
100
AcDbLine
 10
619.2376256086636
 20
955.3546443743297
 30
0.0
 11
650.0079510776504
 21
957.6091876945255
 31
0.0
  0
LINE
  5
737
330
2
100
AcDbEntity
  8
0
100
AcDbLine
 10
984.7461680341094
 20
829.2543266625884
 30
0.0
 11
955.4521093827659
 21
828.3110374827492
 31
0.0
  0
LINE
  5
738
330
2
100
AcDbEntity
  8
0
100
AcDbLine
 10
984.7461680341094
 20
829.2543266625884
 30
0.0
 11
977.1993952477394
 21
857.6698428596563
 31
0.0
  0
LINE
  5
739
330
2
100
AcDbEntity
  8
0
100
AcDbLine
 10
1207.404452582615
 20
889.1485265383353
 30
0.0
 11
1186.593092820579
 21
879.8475050098591
 31
0.0
  0
LINE
  5
73A
330
2
100
AcDbEntity
  8
0
100
AcDbLine
 10
1207.404452582615
 20
889.1485265383353
 30
0.0
 11
1194.808102508875
 21
905.5620968383914
 31
0.0
  0
LINE
  5
8A3
330
2
100
AcDbEntity
  8
6-家具-143
 62
   143
100
AcDbLine
 10
844.1952063672486
 20
1024.376021054703
 30
0.0
 11
843.7391545014465
 21
1016.401931442823
 31
0.0
  0
LINE
  5
8A4
330
2
100
AcDbEntity
  8
6-家具-143
 62
   143
100
AcDbLine
 10
844.4232323001616
 20
1027.337825767686
 30
0.0
 11
844.1952063672486
 21
1024.376021054703
 31
0.0
  0
LINE
  5
8A5
330
2
100
AcDbEntity
  8
6-家具-143
 62
   143
100
AcDbLine
 10
823.4448464731347
 20
1015.490606915755
 30
0.0
 11
823.9008983389483
 21
1022.097709737033
 31
0.0
  0
LINE
  5
8A6
330
2
100
AcDbEntity
  8
6-家具-143
 62
   143
100
AcDbLine
 10
823.6728724060357
 20
1009.339166358011
 30
0.0
 11
823.4448464731347
 21
1015.490606915755
 31
0.0
  0
LINE
  5
8A7
330
2
100
AcDbEntity
  8
6-家具-143
 62
   143
100
AcDbLine
 10
828.0053651311909
 20
1002.732063536733
 30
0.0
 11
823.6728724060357
 21
1009.339166358011
 31
0.0
  0
LINE
  5
8A8
330
2
100
AcDbEntity
  8
6-家具-143
 62
   143
100
AcDbLine
 10
833.4779875208401
 20
996.3527918472097
 30
0.0
 11
828.0053651311909
 21
1002.732063536733
 31
0.0
  0
LINE
  5
8A9
330
2
100
AcDbEntity
  8
6-家具-143
 62
   143
100
AcDbLine
 10
807.0269793041642
 20
996.8084541107439
 30
0.0
 11
806.5709274383619
 21
993.846649397761
 31
0.0
  0
LINE
  5
8AA
330
2
100
AcDbEntity
  8
6-家具-143
 62
   143
100
AcDbLine
 10
808.8511867673846
 20
1000.225921087284
 30
0.0
 11
807.0269793041642
 21
996.8084541107439
 31
0.0
  0
LINE
  5
8AB
330
2
100
AcDbEntity
  8
6-家具-143
 62
   143
100
AcDbLine
 10
811.3594720293081
 20
1002.959894668488
 30
0.0
 11
808.8511867673846
 21
1000.225921087284
 31
0.0
  0
LINE
  5
8AC
330
2
100
AcDbEntity
  8
6-家具-143
 62
   143
100
AcDbLine
 10
813.6397313583421
 20
1007.288686172096
 30
0.0
 11
811.3594720293081
 21
1002.959894668488
 31
0.0
  0
LINE
  5
8AD
330
2
100
AcDbEntity
  8
6-家具-143
 62
   143
100
AcDbLine
 10
813.6397313583421
 20
1013.667957861595
 30
0.0
 11
813.6397313583421
 21
1007.288686172096
 31
0.0
  0
LINE
  5
8AE
330
2
100
AcDbEntity
  8
6-家具-143
 62
   143
100
AcDbLine
 10
814.5518350899463
 20
1017.085424838136
 30
0.0
 11
813.6397313583421
 21
1013.667957861595
 31
0.0
  0
LINE
  5
8AF
330
2
100
AcDbEntity
  8
6-家具-143
 62
   143
100
AcDbLine
 10
815.6919647544633
 20
1021.869878605255
 30
0.0
 11
814.5518350899463
 21
1017.085424838136
 31
0.0
  0
LINE
  5
8B0
330
2
100
AcDbEntity
  8
6-家具-143
 62
   143
100
AcDbLine
 10
806.1148755725598
 20
1042.374680464402
 30
0.0
 11
803.8346162435376
 21
1049.209614417436
 31
0.0
  0
LINE
  5
8B1
330
2
100
AcDbEntity
  8
6-家具-143
 62
   143
100
AcDbLine
 10
805.6588237067579
 20
1031.894448403051
 30
0.0
 11
806.1148755725598
 21
1042.374680464402
 31
0.0
  0
LINE
  5
8B2
330
2
100
AcDbEntity
  8
6-家具-143
 62
   143
100
AcDbLine
 10
805.6588237067579
 20
1025.743007845305
 30
0.0
 11
805.6588237067579
 21
1031.894448403051
 31
0.0
  0
LINE
  5
8B3
330
2
100
AcDbEntity
  8
6-家具-143
 62
   143
100
AcDbLine
 10
805.6588237067579
 20
1020.047229551118
 30
0.0
 11
805.6588237067579
 21
1025.743007845305
 31
0.0
  0
LINE
  5
8B4
330
2
100
AcDbEntity
  8
6-家具-143
 62
   143
100
AcDbLine
 10
806.3429015054612
 20
1013.212295598061
 30
0.0
 11
805.6588237067579
 21
1020.047229551118
 31
0.0
  0
LINE
  5
8B5
330
2
100
AcDbEntity
  8
6-家具-143
 62
   143
100
AcDbLine
 10
806.3429015054612
 20
1006.149530513249
 30
0.0
 11
806.3429015054612
 21
1013.212295598061
 31
0.0
  0
LINE
  5
8B6
330
2
100
AcDbEntity
  8
6-家具-143
 62
   143
100
AcDbLine
 10
807.2550052370653
 20
997.2641163742778
 30
0.0
 11
806.3429015054612
 21
1006.149530513249
 31
0.0
  0
LINE
  5
8B7
330
2
100
AcDbEntity
  8
6-家具-143
 62
   143
100
AcDbLine
 10
804.8449468697084
 20
1002.339492834956
 30
0.0
 11
804.0661506006388
 21
998.8379035677205
 31
0.0
  0
LINE
  5
8B8
330
2
100
AcDbEntity
  8
6-家具-143
 62
   143
100
AcDbLine
 10
806.2727400296843
 20
1005.581705119428
 30
0.0
 11
804.8449468697084
 21
1002.339492834956
 31
0.0
  0
LINE
  5
8B9
330
2
100
AcDbEntity
  8
6-家具-143
 62
   143
100
AcDbLine
 10
831.8818059905209
 20
1025.743007845305
 30
0.0
 11
829.3735207285974
 21
1027.109994635931
 31
0.0
  0
LINE
  5
8BA
330
2
100
AcDbEntity
  8
6-家具-143
 62
   143
100
AcDbLine
 10
835.3021949840604
 20
1025.515176713551
 30
0.0
 11
831.8818059905209
 21
1025.743007845305
 31
0.0
  0
LINE
  5
8BB
330
2
100
AcDbEntity
  8
6-家具-143
 62
   143
100
AcDbLine
 10
841.2308692395232
 20
1025.515176713551
 30
0.0
 11
835.3021949840604
 21
1025.515176713551
 31
0.0
  0
LINE
  5
8BC
330
2
100
AcDbEntity
  8
6-家具-143
 62
   143
100
AcDbLine
 10
844.1952063672486
 20
1027.79348803122
 30
0.0
 11
841.2308692395232
 21
1025.515176713551
 31
0.0
  0
LINE
  5
8BD
330
2
100
AcDbEntity
  8
6-家具-143
 62
   143
100
AcDbLine
 10
848.0716472265905
 20
1031.21095500776
 30
0.0
 11
844.1952063672486
 21
1027.79348803122
 31
0.0
  0
LINE
  5
8BE
330
2
100
AcDbEntity
  8
6-家具-143
 62
   143
100
AcDbLine
 10
851.0359843543277
 20
1035.995408774879
 30
0.0
 11
848.0716472265905
 21
1031.21095500776
 31
0.0
  0
LINE
  5
8BF
330
2
100
AcDbEntity
  8
6-家具-143
 62
   143
100
AcDbLine
 10
851.4920362201296
 20
1048.070458758589
 30
0.0
 11
851.0359843543277
 21
1035.995408774879
 31
0.0
  0
LINE
  5
8C0
330
2
100
AcDbEntity
  8
6-家具-143
 62
   143
100
AcDbLine
 10
850.1238806227116
 20
1058.550690819942
 30
0.0
 11
851.4920362201296
 21
1048.070458758589
 31
0.0
  0
LINE
  5
8C1
330
2
100
AcDbEntity
  8
6-家具-143
 62
   143
100
AcDbLine
 10
847.1595434949859
 20
1063.107313455305
 30
0.0
 11
850.1238806227116
 21
1058.550690819942
 31
0.0
  0
LINE
  5
8C2
330
2
100
AcDbEntity
  8
6-家具-143
 62
   143
100
AcDbLine
 10
842.3709989040403
 20
1064.702131377686
 30
0.0
 11
847.1595434949859
 21
1063.107313455305
 31
0.0
  0
LINE
  5
8C3
330
2
100
AcDbEntity
  8
6-家具-143
 62
   143
100
AcDbLine
 10
836.4423246485774
 20
1066.752611563601
 30
0.0
 11
842.3709989040403
 21
1064.702131377686
 31
0.0
  0
LINE
  5
8C4
330
2
100
AcDbEntity
  8
6-家具-143
 62
   143
100
AcDbLine
 10
832.3378578563346
 20
1069.030922881271
 30
0.0
 11
836.4423246485774
 21
1066.752611563601
 31
0.0
  0
LINE
  5
8C5
330
2
100
AcDbEntity
  8
6-家具-143
 62
   143
100
AcDbLine
 10
806.1148755725598
 20
1005.921699381471
 30
0.0
 11
806.7989533712632
 21
1005.921699381471
 31
0.0
  0
LINE
  5
8C6
330
2
100
AcDbEntity
  8
6-家具-143
 62
   143
100
AcDbLine
 10
805.4307977738567
 20
1005.921699381471
 30
0.0
 11
806.1148755725598
 21
1005.921699381471
 31
0.0
  0
LINE
  5
8C7
330
2
100
AcDbEntity
  8
6-家具-143
 62
   143
100
AcDbLine
 10
804.9747459080432
 20
1009.794828621545
 30
0.0
 11
805.4307977738567
 21
1005.921699381471
 31
0.0
  0
LINE
  5
8C8
330
2
100
AcDbEntity
  8
6-家具-143
 62
   143
100
AcDbLine
 10
804.0626421764384
 20
1010.250490885078
 30
0.0
 11
804.9747459080432
 21
1009.794828621545
 31
0.0
  0
LINE
  5
8C9
330
2
100
AcDbEntity
  8
6-家具-143
 62
   143
100
AcDbLine
 10
800.1862013170971
 20
1032.350110666584
 30
0.0
 11
804.0626421764384
 21
1010.250490885078
 31
0.0
  0
LINE
  5
8CA
330
2
100
AcDbEntity
  8
6-家具-143
 62
   143
100
AcDbLine
 10
799.9581753841962
 20
1034.856253116032
 30
0.0
 11
800.1862013170971
 21
1032.350110666584
 31
0.0
  0
LINE
  5
8CB
330
2
100
AcDbEntity
  8
6-家具-143
 62
   143
100
AcDbLine
 10
800.6422531828993
 20
1042.830342727936
 30
0.0
 11
799.9581753841962
 21
1034.856253116032
 31
0.0
  0
LINE
  5
8CC
330
2
100
AcDbEntity
  8
6-家具-143
 62
   143
100
AcDbLine
 10
799.5021235183941
 20
1053.7662370528
 30
0.0
 11
800.6422531828993
 21
1042.830342727936
 31
0.0
  0
LINE
  5
8CD
330
2
100
AcDbEntity
  8
6-家具-143
 62
   143
100
AcDbLine
 10
801.326330981614
 20
1059.46201534701
 30
0.0
 11
799.5021235183941
 21
1053.7662370528
 31
0.0
  0
LINE
  5
8CE
330
2
100
AcDbEntity
  8
6-家具-143
 62
   143
100
AcDbLine
 10
803.3785643777353
 20
1062.423820059994
 30
0.0
 11
801.326330981614
 21
1059.46201534701
 31
0.0
  0
LINE
  5
8CF
330
2
100
AcDbEntity
  8
6-家具-143
 62
   143
100
AcDbLine
 10
805.8868496396588
 20
1064.246469114152
 30
0.0
 11
803.3785643777353
 21
1062.423820059994
 31
0.0
  0
LINE
  5
8D0
330
2
100
AcDbEntity
  8
6-家具-143
 62
   143
100
AcDbLine
 10
810.6753942306045
 20
1066.296949300067
 30
0.0
 11
805.8868496396588
 21
1064.246469114152
 31
0.0
  0
LINE
  5
8D1
330
2
100
AcDbEntity
  8
6-家具-143
 62
   143
100
AcDbLine
 10
815.6919647544633
 20
1069.25875401305
 30
0.0
 11
810.6753942306045
 21
1066.296949300067
 31
0.0
  0
LINE
  5
8D2
330
2
100
AcDbEntity
  8
6-家具-143
 62
   143
100
AcDbLine
 10
814.0957832241442
 20
1028.932643690068
 30
0.0
 11
814.5518350899463
 21
1026.654332372398
 31
0.0
  0
LINE
  5
8D3
330
2
100
AcDbEntity
  8
6-家具-143
 62
   143
100
AcDbLine
 10
812.0435498280228
 20
1038.729382356107
 30
0.0
 11
814.0957832241442
 21
1028.932643690068
 31
0.0
  0
LINE
  5
8D4
330
2
100
AcDbEntity
  8
6-家具-143
 62
   143
100
AcDbLine
 10
808.6231608344833
 20
1051.260094603351
 30
0.0
 11
812.0435498280228
 21
1038.729382356107
 31
0.0
  0
LINE
  5
8D5
330
2
100
AcDbEntity
  8
6-家具-143
 62
   143
100
AcDbLine
 10
806.1148755725598
 20
1058.322859688163
 30
0.0
 11
808.6231608344833
 21
1051.260094603351
 31
0.0
  0
LINE
  5
8D6
330
2
100
AcDbEntity
  8
6-家具-143
 62
   143
100
AcDbLine
 10
809.3072386331867
 20
1060.601171005857
 30
0.0
 11
806.1148755725598
 21
1058.322859688163
 31
0.0
  0
LINE
  5
8D7
330
2
100
AcDbEntity
  8
6-家具-143
 62
   143
100
AcDbLine
 10
806.7989533712632
 20
1062.423820059994
 30
0.0
 11
809.3072386331867
 21
1060.601171005857
 31
0.0
  0
LINE
  5
8D8
330
2
100
AcDbEntity
  8
6-家具-143
 62
   143
100
AcDbLine
 10
809.7632904990005
 20
1065.841287036533
 30
0.0
 11
806.7989533712632
 21
1062.423820059994
 31
0.0
  0
LINE
  5
8D9
330
2
100
AcDbEntity
  8
6-家具-143
 62
   143
100
AcDbLine
 10
819.112353747991
 20
1018.452411628739
 30
0.0
 11
822.7607686744313
 21
1022.325540868789
 31
0.0
  0
LINE
  5
8DA
330
2
100
AcDbEntity
  8
6-家具-143
 62
   143
100
AcDbLine
 10
814.0957832241442
 20
1023.692527659391
 30
0.0
 11
819.112353747991
 21
1018.452411628739
 31
0.0
  0
LINE
  5
8DB
330
2
100
AcDbEntity
  8
6-家具-143
 62
   143
100
AcDbLine
 10
815.0078869557486
 20
1028.932643690068
 30
0.0
 11
814.0957832241442
 21
1023.692527659391
 31
0.0
  0
LINE
  5
8DC
330
2
100
AcDbEntity
  8
6-家具-143
 62
   143
100
AcDbLine
 10
815.6919647544633
 20
1041.919018200868
 30
0.0
 11
815.0078869557486
 21
1028.932643690068
 31
0.0
  0
LINE
  5
8DD
330
2
100
AcDbEntity
  8
6-家具-143
 62
   143
100
AcDbLine
 10
816.8320944189686
 20
1056.728041765806
 30
0.0
 11
815.6919647544633
 21
1041.919018200868
 31
0.0
  0
LINE
  5
8DE
330
2
100
AcDbEntity
  8
6-家具-143
 62
   143
100
AcDbLine
 10
819.5684056137931
 20
1065.613455904754
 30
0.0
 11
816.8320944189686
 21
1056.728041765806
 31
0.0
  0
LINE
  5
8DF
330
2
100
AcDbEntity
  8
6-家具-143
 62
   143
100
AcDbLine
 10
812.2715757609238
 20
1047.614796495055
 30
0.0
 11
814.5518350899463
 21
1031.666617271294
 31
0.0
  0
LINE
  5
8E0
330
2
100
AcDbEntity
  8
6-家具-143
 62
   143
100
AcDbLine
 10
811.8155238951217
 20
1058.778521951698
 30
0.0
 11
812.2715757609238
 21
1047.614796495055
 31
0.0
  0
LINE
  5
8E1
330
2
100
AcDbEntity
  8
6-家具-143
 62
   143
100
AcDbLine
 10
812.4996016938249
 20
1065.385624772975
 30
0.0
 11
811.8155238951217
 21
1058.778521951698
 31
0.0
  0
LINE
  5
8E2
330
2
100
AcDbEntity
  8
6-家具-143
 62
   143
100
AcDbLine
 10
814.7798610228473
 20
1068.119598354203
 30
0.0
 11
812.4996016938249
 21
1065.385624772975
 31
0.0
  0
LINE
  5
8E3
330
2
100
AcDbEntity
  8
6-家具-143
 62
   143
100
AcDbLine
 10
824.3569502047508
 20
1044.197329518538
 30
0.0
 11
824.1289242718496
 21
1039.412875751419
 31
0.0
  0
LINE
  5
8E4
330
2
100
AcDbEntity
  8
6-家具-143
 62
   143
100
AcDbLine
 10
825.041028003454
 20
1053.08274365751
 30
0.0
 11
824.3569502047508
 21
1044.197329518538
 31
0.0
  0
LINE
  5
8E5
330
2
100
AcDbEntity
  8
6-家具-143
 62
   143
100
AcDbLine
 10
828.0053651311909
 20
1059.917677610545
 30
0.0
 11
825.041028003454
 21
1053.08274365751
 31
0.0
  0
LINE
  5
8E6
330
2
100
AcDbEntity
  8
6-家具-143
 62
   143
100
AcDbLine
 10
831.8818059905209
 20
1067.891767222448
 30
0.0
 11
828.0053651311909
 21
1059.917677610545
 31
0.0
  0
LINE
  5
8E7
330
2
100
AcDbEntity
  8
6-家具-143
 62
   143
100
AcDbLine
 10
830.2856244602136
 20
1048.753952153902
 30
0.0
 11
828.6894429298943
 21
1038.957213487862
 31
0.0
  0
LINE
  5
8E8
330
2
100
AcDbEntity
  8
6-家具-143
 62
   143
100
AcDbLine
 10
832.1098319234339
 20
1056.044548370493
 30
0.0
 11
830.2856244602136
 21
1048.753952153902
 31
0.0
  0
LINE
  5
8E9
330
2
100
AcDbEntity
  8
6-家具-143
 62
   143
100
AcDbLine
 10
834.8461431182579
 20
1059.46201534701
 30
0.0
 11
832.1098319234339
 21
1056.044548370493
 31
0.0
  0
LINE
  5
8EA
330
2
100
AcDbEntity
  8
6-家具-143
 62
   143
100
AcDbLine
 10
832.1098319234339
 20
1060.601171005857
 30
0.0
 11
834.8461431182579
 21
1059.46201534701
 31
0.0
  0
LINE
  5
8EB
330
2
100
AcDbEntity
  8
6-家具-143
 62
   143
100
AcDbLine
 10
835.0741690511593
 20
1062.195988928237
 30
0.0
 11
832.1098319234339
 21
1060.601171005857
 31
0.0
  0
LINE
  5
8EC
330
2
100
AcDbEntity
  8
6-家具-143
 62
   143
100
AcDbLine
 10
835.7582468498627
 20
1066.069118168289
 30
0.0
 11
835.0741690511593
 21
1062.195988928237
 31
0.0
  0
LINE
  5
8ED
330
2
100
AcDbEntity
  8
6-家具-143
 62
   143
100
AcDbLine
 10
822.4141533854774
 20
1039.03714564309
 30
0.0
 11
823.5714944221555
 21
1033.640834100769
 31
0.0
  0
LINE
  5
8EE
330
2
100
AcDbEntity
  8
6-家具-143
 62
   143
100
AcDbLine
 10
822.2212630924662
 20
1044.24073208956
 30
0.0
 11
822.4141533854774
 21
1039.03714564309
 31
0.0
  0
LINE
  5
8EF
330
2
100
AcDbEntity
  8
6-家具-143
 62
   143
100
AcDbLine
 10
821.6425922134433
 20
1055.996982984678
 30
0.0
 11
822.2212630924662
 21
1044.24073208956
 31
0.0
  0
LINE
  5
8F0
330
2
100
AcDbEntity
  8
6-家具-143
 62
   143
100
AcDbLine
 10
822.4141533854774
 20
1064.862352313394
 30
0.0
 11
821.6425922134433
 21
1055.996982984678
 31
0.0
  0
LINE
  5
8F1
330
2
100
AcDbEntity
  8
6-家具-143
 62
   143
100
AcDbLine
 10
831.4257541247188
 20
1035.767577643124
 30
0.0
 11
830.0575985273123
 21
1035.995408774879
 31
0.0
  0
LINE
  5
8F2
330
2
100
AcDbEntity
  8
6-家具-143
 62
   143
100
AcDbLine
 10
833.4779875208401
 20
1034.628421984277
 30
0.0
 11
831.4257541247188
 21
1035.767577643124
 31
0.0
  0
LINE
  5
8F3
330
2
100
AcDbEntity
  8
6-家具-143
 62
   143
100
AcDbLine
 10
834.1620653195549
 20
1031.666617271294
 30
0.0
 11
833.4779875208401
 21
1034.628421984277
 31
0.0
  0
LINE
  5
8F4
330
2
100
AcDbEntity
  8
6-家具-143
 62
   143
100
AcDbLine
 10
833.2499615879392
 20
1028.476981426533
 30
0.0
 11
834.1620653195549
 21
1031.666617271294
 31
0.0
  0
LINE
  5
8F5
330
2
100
AcDbEntity
  8
6-家具-143
 62
   143
100
AcDbLine
 10
831.1977281918178
 20
1027.337825767686
 30
0.0
 11
833.2499615879392
 21
1028.476981426533
 31
0.0
  0
LINE
  5
8F6
330
2
100
AcDbEntity
  8
6-家具-143
 62
   143
100
AcDbLine
 10
830.5452237491506
 20
1029.31469904174
 30
0.0
 11
832.622013800022
 21
1028.795945076215
 31
0.0
  0
LINE
  5
8F7
330
2
100
AcDbEntity
  8
6-家具-143
 62
   143
100
AcDbLine
 10
828.4684336982911
 20
1027.888125636558
 30
0.0
 11
830.5452237491506
 21
1029.31469904174
 31
0.0
  0
LINE
  5
8F8
330
2
100
AcDbEntity
  8
6-家具-143
 62
   143
100
AcDbLine
 10
826.781041781966
 20
1025.294355809005
 30
0.0
 11
828.4684336982911
 21
1027.888125636558
 31
0.0
  0
LINE
  5
8F9
330
2
100
AcDbEntity
  8
6-家具-143
 62
   143
100
AcDbLine
 10
823.9254554620256
 20
1022.959962964165
 30
0.0
 11
826.781041781966
 21
1025.294355809005
 31
0.0
  0
LINE
  5
8FA
330
2
100
AcDbEntity
  8
6-家具-143
 62
   143
100
AcDbLine
 10
822.2380635457005
 20
1022.441208998663
 30
0.0
 11
823.9254554620256
 21
1022.959962964165
 31
0.0
  0
LINE
  5
8FB
330
2
100
AcDbEntity
  8
6-家具-143
 62
   143
100
AcDbLine
 10
821.5890666548057
 20
1023.34902843832
 30
0.0
 11
822.2380635457005
 21
1022.441208998663
 31
0.0
  0
LINE
  5
8FC
330
2
100
AcDbEntity
  8
6-家具-143
 62
   143
100
AcDbLine
 10
821.8486654111659
 20
1024.775601843479
 30
0.0
 11
821.5890666548057
 21
1023.34902843832
 31
0.0
  0
LINE
  5
8FD
330
2
100
AcDbEntity
  8
6-家具-143
 62
   143
100
AcDbLine
 10
821.0698691420848
 20
1025.553732791743
 30
0.0
 11
821.8486654111659
 21
1024.775601843479
 31
0.0
  0
LINE
  5
8FE
330
2
100
AcDbEntity
  8
6-家具-143
 62
   143
100
AcDbLine
 10
821.7188660329799
 20
1026.591240722769
 30
0.0
 11
821.0698691420848
 21
1025.553732791743
 31
0.0
  0
LINE
  5
8FF
330
2
100
AcDbEntity
  8
6-家具-143
 62
   143
100
AcDbLine
 10
821.0698691420848
 20
1027.109994688294
 30
0.0
 11
821.7188660329799
 21
1026.591240722769
 31
0.0
  0
LINE
  5
900
330
2
100
AcDbEntity
  8
6-家具-143
 62
   143
100
AcDbLine
 10
820.9400697639107
 20
1027.888125636558
 30
0.0
 11
821.0698691420848
 21
1027.109994688294
 31
0.0
  0
LINE
  5
901
330
2
100
AcDbEntity
  8
6-家具-143
 62
   143
100
AcDbLine
 10
822.8870604365958
 20
1029.833453007242
 30
0.0
 11
820.9400697639107
 21
1027.888125636558
 31
0.0
  0
LINE
  5
902
330
2
100
AcDbEntity
  8
6-家具-143
 62
   143
100
AcDbLine
 10
821.5890666548057
 20
1030.092829990005
 30
0.0
 11
822.8870604365958
 21
1029.833453007242
 31
0.0
  0
LINE
  5
903
330
2
100
AcDbEntity
  8
6-家具-143
 62
   143
100
AcDbLine
 10
821.8486654111659
 20
1031.519403395163
 30
0.0
 11
821.5890666548057
 21
1030.092829990005
 31
0.0
  0
LINE
  5
904
330
2
100
AcDbEntity
  8
6-家具-143
 62
   143
100
AcDbLine
 10
825.0936498656413
 20
1033.464730765847
 30
0.0
 11
821.8486654111659
 21
1031.519403395163
 31
0.0
  0
LINE
  5
905
330
2
100
AcDbEntity
  8
6-家具-143
 62
   143
100
AcDbLine
 10
826.65124240378
 20
1035.150681153768
 30
0.0
 11
825.0936498656413
 21
1033.464730765847
 31
0.0
  0
LINE
  5
906
330
2
100
AcDbEntity
  8
6-家具-143
 62
   143
100
AcDbLine
 10
825.7426467565364
 20
1036.317877576188
 30
0.0
 11
826.65124240378
 21
1035.150681153768
 31
0.0
  0
LINE
  5
907
330
2
100
AcDbEntity
  8
6-家具-143
 62
   143
100
AcDbLine
 10
824.3148535965604
 20
1036.966320033082
 30
0.0
 11
825.7426467565364
 21
1036.317877576188
 31
0.0
  0
LINE
  5
908
330
2
100
AcDbEntity
  8
6-家具-143
 62
   143
100
AcDbLine
 10
823.9254554620256
 20
1038.003827964109
 30
0.0
 11
824.3148535965604
 21
1036.966320033082
 31
0.0
  0
LINE
  5
909
330
2
100
AcDbEntity
  8
6-家具-143
 62
   143
100
AcDbLine
 10
824.4446529747463
 20
1038.911647403766
 30
0.0
 11
823.9254554620256
 21
1038.003827964109
 31
0.0
  0
LINE
  5
90A
330
2
100
AcDbEntity
  8
6-家具-143
 62
   143
100
AcDbLine
 10
826.2618442692454
 20
1038.522581929635
 30
0.0
 11
824.4446529747463
 21
1038.911647403766
 31
0.0
  0
LINE
  5
90B
330
2
100
AcDbEntity
  8
6-家具-143
 62
   143
100
AcDbLine
 10
827.4300386728612
 20
1038.522581929635
 30
0.0
 11
826.2618442692454
 21
1038.522581929635
 31
0.0
  0
LINE
  5
90C
330
2
100
AcDbEntity
  8
6-家具-143
 62
   143
100
AcDbLine
 10
828.7280324546513
 20
1037.096008524452
 30
0.0
 11
827.4300386728612
 21
1038.522581929635
 31
0.0
  0
LINE
  5
90D
330
2
100
AcDbEntity
  8
6-家具-143
 62
   143
100
AcDbLine
 10
829.6366281019068
 20
1034.891304171006
 30
0.0
 11
828.7280324546513
 21
1037.096008524452
 31
0.0
  0
LINE
  5
90E
330
2
100
AcDbEntity
  8
6-家具-143
 62
   143
100
AcDbLine
 10
830.5452237491506
 20
1034.761615679636
 30
0.0
 11
829.6366281019068
 21
1034.891304171006
 31
0.0
  0
LINE
  5
90F
330
2
100
AcDbEntity
  8
6-家具-143
 62
   143
100
AcDbLine
 10
818.6563018821889
 20
1016.401931442823
 30
0.0
 11
823.2168205402334
 21
1017.085424838136
 31
0.0
  0
LINE
  5
910
330
2
100
AcDbEntity
  8
6-家具-143
 62
   143
100
AcDbLine
 10
815.0078869557486
 20
1017.313255969891
 30
0.0
 11
818.6563018821889
 21
1016.401931442823
 31
0.0
  0
LINE
  5
911
330
2
100
AcDbEntity
  8
6-家具-143
 62
   143
100
AcDbLine
 10
841.4588951724242
 20
1047.159134231521
 30
0.0
 11
838.9506099105007
 21
1045.564316309141
 31
0.0
  0
LINE
  5
912
330
2
100
AcDbEntity
  8
6-家具-143
 62
   143
100
AcDbLine
 10
839.6346877092042
 20
1039.185044619641
 30
0.0
 11
841.4588951724242
 21
1047.159134231521
 31
0.0
  0
LINE
  5
913
330
2
100
AcDbEntity
  8
6-家具-143
 62
   143
100
AcDbLine
 10
841.2308692395232
 20
1038.729382356107
 30
0.0
 11
839.6346877092042
 21
1039.185044619641
 31
0.0
  0
LINE
  5
914
330
2
100
AcDbEntity
  8
6-家具-143
 62
   143
100
AcDbLine
 10
838.4945580446988
 20
1038.729382356107
 30
0.0
 11
841.2308692395232
 21
1038.729382356107
 31
0.0
  0
LINE
  5
915
330
2
100
AcDbEntity
  8
6-家具-143
 62
   143
100
AcDbLine
 10
833.7060134537411
 20
1036.451071038413
 30
0.0
 11
838.4945580446988
 21
1038.729382356107
 31
0.0
  0
LINE
  5
916
330
2
100
AcDbEntity
  8
6-家具-143
 62
   143
100
AcDbLine
 10
830.0575985273123
 20
1035.995408774879
 30
0.0
 11
833.7060134537411
 21
1036.451071038413
 31
0.0
  0
LINE
  5
917
330
2
100
AcDbEntity
  8
6-家具-143
 62
   143
100
AcDbLine
 10
832.6670342357724
 20
1086.657458127839
 30
0.0
 11
832.0121905308811
 21
1085.348889575866
 31
0.0
  0
LINE
  5
918
330
2
100
AcDbEntity
  8
6-家具-143
 62
   143
100
AcDbLine
 10
833.0412306385593
 20
1088.994187684929
 30
0.0
 11
832.6670342357724
 21
1086.657458127839
 31
0.0
  0
LINE
  5
919
330
2
100
AcDbEntity
  8
6-家具-143
 62
   143
100
AcDbLine
 10
832.2928378329738
 20
1091.798263153447
 30
0.0
 11
833.0412306385593
 21
1088.994187684929
 31
0.0
  0
LINE
  5
91A
330
2
100
AcDbEntity
  8
6-家具-143
 62
   143
100
AcDbLine
 10
830.7960522218035
 20
1094.415400257394
 30
0.0
 11
832.2928378329738
 21
1091.798263153447
 31
0.0
  0
LINE
  5
91B
330
2
100
AcDbEntity
  8
6-家具-143
 62
   143
100
AcDbLine
 10
827.9895792008737
 20
1095.163153715678
 30
0.0
 11
830.7960522218035
 21
1094.415400257394
 31
0.0
  0
LINE
  5
91C
330
2
100
AcDbEntity
  8
6-家具-143
 62
   143
100
AcDbLine
 10
820.7862984471267
 20
1095.537030444821
 30
0.0
 11
827.9895792008737
 21
1095.163153715678
 31
0.0
  0
LINE
  5
91D
330
2
100
AcDbEntity
  8
6-家具-143
 62
   143
100
AcDbLine
 10
815.8281961101234
 20
1094.695807804251
 30
0.0
 11
820.7862984471267
 21
1095.537030444821
 31
0.0
  0
LINE
  5
91E
330
2
100
AcDbEntity
  8
6-家具-143
 62
   143
100
AcDbLine
 10
814.5185087003524
 20
1093.387239252277
 30
0.0
 11
815.8281961101234
 21
1094.695807804251
 31
0.0
  0
LINE
  5
91F
330
2
100
AcDbEntity
  8
6-家具-143
 62
   143
100
AcDbLine
 10
814.7056069017514
 20
1091.237448059758
 30
0.0
 11
814.5185087003524
 21
1093.387239252277
 31
0.0
  0
LINE
  5
920
330
2
100
AcDbEntity
  8
6-家具-143
 62
   143
100
AcDbLine
 10
813.9572140961663
 20
1086.937865674695
 30
0.0
 11
814.7056069017514
 21
1091.237448059758
 31
0.0
  0
LINE
  5
921
330
2
100
AcDbEntity
  8
6-家具-143
 62
   143
100
AcDbLine
 10
813.9572140961663
 20
1084.133790206178
 30
0.0
 11
813.9572140961663
 21
1086.937865674695
 31
0.0
  0
LINE
  5
922
330
2
100
AcDbEntity
  8
6-家具-143
 62
   143
100
AcDbLine
 10
814.5185087003524
 20
1082.918690836466
 30
0.0
 11
813.9572140961663
 21
1084.133790206178
 31
0.0
  0
LINE
  5
923
330
2
100
AcDbEntity
  8
6-家具-143
 62
   143
100
AcDbLine
 10
813.770115894767
 20
1080.021146185663
 30
0.0
 11
814.5185087003524
 21
1082.918690836466
 31
0.0
  0
LINE
  5
924
330
2
100
AcDbEntity
  8
6-家具-143
 62
   143
100
AcDbLine
 10
814.7991560024451
 20
1075.628094618315
 30
0.0
 11
813.770115894767
 21
1080.021146185663
 31
0.0
  0
LINE
  5
925
330
2
100
AcDbEntity
  8
6-家具-143
 62
   143
100
AcDbLine
 10
816.0152943115228
 20
1073.197895878939
 30
0.0
 11
814.7991560024451
 21
1075.628094618315
 31
0.0
  0
LINE
  5
926
330
2
100
AcDbEntity
  8
6-家具-143
 62
   143
100
AcDbLine
 10
817.0443344192008
 20
1071.982796509251
 30
0.0
 11
816.0152943115228
 21
1073.197895878939
 31
0.0
  0
LINE
  5
927
330
2
100
AcDbEntity
  8
6-家具-143
 62
   143
100
AcDbLine
 10
817.9798254261852
 20
1071.795858144681
 30
0.0
 11
817.0443344192008
 21
1071.982796509251
 31
0.0
  0
LINE
  5
928
330
2
100
AcDbEntity
  8
6-家具-143
 62
   143
100
AcDbLine
 10
818.6346691310649
 20
1070.767697139564
 30
0.0
 11
817.9798254261852
 21
1071.795858144681
 31
0.0
  0
LINE
  5
929
330
2
100
AcDbEntity
  8
6-家具-143
 62
   143
100
AcDbLine
 10
830.3283067183231
 20
1085.25542039358
 30
0.0
 11
830.70250312111
 21
1085.068482029009
 31
0.0
  0
LINE
  5
92A
330
2
100
AcDbEntity
  8
6-家具-143
 62
   143
100
AcDbLine
 10
830.3283067183231
 20
1086.096643034126
 30
0.0
 11
830.3283067183231
 21
1085.25542039358
 31
0.0
  0
LINE
  5
92B
330
2
100
AcDbEntity
  8
6-家具-143
 62
   143
100
AcDbLine
 10
829.2992666106448
 20
1087.031334856958
 30
0.0
 11
830.3283067183231
 21
1086.096643034126
 31
0.0
  0
LINE
  5
92C
330
2
100
AcDbEntity
  8
6-家具-143
 62
   143
100
AcDbLine
 10
828.9250702078465
 20
1088.994187684929
 30
0.0
 11
829.2992666106448
 21
1087.031334856958
 31
0.0
  0
LINE
  5
92D
330
2
100
AcDbEntity
  8
6-家具-143
 62
   143
100
AcDbLine
 10
827.8960301001683
 20
1091.050509695187
 30
0.0
 11
828.9250702078465
 21
1088.994187684929
 31
0.0
  0
LINE
  5
92E
330
2
100
AcDbEntity
  8
6-家具-143
 62
   143
100
AcDbLine
 10
825.8379498848119
 20
1091.891732335733
 30
0.0
 11
827.8960301001683
 21
1091.050509695187
 31
0.0
  0
LINE
  5
92F
330
2
100
AcDbEntity
  8
6-家具-143
 62
   143
100
AcDbLine
 10
823.7798696694555
 20
1092.265609064875
 30
0.0
 11
825.8379498848119
 21
1091.891732335733
 31
0.0
  0
LINE
  5
930
330
2
100
AcDbEntity
  8
6-家具-143
 62
   143
100
AcDbLine
 10
819.3830619366499
 20
1092.35907824716
 30
0.0
 11
823.7798696694555
 21
1092.265609064875
 31
0.0
  0
LINE
  5
931
330
2
100
AcDbEntity
  8
6-家具-143
 62
   143
100
AcDbLine
 10
815.4539997073365
 20
1092.172139882589
 30
0.0
 11
819.3830619366499
 21
1092.35907824716
 31
0.0
  0
LINE
  5
932
330
2
100
AcDbEntity
  8
6-家具-143
 62
   143
100
AcDbLine
 10
814.8927051031508
 20
1091.517855606614
 30
0.0
 11
815.4539997073365
 21
1092.172139882589
 31
0.0
  0
LINE
  5
933
330
2
100
AcDbEntity
  8
6-家具-143
 62
   143
100
AcDbLine
 10
830.2347576176176
 20
1073.571772608081
 30
0.0
 11
830.0476594162301
 21
1071.515450597824
 31
0.0
  0
LINE
  5
934
330
2
100
AcDbEntity
  8
6-家具-143
 62
   143
100
AcDbLine
 10
830.6089540204162
 20
1077.310539899431
 30
0.0
 11
830.2347576176176
 21
1073.571772608081
 31
0.0
  0
LINE
  5
935
330
2
100
AcDbEntity
  8
6-家具-143
 62
   143
100
AcDbLine
 10
831.5444450273888
 20
1079.647269456544
 30
0.0
 11
830.6089540204162
 21
1077.310539899431
 31
0.0
  0
LINE
  5
936
330
2
100
AcDbEntity
  8
6-家具-143
 62
   143
100
AcDbLine
 10
831.3573468260013
 20
1071.608919780109
 30
0.0
 11
830.4218558190168
 21
1071.515450597824
 31
0.0
  0
LINE
  5
937
330
2
100
AcDbEntity
  8
6-家具-143
 62
   143
100
AcDbLine
 10
831.6379941280944
 20
1069.45912858759
 30
0.0
 11
831.3573468260013
 21
1071.608919780109
 31
0.0
  0
LINE
  5
938
330
2
100
AcDbEntity
  8
6-家具-143
 62
   143
100
AcDbLine
 10
832.1992887322799
 20
1067.589744941904
 30
0.0
 11
831.6379941280944
 21
1069.45912858759
 31
0.0
  0
LINE
  5
939
330
2
100
AcDbEntity
  8
6-家具-143
 62
   143
100
AcDbLine
 10
830.3283067183231
 20
1066.374645572216
 30
0.0
 11
832.1992887322799
 21
1067.589744941904
 31
0.0
  0
LINE
  5
93A
330
2
100
AcDbEntity
  8
6-家具-143
 62
   143
100
AcDbLine
 10
827.1476372945828
 20
1064.318323561958
 30
0.0
 11
830.3283067183231
 21
1066.374645572216
 31
0.0
  0
LINE
  5
93B
330
2
100
AcDbEntity
  8
6-家具-143
 62
   143
100
AcDbLine
 10
823.2185750652698
 20
1070.206882045852
 30
0.0
 11
827.1476372945828
 21
1064.318323561958
 31
0.0
  0
LINE
  5
93C
330
2
100
AcDbEntity
  8
6-家具-143
 62
   143
100
AcDbLine
 10
820.0379056415416
 20
1070.300351228136
 30
0.0
 11
823.2185750652698
 21
1070.206882045852
 31
0.0
  0
LINE
  5
93D
330
2
100
AcDbEntity
  8
6-家具-143
 62
   143
100
AcDbLine
 10
818.4475709296773
 20
1068.804844311592
 30
0.0
 11
820.0379056415416
 21
1070.300351228136
 31
0.0
  0
LINE
  5
93E
330
2
100
AcDbEntity
  8
6-家具-143
 62
   143
100
AcDbLine
 10
814.7991560024451
 20
1064.972607837957
 30
0.0
 11
818.4475709296773
 21
1068.804844311592
 31
0.0
  0
LINE
  5
93F
330
2
100
AcDbEntity
  8
6-家具-143
 62
   143
100
AcDbLine
 10
816.2023925129219
 20
1070.861166321849
 30
0.0
 11
814.7991560024451
 21
1064.972607837957
 31
0.0
  0
LINE
  5
940
330
2
100
AcDbEntity
  8
6-家具-143
 62
   143
100
AcDbLine
 10
816.8572362178014
 20
1071.328512233253
 30
0.0
 11
816.2023925129219
 21
1070.861166321849
 31
0.0
  0
LINE
  5
941
330
2
100
AcDbEntity
  8
6-家具-143
 62
   143
100
AcDbLine
 10
817.6991781240921
 20
1071.328512233253
 30
0.0
 11
816.8572362178014
 21
1071.328512233253
 31
0.0
  0
LINE
  5
942
330
2
100
AcDbEntity
  8
6-家具-143
 62
   143
100
AcDbLine
 10
822.7508295617777
 20
1065.813830478504
 30
0.0
 11
823.8734187701609
 21
1068.524436764735
 31
0.0
  0
LINE
  5
943
330
2
100
AcDbEntity
  8
6-家具-143
 62
   143
100
AcDbLine
 10
821.0669457492198
 20
1065.159546202528
 30
0.0
 11
822.7508295617777
 21
1065.813830478504
 31
0.0
  0
LINE
  5
944
330
2
100
AcDbEntity
  8
6-家具-143
 62
   143
100
AcDbLine
 10
820.4121020443281
 20
1065.720361296217
 30
0.0
 11
821.0669457492198
 21
1065.159546202528
 31
0.0
  0
LINE
  5
945
330
2
100
AcDbEntity
  8
6-家具-143
 62
   143
100
AcDbLine
 10
819.0088655338634
 20
1068.804844311592
 30
0.0
 11
820.4121020443281
 21
1065.720361296217
 31
0.0
  0
LINE
  5
946
330
2
100
AcDbEntity
  8
6-家具-143
 62
   143
100
AcDbLine
 10
827.2411863952886
 20
1070.487289592708
 30
0.0
 11
823.6863205687619
 21
1070.487289592708
 31
0.0
  0
LINE
  5
947
330
2
100
AcDbEntity
  8
6-家具-143
 62
   143
100
AcDbLine
 10
830.3283067183231
 20
1070.954635504134
 30
0.0
 11
827.2411863952886
 21
1070.487289592708
 31
0.0
  0
LINE
  5
948
330
2
100
AcDbEntity
  8
6-家具-143
 62
   143
100
AcDbLine
 10
829.9541103155245
 20
1071.515450597824
 30
0.0
 11
830.3283067183231
 21
1070.954635504134
 31
0.0
  0
LINE
  5
949
330
2
100
AcDbEntity
  8
6-家具-143
 62
   143
100
AcDbLine
 10
816.9507853185068
 20
1070.674227957278
 30
0.0
 11
819.102414634557
 21
1070.393820410423
 31
0.0
  0
LINE
  5
94A
330
2
100
AcDbEntity
  8
6-家具-143
 62
   143
100
AcDbLine
 10
817.0443344192008
 20
1070.954635504134
 30
0.0
 11
816.9507853185068
 21
1070.674227957278
 31
0.0
  0
LINE
  5
94B
330
2
100
AcDbEntity
  8
6-家具-143
 62
   143
100
AcDbLine
 10
818.6346691310649
 20
1075.160748706911
 30
0.0
 11
820.3185529436346
 21
1075.067279524626
 31
0.0
  0
LINE
  5
94C
330
2
100
AcDbEntity
  8
6-家具-143
 62
   143
100
AcDbLine
 10
829.9541103155245
 20
1078.338700904571
 30
0.0
 11
829.7670121141255
 21
1078.89951599826
 31
0.0
  0
LINE
  5
94D
330
2
100
AcDbEntity
  8
6-家具-143
 62
   143
100
AcDbLine
 10
830.5154049197106
 20
1078.619108451404
 30
0.0
 11
829.9541103155245
 21
1078.338700904571
 31
0.0
  0
LINE
  5
94E
330
2
100
AcDbEntity
  8
6-家具-143
 62
   143
100
AcDbLine
 10
831.1702486246019
 20
1079.460331091973
 30
0.0
 11
830.5154049197106
 21
1078.619108451404
 31
0.0
  0
LINE
  5
94F
330
2
100
AcDbEntity
  8
6-家具-143
 62
   143
100
AcDbLine
 10
832.1992887322799
 20
1080.581961279377
 30
0.0
 11
831.1702486246019
 21
1079.460331091973
 31
0.0
  0
LINE
  5
950
330
2
100
AcDbEntity
  8
6-家具-143
 62
   143
100
AcDbLine
 10
832.760583336466
 20
1081.890529831351
 30
0.0
 11
832.1992887322799
 21
1080.581961279377
 31
0.0
  0
LINE
  5
951
330
2
100
AcDbEntity
  8
6-家具-143
 62
   143
100
AcDbLine
 10
833.0412306385593
 20
1083.666444294751
 30
0.0
 11
832.760583336466
 21
1081.890529831351
 31
0.0
  0
LINE
  5
952
330
2
100
AcDbEntity
  8
6-家具-143
 62
   143
100
AcDbLine
 10
832.6670342357724
 20
1084.601136117582
 30
0.0
 11
833.0412306385593
 21
1083.666444294751
 31
0.0
  0
LINE
  5
953
330
2
100
AcDbEntity
  8
6-家具-143
 62
   143
100
AcDbLine
 10
832.0121905308811
 20
1085.25542039358
 30
0.0
 11
832.6670342357724
 21
1084.601136117582
 31
0.0
  0
LINE
  5
954
330
2
100
AcDbEntity
  8
6-家具-143
 62
   143
100
AcDbLine
 10
831.1702486246019
 20
1084.975012846725
 30
0.0
 11
832.0121905308811
 21
1085.25542039358
 31
0.0
  0
LINE
  5
955
330
2
100
AcDbEntity
  8
6-家具-143
 62
   143
100
AcDbLine
 10
830.70250312111
 20
1084.320728570749
 30
0.0
 11
831.1702486246019
 21
1084.975012846725
 31
0.0
  0
LINE
  5
956
330
2
100
AcDbEntity
  8
6-家具-143
 62
   143
100
AcDbLine
 10
820.3185529436346
 20
1078.058293357714
 30
0.0
 11
821.3475930513126
 21
1078.525639269142
 31
0.0
  0
LINE
  5
957
330
2
100
AcDbEntity
  8
6-家具-143
 62
   143
100
AcDbLine
 10
818.2604727282782
 20
1077.964824175429
 30
0.0
 11
820.3185529436346
 21
1078.058293357714
 31
0.0
  0
LINE
  5
958
330
2
100
AcDbEntity
  8
6-家具-143
 62
   143
100
AcDbLine
 10
817.9798254261852
 20
1078.432170086833
 30
0.0
 11
818.2604727282782
 21
1077.964824175429
 31
0.0
  0
LINE
  5
959
330
2
100
AcDbEntity
  8
6-家具-143
 62
   143
100
AcDbLine
 10
819.7572583394483
 20
1076.188909712028
 30
0.0
 11
821.7217894540995
 21
1075.908502165172
 31
0.0
  0
LINE
  5
95A
330
2
100
AcDbEntity
  8
6-家具-143
 62
   143
100
AcDbLine
 10
818.9153164331576
 20
1076.282378894314
 30
0.0
 11
819.7572583394483
 21
1076.188909712028
 31
0.0
  0
LINE
  5
95B
330
2
100
AcDbEntity
  8
6-家具-143
 62
   143
100
AcDbLine
 10
817.3249817212939
 20
1075.815032982886
 30
0.0
 11
818.9153164331576
 21
1076.282378894314
 31
0.0
  0
LINE
  5
95C
330
2
100
AcDbEntity
  8
6-家具-143
 62
   143
100
AcDbLine
 10
822.8443786624829
 20
1082.451344925062
 30
0.0
 11
824.7153606764399
 21
1083.105629201037
 31
0.0
  0
LINE
  5
95D
330
2
100
AcDbEntity
  8
6-家具-143
 62
   143
100
AcDbLine
 10
821.6282403534053
 20
1082.544814107349
 30
0.0
 11
822.8443786624829
 21
1082.451344925062
 31
0.0
  0
LINE
  5
95E
330
2
100
AcDbEntity
  8
6-家具-143
 62
   143
100
AcDbLine
 10
821.1604948499132
 20
1083.105629201037
 30
0.0
 11
821.6282403534053
 21
1082.544814107349
 31
0.0
  0
LINE
  5
95F
330
2
100
AcDbEntity
  8
6-家具-143
 62
   143
100
AcDbLine
 10
821.9088876554986
 20
1083.572975112465
 30
0.0
 11
821.1604948499132
 21
1083.105629201037
 31
0.0
  0
LINE
  5
960
330
2
100
AcDbEntity
  8
6-家具-143
 62
   143
100
AcDbLine
 10
823.4992223673629
 20
1083.759913477036
 30
0.0
 11
821.9088876554986
 21
1083.572975112465
 31
0.0
  0
LINE
  5
961
330
2
100
AcDbEntity
  8
6-家具-143
 62
   143
100
AcDbLine
 10
824.7153606764399
 20
1083.666444294751
 30
0.0
 11
823.4992223673629
 21
1083.759913477036
 31
0.0
  0
LINE
  5
962
330
2
100
AcDbEntity
  8
6-家具-143
 62
   143
100
AcDbLine
 10
825.0895570267816
 20
1084.601136227711
 30
0.0
 11
825.5573029548289
 21
1083.853382743117
 31
0.0
  0
LINE
  5
963
330
2
100
AcDbEntity
  8
6-家具-143
 62
   143
100
AcDbLine
 10
822.1895349602339
 20
1084.881543513052
 30
0.0
 11
825.0895570267816
 21
1084.601136227711
 31
0.0
  0
LINE
  5
964
330
2
100
AcDbEntity
  8
6-家具-143
 62
   143
100
AcDbLine
 10
820.9733968909841
 20
1083.946851982958
 30
0.0
 11
822.1895349602339
 21
1084.881543513052
 31
0.0
  0
LINE
  5
965
330
2
100
AcDbEntity
  8
6-家具-143
 62
   143
100
AcDbLine
 10
817.5120799226929
 20
1082.638283289633
 30
0.0
 11
815.7346470094294
 21
1083.105629201037
 31
0.0
  0
LINE
  5
966
330
2
100
AcDbEntity
  8
6-家具-143
 62
   143
100
AcDbLine
 10
818.5411200303709
 20
1082.544814107349
 30
0.0
 11
817.5120799226929
 21
1082.638283289633
 31
0.0
  0
LINE
  5
967
330
2
100
AcDbEntity
  8
6-家具-143
 62
   143
100
AcDbLine
 10
818.9153164331576
 20
1083.105629201037
 30
0.0
 11
818.5411200303709
 21
1082.544814107349
 31
0.0
  0
LINE
  5
968
330
2
100
AcDbEntity
  8
6-家具-143
 62
   143
100
AcDbLine
 10
817.4185308219989
 20
1083.666444294751
 30
0.0
 11
818.9153164331576
 21
1083.105629201037
 31
0.0
  0
LINE
  5
969
330
2
100
AcDbEntity
  8
6-家具-143
 62
   143
100
AcDbLine
 10
815.2669015059373
 20
1083.572975112465
 30
0.0
 11
817.4185308219989
 21
1083.666444294751
 31
0.0
  0
LINE
  5
96A
330
2
100
AcDbEntity
  8
6-家具-143
 62
   143
100
AcDbLine
 10
816.7636876191139
 20
1084.881543575638
 30
0.0
 11
818.9153169351641
 21
1084.040320935067
 31
0.0
  0
LINE
  5
96B
330
2
100
AcDbEntity
  8
6-家具-143
 62
   143
100
AcDbLine
 10
814.6120583030523
 20
1084.41419766421
 30
0.0
 11
816.7636876191139
 21
1084.881543575638
 31
0.0
  0
LINE
  5
96C
330
2
100
AcDbEntity
  8
6-家具-143
 62
   143
100
AcDbLine
 10
817.0443344192008
 20
1083.479505930179
 30
-0.0000000000000013
 11
817.6056290233869
 21
1082.825221654181
 31
0.0000000000000007
  0
LINE
  5
96D
330
2
100
AcDbEntity
  8
6-家具-143
 62
   143
100
AcDbLine
 10
816.4830398150147
 20
1083.292567565608
 30
-0.0000000000000009
 11
817.0443344192008
 21
1083.479505930179
 31
-0.0000000000000013
  0
LINE
  5
96E
330
2
100
AcDbEntity
  8
6-家具-143
 62
   143
100
AcDbLine
 10
822.3766331589908
 20
1083.199098383323
 30
0.0000000000000018
 11
823.2185750652698
 21
1082.918690836466
 31
0.000000000000002
  0
LINE
  5
96F
330
2
100
AcDbEntity
  8
6-家具-143
 62
   143
100
AcDbLine
 10
821.9088876554986
 20
1082.73175247192
 30
-0.000000000000001
 11
822.3766331589908
 21
1083.199098383323
 31
0.0000000000000018
  0
LINE
  5
970
330
2
100
AcDbEntity
  8
6-家具-143
 62
   143
100
AcDbLine
 10
842.599024836941
 20
988.3787022353292
 30
0.0
 11
839.4066617763028
 21
989.062195630642
 31
0.0
  0
LINE
  5
971
330
2
100
AcDbEntity
  8
6-家具-143
 62
   143
100
AcDbLine
 10
846.7034916291837
 20
986.3282220494147
 30
0.0
 11
842.599024836941
 21
988.3787022353292
 31
0.0
  0
LINE
  5
972
330
2
100
AcDbEntity
  8
6-家具-143
 62
   143
100
AcDbLine
 10
849.2117768911073
 20
986.5560531811929
 30
0.0
 11
846.7034916291837
 21
986.3282220494147
 31
0.0
  0
LINE
  5
973
330
2
100
AcDbEntity
  8
6-家具-143
 62
   143
100
AcDbLine
 10
844.879284165964
 20
989.5178578941758
 30
0.0
 11
840.3187655079189
 21
993.3909871342269
 31
0.0
  0
LINE
  5
974
330
2
100
AcDbEntity
  8
6-家具-143
 62
   143
100
AcDbLine
 10
848.2996731594914
 20
987.2395465764826
 30
0.0
 11
844.879284165964
 21
989.5178578941758
 31
0.0
  0
LINE
  5
975
330
2
100
AcDbEntity
  8
6-家具-143
 62
   143
100
AcDbLine
 10
808.3951349015825
 20
985.6447286541017
 30
0.0
 11
810.9034201635058
 21
986.5560531811929
 31
0.0
  0
LINE
  5
976
330
2
100
AcDbEntity
  8
6-家具-143
 62
   143
100
AcDbLine
 10
807.7110571028793
 20
988.6065333671078
 30
0.0
 11
808.3951349015825
 21
985.6447286541017
 31
0.0
  0
LINE
  5
977
330
2
100
AcDbEntity
  8
6-家具-143
 62
   143
100
AcDbLine
 10
805.6237431387895
 20
989.240955205695
 30
0.0
 11
807.311135055114
 21
988.7222012401933
 31
0.0
  0
LINE
  5
978
330
2
100
AcDbEntity
  8
6-家具-143
 62
   143
100
AcDbLine
 10
805.364144382429
 20
990.2784631367449
 30
0.0
 11
805.6237431387895
 21
989.240955205695
 31
0.0
  0
LINE
  5
979
330
2
100
AcDbEntity
  8
6-家具-143
 62
   143
100
AcDbLine
 10
804.4555487351736
 20
990.4081516281145
 30
0.0
 11
805.364144382429
 21
990.2784631367449
 31
0.0
  0
LINE
  5
97A
330
2
100
AcDbEntity
  8
6-家具-143
 62
   143
100
AcDbLine
 10
803.9363512224529
 20
991.8347250332733
 30
0.0
 11
804.4555487351736
 21
990.4081516281145
 31
0.0
  0
LINE
  5
97B
330
2
100
AcDbEntity
  8
6-家具-143
 62
   143
100
AcDbLine
 10
803.1575549533833
 20
992.0941020160359
 30
0.0
 11
803.9363512224529
 21
991.8347250332733
 31
0.0
  0
LINE
  5
97C
330
2
100
AcDbEntity
  8
6-家具-143
 62
   143
100
AcDbLine
 10
825.9057730437385
 20
962.0957524363559
 30
0.0
 11
824.3060834189188
 21
989.2672437752507
 31
0.0
  0
LINE
  5
97D
330
2
100
AcDbEntity
  8
6-家具-143
 62
   143
100
AcDbLine
 10
826.7056178561539
 20
959.4318807364581
 30
0.0
 11
825.9057730437385
 21
962.0957524363559
 31
0.0
  0
LINE
  5
97E
330
2
100
AcDbEntity
  8
6-家具-143
 62
   143
100
AcDbLine
 10
830.4382269807287
 20
921.3385154280024
 30
0.0
 11
826.7056178561539
 21
959.4318807364581
 31
0.0
  0
LINE
  5
97F
330
2
100
AcDbEntity
  8
6-家具-143
 62
   143
100
AcDbLine
 10
831.5046867306003
 20
920.0065795780533
 30
0.0
 11
830.4382269807287
 21
921.3385154280024
 31
0.0
  0
LINE
  5
980
330
2
100
AcDbEntity
  8
6-家具-143
 62
   143
100
AcDbLine
 10
828.3053074809734
 20
917.0763207081845
 30
0.0
 11
831.5046867306003
 21
920.0065795780533
 31
0.0
  0
LINE
  5
981
330
2
100
AcDbEntity
  8
6-家具-143
 62
   143
100
AcDbLine
 10
827.2388477310899
 20
915.2116105182473
 30
0.0
 11
828.3053074809734
 21
917.0763207081845
 31
0.0
  0
LINE
  5
982
330
2
100
AcDbEntity
  8
6-家具-143
 62
   143
100
AcDbLine
 10
828.3053074809734
 20
913.0805131583384
 30
0.0
 11
827.2388477310899
 21
915.2116105182473
 31
0.0
  0
LINE
  5
983
330
2
100
AcDbEntity
  8
6-家具-143
 62
   143
100
AcDbLine
 10
836.0371406675907
 20
913.346900328333
 30
0.0
 11
828.3053074809734
 21
913.0805131583384
 31
0.0
  0
LINE
  5
984
330
2
100
AcDbEntity
  8
6-家具-143
 62
   143
100
AcDbLine
 10
840.0363647296339
 20
913.6132874983273
 30
0.0
 11
836.0371406675907
 21
913.346900328333
 31
0.0
  0
LINE
  5
985
330
2
100
AcDbEntity
  8
6-家具-143
 62
   143
100
AcDbLine
 10
840.0363647296339
 20
915.2116105182473
 30
0.0
 11
840.0363647296339
 21
913.6132874983273
 31
0.0
  0
LINE
  5
986
330
2
100
AcDbEntity
  8
6-家具-143
 62
   143
100
AcDbLine
 10
838.4366751048142
 20
916.8099335381905
 30
0.0
 11
840.0363647296339
 21
915.2116105182473
 31
0.0
  0
LINE
  5
987
330
2
100
AcDbEntity
  8
6-家具-143
 62
   143
100
AcDbLine
 10
836.8369854799947
 20
920.0065795780533
 30
0.0
 11
838.4366751048142
 21
916.8099335381905
 31
0.0
  0
LINE
  5
988
330
2
100
AcDbEntity
  8
6-家具-143
 62
   143
100
AcDbLine
 10
839.5031348546861
 20
920.8057410880366
 30
0.0
 11
836.8369854799947
 21
920.0065795780533
 31
0.0
  0
LINE
  5
989
330
2
100
AcDbEntity
  8
6-家具-143
 62
   143
100
AcDbLine
 10
840.0363647296339
 20
960.2310422464183
 30
0.0
 11
839.5031348546861
 21
920.8057410880366
 31
0.0
  0
LINE
  5
98A
330
2
100
AcDbEntity
  8
6-家具-143
 62
   143
100
AcDbLine
 10
839.2365199172182
 20
963.1613011163103
 30
0.0
 11
840.0363647296339
 21
960.2310422464183
 31
0.0
  0
LINE
  5
98B
330
2
100
AcDbEntity
  8
6-家具-143
 62
   143
100
AcDbLine
 10
813.1082560452062
 20
961.296590926373
 30
0.0
 11
812.5750261702584
 21
962.6285267763213
 31
0.0
  0
LINE
  5
98C
330
2
100
AcDbEntity
  8
6-家具-143
 62
   143
100
AcDbLine
 10
812.5750261702584
 20
958.8991063964696
 30
0.0
 11
813.1082560452062
 21
961.296590926373
 31
0.0
  0
LINE
  5
98D
330
2
100
AcDbEntity
  8
6-家具-143
 62
   143
100
AcDbLine
 10
813.9081008576098
 20
919.7401924080821
 30
0.0
 11
812.5750261702584
 21
958.8991063964696
 31
0.0
  0
LINE
  5
98E
330
2
100
AcDbEntity
  8
6-家具-143
 62
   143
100
AcDbLine
 10
807.7759572958118
 20
915.744384858236
 30
0.0
 11
813.9081008576098
 21
919.7401924080821
 31
0.0
  0
LINE
  5
98F
330
2
100
AcDbEntity
  8
6-家具-143
 62
   143
100
AcDbLine
 10
807.7759572958118
 20
913.346900328333
 30
0.0
 11
807.7759572958118
 21
915.744384858236
 31
0.0
  0
LINE
  5
990
330
2
100
AcDbEntity
  8
6-家具-143
 62
   143
100
AcDbLine
 10
810.975336545451
 20
913.346900328333
 30
0.0
 11
807.7759572958118
 21
913.346900328333
 31
0.0
  0
LINE
  5
991
330
2
100
AcDbEntity
  8
6-家具-143
 62
   143
100
AcDbLine
 10
816.0410203573654
 20
913.0805131583384
 30
0.0
 11
810.975336545451
 21
913.346900328333
 31
0.0
  0
LINE
  5
992
330
2
100
AcDbEntity
  8
6-家具-143
 62
   143
100
AcDbLine
 10
823.7728535439829
 20
913.6132874983273
 30
0.0
 11
816.0410203573654
 21
913.0805131583384
 31
0.0
  0
LINE
  5
993
330
2
100
AcDbEntity
  8
6-家具-143
 62
   143
100
AcDbLine
 10
823.7728535439829
 20
915.2116105182473
 30
0.0
 11
823.7728535439829
 21
913.6132874983273
 31
0.0
  0
LINE
  5
994
330
2
100
AcDbEntity
  8
6-家具-143
 62
   143
100
AcDbLine
 10
821.6399340442276
 20
919.4738052380879
 30
0.0
 11
823.7728535439829
 21
915.2116105182473
 31
0.0
  0
LINE
  5
995
330
2
100
AcDbEntity
  8
6-家具-143
 62
   143
100
AcDbLine
 10
822.7063937941112
 20
919.7401924080821
 30
0.0
 11
821.6399340442276
 21
919.4738052380879
 31
0.0
  0
LINE
  5
996
330
2
100
AcDbEntity
  8
6-家具-143
 62
   143
100
AcDbLine
 10
824.8393132938664
 20
958.6327192264986
 30
0.0
 11
822.7063937941112
 21
919.7401924080821
 31
0.0
  0
LINE
  5
997
330
2
100
AcDbEntity
  8
6-家具-143
 62
   143
100
AcDbLine
 10
824.3060834189188
 20
958.8991063964696
 30
0.0
 11
824.8393132938664
 21
958.6327192264986
 31
0.0
  0
LINE
  5
998
330
2
100
AcDbEntity
  8
6-家具-143
 62
   143
100
AcDbLine
 10
825.3725431688023
 20
961.5629780963669
 30
0.0
 11
824.3060834189188
 21
958.8991063964696
 31
0.0
  0
LINE
  5
999
330
2
100
AcDbEntity
  8
6-家具-143
 62
   143
100
AcDbLine
 10
819.7736294819399
 20
919.2074180680936
 30
0.0
 11
820.306859356876
 21
919.2074180680936
 31
0.0
  0
LINE
  5
99A
330
2
100
AcDbEntity
  8
6-家具-143
 62
   143
100
AcDbLine
 10
816.0410203573654
 20
921.6049025979966
 30
0.0
 11
819.7736294819399
 21
919.2074180680936
 31
0.0
  0
LINE
  5
99B
330
2
100
AcDbEntity
  8
6-家具-143
 62
   143
100
AcDbLine
 10
815.5077904824295
 20
920.2729667480479
 30
0.0
 11
816.0410203573654
 21
921.6049025979966
 31
0.0
  0
LINE
  5
99C
330
2
100
AcDbEntity
  8
6-家具-143
 62
   143
100
AcDbLine
 10
835.7705257301113
 20
922.9368384479453
 30
0.0
 11
838.4366751048142
 21
921.3385154280024
 31
0.0
  0
LINE
  5
99D
330
2
100
AcDbEntity
  8
6-家具-143
 62
   143
100
AcDbLine
 10
832.5711464804838
 20
921.8712897679909
 30
0.0
 11
835.7705257301113
 21
922.9368384479453
 31
0.0
  0
LINE
  5
99E
330
2
100
AcDbEntity
  8
6-家具-143
 62
   143
100
AcDbLine
 10
843.7391545014465
 20
1016.401931442823
 30
0.0
 11
849.2117768911073
 21
986.5560531811929
 31
0.0
  0
LINE
  5
99F
330
2
100
AcDbEntity
  8
6-家具-143
 62
   143
100
AcDbLine
 10
840.3187655079189
 20
993.3909871342269
 30
0.0
 11
833.4779875208401
 21
996.3527918472097
 31
0.0
  0
LINE
  5
9A0
330
2
100
AcDbEntity
  8
6-家具-143
 62
   143
100
AcDbLine
 10
806.5709274383619
 20
993.846649397761
 30
0.0
 11
807.7110571028793
 21
988.6065333671078
 31
0.0
  0
LINE
  5
9A1
330
2
100
AcDbEntity
  8
6-家具-143
 62
   143
100
AcDbLine
 10
804.0661506006388
 20
998.8379035677205
 30
0.0
 11
803.1575549533833
 21
992.0941020160359
 31
0.0
  0
LINE
  5
9A2
330
2
100
AcDbEntity
  8
6-家具-143
 62
   143
100
AcDbLine
 10
824.3060834189188
 20
989.2672437752507
 30
0.0
 11
820.0402444194082
 21
997.2588588749202
 31
0.0
  0
LINE
  5
9A3
330
2
100
AcDbEntity
  8
6-家具-143
 62
   143
100
AcDbLine
 10
839.2365199172182
 20
994.062212835057
 30
0.0
 11
839.2365199172182
 21
963.1613011163103
 31
0.0
  0
LINE
  5
9A4
330
2
100
AcDbEntity
  8
6-家具-143
 62
   143
100
AcDbLine
 10
812.5750261702584
 20
962.6285267763213
 30
0.0
 11
810.175491733035
 21
999.9227305748176
 31
0.0
  0
VIEWPORT
  5
DA
102
{ACAD_XDICTIONARY
360
9C3
102
}
330
C
100
AcDbEntity
 67
     1
  8
0
100
AcDbViewport
 10
420.5071835950612
 20
297.0009369707932
 30
0.0
 40
848.880193293653
 41
633.6711302051212
 68
     1
 69
     1
 12
420.5071835950612
 22
297.0009369707932
 13
0.0
 23
0.0
 14
10.0
 24
10.0
 15
10.0
 25
10.0
 16
0.0
 26
0.0
 36
1.0
 17
0.0
 27
0.0
 37
0.0
 42
50.0
 43
0.0
 44
0.0
 45
633.6711302051212
 50
0.0
 51
0.0
 72
  1000
 90
    32864
  1

281
     0
 71
     1
 74
     0
110
0.0
120
0.0
130
0.0
111
1.0
121
0.0
131
0.0
112
0.0
122
1.0
132
0.0
 79
     0
146
0.0
  0
ENDSEC
  0
SECTION
  2
OBJECTS
  0
DICTIONARY
  5
7
330
0
100
AcDbDictionary
281
     1
  3
ACAD_COLOR
350
DE
  3
ACAD_GROUP
350
20
  3
ACAD_LAYOUT
350
B
  3
ACAD_MATERIAL
350
DD
  3
ACAD_MLINESTYLE
350
21
  3
ACAD_PLOTSETTINGS
350
22
  3
ACAD_PLOTSTYLENAME
350
6
  3
ACDBHEADERROUNDTRIPXREC
350
9BC
  3
AcDbVariableDictionary
350
115
  0
DICTIONARY
  5
1A3
330
10
100
AcDbDictionary
280
     1
281
     1
  3
ACAD_LAYERSTATES
360
1A4
  0
DICTIONARY
  5
9C3
330
DA
100
AcDbDictionary
280
     1
281
     1
  3
ACAD_XREC_ROUNDTRIP
360
9C4
  0
DICTIONARY
  5
DE
102
{ACAD_REACTORS
330
7
102
}
330
7
100
AcDbDictionary
281
     1
  0
DICTIONARY
  5
20
102
{ACAD_REACTORS
330
7
102
}
330
7
100
AcDbDictionary
281
     1
  0
DICTIONARY
  5
B
102
{ACAD_REACTORS
330
7
102
}
330
7
100
AcDbDictionary
281
     1
  3
JIS A1 Title Block
350
F
  3
Model
350
A
  0
DICTIONARY
  5
DD
102
{ACAD_REACTORS
330
7
102
}
330
7
100
AcDbDictionary
281
     1
  0
DICTIONARY
  5
21
102
{ACAD_REACTORS
330
7
102
}
330
7
100
AcDbDictionary
281
     1
  3
Standard
350
23
  0
DICTIONARY
  5
22
102
{ACAD_REACTORS
330
7
102
}
330
7
100
AcDbDictionary
281
     1
  0
ACDBDICTIONARYWDFLT
  5
6
102
{ACAD_REACTORS
330
7
102
}
330
7
100
AcDbDictionary
281
     1
  3
Normal
350
5
100
AcDbDictionaryWithDefault
340
5
  0
DICTIONARY
  5
9BC
102
{ACAD_REACTORS
330
7
102
}
330
7
100
AcDbDictionary
281
     1
  3
COLORDICT
350
9BE
  3
MATERIALDICT
350
9BD
  0
DICTIONARY
  5
115
102
{ACAD_REACTORS
330
7
102
}
330
7
100
AcDbDictionary
281
     1
  3
DIMASSOC
350
116
  3
PROJECTNAME
350
117
  0
DICTIONARY
  5
1A4
102
{ACAD_REACTORS
330
1A3
102
}
330
1A3
100
AcDbDictionary
281
     1
  0
XRECORD
  5
9C4
102
{ACAD_REACTORS
330
9C3
102
}
330
9C3
100
AcDbXrecord
280
     1
102
SHADEPLOT
 70
     0
  0
LAYOUT
  5
F
102
{ACAD_XDICTIONARY
360
9C1
102
}
102
{ACAD_REACTORS
330
B
102
}
330
B
100
AcDbPlotSettings
  1

  2
none_device
  4
ISO_A1_(594.00_x_841.00_MM)
  6

 40
7.549999999999998
 41
20.05
 42
7.549999999999998
 43
20.05
 44
594.0
 45
841.0
 46
-7.559999999999997
 47
-20.07
 48
0.0
 49
0.0
140
0.0
141
0.0
142
1.0
143
1.0
 70
   692
 72
     1
 73
     1
 74
     1
  7

 75
    16
147
1.0
148
0.0128164049386896
149
0.0090630292066862
100
AcDbLayout
  1
JIS A1 Title Block
 70
     1
 71
     1
 10
0.0071835950613099
 20
0.0009369707933136
 11
841.0071835950612
 21
594.0009369707931
 12
0.0
 22
0.0
 32
0.0
 14
1.000000000000000E+20
 24
1.000000000000000E+20
 34
1.000000000000000E+20
 15
-1.000000000000000E+20
 25
-1.000000000000000E+20
 35
-1.000000000000000E+20
146
0.0
 13
0.0
 23
0.0
 33
0.0
 16
1.0
 26
0.0
 36
0.0
 17
0.0
 27
1.0
 37
0.0
 76
     0
330
C
331
DA
  0
LAYOUT
  5
A
102
{ACAD_XDICTIONARY
360
9BF
102
}
102
{ACAD_REACTORS
330
B
102
}
330
B
100
AcDbPlotSettings
  1

  2
none_device
  4
ANSI_A_(8.50_x_11.00_Inches)
  6

 40
6.349999904632567
 41
19.04999923706055
 42
6.350006103515625
 43
19.04998779296875
 44
215.8999938964844
 45
279.3999938964844
 46
28.79458090408706
 47
17.57028564415653
 48
0.0
 49
0.0
140
0.0
141
0.0
142
1.0
143
103.6285708313174
 70
 11956
 72
     0
 73
     1
 74
     1
  7

 75
     0
147
0.0096498484151418
148
1.303736702137707
149
0.9208318680958655
100
AcDbLayout
  1
Model
 70
     1
 71
     0
 10
0.0
 20
0.0
 11
12.0
 21
9.0
 12
0.0
 22
0.0
 32
0.0
 14
0.0
 24
0.0
 34
0.0
 15
0.0
 25
0.0
 35
0.0
146
0.0
 13
0.0
 23
0.0
 33
0.0
 16
1.0
 26
0.0
 36
0.0
 17
0.0
 27
1.0
 37
0.0
 76
     0
330
2
  0
MLINESTYLE
  5
23
102
{ACAD_REACTORS
330
21
102
}
330
21
100
AcDbMlineStyle
  2
STANDARD
 70
     0
  3

 62
   256
 51
90.0
 52
90.0
 71
     2
 49
0.5
 62
   256
  6
BYLAYER
 49
-0.5
 62
   256
  6
BYLAYER
  0
ACDBPLACEHOLDER
  5
5
102
{ACAD_REACTORS
330
6
102
}
330
6
  0
XRECORD
  5
9BE
102
{ACAD_REACTORS
330
9BC
102
}
330
9BC
100
AcDbXrecord
280
     1
340
DE
  0
XRECORD
  5
9BD
102
{ACAD_REACTORS
330
9BC
102
}
330
9BC
100
AcDbXrecord
280
     1
340
DD
  0
DICTIONARYVAR
  5
116
102
{ACAD_REACTORS
330
115
102
}
330
115
100
DictionaryVariables
280
     0
  1
1
  0
DICTIONARYVAR
  5
117
102
{ACAD_REACTORS
330
115
102
}
330
115
100
DictionaryVariables
280
     0
  1

  0
DICTIONARY
  5
9C1
330
F
100
AcDbDictionary
280
     1
281
     1
  3
ACAD_XREC_ROUNDTRIP
360
9C2
  0
DICTIONARY
  5
9BF
330
A
100
AcDbDictionary
280
     1
281
     1
  3
ACAD_XREC_ROUNDTRIP
360
9C0
  0
XRECORD
  5
9C2
102
{ACAD_REACTORS
330
9C1
102
}
330
9C1
100
AcDbXrecord
280
     1
102
SHADEPLOT
 70
     0
102
SHADEPLOTRESLEVEL
 70
     2
102
SHADEPLOTCUSTOMDPI
 70
   300
  0
XRECORD
  5
9C0
102
{ACAD_REACTORS
330
9BF
102
}
330
9BF
100
AcDbXrecord
280
     1
102
SHADEPLOT
 70
     0
102
SHADEPLOTRESLEVEL
 70
     2
102
SHADEPLOTCUSTOMDPI
 70
   300
  0
ENDSEC
  0
EOF
