  0
SECTION
  2
HEADER
  9
$ACADVER
  1
AC1015
  9
$ACADMAINTVER
 70
    20
  9
$DWGCODEPAGE
  3
ANSI_936
  9
$INSBASE
 10
0.0
 20
0.0
 30
0.0
  9
$EXTMIN
 10
-0.0488001835601608
 20
-0.0366001376705754
 30
-0.0000000000000053
  9
$EXTMAX
 10
1600.04884302707
 20
1200.036632270302
 30
0.0000000000000099
  9
$LIMMIN
 10
0.0
 20
0.0
  9
$LIMMAX
 10
420.0
 20
297.0
  9
$ORTHOMODE
 70
     0
  9
$REGENMODE
 70
     1
  9
$FILLMODE
 70
     1
  9
$QTEXTMODE
 70
     0
  9
$MIRRTEXT
 70
     0
  9
$LTSCALE
 40
1.0
  9
$ATTMODE
 70
     1
  9
$TEXTSIZE
 40
2.5
  9
$TRACEWID
 40
1.0
  9
$TEXTSTYLE
  7
Standard
  9
$CLAYER
  8
0
  9
$CELTYPE
  6
ByLayer
  9
$CECOLOR
 62
   256
  9
$CELTSCALE
 40
1.0
  9
$DISPSILH
 70
     0
  9
$DIMSCALE
 40
1.0
  9
$DIMASZ
 40
2.5
  9
$DIMEXO
 40
1.0
  9
$DIMDLI
 40
7.0
  9
$DIMRND
 40
0.0
  9
$DIMDLE
 40
0.0
  9
$DIMEXE
 40
1.0
  9
$DIMTP
 40
0.0
  9
$DIMTM
 40
0.0
  9
$DIMTXT
 40
2.5
  9
$DIMCEN
 40
0.0
  9
$DIMTSZ
 40
0.0
  9
$DIMTOL
 70
     0
  9
$DIMLIM
 70
     0
  9
$DIMTIH
 70
     0
  9
$DIMTOH
 70
     0
  9
$DIMSE1
 70
     0
  9
$DIMSE2
 70
     0
  9
$DIMTAD
 70
     1
  9
$DIMZIN
 70
     8
  9
$DIMBLK
  1

  9
$DIMASO
 70
     1
  9
$DIMSHO
 70
     1
  9
$DIMPOST
  1

  9
$DIMAPOST
  1

  9
$DIMALT
 70
     0
  9
$DIMALTD
 70
     2
  9
$DIMALTF
 40
0.0394
  9
$DIMLFAC
 40
1.0
  9
$DIMTOFL
 70
     1
  9
$DIMTVP
 40
0.0
  9
$DIMTIX
 70
     1
  9
$DIMSOXD
 70
     1
  9
$DIMSAH
 70
     0
  9
$DIMBLK1
  1

  9
$DIMBLK2
  1

  9
$DIMSTYLE
  2
JIS
  9
$DIMCLRD
 70
     0
  9
$DIMCLRE
 70
     0
  9
$DIMCLRT
 70
     0
  9
$DIMTFAC
 40
1.0
  9
$DIMGAP
 40
0.0
  9
$DIMJUST
 70
     0
  9
$DIMSD1
 70
     0
  9
$DIMSD2
 70
     0
  9
$DIMTOLJ
 70
     1
  9
$DIMTZIN
 70
     0
  9
$DIMALTZ
 70
     0
  9
$DIMALTTZ
 70
     0
  9
$DIMUPT
 70
     0
  9
$DIMDEC
 70
     4
  9
$DIMTDEC
 70
     4
  9
$DIMALTU
 70
     2
  9
$DIMALTTD
 70
     2
  9
$DIMTXSTY
  7
Standard
  9
$DIMAUNIT
 70
     0
  9
$DIMADEC
 70
     0
  9
$DIMALTRND
 40
0.0
  9
$DIMAZIN
 70
     0
  9
$DIMDSEP
 70
    46
  9
$DIMATFIT
 70
     3
  9
$DIMFRAC
 70
     0
  9
$DIMLDRBLK
  1

  9
$DIMLUNIT
 70
     2
  9
$DIMLWD
 70
    -2
  9
$DIMLWE
 70
    -2
  9
$DIMTMOVE
 70
     0
  9
$LUNITS
 70
     2
  9
$LUPREC
 70
     4
  9
$SKETCHINC
 40
1.0
  9
$FILLETRAD
 40
0.0
  9
$AUNITS
 70
     0
  9
$AUPREC
 70
     0
  9
$MENU
  1
.
  9
$ELEVATION
 40
0.0
  9
$PELEVATION
 40
0.0
  9
$THICKNESS
 40
0.0
  9
$LIMCHECK
 70
     0
  9
$CHAMFERA
 40
0.0
  9
$CHAMFERB
 40
0.0
  9
$CHAMFERC
 40
0.0
  9
$CHAMFERD
 40
0.0
  9
$SKPOLY
 70
     0
  9
$TDCREATE
 40
2455955.017649734
  9
$TDUCREATE
 40
2455954.684316401
  9
$TDUPDATE
 40
2456193.629473738
  9
$TDUUPDATE
 40
2456193.296140405
  9
$TDINDWG
 40
0.0628088773
  9
$TDUSRTIMER
 40
0.0628034491
  9
$USRTIMER
 70
     1
  9
$ANGBASE
 50
0.0
  9
$ANGDIR
 70
     0
  9
$PDMODE
 70
     0
  9
$PDSIZE
 40
0.0
  9
$PLINEWID
 40
0.0
  9
$SPLFRAME
 70
     0
  9
$SPLINETYPE
 70
     6
  9
$SPLINESEGS
 70
   100
  9
$HANDSEED
  5
A1D
  9
$SURFTAB1
 70
     6
  9
$SURFTAB2
 70
     6
  9
$SURFTYPE
 70
     6
  9
$SURFU
 70
     6
  9
$SURFV
 70
     6
  9
$UCSBASE
  2

  9
$UCSNAME
  2

  9
$UCSORG
 10
0.0
 20
0.0
 30
0.0
  9
$UCSXDIR
 10
1.0
 20
0.0
 30
0.0
  9
$UCSYDIR
 10
0.0
 20
1.0
 30
0.0
  9
$UCSORTHOREF
  2

  9
$UCSORTHOVIEW
 70
     0
  9
$UCSORGTOP
 10
0.0
 20
0.0
 30
0.0
  9
$UCSORGBOTTOM
 10
0.0
 20
0.0
 30
0.0
  9
$UCSORGLEFT
 10
0.0
 20
0.0
 30
0.0
  9
$UCSORGRIGHT
 10
0.0
 20
0.0
 30
0.0
  9
$UCSORGFRONT
 10
0.0
 20
0.0
 30
0.0
  9
$UCSORGBACK
 10
0.0
 20
0.0
 30
0.0
  9
$PUCSBASE
  2

  9
$PUCSNAME
  2

  9
$PUCSORG
 10
0.0
 20
0.0
 30
0.0
  9
$PUCSXDIR
 10
1.0
 20
0.0
 30
0.0
  9
$PUCSYDIR
 10
0.0
 20
1.0
 30
0.0
  9
$PUCSORTHOREF
  2

  9
$PUCSORTHOVIEW
 70
     0
  9
$PUCSORGTOP
 10
0.0
 20
0.0
 30
0.0
  9
$PUCSORGBOTTOM
 10
0.0
 20
0.0
 30
0.0
  9
$PUCSORGLEFT
 10
0.0
 20
0.0
 30
0.0
  9
$PUCSORGRIGHT
 10
0.0
 20
0.0
 30
0.0
  9
$PUCSORGFRONT
 10
0.0
 20
0.0
 30
0.0
  9
$PUCSORGBACK
 10
0.0
 20
0.0
 30
0.0
  9
$USERI1
 70
     0
  9
$USERI2
 70
     0
  9
$USERI3
 70
     0
  9
$USERI4
 70
     0
  9
$USERI5
 70
     0
  9
$USERR1
 40
0.0
  9
$USERR2
 40
0.0
  9
$USERR3
 40
0.0
  9
$USERR4
 40
0.0
  9
$USERR5
 40
0.0
  9
$WORLDVIEW
 70
     1
  9
$SHADEDGE
 70
     3
  9
$SHADEDIF
 70
    70
  9
$TILEMODE
 70
     1
  9
$MAXACTVP
 70
    64
  9
$PINSBASE
 10
0.0
 20
0.0
 30
0.0
  9
$PLIMCHECK
 70
     0
  9
$PEXTMIN
 10
1.000000000000000E+20
 20
1.000000000000000E+20
 30
1.000000000000000E+20
  9
$PEXTMAX
 10
-1.000000000000000E+20
 20
-1.000000000000000E+20
 30
-1.000000000000000E+20
  9
$PLIMMIN
 10
0.0071835950613099
 20
0.0009369707933136
  9
$PLIMMAX
 10
841.0071835950612
 20
594.0009369707931
  9
$UNITMODE
 70
     0
  9
$VISRETAIN
 70
     1
  9
$PLINEGEN
 70
     0
  9
$PSLTSCALE
 70
     1
  9
$TREEDEPTH
 70
  3020
  9
$CMLSTYLE
  2
Standard
  9
$CMLJUST
 70
     0
  9
$CMLSCALE
 40
20.0
  9
$PROXYGRAPHICS
 70
     1
  9
$MEASUREMENT
 70
     1
  9
$CELWEIGHT
370
    -1
  9
$ENDCAPS
280
     0
  9
$JOINSTYLE
280
     0
  9
$LWDISPLAY
290
     1
  9
$INSUNITS
 70
     4
  9
$HYPERLINKBASE
  1

  9
$STYLESHEET
  1

  9
$XEDIT
290
     1
  9
$CEPSNTYPE
380
     0
  9
$PSTYLEMODE
290
     1
  9
$FINGERPRINTGUID
  2
{048D7354-A980-11D2-9A39-0060089B3A3F}
  9
$VERSIONGUID
  2
{7CC9C22E-9416-4357-BAC6-8CAACE26009E}
  9
$EXTNAMES
290
     1
  9
$PSVPSCALE
 40
0.0
  9
$OLESTARTUP
290
     0
  0
ENDSEC
  0
SECTION
  2
CLASSES
  0
CLASS
  1
ACDBDICTIONARYWDFLT
  2
AcDbDictionaryWithDefault
  3
ObjectDBX Classes
 90
        0
280
     0
281
     0
  0
CLASS
  1
ACDBPLACEHOLDER
  2
AcDbPlaceHolder
  3
ObjectDBX Classes
 90
        0
280
     0
281
     0
  0
CLASS
  1
LAYOUT
  2
AcDbLayout
  3
ObjectDBX Classes
 90
        0
280
     0
281
     0
  0
CLASS
  1
PLOTSETTINGS
  2
AcDbPlotSettings
  3
ObjectDBX Classes
 90
    32768
280
     0
281
     0
  0
CLASS
  1
DICTIONARYVAR
  2
AcDbDictionaryVar
  3
ObjectDBX Classes
 90
        0
280
     0
281
     0
  0
ENDSEC
  0
SECTION
  2
TABLES
  0
TABLE
  2
VPORT
  5
19
330
0
100
AcDbSymbolTable
 70
     4
  0
VPORT
  5
A13
330
19
100
AcDbSymbolTableRecord
100
AcDbViewportTableRecord
  2
*Active
 70
     0
 10
0.0
 20
0.0
 11
1.0
 21
1.0
 12
800.000020900055
 22
600.0000139752764
 13
0.0
 23
0.0
 14
10.0
 24
10.0
 15
10.0
 25
10.0
 16
0.0
 26
0.0
 36
1.0
 17
0.0
 27
0.0
 37
0.0
 40
1285.923894797287
 41
2.293805309734513
 42
50.0
 43
0.0
 44
0.0
 50
0.0
 51
0.0
 71
     0
 72
  2000
 73
     1
 74
     3
 75
     0
 76
     0
 77
     0
 78
     0
281
     0
 65
     1
110
0.0
120
0.0
130
0.0
111
1.0
121
0.0
131
0.0
112
0.0
122
1.0
132
0.0
 79
     0
146
0.0
  0
ENDTAB
  0
TABLE
  2
LTYPE
  5
14
330
0
100
AcDbSymbolTable
 70
     1
  0
LTYPE
  5
15
330
14
100
AcDbSymbolTableRecord
100
AcDbLinetypeTableRecord
  2
ByBlock
 70
     0
  3

 72
    65
 73
     0
 40
0.0
  0
LTYPE
  5
16
330
14
100
AcDbSymbolTableRecord
100
AcDbLinetypeTableRecord
  2
ByLayer
 70
     0
  3

 72
    65
 73
     0
 40
0.0
  0
LTYPE
  5
8
330
14
100
AcDbSymbolTableRecord
100
AcDbLinetypeTableRecord
  2
Continuous
 70
     0
  3
Solid line
 72
    65
 73
     0
 40
0.0
  0
ENDTAB
  0
TABLE
  2
LAYER
  5
10
102
{ACAD_XDICTIONARY
360
1A3
102
}
330
0
100
AcDbSymbolTable
 70
     4
  0
LAYER
  5
4
330
10
100
AcDbSymbolTableRecord
100
AcDbLayerTableRecord
  2
0
 70
     0
 62
     7
  6
Continuous
370
    -3
390
5
  0
LAYER
  5
28
330
10
100
AcDbSymbolTableRecord
100
AcDbLayerTableRecord
  2
Object
 70
     0
 62
     7
  6
Continuous
370
    -3
390
5
  0
LAYER
  5
1A2
330
10
100
AcDbSymbolTableRecord
100
AcDbLayerTableRecord
  2
TOPOVERLAY
 70
     0
 62
     2
  6
Continuous
370
    -3
390
5
  0
LAYER
  5
7B8
330
10
100
AcDbSymbolTableRecord
100
AcDbLayerTableRecord
  2
6-家具-143
 70
     0
 62
   143
  6
Continuous
370
    -3
390
5
  0
ENDTAB
  0
TABLE
  2
STYLE
  5
11
330
0
100
AcDbSymbolTable
 70
     2
  0
STYLE
  5
12
330
11
100
AcDbSymbolTableRecord
100
AcDbTextStyleTableRecord
  2
Standard
 70
     0
 40
0.0
 41
1.0
 50
0.0
 71
     0
 42
2.5
  3
txt
  4

  0
STYLE
  5
2E
330
11
100
AcDbSymbolTableRecord
100
AcDbTextStyleTableRecord
  2
Roman
 70
     0
 40
0.0
 41
1.0
 50
0.0
 71
     0
 42
5.0
  3
romans
  4
bigfont
  0
ENDTAB
  0
TABLE
  2
VIEW
  5
17
330
0
100
AcDbSymbolTable
 70
     0
  0
ENDTAB
  0
TABLE
  2
UCS
  5
18
330
0
100
AcDbSymbolTable
 70
     0
  0
ENDTAB
  0
TABLE
  2
APPID
  5
1B
330
0
100
AcDbSymbolTable
 70
     1
  0
APPID
  5
1C
330
1B
100
AcDbSymbolTableRecord
100
AcDbRegAppTableRecord
  2
ACAD
 70
     0
  0
ENDTAB
  0
TABLE
  2
DIMSTYLE
  5
1D
330
0
100
AcDbSymbolTable
 70
     1
100
AcDbDimStyleTable
 71
     1
340
1E
  0
DIMSTYLE
105
1E
330
1D
100
AcDbSymbolTableRecord
100
AcDbDimStyleTableRecord
  2
JIS
 70
     0
 41
2.5
 42
1.0
 43
7.0
 44
1.0
 73
     0
 74
     0
 77
     1
 78
     8
140
2.5
141
0.0
143
0.0394
147
0.0
172
     1
174
     1
175
     1
340
12
  0
ENDTAB
  0
TABLE
  2
BLOCK_RECORD
  5
1
330
0
100
AcDbSymbolTable
 70
     2
  0
BLOCK_RECORD
  5
2
330
1
100
AcDbSymbolTableRecord
100
AcDbBlockTableRecord
  2
*Model_Space
340
A
  0
BLOCK_RECORD
  5
C
330
1
100
AcDbSymbolTableRecord
100
AcDbBlockTableRecord
  2
*Paper_Space
340
F
  0
BLOCK_RECORD
  5
7B9
330
1
100
AcDbSymbolTableRecord
100
AcDbBlockTableRecord
  2
A$C034F0160
340
0
  0
ENDTAB
  0
ENDSEC
  0
SECTION
  2
BLOCKS
  0
BLOCK
  5
3
330
2
100
AcDbEntity
  8
0
100
AcDbBlockBegin
  2
*Model_Space
 70
     2
 10
0.0
 20
0.0
 30
0.0
  3
*Model_Space
  1

  0
ENDBLK
  5
9
330
2
100
AcDbEntity
  8
0
100
AcDbBlockEnd
  0
BLOCK
  5
D
330
C
100
AcDbEntity
 67
     1
  8
0
100
AcDbBlockBegin
  2
*Paper_Space
 70
     0
 10
0.0
 20
0.0
 30
0.0
  3
*Paper_Space
  1

  0
ENDBLK
  5
E
330
C
100
AcDbEntity
 67
     1
  8
0
100
AcDbBlockEnd
  0
BLOCK
  5
7F5
330
7B9
100
AcDbEntity
  8
0
100
AcDbBlockBegin
  2
A$C034F0160
 70
     0
 10
0.0
 20
0.0
 30
0.0
  3
A$C034F0160
  1

  0
LINE
  5
7BA
330
7B9
100
AcDbEntity
  8
6-家具-143
 62
   143
100
AcDbLine
 10
9.417473603422536
 20
49.54801316539658
 30
0.0
 11
7.017939166199198
 21
86.84221696389284
 31
0.0
  0
LINE
  5
7BB
330
7B9
100
AcDbEntity
  8
6-家具-143
 62
   143
100
AcDbLine
 10
36.0789673503823
 20
80.98169922413228
 30
0.0
 11
36.0789673503823
 21
50.08078750538562
 31
0.0
  0
LINE
  5
7BC
330
7B9
100
AcDbEntity
  8
6-家具-143
 62
   143
100
AcDbLine
 10
21.1485308520829
 20
76.18673016432592
 30
0.0
 11
16.8826918525724
 21
84.17834526399554
 31
0.0
  0
LINE
  5
7BD
330
7B9
100
AcDbEntity
  8
6-家具-143
 62
   143
100
AcDbLine
 10
0.9085980338030594
 20
85.7573899567958
 30
0.0
 11
0.0000023865474077
 21
79.01358840511114
 31
0.0
  0
LINE
  5
7BE
330
7B9
100
AcDbEntity
  8
6-家具-143
 62
   143
100
AcDbLine
 10
3.413374871526116
 20
80.76613578683623
 30
0.0
 11
4.553504536043419
 21
75.52601975618313
 31
0.0
  0
LINE
  5
7BF
330
7B9
100
AcDbEntity
  8
6-家具-143
 62
   143
100
AcDbLine
 10
37.16121294108302
 20
80.3104735233021
 30
0.0
 11
30.32043495400421
 21
83.27227823628504
 31
0.0
  0
LINE
  5
7C0
330
7B9
100
AcDbEntity
  8
6-家具-143
 62
   143
100
AcDbLine
 10
40.58160193461072
 20
103.3214178318987
 30
0.0
 11
46.05422432427156
 21
73.47553957026821
 31
0.0
  0
LINE
  5
7C1
330
7B9
100
AcDbEntity
  8
6-家具-143
 62
   143
100
AcDbLine
 10
29.41359391364802
 20
8.790776157066147
 30
0.0
 11
32.61297316327546
 21
9.856324837020565
 31
0.0
  0
LINE
  5
7C2
330
7B9
100
AcDbEntity
  8
6-家具-143
 62
   143
100
AcDbLine
 10
32.61297316327546
 20
9.856324837020565
 30
0.0
 11
35.27912253797831
 21
8.258001817077683
 31
0.0
  0
LINE
  5
7C3
330
7B9
100
AcDbEntity
  8
6-家具-143
 62
   143
100
AcDbLine
 10
12.35023791559365
 20
7.192453137123152
 30
0.0
 11
12.88346779052961
 21
8.524388987071802
 31
0.0
  0
LINE
  5
7C4
330
7B9
100
AcDbEntity
  8
6-家具-143
 62
   143
100
AcDbLine
 10
12.88346779052961
 20
8.524388987071802
 30
0.0
 11
16.61607691510414
 21
6.126904457168848
 31
0.0
  0
LINE
  5
7C5
330
7B9
100
AcDbEntity
  8
6-家具-143
 62
   143
100
AcDbLine
 10
16.61607691510414
 20
6.126904457168848
 30
0.0
 11
17.14930679004021
 21
6.126904457168848
 31
0.0
  0
LINE
  5
7C6
330
7B9
100
AcDbEntity
  8
6-家具-143
 62
   143
100
AcDbLine
 10
22.21499060196652
 20
48.48246448544216
 30
0.0
 11
21.1485308520829
 21
45.81859278554486
 31
0.0
  0
LINE
  5
7C7
330
7B9
100
AcDbEntity
  8
6-家具-143
 62
   143
100
AcDbLine
 10
21.1485308520829
 20
45.81859278554486
 30
0.0
 11
21.68176072703056
 21
45.55220561557393
 31
0.0
  0
LINE
  5
7C8
330
7B9
100
AcDbEntity
  8
6-家具-143
 62
   143
100
AcDbLine
 10
21.68176072703056
 20
45.55220561557393
 30
0.0
 11
19.54884122727537
 21
6.659678797157425
 31
0.0
  0
LINE
  5
7C9
330
7B9
100
AcDbEntity
  8
6-家具-143
 62
   143
100
AcDbLine
 10
19.54884122727537
 20
6.659678797157425
 30
0.0
 11
18.48238147739164
 21
6.39329162716308
 31
0.0
  0
LINE
  5
7CA
330
7B9
100
AcDbEntity
  8
6-家具-143
 62
   143
100
AcDbLine
 10
18.48238147739164
 20
6.39329162716308
 30
0.0
 11
20.61530097714706
 21
2.131096907322557
 31
0.0
  0
LINE
  5
7CB
330
7B9
100
AcDbEntity
  8
6-家具-143
 62
   143
100
AcDbLine
 10
20.61530097714706
 20
2.131096907322557
 30
0.0
 11
20.61530097714706
 21
0.5327738874026409
 31
0.0
  0
LINE
  5
7CC
330
7B9
100
AcDbEntity
  8
6-家具-143
 62
   143
100
AcDbLine
 10
20.61530097714706
 20
0.5327738874026409
 30
0.0
 11
12.88346779052961
 21
-0.0000004525863915
 31
0.0
  0
LINE
  5
7CD
330
7B9
100
AcDbEntity
  8
6-家具-143
 62
   143
100
AcDbLine
 10
12.88346779052961
 20
-0.0000004525863915
 30
0.0
 11
7.817783978615125
 21
0.2663867174082952
 31
0.0
  0
LINE
  5
7CE
330
7B9
100
AcDbEntity
  8
6-家具-143
 62
   143
100
AcDbLine
 10
7.817783978615125
 20
0.2663867174082952
 30
0.0
 11
4.618404728975974
 21
0.2663867174082952
 31
0.0
  0
LINE
  5
7CF
330
7B9
100
AcDbEntity
  8
6-家具-143
 62
   143
100
AcDbLine
 10
4.618404728975974
 20
0.2663867174082952
 30
0.0
 11
4.618404728975974
 21
2.663871247311249
 31
0.0
  0
LINE
  5
7D0
330
7B9
100
AcDbEntity
  8
6-家具-143
 62
   143
100
AcDbLine
 10
4.618404728975974
 20
2.663871247311249
 30
0.0
 11
10.75054829077408
 21
6.659678797157425
 31
0.0
  0
LINE
  5
7D1
330
7B9
100
AcDbEntity
  8
6-家具-143
 62
   143
100
AcDbLine
 10
10.75054829077408
 20
6.659678797157425
 30
0.0
 11
9.417473603422536
 21
45.81859278554486
 31
0.0
  0
LINE
  5
7D2
330
7B9
100
AcDbEntity
  8
6-家具-143
 62
   143
100
AcDbLine
 10
9.417473603422536
 20
45.81859278554486
 30
0.0
 11
9.950703478370314
 21
48.21607731544816
 31
0.0
  0
LINE
  5
7D3
330
7B9
100
AcDbEntity
  8
6-家具-143
 62
   143
100
AcDbLine
 10
9.950703478370314
 20
48.21607731544816
 30
0.0
 11
9.417473603422536
 21
49.54801316539658
 31
0.0
  0
LINE
  5
7D4
330
7B9
100
AcDbEntity
  8
6-家具-143
 62
   143
100
AcDbLine
 10
36.0789673503823
 20
50.08078750538562
 30
0.0
 11
36.878812162798
 21
47.15052863549352
 31
0.0
  0
LINE
  5
7D5
330
7B9
100
AcDbEntity
  8
6-家具-143
 62
   143
100
AcDbLine
 10
36.878812162798
 20
47.15052863549352
 30
0.0
 11
36.34558228785034
 21
7.725227477111843
 31
0.0
  0
LINE
  5
7D6
330
7B9
100
AcDbEntity
  8
6-家具-143
 62
   143
100
AcDbLine
 10
36.34558228785034
 20
7.725227477111843
 30
0.0
 11
33.67943291315896
 21
6.926065967128579
 31
0.0
  0
LINE
  5
7D7
330
7B9
100
AcDbEntity
  8
6-家具-143
 62
   143
100
AcDbLine
 10
33.67943291315896
 20
6.926065967128579
 30
0.0
 11
35.27912253797831
 21
3.72941992726578
 31
0.0
  0
LINE
  5
7D8
330
7B9
100
AcDbEntity
  8
6-家具-143
 62
   143
100
AcDbLine
 10
35.27912253797831
 20
3.72941992726578
 30
0.0
 11
36.878812162798
 21
2.131096907322557
 31
0.0
  0
LINE
  5
7D9
330
7B9
100
AcDbEntity
  8
6-家具-143
 62
   143
100
AcDbLine
 10
36.878812162798
 20
2.131096907322557
 30
0.0
 11
36.878812162798
 21
0.5327738874026409
 31
0.0
  0
LINE
  5
7DA
330
7B9
100
AcDbEntity
  8
6-家具-143
 62
   143
100
AcDbLine
 10
36.878812162798
 20
0.5327738874026409
 30
0.0
 11
32.87958810075497
 21
0.2663867174082952
 31
0.0
  0
LINE
  5
7DB
330
7B9
100
AcDbEntity
  8
6-家具-143
 62
   143
100
AcDbLine
 10
32.87958810075497
 20
0.2663867174082952
 30
0.0
 11
25.14775491413753
 21
-0.0000004525863915
 31
0.0
  0
LINE
  5
7DC
330
7B9
100
AcDbEntity
  8
6-家具-143
 62
   143
100
AcDbLine
 10
25.14775491413753
 20
-0.0000004525863915
 30
0.0
 11
24.08129516425402
 21
2.131096907322557
 31
0.0
  0
LINE
  5
7DD
330
7B9
100
AcDbEntity
  8
6-家具-143
 62
   143
100
AcDbLine
 10
24.08129516425402
 20
2.131096907322557
 30
0.0
 11
25.14775491413753
 21
3.995807097259785
 31
0.0
  0
LINE
  5
7DE
330
7B9
100
AcDbEntity
  8
6-家具-143
 62
   143
100
AcDbLine
 10
25.14775491413753
 20
3.995807097259785
 30
0.0
 11
28.34713416376451
 21
6.926065967128579
 31
0.0
  0
LINE
  5
7DF
330
7B9
100
AcDbEntity
  8
6-家具-143
 62
   143
100
AcDbLine
 10
28.34713416376451
 20
6.926065967128579
 30
0.0
 11
27.28067441389294
 21
8.258001817077683
 31
0.0
  0
LINE
  5
7E0
330
7B9
100
AcDbEntity
  8
6-家具-143
 62
   143
100
AcDbLine
 10
27.28067441389294
 20
8.258001817077683
 30
0.0
 11
23.54806528931806
 21
46.35136712553344
 31
0.0
  0
LINE
  5
7E1
330
7B9
100
AcDbEntity
  8
6-家具-143
 62
   143
100
AcDbLine
 10
23.54806528931806
 20
46.35136712553344
 30
0.0
 11
22.74822047690259
 21
49.01523882543108
 31
0.0
  0
LINE
  5
7E2
330
7B9
100
AcDbEntity
  8
6-家具-143
 62
   143
100
AcDbLine
 10
22.74822047690259
 20
49.01523882543108
 30
0.0
 11
21.1485308520829
 21
76.18673016432592
 31
0.0
  0
LINE
  5
7E3
330
7B9
100
AcDbEntity
  8
6-家具-143
 62
   143
100
AcDbLine
 10
0.0000023865474077
 20
79.01358840511114
 30
0.0
 11
0.7787986556170381
 21
78.75421142234859
 31
0.0
  0
LINE
  5
7E4
330
7B9
100
AcDbEntity
  8
6-家具-143
 62
   143
100
AcDbLine
 10
0.7787986556170381
 20
78.75421142234859
 30
0.0
 11
1.297996168337704
 21
77.32763801718977
 31
0.0
  0
LINE
  5
7E5
330
7B9
100
AcDbEntity
  8
6-家具-143
 62
   143
100
AcDbLine
 10
1.297996168337704
 20
77.32763801718977
 30
0.0
 11
2.206591815593128
 21
77.19794952582015
 31
0.0
  0
LINE
  5
7E6
330
7B9
100
AcDbEntity
  8
6-家具-143
 62
   143
100
AcDbLine
 10
2.206591815593128
 20
77.19794952582015
 30
0.0
 11
2.466190571953575
 21
76.16044159477019
 31
0.0
  0
LINE
  5
7E7
330
7B9
100
AcDbEntity
  8
6-家具-143
 62
   143
100
AcDbLine
 10
2.466190571953575
 20
76.16044159477019
 30
0.0
 11
4.153582488278289
 21
75.64168762926863
 31
0.0
  0
LINE
  5
7E8
330
7B9
100
AcDbEntity
  8
6-家具-143
 62
   143
100
AcDbLine
 10
4.553504536043419
 20
75.52601975618313
 30
0.0
 11
5.237582334746548
 21
72.564215043177
 31
0.0
  0
LINE
  5
7E9
330
7B9
100
AcDbEntity
  8
6-家具-143
 62
   143
100
AcDbLine
 10
5.237582334746548
 20
72.564215043177
 30
0.0
 11
7.745867596669882
 21
73.47553957026821
 31
0.0
  0
LINE
  5
7EA
330
7B9
100
AcDbEntity
  8
6-家具-143
 62
   143
100
AcDbLine
 10
45.1421205926556
 20
74.15903296555791
 30
0.0
 11
41.72173159912813
 21
76.43734428325103
 31
0.0
  0
LINE
  5
7EB
330
7B9
100
AcDbEntity
  8
6-家具-143
 62
   143
100
AcDbLine
 10
41.72173159912813
 20
76.43734428325103
 30
0.0
 11
37.16121294108302
 21
80.3104735233021
 31
0.0
  0
LINE
  5
7EC
330
7B9
100
AcDbEntity
  8
6-家具-143
 62
   143
100
AcDbLine
 10
46.05422432427156
 20
73.47553957026821
 30
0.0
 11
43.54593906234788
 21
73.24770843848989
 31
0.0
  0
LINE
  5
7ED
330
7B9
100
AcDbEntity
  8
6-家具-143
 62
   143
100
AcDbLine
 10
43.54593906234788
 20
73.24770843848989
 30
0.0
 11
39.44147227010524
 21
75.29818862440447
 31
0.0
  0
LINE
  5
7EE
330
7B9
100
AcDbEntity
  8
6-家具-143
 62
   143
100
AcDbLine
 10
39.44147227010524
 20
75.29818862440447
 30
0.0
 11
36.24910920946695
 21
75.98168201971725
 31
0.0
  0
LINE
  5
7EF
330
7B9
100
AcDbEntity
  8
6-家具-143
 62
   143
100
AcDbLine
 10
1.687394302872576
 20
89.25897922403112
 30
0.0
 11
0.9085980338030594
 21
85.7573899567958
 31
0.0
  0
LINE
  5
7F0
330
7B9
100
AcDbEntity
  8
6-家具-143
 62
   143
100
AcDbLine
 10
4.097452670229472
 20
84.18360276335306
 30
0.0
 11
3.185348938625452
 21
93.06901690232484
 31
0.0
  0
LINE
  5
7F1
330
7B9
100
AcDbEntity
  8
6-家具-143
 62
   143
100
AcDbLine
 10
8.201919462472233
 20
89.87938105756347
 30
0.0
 11
5.693634200548672
 21
87.14540747635908
 31
0.0
  0
LINE
  5
7F2
330
7B9
100
AcDbEntity
  8
6-家具-143
 62
   143
100
AcDbLine
 10
5.693634200548672
 20
87.14540747635908
 30
0.0
 11
3.869426737328467
 21
83.72794049981905
 31
0.0
  0
LINE
  5
7F3
330
7B9
100
AcDbEntity
  8
6-家具-143
 62
   143
100
AcDbLine
 10
3.869426737328467
 20
83.72794049981905
 30
0.0
 11
3.413374871526116
 21
80.76613578683623
 31
0.0
  0
LINE
  5
7F4
330
7B9
100
AcDbEntity
  8
6-家具-143
 62
   143
100
AcDbLine
 10
30.32043495400421
 20
83.27227823628504
 30
0.0
 11
24.84781256435508
 21
89.65154992580812
 31
0.0
  0
ENDBLK
  5
7F6
330
7B9
100
AcDbEntity
  8
0
100
AcDbBlockEnd
  0
ENDSEC
  0
SECTION
  2
ENTITIES
  0
LINE
  5
14F
330
2
100
AcDbEntity
  8
0
100
AcDbLine
 10
0.0
 20
0.0
 30
0.0
 11
1600.0
 21
0.0
 31
0.0
  0
LINE
  5
150
330
2
100
AcDbEntity
  8
0
100
AcDbLine
 10
1600.0
 20
0.0
 30
0.0
 11
1600.0
 21
1200.0
 31
0.0
  0
LINE
  5
151
330
2
100
AcDbEntity
  8
0
100
AcDbLine
 10
1600.0
 20
1200.0
 30
0.0
 11
0.0
 21
1200.0
 31
0.0
  0
LINE
  5
152
330
2
100
AcDbEntity
  8
0
100
AcDbLine
 10
0.0
 20
1200.0
 30
0.0
 11
0.0
 21
0.0
 31
0.0
  0
LINE
  5
24D
330
2
100
AcDbEntity
  8
0
 62
     5
370
    35
100
AcDbLine
 10
146.8773759648378
 20
134.2453454679304
 30
0.0
 11
146.8773759648378
 21
1100.245345467943
 31
0.0
  0
LINE
  5
24E
330
2
100
AcDbEntity
  8
0
 62
     5
370
    35
100
AcDbLine
 10
146.8773759648378
 20
1100.245345467943
 30
0.0
 11
1462.87737596485
 21
1100.245345467943
 31
0.0
  0
LINE
  5
24F
330
2
100
AcDbEntity
  8
0
 62
     5
370
    35
100
AcDbLine
 10
1462.87737596485
 20
134.2453454679304
 30
0.0
 11
1462.87737596485
 21
1100.245345467943
 31
0.0
  0
LINE
  5
250
330
2
100
AcDbEntity
  8
0
 62
     5
370
    35
100
AcDbLine
 10
146.8773759648378
 20
134.2453454679304
 30
0.0
 11
1462.87737596485
 21
134.2453454679304
 31
0.0
  0
ARC
  5
253
330
2
100
AcDbEntity
  8
0
 62
    56
100
AcDbCircle
 10
401.2681708086422
 20
628.4567916576502
 30
0.0
 40
86.57756336906864
100
AcDbArc
 50
93.76815435825868
 51
266.2318456417413
  0
LINE
  5
254
330
2
100
AcDbEntity
  8
0
 62
    56
100
AcDbLine
 10
470.1374477329405
 20
628.3583971343634
 30
0.0
 11
499.3982512737052
 21
628.3583971343634
 31
0.0
  0
LINE
  5
255
330
2
100
AcDbEntity
  8
0
 62
   250
370
   100
100
AcDbLine
 10
527.8635948504152
 20
628.2835470220474
 30
0.0
 11
587.9718373885777
 21
628.2835470220474
 31
0.0
  0
LINE
  5
256
330
2
100
AcDbEntity
  8
TOPOVERLAY
  6
Continuous
 62
   250
370
   100
100
AcDbLine
 10
541.4356581651294
 20
585.0814711308552
 30
0.0
 11
587.6442963840311
 21
614.4695149158027
 31
0.0
  0
LINE
  5
257
330
2
100
AcDbEntity
  8
0
 62
    56
100
AcDbLine
 10
604.2264970840532
 20
628.4012180692907
 30
0.0
 11
658.7775067137572
 21
628.4012180692907
 31
0.0
  0
CIRCLE
  5
25A
330
2
100
AcDbEntity
  8
0
 62
   252
100
AcDbCircle
 10
849.8347280698894
 20
544.8099052881846
 30
0.0
 40
20.66015533163439
  0
CIRCLE
  5
25B
330
2
100
AcDbEntity
  8
0
 62
   252
100
AcDbCircle
 10
896.2810363508351
 20
544.8099052881846
 30
0.0
 40
20.66015533163439
  0
LINE
  5
25C
330
2
100
AcDbEntity
  8
0
 62
   252
100
AcDbLine
 10
846.0386689126329
 20
572.6575850725935
 30
0.0
 11
846.0386689126329
 21
590.4449980898156
 31
0.0
  0
LINE
  5
25D
330
2
100
AcDbEntity
  8
0
 62
   252
100
AcDbLine
 10
851.7095168752783
 20
569.7441298102651
 30
0.0
 11
851.7095168752783
 21
587.5315428273284
 31
0.0
  0
LINE
  5
25E
330
2
100
AcDbEntity
  8
0
 62
   252
100
AcDbLine
 10
840.3678256780167
 20
583.0846877287699
 30
0.0
 11
859.9858798658585
 21
574.651003384211
 31
0.0
  0
LINE
  5
25F
330
2
100
AcDbEntity
  8
0
 62
   252
100
AcDbLine
 10
891.6408484796201
 20
571.4311248843483
 30
0.0
 11
891.6408484796201
 21
589.2185379015702
 31
0.0
  0
LINE
  5
260
330
2
100
AcDbEntity
  8
0
 62
   252
100
AcDbLine
 10
897.3116964422823
 20
568.5176696219882
 30
0.0
 11
897.3116964422823
 21
586.3050826390831
 31
0.0
  0
LINE
  5
261
330
2
100
AcDbEntity
  8
0
 62
   252
100
AcDbLine
 10
885.9700052450161
 20
581.8582275404926
 30
0.0
 11
905.5880594328653
 21
573.4245431959656
 31
0.0
  0
LINE
  5
262
330
2
100
AcDbEntity
  8
0
 62
   252
100
AcDbLine
 10
811.4020209092316
 20
547.0627865766075
 30
0.0
 11
938.3176685414612
 21
547.0627865766075
 31
0.0
  0
CIRCLE
  5
263
330
2
100
AcDbEntity
  8
0
 62
   252
100
AcDbCircle
 10
846.4638490603672
 20
689.8273729904121
 30
0.0
 40
20.66015533163439
  0
CIRCLE
  5
264
330
2
100
AcDbEntity
  8
0
 62
   252
100
AcDbCircle
 10
892.9101573412921
 20
689.8273729904121
 30
0.0
 40
20.66015533163439
  0
LINE
  5
265
330
2
100
AcDbEntity
  8
0
 62
   252
100
AcDbLine
 10
842.6677899030917
 20
717.6750527748207
 30
0.0
 11
842.6677899030917
 21
735.4624657919162
 31
0.0
  0
LINE
  5
266
330
2
100
AcDbEntity
  8
0
 62
   252
100
AcDbLine
 10
848.3386378657456
 20
714.761597512334
 30
0.0
 11
848.3386378657456
 21
732.549010529556
 31
0.0
  0
LINE
  5
267
330
2
100
AcDbEntity
  8
0
 62
   252
100
AcDbLine
 10
836.9969466684873
 20
728.1021554308705
 30
0.0
 11
856.6150008563175
 21
719.6684710864705
 31
0.0
  0
LINE
  5
268
330
2
100
AcDbEntity
  8
0
 62
   252
100
AcDbLine
 10
888.2699694700912
 20
716.448592586576
 30
0.0
 11
888.2699694700912
 21
734.2360056036708
 31
0.0
  0
LINE
  5
269
330
2
100
AcDbEntity
  8
0
 62
   252
100
AcDbLine
 10
893.9408174327452
 20
713.5351373240884
 30
0.0
 11
893.9408174327452
 21
731.3225503413426
 31
0.0
  0
LINE
  5
26A
330
2
100
AcDbEntity
  8
0
 62
   252
100
AcDbLine
 10
882.5991262354792
 20
726.8756952426248
 30
0.0
 11
902.2171804233362
 21
718.442010898098
 31
0.0
  0
LINE
  5
26B
330
2
100
AcDbEntity
  8
0
 62
   252
100
AcDbLine
 10
808.0311418997078
 20
692.0802542788354
 30
0.0
 11
934.9467895319213
 21
692.0802542788354
 31
0.0
  0
LINE
  5
26C
330
2
100
AcDbEntity
  8
0
 62
    56
100
AcDbLine
 10
294.9873178741801
 20
240.3176229270147
 30
0.0
 11
294.9595074320472
 21
1017.926882565553
 31
0.0
  0
ARC
  5
26E
330
2
100
AcDbEntity
  8
0
 62
    56
100
AcDbCircle
 10
714.0263533355915
 20
629.3287134877487
 30
0.0
 40
86.57756336906864
100
AcDbArc
 50
273.7681543582587
 51
86.23184564174131
  0
LINE
  5
26F
330
2
100
AcDbEntity
  8
0
 62
    56
100
AcDbLine
 10
973.9539700263961
 20
625.1124834942498
 30
0.0
 11
973.9539700263961
 21
501.1746429232616
 31
0.0
  0
LINE
  5
270
330
2
100
AcDbEntity
  8
0
 62
    56
100
AcDbLine
 10
973.9539700263961
 20
501.1746429232616
 30
0.0
 11
906.4579844358259
 21
501.1746429232616
 31
0.0
  0
LINE
  5
271
330
2
100
AcDbEntity
  8
0
 62
    56
100
AcDbLine
 10
906.4579844358259
 20
501.1746429232616
 30
0.0
 11
906.4579844358259
 21
394.2070817623431
 31
0.0
  0
LINE
  5
272
330
2
100
AcDbEntity
  8
0
 62
    56
100
AcDbLine
 10
906.4579844358259
 20
394.2070817623431
 30
0.0
 11
934.4953215517596
 21
394.2070817623431
 31
0.0
  0
LINE
  5
273
330
2
100
AcDbEntity
  8
0
 62
    56
100
AcDbLine
 10
934.4953215517596
 20
380.8960846563837
 30
0.0
 11
934.4953215517596
 21
407.460580247544
 31
0.0
  0
LINE
  5
274
330
2
100
AcDbEntity
  8
0
 62
    56
100
AcDbLine
 10
940.8403907057147
 20
380.8960846563837
 30
0.0
 11
940.8403907057147
 21
407.460580247544
 31
0.0
  0
CIRCLE
  5
275
330
2
100
AcDbEntity
  8
0
 62
   250
370
    30
100
AcDbCircle
 10
1003.517714356422
 20
334.9398966850963
 30
0.0
 40
21.00918010397843
  0
CIRCLE
  5
279
330
2
100
AcDbEntity
  8
0
 62
   250
370
    30
100
AcDbCircle
 10
1003.455272873811
 20
394.3476714354988
 30
0.0
 40
21.00918010397843
  0
CIRCLE
  5
27D
330
2
100
AcDbEntity
  8
0
 62
   250
370
    30
100
AcDbCircle
 10
1003.455272873811
 20
451.0131016931476
 30
0.0
 40
21.00918010397843
  0
LINE
  5
281
330
2
100
AcDbEntity
  8
0
 62
    56
100
AcDbLine
 10
982.4460927698423
 20
394.3476714354988
 30
0.0
 11
940.8403907057147
 21
394.3476714354988
 31
0.0
  0
LINE
  5
282
330
2
100
AcDbEntity
  8
0
 62
    56
100
AcDbLine
 10
1024.464452977806
 20
394.3476714354988
 30
0.0
 11
1039.314395454069
 21
394.3476714354988
 31
0.0
  0
LINE
  5
283
330
2
100
AcDbEntity
  8
0
 62
    56
100
AcDbLine
 10
1039.388990038443
 20
379.3676202292459
 30
0.0
 11
1039.388990038443
 21
409.00459600814
 31
0.0
  0
LINE
  5
284
330
2
100
AcDbEntity
  8
0
 62
    56
100
AcDbLine
 10
1042.74302770237
 20
383.8706902995915
 30
0.0
 11
1042.74302770237
 21
403.1583864851246
 31
0.0
  0
LINE
  5
285
330
2
100
AcDbEntity
  8
0
 62
    56
100
AcDbLine
 10
1046.461012423949
 20
389.243690747517
 30
0.0
 11
1046.461012423949
 21
397.7853860371993
 31
0.0
  0
LINE
  5
286
330
2
100
AcDbEntity
  8
0
 62
    56
100
AcDbLine
 10
973.9539700263961
 20
625.1124834942498
 30
0.0
 11
973.9539700263961
 21
752.756677270245
 31
0.0
  0
LINE
  5
287
330
2
100
AcDbEntity
  8
0
 62
    56
100
AcDbLine
 10
973.9539700263961
 20
752.756677270245
 30
0.0
 11
905.6413493840961
 21
752.756677270245
 31
0.0
  0
LINE
  5
288
330
2
100
AcDbEntity
  8
0
 62
    56
100
AcDbLine
 10
905.6413493840961
 20
752.756677270245
 30
0.0
 11
905.6413493840961
 21
920.9552148575816
 31
0.0
  0
LINE
  5
289
330
2
100
AcDbEntity
  8
0
 62
    56
100
AcDbLine
 10
905.6413493840961
 20
920.9552148575816
 30
0.0
 11
942.2925948928883
 21
920.9552148575816
 31
0.0
  0
LINE
  5
28A
330
2
100
AcDbEntity
  8
0
 62
   250
370
    30
100
AcDbLine
 10
950.2989489221251
 20
845.5916548606225
 30
0.0
 11
1012.039857522575
 21
845.5916548606225
 31
0.0
  0
LINE
  5
28B
330
2
100
AcDbEntity
  8
0
 62
     3
370
    30
100
AcDbLine
 10
969.3382320053286
 20
803.5084767944718
 30
0.0
 11
1011.712316518024
 21
830.4615642773709
 31
0.0
  0
LINE
  5
28C
330
2
100
AcDbEntity
  8
0
 62
    56
100
AcDbLine
 10
934.9535364719052
 20
827.3457265659777
 30
0.0
 11
934.9535364719052
 21
858.7929572286345
 31
0.0
  0
LINE
  5
28D
330
2
100
AcDbEntity
  8
0
 62
    56
100
AcDbLine
 10
934.9535364719052
 20
842.1221343767278
 30
0.0
 11
905.6413493840961
 21
842.1221343767278
 31
0.0
  0
LINE
  5
28E
330
2
100
AcDbEntity
  8
0
 62
    56
100
AcDbLine
 10
1024.464452977806
 20
841.4595212865702
 30
0.0
 11
1039.314395454069
 21
841.4595212865702
 31
0.0
  0
LINE
  5
28F
330
2
100
AcDbEntity
  8
0
 62
    56
100
AcDbLine
 10
1039.388990038443
 20
826.4794700803172
 30
0.0
 11
1039.388990038443
 21
856.1164458592115
 31
0.0
  0
LINE
  5
290
330
2
100
AcDbEntity
  8
0
 62
    56
100
AcDbLine
 10
1042.74302770237
 20
830.9825401507263
 30
0.0
 11
1042.74302770237
 21
850.2702363362281
 31
0.0
  0
LINE
  5
291
330
2
100
AcDbEntity
  8
0
 62
    56
100
AcDbLine
 10
1046.461012423949
 20
836.3555405986202
 30
0.0
 11
1046.461012423949
 21
844.8972358883024
 31
0.0
  0
LINE
  5
292
330
2
100
AcDbEntity
  8
0
 62
    56
370
    20
100
AcDbLine
 10
947.6868372289683
 20
911.4332543979623
 30
0.0
 11
1010.827803089492
 21
911.4332543979623
 31
0.0
  0
LINE
  5
293
330
2
100
AcDbEntity
  8
0
 62
    56
370
    20
100
AcDbLine
 10
1010.827803089492
 20
911.4332543979623
 30
0.0
 11
1010.827803089492
 21
930.5621469768404
 31
0.0
  0
LINE
  5
294
330
2
100
AcDbEntity
  8
0
 62
    56
370
    20
100
AcDbLine
 10
1010.827803089492
 20
930.5621469768404
 30
0.0
 11
947.6868372289683
 21
930.5621469768404
 31
0.0
  0
LINE
  5
295
330
2
100
AcDbEntity
  8
0
 62
    56
370
    20
100
AcDbLine
 10
947.6868372289683
 20
930.5621469768404
 30
0.0
 11
947.6868372289683
 21
911.4332543979623
 31
0.0
  0
LINE
  5
296
330
2
100
AcDbEntity
  8
0
 62
    56
370
    20
100
AcDbLine
 10
942.2925948928883
 20
920.9552148575816
 30
0.0
 11
957.1310260261633
 21
920.9552148575816
 31
0.0
  0
LINE
  5
297
330
2
100
AcDbEntity
  8
0
 62
    56
370
    20
100
AcDbLine
 10
957.1310260261633
 20
914.6058149412926
 30
0.0
 11
957.1310260261633
 21
927.30461477403
 31
0.0
  0
LINE
  5
298
330
2
100
AcDbEntity
  8
0
 62
    56
370
    20
100
AcDbLine
 10
957.1310260261633
 20
927.30461477403
 30
0.0
 11
992.8444137824833
 21
920.9552148575816
 31
0.0
  0
LINE
  5
299
330
2
100
AcDbEntity
  8
0
 62
    56
370
    20
100
AcDbLine
 10
957.1310260261633
 20
914.6058149412926
 30
0.0
 11
992.8444137824833
 21
920.9552148575816
 31
0.0
  0
LINE
  5
29A
330
2
100
AcDbEntity
  8
0
 62
    56
100
AcDbLine
 10
1024.575723114653
 20
921.1158627875423
 30
0.0
 11
1039.425665590903
 21
921.1158627875423
 31
0.0
  0
LINE
  5
29B
330
2
100
AcDbEntity
  8
0
 62
    56
100
AcDbLine
 10
1039.500260175289
 20
906.1358115812897
 30
0.0
 11
1039.500260175289
 21
935.7727873603113
 31
0.0
  0
LINE
  5
29C
330
2
100
AcDbEntity
  8
0
 62
    56
100
AcDbLine
 10
1042.854297839231
 20
910.6388816516666
 30
0.0
 11
1042.854297839231
 21
929.926577837328
 31
0.0
  0
LINE
  5
29D
330
2
100
AcDbEntity
  8
0
 62
    56
100
AcDbLine
 10
1046.572282560815
 20
916.0118820995927
 30
0.0
 11
1046.572282560815
 21
924.5535773894019
 31
0.0
  0
LINE
  5
29E
330
2
100
AcDbEntity
  8
0
 62
    56
100
AcDbLine
 10
800.5989484865619
 20
628.4012180692907
 30
0.0
 11
1085.671855937085
 21
628.4012180692907
 31
0.0
  0
CIRCLE
  5
29F
330
2
100
AcDbEntity
  8
0
 62
   250
370
    30
100
AcDbCircle
 10
1234.582622490346
 20
335.6770914340137
 30
0.0
 40
21.00918010397843
  0
CIRCLE
  5
2A3
330
2
100
AcDbEntity
  8
0
 62
   250
370
    30
100
AcDbCircle
 10
1234.520181007761
 20
395.0848661843843
 30
0.0
 40
21.00918010397843
  0
CIRCLE
  5
2A7
330
2
100
AcDbEntity
  8
0
 62
   250
370
    30
100
AcDbCircle
 10
1234.520181007761
 20
451.7502964421924
 30
0.0
 40
21.00918010397843
  0
CIRCLE
  5
2AB
330
2
100
AcDbEntity
  8
0
 62
   250
370
    30
100
AcDbCircle
 10
1137.685615453919
 20
578.5931509954439
 30
0.0
 40
21.00918010397843
  0
LINE
  5
2AE
330
2
100
AcDbEntity
  8
0
 62
   252
100
AcDbLine
 10
1094.57518754467
 20
261.2888166757517
 30
0.0
 11
1094.57518754467
 21
619.2495115365913
 31
0.0
  0
LINE
  5
2AF
330
2
100
AcDbEntity
  8
0
 62
   252
100
AcDbLine
 10
1094.57518754467
 20
619.2495115365913
 30
0.0
 11
1339.165136360506
 21
619.2495115365913
 31
0.0
  0
LINE
  5
2B0
330
2
100
AcDbEntity
  8
0
 62
   252
100
AcDbLine
 10
1339.165136360506
 20
619.2495115365913
 30
0.0
 11
1339.165136360506
 21
261.2888166757517
 31
0.0
  0
LINE
  5
2B1
330
2
100
AcDbEntity
  8
0
 62
   252
100
AcDbLine
 10
1339.165136360506
 20
261.2888166757517
 30
0.0
 11
1094.57518754467
 21
261.2888166757517
 31
0.0
  0
CIRCLE
  5
2B3
330
2
100
AcDbEntity
  8
0
 62
   250
370
    30
100
AcDbCircle
 10
1234.582622490346
 20
768.358341278077
 30
0.0
 40
21.00918010397843
  0
CIRCLE
  5
2B7
330
2
100
AcDbEntity
  8
0
 62
     1
370
    30
100
AcDbCircle
 10
1234.520181007761
 20
886.8995479778192
 30
0.0
 40
21.00918010397843
  0
LINE
  5
2B8
330
2
100
AcDbEntity
  8
0
 62
     1
370
    30
100
AcDbLine
 10
1221.017559352162
 20
871.3262743741145
 30
0.0
 11
1248.022798577847
 21
902.4728251238176
 31
0.0
  0
LINE
  5
2B9
330
2
100
AcDbEntity
  8
0
 62
     1
370
    30
100
AcDbLine
 10
1234.520181007761
 20
886.8995479778192
 30
0.0
 11
1221.954892414037
 21
903.2384942371871
 31
0.0
  0
LINE
  5
2BA
330
2
100
AcDbEntity
  8
0
 62
     1
370
    30
100
AcDbLine
 10
1234.520181007761
 20
886.8995479778192
 30
0.0
 11
1246.712678770662
 21
870.2805636342517
 31
0.0
  0
LINE
  5
2BB
330
2
100
AcDbEntity
  8
0
 62
   252
100
AcDbLine
 10
1094.57518754467
 20
653.1478911412072
 30
0.0
 11
1094.57518754467
 21
1011.108586001919
 31
0.0
  0
LINE
  5
2BC
330
2
100
AcDbEntity
  8
0
 62
   252
100
AcDbLine
 10
1094.57518754467
 20
1011.108586001919
 30
0.0
 11
1339.165136360506
 21
1011.108586001919
 31
0.0
  0
LINE
  5
2BD
330
2
100
AcDbEntity
  8
0
 62
   252
100
AcDbLine
 10
1339.165136360506
 20
1011.108586001919
 30
0.0
 11
1339.165136360506
 21
653.1478911412075
 31
0.0
  0
LINE
  5
2BE
330
2
100
AcDbEntity
  8
0
 62
   252
100
AcDbLine
 10
1339.165136360506
 20
653.1478911412075
 30
0.0
 11
1094.57518754467
 21
653.1478911412075
 31
0.0
  0
LINE
  5
2C1
330
2
100
AcDbEntity
  8
0
 62
   252
100
AcDbLine
 10
599.7926463441414
 20
796.0172651447789
 30
0.0
 11
636.104935636844
 21
821.9138351143877
 31
0.0
  0
LINE
  5
2C2
330
2
100
AcDbEntity
  8
0
 62
   252
100
AcDbLine
 10
601.6548179111188
 20
811.6557315550569
 30
0.0
 11
633.4979104466635
 21
833.6398903008328
 31
0.0
  0
LINE
  5
2C4
330
2
100
AcDbEntity
  8
0
 62
   252
100
AcDbLine
 10
636.2000600586878
 20
849.2813438231047
 30
0.0
 11
599.4059293878438
 21
824.0740703083114
 31
0.0
  0
LINE
  5
2C6
330
2
100
AcDbEntity
  8
0
 62
   252
100
AcDbLine
 10
659.3275608998866
 20
796.0172651447784
 30
0.0
 11
695.6398501925906
 21
821.9138351143874
 31
0.0
  0
LINE
  5
2C7
330
2
100
AcDbEntity
  8
0
 62
   252
100
AcDbLine
 10
661.1897324668648
 20
811.6557315550567
 30
0.0
 11
693.0328250024127
 21
833.6398903008332
 31
0.0
  0
LINE
  5
2C9
330
2
100
AcDbEntity
  8
0
 62
   252
100
AcDbLine
 10
695.734974614433
 20
849.2813438230722
 30
0.0
 11
658.9408439435697
 21
824.0740703082797
 31
0.0
  0
ARC
  5
2CA
330
2
100
AcDbEntity
  8
0
 62
    18
370
     0
100
AcDbCircle
 10
1139.286453494253
 20
767.3453875379626
 30
0.0
 40
14.46431580258922
100
AcDbArc
 50
96.35583041835197
 51
263.644169581648
  0
LINE
  5
2CB
330
2
100
AcDbEntity
  8
0
 62
    18
370
     0
100
AcDbLine
 10
1137.685213251165
 20
752.9699758457857
 30
0.0
 11
1151.510053583306
 21
752.9699758457857
 31
0.0
  0
LINE
  5
2CC
330
2
100
AcDbEntity
  8
0
 62
    18
370
     0
100
AcDbLine
 10
1137.685213251165
 20
781.7207992301703
 30
0.0
 11
1151.510053583306
 21
781.7207992301703
 31
0.0
  0
LINE
  5
2CD
330
2
100
AcDbEntity
  8
0
 62
    18
370
     0
100
AcDbLine
 10
1151.510053583306
 20
747.2938776490585
 30
0.0
 11
1151.510053583306
 21
787.4255459526518
 31
0.0
  0
LINE
  5
2CE
330
2
100
AcDbEntity
  8
0
 62
    18
370
     0
100
AcDbLine
 10
1151.510053583306
 20
747.2938776490585
 30
0.0
 11
1178.172928851987
 21
747.2938776490585
 31
0.0
  0
LINE
  5
2CF
330
2
100
AcDbEntity
  8
0
 62
    18
370
     0
100
AcDbLine
 10
1178.172928851987
 20
747.2938776490585
 30
0.0
 11
1178.172928851987
 21
787.4255459526518
 31
0.0
  0
LINE
  5
2D0
330
2
100
AcDbEntity
  8
0
 62
    18
370
     0
100
AcDbLine
 10
1178.172928851987
 20
787.4255459526518
 30
0.0
 11
1151.510053583306
 21
787.4255459526518
 31
0.0
  0
ARC
  5
2D1
330
2
100
AcDbEntity
  8
0
 62
    88
100
AcDbCircle
 10
1139.003241827325
 20
858.899169573338
 30
0.0
 40
14.46431580258922
100
AcDbArc
 50
96.35583041835197
 51
263.644169581648
  0
LINE
  5
2D2
330
2
100
AcDbEntity
  8
0
 62
    88
100
AcDbLine
 10
1137.402001584215
 20
873.421985177711
 30
0.0
 11
1151.226841916377
 21
873.421985177711
 31
0.0
  0
LINE
  5
2D3
330
2
100
AcDbEntity
  8
0
 62
    88
100
AcDbLine
 10
1151.226841916377
 20
867.7458869808249
 30
0.0
 11
1151.226841916377
 21
907.8775552845764
 31
0.0
  0
LINE
  5
2D4
330
2
100
AcDbEntity
  8
0
 62
    88
100
AcDbLine
 10
1151.226841916377
 20
867.7458869808249
 30
0.0
 11
1177.88971718507
 21
867.7458869808249
 31
0.0
  0
LINE
  5
2D5
330
2
100
AcDbEntity
  8
0
 62
    88
100
AcDbLine
 10
1177.88971718507
 20
867.7458869808249
 30
0.0
 11
1177.889717185057
 21
907.8775552845764
 31
0.0
  0
LINE
  5
2D6
330
2
100
AcDbEntity
  8
0
 62
    88
100
AcDbLine
 10
1177.88971718507
 20
907.8775552845764
 30
0.0
 11
1151.226841916377
 21
907.8775552845764
 31
0.0
  0
LINE
  5
2D7
330
2
100
AcDbEntity
  8
0
 62
   250
370
    30
100
AcDbLine
 10
665.8807654987732
 20
907.4940630177801
 30
0.0
 11
665.8807654987732
 21
945.7800229854225
 31
0.0
  0
LINE
  5
2D8
330
2
100
AcDbEntity
  8
0
 62
   250
370
    30
100
AcDbLine
 10
665.8807654987732
 20
945.7800229854225
 30
0.0
 11
689.6916630852606
 21
945.7800229854225
 31
0.0
  0
LINE
  5
2D9
330
2
100
AcDbEntity
  8
0
 62
   250
370
    30
100
AcDbLine
 10
689.6916630852606
 20
945.7800229854225
 30
0.0
 11
689.6916630852606
 21
907.4940630177801
 31
0.0
  0
LINE
  5
2DA
330
2
100
AcDbEntity
  8
0
 62
   250
370
    30
100
AcDbLine
 10
689.6916630852606
 20
907.4940630177801
 30
0.0
 11
665.8807654987732
 21
907.4940630177801
 31
0.0
  0
LINE
  5
2DB
330
2
100
AcDbEntity
  8
TOPOVERLAY
  6
Continuous
 62
     3
370
    30
100
AcDbLine
 10
606.3458509430277
 20
907.4940630177803
 30
0.0
 11
606.3458509430277
 21
945.7800229852642
 31
0.0
  0
LINE
  5
2DC
330
2
100
AcDbEntity
  8
TOPOVERLAY
  6
Continuous
 62
     3
370
    30
100
AcDbLine
 10
606.3458509430277
 20
945.7800229852642
 30
0.0
 11
630.1567485295541
 21
945.7800229852642
 31
0.0
  0
LINE
  5
2DD
330
2
100
AcDbEntity
  8
TOPOVERLAY
  6
Continuous
 62
     3
370
    30
100
AcDbLine
 10
630.1567485295541
 20
945.7800229852642
 30
0.0
 11
630.1567485295541
 21
907.4940630177803
 31
0.0
  0
LINE
  5
2DE
330
2
100
AcDbEntity
  8
TOPOVERLAY
  6
Continuous
 62
     3
370
    30
100
AcDbLine
 10
630.1567485295541
 20
907.4940630177803
 30
0.0
 11
606.3458509430277
 21
907.4940630177803
 31
0.0
  0
LINE
  5
2E0
330
2
100
AcDbEntity
  8
0
 62
   252
100
AcDbLine
 10
1176.401910468062
 20
557.2303403402433
 30
0.0
 11
1176.401910468062
 21
601.3235525283021
 31
0.0
  0
LINE
  5
2E1
330
2
100
AcDbEntity
  8
0
 62
   252
100
AcDbLine
 10
1176.401910468062
 20
601.3235525283021
 30
0.0
 11
1211.659521838679
 21
601.3235525283021
 31
0.0
  0
LINE
  5
2E2
330
2
100
AcDbEntity
  8
0
 62
   252
100
AcDbLine
 10
1211.659521838679
 20
601.3235525283021
 30
0.0
 11
1211.659521838679
 21
557.2303403402433
 31
0.0
  0
LINE
  5
2E3
330
2
100
AcDbEntity
  8
0
 62
   252
100
AcDbLine
 10
1211.659521838679
 20
557.2303403402433
 30
0.0
 11
1176.401910468062
 21
557.2303403402433
 31
0.0
  0
LINE
  5
2E6
330
2
100
AcDbEntity
  8
0
 62
   250
370
   100
100
AcDbLine
 10
527.8635948504152
 20
628.2835470220474
 30
0.0
 11
587.9718373885777
 21
628.2835470220474
 31
0.0
  0
LINE
  5
2E7
330
2
100
AcDbEntity
  8
TOPOVERLAY
  6
Continuous
 62
   250
370
   100
100
AcDbLine
 10
541.4356581651294
 20
585.0814711308552
 30
0.0
 11
587.6442963840311
 21
614.4695149158027
 31
0.0
  0
LINE
  5
2EA
330
2
100
AcDbEntity
  8
0
 62
   250
370
   100
100
AcDbLine
 10
950.2989489221251
 20
845.5916548606225
 30
0.0
 11
1012.039857522575
 21
845.5916548606225
 31
0.0
  0
LINE
  5
2EB
330
2
100
AcDbEntity
  8
TOPOVERLAY
  6
Continuous
 62
     3
370
   100
100
AcDbLine
 10
969.3382320053286
 20
803.5084767944718
 30
0.0
 11
1011.712316518024
 21
830.4615642773709
 31
0.0
  0
LINE
  5
2ED
330
2
100
AcDbEntity
  8
0
 62
    56
100
AcDbLine
 10
487.2596160318638
 20
616.2796927904357
 30
0.0
 11
511.5368865155466
 21
640.4371014782914
 31
0.0
  0
LINE
  5
2EE
330
2
100
AcDbEntity
  8
0
 62
    56
100
AcDbLine
 10
487.2596160318638
 20
640.4371014782914
 30
0.0
 11
511.5368865155466
 21
616.2796927904357
 31
0.0
  0
LINE
  5
2EF
330
2
100
AcDbEntity
  8
0
 62
    56
100
AcDbLine
 10
646.6388714719157
 20
640.4799224132188
 30
0.0
 11
670.9161419555982
 21
616.3225137253627
 31
0.0
  0
LINE
  5
2F0
330
2
100
AcDbEntity
  8
0
 62
    56
100
AcDbLine
 10
646.6388714719157
 20
616.3225137253627
 30
0.0
 11
670.9161419555982
 21
640.4799224132188
 31
0.0
  0
LINE
  5
34E
330
2
100
AcDbEntity
  8
TOPOVERLAY
  6
Continuous
 62
   250
370
   100
100
AcDbLine
 10
402.8918988683551
 20
615.0891707921307
 30
0.0
 11
402.8918988683551
 21
581.2038389636446
 31
0.0
  0
LINE
  5
34F
330
2
100
AcDbEntity
  8
0
 62
   250
370
   100
100
AcDbLine
 10
369.3976333107765
 20
628.4012180692907
 30
0.0
 11
389.5796502072763
 21
628.4012180692907
 31
0.0
  0
LINE
  5
350
330
2
100
AcDbEntity
  8
0
 62
     1
370
   100
100
AcDbLine
 10
355.6943183798837
 20
628.4012180692907
 30
0.0
 11
450.0890765920352
 21
628.4012180692907
 31
0.0
  0
LINE
  5
353
330
2
100
AcDbEntity
  8
TOPOVERLAY
  6
Continuous
 62
   250
370
   100
100
AcDbLine
 10
402.8918988683551
 20
641.7132653464506
 30
0.0
 11
402.8918988683551
 21
675.5985971749367
 31
0.0
  0
LINE
  5
3A7
330
2
100
AcDbEntity
  8
0
 62
    56
100
AcDbLine
 10
314.6906252757422
 20
628.4012180692907
 30
0.0
 11
294.9734384654401
 21
628.4005129031984
 31
0.0
  0
MTEXT
  5
41F
330
2
100
AcDbEntity
  8
0
100
AcDbMText
 10
178.1088203111944
 20
165.4714462935649
 30
0.0
 40
30.0
 41
3011.936264869754
 71
     1
 72
     5
  1
ORT400
 11
0.0000000000000001
 21
1.0
 31
0.0
 73
     1
 44
1.0
1001
ACAD
1000
MTEXTBEGIN
1070
    73
1070
     1
1070
    44
1040
1.0
1070
    74
1070
     0
1000
MTEXTEND
  0
LINE
  5
4D4
330
2
100
AcDbEntity
  8
0
 62
   250
370
    30
100
AcDbLine
 10
1234.582624533102
 20
768.3583395069299
 30
0.0
 11
1246.775122296003
 21
751.7393551633626
 31
0.0
  0
LINE
  5
4D5
330
2
100
AcDbEntity
  8
0
 62
   250
370
    30
100
AcDbLine
 10
1234.582624533102
 20
768.3583395069299
 30
0.0
 11
1222.017335939378
 21
784.697285766298
 31
0.0
  0
LINE
  5
4D6
330
2
100
AcDbEntity
  8
0
 62
   250
370
    30
100
AcDbLine
 10
1221.080002877503
 20
752.7850659032252
 30
0.0
 11
1248.085242103188
 21
783.9316166529283
 31
0.0
  0
LINE
  5
4D7
330
2
100
AcDbEntity
  8
0
 62
   250
370
    30
100
AcDbLine
 10
1124.182995841076
 20
563.0198756205922
 30
0.0
 11
1151.188235066761
 21
594.1664263702953
 31
0.0
  0
LINE
  5
4D8
330
2
100
AcDbEntity
  8
0
 62
   250
370
    30
100
AcDbLine
 10
1137.685617496675
 20
578.593149224297
 30
0.0
 11
1125.12032890295
 21
594.9320954836649
 31
0.0
  0
LINE
  5
4D9
330
2
100
AcDbEntity
  8
0
 62
   250
370
    30
100
AcDbLine
 10
1137.685617496675
 20
578.593149224297
 30
0.0
 11
1149.878115259576
 21
561.9741648807295
 31
0.0
  0
LINE
  5
4DA
330
2
100
AcDbEntity
  8
0
 62
   250
370
    30
100
AcDbLine
 10
1221.017561394918
 20
436.1770210673407
 30
0.0
 11
1248.022800620603
 21
467.3235718170438
 31
0.0
  0
LINE
  5
4DB
330
2
100
AcDbEntity
  8
0
 62
   250
370
    30
100
AcDbLine
 10
1234.520183050517
 20
451.7502946710455
 30
0.0
 11
1221.954894456793
 21
468.0892409304131
 31
0.0
  0
LINE
  5
4DC
330
2
100
AcDbEntity
  8
0
 62
   250
370
    30
100
AcDbLine
 10
1234.520183050517
 20
451.7502946710455
 30
0.0
 11
1246.712680813418
 21
435.131310327478
 31
0.0
  0
LINE
  5
4DD
330
2
100
AcDbEntity
  8
0
 62
   250
370
    30
100
AcDbLine
 10
1221.017561394918
 20
379.5115908095326
 30
0.0
 11
1248.022800620603
 21
410.6581415592358
 31
0.0
  0
LINE
  5
4DE
330
2
100
AcDbEntity
  8
0
 62
   250
370
    30
100
AcDbLine
 10
1234.520183050517
 20
395.0848644132374
 30
0.0
 11
1221.954894456793
 21
411.4238106726054
 31
0.0
  0
LINE
  5
4DF
330
2
100
AcDbEntity
  8
0
 62
   250
370
    30
100
AcDbLine
 10
1234.520183050517
 20
395.0848644132374
 30
0.0
 11
1246.712680813418
 21
378.4658800696699
 31
0.0
  0
LINE
  5
4E0
330
2
100
AcDbEntity
  8
0
 62
   250
370
    30
100
AcDbLine
 10
1221.080002877503
 20
320.103816059162
 30
0.0
 11
1248.085242103188
 21
351.2503668088652
 31
0.0
  0
LINE
  5
4E1
330
2
100
AcDbEntity
  8
0
 62
   250
370
    30
100
AcDbLine
 10
1234.582624533102
 20
335.6770896628668
 30
0.0
 11
1222.017335939378
 21
352.0160359222348
 31
0.0
  0
LINE
  5
4E2
330
2
100
AcDbEntity
  8
0
 62
   250
370
    30
100
AcDbLine
 10
1234.582624533102
 20
335.6770896628668
 30
0.0
 11
1246.775122296003
 21
319.0581053192993
 31
0.0
  0
LINE
  5
4E3
330
2
100
AcDbEntity
  8
0
 62
   250
370
    30
100
AcDbLine
 10
989.9526532609682
 20
435.4398263182958
 30
0.0
 11
1016.957892486653
 21
466.5863770679991
 31
0.0
  0
LINE
  5
4E4
330
2
100
AcDbEntity
  8
0
 62
   250
370
    30
100
AcDbLine
 10
1003.455274916567
 20
451.0130999220006
 30
0.0
 11
990.8899863228434
 21
467.3520461813687
 31
0.0
  0
LINE
  5
4E5
330
2
100
AcDbEntity
  8
0
 62
   250
370
    30
100
AcDbLine
 10
1003.455274916567
 20
451.0130999220006
 30
0.0
 11
1015.647772679468
 21
434.3941155784332
 31
0.0
  0
LINE
  5
4E6
330
2
100
AcDbEntity
  8
0
 62
   250
370
    30
100
AcDbLine
 10
989.9526532609682
 20
378.7743960606472
 30
0.0
 11
1016.957892486653
 21
409.92094681035
 31
0.0
  0
LINE
  5
4E7
330
2
100
AcDbEntity
  8
0
 62
   250
370
    30
100
AcDbLine
 10
1003.455274916567
 20
394.3476696643519
 30
0.0
 11
990.8899863228434
 21
410.6866159237197
 31
0.0
  0
LINE
  5
4E8
330
2
100
AcDbEntity
  8
0
 62
   250
370
    30
100
AcDbLine
 10
1003.455274916567
 20
394.3476696643519
 30
0.0
 11
1015.647772679468
 21
377.7286853207844
 31
0.0
  0
LINE
  5
4E9
330
2
100
AcDbEntity
  8
0
 62
   250
370
    30
100
AcDbLine
 10
990.0150947435792
 20
319.3666213102447
 30
0.0
 11
1017.020333969264
 21
350.5131720599478
 31
0.0
  0
LINE
  5
4EA
330
2
100
AcDbEntity
  8
0
 62
   250
370
    30
100
AcDbLine
 10
1003.517716399178
 20
334.9398949139493
 30
0.0
 11
990.9524278054542
 21
351.2788411733175
 31
0.0
  0
LINE
  5
4EB
330
2
100
AcDbEntity
  8
0
 62
   250
370
    30
100
AcDbLine
 10
1003.517716399178
 20
334.9398949139493
 30
0.0
 11
1015.710214162079
 21
318.3209105703819
 31
0.0
  0
LINE
  5
5FE
330
2
100
AcDbEntity
  8
TOPOVERLAY
  6
Continuous
 62
   250
370
   100
100
AcDbLine
 10
732.0778698662016
 20
615.0891707921307
 30
0.0
 11
732.0778698662013
 21
581.2038389636446
 31
0.0
  0
LINE
  5
5FF
330
2
100
AcDbEntity
  8
0
 62
     1
370
   100
100
AcDbLine
 10
684.8802893777299
 20
628.4012180692907
 30
0.0
 11
779.2750475898814
 21
628.4012180692907
 31
0.0
  0
LINE
  5
600
330
2
100
AcDbEntity
  8
0
 62
     1
370
   100
100
AcDbLine
 10
698.5836043086227
 20
628.4012180692907
 30
0.0
 11
779.2750475898814
 21
628.4012180692907
 31
0.0
  0
LINE
  5
601
330
2
100
AcDbEntity
  8
TOPOVERLAY
  6
Continuous
 62
   250
370
   100
100
AcDbLine
 10
732.0778698662016
 20
641.7132653464506
 30
0.0
 11
732.0778698662013
 21
675.5985971749367
 31
0.0
  0
ARC
  5
690
330
2
100
AcDbEntity
  8
0
 62
   252
100
AcDbCircle
 10
617.8764404623666
 20
856.3992904409591
 30
0.0
 40
19.88045606348704
100
AcDbArc
 50
162.0486963503322
 51
20.11213206675568
  0
ARC
  5
6A3
330
2
100
AcDbEntity
  8
0
 62
   252
100
AcDbCircle
 10
618.2472219321501
 20
789.2460880659657
 30
0.0
 40
19.88045606348704
100
AcDbArc
 50
340.9682821417888
 51
199.0317178582113
  0
ARC
  5
6A4
330
2
100
AcDbEntity
  8
0
 62
   252
100
AcDbCircle
 10
677.4113550180925
 20
856.3992904409273
 30
0.0
 40
19.88045606348704
100
AcDbArc
 50
162.0486963503322
 51
20.11213206675568
  0
ARC
  5
6A5
330
2
100
AcDbEntity
  8
0
 62
   252
100
AcDbCircle
 10
677.7821364878757
 20
789.2460880659341
 30
0.0
 40
19.88045606348704
100
AcDbArc
 50
340.9682821417888
 51
199.0317178582113
  0
LINE
  5
732
330
2
100
AcDbEntity
  8
0
100
AcDbLine
 10
402.8918988683551
 20
641.7132653464506
 30
0.0
 11
796.7547580148093
 21
1006.376294042523
 31
0.0
  0
LINE
  5
733
330
2
100
AcDbEntity
  8
0
100
AcDbLine
 10
796.7547580148093
 20
1006.376294042523
 30
0.0
 11
730.2619258326576
 21
641.5664478599341
 31
0.0
  0
LINE
  5
735
330
2
100
AcDbEntity
  8
0
100
AcDbLine
 10
402.8918988683551
 20
641.7132653464506
 30
0.0
 11
412.7607365025697
 21
675.376152566429
 31
0.0
  0
LINE
  5
736
330
2
100
AcDbEntity
  8
0
100
AcDbLine
 10
402.8918988683551
 20
641.7132653464506
 30
0.0
 11
429.6338925840808
 21
653.434722982091
 31
0.0
  0
LINE
  5
737
330
2
100
AcDbEntity
  8
0
100
AcDbLine
 10
730.2619258326576
 20
641.5664478599341
 30
0.0
 11
744.4097503232342
 21
663.9168272941132
 31
0.0
  0
LINE
  5
738
330
2
100
AcDbEntity
  8
0
100
AcDbLine
 10
730.2619258326576
 20
641.5664478599341
 30
0.0
 11
721.977119042929
 21
665.7924138476554
 31
0.0
  0
LINE
  5
8FD
330
2
100
AcDbEntity
  8
6-家具-143
 62
   143
100
AcDbLine
 10
813.8414853872806
 20
951.2159514586318
 30
0.0
 11
811.4419509500573
 21
988.5101552571281
 31
0.0
  0
LINE
  5
8FE
330
2
100
AcDbEntity
  8
6-家具-143
 62
   143
100
AcDbLine
 10
840.5029791342403
 20
982.6496375173675
 30
0.0
 11
840.5029791342403
 21
951.7487257986209
 31
0.0
  0
LINE
  5
8FF
330
2
100
AcDbEntity
  8
6-家具-143
 62
   143
100
AcDbLine
 10
825.5725426359409
 20
977.8546684575612
 30
0.0
 11
821.3067036364304
 21
985.8462835572307
 31
0.0
  0
LINE
  5
900
330
2
100
AcDbEntity
  8
6-家具-143
 62
   143
100
AcDbLine
 10
805.3326098176611
 20
987.425328250031
 30
0.0
 11
804.4240141704054
 21
980.6815266983463
 31
0.0
  0
LINE
  5
901
330
2
100
AcDbEntity
  8
6-家具-143
 62
   143
100
AcDbLine
 10
807.8373866553842
 20
982.4340740800714
 30
0.0
 11
808.9775163199014
 21
977.1939580494183
 31
0.0
  0
LINE
  5
902
330
2
100
AcDbEntity
  8
6-家具-143
 62
   143
100
AcDbLine
 10
841.5852247249411
 20
981.9784118165372
 30
0.0
 11
834.7444467378622
 21
984.9402165295202
 31
0.0
  0
LINE
  5
903
330
2
100
AcDbEntity
  8
6-家具-143
 62
   143
100
AcDbLine
 10
845.0056137184688
 20
1004.989356125134
 30
0.0
 11
850.4782361081296
 21
975.1434778635035
 31
0.0
  0
LINE
  5
904
330
2
100
AcDbEntity
  8
6-家具-143
 62
   143
100
AcDbLine
 10
833.8376056975061
 20
910.4587144503014
 30
0.0
 11
837.0369849471336
 21
911.5242631302558
 31
0.0
  0
LINE
  5
905
330
2
100
AcDbEntity
  8
6-家具-143
 62
   143
100
AcDbLine
 10
837.0369849471336
 20
911.5242631302558
 30
0.0
 11
839.7031343218364
 21
909.9259401103129
 31
0.0
  0
LINE
  5
906
330
2
100
AcDbEntity
  8
6-家具-143
 62
   143
100
AcDbLine
 10
816.7742496994517
 20
908.8603914303584
 30
0.0
 11
817.3074795743877
 21
910.192327280307
 31
0.0
  0
LINE
  5
907
330
2
100
AcDbEntity
  8
6-家具-143
 62
   143
100
AcDbLine
 10
817.3074795743877
 20
910.192327280307
 30
0.0
 11
821.0400886989623
 21
907.794842750404
 31
0.0
  0
LINE
  5
908
330
2
100
AcDbEntity
  8
6-家具-143
 62
   143
100
AcDbLine
 10
821.0400886989623
 20
907.794842750404
 30
0.0
 11
821.5733185738983
 21
907.794842750404
 31
0.0
  0
LINE
  5
909
330
2
100
AcDbEntity
  8
6-家具-143
 62
   143
100
AcDbLine
 10
826.6390023858246
 20
950.1504027786774
 30
0.0
 11
825.5725426359409
 21
947.4865310787802
 31
0.0
  0
LINE
  5
90A
330
2
100
AcDbEntity
  8
6-家具-143
 62
   143
100
AcDbLine
 10
825.5725426359409
 20
947.4865310787802
 30
0.0
 11
826.1057725108885
 21
947.2201439088092
 31
0.0
  0
LINE
  5
90B
330
2
100
AcDbEntity
  8
6-家具-143
 62
   143
100
AcDbLine
 10
826.1057725108885
 20
947.2201439088092
 30
0.0
 11
823.9728530111333
 21
908.3276170903927
 31
0.0
  0
LINE
  5
90C
330
2
100
AcDbEntity
  8
6-家具-143
 62
   143
100
AcDbLine
 10
823.9728530111333
 20
908.3276170903927
 30
0.0
 11
822.9063932612497
 21
908.0612299203982
 31
0.0
  0
LINE
  5
90D
330
2
100
AcDbEntity
  8
6-家具-143
 62
   143
100
AcDbLine
 10
822.9063932612497
 20
908.0612299203982
 30
0.0
 11
825.0393127610051
 21
903.7990352005577
 31
0.0
  0
LINE
  5
90E
330
2
100
AcDbEntity
  8
6-家具-143
 62
   143
100
AcDbLine
 10
825.0393127610051
 20
903.7990352005577
 30
0.0
 11
825.0393127610051
 21
902.2007121806378
 31
0.0
  0
LINE
  5
90F
330
2
100
AcDbEntity
  8
6-家具-143
 62
   143
100
AcDbLine
 10
825.0393127610051
 20
902.2007121806378
 30
0.0
 11
817.3074795743877
 21
901.6679378406488
 31
0.0
  0
LINE
  5
910
330
2
100
AcDbEntity
  8
6-家具-143
 62
   143
100
AcDbLine
 10
817.3074795743877
 20
901.6679378406488
 30
0.0
 11
812.2417957624731
 21
901.9343250106436
 31
0.0
  0
LINE
  5
911
330
2
100
AcDbEntity
  8
6-家具-143
 62
   143
100
AcDbLine
 10
812.2417957624731
 20
901.9343250106436
 30
0.0
 11
809.0424165128339
 21
901.9343250106436
 31
0.0
  0
LINE
  5
912
330
2
100
AcDbEntity
  8
6-家具-143
 62
   143
100
AcDbLine
 10
809.0424165128339
 20
901.9343250106436
 30
0.0
 11
809.0424165128339
 21
904.3318095405465
 31
0.0
  0
LINE
  5
913
330
2
100
AcDbEntity
  8
6-家具-143
 62
   143
100
AcDbLine
 10
809.0424165128339
 20
904.3318095405465
 30
0.0
 11
815.1745600746322
 21
908.3276170903927
 31
0.0
  0
LINE
  5
914
330
2
100
AcDbEntity
  8
6-家具-143
 62
   143
100
AcDbLine
 10
815.1745600746322
 20
908.3276170903927
 30
0.0
 11
813.8414853872806
 21
947.4865310787802
 31
0.0
  0
LINE
  5
915
330
2
100
AcDbEntity
  8
6-家具-143
 62
   143
100
AcDbLine
 10
813.8414853872806
 20
947.4865310787802
 30
0.0
 11
814.3747152622283
 21
949.8840156086833
 31
0.0
  0
LINE
  5
916
330
2
100
AcDbEntity
  8
6-家具-143
 62
   143
100
AcDbLine
 10
814.3747152622283
 20
949.8840156086833
 30
0.0
 11
813.8414853872806
 21
951.2159514586318
 31
0.0
  0
LINE
  5
917
330
2
100
AcDbEntity
  8
6-家具-143
 62
   143
100
AcDbLine
 10
840.5029791342403
 20
951.7487257986209
 30
0.0
 11
841.302823946656
 21
948.8184669287287
 31
0.0
  0
LINE
  5
918
330
2
100
AcDbEntity
  8
6-家具-143
 62
   143
100
AcDbLine
 10
841.302823946656
 20
948.8184669287287
 30
0.0
 11
840.7695940717085
 21
909.3931657703471
 31
0.0
  0
LINE
  5
919
330
2
100
AcDbEntity
  8
6-家具-143
 62
   143
100
AcDbLine
 10
840.7695940717085
 20
909.3931657703471
 30
0.0
 11
838.103444697017
 21
908.5940042603638
 31
0.0
  0
LINE
  5
91A
330
2
100
AcDbEntity
  8
6-家具-143
 62
   143
100
AcDbLine
 10
838.103444697017
 20
908.5940042603638
 30
0.0
 11
839.7031343218364
 21
905.397358220501
 31
0.0
  0
LINE
  5
91B
330
2
100
AcDbEntity
  8
6-家具-143
 62
   143
100
AcDbLine
 10
839.7031343218364
 20
905.397358220501
 30
0.0
 11
841.302823946656
 21
903.7990352005577
 31
0.0
  0
LINE
  5
91C
330
2
100
AcDbEntity
  8
6-家具-143
 62
   143
100
AcDbLine
 10
841.302823946656
 20
903.7990352005577
 30
0.0
 11
841.302823946656
 21
902.2007121806378
 31
0.0
  0
LINE
  5
91D
330
2
100
AcDbEntity
  8
6-家具-143
 62
   143
100
AcDbLine
 10
841.302823946656
 20
902.2007121806378
 30
0.0
 11
837.303599884613
 21
901.9343250106436
 31
0.0
  0
LINE
  5
91E
330
2
100
AcDbEntity
  8
6-家具-143
 62
   143
100
AcDbLine
 10
837.303599884613
 20
901.9343250106436
 30
0.0
 11
829.5717666979955
 21
901.6679378406488
 31
0.0
  0
LINE
  5
91F
330
2
100
AcDbEntity
  8
6-家具-143
 62
   143
100
AcDbLine
 10
829.5717666979955
 20
901.6679378406488
 30
0.0
 11
828.505306948112
 21
903.7990352005577
 31
0.0
  0
LINE
  5
920
330
2
100
AcDbEntity
  8
6-家具-143
 62
   143
100
AcDbLine
 10
828.505306948112
 20
903.7990352005577
 30
0.0
 11
829.5717666979955
 21
905.6637453904951
 31
0.0
  0
LINE
  5
921
330
2
100
AcDbEntity
  8
6-家具-143
 62
   143
100
AcDbLine
 10
829.5717666979955
 20
905.6637453904951
 30
0.0
 11
832.7711459476226
 21
908.5940042603638
 31
0.0
  0
LINE
  5
922
330
2
100
AcDbEntity
  8
6-家具-143
 62
   143
100
AcDbLine
 10
832.7711459476226
 20
908.5940042603638
 30
0.0
 11
831.7046861977511
 21
909.9259401103129
 31
0.0
  0
LINE
  5
923
330
2
100
AcDbEntity
  8
6-家具-143
 62
   143
100
AcDbLine
 10
831.7046861977511
 20
909.9259401103129
 30
0.0
 11
827.9720770731762
 21
948.0193054187687
 31
0.0
  0
LINE
  5
924
330
2
100
AcDbEntity
  8
6-家具-143
 62
   143
100
AcDbLine
 10
827.9720770731762
 20
948.0193054187687
 30
0.0
 11
827.1722322607606
 21
950.6831771186663
 31
0.0
  0
LINE
  5
925
330
2
100
AcDbEntity
  8
6-家具-143
 62
   143
100
AcDbLine
 10
827.1722322607606
 20
950.6831771186663
 30
0.0
 11
825.5725426359409
 21
977.8546684575612
 31
0.0
  0
LINE
  5
926
330
2
100
AcDbEntity
  8
6-家具-143
 62
   143
100
AcDbLine
 10
804.4240141704054
 20
980.6815266983463
 30
0.0
 11
805.202810439475
 21
980.4221497155838
 31
0.0
  0
LINE
  5
927
330
2
100
AcDbEntity
  8
6-家具-143
 62
   143
100
AcDbLine
 10
805.202810439475
 20
980.4221497155838
 30
0.0
 11
805.7220079521957
 21
978.995576310425
 31
0.0
  0
LINE
  5
928
330
2
100
AcDbEntity
  8
6-家具-143
 62
   143
100
AcDbLine
 10
805.7220079521957
 20
978.995576310425
 30
0.0
 11
806.6306035994511
 21
978.8658878190554
 31
0.0
  0
LINE
  5
929
330
2
100
AcDbEntity
  8
6-家具-143
 62
   143
100
AcDbLine
 10
806.6306035994511
 20
978.8658878190554
 30
0.0
 11
806.8902023558116
 21
977.8283798880053
 31
0.0
  0
LINE
  5
92A
330
2
100
AcDbEntity
  8
6-家具-143
 62
   143
100
AcDbLine
 10
806.8902023558116
 20
977.8283798880053
 30
0.0
 11
808.5775942721364
 21
977.3096259225038
 31
0.0
  0
LINE
  5
92B
330
2
100
AcDbEntity
  8
6-家具-143
 62
   143
100
AcDbLine
 10
808.9775163199014
 20
977.1939580494183
 30
0.0
 11
809.6615941186046
 21
974.2321533364123
 31
0.0
  0
LINE
  5
92C
330
2
100
AcDbEntity
  8
6-家具-143
 62
   143
100
AcDbLine
 10
809.6615941186046
 20
974.2321533364123
 30
0.0
 11
812.1698793805279
 21
975.1434778635035
 31
0.0
  0
LINE
  5
92D
330
2
100
AcDbEntity
  8
6-家具-143
 62
   143
100
AcDbLine
 10
849.5661323765137
 20
975.8269712587932
 30
0.0
 11
846.1457433829862
 21
978.1052825764863
 31
0.0
  0
LINE
  5
92E
330
2
100
AcDbEntity
  8
6-家具-143
 62
   143
100
AcDbLine
 10
846.1457433829862
 20
978.1052825764863
 30
0.0
 11
841.5852247249411
 21
981.9784118165372
 31
0.0
  0
LINE
  5
92F
330
2
100
AcDbEntity
  8
6-家具-143
 62
   143
100
AcDbLine
 10
850.4782361081296
 20
975.1434778635035
 30
0.0
 11
847.969950846206
 21
974.915646731725
 31
0.0
  0
LINE
  5
930
330
2
100
AcDbEntity
  8
6-家具-143
 62
   143
100
AcDbLine
 10
847.969950846206
 20
974.915646731725
 30
0.0
 11
843.8654840539633
 21
976.9661269176397
 31
0.0
  0
LINE
  5
931
330
2
100
AcDbEntity
  8
6-家具-143
 62
   143
100
AcDbLine
 10
843.8654840539633
 20
976.9661269176397
 30
0.0
 11
840.673120993325
 21
977.6496203129525
 31
0.0
  0
LINE
  5
932
330
2
100
AcDbEntity
  8
6-家具-143
 62
   143
100
AcDbLine
 10
823.1753468725207
 20
1071.31917715423
 30
-0.000000000000001
 11
823.6430923760131
 21
1071.786523065634
 31
0.0000000000000018
  0
LINE
  5
933
330
2
100
AcDbEntity
  8
6-家具-143
 62
   143
100
AcDbLine
 10
823.6430923760131
 20
1071.786523065634
 30
0.0000000000000018
 11
824.4850342822921
 21
1071.506115518777
 31
0.000000000000002
  0
LINE
  5
934
330
2
100
AcDbEntity
  8
6-家具-143
 62
   143
100
AcDbLine
 10
817.7494990320369
 20
1071.879992247919
 30
-0.0000000000000009
 11
818.310793636223
 21
1072.06693061249
 31
-0.0000000000000013
  0
LINE
  5
935
330
2
100
AcDbEntity
  8
6-家具-143
 62
   143
100
AcDbLine
 10
818.310793636223
 20
1072.06693061249
 30
-0.0000000000000013
 11
818.8720882404091
 21
1071.412646336492
 31
0.0000000000000007
  0
LINE
  5
936
330
2
100
AcDbEntity
  8
6-家具-143
 62
   143
100
AcDbLine
 10
815.8785175200744
 20
1073.00162234652
 30
0.0
 11
818.0301468361362
 21
1073.468968257948
 31
0.0
  0
LINE
  5
937
330
2
100
AcDbEntity
  8
6-家具-143
 62
   143
100
AcDbLine
 10
818.0301468361362
 20
1073.468968257948
 30
0.0
 11
820.1817761521862
 21
1072.627745617378
 31
0.0
  0
LINE
  5
938
330
2
100
AcDbEntity
  8
6-家具-143
 62
   143
100
AcDbLine
 10
816.5333607229596
 20
1072.160399794776
 30
0.0
 11
818.684990039021
 21
1072.253868977061
 31
0.0
  0
LINE
  5
939
330
2
100
AcDbEntity
  8
6-家具-143
 62
   143
100
AcDbLine
 10
818.684990039021
 20
1072.253868977061
 30
0.0
 11
820.18177565018
 21
1071.693053883348
 31
0.0
  0
LINE
  5
93A
330
2
100
AcDbEntity
  8
6-家具-143
 62
   143
100
AcDbLine
 10
820.18177565018
 20
1071.693053883348
 30
0.0
 11
819.8075792473931
 21
1071.132238789659
 31
0.0
  0
LINE
  5
93B
330
2
100
AcDbEntity
  8
6-家具-143
 62
   143
100
AcDbLine
 10
819.8075792473931
 20
1071.132238789659
 30
0.0
 11
818.7785391397151
 21
1071.225707971944
 31
0.0
  0
LINE
  5
93C
330
2
100
AcDbEntity
  8
6-家具-143
 62
   143
100
AcDbLine
 10
818.7785391397151
 20
1071.225707971944
 30
0.0
 11
817.0011062264517
 21
1071.693053883348
 31
0.0
  0
LINE
  5
93D
330
2
100
AcDbEntity
  8
6-家具-143
 62
   143
100
AcDbLine
 10
822.2398561080062
 20
1072.534276665269
 30
0.0
 11
823.4559941772563
 21
1073.468968195363
 31
0.0
  0
LINE
  5
93E
330
2
100
AcDbEntity
  8
6-家具-143
 62
   143
100
AcDbLine
 10
823.4559941772563
 20
1073.468968195363
 30
0.0
 11
826.3560162438038
 21
1073.188560910022
 31
0.0
  0
LINE
  5
93F
330
2
100
AcDbEntity
  8
6-家具-143
 62
   143
100
AcDbLine
 10
826.3560162438038
 20
1073.188560910022
 30
0.0
 11
826.8237621718512
 21
1072.440807425428
 31
0.0
  0
LINE
  5
940
330
2
100
AcDbEntity
  8
6-家具-143
 62
   143
100
AcDbLine
 10
825.9818198934622
 20
1072.253868977061
 30
0.0
 11
824.765681584385
 21
1072.347338159347
 31
0.0
  0
LINE
  5
941
330
2
100
AcDbEntity
  8
6-家具-143
 62
   143
100
AcDbLine
 10
824.765681584385
 20
1072.347338159347
 30
0.0
 11
823.1753468725207
 21
1072.160399794776
 31
0.0
  0
LINE
  5
942
330
2
100
AcDbEntity
  8
6-家具-143
 62
   143
100
AcDbLine
 10
823.1753468725207
 20
1072.160399794776
 30
0.0
 11
822.4269540669356
 21
1071.693053883348
 31
0.0
  0
LINE
  5
943
330
2
100
AcDbEntity
  8
6-家具-143
 62
   143
100
AcDbLine
 10
822.4269540669356
 20
1071.693053883348
 30
0.0
 11
822.8946995704275
 21
1071.132238789659
 31
0.0
  0
LINE
  5
944
330
2
100
AcDbEntity
  8
6-家具-143
 62
   143
100
AcDbLine
 10
822.8946995704275
 20
1071.132238789659
 30
0.0
 11
824.1108378795052
 21
1071.038769607373
 31
0.0
  0
LINE
  5
945
330
2
100
AcDbEntity
  8
6-家具-143
 62
   143
100
AcDbLine
 10
824.1108378795052
 20
1071.038769607373
 30
0.0
 11
825.9818198934622
 21
1071.693053883348
 31
0.0
  0
LINE
  5
946
330
2
100
AcDbEntity
  8
6-家具-143
 62
   143
100
AcDbLine
 10
818.591440938316
 20
1064.402457665197
 30
0.0
 11
820.18177565018
 21
1064.869803576625
 31
0.0
  0
LINE
  5
947
330
2
100
AcDbEntity
  8
6-家具-143
 62
   143
100
AcDbLine
 10
820.18177565018
 20
1064.869803576625
 30
0.0
 11
821.0237175564707
 21
1064.776334394339
 31
0.0
  0
LINE
  5
948
330
2
100
AcDbEntity
  8
6-家具-143
 62
   143
100
AcDbLine
 10
821.0237175564707
 20
1064.776334394339
 30
0.0
 11
822.9882486711217
 21
1064.495926847483
 31
0.0
  0
LINE
  5
949
330
2
100
AcDbEntity
  8
6-家具-143
 62
   143
100
AcDbLine
 10
819.2462846432075
 20
1067.019594769144
 30
0.0
 11
819.5269319453004
 21
1066.55224885774
 31
0.0
  0
LINE
  5
94A
330
2
100
AcDbEntity
  8
6-家具-143
 62
   143
100
AcDbLine
 10
819.5269319453004
 20
1066.55224885774
 30
0.0
 11
821.5850121606568
 21
1066.645718040025
 31
0.0
  0
LINE
  5
94B
330
2
100
AcDbEntity
  8
6-家具-143
 62
   143
100
AcDbLine
 10
821.5850121606568
 20
1066.645718040025
 30
0.0
 11
822.6140522683349
 21
1067.113063951453
 31
0.0
  0
LINE
  5
94C
330
2
100
AcDbEntity
  8
6-家具-143
 62
   143
100
AcDbLine
 10
831.9689623381322
 20
1072.90815325306
 30
0.0
 11
832.4367078416241
 21
1073.562437529035
 31
0.0
  0
LINE
  5
94D
330
2
100
AcDbEntity
  8
6-家具-143
 62
   143
100
AcDbLine
 10
832.4367078416241
 20
1073.562437529035
 30
0.0
 11
833.2786497479032
 21
1073.842845075891
 31
0.0
  0
LINE
  5
94E
330
2
100
AcDbEntity
  8
6-家具-143
 62
   143
100
AcDbLine
 10
833.2786497479032
 20
1073.842845075891
 30
0.0
 11
833.9334934527947
 21
1073.188560799893
 31
0.0
  0
LINE
  5
94F
330
2
100
AcDbEntity
  8
6-家具-143
 62
   143
100
AcDbLine
 10
833.9334934527947
 20
1073.188560799893
 30
0.0
 11
834.3076898555816
 21
1072.253868977061
 31
0.0
  0
LINE
  5
950
330
2
100
AcDbEntity
  8
6-家具-143
 62
   143
100
AcDbLine
 10
834.3076898555816
 20
1072.253868977061
 30
0.0
 11
834.0270425534882
 21
1070.477954513661
 31
0.0
  0
LINE
  5
951
330
2
100
AcDbEntity
  8
6-家具-143
 62
   143
100
AcDbLine
 10
834.0270425534882
 20
1070.477954513661
 30
0.0
 11
833.4657479493023
 21
1069.169385961687
 31
0.0
  0
LINE
  5
952
330
2
100
AcDbEntity
  8
6-家具-143
 62
   143
100
AcDbLine
 10
833.4657479493023
 20
1069.169385961687
 30
0.0
 11
832.4367078416241
 21
1068.047755774284
 31
0.0
  0
LINE
  5
953
330
2
100
AcDbEntity
  8
6-家具-143
 62
   143
100
AcDbLine
 10
832.4367078416241
 20
1068.047755774284
 30
0.0
 11
831.7818641367328
 21
1067.206533133715
 31
0.0
  0
LINE
  5
954
330
2
100
AcDbEntity
  8
6-家具-143
 62
   143
100
AcDbLine
 10
831.7818641367328
 20
1067.206533133715
 30
0.0
 11
831.2205695325468
 21
1066.926125586882
 31
0.0
  0
LINE
  5
955
330
2
100
AcDbEntity
  8
6-家具-143
 62
   143
100
AcDbLine
 10
831.2205695325468
 20
1066.926125586882
 30
0.0
 11
831.0334713311476
 21
1067.486940680571
 31
0.0
  0
LINE
  5
956
330
2
100
AcDbEntity
  8
6-家具-143
 62
   143
100
AcDbLine
 10
819.9011283480871
 20
1063.748173389222
 30
0.0
 11
821.5850121606568
 21
1063.654704206937
 31
0.0
  0
LINE
  5
957
330
2
100
AcDbEntity
  8
6-家具-143
 62
   143
100
AcDbLine
 10
818.310793636223
 20
1059.542060186445
 30
0.0
 11
818.2172445355289
 21
1059.261652639589
 31
0.0
  0
LINE
  5
958
330
2
100
AcDbEntity
  8
6-家具-143
 62
   143
100
AcDbLine
 10
818.2172445355289
 20
1059.261652639589
 30
0.0
 11
820.3688738515793
 21
1058.981245092733
 31
0.0
  0
LINE
  5
959
330
2
100
AcDbEntity
  8
6-家具-143
 62
   143
100
AcDbLine
 10
831.2205695325468
 20
1060.102875280135
 30
0.0
 11
831.5947659353453
 21
1059.542060186445
 31
0.0
  0
LINE
  5
95A
330
2
100
AcDbEntity
  8
6-家具-143
 62
   143
100
AcDbLine
 10
831.5947659353453
 20
1059.542060186445
 30
0.0
 11
828.5076456123109
 21
1059.074714275018
 31
0.0
  0
LINE
  5
95B
330
2
100
AcDbEntity
  8
6-家具-143
 62
   143
100
AcDbLine
 10
828.5076456123109
 20
1059.074714275018
 30
0.0
 11
824.9527797857842
 21
1059.074714275018
 31
0.0
  0
LINE
  5
95C
330
2
100
AcDbEntity
  8
6-家具-143
 62
   143
100
AcDbLine
 10
820.2753247508855
 20
1057.392268993903
 30
0.0
 11
821.6785612613504
 21
1054.307785978528
 31
0.0
  0
LINE
  5
95D
330
2
100
AcDbEntity
  8
6-家具-143
 62
   143
100
AcDbLine
 10
821.6785612613504
 20
1054.307785978528
 30
0.0
 11
822.3334049662419
 21
1053.746970884839
 31
0.0
  0
LINE
  5
95E
330
2
100
AcDbEntity
  8
6-家具-143
 62
   143
100
AcDbLine
 10
822.3334049662419
 20
1053.746970884839
 30
0.0
 11
824.0172887787998
 21
1054.401255160814
 31
0.0
  0
LINE
  5
95F
330
2
100
AcDbEntity
  8
6-家具-143
 62
   143
100
AcDbLine
 10
824.0172887787998
 20
1054.401255160814
 30
0.0
 11
825.1398779871832
 21
1057.111861447046
 31
0.0
  0
LINE
  5
960
330
2
100
AcDbEntity
  8
6-家具-143
 62
   143
100
AcDbLine
 10
818.9656373411144
 20
1059.915936915564
 30
0.0
 11
818.1236954348236
 21
1059.915936915564
 31
0.0
  0
LINE
  5
961
330
2
100
AcDbEntity
  8
6-家具-143
 62
   143
100
AcDbLine
 10
818.1236954348236
 20
1059.915936915564
 30
0.0
 11
817.4688517299442
 21
1059.44859100416
 31
0.0
  0
LINE
  5
962
330
2
100
AcDbEntity
  8
6-家具-143
 62
   143
100
AcDbLine
 10
817.4688517299442
 20
1059.44859100416
 30
0.0
 11
816.0656152194672
 21
1053.560032520268
 31
0.0
  0
LINE
  5
963
330
2
100
AcDbEntity
  8
6-家具-143
 62
   143
100
AcDbLine
 10
816.0656152194672
 20
1053.560032520268
 30
0.0
 11
819.7140301466996
 21
1057.392268993903
 31
0.0
  0
LINE
  5
964
330
2
100
AcDbEntity
  8
6-家具-143
 62
   143
100
AcDbLine
 10
819.7140301466996
 20
1057.392268993903
 30
0.0
 11
821.3043648585637
 21
1058.887775910447
 31
0.0
  0
LINE
  5
965
330
2
100
AcDbEntity
  8
6-家具-143
 62
   143
100
AcDbLine
 10
821.3043648585637
 20
1058.887775910447
 30
0.0
 11
824.4850342822921
 21
1058.794306728162
 31
0.0
  0
LINE
  5
966
330
2
100
AcDbEntity
  8
6-家具-143
 62
   143
100
AcDbLine
 10
824.4850342822921
 20
1058.794306728162
 30
0.0
 11
828.414096511605
 21
1052.905748244269
 31
0.0
  0
LINE
  5
967
330
2
100
AcDbEntity
  8
6-家具-143
 62
   143
100
AcDbLine
 10
828.414096511605
 20
1052.905748244269
 30
0.0
 11
831.5947659353453
 21
1054.962070254527
 31
0.0
  0
LINE
  5
968
330
2
100
AcDbEntity
  8
6-家具-143
 62
   143
100
AcDbLine
 10
831.5947659353453
 20
1054.962070254527
 30
0.0
 11
833.4657479493023
 21
1056.177169624215
 31
0.0
  0
LINE
  5
969
330
2
100
AcDbEntity
  8
6-家具-143
 62
   143
100
AcDbLine
 10
833.4657479493023
 20
1056.177169624215
 30
0.0
 11
832.9044533451165
 21
1058.046553269901
 31
0.0
  0
LINE
  5
96A
330
2
100
AcDbEntity
  8
6-家具-143
 62
   143
100
AcDbLine
 10
832.9044533451165
 20
1058.046553269901
 30
0.0
 11
832.6238060430236
 21
1060.19634446242
 31
0.0
  0
LINE
  5
96B
330
2
100
AcDbEntity
  8
6-家具-143
 62
   143
100
AcDbLine
 10
832.6238060430236
 20
1060.19634446242
 30
0.0
 11
831.6883150360389
 21
1060.102875280135
 31
0.0
  0
LINE
  5
96C
330
2
100
AcDbEntity
  8
6-家具-143
 62
   143
100
AcDbLine
 10
832.8109042444109
 20
1068.234694138855
 30
0.0
 11
831.8754132374383
 21
1065.897964581742
 31
0.0
  0
LINE
  5
96D
330
2
100
AcDbEntity
  8
6-家具-143
 62
   143
100
AcDbLine
 10
831.8754132374383
 20
1065.897964581742
 30
0.0
 11
831.5012168346397
 21
1062.159197290392
 31
0.0
  0
LINE
  5
96E
330
2
100
AcDbEntity
  8
6-家具-143
 62
   143
100
AcDbLine
 10
831.5012168346397
 20
1062.159197290392
 30
0.0
 11
831.3141186332522
 21
1060.102875280135
 31
0.0
  0
LINE
  5
96F
330
2
100
AcDbEntity
  8
6-家具-143
 62
   143
100
AcDbLine
 10
816.1591643201731
 20
1080.105280288925
 30
0.0
 11
816.7204589243587
 21
1080.7595645649
 31
0.0
  0
LINE
  5
970
330
2
100
AcDbEntity
  8
6-家具-143
 62
   143
100
AcDbLine
 10
816.7204589243587
 20
1080.7595645649
 30
0.0
 11
820.649521153672
 21
1080.946502929471
 31
0.0
  0
LINE
  5
971
330
2
100
AcDbEntity
  8
6-家具-143
 62
   143
100
AcDbLine
 10
820.649521153672
 20
1080.946502929471
 30
0.0
 11
825.0463288864777
 21
1080.853033747186
 31
0.0
  0
LINE
  5
972
330
2
100
AcDbEntity
  8
6-家具-143
 62
   143
100
AcDbLine
 10
825.0463288864777
 20
1080.853033747186
 30
0.0
 11
827.1044091018342
 21
1080.479157018044
 31
0.0
  0
LINE
  5
973
330
2
100
AcDbEntity
  8
6-家具-143
 62
   143
100
AcDbLine
 10
827.1044091018342
 20
1080.479157018044
 30
0.0
 11
829.1624893171904
 21
1079.637934377498
 31
0.0
  0
LINE
  5
974
330
2
100
AcDbEntity
  8
6-家具-143
 62
   143
100
AcDbLine
 10
829.1624893171904
 20
1079.637934377498
 30
0.0
 11
830.1915294248686
 21
1077.58161236724
 31
0.0
  0
LINE
  5
975
330
2
100
AcDbEntity
  8
6-家具-143
 62
   143
100
AcDbLine
 10
830.1915294248686
 20
1077.58161236724
 30
0.0
 11
830.5657258276671
 21
1075.618759539269
 31
0.0
  0
LINE
  5
976
330
2
100
AcDbEntity
  8
6-家具-143
 62
   143
100
AcDbLine
 10
830.5657258276671
 20
1075.618759539269
 30
0.0
 11
831.5947659353453
 21
1074.684067716437
 31
0.0
  0
LINE
  5
977
330
2
100
AcDbEntity
  8
6-家具-143
 62
   143
100
AcDbLine
 10
831.5947659353453
 20
1074.684067716437
 30
0.0
 11
831.5947659353453
 21
1073.842845075891
 31
0.0
  0
LINE
  5
978
330
2
100
AcDbEntity
  8
6-家具-143
 62
   143
100
AcDbLine
 10
831.5947659353453
 20
1073.842845075891
 30
0.0
 11
831.9689623381322
 21
1073.65590671132
 31
0.0
  0
LINE
  5
979
330
2
100
AcDbEntity
  8
6-家具-143
 62
   143
100
AcDbLine
 10
819.9011283480871
 20
1059.355121821874
 30
0.0
 11
819.2462846432075
 21
1060.383282826991
 31
0.0
  0
LINE
  5
97A
330
2
100
AcDbEntity
  8
6-家具-143
 62
   143
100
AcDbLine
 10
819.2462846432075
 20
1060.383282826991
 30
0.0
 11
818.310793636223
 21
1060.570221191562
 31
0.0
  0
LINE
  5
97B
330
2
100
AcDbEntity
  8
6-家具-143
 62
   143
100
AcDbLine
 10
818.310793636223
 20
1060.570221191562
 30
0.0
 11
817.2817535285449
 21
1061.78532056125
 31
0.0
  0
LINE
  5
97C
330
2
100
AcDbEntity
  8
6-家具-143
 62
   143
100
AcDbLine
 10
817.2817535285449
 20
1061.78532056125
 30
0.0
 11
816.0656152194672
 21
1064.215519300626
 31
0.0
  0
LINE
  5
97D
330
2
100
AcDbEntity
  8
6-家具-143
 62
   143
100
AcDbLine
 10
816.0656152194672
 20
1064.215519300626
 30
0.0
 11
815.0365751117892
 21
1068.608570867974
 31
0.0
  0
LINE
  5
97E
330
2
100
AcDbEntity
  8
6-家具-143
 62
   143
100
AcDbLine
 10
815.0365751117892
 20
1068.608570867974
 30
0.0
 11
815.7849679173747
 21
1071.506115518777
 31
0.0
  0
LINE
  5
97F
330
2
100
AcDbEntity
  8
6-家具-143
 62
   143
100
AcDbLine
 10
815.7849679173747
 20
1071.506115518777
 30
0.0
 11
815.2236733131884
 21
1072.721214888489
 31
0.0
  0
LINE
  5
980
330
2
100
AcDbEntity
  8
6-家具-143
 62
   143
100
AcDbLine
 10
815.2236733131884
 20
1072.721214888489
 30
0.0
 11
815.2236733131884
 21
1075.525290357006
 31
0.0
  0
LINE
  5
981
330
2
100
AcDbEntity
  8
6-家具-143
 62
   143
100
AcDbLine
 10
815.2236733131884
 20
1075.525290357006
 30
0.0
 11
815.9720661187737
 21
1079.824872742069
 31
0.0
  0
LINE
  5
982
330
2
100
AcDbEntity
  8
6-家具-143
 62
   143
100
AcDbLine
 10
815.9720661187737
 20
1079.824872742069
 30
0.0
 11
815.7849679173747
 21
1081.974663934588
 31
0.0
  0
LINE
  5
983
330
2
100
AcDbEntity
  8
6-家具-143
 62
   143
100
AcDbLine
 10
815.7849679173747
 20
1081.974663934588
 30
0.0
 11
817.0946553271456
 21
1083.283232486562
 31
0.0
  0
LINE
  5
984
330
2
100
AcDbEntity
  8
6-家具-143
 62
   143
100
AcDbLine
 10
817.0946553271456
 20
1083.283232486562
 30
0.0
 11
822.0527576641488
 21
1084.124455127131
 31
0.0
  0
LINE
  5
985
330
2
100
AcDbEntity
  8
6-家具-143
 62
   143
100
AcDbLine
 10
822.0527576641488
 20
1084.124455127131
 30
0.0
 11
829.2560384178958
 21
1083.750578397989
 31
0.0
  0
LINE
  5
986
330
2
100
AcDbEntity
  8
6-家具-143
 62
   143
100
AcDbLine
 10
829.2560384178958
 20
1083.750578397989
 30
0.0
 11
832.0625114388258
 21
1083.002824939705
 31
0.0
  0
LINE
  5
987
330
2
100
AcDbEntity
  8
6-家具-143
 62
   143
100
AcDbLine
 10
832.0625114388258
 20
1083.002824939705
 30
0.0
 11
833.5592970499961
 21
1080.385687835758
 31
0.0
  0
LINE
  5
988
330
2
100
AcDbEntity
  8
6-家具-143
 62
   143
100
AcDbLine
 10
833.5592970499961
 20
1080.385687835758
 30
0.0
 11
834.3076898555816
 21
1077.58161236724
 31
0.0
  0
LINE
  5
989
330
2
100
AcDbEntity
  8
6-家具-143
 62
   143
100
AcDbLine
 10
834.3076898555816
 20
1077.58161236724
 30
0.0
 11
833.9334934527947
 21
1075.24488281015
 31
0.0
  0
LINE
  5
98A
330
2
100
AcDbEntity
  8
6-家具-143
 62
   143
100
AcDbLine
 10
833.9334934527947
 20
1075.24488281015
 30
0.0
 11
833.2786497479032
 21
1073.936314258177
 31
0.0
  0
LINE
  5
98B
330
2
100
AcDbEntity
  8
6-家具-143
 62
   143
100
AcDbLine
 10
831.3240577443345
 20
1024.58283345719
 30
0.0
 11
834.9724726707632
 21
1025.038495720724
 31
0.0
  0
LINE
  5
98C
330
2
100
AcDbEntity
  8
6-家具-143
 62
   143
100
AcDbLine
 10
834.9724726707632
 20
1025.038495720724
 30
0.0
 11
839.7610172617209
 21
1027.316807038418
 31
0.0
  0
LINE
  5
98D
330
2
100
AcDbEntity
  8
6-家具-143
 62
   143
100
AcDbLine
 10
839.7610172617209
 20
1027.316807038418
 30
0.0
 11
842.4973284565455
 21
1027.316807038418
 31
0.0
  0
LINE
  5
98E
330
2
100
AcDbEntity
  8
6-家具-143
 62
   143
100
AcDbLine
 10
842.4973284565455
 20
1027.316807038418
 30
0.0
 11
840.9011469262264
 21
1027.772469301952
 31
0.0
  0
LINE
  5
98F
330
2
100
AcDbEntity
  8
6-家具-143
 62
   143
100
AcDbLine
 10
840.9011469262264
 20
1027.772469301952
 30
0.0
 11
842.7253543894464
 21
1035.746558913832
 31
0.0
  0
LINE
  5
990
330
2
100
AcDbEntity
  8
6-家具-143
 62
   143
100
AcDbLine
 10
842.7253543894464
 20
1035.746558913832
 30
0.0
 11
840.217069127523
 21
1034.151740991451
 31
0.0
  0
LINE
  5
991
330
2
100
AcDbEntity
  8
6-家具-143
 62
   143
100
AcDbLine
 10
816.2743461727707
 20
1005.900680652202
 30
0.0
 11
819.922761099211
 21
1004.989356125134
 31
0.0
  0
LINE
  5
992
330
2
100
AcDbEntity
  8
6-家具-143
 62
   143
100
AcDbLine
 10
819.922761099211
 20
1004.989356125134
 30
0.0
 11
824.4832797572556
 21
1005.672849520447
 31
0.0
  0
LINE
  5
993
330
2
100
AcDbEntity
  8
6-家具-143
 62
   143
100
AcDbLine
 10
831.8116829661729
 20
1023.349040361947
 30
0.0
 11
830.9030873189289
 21
1023.478728853317
 31
0.0
  0
LINE
  5
994
330
2
100
AcDbEntity
  8
6-家具-143
 62
   143
100
AcDbLine
 10
830.9030873189289
 20
1023.478728853317
 30
0.0
 11
829.9944916716736
 21
1025.683433206763
 31
0.0
  0
LINE
  5
995
330
2
100
AcDbEntity
  8
6-家具-143
 62
   143
100
AcDbLine
 10
829.9944916716736
 20
1025.683433206763
 30
0.0
 11
828.6964978898833
 21
1027.110006611945
 31
0.0
  0
LINE
  5
996
330
2
100
AcDbEntity
  8
6-家具-143
 62
   143
100
AcDbLine
 10
828.6964978898833
 20
1027.110006611945
 30
0.0
 11
827.5283034862678
 21
1027.110006611945
 31
0.0
  0
LINE
  5
997
330
2
100
AcDbEntity
  8
6-家具-143
 62
   143
100
AcDbLine
 10
827.5283034862678
 20
1027.110006611945
 30
0.0
 11
825.7111121917684
 21
1027.499072086077
 31
0.0
  0
LINE
  5
998
330
2
100
AcDbEntity
  8
6-家具-143
 62
   143
100
AcDbLine
 10
825.7111121917684
 20
1027.499072086077
 30
0.0
 11
825.1919146790477
 21
1026.59125264642
 31
0.0
  0
LINE
  5
999
330
2
100
AcDbEntity
  8
6-家具-143
 62
   143
100
AcDbLine
 10
825.1919146790477
 20
1026.59125264642
 30
0.0
 11
825.5813128135825
 21
1025.553744715393
 31
0.0
  0
LINE
  5
99A
330
2
100
AcDbEntity
  8
6-家具-143
 62
   143
100
AcDbLine
 10
825.5813128135825
 20
1025.553744715393
 30
0.0
 11
827.0091059735587
 21
1024.905302258499
 31
0.0
  0
LINE
  5
99B
330
2
100
AcDbEntity
  8
6-家具-143
 62
   143
100
AcDbLine
 10
827.0091059735587
 20
1024.905302258499
 30
0.0
 11
827.9177016208022
 21
1023.738105836079
 31
0.0
  0
LINE
  5
99C
330
2
100
AcDbEntity
  8
6-家具-143
 62
   143
100
AcDbLine
 10
827.9177016208022
 20
1023.738105836079
 30
0.0
 11
826.3601090826636
 21
1022.052155448158
 31
0.0
  0
LINE
  5
99D
330
2
100
AcDbEntity
  8
6-家具-143
 62
   143
100
AcDbLine
 10
826.3601090826636
 20
1022.052155448158
 30
0.0
 11
823.115124628188
 21
1020.106828077474
 31
0.0
  0
LINE
  5
99E
330
2
100
AcDbEntity
  8
6-家具-143
 62
   143
100
AcDbLine
 10
823.115124628188
 20
1020.106828077474
 30
0.0
 11
822.8555258718278
 21
1018.680254672316
 31
0.0
  0
LINE
  5
99F
330
2
100
AcDbEntity
  8
6-家具-143
 62
   143
100
AcDbLine
 10
822.8555258718278
 20
1018.680254672316
 30
0.0
 11
824.153519653618
 21
1018.420877689553
 31
0.0
  0
LINE
  5
9A0
330
2
100
AcDbEntity
  8
6-家具-143
 62
   143
100
AcDbLine
 10
824.153519653618
 20
1018.420877689553
 30
0.0
 11
822.2065289809329
 21
1016.475550318869
 31
0.0
  0
LINE
  5
9A1
330
2
100
AcDbEntity
  8
6-家具-143
 62
   143
100
AcDbLine
 10
822.2065289809329
 20
1016.475550318869
 30
0.0
 11
822.3363283591069
 21
1015.697419370605
 31
0.0
  0
LINE
  5
9A2
330
2
100
AcDbEntity
  8
6-家具-143
 62
   143
100
AcDbLine
 10
822.3363283591069
 20
1015.697419370605
 30
0.0
 11
822.9853252500021
 21
1015.17866540508
 31
0.0
  0
LINE
  5
9A3
330
2
100
AcDbEntity
  8
6-家具-143
 62
   143
100
AcDbLine
 10
822.9853252500021
 20
1015.17866540508
 30
0.0
 11
822.3363283591069
 21
1014.141157474054
 31
0.0
  0
LINE
  5
9A4
330
2
100
AcDbEntity
  8
6-家具-143
 62
   143
100
AcDbLine
 10
822.3363283591069
 20
1014.141157474054
 30
0.0
 11
823.115124628188
 21
1013.36302652579
 31
0.0
  0
LINE
  5
9A5
330
2
100
AcDbEntity
  8
6-家具-143
 62
   143
100
AcDbLine
 10
823.115124628188
 20
1013.36302652579
 30
0.0
 11
822.8555258718278
 21
1011.936453120631
 31
0.0
  0
LINE
  5
9A6
330
2
100
AcDbEntity
  8
6-家具-143
 62
   143
100
AcDbLine
 10
822.8555258718278
 20
1011.936453120631
 30
0.0
 11
823.5045227627228
 21
1011.028633680974
 31
0.0
  0
LINE
  5
9A7
330
2
100
AcDbEntity
  8
6-家具-143
 62
   143
100
AcDbLine
 10
823.5045227627228
 20
1011.028633680974
 30
0.0
 11
825.1919146790477
 21
1011.547387646475
 31
0.0
  0
LINE
  5
9A8
330
2
100
AcDbEntity
  8
6-家具-143
 62
   143
100
AcDbLine
 10
825.1919146790477
 20
1011.547387646475
 30
0.0
 11
828.0475009989883
 21
1013.881780491315
 31
0.0
  0
LINE
  5
9A9
330
2
100
AcDbEntity
  8
6-家具-143
 62
   143
100
AcDbLine
 10
828.0475009989883
 20
1013.881780491315
 30
0.0
 11
829.7348929153132
 21
1016.475550318869
 31
0.0
  0
LINE
  5
9AA
330
2
100
AcDbEntity
  8
6-家具-143
 62
   143
100
AcDbLine
 10
829.7348929153132
 20
1016.475550318869
 30
0.0
 11
831.8116829661729
 21
1017.902123724051
 31
0.0
  0
LINE
  5
9AB
330
2
100
AcDbEntity
  8
6-家具-143
 62
   143
100
AcDbLine
 10
831.8116829661729
 20
1017.902123724051
 30
0.0
 11
833.8884730170441
 21
1017.383369758526
 31
0.0
  0
LINE
  5
9AC
330
2
100
AcDbEntity
  8
6-家具-143
 62
   143
100
AcDbLine
 10
832.4641874088401
 20
1015.925250449997
 30
0.0
 11
834.5164208049613
 21
1017.064406108844
 31
0.0
  0
LINE
  5
9AD
330
2
100
AcDbEntity
  8
6-家具-143
 62
   143
100
AcDbLine
 10
834.5164208049613
 20
1017.064406108844
 30
0.0
 11
835.4285245365771
 21
1020.254041953605
 31
0.0
  0
LINE
  5
9AE
330
2
100
AcDbEntity
  8
6-家具-143
 62
   143
100
AcDbLine
 10
835.4285245365771
 20
1020.254041953605
 30
0.0
 11
834.7444467378622
 21
1023.215846666588
 31
0.0
  0
LINE
  5
9AF
330
2
100
AcDbEntity
  8
6-家具-143
 62
   143
100
AcDbLine
 10
834.7444467378622
 20
1023.215846666588
 30
0.0
 11
832.692213341741
 21
1024.355002325435
 31
0.0
  0
LINE
  5
9B0
330
2
100
AcDbEntity
  8
6-家具-143
 62
   143
100
AcDbLine
 10
832.692213341741
 20
1024.355002325435
 30
0.0
 11
831.3240577443345
 21
1024.58283345719
 31
0.0
  0
LINE
  5
9B1
330
2
100
AcDbEntity
  8
6-家具-143
 62
   143
100
AcDbLine
 10
823.6806126024998
 20
1053.449776995705
 30
0.0
 11
822.9090514304655
 21
1044.584407666988
 31
0.0
  0
LINE
  5
9B2
330
2
100
AcDbEntity
  8
6-家具-143
 62
   143
100
AcDbLine
 10
822.9090514304655
 20
1044.584407666988
 30
0.0
 11
823.4877223094885
 21
1032.828156771871
 31
0.0
  0
LINE
  5
9B3
330
2
100
AcDbEntity
  8
6-家具-143
 62
   143
100
AcDbLine
 10
823.4877223094885
 20
1032.828156771871
 30
0.0
 11
823.6806126024998
 21
1027.624570325401
 31
0.0
  0
LINE
  5
9B4
330
2
100
AcDbEntity
  8
6-家具-143
 62
   143
100
AcDbLine
 10
823.6806126024998
 20
1027.624570325401
 30
0.0
 11
824.8379536391778
 21
1022.228258783079
 31
0.0
  0
LINE
  5
9B5
330
2
100
AcDbEntity
  8
6-家具-143
 62
   143
100
AcDbLine
 10
837.024706066885
 20
1054.656542850599
 30
0.0
 11
836.3406282681816
 21
1050.783413610548
 31
0.0
  0
LINE
  5
9B6
330
2
100
AcDbEntity
  8
6-家具-143
 62
   143
100
AcDbLine
 10
836.3406282681816
 20
1050.783413610548
 30
0.0
 11
833.376291140456
 21
1049.188595688168
 31
0.0
  0
LINE
  5
9B7
330
2
100
AcDbEntity
  8
6-家具-143
 62
   143
100
AcDbLine
 10
833.376291140456
 20
1049.188595688168
 30
0.0
 11
836.1126023352801
 21
1048.049440029321
 31
0.0
  0
LINE
  5
9B8
330
2
100
AcDbEntity
  8
6-家具-143
 62
   143
100
AcDbLine
 10
836.1126023352801
 20
1048.049440029321
 30
0.0
 11
833.376291140456
 21
1044.631973052804
 31
0.0
  0
LINE
  5
9B9
330
2
100
AcDbEntity
  8
6-家具-143
 62
   143
100
AcDbLine
 10
833.376291140456
 20
1044.631973052804
 30
0.0
 11
831.5520836772357
 21
1037.341376836213
 31
0.0
  0
LINE
  5
9BA
330
2
100
AcDbEntity
  8
6-家具-143
 62
   143
100
AcDbLine
 10
831.5520836772357
 20
1037.341376836213
 30
0.0
 11
829.9559021469164
 21
1027.544638170173
 31
0.0
  0
LINE
  5
9BB
330
2
100
AcDbEntity
  8
6-家具-143
 62
   143
100
AcDbLine
 10
833.1482652075433
 20
1056.479191904759
 30
0.0
 11
829.2718243482131
 21
1048.505102292855
 31
0.0
  0
LINE
  5
9BC
330
2
100
AcDbEntity
  8
6-家具-143
 62
   143
100
AcDbLine
 10
829.2718243482131
 20
1048.505102292855
 30
0.0
 11
826.3074872204761
 21
1041.670168339821
 31
0.0
  0
LINE
  5
9BD
330
2
100
AcDbEntity
  8
6-家具-143
 62
   143
100
AcDbLine
 10
826.3074872204761
 20
1041.670168339821
 30
0.0
 11
825.6234094217729
 21
1032.784754200849
 31
0.0
  0
LINE
  5
9BE
330
2
100
AcDbEntity
  8
6-家具-143
 62
   143
100
AcDbLine
 10
825.6234094217729
 20
1032.784754200849
 30
0.0
 11
825.3953834888717
 21
1028.00030043373
 31
0.0
  0
LINE
  5
9BF
330
2
100
AcDbEntity
  8
6-家具-143
 62
   143
100
AcDbLine
 10
816.0463202398696
 20
1056.707023036514
 30
0.0
 11
813.7660609108472
 21
1053.973049455286
 31
0.0
  0
LINE
  5
9C0
330
2
100
AcDbEntity
  8
6-家具-143
 62
   143
100
AcDbLine
 10
813.7660609108472
 20
1053.973049455286
 30
0.0
 11
813.0819831121439
 21
1047.365946634008
 31
0.0
  0
LINE
  5
9C1
330
2
100
AcDbEntity
  8
6-家具-143
 62
   143
100
AcDbLine
 10
813.0819831121439
 20
1047.365946634008
 30
0.0
 11
813.5380349779461
 21
1036.202221177366
 31
0.0
  0
LINE
  5
9C2
330
2
100
AcDbEntity
  8
6-家具-143
 62
   143
100
AcDbLine
 10
813.5380349779461
 20
1036.202221177366
 30
0.0
 11
815.8182943069686
 21
1020.254041953605
 31
0.0
  0
LINE
  5
9C3
330
2
100
AcDbEntity
  8
6-家具-143
 62
   143
100
AcDbLine
 10
820.8348648308152
 20
1054.200880587065
 30
0.0
 11
818.0985536359909
 21
1045.315466448117
 31
0.0
  0
LINE
  5
9C4
330
2
100
AcDbEntity
  8
6-家具-143
 62
   143
100
AcDbLine
 10
818.0985536359909
 20
1045.315466448117
 30
0.0
 11
816.9584239714854
 21
1030.506442883179
 31
0.0
  0
LINE
  5
9C5
330
2
100
AcDbEntity
  8
6-家具-143
 62
   143
100
AcDbLine
 10
816.9584239714854
 20
1030.506442883179
 30
0.0
 11
816.2743461727707
 21
1017.520068372378
 31
0.0
  0
LINE
  5
9C6
330
2
100
AcDbEntity
  8
6-家具-143
 62
   143
100
AcDbLine
 10
816.2743461727707
 20
1017.520068372378
 30
0.0
 11
815.3622424411663
 21
1012.279952341702
 31
0.0
  0
LINE
  5
9C7
330
2
100
AcDbEntity
  8
6-家具-143
 62
   143
100
AcDbLine
 10
815.3622424411663
 20
1012.279952341702
 30
0.0
 11
820.3788129650131
 21
1007.039836311049
 31
0.0
  0
LINE
  5
9C8
330
2
100
AcDbEntity
  8
6-家具-143
 62
   143
100
AcDbLine
 10
820.3788129650131
 20
1007.039836311049
 30
0.0
 11
824.0272278914535
 21
1010.912965551099
 31
0.0
  0
LINE
  5
9C9
330
2
100
AcDbEntity
  8
6-家具-143
 62
   143
100
AcDbLine
 10
811.0297497160226
 20
1054.428711718844
 30
0.0
 11
808.0654125882855
 21
1051.011244742304
 31
0.0
  0
LINE
  5
9CA
330
2
100
AcDbEntity
  8
6-家具-143
 62
   143
100
AcDbLine
 10
808.0654125882855
 20
1051.011244742304
 30
0.0
 11
810.5736978502088
 21
1049.188595688168
 31
0.0
  0
LINE
  5
9CB
330
2
100
AcDbEntity
  8
6-家具-143
 62
   143
100
AcDbLine
 10
810.5736978502088
 20
1049.188595688168
 30
0.0
 11
807.381334789582
 21
1046.910284370474
 31
0.0
  0
LINE
  5
9CC
330
2
100
AcDbEntity
  8
6-家具-143
 62
   143
100
AcDbLine
 10
807.381334789582
 20
1046.910284370474
 30
0.0
 11
809.8896200515056
 21
1039.847519285662
 31
0.0
  0
LINE
  5
9CD
330
2
100
AcDbEntity
  8
6-家具-143
 62
   143
100
AcDbLine
 10
809.8896200515056
 20
1039.847519285662
 30
0.0
 11
813.3100090450451
 21
1027.316807038418
 31
0.0
  0
LINE
  5
9CE
330
2
100
AcDbEntity
  8
6-家具-143
 62
   143
100
AcDbLine
 10
813.3100090450451
 20
1027.316807038418
 30
0.0
 11
815.3622424411663
 21
1017.520068372378
 31
0.0
  0
LINE
  5
9CF
330
2
100
AcDbEntity
  8
6-家具-143
 62
   143
100
AcDbLine
 10
815.3622424411663
 20
1017.520068372378
 30
0.0
 11
815.8182943069686
 21
1015.241757054708
 31
0.0
  0
LINE
  5
9D0
330
2
100
AcDbEntity
  8
6-家具-143
 62
   143
100
AcDbLine
 10
816.9584239714854
 20
1057.846178695361
 30
0.0
 11
811.9418534476269
 21
1054.884373982378
 31
0.0
  0
LINE
  5
9D1
330
2
100
AcDbEntity
  8
6-家具-143
 62
   143
100
AcDbLine
 10
811.9418534476269
 20
1054.884373982378
 30
0.0
 11
807.1533088566811
 21
1052.833893796463
 31
0.0
  0
LINE
  5
9D2
330
2
100
AcDbEntity
  8
6-家具-143
 62
   143
100
AcDbLine
 10
807.1533088566811
 20
1052.833893796463
 30
0.0
 11
804.6450235947574
 21
1051.011244742304
 31
0.0
  0
LINE
  5
9D3
330
2
100
AcDbEntity
  8
6-家具-143
 62
   143
100
AcDbLine
 10
804.6450235947574
 20
1051.011244742304
 30
0.0
 11
802.5927901986362
 21
1048.049440029321
 31
0.0
  0
LINE
  5
9D4
330
2
100
AcDbEntity
  8
6-家具-143
 62
   143
100
AcDbLine
 10
802.5927901986362
 20
1048.049440029321
 30
0.0
 11
800.7685827354162
 21
1042.353661735111
 31
0.0
  0
LINE
  5
9D5
330
2
100
AcDbEntity
  8
6-家具-143
 62
   143
100
AcDbLine
 10
800.7685827354162
 20
1042.353661735111
 30
0.0
 11
801.9087123999215
 21
1031.417767410247
 31
0.0
  0
LINE
  5
9D6
330
2
100
AcDbEntity
  8
6-家具-143
 62
   143
100
AcDbLine
 10
801.9087123999215
 20
1031.417767410247
 30
0.0
 11
801.2246346012185
 21
1023.443677798343
 31
0.0
  0
LINE
  5
9D7
330
2
100
AcDbEntity
  8
6-家具-143
 62
   143
100
AcDbLine
 10
801.2246346012185
 20
1023.443677798343
 30
0.0
 11
801.4526605341194
 21
1020.937535348895
 31
0.0
  0
LINE
  5
9D8
330
2
100
AcDbEntity
  8
6-家具-143
 62
   143
100
AcDbLine
 10
801.4526605341194
 20
1020.937535348895
 30
0.0
 11
805.3291013934607
 21
998.8379155673891
 31
0.0
  0
LINE
  5
9D9
330
2
100
AcDbEntity
  8
6-家具-143
 62
   143
100
AcDbLine
 10
805.3291013934607
 20
998.8379155673891
 30
0.0
 11
806.2412051250653
 21
998.3822533038557
 31
0.0
  0
LINE
  5
9DA
330
2
100
AcDbEntity
  8
6-家具-143
 62
   143
100
AcDbLine
 10
806.2412051250653
 20
998.3822533038557
 30
0.0
 11
806.697256990879
 21
994.5091240637815
 31
0.0
  0
LINE
  5
9DB
330
2
100
AcDbEntity
  8
6-家具-143
 62
   143
100
AcDbLine
 10
806.697256990879
 20
994.5091240637815
 30
0.0
 11
807.381334789582
 21
994.5091240637815
 31
0.0
  0
LINE
  5
9DC
330
2
100
AcDbEntity
  8
6-家具-143
 62
   143
100
AcDbLine
 10
807.381334789582
 20
994.5091240637815
 30
0.0
 11
808.0654125882855
 21
994.5091240637815
 31
0.0
  0
LINE
  5
9DD
330
2
100
AcDbEntity
  8
6-家具-143
 62
   143
100
AcDbLine
 10
833.6043170733569
 20
1057.618347563582
 30
0.0
 11
837.7087838655997
 21
1055.340036245912
 31
0.0
  0
LINE
  5
9DE
330
2
100
AcDbEntity
  8
6-家具-143
 62
   143
100
AcDbLine
 10
837.7087838655997
 20
1055.340036245912
 30
0.0
 11
843.6374581210626
 21
1053.289556059997
 31
0.0
  0
LINE
  5
9DF
330
2
100
AcDbEntity
  8
6-家具-143
 62
   143
100
AcDbLine
 10
843.6374581210626
 20
1053.289556059997
 30
0.0
 11
848.4260027120082
 21
1051.694738137616
 31
0.0
  0
LINE
  5
9E0
330
2
100
AcDbEntity
  8
6-家具-143
 62
   143
100
AcDbLine
 10
848.4260027120082
 20
1051.694738137616
 30
0.0
 11
851.3903398397337
 21
1047.138115502253
 31
0.0
  0
LINE
  5
9E1
330
2
100
AcDbEntity
  8
6-家具-143
 62
   143
100
AcDbLine
 10
851.3903398397337
 20
1047.138115502253
 30
0.0
 11
852.7584954371517
 21
1036.6578834409
 31
0.0
  0
LINE
  5
9E2
330
2
100
AcDbEntity
  8
6-家具-143
 62
   143
100
AcDbLine
 10
852.7584954371517
 20
1036.6578834409
 30
0.0
 11
852.3024435713498
 21
1024.58283345719
 31
0.0
  0
LINE
  5
9E3
330
2
100
AcDbEntity
  8
6-家具-143
 62
   143
100
AcDbLine
 10
852.3024435713498
 20
1024.58283345719
 30
0.0
 11
849.3381064436126
 21
1019.798379690071
 31
0.0
  0
LINE
  5
9E4
330
2
100
AcDbEntity
  8
6-家具-143
 62
   143
100
AcDbLine
 10
849.3381064436126
 20
1019.798379690071
 30
0.0
 11
845.4616655842709
 21
1016.380912713531
 31
0.0
  0
LINE
  5
9E5
330
2
100
AcDbEntity
  8
6-家具-143
 62
   143
100
AcDbLine
 10
845.4616655842709
 20
1016.380912713531
 30
0.0
 11
842.4973284565455
 21
1014.102601395861
 31
0.0
  0
LINE
  5
9E6
330
2
100
AcDbEntity
  8
6-家具-143
 62
   143
100
AcDbLine
 10
842.4973284565455
 20
1014.102601395861
 30
0.0
 11
836.5686542010825
 21
1014.102601395861
 31
0.0
  0
LINE
  5
9E7
330
2
100
AcDbEntity
  8
6-家具-143
 62
   143
100
AcDbLine
 10
836.5686542010825
 20
1014.102601395861
 30
0.0
 11
833.1482652075433
 21
1014.330432527616
 31
0.0
  0
LINE
  5
9E8
330
2
100
AcDbEntity
  8
6-家具-143
 62
   143
100
AcDbLine
 10
833.1482652075433
 20
1014.330432527616
 30
0.0
 11
830.6399799456196
 21
1015.697419318242
 31
0.0
  0
LINE
  5
9E9
330
2
100
AcDbEntity
  8
6-家具-143
 62
   143
100
AcDbLine
 10
807.5391992467064
 20
994.169129801739
 30
0.0
 11
806.1114060867307
 21
990.9269175172664
 31
0.0
  0
LINE
  5
9EA
330
2
100
AcDbEntity
  8
6-家具-143
 62
   143
100
AcDbLine
 10
806.1114060867307
 20
990.9269175172664
 30
0.0
 11
805.3326098176611
 21
987.425328250031
 31
0.0
  0
LINE
  5
9EB
330
2
100
AcDbEntity
  8
6-家具-143
 62
   143
100
AcDbLine
 10
808.5214644540876
 20
985.8515410565884
 30
0.0
 11
807.6093607224835
 21
994.7369551955601
 31
0.0
  0
LINE
  5
9EC
330
2
100
AcDbEntity
  8
6-家具-143
 62
   143
100
AcDbLine
 10
807.6093607224835
 20
994.7369551955601
 30
0.0
 11
807.6093607224835
 21
1001.799720280372
 31
0.0
  0
LINE
  5
9ED
330
2
100
AcDbEntity
  8
6-家具-143
 62
   143
100
AcDbLine
 10
807.6093607224835
 20
1001.799720280372
 30
0.0
 11
806.92528292378
 21
1008.634654233429
 31
0.0
  0
LINE
  5
9EE
330
2
100
AcDbEntity
  8
6-家具-143
 62
   143
100
AcDbLine
 10
806.92528292378
 20
1008.634654233429
 30
0.0
 11
806.92528292378
 21
1014.330432527616
 31
0.0
  0
LINE
  5
9EF
330
2
100
AcDbEntity
  8
6-家具-143
 62
   143
100
AcDbLine
 10
806.92528292378
 20
1014.330432527616
 30
0.0
 11
806.92528292378
 21
1020.481873085361
 31
0.0
  0
LINE
  5
9F0
330
2
100
AcDbEntity
  8
6-家具-143
 62
   143
100
AcDbLine
 10
806.92528292378
 20
1020.481873085361
 30
0.0
 11
807.381334789582
 21
1030.962105146713
 31
0.0
  0
LINE
  5
9F1
330
2
100
AcDbEntity
  8
6-家具-143
 62
   143
100
AcDbLine
 10
807.381334789582
 20
1030.962105146713
 30
0.0
 11
805.1010754605599
 21
1037.797039099747
 31
0.0
  0
LINE
  5
9F2
330
2
100
AcDbEntity
  8
6-家具-143
 62
   143
100
AcDbLine
 10
816.9584239714854
 20
1010.457303287566
 30
0.0
 11
815.8182943069686
 21
1005.672849520447
 31
0.0
  0
LINE
  5
9F3
330
2
100
AcDbEntity
  8
6-家具-143
 62
   143
100
AcDbLine
 10
815.8182943069686
 20
1005.672849520447
 30
0.0
 11
814.9061905753642
 21
1002.255382543906
 31
0.0
  0
LINE
  5
9F4
330
2
100
AcDbEntity
  8
6-家具-143
 62
   143
100
AcDbLine
 10
814.9061905753642
 20
1002.255382543906
 30
0.0
 11
814.9061905753642
 21
995.8761108544067
 31
0.0
  0
LINE
  5
9F5
330
2
100
AcDbEntity
  8
6-家具-143
 62
   143
100
AcDbLine
 10
814.9061905753642
 20
995.8761108544067
 30
0.0
 11
812.6259312463302
 21
991.5473193507986
 31
0.0
  0
LINE
  5
9F6
330
2
100
AcDbEntity
  8
6-家具-143
 62
   143
100
AcDbLine
 10
812.6259312463302
 20
991.5473193507986
 30
0.0
 11
810.1176459844067
 21
988.8133457695943
 31
0.0
  0
LINE
  5
9F7
330
2
100
AcDbEntity
  8
6-家具-143
 62
   143
100
AcDbLine
 10
810.1176459844067
 20
988.8133457695943
 30
0.0
 11
808.2934385211865
 21
985.3958787930542
 31
0.0
  0
LINE
  5
9F8
330
2
100
AcDbEntity
  8
6-家具-143
 62
   143
100
AcDbLine
 10
808.2934385211865
 20
985.3958787930542
 30
0.0
 11
807.8373866553842
 21
982.4340740800714
 31
0.0
  0
LINE
  5
9F9
330
2
100
AcDbEntity
  8
6-家具-143
 62
   143
100
AcDbLine
 10
834.7444467378622
 20
984.9402165295202
 30
0.0
 11
829.2718243482131
 21
991.3194882190433
 31
0.0
  0
LINE
  5
9FA
330
2
100
AcDbEntity
  8
6-家具-143
 62
   143
100
AcDbLine
 10
829.2718243482131
 20
991.3194882190433
 30
0.0
 11
824.9393316230579
 21
997.9265910403217
 31
0.0
  0
LINE
  5
9FB
330
2
100
AcDbEntity
  8
6-家具-143
 62
   143
100
AcDbLine
 10
824.9393316230579
 20
997.9265910403217
 30
0.0
 11
824.7113056901568
 21
1004.078031598066
 31
0.0
  0
LINE
  5
9FC
330
2
100
AcDbEntity
  8
6-家具-143
 62
   143
100
AcDbLine
 10
824.7113056901568
 20
1004.078031598066
 30
0.0
 11
825.1673575559706
 21
1010.685134419344
 31
0.0
  0
LINE
  5
9FD
330
2
100
AcDbEntity
  8
6-家具-143
 62
   143
100
AcDbLine
 10
845.6896915171837
 20
1015.925250449997
 30
0.0
 11
845.4616655842709
 21
1012.963445737014
 31
0.0
  0
LINE
  5
9FE
330
2
100
AcDbEntity
  8
6-家具-143
 62
   143
100
AcDbLine
 10
845.4616655842709
 20
1012.963445737014
 30
0.0
 11
845.0056137184688
 21
1004.989356125134
 31
0.0
  0
VIEWPORT
  5
DA
102
{ACAD_XDICTIONARY
360
A1B
102
}
330
C
100
AcDbEntity
 67
     1
  8
0
100
AcDbViewport
 10
420.5071835950612
 20
297.0009369707932
 30
0.0
 40
848.880193293653
 41
633.6711302051212
 68
     1
 69
     1
 12
420.5071835950612
 22
297.0009369707932
 13
0.0
 23
0.0
 14
10.0
 24
10.0
 15
10.0
 25
10.0
 16
0.0
 26
0.0
 36
1.0
 17
0.0
 27
0.0
 37
0.0
 42
50.0
 43
0.0
 44
0.0
 45
633.6711302051212
 50
0.0
 51
0.0
 72
  1000
 90
    32864
  1

281
     0
 71
     1
 74
     0
110
0.0
120
0.0
130
0.0
111
1.0
121
0.0
131
0.0
112
0.0
122
1.0
132
0.0
 79
     0
146
0.0
  0
ENDSEC
  0
SECTION
  2
OBJECTS
  0
DICTIONARY
  5
7
330
0
100
AcDbDictionary
281
     1
  3
ACAD_COLOR
350
DE
  3
ACAD_GROUP
350
20
  3
ACAD_LAYOUT
350
B
  3
ACAD_MATERIAL
350
DD
  3
ACAD_MLINESTYLE
350
21
  3
ACAD_PLOTSETTINGS
350
22
  3
ACAD_PLOTSTYLENAME
350
6
  3
ACDBHEADERROUNDTRIPXREC
350
A14
  3
AcDbVariableDictionary
350
115
  0
DICTIONARY
  5
1A3
330
10
100
AcDbDictionary
280
     1
281
     1
  3
ACAD_LAYERSTATES
360
1A4
  0
DICTIONARY
  5
A1B
330
DA
100
AcDbDictionary
280
     1
281
     1
  3
ACAD_XREC_ROUNDTRIP
360
A1C
  0
DICTIONARY
  5
DE
102
{ACAD_REACTORS
330
7
102
}
330
7
100
AcDbDictionary
281
     1
  0
DICTIONARY
  5
20
102
{ACAD_REACTORS
330
7
102
}
330
7
100
AcDbDictionary
281
     1
  0
DICTIONARY
  5
B
102
{ACAD_REACTORS
330
7
102
}
330
7
100
AcDbDictionary
281
     1
  3
JIS A1 Title Block
350
F
  3
Model
350
A
  0
DICTIONARY
  5
DD
102
{ACAD_REACTORS
330
7
102
}
330
7
100
AcDbDictionary
281
     1
  0
DICTIONARY
  5
21
102
{ACAD_REACTORS
330
7
102
}
330
7
100
AcDbDictionary
281
     1
  3
Standard
350
23
  0
DICTIONARY
  5
22
102
{ACAD_REACTORS
330
7
102
}
330
7
100
AcDbDictionary
281
     1
  0
ACDBDICTIONARYWDFLT
  5
6
102
{ACAD_REACTORS
330
7
102
}
330
7
100
AcDbDictionary
281
     1
  3
Normal
350
5
100
AcDbDictionaryWithDefault
340
5
  0
DICTIONARY
  5
A14
102
{ACAD_REACTORS
330
7
102
}
330
7
100
AcDbDictionary
281
     1
  3
COLORDICT
350
A16
  3
MATERIALDICT
350
A15
  0
DICTIONARY
  5
115
102
{ACAD_REACTORS
330
7
102
}
330
7
100
AcDbDictionary
281
     1
  3
DIMASSOC
350
116
  3
PROJECTNAME
350
117
  0
DICTIONARY
  5
1A4
102
{ACAD_REACTORS
330
1A3
102
}
330
1A3
100
AcDbDictionary
281
     1
  0
XRECORD
  5
A1C
102
{ACAD_REACTORS
330
A1B
102
}
330
A1B
100
AcDbXrecord
280
     1
102
SHADEPLOT
 70
     0
  0
LAYOUT
  5
F
102
{ACAD_XDICTIONARY
360
A19
102
}
102
{ACAD_REACTORS
330
B
102
}
330
B
100
AcDbPlotSettings
  1

  2
none_device
  4
ISO_A1_(594.00_x_841.00_MM)
  6

 40
7.549999999999998
 41
20.05
 42
7.549999999999998
 43
20.05
 44
594.0
 45
841.0
 46
-7.559999999999997
 47
-20.07
 48
0.0
 49
0.0
140
0.0
141
0.0
142
1.0
143
1.0
 70
   692
 72
     1
 73
     1
 74
     1
  7

 75
    16
147
1.0
148
0.0128164049386896
149
0.0090630292066862
100
AcDbLayout
  1
JIS A1 Title Block
 70
     1
 71
     1
 10
0.0071835950613099
 20
0.0009369707933136
 11
841.0071835950612
 21
594.0009369707931
 12
0.0
 22
0.0
 32
0.0
 14
1.000000000000000E+20
 24
1.000000000000000E+20
 34
1.000000000000000E+20
 15
-1.000000000000000E+20
 25
-1.000000000000000E+20
 35
-1.000000000000000E+20
146
0.0
 13
0.0
 23
0.0
 33
0.0
 16
1.0
 26
0.0
 36
0.0
 17
0.0
 27
1.0
 37
0.0
 76
     0
330
C
331
DA
  0
LAYOUT
  5
A
102
{ACAD_XDICTIONARY
360
A17
102
}
102
{ACAD_REACTORS
330
B
102
}
330
B
100
AcDbPlotSettings
  1

  2
none_device
  4
ANSI_A_(8.50_x_11.00_Inches)
  6

 40
6.349999904632567
 41
19.04999923706055
 42
6.350006103515625
 43
19.04998779296875
 44
215.8999938964844
 45
279.3999938964844
 46
28.79458090408706
 47
17.57028564415653
 48
0.0
 49
0.0
140
0.0
141
0.0
142
1.0
143
103.6285708313174
 70
 11956
 72
     0
 73
     1
 74
     1
  7

 75
     0
147
0.0096498484151418
148
1.303736702137707
149
0.9208318680958655
100
AcDbLayout
  1
Model
 70
     1
 71
     0
 10
0.0
 20
0.0
 11
12.0
 21
9.0
 12
0.0
 22
0.0
 32
0.0
 14
0.0
 24
0.0
 34
0.0
 15
0.0
 25
0.0
 35
0.0
146
0.0
 13
0.0
 23
0.0
 33
0.0
 16
1.0
 26
0.0
 36
0.0
 17
0.0
 27
1.0
 37
0.0
 76
     0
330
2
  0
MLINESTYLE
  5
23
102
{ACAD_REACTORS
330
21
102
}
330
21
100
AcDbMlineStyle
  2
STANDARD
 70
     0
  3

 62
   256
 51
90.0
 52
90.0
 71
     2
 49
0.5
 62
   256
  6
BYLAYER
 49
-0.5
 62
   256
  6
BYLAYER
  0
ACDBPLACEHOLDER
  5
5
102
{ACAD_REACTORS
330
6
102
}
330
6
  0
XRECORD
  5
A16
102
{ACAD_REACTORS
330
A14
102
}
330
A14
100
AcDbXrecord
280
     1
340
DE
  0
XRECORD
  5
A15
102
{ACAD_REACTORS
330
A14
102
}
330
A14
100
AcDbXrecord
280
     1
340
DD
  0
DICTIONARYVAR
  5
116
102
{ACAD_REACTORS
330
115
102
}
330
115
100
DictionaryVariables
280
     0
  1
1
  0
DICTIONARYVAR
  5
117
102
{ACAD_REACTORS
330
115
102
}
330
115
100
DictionaryVariables
280
     0
  1

  0
DICTIONARY
  5
A19
330
F
100
AcDbDictionary
280
     1
281
     1
  3
ACAD_XREC_ROUNDTRIP
360
A1A
  0
DICTIONARY
  5
A17
330
A
100
AcDbDictionary
280
     1
281
     1
  3
ACAD_XREC_ROUNDTRIP
360
A18
  0
XRECORD
  5
A1A
102
{ACAD_REACTORS
330
A19
102
}
330
A19
100
AcDbXrecord
280
     1
102
SHADEPLOT
 70
     0
102
SHADEPLOTRESLEVEL
 70
     2
102
SHADEPLOTCUSTOMDPI
 70
   300
  0
XRECORD
  5
A18
102
{ACAD_REACTORS
330
A17
102
}
330
A17
100
AcDbXrecord
280
     1
102
SHADEPLOT
 70
     0
102
SHADEPLOTRESLEVEL
 70
     2
102
SHADEPLOTCUSTOMDPI
 70
   300
  0
ENDSEC
  0
EOF
