  0
SECTION
  2
HEADER
  9
$ACADVER
  1
AC1015
  9
$ACADMAINTVER
 70
    20
  9
$DWGCODEPAGE
  3
ANSI_936
  9
$INSBASE
 10
0.0
 20
0.0
 30
0.0
  9
$EXTMIN
 10
-0.0488001835601608
 20
-0.0366001376705754
 30
-0.0000000000000053
  9
$EXTMAX
 10
1600.04884302707
 20
1200.036632270302
 30
0.0000000000000099
  9
$LIMMIN
 10
0.0
 20
0.0
  9
$LIMMAX
 10
420.0
 20
297.0
  9
$ORTHOMODE
 70
     0
  9
$REGENMODE
 70
     1
  9
$FILLMODE
 70
     1
  9
$QTEXTMODE
 70
     0
  9
$MIRRTEXT
 70
     0
  9
$LTSCALE
 40
1.0
  9
$ATTMODE
 70
     1
  9
$TEXTSIZE
 40
2.5
  9
$TRACEWID
 40
1.0
  9
$TEXTSTYLE
  7
Standard
  9
$CLAYER
  8
0
  9
$CELTYPE
  6
ByLayer
  9
$CECOLOR
 62
   256
  9
$CELTSCALE
 40
1.0
  9
$DISPSILH
 70
     0
  9
$DIMSCALE
 40
1.0
  9
$DIMASZ
 40
2.5
  9
$DIMEXO
 40
1.0
  9
$DIMDLI
 40
7.0
  9
$DIMRND
 40
0.0
  9
$DIMDLE
 40
0.0
  9
$DIMEXE
 40
1.0
  9
$DIMTP
 40
0.0
  9
$DIMTM
 40
0.0
  9
$DIMTXT
 40
2.5
  9
$DIMCEN
 40
0.0
  9
$DIMTSZ
 40
0.0
  9
$DIMTOL
 70
     0
  9
$DIMLIM
 70
     0
  9
$DIMTIH
 70
     0
  9
$DIMTOH
 70
     0
  9
$DIMSE1
 70
     0
  9
$DIMSE2
 70
     0
  9
$DIMTAD
 70
     1
  9
$DIMZIN
 70
     8
  9
$DIMBLK
  1

  9
$DIMASO
 70
     1
  9
$DIMSHO
 70
     1
  9
$DIMPOST
  1

  9
$DIMAPOST
  1

  9
$DIMALT
 70
     0
  9
$DIMALTD
 70
     2
  9
$DIMALTF
 40
0.0394
  9
$DIMLFAC
 40
1.0
  9
$DIMTOFL
 70
     1
  9
$DIMTVP
 40
0.0
  9
$DIMTIX
 70
     1
  9
$DIMSOXD
 70
     1
  9
$DIMSAH
 70
     0
  9
$DIMBLK1
  1

  9
$DIMBLK2
  1

  9
$DIMSTYLE
  2
JIS
  9
$DIMCLRD
 70
     0
  9
$DIMCLRE
 70
     0
  9
$DIMCLRT
 70
     0
  9
$DIMTFAC
 40
1.0
  9
$DIMGAP
 40
0.0
  9
$DIMJUST
 70
     0
  9
$DIMSD1
 70
     0
  9
$DIMSD2
 70
     0
  9
$DIMTOLJ
 70
     1
  9
$DIMTZIN
 70
     0
  9
$DIMALTZ
 70
     0
  9
$DIMALTTZ
 70
     0
  9
$DIMUPT
 70
     0
  9
$DIMDEC
 70
     4
  9
$DIMTDEC
 70
     4
  9
$DIMALTU
 70
     2
  9
$DIMALTTD
 70
     2
  9
$DIMTXSTY
  7
Standard
  9
$DIMAUNIT
 70
     0
  9
$DIMADEC
 70
     0
  9
$DIMALTRND
 40
0.0
  9
$DIMAZIN
 70
     0
  9
$DIMDSEP
 70
    46
  9
$DIMATFIT
 70
     3
  9
$DIMFRAC
 70
     0
  9
$DIMLDRBLK
  1

  9
$DIMLUNIT
 70
     2
  9
$DIMLWD
 70
    -2
  9
$DIMLWE
 70
    -2
  9
$DIMTMOVE
 70
     0
  9
$LUNITS
 70
     2
  9
$LUPREC
 70
     4
  9
$SKETCHINC
 40
1.0
  9
$FILLETRAD
 40
0.0
  9
$AUNITS
 70
     0
  9
$AUPREC
 70
     0
  9
$MENU
  1
.
  9
$ELEVATION
 40
0.0
  9
$PELEVATION
 40
0.0
  9
$THICKNESS
 40
0.0
  9
$LIMCHECK
 70
     0
  9
$CHAMFERA
 40
0.0
  9
$CHAMFERB
 40
0.0
  9
$CHAMFERC
 40
0.0
  9
$CHAMFERD
 40
0.0
  9
$SKPOLY
 70
     0
  9
$TDCREATE
 40
2455955.017649734
  9
$TDUCREATE
 40
2455954.684316401
  9
$TDUPDATE
 40
2456193.629516053
  9
$TDUUPDATE
 40
2456193.296182720
  9
$TDINDWG
 40
0.0652743403
  9
$TDUSRTIMER
 40
0.0652687269
  9
$USRTIMER
 70
     1
  9
$ANGBASE
 50
0.0
  9
$ANGDIR
 70
     0
  9
$PDMODE
 70
     0
  9
$PDSIZE
 40
0.0
  9
$PLINEWID
 40
0.0
  9
$SPLFRAME
 70
     0
  9
$SPLINETYPE
 70
     6
  9
$SPLINESEGS
 70
   100
  9
$HANDSEED
  5
ACF
  9
$SURFTAB1
 70
     6
  9
$SURFTAB2
 70
     6
  9
$SURFTYPE
 70
     6
  9
$SURFU
 70
     6
  9
$SURFV
 70
     6
  9
$UCSBASE
  2

  9
$UCSNAME
  2

  9
$UCSORG
 10
0.0
 20
0.0
 30
0.0
  9
$UCSXDIR
 10
1.0
 20
0.0
 30
0.0
  9
$UCSYDIR
 10
0.0
 20
1.0
 30
0.0
  9
$UCSORTHOREF
  2

  9
$UCSORTHOVIEW
 70
     0
  9
$UCSORGTOP
 10
0.0
 20
0.0
 30
0.0
  9
$UCSORGBOTTOM
 10
0.0
 20
0.0
 30
0.0
  9
$UCSORGLEFT
 10
0.0
 20
0.0
 30
0.0
  9
$UCSORGRIGHT
 10
0.0
 20
0.0
 30
0.0
  9
$UCSORGFRONT
 10
0.0
 20
0.0
 30
0.0
  9
$UCSORGBACK
 10
0.0
 20
0.0
 30
0.0
  9
$PUCSBASE
  2

  9
$PUCSNAME
  2

  9
$PUCSORG
 10
0.0
 20
0.0
 30
0.0
  9
$PUCSXDIR
 10
1.0
 20
0.0
 30
0.0
  9
$PUCSYDIR
 10
0.0
 20
1.0
 30
0.0
  9
$PUCSORTHOREF
  2

  9
$PUCSORTHOVIEW
 70
     0
  9
$PUCSORGTOP
 10
0.0
 20
0.0
 30
0.0
  9
$PUCSORGBOTTOM
 10
0.0
 20
0.0
 30
0.0
  9
$PUCSORGLEFT
 10
0.0
 20
0.0
 30
0.0
  9
$PUCSORGRIGHT
 10
0.0
 20
0.0
 30
0.0
  9
$PUCSORGFRONT
 10
0.0
 20
0.0
 30
0.0
  9
$PUCSORGBACK
 10
0.0
 20
0.0
 30
0.0
  9
$USERI1
 70
     0
  9
$USERI2
 70
     0
  9
$USERI3
 70
     0
  9
$USERI4
 70
     0
  9
$USERI5
 70
     0
  9
$USERR1
 40
0.0
  9
$USERR2
 40
0.0
  9
$USERR3
 40
0.0
  9
$USERR4
 40
0.0
  9
$USERR5
 40
0.0
  9
$WORLDVIEW
 70
     1
  9
$SHADEDGE
 70
     3
  9
$SHADEDIF
 70
    70
  9
$TILEMODE
 70
     1
  9
$MAXACTVP
 70
    64
  9
$PINSBASE
 10
0.0
 20
0.0
 30
0.0
  9
$PLIMCHECK
 70
     0
  9
$PEXTMIN
 10
1.000000000000000E+20
 20
1.000000000000000E+20
 30
1.000000000000000E+20
  9
$PEXTMAX
 10
-1.000000000000000E+20
 20
-1.000000000000000E+20
 30
-1.000000000000000E+20
  9
$PLIMMIN
 10
0.0071835950613099
 20
0.0009369707933136
  9
$PLIMMAX
 10
841.0071835950612
 20
594.0009369707931
  9
$UNITMODE
 70
     0
  9
$VISRETAIN
 70
     1
  9
$PLINEGEN
 70
     0
  9
$PSLTSCALE
 70
     1
  9
$TREEDEPTH
 70
  3020
  9
$CMLSTYLE
  2
Standard
  9
$CMLJUST
 70
     0
  9
$CMLSCALE
 40
20.0
  9
$PROXYGRAPHICS
 70
     1
  9
$MEASUREMENT
 70
     1
  9
$CELWEIGHT
370
    -1
  9
$ENDCAPS
280
     0
  9
$JOINSTYLE
280
     0
  9
$LWDISPLAY
290
     1
  9
$INSUNITS
 70
     4
  9
$HYPERLINKBASE
  1

  9
$STYLESHEET
  1

  9
$XEDIT
290
     1
  9
$CEPSNTYPE
380
     0
  9
$PSTYLEMODE
290
     1
  9
$FINGERPRINTGUID
  2
{048D7354-A980-11D2-9A39-0060089B3A3F}
  9
$VERSIONGUID
  2
{DC046FF5-0504-4A01-9CCB-107160EE6B04}
  9
$EXTNAMES
290
     1
  9
$PSVPSCALE
 40
0.0
  9
$OLESTARTUP
290
     0
  0
ENDSEC
  0
SECTION
  2
CLASSES
  0
CLASS
  1
ACDBDICTIONARYWDFLT
  2
AcDbDictionaryWithDefault
  3
ObjectDBX Classes
 90
        0
280
     0
281
     0
  0
CLASS
  1
ACDBPLACEHOLDER
  2
AcDbPlaceHolder
  3
ObjectDBX Classes
 90
        0
280
     0
281
     0
  0
CLASS
  1
LAYOUT
  2
AcDbLayout
  3
ObjectDBX Classes
 90
        0
280
     0
281
     0
  0
CLASS
  1
PLOTSETTINGS
  2
AcDbPlotSettings
  3
ObjectDBX Classes
 90
    32768
280
     0
281
     0
  0
CLASS
  1
DICTIONARYVAR
  2
AcDbDictionaryVar
  3
ObjectDBX Classes
 90
        0
280
     0
281
     0
  0
ENDSEC
  0
SECTION
  2
TABLES
  0
TABLE
  2
VPORT
  5
19
330
0
100
AcDbSymbolTable
 70
     3
  0
VPORT
  5
AC5
330
19
100
AcDbSymbolTableRecord
100
AcDbViewportTableRecord
  2
*Active
 70
     0
 10
0.0
 20
0.0
 11
1.0
 21
1.0
 12
800.0000219376383
 22
600.0000152651201
 13
0.0
 23
0.0
 14
10.0
 24
10.0
 15
10.0
 25
10.0
 16
0.0
 26
0.0
 36
1.0
 17
0.0
 27
0.0
 37
0.0
 40
1249.654916970058
 41
2.293805309734513
 42
50.0
 43
0.0
 44
0.0
 50
0.0
 51
0.0
 71
     0
 72
  2000
 73
     1
 74
     3
 75
     0
 76
     0
 77
     0
 78
     0
281
     0
 65
     1
110
0.0
120
0.0
130
0.0
111
1.0
121
0.0
131
0.0
112
0.0
122
1.0
132
0.0
 79
     0
146
0.0
  0
ENDTAB
  0
TABLE
  2
LTYPE
  5
14
330
0
100
AcDbSymbolTable
 70
     1
  0
LTYPE
  5
15
330
14
100
AcDbSymbolTableRecord
100
AcDbLinetypeTableRecord
  2
ByBlock
 70
     0
  3

 72
    65
 73
     0
 40
0.0
  0
LTYPE
  5
16
330
14
100
AcDbSymbolTableRecord
100
AcDbLinetypeTableRecord
  2
ByLayer
 70
     0
  3

 72
    65
 73
     0
 40
0.0
  0
LTYPE
  5
8
330
14
100
AcDbSymbolTableRecord
100
AcDbLinetypeTableRecord
  2
Continuous
 70
     0
  3
Solid line
 72
    65
 73
     0
 40
0.0
  0
ENDTAB
  0
TABLE
  2
LAYER
  5
10
102
{ACAD_XDICTIONARY
360
1A3
102
}
330
0
100
AcDbSymbolTable
 70
     4
  0
LAYER
  5
4
330
10
100
AcDbSymbolTableRecord
100
AcDbLayerTableRecord
  2
0
 70
     0
 62
     7
  6
Continuous
370
    -3
390
5
  0
LAYER
  5
28
330
10
100
AcDbSymbolTableRecord
100
AcDbLayerTableRecord
  2
Object
 70
     0
 62
     7
  6
Continuous
370
    -3
390
5
  0
LAYER
  5
1A2
330
10
100
AcDbSymbolTableRecord
100
AcDbLayerTableRecord
  2
TOPOVERLAY
 70
     0
 62
     2
  6
Continuous
370
    -3
390
5
  0
LAYER
  5
8B2
330
10
100
AcDbSymbolTableRecord
100
AcDbLayerTableRecord
  2
6-家具-143
 70
     0
 62
   143
  6
Continuous
370
    -3
390
5
  0
ENDTAB
  0
TABLE
  2
STYLE
  5
11
330
0
100
AcDbSymbolTable
 70
     2
  0
STYLE
  5
12
330
11
100
AcDbSymbolTableRecord
100
AcDbTextStyleTableRecord
  2
Standard
 70
     0
 40
0.0
 41
1.0
 50
0.0
 71
     0
 42
2.5
  3
txt
  4

  0
STYLE
  5
2E
330
11
100
AcDbSymbolTableRecord
100
AcDbTextStyleTableRecord
  2
Roman
 70
     0
 40
0.0
 41
1.0
 50
0.0
 71
     0
 42
5.0
  3
romans
  4
bigfont
  0
ENDTAB
  0
TABLE
  2
VIEW
  5
17
330
0
100
AcDbSymbolTable
 70
     0
  0
ENDTAB
  0
TABLE
  2
UCS
  5
18
330
0
100
AcDbSymbolTable
 70
     0
  0
ENDTAB
  0
TABLE
  2
APPID
  5
1B
330
0
100
AcDbSymbolTable
 70
     1
  0
APPID
  5
1C
330
1B
100
AcDbSymbolTableRecord
100
AcDbRegAppTableRecord
  2
ACAD
 70
     0
  0
ENDTAB
  0
TABLE
  2
DIMSTYLE
  5
1D
330
0
100
AcDbSymbolTable
 70
     1
100
AcDbDimStyleTable
 71
     1
340
1E
  0
DIMSTYLE
105
1E
330
1D
100
AcDbSymbolTableRecord
100
AcDbDimStyleTableRecord
  2
JIS
 70
     0
 41
2.5
 42
1.0
 43
7.0
 44
1.0
 73
     0
 74
     0
 77
     1
 78
     8
140
2.5
141
0.0
143
0.0394
147
0.0
172
     1
174
     1
175
     1
340
12
  0
ENDTAB
  0
TABLE
  2
BLOCK_RECORD
  5
1
330
0
100
AcDbSymbolTable
 70
     1
  0
BLOCK_RECORD
  5
2
330
1
100
AcDbSymbolTableRecord
100
AcDbBlockTableRecord
  2
*Model_Space
340
A
  0
BLOCK_RECORD
  5
C
330
1
100
AcDbSymbolTableRecord
100
AcDbBlockTableRecord
  2
*Paper_Space
340
F
  0
ENDTAB
  0
ENDSEC
  0
SECTION
  2
BLOCKS
  0
BLOCK
  5
3
330
2
100
AcDbEntity
  8
0
100
AcDbBlockBegin
  2
*Model_Space
 70
     2
 10
0.0
 20
0.0
 30
0.0
  3
*Model_Space
  1

  0
ENDBLK
  5
9
330
2
100
AcDbEntity
  8
0
100
AcDbBlockEnd
  0
BLOCK
  5
D
330
C
100
AcDbEntity
 67
     1
  8
0
100
AcDbBlockBegin
  2
*Paper_Space
 70
     0
 10
0.0
 20
0.0
 30
0.0
  3
*Paper_Space
  1

  0
ENDBLK
  5
E
330
C
100
AcDbEntity
 67
     1
  8
0
100
AcDbBlockEnd
  0
ENDSEC
  0
SECTION
  2
ENTITIES
  0
LINE
  5
14F
330
2
100
AcDbEntity
  8
0
100
AcDbLine
 10
0.0
 20
0.0
 30
0.0
 11
1600.0
 21
0.0
 31
0.0
  0
LINE
  5
150
330
2
100
AcDbEntity
  8
0
100
AcDbLine
 10
1600.0
 20
0.0
 30
0.0
 11
1600.0
 21
1200.0
 31
0.0
  0
LINE
  5
151
330
2
100
AcDbEntity
  8
0
100
AcDbLine
 10
1600.0
 20
1200.0
 30
0.0
 11
0.0
 21
1200.0
 31
0.0
  0
LINE
  5
152
330
2
100
AcDbEntity
  8
0
100
AcDbLine
 10
0.0
 20
1200.0
 30
0.0
 11
0.0
 21
0.0
 31
0.0
  0
LINE
  5
24D
330
2
100
AcDbEntity
  8
0
 62
     5
370
    35
100
AcDbLine
 10
146.8773759648378
 20
134.2453454679304
 30
0.0
 11
146.8773759648378
 21
1100.245345467943
 31
0.0
  0
LINE
  5
24E
330
2
100
AcDbEntity
  8
0
 62
     5
370
    35
100
AcDbLine
 10
146.8773759648378
 20
1100.245345467943
 30
0.0
 11
1462.87737596485
 21
1100.245345467943
 31
0.0
  0
LINE
  5
24F
330
2
100
AcDbEntity
  8
0
 62
     5
370
    35
100
AcDbLine
 10
1462.87737596485
 20
134.2453454679304
 30
0.0
 11
1462.87737596485
 21
1100.245345467943
 31
0.0
  0
LINE
  5
250
330
2
100
AcDbEntity
  8
0
 62
     5
370
    35
100
AcDbLine
 10
146.8773759648378
 20
134.2453454679304
 30
0.0
 11
1462.87737596485
 21
134.2453454679304
 31
0.0
  0
ARC
  5
253
330
2
100
AcDbEntity
  8
0
 62
    56
100
AcDbCircle
 10
401.2681708086422
 20
628.4567916576502
 30
0.0
 40
86.57756336906864
100
AcDbArc
 50
93.76815435825868
 51
266.2318456417413
  0
LINE
  5
254
330
2
100
AcDbEntity
  8
0
 62
    56
100
AcDbLine
 10
470.1374477329405
 20
628.3583971343634
 30
0.0
 11
499.3982512737052
 21
628.3583971343634
 31
0.0
  0
LINE
  5
255
330
2
100
AcDbEntity
  8
0
 62
   250
370
   100
100
AcDbLine
 10
527.8635948504152
 20
628.2835470220474
 30
0.0
 11
587.9718373885777
 21
628.2835470220474
 31
0.0
  0
LINE
  5
256
330
2
100
AcDbEntity
  8
TOPOVERLAY
  6
Continuous
 62
   250
370
   100
100
AcDbLine
 10
541.4356581651294
 20
585.0814711308552
 30
0.0
 11
587.6442963840311
 21
614.4695149158027
 31
0.0
  0
LINE
  5
257
330
2
100
AcDbEntity
  8
0
 62
    56
100
AcDbLine
 10
604.2264970840532
 20
628.4012180692907
 30
0.0
 11
658.7775067137572
 21
628.4012180692907
 31
0.0
  0
CIRCLE
  5
25A
330
2
100
AcDbEntity
  8
0
 62
   252
100
AcDbCircle
 10
849.8347280698894
 20
544.8099052881846
 30
0.0
 40
20.66015533163439
  0
CIRCLE
  5
25B
330
2
100
AcDbEntity
  8
0
 62
   252
100
AcDbCircle
 10
896.2810363508351
 20
544.8099052881846
 30
0.0
 40
20.66015533163439
  0
LINE
  5
25C
330
2
100
AcDbEntity
  8
0
 62
   252
100
AcDbLine
 10
846.0386689126329
 20
572.6575850725935
 30
0.0
 11
846.0386689126329
 21
590.4449980898156
 31
0.0
  0
LINE
  5
25D
330
2
100
AcDbEntity
  8
0
 62
   252
100
AcDbLine
 10
851.7095168752783
 20
569.7441298102651
 30
0.0
 11
851.7095168752783
 21
587.5315428273284
 31
0.0
  0
LINE
  5
25E
330
2
100
AcDbEntity
  8
0
 62
   252
100
AcDbLine
 10
840.3678256780167
 20
583.0846877287699
 30
0.0
 11
859.9858798658585
 21
574.651003384211
 31
0.0
  0
LINE
  5
25F
330
2
100
AcDbEntity
  8
0
 62
   252
100
AcDbLine
 10
891.6408484796201
 20
571.4311248843483
 30
0.0
 11
891.6408484796201
 21
589.2185379015702
 31
0.0
  0
LINE
  5
260
330
2
100
AcDbEntity
  8
0
 62
   252
100
AcDbLine
 10
897.3116964422823
 20
568.5176696219882
 30
0.0
 11
897.3116964422823
 21
586.3050826390831
 31
0.0
  0
LINE
  5
261
330
2
100
AcDbEntity
  8
0
 62
   252
100
AcDbLine
 10
885.9700052450161
 20
581.8582275404926
 30
0.0
 11
905.5880594328653
 21
573.4245431959656
 31
0.0
  0
LINE
  5
262
330
2
100
AcDbEntity
  8
0
 62
   252
100
AcDbLine
 10
811.4020209092316
 20
547.0627865766075
 30
0.0
 11
938.3176685414612
 21
547.0627865766075
 31
0.0
  0
CIRCLE
  5
263
330
2
100
AcDbEntity
  8
0
 62
   252
100
AcDbCircle
 10
846.4638490603672
 20
689.8273729904121
 30
0.0
 40
20.66015533163439
  0
CIRCLE
  5
264
330
2
100
AcDbEntity
  8
0
 62
   252
100
AcDbCircle
 10
892.9101573412921
 20
689.8273729904121
 30
0.0
 40
20.66015533163439
  0
LINE
  5
265
330
2
100
AcDbEntity
  8
0
 62
   252
100
AcDbLine
 10
842.6677899030917
 20
717.6750527748207
 30
0.0
 11
842.6677899030917
 21
735.4624657919162
 31
0.0
  0
LINE
  5
266
330
2
100
AcDbEntity
  8
0
 62
   252
100
AcDbLine
 10
848.3386378657456
 20
714.761597512334
 30
0.0
 11
848.3386378657456
 21
732.549010529556
 31
0.0
  0
LINE
  5
267
330
2
100
AcDbEntity
  8
0
 62
   252
100
AcDbLine
 10
836.9969466684873
 20
728.1021554308705
 30
0.0
 11
856.6150008563175
 21
719.6684710864705
 31
0.0
  0
LINE
  5
268
330
2
100
AcDbEntity
  8
0
 62
   252
100
AcDbLine
 10
888.2699694700912
 20
716.448592586576
 30
0.0
 11
888.2699694700912
 21
734.2360056036708
 31
0.0
  0
LINE
  5
269
330
2
100
AcDbEntity
  8
0
 62
   252
100
AcDbLine
 10
893.9408174327452
 20
713.5351373240884
 30
0.0
 11
893.9408174327452
 21
731.3225503413426
 31
0.0
  0
LINE
  5
26A
330
2
100
AcDbEntity
  8
0
 62
   252
100
AcDbLine
 10
882.5991262354792
 20
726.8756952426248
 30
0.0
 11
902.2171804233362
 21
718.442010898098
 31
0.0
  0
LINE
  5
26B
330
2
100
AcDbEntity
  8
0
 62
   252
100
AcDbLine
 10
808.0311418997078
 20
692.0802542788354
 30
0.0
 11
934.9467895319213
 21
692.0802542788354
 31
0.0
  0
LINE
  5
26C
330
2
100
AcDbEntity
  8
0
 62
    56
100
AcDbLine
 10
294.9873178741801
 20
240.3176229270147
 30
0.0
 11
294.9595074320472
 21
1017.926882565553
 31
0.0
  0
ARC
  5
26E
330
2
100
AcDbEntity
  8
0
 62
    56
100
AcDbCircle
 10
714.0263533355915
 20
629.3287134877487
 30
0.0
 40
86.57756336906864
100
AcDbArc
 50
273.7681543582587
 51
86.23184564174131
  0
LINE
  5
26F
330
2
100
AcDbEntity
  8
0
 62
    56
100
AcDbLine
 10
973.9539700263961
 20
625.1124834942498
 30
0.0
 11
973.9539700263961
 21
501.1746429232616
 31
0.0
  0
LINE
  5
270
330
2
100
AcDbEntity
  8
0
 62
    56
100
AcDbLine
 10
973.9539700263961
 20
501.1746429232616
 30
0.0
 11
906.4579844358259
 21
501.1746429232616
 31
0.0
  0
LINE
  5
271
330
2
100
AcDbEntity
  8
0
 62
    56
100
AcDbLine
 10
906.4579844358259
 20
501.1746429232616
 30
0.0
 11
906.4579844358259
 21
394.2070817623431
 31
0.0
  0
LINE
  5
272
330
2
100
AcDbEntity
  8
0
 62
    56
100
AcDbLine
 10
906.4579844358259
 20
394.2070817623431
 30
0.0
 11
934.4953215517596
 21
394.2070817623431
 31
0.0
  0
LINE
  5
273
330
2
100
AcDbEntity
  8
0
 62
    56
100
AcDbLine
 10
934.4953215517596
 20
380.8960846563837
 30
0.0
 11
934.4953215517596
 21
407.460580247544
 31
0.0
  0
LINE
  5
274
330
2
100
AcDbEntity
  8
0
 62
    56
100
AcDbLine
 10
940.8403907057147
 20
380.8960846563837
 30
0.0
 11
940.8403907057147
 21
407.460580247544
 31
0.0
  0
CIRCLE
  5
275
330
2
100
AcDbEntity
  8
0
 62
   250
370
    30
100
AcDbCircle
 10
1003.517714356422
 20
334.9398966850963
 30
0.0
 40
21.00918010397843
  0
CIRCLE
  5
279
330
2
100
AcDbEntity
  8
0
 62
   250
370
    30
100
AcDbCircle
 10
1003.455272873811
 20
394.3476714354988
 30
0.0
 40
21.00918010397843
  0
CIRCLE
  5
27D
330
2
100
AcDbEntity
  8
0
 62
   250
370
    30
100
AcDbCircle
 10
1003.455272873811
 20
451.0131016931476
 30
0.0
 40
21.00918010397843
  0
LINE
  5
281
330
2
100
AcDbEntity
  8
0
 62
    56
100
AcDbLine
 10
982.4460927698423
 20
394.3476714354988
 30
0.0
 11
940.8403907057147
 21
394.3476714354988
 31
0.0
  0
LINE
  5
282
330
2
100
AcDbEntity
  8
0
 62
    56
100
AcDbLine
 10
1024.464452977806
 20
394.3476714354988
 30
0.0
 11
1039.314395454069
 21
394.3476714354988
 31
0.0
  0
LINE
  5
283
330
2
100
AcDbEntity
  8
0
 62
    56
100
AcDbLine
 10
1039.388990038443
 20
379.3676202292459
 30
0.0
 11
1039.388990038443
 21
409.00459600814
 31
0.0
  0
LINE
  5
284
330
2
100
AcDbEntity
  8
0
 62
    56
100
AcDbLine
 10
1042.74302770237
 20
383.8706902995915
 30
0.0
 11
1042.74302770237
 21
403.1583864851246
 31
0.0
  0
LINE
  5
285
330
2
100
AcDbEntity
  8
0
 62
    56
100
AcDbLine
 10
1046.461012423949
 20
389.243690747517
 30
0.0
 11
1046.461012423949
 21
397.7853860371993
 31
0.0
  0
LINE
  5
286
330
2
100
AcDbEntity
  8
0
 62
    56
100
AcDbLine
 10
973.9539700263961
 20
625.1124834942498
 30
0.0
 11
973.9539700263961
 21
752.756677270245
 31
0.0
  0
LINE
  5
287
330
2
100
AcDbEntity
  8
0
 62
    56
100
AcDbLine
 10
973.9539700263961
 20
752.756677270245
 30
0.0
 11
905.6413493840961
 21
752.756677270245
 31
0.0
  0
LINE
  5
288
330
2
100
AcDbEntity
  8
0
 62
    56
100
AcDbLine
 10
905.6413493840961
 20
752.756677270245
 30
0.0
 11
905.6413493840961
 21
920.9552148575816
 31
0.0
  0
LINE
  5
289
330
2
100
AcDbEntity
  8
0
 62
    56
100
AcDbLine
 10
905.6413493840961
 20
920.9552148575816
 30
0.0
 11
942.2925948928883
 21
920.9552148575816
 31
0.0
  0
LINE
  5
28A
330
2
100
AcDbEntity
  8
0
 62
   250
370
    30
100
AcDbLine
 10
950.2989489221251
 20
845.5916548606225
 30
0.0
 11
1012.039857522575
 21
845.5916548606225
 31
0.0
  0
LINE
  5
28B
330
2
100
AcDbEntity
  8
0
 62
     3
370
    30
100
AcDbLine
 10
969.3382320053286
 20
803.5084767944718
 30
0.0
 11
1011.712316518024
 21
830.4615642773709
 31
0.0
  0
LINE
  5
28C
330
2
100
AcDbEntity
  8
0
 62
    56
100
AcDbLine
 10
934.9535364719052
 20
827.3457265659777
 30
0.0
 11
934.9535364719052
 21
858.7929572286345
 31
0.0
  0
LINE
  5
28D
330
2
100
AcDbEntity
  8
0
 62
    56
100
AcDbLine
 10
934.9535364719052
 20
842.1221343767278
 30
0.0
 11
905.6413493840961
 21
842.1221343767278
 31
0.0
  0
LINE
  5
28E
330
2
100
AcDbEntity
  8
0
 62
    56
100
AcDbLine
 10
1024.464452977806
 20
841.4595212865702
 30
0.0
 11
1039.314395454069
 21
841.4595212865702
 31
0.0
  0
LINE
  5
28F
330
2
100
AcDbEntity
  8
0
 62
    56
100
AcDbLine
 10
1039.388990038443
 20
826.4794700803172
 30
0.0
 11
1039.388990038443
 21
856.1164458592115
 31
0.0
  0
LINE
  5
290
330
2
100
AcDbEntity
  8
0
 62
    56
100
AcDbLine
 10
1042.74302770237
 20
830.9825401507263
 30
0.0
 11
1042.74302770237
 21
850.2702363362281
 31
0.0
  0
LINE
  5
291
330
2
100
AcDbEntity
  8
0
 62
    56
100
AcDbLine
 10
1046.461012423949
 20
836.3555405986202
 30
0.0
 11
1046.461012423949
 21
844.8972358883024
 31
0.0
  0
LINE
  5
292
330
2
100
AcDbEntity
  8
0
 62
    56
370
    20
100
AcDbLine
 10
947.6868372289683
 20
911.4332543979623
 30
0.0
 11
1010.827803089492
 21
911.4332543979623
 31
0.0
  0
LINE
  5
293
330
2
100
AcDbEntity
  8
0
 62
    56
370
    20
100
AcDbLine
 10
1010.827803089492
 20
911.4332543979623
 30
0.0
 11
1010.827803089492
 21
930.5621469768404
 31
0.0
  0
LINE
  5
294
330
2
100
AcDbEntity
  8
0
 62
    56
370
    20
100
AcDbLine
 10
1010.827803089492
 20
930.5621469768404
 30
0.0
 11
947.6868372289683
 21
930.5621469768404
 31
0.0
  0
LINE
  5
295
330
2
100
AcDbEntity
  8
0
 62
    56
370
    20
100
AcDbLine
 10
947.6868372289683
 20
930.5621469768404
 30
0.0
 11
947.6868372289683
 21
911.4332543979623
 31
0.0
  0
LINE
  5
296
330
2
100
AcDbEntity
  8
0
 62
    56
370
    20
100
AcDbLine
 10
942.2925948928883
 20
920.9552148575816
 30
0.0
 11
957.1310260261633
 21
920.9552148575816
 31
0.0
  0
LINE
  5
297
330
2
100
AcDbEntity
  8
0
 62
    56
370
    20
100
AcDbLine
 10
957.1310260261633
 20
914.6058149412926
 30
0.0
 11
957.1310260261633
 21
927.30461477403
 31
0.0
  0
LINE
  5
298
330
2
100
AcDbEntity
  8
0
 62
    56
370
    20
100
AcDbLine
 10
957.1310260261633
 20
927.30461477403
 30
0.0
 11
992.8444137824833
 21
920.9552148575816
 31
0.0
  0
LINE
  5
299
330
2
100
AcDbEntity
  8
0
 62
    56
370
    20
100
AcDbLine
 10
957.1310260261633
 20
914.6058149412926
 30
0.0
 11
992.8444137824833
 21
920.9552148575816
 31
0.0
  0
LINE
  5
29A
330
2
100
AcDbEntity
  8
0
 62
    56
100
AcDbLine
 10
1024.575723114653
 20
921.1158627875423
 30
0.0
 11
1039.425665590903
 21
921.1158627875423
 31
0.0
  0
LINE
  5
29B
330
2
100
AcDbEntity
  8
0
 62
    56
100
AcDbLine
 10
1039.500260175289
 20
906.1358115812897
 30
0.0
 11
1039.500260175289
 21
935.7727873603113
 31
0.0
  0
LINE
  5
29C
330
2
100
AcDbEntity
  8
0
 62
    56
100
AcDbLine
 10
1042.854297839231
 20
910.6388816516666
 30
0.0
 11
1042.854297839231
 21
929.926577837328
 31
0.0
  0
LINE
  5
29D
330
2
100
AcDbEntity
  8
0
 62
    56
100
AcDbLine
 10
1046.572282560815
 20
916.0118820995927
 30
0.0
 11
1046.572282560815
 21
924.5535773894019
 31
0.0
  0
LINE
  5
29E
330
2
100
AcDbEntity
  8
0
 62
    56
100
AcDbLine
 10
800.5989484865619
 20
628.4012180692907
 30
0.0
 11
1085.671855937085
 21
628.4012180692907
 31
0.0
  0
CIRCLE
  5
29F
330
2
100
AcDbEntity
  8
0
 62
   250
370
    30
100
AcDbCircle
 10
1234.582622490346
 20
335.6770914340137
 30
0.0
 40
21.00918010397843
  0
CIRCLE
  5
2A3
330
2
100
AcDbEntity
  8
0
 62
   250
370
    30
100
AcDbCircle
 10
1234.520181007761
 20
395.0848661843843
 30
0.0
 40
21.00918010397843
  0
CIRCLE
  5
2A7
330
2
100
AcDbEntity
  8
0
 62
   250
370
    30
100
AcDbCircle
 10
1234.520181007761
 20
451.7502964421924
 30
0.0
 40
21.00918010397843
  0
CIRCLE
  5
2AB
330
2
100
AcDbEntity
  8
0
 62
   250
370
    30
100
AcDbCircle
 10
1137.685615453919
 20
578.5931509954439
 30
0.0
 40
21.00918010397843
  0
LINE
  5
2AE
330
2
100
AcDbEntity
  8
0
 62
   252
100
AcDbLine
 10
1094.57518754467
 20
261.2888166757517
 30
0.0
 11
1094.57518754467
 21
619.2495115365913
 31
0.0
  0
LINE
  5
2AF
330
2
100
AcDbEntity
  8
0
 62
   252
100
AcDbLine
 10
1094.57518754467
 20
619.2495115365913
 30
0.0
 11
1339.165136360506
 21
619.2495115365913
 31
0.0
  0
LINE
  5
2B0
330
2
100
AcDbEntity
  8
0
 62
   252
100
AcDbLine
 10
1339.165136360506
 20
619.2495115365913
 30
0.0
 11
1339.165136360506
 21
261.2888166757517
 31
0.0
  0
LINE
  5
2B1
330
2
100
AcDbEntity
  8
0
 62
   252
100
AcDbLine
 10
1339.165136360506
 20
261.2888166757517
 30
0.0
 11
1094.57518754467
 21
261.2888166757517
 31
0.0
  0
CIRCLE
  5
2B3
330
2
100
AcDbEntity
  8
0
 62
   250
370
    30
100
AcDbCircle
 10
1234.582622490346
 20
768.358341278077
 30
0.0
 40
21.00918010397843
  0
CIRCLE
  5
2B7
330
2
100
AcDbEntity
  8
0
 62
     1
370
    30
100
AcDbCircle
 10
1234.520181007761
 20
886.8995479778192
 30
0.0
 40
21.00918010397843
  0
LINE
  5
2B8
330
2
100
AcDbEntity
  8
0
 62
     1
370
    30
100
AcDbLine
 10
1221.017559352162
 20
871.3262743741145
 30
0.0
 11
1248.022798577847
 21
902.4728251238176
 31
0.0
  0
LINE
  5
2B9
330
2
100
AcDbEntity
  8
0
 62
     1
370
    30
100
AcDbLine
 10
1234.520181007761
 20
886.8995479778192
 30
0.0
 11
1221.954892414037
 21
903.2384942371871
 31
0.0
  0
LINE
  5
2BA
330
2
100
AcDbEntity
  8
0
 62
     1
370
    30
100
AcDbLine
 10
1234.520181007761
 20
886.8995479778192
 30
0.0
 11
1246.712678770662
 21
870.2805636342517
 31
0.0
  0
LINE
  5
2BB
330
2
100
AcDbEntity
  8
0
 62
   252
100
AcDbLine
 10
1094.57518754467
 20
653.1478911412072
 30
0.0
 11
1094.57518754467
 21
1011.108586001919
 31
0.0
  0
LINE
  5
2BC
330
2
100
AcDbEntity
  8
0
 62
   252
100
AcDbLine
 10
1094.57518754467
 20
1011.108586001919
 30
0.0
 11
1339.165136360506
 21
1011.108586001919
 31
0.0
  0
LINE
  5
2BD
330
2
100
AcDbEntity
  8
0
 62
   252
100
AcDbLine
 10
1339.165136360506
 20
1011.108586001919
 30
0.0
 11
1339.165136360506
 21
653.1478911412075
 31
0.0
  0
LINE
  5
2BE
330
2
100
AcDbEntity
  8
0
 62
   252
100
AcDbLine
 10
1339.165136360506
 20
653.1478911412075
 30
0.0
 11
1094.57518754467
 21
653.1478911412075
 31
0.0
  0
LINE
  5
2C1
330
2
100
AcDbEntity
  8
0
 62
   252
100
AcDbLine
 10
599.7926463441414
 20
796.0172651447789
 30
0.0
 11
636.104935636844
 21
821.9138351143877
 31
0.0
  0
LINE
  5
2C2
330
2
100
AcDbEntity
  8
0
 62
   252
100
AcDbLine
 10
601.6548179111188
 20
811.6557315550569
 30
0.0
 11
633.4979104466635
 21
833.6398903008328
 31
0.0
  0
LINE
  5
2C4
330
2
100
AcDbEntity
  8
0
 62
   252
100
AcDbLine
 10
636.2000600586878
 20
849.2813438231047
 30
0.0
 11
599.4059293878438
 21
824.0740703083114
 31
0.0
  0
LINE
  5
2C6
330
2
100
AcDbEntity
  8
0
 62
   252
100
AcDbLine
 10
659.3275608998866
 20
796.0172651447784
 30
0.0
 11
695.6398501925906
 21
821.9138351143874
 31
0.0
  0
LINE
  5
2C7
330
2
100
AcDbEntity
  8
0
 62
   252
100
AcDbLine
 10
661.1897324668648
 20
811.6557315550567
 30
0.0
 11
693.0328250024127
 21
833.6398903008332
 31
0.0
  0
LINE
  5
2C9
330
2
100
AcDbEntity
  8
0
 62
   252
100
AcDbLine
 10
695.734974614433
 20
849.2813438230722
 30
0.0
 11
658.9408439435697
 21
824.0740703082797
 31
0.0
  0
ARC
  5
2CA
330
2
100
AcDbEntity
  8
0
 62
    18
370
     0
100
AcDbCircle
 10
1139.286453494253
 20
767.3453875379626
 30
0.0
 40
14.46431580258922
100
AcDbArc
 50
96.35583041835197
 51
263.644169581648
  0
LINE
  5
2CB
330
2
100
AcDbEntity
  8
0
 62
    18
370
     0
100
AcDbLine
 10
1137.685213251165
 20
752.9699758457857
 30
0.0
 11
1151.510053583306
 21
752.9699758457857
 31
0.0
  0
LINE
  5
2CC
330
2
100
AcDbEntity
  8
0
 62
    18
370
     0
100
AcDbLine
 10
1137.685213251165
 20
781.7207992301703
 30
0.0
 11
1151.510053583306
 21
781.7207992301703
 31
0.0
  0
LINE
  5
2CD
330
2
100
AcDbEntity
  8
0
 62
    18
370
     0
100
AcDbLine
 10
1151.510053583306
 20
747.2938776490585
 30
0.0
 11
1151.510053583306
 21
787.4255459526518
 31
0.0
  0
LINE
  5
2CE
330
2
100
AcDbEntity
  8
0
 62
    18
370
     0
100
AcDbLine
 10
1151.510053583306
 20
747.2938776490585
 30
0.0
 11
1178.172928851987
 21
747.2938776490585
 31
0.0
  0
LINE
  5
2CF
330
2
100
AcDbEntity
  8
0
 62
    18
370
     0
100
AcDbLine
 10
1178.172928851987
 20
747.2938776490585
 30
0.0
 11
1178.172928851987
 21
787.4255459526518
 31
0.0
  0
LINE
  5
2D0
330
2
100
AcDbEntity
  8
0
 62
    18
370
     0
100
AcDbLine
 10
1178.172928851987
 20
787.4255459526518
 30
0.0
 11
1151.510053583306
 21
787.4255459526518
 31
0.0
  0
ARC
  5
2D1
330
2
100
AcDbEntity
  8
0
 62
    88
100
AcDbCircle
 10
1139.003241827325
 20
858.899169573338
 30
0.0
 40
14.46431580258922
100
AcDbArc
 50
96.35583041835197
 51
263.644169581648
  0
LINE
  5
2D2
330
2
100
AcDbEntity
  8
0
 62
    88
100
AcDbLine
 10
1137.402001584215
 20
873.421985177711
 30
0.0
 11
1151.226841916377
 21
873.421985177711
 31
0.0
  0
LINE
  5
2D3
330
2
100
AcDbEntity
  8
0
 62
    88
100
AcDbLine
 10
1151.226841916377
 20
867.7458869808249
 30
0.0
 11
1151.226841916377
 21
907.8775552845764
 31
0.0
  0
LINE
  5
2D4
330
2
100
AcDbEntity
  8
0
 62
    88
100
AcDbLine
 10
1151.226841916377
 20
867.7458869808249
 30
0.0
 11
1177.88971718507
 21
867.7458869808249
 31
0.0
  0
LINE
  5
2D5
330
2
100
AcDbEntity
  8
0
 62
    88
100
AcDbLine
 10
1177.88971718507
 20
867.7458869808249
 30
0.0
 11
1177.889717185057
 21
907.8775552845764
 31
0.0
  0
LINE
  5
2D6
330
2
100
AcDbEntity
  8
0
 62
    88
100
AcDbLine
 10
1177.88971718507
 20
907.8775552845764
 30
0.0
 11
1151.226841916377
 21
907.8775552845764
 31
0.0
  0
LINE
  5
2D7
330
2
100
AcDbEntity
  8
0
 62
   250
370
    30
100
AcDbLine
 10
665.8807654987732
 20
907.4940630177801
 30
0.0
 11
665.8807654987732
 21
945.7800229854225
 31
0.0
  0
LINE
  5
2D8
330
2
100
AcDbEntity
  8
0
 62
   250
370
    30
100
AcDbLine
 10
665.8807654987732
 20
945.7800229854225
 30
0.0
 11
689.6916630852606
 21
945.7800229854225
 31
0.0
  0
LINE
  5
2D9
330
2
100
AcDbEntity
  8
0
 62
   250
370
    30
100
AcDbLine
 10
689.6916630852606
 20
945.7800229854225
 30
0.0
 11
689.6916630852606
 21
907.4940630177801
 31
0.0
  0
LINE
  5
2DA
330
2
100
AcDbEntity
  8
0
 62
   250
370
    30
100
AcDbLine
 10
689.6916630852606
 20
907.4940630177801
 30
0.0
 11
665.8807654987732
 21
907.4940630177801
 31
0.0
  0
LINE
  5
2DB
330
2
100
AcDbEntity
  8
TOPOVERLAY
  6
Continuous
 62
     3
370
    30
100
AcDbLine
 10
606.3458509430277
 20
907.4940630177803
 30
0.0
 11
606.3458509430277
 21
945.7800229852642
 31
0.0
  0
LINE
  5
2DC
330
2
100
AcDbEntity
  8
TOPOVERLAY
  6
Continuous
 62
     3
370
    30
100
AcDbLine
 10
606.3458509430277
 20
945.7800229852642
 30
0.0
 11
630.1567485295541
 21
945.7800229852642
 31
0.0
  0
LINE
  5
2DD
330
2
100
AcDbEntity
  8
TOPOVERLAY
  6
Continuous
 62
     3
370
    30
100
AcDbLine
 10
630.1567485295541
 20
945.7800229852642
 30
0.0
 11
630.1567485295541
 21
907.4940630177803
 31
0.0
  0
LINE
  5
2DE
330
2
100
AcDbEntity
  8
TOPOVERLAY
  6
Continuous
 62
     3
370
    30
100
AcDbLine
 10
630.1567485295541
 20
907.4940630177803
 30
0.0
 11
606.3458509430277
 21
907.4940630177803
 31
0.0
  0
LINE
  5
2E0
330
2
100
AcDbEntity
  8
0
 62
   252
100
AcDbLine
 10
1176.401910468062
 20
557.2303403402433
 30
0.0
 11
1176.401910468062
 21
601.3235525283021
 31
0.0
  0
LINE
  5
2E1
330
2
100
AcDbEntity
  8
0
 62
   252
100
AcDbLine
 10
1176.401910468062
 20
601.3235525283021
 30
0.0
 11
1211.659521838679
 21
601.3235525283021
 31
0.0
  0
LINE
  5
2E2
330
2
100
AcDbEntity
  8
0
 62
   252
100
AcDbLine
 10
1211.659521838679
 20
601.3235525283021
 30
0.0
 11
1211.659521838679
 21
557.2303403402433
 31
0.0
  0
LINE
  5
2E3
330
2
100
AcDbEntity
  8
0
 62
   252
100
AcDbLine
 10
1211.659521838679
 20
557.2303403402433
 30
0.0
 11
1176.401910468062
 21
557.2303403402433
 31
0.0
  0
LINE
  5
2E6
330
2
100
AcDbEntity
  8
0
 62
   250
370
   100
100
AcDbLine
 10
527.8635948504152
 20
628.2835470220474
 30
0.0
 11
587.9718373885777
 21
628.2835470220474
 31
0.0
  0
LINE
  5
2E7
330
2
100
AcDbEntity
  8
TOPOVERLAY
  6
Continuous
 62
   250
370
   100
100
AcDbLine
 10
541.4356581651294
 20
585.0814711308552
 30
0.0
 11
587.6442963840311
 21
614.4695149158027
 31
0.0
  0
LINE
  5
2EA
330
2
100
AcDbEntity
  8
0
 62
   250
370
   100
100
AcDbLine
 10
950.2989489221251
 20
845.5916548606225
 30
0.0
 11
1012.039857522575
 21
845.5916548606225
 31
0.0
  0
LINE
  5
2EB
330
2
100
AcDbEntity
  8
TOPOVERLAY
  6
Continuous
 62
     3
370
   100
100
AcDbLine
 10
969.3382320053286
 20
803.5084767944718
 30
0.0
 11
1011.712316518024
 21
830.4615642773709
 31
0.0
  0
LINE
  5
2ED
330
2
100
AcDbEntity
  8
0
 62
    56
100
AcDbLine
 10
487.2596160318638
 20
616.2796927904357
 30
0.0
 11
511.5368865155466
 21
640.4371014782914
 31
0.0
  0
LINE
  5
2EE
330
2
100
AcDbEntity
  8
0
 62
    56
100
AcDbLine
 10
487.2596160318638
 20
640.4371014782914
 30
0.0
 11
511.5368865155466
 21
616.2796927904357
 31
0.0
  0
LINE
  5
2EF
330
2
100
AcDbEntity
  8
0
 62
    56
100
AcDbLine
 10
646.6388714719157
 20
640.4799224132188
 30
0.0
 11
670.9161419555982
 21
616.3225137253627
 31
0.0
  0
LINE
  5
2F0
330
2
100
AcDbEntity
  8
0
 62
    56
100
AcDbLine
 10
646.6388714719157
 20
616.3225137253627
 30
0.0
 11
670.9161419555982
 21
640.4799224132188
 31
0.0
  0
LINE
  5
34E
330
2
100
AcDbEntity
  8
TOPOVERLAY
  6
Continuous
 62
     3
370
   100
100
AcDbLine
 10
402.8918988683551
 20
675.5985971749367
 30
0.0
 11
402.8918988683551
 21
581.2038389636446
 31
0.0
  0
LINE
  5
34F
330
2
100
AcDbEntity
  8
0
 62
   250
370
   100
100
AcDbLine
 10
369.3976333107765
 20
628.4012180692907
 30
0.0
 11
389.5796502072763
 21
628.4012180692907
 31
0.0
  0
LINE
  5
350
330
2
100
AcDbEntity
  8
0
 62
   250
370
   100
100
AcDbLine
 10
355.6943183798837
 20
628.4012180692907
 30
0.0
 11
389.5796502072763
 21
628.4012180692907
 31
0.0
  0
LINE
  5
351
330
2
100
AcDbEntity
  8
0
 62
   250
370
   100
100
AcDbLine
 10
416.2037447646424
 20
628.4012180692907
 30
0.0
 11
439.2980590427089
 21
628.4012180692907
 31
0.0
  0
LINE
  5
352
330
2
100
AcDbEntity
  8
0
 62
   250
370
   100
100
AcDbLine
 10
416.2037447646424
 20
628.4012180692907
 30
0.0
 11
450.0890765920352
 21
628.4012180692907
 31
0.0
  0
LINE
  5
3A7
330
2
100
AcDbEntity
  8
0
 62
    56
100
AcDbLine
 10
314.6906252757422
 20
628.4012180692907
 30
0.0
 11
294.9734384654401
 21
628.4005129031984
 31
0.0
  0
MTEXT
  5
41F
330
2
100
AcDbEntity
  8
0
100
AcDbMText
 10
178.1088203111944
 20
165.4714462935649
 30
0.0
 40
30.0
 41
3011.936264869754
 71
     1
 72
     5
  1
ORT400
 11
0.0000000000000001
 21
1.0
 31
0.0
 73
     1
 44
1.0
1001
ACAD
1000
MTEXTBEGIN
1070
    73
1070
     1
1070
    44
1040
1.0
1070
    74
1070
     0
1000
MTEXTEND
  0
LINE
  5
4D4
330
2
100
AcDbEntity
  8
0
 62
   250
370
    30
100
AcDbLine
 10
1234.582624533102
 20
768.3583395069299
 30
0.0
 11
1246.775122296003
 21
751.7393551633626
 31
0.0
  0
LINE
  5
4D5
330
2
100
AcDbEntity
  8
0
 62
   250
370
    30
100
AcDbLine
 10
1234.582624533102
 20
768.3583395069299
 30
0.0
 11
1222.017335939378
 21
784.697285766298
 31
0.0
  0
LINE
  5
4D6
330
2
100
AcDbEntity
  8
0
 62
   250
370
    30
100
AcDbLine
 10
1221.080002877503
 20
752.7850659032252
 30
0.0
 11
1248.085242103188
 21
783.9316166529283
 31
0.0
  0
LINE
  5
4D7
330
2
100
AcDbEntity
  8
0
 62
   250
370
    30
100
AcDbLine
 10
1124.182995841076
 20
563.0198756205922
 30
0.0
 11
1151.188235066761
 21
594.1664263702953
 31
0.0
  0
LINE
  5
4D8
330
2
100
AcDbEntity
  8
0
 62
   250
370
    30
100
AcDbLine
 10
1137.685617496675
 20
578.593149224297
 30
0.0
 11
1125.12032890295
 21
594.9320954836649
 31
0.0
  0
LINE
  5
4D9
330
2
100
AcDbEntity
  8
0
 62
   250
370
    30
100
AcDbLine
 10
1137.685617496675
 20
578.593149224297
 30
0.0
 11
1149.878115259576
 21
561.9741648807295
 31
0.0
  0
LINE
  5
4DA
330
2
100
AcDbEntity
  8
0
 62
   250
370
    30
100
AcDbLine
 10
1221.017561394918
 20
436.1770210673407
 30
0.0
 11
1248.022800620603
 21
467.3235718170438
 31
0.0
  0
LINE
  5
4DB
330
2
100
AcDbEntity
  8
0
 62
   250
370
    30
100
AcDbLine
 10
1234.520183050517
 20
451.7502946710455
 30
0.0
 11
1221.954894456793
 21
468.0892409304131
 31
0.0
  0
LINE
  5
4DC
330
2
100
AcDbEntity
  8
0
 62
   250
370
    30
100
AcDbLine
 10
1234.520183050517
 20
451.7502946710455
 30
0.0
 11
1246.712680813418
 21
435.131310327478
 31
0.0
  0
LINE
  5
4DD
330
2
100
AcDbEntity
  8
0
 62
   250
370
    30
100
AcDbLine
 10
1221.017561394918
 20
379.5115908095326
 30
0.0
 11
1248.022800620603
 21
410.6581415592358
 31
0.0
  0
LINE
  5
4DE
330
2
100
AcDbEntity
  8
0
 62
   250
370
    30
100
AcDbLine
 10
1234.520183050517
 20
395.0848644132374
 30
0.0
 11
1221.954894456793
 21
411.4238106726054
 31
0.0
  0
LINE
  5
4DF
330
2
100
AcDbEntity
  8
0
 62
   250
370
    30
100
AcDbLine
 10
1234.520183050517
 20
395.0848644132374
 30
0.0
 11
1246.712680813418
 21
378.4658800696699
 31
0.0
  0
LINE
  5
4E0
330
2
100
AcDbEntity
  8
0
 62
   250
370
    30
100
AcDbLine
 10
1221.080002877503
 20
320.103816059162
 30
0.0
 11
1248.085242103188
 21
351.2503668088652
 31
0.0
  0
LINE
  5
4E1
330
2
100
AcDbEntity
  8
0
 62
   250
370
    30
100
AcDbLine
 10
1234.582624533102
 20
335.6770896628668
 30
0.0
 11
1222.017335939378
 21
352.0160359222348
 31
0.0
  0
LINE
  5
4E2
330
2
100
AcDbEntity
  8
0
 62
   250
370
    30
100
AcDbLine
 10
1234.582624533102
 20
335.6770896628668
 30
0.0
 11
1246.775122296003
 21
319.0581053192993
 31
0.0
  0
LINE
  5
4E3
330
2
100
AcDbEntity
  8
0
 62
   250
370
    30
100
AcDbLine
 10
989.9526532609682
 20
435.4398263182958
 30
0.0
 11
1016.957892486653
 21
466.5863770679991
 31
0.0
  0
LINE
  5
4E4
330
2
100
AcDbEntity
  8
0
 62
   250
370
    30
100
AcDbLine
 10
1003.455274916567
 20
451.0130999220006
 30
0.0
 11
990.8899863228434
 21
467.3520461813687
 31
0.0
  0
LINE
  5
4E5
330
2
100
AcDbEntity
  8
0
 62
   250
370
    30
100
AcDbLine
 10
1003.455274916567
 20
451.0130999220006
 30
0.0
 11
1015.647772679468
 21
434.3941155784332
 31
0.0
  0
LINE
  5
4E6
330
2
100
AcDbEntity
  8
0
 62
   250
370
    30
100
AcDbLine
 10
989.9526532609682
 20
378.7743960606472
 30
0.0
 11
1016.957892486653
 21
409.92094681035
 31
0.0
  0
LINE
  5
4E7
330
2
100
AcDbEntity
  8
0
 62
   250
370
    30
100
AcDbLine
 10
1003.455274916567
 20
394.3476696643519
 30
0.0
 11
990.8899863228434
 21
410.6866159237197
 31
0.0
  0
LINE
  5
4E8
330
2
100
AcDbEntity
  8
0
 62
   250
370
    30
100
AcDbLine
 10
1003.455274916567
 20
394.3476696643519
 30
0.0
 11
1015.647772679468
 21
377.7286853207844
 31
0.0
  0
LINE
  5
4E9
330
2
100
AcDbEntity
  8
0
 62
   250
370
    30
100
AcDbLine
 10
990.0150947435792
 20
319.3666213102447
 30
0.0
 11
1017.020333969264
 21
350.5131720599478
 31
0.0
  0
LINE
  5
4EA
330
2
100
AcDbEntity
  8
0
 62
   250
370
    30
100
AcDbLine
 10
1003.517716399178
 20
334.9398949139493
 30
0.0
 11
990.9524278054542
 21
351.2788411733175
 31
0.0
  0
LINE
  5
4EB
330
2
100
AcDbEntity
  8
0
 62
   250
370
    30
100
AcDbLine
 10
1003.517716399178
 20
334.9398949139493
 30
0.0
 11
1015.710214162079
 21
318.3209105703819
 31
0.0
  0
LINE
  5
5FE
330
2
100
AcDbEntity
  8
TOPOVERLAY
  6
Continuous
 62
     3
370
   100
100
AcDbLine
 10
732.0778698662013
 20
675.5985971749367
 30
0.0
 11
732.0778698662013
 21
581.2038389636446
 31
0.0
  0
LINE
  5
5FF
330
2
100
AcDbEntity
  8
0
 62
   250
370
   100
100
AcDbLine
 10
684.8802893777299
 20
628.4012180692907
 30
0.0
 11
718.7656212051225
 21
628.4012180692907
 31
0.0
  0
LINE
  5
600
330
2
100
AcDbEntity
  8
0
 62
   250
370
   100
100
AcDbLine
 10
698.5836043086227
 20
628.4012180692907
 30
0.0
 11
718.7656212051225
 21
628.4012180692907
 31
0.0
  0
LINE
  5
602
330
2
100
AcDbEntity
  8
0
 62
   250
370
   100
100
AcDbLine
 10
745.3897157624886
 20
628.4012180692907
 30
0.0
 11
779.2750475898814
 21
628.4012180692907
 31
0.0
  0
LINE
  5
603
330
2
100
AcDbEntity
  8
0
 62
   250
370
   100
100
AcDbLine
 10
745.3897157624886
 20
628.4012180692907
 30
0.0
 11
768.4840300405551
 21
628.4012180692907
 31
0.0
  0
ARC
  5
690
330
2
100
AcDbEntity
  8
0
 62
   252
100
AcDbCircle
 10
617.8764404623666
 20
856.3992904409591
 30
0.0
 40
19.88045606348704
100
AcDbArc
 50
162.0486963503322
 51
20.11213206675568
  0
ARC
  5
6A3
330
2
100
AcDbEntity
  8
0
 62
   252
100
AcDbCircle
 10
618.2472219321501
 20
789.2460880659657
 30
0.0
 40
19.88045606348704
100
AcDbArc
 50
340.9682821417888
 51
199.0317178582113
  0
ARC
  5
6A4
330
2
100
AcDbEntity
  8
0
 62
   252
100
AcDbCircle
 10
677.4113550180925
 20
856.3992904409273
 30
0.0
 40
19.88045606348704
100
AcDbArc
 50
162.0486963503322
 51
20.11213206675568
  0
ARC
  5
6A5
330
2
100
AcDbEntity
  8
0
 62
   252
100
AcDbCircle
 10
677.7821364878757
 20
789.2460880659341
 30
0.0
 40
19.88045606348704
100
AcDbArc
 50
340.9682821417888
 51
199.0317178582113
  0
LINE
  5
732
330
2
100
AcDbEntity
  8
0
100
AcDbLine
 10
426.69499659131
 20
710.7731595790933
 30
0.0
 11
791.6009676748672
 21
1007.622263006352
 31
0.0
  0
LINE
  5
733
330
2
100
AcDbEntity
  8
0
100
AcDbLine
 10
791.6009676748672
 20
1007.622263006352
 30
0.0
 11
733.4477931819511
 21
734.7530957338476
 31
0.0
  0
LINE
  5
735
330
2
100
AcDbEntity
  8
0
100
AcDbLine
 10
426.69499659131
 20
710.7731595790933
 30
0.0
 11
436.2126615755786
 21
747.9907504918787
 31
0.0
  0
LINE
  5
736
330
2
100
AcDbEntity
  8
0
100
AcDbLine
 10
426.69499659131
 20
710.7731595790933
 30
0.0
 11
466.3972746793296
 21
723.5412385883527
 31
0.0
  0
LINE
  5
737
330
2
100
AcDbEntity
  8
0
100
AcDbLine
 10
733.4477931819511
 20
734.7530957338476
 30
0.0
 11
754.3077577197156
 21
766.1354620042902
 31
0.0
  0
LINE
  5
738
330
2
100
AcDbEntity
  8
0
100
AcDbLine
 10
733.4477931819511
 20
734.7530957338476
 30
0.0
 11
714.9592782961572
 21
769.9892948460333
 31
0.0
  0
LINE
  5
9B9
330
2
100
AcDbEntity
  8
6-家具-143
 62
   143
100
AcDbLine
 10
808.4584191892286
 20
955.8776918348343
 30
0.0
 11
806.0588847520053
 21
993.1718956333305
 31
0.0
  0
LINE
  5
9BA
330
2
100
AcDbEntity
  8
6-家具-143
 62
   143
100
AcDbLine
 10
835.1199129361884
 20
987.3113778935699
 30
0.0
 11
835.1199129361884
 21
956.4104661748233
 31
0.0
  0
LINE
  5
9BB
330
2
100
AcDbEntity
  8
6-家具-143
 62
   143
100
AcDbLine
 10
820.189476437889
 20
982.5164088337636
 30
0.0
 11
815.9236374383786
 21
990.5080239334333
 31
0.0
  0
LINE
  5
9BC
330
2
100
AcDbEntity
  8
6-家具-143
 62
   143
100
AcDbLine
 10
799.9495436196093
 20
992.0870686262334
 30
0.0
 11
799.0409479723536
 21
985.3432670745489
 31
0.0
  0
LINE
  5
9BD
330
2
100
AcDbEntity
  8
6-家具-143
 62
   143
100
AcDbLine
 10
802.4543204573323
 20
987.095814456274
 30
0.0
 11
803.5944501218496
 21
981.8556984256208
 31
0.0
  0
LINE
  5
9BE
330
2
100
AcDbEntity
  8
6-家具-143
 62
   143
100
AcDbLine
 10
836.2021585268891
 20
986.6401521927398
 30
0.0
 11
829.3613805398104
 21
989.6019569057228
 31
0.0
  0
LINE
  5
9BF
330
2
100
AcDbEntity
  8
6-家具-143
 62
   143
100
AcDbLine
 10
839.6225475204168
 20
1009.651096501336
 30
0.0
 11
845.0951699100777
 21
979.8052182397059
 31
0.0
  0
LINE
  5
9C0
330
2
100
AcDbEntity
  8
6-家具-143
 62
   143
100
AcDbLine
 10
828.4545394994541
 20
915.1204548265038
 30
0.0
 11
831.6539187490816
 21
916.1860035064583
 31
0.0
  0
LINE
  5
9C1
330
2
100
AcDbEntity
  8
6-家具-143
 62
   143
100
AcDbLine
 10
831.6539187490816
 20
916.1860035064583
 30
0.0
 11
834.3200681237844
 21
914.5876804865153
 31
0.0
  0
LINE
  5
9C2
330
2
100
AcDbEntity
  8
6-家具-143
 62
   143
100
AcDbLine
 10
811.3911835013999
 20
913.5221318065608
 30
0.0
 11
811.9244133763357
 21
914.8540676565096
 31
0.0
  0
LINE
  5
9C3
330
2
100
AcDbEntity
  8
6-家具-143
 62
   143
100
AcDbLine
 10
811.9244133763357
 20
914.8540676565096
 30
0.0
 11
815.6570225009103
 21
912.4565831266066
 31
0.0
  0
LINE
  5
9C4
330
2
100
AcDbEntity
  8
6-家具-143
 62
   143
100
AcDbLine
 10
815.6570225009103
 20
912.4565831266066
 30
0.0
 11
816.1902523758463
 21
912.4565831266066
 31
0.0
  0
LINE
  5
9C5
330
2
100
AcDbEntity
  8
6-家具-143
 62
   143
100
AcDbLine
 10
821.2559361877726
 20
954.8121431548798
 30
0.0
 11
820.189476437889
 21
952.1482714549826
 31
0.0
  0
LINE
  5
9C6
330
2
100
AcDbEntity
  8
6-家具-143
 62
   143
100
AcDbLine
 10
820.189476437889
 20
952.1482714549826
 30
0.0
 11
820.7227063128367
 21
951.8818842850116
 31
0.0
  0
LINE
  5
9C7
330
2
100
AcDbEntity
  8
6-家具-143
 62
   143
100
AcDbLine
 10
820.7227063128367
 20
951.8818842850116
 30
0.0
 11
818.5897868130815
 21
912.9893574665951
 31
0.0
  0
LINE
  5
9C8
330
2
100
AcDbEntity
  8
6-家具-143
 62
   143
100
AcDbLine
 10
818.5897868130815
 20
912.9893574665951
 30
0.0
 11
817.5233270631977
 21
912.7229702966008
 31
0.0
  0
LINE
  5
9C9
330
2
100
AcDbEntity
  8
6-家具-143
 62
   143
100
AcDbLine
 10
817.5233270631977
 20
912.7229702966008
 30
0.0
 11
819.6562465629533
 21
908.4607755767603
 31
0.0
  0
LINE
  5
9CA
330
2
100
AcDbEntity
  8
6-家具-143
 62
   143
100
AcDbLine
 10
819.6562465629533
 20
908.4607755767603
 30
0.0
 11
819.6562465629533
 21
906.8624525568404
 31
0.0
  0
LINE
  5
9CB
330
2
100
AcDbEntity
  8
6-家具-143
 62
   143
100
AcDbLine
 10
819.6562465629533
 20
906.8624525568404
 30
0.0
 11
811.9244133763357
 21
906.3296782168514
 31
0.0
  0
LINE
  5
9CC
330
2
100
AcDbEntity
  8
6-家具-143
 62
   143
100
AcDbLine
 10
811.9244133763357
 20
906.3296782168514
 30
0.0
 11
806.8587295644213
 21
906.596065386846
 31
0.0
  0
LINE
  5
9CD
330
2
100
AcDbEntity
  8
6-家具-143
 62
   143
100
AcDbLine
 10
806.8587295644213
 20
906.596065386846
 30
0.0
 11
803.6593503147821
 21
906.596065386846
 31
0.0
  0
LINE
  5
9CE
330
2
100
AcDbEntity
  8
6-家具-143
 62
   143
100
AcDbLine
 10
803.6593503147821
 20
906.596065386846
 30
0.0
 11
803.6593503147821
 21
908.993549916749
 31
0.0
  0
LINE
  5
9CF
330
2
100
AcDbEntity
  8
6-家具-143
 62
   143
100
AcDbLine
 10
803.6593503147821
 20
908.993549916749
 30
0.0
 11
809.7914938765802
 21
912.9893574665951
 31
0.0
  0
LINE
  5
9D0
330
2
100
AcDbEntity
  8
6-家具-143
 62
   143
100
AcDbLine
 10
809.7914938765802
 20
912.9893574665951
 30
0.0
 11
808.4584191892286
 21
952.1482714549826
 31
0.0
  0
LINE
  5
9D1
330
2
100
AcDbEntity
  8
6-家具-143
 62
   143
100
AcDbLine
 10
808.4584191892286
 20
952.1482714549826
 30
0.0
 11
808.9916490641765
 21
954.5457559848859
 31
0.0
  0
LINE
  5
9D2
330
2
100
AcDbEntity
  8
6-家具-143
 62
   143
100
AcDbLine
 10
808.9916490641765
 20
954.5457559848859
 30
0.0
 11
808.4584191892286
 21
955.8776918348343
 31
0.0
  0
LINE
  5
9D3
330
2
100
AcDbEntity
  8
6-家具-143
 62
   143
100
AcDbLine
 10
835.1199129361884
 20
956.4104661748233
 30
0.0
 11
835.9197577486041
 21
953.4802073049313
 31
0.0
  0
LINE
  5
9D4
330
2
100
AcDbEntity
  8
6-家具-143
 62
   143
100
AcDbLine
 10
835.9197577486041
 20
953.4802073049313
 30
0.0
 11
835.3865278736565
 21
914.0549061465495
 31
0.0
  0
LINE
  5
9D5
330
2
100
AcDbEntity
  8
6-家具-143
 62
   143
100
AcDbLine
 10
835.3865278736565
 20
914.0549061465495
 30
0.0
 11
832.720378498965
 21
913.2557446365662
 31
0.0
  0
LINE
  5
9D6
330
2
100
AcDbEntity
  8
6-家具-143
 62
   143
100
AcDbLine
 10
832.720378498965
 20
913.2557446365662
 30
0.0
 11
834.3200681237844
 21
910.0590985967034
 31
0.0
  0
LINE
  5
9D7
330
2
100
AcDbEntity
  8
6-家具-143
 62
   143
100
AcDbLine
 10
834.3200681237844
 20
910.0590985967034
 30
0.0
 11
835.9197577486041
 21
908.4607755767603
 31
0.0
  0
LINE
  5
9D8
330
2
100
AcDbEntity
  8
6-家具-143
 62
   143
100
AcDbLine
 10
835.9197577486041
 20
908.4607755767603
 30
0.0
 11
835.9197577486041
 21
906.8624525568404
 31
0.0
  0
LINE
  5
9D9
330
2
100
AcDbEntity
  8
6-家具-143
 62
   143
100
AcDbLine
 10
835.9197577486041
 20
906.8624525568404
 30
0.0
 11
831.9205336865611
 21
906.596065386846
 31
0.0
  0
LINE
  5
9DA
330
2
100
AcDbEntity
  8
6-家具-143
 62
   143
100
AcDbLine
 10
831.9205336865611
 20
906.596065386846
 30
0.0
 11
824.1887004999437
 21
906.3296782168514
 31
0.0
  0
LINE
  5
9DB
330
2
100
AcDbEntity
  8
6-家具-143
 62
   143
100
AcDbLine
 10
824.1887004999437
 20
906.3296782168514
 30
0.0
 11
823.1222407500602
 21
908.4607755767603
 31
0.0
  0
LINE
  5
9DC
330
2
100
AcDbEntity
  8
6-家具-143
 62
   143
100
AcDbLine
 10
823.1222407500602
 20
908.4607755767603
 30
0.0
 11
824.1887004999437
 21
910.3254857666975
 31
0.0
  0
LINE
  5
9DD
330
2
100
AcDbEntity
  8
6-家具-143
 62
   143
100
AcDbLine
 10
824.1887004999437
 20
910.3254857666975
 30
0.0
 11
827.3880797495706
 21
913.2557446365662
 31
0.0
  0
LINE
  5
9DE
330
2
100
AcDbEntity
  8
6-家具-143
 62
   143
100
AcDbLine
 10
827.3880797495706
 20
913.2557446365662
 30
0.0
 11
826.3216199996991
 21
914.5876804865153
 31
0.0
  0
LINE
  5
9DF
330
2
100
AcDbEntity
  8
6-家具-143
 62
   143
100
AcDbLine
 10
826.3216199996991
 20
914.5876804865153
 30
0.0
 11
822.5890108751242
 21
952.6810457949711
 31
0.0
  0
LINE
  5
9E0
330
2
100
AcDbEntity
  8
6-家具-143
 62
   143
100
AcDbLine
 10
822.5890108751242
 20
952.6810457949711
 30
0.0
 11
821.7891660627087
 21
955.3449174948688
 31
0.0
  0
LINE
  5
9E1
330
2
100
AcDbEntity
  8
6-家具-143
 62
   143
100
AcDbLine
 10
821.7891660627087
 20
955.3449174948688
 30
0.0
 11
820.189476437889
 21
982.5164088337636
 31
0.0
  0
LINE
  5
9E2
330
2
100
AcDbEntity
  8
6-家具-143
 62
   143
100
AcDbLine
 10
799.0409479723536
 20
985.3432670745489
 30
0.0
 11
799.8197442414232
 21
985.0838900917862
 31
0.0
  0
LINE
  5
9E3
330
2
100
AcDbEntity
  8
6-家具-143
 62
   143
100
AcDbLine
 10
799.8197442414232
 20
985.0838900917862
 30
0.0
 11
800.3389417541438
 21
983.6573166866275
 31
0.0
  0
LINE
  5
9E4
330
2
100
AcDbEntity
  8
6-家具-143
 62
   143
100
AcDbLine
 10
800.3389417541438
 20
983.6573166866275
 30
0.0
 11
801.2475374013993
 21
983.5276281952578
 31
0.0
  0
LINE
  5
9E5
330
2
100
AcDbEntity
  8
6-家具-143
 62
   143
100
AcDbLine
 10
801.2475374013993
 20
983.5276281952578
 30
0.0
 11
801.5071361577597
 21
982.4901202642079
 31
0.0
  0
LINE
  5
9E6
330
2
100
AcDbEntity
  8
6-家具-143
 62
   143
100
AcDbLine
 10
801.5071361577597
 20
982.4901202642079
 30
0.0
 11
803.1945280740844
 21
981.9713662987064
 31
0.0
  0
LINE
  5
9E7
330
2
100
AcDbEntity
  8
6-家具-143
 62
   143
100
AcDbLine
 10
803.5944501218496
 20
981.8556984256208
 30
0.0
 11
804.2785279205528
 21
978.8938937126147
 31
0.0
  0
LINE
  5
9E8
330
2
100
AcDbEntity
  8
6-家具-143
 62
   143
100
AcDbLine
 10
804.2785279205528
 20
978.8938937126147
 30
0.0
 11
806.7868131824761
 21
979.8052182397059
 31
0.0
  0
LINE
  5
9E9
330
2
100
AcDbEntity
  8
6-家具-143
 62
   143
100
AcDbLine
 10
844.1830661784617
 20
980.4887116349956
 30
0.0
 11
840.7626771849344
 21
982.7670229526887
 31
0.0
  0
LINE
  5
9EA
330
2
100
AcDbEntity
  8
6-家具-143
 62
   143
100
AcDbLine
 10
840.7626771849344
 20
982.7670229526887
 30
0.0
 11
836.2021585268891
 21
986.6401521927398
 31
0.0
  0
LINE
  5
9EB
330
2
100
AcDbEntity
  8
6-家具-143
 62
   143
100
AcDbLine
 10
845.0951699100777
 20
979.8052182397059
 30
0.0
 11
842.586884648154
 21
979.5773871079276
 31
0.0
  0
LINE
  5
9EC
330
2
100
AcDbEntity
  8
6-家具-143
 62
   143
100
AcDbLine
 10
842.586884648154
 20
979.5773871079276
 30
0.0
 11
838.4824178559114
 21
981.6278672938421
 31
0.0
  0
LINE
  5
9ED
330
2
100
AcDbEntity
  8
6-家具-143
 62
   143
100
AcDbLine
 10
838.4824178559114
 20
981.6278672938421
 30
0.0
 11
835.2900547952732
 21
982.3113606891549
 31
0.0
  0
LINE
  5
9EE
330
2
100
AcDbEntity
  8
6-家具-143
 62
   143
100
AcDbLine
 10
817.7922806744689
 20
1075.980917530432
 30
-0.000000000000001
 11
818.2600261779612
 21
1076.448263441836
 31
0.0000000000000018
  0
LINE
  5
9EF
330
2
100
AcDbEntity
  8
6-家具-143
 62
   143
100
AcDbLine
 10
818.2600261779612
 20
1076.448263441836
 30
0.0000000000000018
 11
819.1019680842401
 21
1076.167855894979
 31
0.000000000000002
  0
LINE
  5
9F0
330
2
100
AcDbEntity
  8
6-家具-143
 62
   143
100
AcDbLine
 10
812.3664328339851
 20
1076.541732624122
 30
-0.0000000000000009
 11
812.9277274381712
 21
1076.728670988692
 31
-0.0000000000000013
  0
LINE
  5
9F1
330
2
100
AcDbEntity
  8
6-家具-143
 62
   143
100
AcDbLine
 10
812.9277274381712
 20
1076.728670988692
 30
-0.0000000000000013
 11
813.4890220423571
 21
1076.074386712694
 31
0.0000000000000007
  0
LINE
  5
9F2
330
2
100
AcDbEntity
  8
6-家具-143
 62
   143
100
AcDbLine
 10
810.4954513220226
 20
1077.663362722723
 30
0.0
 11
812.6470806380842
 21
1078.13070863415
 31
0.0
  0
LINE
  5
9F3
330
2
100
AcDbEntity
  8
6-家具-143
 62
   143
100
AcDbLine
 10
812.6470806380842
 20
1078.13070863415
 30
0.0
 11
814.7987099541344
 21
1077.28948599358
 31
0.0
  0
LINE
  5
9F4
330
2
100
AcDbEntity
  8
6-家具-143
 62
   143
100
AcDbLine
 10
811.1502945249077
 20
1076.822140170978
 30
0.0
 11
813.3019238409692
 21
1076.915609353263
 31
0.0
  0
LINE
  5
9F5
330
2
100
AcDbEntity
  8
6-家具-143
 62
   143
100
AcDbLine
 10
813.3019238409692
 20
1076.915609353263
 30
0.0
 11
814.798709452128
 21
1076.35479425955
 31
0.0
  0
LINE
  5
9F6
330
2
100
AcDbEntity
  8
6-家具-143
 62
   143
100
AcDbLine
 10
814.798709452128
 20
1076.35479425955
 30
0.0
 11
814.4245130493413
 21
1075.793979165861
 31
0.0
  0
LINE
  5
9F7
330
2
100
AcDbEntity
  8
6-家具-143
 62
   143
100
AcDbLine
 10
814.4245130493413
 20
1075.793979165861
 30
0.0
 11
813.3954729416633
 21
1075.887448348146
 31
0.0
  0
LINE
  5
9F8
330
2
100
AcDbEntity
  8
6-家具-143
 62
   143
100
AcDbLine
 10
813.3954729416633
 20
1075.887448348146
 30
0.0
 11
811.6180400283997
 21
1076.35479425955
 31
0.0
  0
LINE
  5
9F9
330
2
100
AcDbEntity
  8
6-家具-143
 62
   143
100
AcDbLine
 10
816.8567899099544
 20
1077.196017041471
 30
0.0
 11
818.0729279792043
 21
1078.130708571565
 31
0.0
  0
LINE
  5
9FA
330
2
100
AcDbEntity
  8
6-家具-143
 62
   143
100
AcDbLine
 10
818.0729279792043
 20
1078.130708571565
 30
0.0
 11
820.972950045752
 21
1077.850301286224
 31
0.0
  0
LINE
  5
9FB
330
2
100
AcDbEntity
  8
6-家具-143
 62
   143
100
AcDbLine
 10
820.972950045752
 20
1077.850301286224
 30
0.0
 11
821.4406959737992
 21
1077.10254780163
 31
0.0
  0
LINE
  5
9FC
330
2
100
AcDbEntity
  8
6-家具-143
 62
   143
100
AcDbLine
 10
820.5987536954102
 20
1076.915609353263
 30
0.0
 11
819.3826153863332
 21
1077.009078535549
 31
0.0
  0
LINE
  5
9FD
330
2
100
AcDbEntity
  8
6-家具-143
 62
   143
100
AcDbLine
 10
819.3826153863332
 20
1077.009078535549
 30
0.0
 11
817.7922806744689
 21
1076.822140170978
 31
0.0
  0
LINE
  5
9FE
330
2
100
AcDbEntity
  8
6-家具-143
 62
   143
100
AcDbLine
 10
817.7922806744689
 20
1076.822140170978
 30
0.0
 11
817.0438878688836
 21
1076.35479425955
 31
0.0
  0
LINE
  5
9FF
330
2
100
AcDbEntity
  8
6-家具-143
 62
   143
100
AcDbLine
 10
817.0438878688836
 20
1076.35479425955
 30
0.0
 11
817.5116333723757
 21
1075.793979165861
 31
0.0
  0
LINE
  5
A00
330
2
100
AcDbEntity
  8
6-家具-143
 62
   143
100
AcDbLine
 10
817.5116333723757
 20
1075.793979165861
 30
0.0
 11
818.7277716814532
 21
1075.700509983575
 31
0.0
  0
LINE
  5
A01
330
2
100
AcDbEntity
  8
6-家具-143
 62
   143
100
AcDbLine
 10
818.7277716814532
 20
1075.700509983575
 30
0.0
 11
820.5987536954102
 21
1076.35479425955
 31
0.0
  0
LINE
  5
A02
330
2
100
AcDbEntity
  8
6-家具-143
 62
   143
100
AcDbLine
 10
813.2083747402642
 20
1069.064198041399
 30
0.0
 11
814.798709452128
 21
1069.531543952827
 31
0.0
  0
LINE
  5
A03
330
2
100
AcDbEntity
  8
6-家具-143
 62
   143
100
AcDbLine
 10
814.798709452128
 20
1069.531543952827
 30
0.0
 11
815.6406513584187
 21
1069.438074770541
 31
0.0
  0
LINE
  5
A04
330
2
100
AcDbEntity
  8
6-家具-143
 62
   143
100
AcDbLine
 10
815.6406513584187
 20
1069.438074770541
 30
0.0
 11
817.6051824730699
 21
1069.157667223685
 31
0.0
  0
LINE
  5
A05
330
2
100
AcDbEntity
  8
6-家具-143
 62
   143
100
AcDbLine
 10
813.8632184451555
 20
1071.681335145346
 30
0.0
 11
814.1438657472486
 21
1071.213989233942
 31
0.0
  0
LINE
  5
A06
330
2
100
AcDbEntity
  8
6-家具-143
 62
   143
100
AcDbLine
 10
814.1438657472486
 20
1071.213989233942
 30
0.0
 11
816.2019459626048
 21
1071.307458416227
 31
0.0
  0
LINE
  5
A07
330
2
100
AcDbEntity
  8
6-家具-143
 62
   143
100
AcDbLine
 10
816.2019459626048
 20
1071.307458416227
 30
0.0
 11
817.230986070283
 21
1071.774804327655
 31
0.0
  0
LINE
  5
A08
330
2
100
AcDbEntity
  8
6-家具-143
 62
   143
100
AcDbLine
 10
826.5858961400804
 20
1077.569893629262
 30
0.0
 11
827.0536416435723
 21
1078.224177905237
 31
0.0
  0
LINE
  5
A09
330
2
100
AcDbEntity
  8
6-家具-143
 62
   143
100
AcDbLine
 10
827.0536416435723
 20
1078.224177905237
 30
0.0
 11
827.8955835498514
 21
1078.504585452093
 31
0.0
  0
LINE
  5
A0A
330
2
100
AcDbEntity
  8
6-家具-143
 62
   143
100
AcDbLine
 10
827.8955835498514
 20
1078.504585452093
 30
0.0
 11
828.5504272547427
 21
1077.850301176096
 31
0.0
  0
LINE
  5
A0B
330
2
100
AcDbEntity
  8
6-家具-143
 62
   143
100
AcDbLine
 10
828.5504272547427
 20
1077.850301176096
 30
0.0
 11
828.9246236575296
 21
1076.915609353263
 31
0.0
  0
LINE
  5
A0C
330
2
100
AcDbEntity
  8
6-家具-143
 62
   143
100
AcDbLine
 10
828.9246236575296
 20
1076.915609353263
 30
0.0
 11
828.6439763554364
 21
1075.139694889863
 31
0.0
  0
LINE
  5
A0D
330
2
100
AcDbEntity
  8
6-家具-143
 62
   143
100
AcDbLine
 10
828.6439763554364
 20
1075.139694889863
 30
0.0
 11
828.0826817512503
 21
1073.831126337889
 31
0.0
  0
LINE
  5
A0E
330
2
100
AcDbEntity
  8
6-家具-143
 62
   143
100
AcDbLine
 10
828.0826817512503
 20
1073.831126337889
 30
0.0
 11
827.0536416435723
 21
1072.709496150486
 31
0.0
  0
LINE
  5
A0F
330
2
100
AcDbEntity
  8
6-家具-143
 62
   143
100
AcDbLine
 10
827.0536416435723
 20
1072.709496150486
 30
0.0
 11
826.3987979386808
 21
1071.868273509917
 31
0.0
  0
LINE
  5
A10
330
2
100
AcDbEntity
  8
6-家具-143
 62
   143
100
AcDbLine
 10
826.3987979386808
 20
1071.868273509917
 30
0.0
 11
825.8375033344949
 21
1071.587865963084
 31
0.0
  0
LINE
  5
A11
330
2
100
AcDbEntity
  8
6-家具-143
 62
   143
100
AcDbLine
 10
825.8375033344949
 20
1071.587865963084
 30
0.0
 11
825.6504051330958
 21
1072.148681056773
 31
0.0
  0
LINE
  5
A12
330
2
100
AcDbEntity
  8
6-家具-143
 62
   143
100
AcDbLine
 10
814.5180621500353
 20
1068.409913765424
 30
0.0
 11
816.2019459626048
 21
1068.316444583139
 31
0.0
  0
LINE
  5
A13
330
2
100
AcDbEntity
  8
6-家具-143
 62
   143
100
AcDbLine
 10
812.9277274381712
 20
1064.203800562647
 30
0.0
 11
812.8341783374771
 21
1063.923393015791
 31
0.0
  0
LINE
  5
A14
330
2
100
AcDbEntity
  8
6-家具-143
 62
   143
100
AcDbLine
 10
812.8341783374771
 20
1063.923393015791
 30
0.0
 11
814.9858076535274
 21
1063.642985468935
 31
0.0
  0
LINE
  5
A15
330
2
100
AcDbEntity
  8
6-家具-143
 62
   143
100
AcDbLine
 10
825.8375033344949
 20
1064.764615656337
 30
0.0
 11
826.2116997372935
 21
1064.203800562647
 31
0.0
  0
LINE
  5
A16
330
2
100
AcDbEntity
  8
6-家具-143
 62
   143
100
AcDbLine
 10
826.2116997372935
 20
1064.203800562647
 30
0.0
 11
823.1245794142589
 21
1063.73645465122
 31
0.0
  0
LINE
  5
A17
330
2
100
AcDbEntity
  8
6-家具-143
 62
   143
100
AcDbLine
 10
823.1245794142589
 20
1063.73645465122
 30
0.0
 11
819.5697135877322
 21
1063.73645465122
 31
0.0
  0
LINE
  5
A18
330
2
100
AcDbEntity
  8
6-家具-143
 62
   143
100
AcDbLine
 10
814.8922585528337
 20
1062.054009370105
 30
0.0
 11
816.2954950632984
 21
1058.96952635473
 31
0.0
  0
LINE
  5
A19
330
2
100
AcDbEntity
  8
6-家具-143
 62
   143
100
AcDbLine
 10
816.2954950632984
 20
1058.96952635473
 30
0.0
 11
816.9503387681899
 21
1058.408711261042
 31
0.0
  0
LINE
  5
A1A
330
2
100
AcDbEntity
  8
6-家具-143
 62
   143
100
AcDbLine
 10
816.9503387681899
 20
1058.408711261042
 30
0.0
 11
818.6342225807479
 21
1059.062995537016
 31
0.0
  0
LINE
  5
A1B
330
2
100
AcDbEntity
  8
6-家具-143
 62
   143
100
AcDbLine
 10
818.6342225807479
 20
1059.062995537016
 30
0.0
 11
819.7568117891313
 21
1061.773601823248
 31
0.0
  0
LINE
  5
A1C
330
2
100
AcDbEntity
  8
6-家具-143
 62
   143
100
AcDbLine
 10
813.5825711430625
 20
1064.577677291766
 30
0.0
 11
812.7406292367718
 21
1064.577677291766
 31
0.0
  0
LINE
  5
A1D
330
2
100
AcDbEntity
  8
6-家具-143
 62
   143
100
AcDbLine
 10
812.7406292367718
 20
1064.577677291766
 30
0.0
 11
812.0857855318922
 21
1064.110331380362
 31
0.0
  0
LINE
  5
A1E
330
2
100
AcDbEntity
  8
6-家具-143
 62
   143
100
AcDbLine
 10
812.0857855318922
 20
1064.110331380362
 30
0.0
 11
810.6825490214154
 21
1058.22177289647
 31
0.0
  0
LINE
  5
A1F
330
2
100
AcDbEntity
  8
6-家具-143
 62
   143
100
AcDbLine
 10
810.6825490214154
 20
1058.22177289647
 30
0.0
 11
814.3309639486476
 21
1062.054009370105
 31
0.0
  0
LINE
  5
A20
330
2
100
AcDbEntity
  8
6-家具-143
 62
   143
100
AcDbLine
 10
814.3309639486476
 20
1062.054009370105
 30
0.0
 11
815.9212986605119
 21
1063.549516286649
 31
0.0
  0
LINE
  5
A21
330
2
100
AcDbEntity
  8
6-家具-143
 62
   143
100
AcDbLine
 10
815.9212986605119
 20
1063.549516286649
 30
0.0
 11
819.1019680842401
 21
1063.456047104365
 31
0.0
  0
LINE
  5
A22
330
2
100
AcDbEntity
  8
6-家具-143
 62
   143
100
AcDbLine
 10
819.1019680842401
 20
1063.456047104365
 30
0.0
 11
823.0310303135532
 21
1057.567488620471
 31
0.0
  0
LINE
  5
A23
330
2
100
AcDbEntity
  8
6-家具-143
 62
   143
100
AcDbLine
 10
823.0310303135532
 20
1057.567488620471
 30
0.0
 11
826.2116997372935
 21
1059.623810630729
 31
0.0
  0
LINE
  5
A24
330
2
100
AcDbEntity
  8
6-家具-143
 62
   143
100
AcDbLine
 10
826.2116997372935
 20
1059.623810630729
 30
0.0
 11
828.0826817512503
 21
1060.838910000417
 31
0.0
  0
LINE
  5
A25
330
2
100
AcDbEntity
  8
6-家具-143
 62
   143
100
AcDbLine
 10
828.0826817512503
 20
1060.838910000417
 30
0.0
 11
827.5213871470647
 21
1062.708293646103
 31
0.0
  0
LINE
  5
A26
330
2
100
AcDbEntity
  8
6-家具-143
 62
   143
100
AcDbLine
 10
827.5213871470647
 20
1062.708293646103
 30
0.0
 11
827.2407398449717
 21
1064.858084838622
 31
0.0
  0
LINE
  5
A27
330
2
100
AcDbEntity
  8
6-家具-143
 62
   143
100
AcDbLine
 10
827.2407398449717
 20
1064.858084838622
 30
0.0
 11
826.3052488379869
 21
1064.764615656337
 31
0.0
  0
LINE
  5
A28
330
2
100
AcDbEntity
  8
6-家具-143
 62
   143
100
AcDbLine
 10
827.4278380463591
 20
1072.896434515057
 30
0.0
 11
826.4923470393863
 21
1070.559704957944
 31
0.0
  0
LINE
  5
A29
330
2
100
AcDbEntity
  8
6-家具-143
 62
   143
100
AcDbLine
 10
826.4923470393863
 20
1070.559704957944
 30
0.0
 11
826.1181506365879
 21
1066.820937666594
 31
0.0
  0
LINE
  5
A2A
330
2
100
AcDbEntity
  8
6-家具-143
 62
   143
100
AcDbLine
 10
826.1181506365879
 20
1066.820937666594
 30
0.0
 11
825.9310524352004
 21
1064.764615656337
 31
0.0
  0
LINE
  5
A2B
330
2
100
AcDbEntity
  8
6-家具-143
 62
   143
100
AcDbLine
 10
810.7760981221211
 20
1084.767020665127
 30
0.0
 11
811.3373927263067
 21
1085.421304941102
 31
0.0
  0
LINE
  5
A2C
330
2
100
AcDbEntity
  8
6-家具-143
 62
   143
100
AcDbLine
 10
811.3373927263067
 20
1085.421304941102
 30
0.0
 11
815.2664549556202
 21
1085.608243305673
 31
0.0
  0
LINE
  5
A2D
330
2
100
AcDbEntity
  8
6-家具-143
 62
   143
100
AcDbLine
 10
815.2664549556202
 20
1085.608243305673
 30
0.0
 11
819.6632626884259
 21
1085.514774123389
 31
0.0
  0
LINE
  5
A2E
330
2
100
AcDbEntity
  8
6-家具-143
 62
   143
100
AcDbLine
 10
819.6632626884259
 20
1085.514774123389
 30
0.0
 11
821.7213429037823
 21
1085.140897394246
 31
0.0
  0
LINE
  5
A2F
330
2
100
AcDbEntity
  8
6-家具-143
 62
   143
100
AcDbLine
 10
821.7213429037823
 20
1085.140897394246
 30
0.0
 11
823.7794231191386
 21
1084.2996747537
 31
0.0
  0
LINE
  5
A30
330
2
100
AcDbEntity
  8
6-家具-143
 62
   143
100
AcDbLine
 10
823.7794231191386
 20
1084.2996747537
 30
0.0
 11
824.8084632268168
 21
1082.243352743442
 31
0.0
  0
LINE
  5
A31
330
2
100
AcDbEntity
  8
6-家具-143
 62
   143
100
AcDbLine
 10
824.8084632268168
 20
1082.243352743442
 30
0.0
 11
825.1826596296151
 21
1080.280499915471
 31
0.0
  0
LINE
  5
A32
330
2
100
AcDbEntity
  8
6-家具-143
 62
   143
100
AcDbLine
 10
825.1826596296151
 20
1080.280499915471
 30
0.0
 11
826.2116997372935
 21
1079.345808092639
 31
0.0
  0
LINE
  5
A33
330
2
100
AcDbEntity
  8
6-家具-143
 62
   143
100
AcDbLine
 10
826.2116997372935
 20
1079.345808092639
 30
0.0
 11
826.2116997372935
 21
1078.504585452093
 31
0.0
  0
LINE
  5
A34
330
2
100
AcDbEntity
  8
6-家具-143
 62
   143
100
AcDbLine
 10
826.2116997372935
 20
1078.504585452093
 30
0.0
 11
826.5858961400804
 21
1078.317647087522
 31
0.0
  0
LINE
  5
A35
330
2
100
AcDbEntity
  8
6-家具-143
 62
   143
100
AcDbLine
 10
814.5180621500353
 20
1064.016862198077
 30
0.0
 11
813.8632184451555
 21
1065.045023203194
 31
0.0
  0
LINE
  5
A36
330
2
100
AcDbEntity
  8
6-家具-143
 62
   143
100
AcDbLine
 10
813.8632184451555
 20
1065.045023203194
 30
0.0
 11
812.9277274381712
 21
1065.231961567764
 31
0.0
  0
LINE
  5
A37
330
2
100
AcDbEntity
  8
6-家具-143
 62
   143
100
AcDbLine
 10
812.9277274381712
 20
1065.231961567764
 30
0.0
 11
811.898687330493
 21
1066.447060937452
 31
0.0
  0
LINE
  5
A38
330
2
100
AcDbEntity
  8
6-家具-143
 62
   143
100
AcDbLine
 10
811.898687330493
 20
1066.447060937452
 30
0.0
 11
810.6825490214154
 21
1068.877259676829
 31
0.0
  0
LINE
  5
A39
330
2
100
AcDbEntity
  8
6-家具-143
 62
   143
100
AcDbLine
 10
810.6825490214154
 20
1068.877259676829
 30
0.0
 11
809.6535089137374
 21
1073.270311244177
 31
0.0
  0
LINE
  5
A3A
330
2
100
AcDbEntity
  8
6-家具-143
 62
   143
100
AcDbLine
 10
809.6535089137374
 20
1073.270311244177
 30
0.0
 11
810.4019017193227
 21
1076.167855894979
 31
0.0
  0
LINE
  5
A3B
330
2
100
AcDbEntity
  8
6-家具-143
 62
   143
100
AcDbLine
 10
810.4019017193227
 20
1076.167855894979
 30
0.0
 11
809.8406071151366
 21
1077.382955264691
 31
0.0
  0
LINE
  5
A3C
330
2
100
AcDbEntity
  8
6-家具-143
 62
   143
100
AcDbLine
 10
809.8406071151366
 20
1077.382955264691
 30
0.0
 11
809.8406071151366
 21
1080.187030733208
 31
0.0
  0
LINE
  5
A3D
330
2
100
AcDbEntity
  8
6-家具-143
 62
   143
100
AcDbLine
 10
809.8406071151366
 20
1080.187030733208
 30
0.0
 11
810.5889999207217
 21
1084.486613118271
 31
0.0
  0
LINE
  5
A3E
330
2
100
AcDbEntity
  8
6-家具-143
 62
   143
100
AcDbLine
 10
810.5889999207217
 20
1084.486613118271
 30
0.0
 11
810.4019017193227
 21
1086.63640431079
 31
0.0
  0
LINE
  5
A3F
330
2
100
AcDbEntity
  8
6-家具-143
 62
   143
100
AcDbLine
 10
810.4019017193227
 20
1086.63640431079
 30
0.0
 11
811.7115891290936
 21
1087.944972862764
 31
0.0
  0
LINE
  5
A40
330
2
100
AcDbEntity
  8
6-家具-143
 62
   143
100
AcDbLine
 10
811.7115891290936
 20
1087.944972862764
 30
0.0
 11
816.669691466097
 21
1088.786195503334
 31
0.0
  0
LINE
  5
A41
330
2
100
AcDbEntity
  8
6-家具-143
 62
   143
100
AcDbLine
 10
816.669691466097
 20
1088.786195503334
 30
0.0
 11
823.8729722198439
 21
1088.412318774191
 31
0.0
  0
LINE
  5
A42
330
2
100
AcDbEntity
  8
6-家具-143
 62
   143
100
AcDbLine
 10
823.8729722198439
 20
1088.412318774191
 30
0.0
 11
826.6794452407738
 21
1087.664565315907
 31
0.0
  0
LINE
  5
A43
330
2
100
AcDbEntity
  8
6-家具-143
 62
   143
100
AcDbLine
 10
826.6794452407738
 20
1087.664565315907
 30
0.0
 11
828.1762308519441
 21
1085.04742821196
 31
0.0
  0
LINE
  5
A44
330
2
100
AcDbEntity
  8
6-家具-143
 62
   143
100
AcDbLine
 10
828.1762308519441
 20
1085.04742821196
 30
0.0
 11
828.9246236575296
 21
1082.243352743442
 31
0.0
  0
LINE
  5
A45
330
2
100
AcDbEntity
  8
6-家具-143
 62
   143
100
AcDbLine
 10
828.9246236575296
 20
1082.243352743442
 30
0.0
 11
828.5504272547427
 21
1079.906623186352
 31
0.0
  0
LINE
  5
A46
330
2
100
AcDbEntity
  8
6-家具-143
 62
   143
100
AcDbLine
 10
828.5504272547427
 20
1079.906623186352
 30
0.0
 11
827.8955835498514
 21
1078.59805463438
 31
0.0
  0
LINE
  5
A47
330
2
100
AcDbEntity
  8
6-家具-143
 62
   143
100
AcDbLine
 10
825.9409915462825
 20
1029.244573833392
 30
0.0
 11
829.5894064727114
 21
1029.700236096926
 31
0.0
  0
LINE
  5
A48
330
2
100
AcDbEntity
  8
6-家具-143
 62
   143
100
AcDbLine
 10
829.5894064727114
 20
1029.700236096926
 30
0.0
 11
834.3779510636691
 21
1031.97854741462
 31
0.0
  0
LINE
  5
A49
330
2
100
AcDbEntity
  8
6-家具-143
 62
   143
100
AcDbLine
 10
834.3779510636691
 20
1031.97854741462
 30
0.0
 11
837.1142622584935
 21
1031.97854741462
 31
0.0
  0
LINE
  5
A4A
330
2
100
AcDbEntity
  8
6-家具-143
 62
   143
100
AcDbLine
 10
837.1142622584935
 20
1031.97854741462
 30
0.0
 11
835.5180807281746
 21
1032.434209678154
 31
0.0
  0
LINE
  5
A4B
330
2
100
AcDbEntity
  8
6-家具-143
 62
   143
100
AcDbLine
 10
835.5180807281746
 20
1032.434209678154
 30
0.0
 11
837.3422881913946
 21
1040.408299290034
 31
0.0
  0
LINE
  5
A4C
330
2
100
AcDbEntity
  8
6-家具-143
 62
   143
100
AcDbLine
 10
837.3422881913946
 20
1040.408299290034
 30
0.0
 11
834.834002929471
 21
1038.813481367653
 31
0.0
  0
LINE
  5
A4D
330
2
100
AcDbEntity
  8
6-家具-143
 62
   143
100
AcDbLine
 10
810.8912799747187
 20
1010.562421028404
 30
0.0
 11
814.5396949011592
 21
1009.651096501336
 31
0.0
  0
LINE
  5
A4E
330
2
100
AcDbEntity
  8
6-家具-143
 62
   143
100
AcDbLine
 10
814.5396949011592
 20
1009.651096501336
 30
0.0
 11
819.1002135592038
 21
1010.33458989665
 31
0.0
  0
LINE
  5
A4F
330
2
100
AcDbEntity
  8
6-家具-143
 62
   143
100
AcDbLine
 10
826.4286167681209
 20
1028.010780738149
 30
0.0
 11
825.5200211208771
 21
1028.140469229519
 31
0.0
  0
LINE
  5
A50
330
2
100
AcDbEntity
  8
6-家具-143
 62
   143
100
AcDbLine
 10
825.5200211208771
 20
1028.140469229519
 30
0.0
 11
824.6114254736216
 21
1030.345173582965
 31
0.0
  0
LINE
  5
A51
330
2
100
AcDbEntity
  8
6-家具-143
 62
   143
100
AcDbLine
 10
824.6114254736216
 20
1030.345173582965
 30
0.0
 11
823.3134316918315
 21
1031.771746988147
 31
0.0
  0
LINE
  5
A52
330
2
100
AcDbEntity
  8
6-家具-143
 62
   143
100
AcDbLine
 10
823.3134316918315
 20
1031.771746988147
 30
0.0
 11
822.1452372882158
 21
1031.771746988147
 31
0.0
  0
LINE
  5
A53
330
2
100
AcDbEntity
  8
6-家具-143
 62
   143
100
AcDbLine
 10
822.1452372882158
 20
1031.771746988147
 30
0.0
 11
820.3280459937166
 21
1032.160812462279
 31
0.0
  0
LINE
  5
A54
330
2
100
AcDbEntity
  8
6-家具-143
 62
   143
100
AcDbLine
 10
820.3280459937166
 20
1032.160812462279
 30
0.0
 11
819.8088484809957
 21
1031.252993022622
 31
0.0
  0
LINE
  5
A55
330
2
100
AcDbEntity
  8
6-家具-143
 62
   143
100
AcDbLine
 10
819.8088484809957
 20
1031.252993022622
 30
0.0
 11
820.1982466155307
 21
1030.215485091595
 31
0.0
  0
LINE
  5
A56
330
2
100
AcDbEntity
  8
6-家具-143
 62
   143
100
AcDbLine
 10
820.1982466155307
 20
1030.215485091595
 30
0.0
 11
821.6260397755068
 21
1029.567042634701
 31
0.0
  0
LINE
  5
A57
330
2
100
AcDbEntity
  8
6-家具-143
 62
   143
100
AcDbLine
 10
821.6260397755068
 20
1029.567042634701
 30
0.0
 11
822.5346354227504
 21
1028.399846212281
 31
0.0
  0
LINE
  5
A58
330
2
100
AcDbEntity
  8
6-家具-143
 62
   143
100
AcDbLine
 10
822.5346354227504
 20
1028.399846212281
 30
0.0
 11
820.9770428846116
 21
1026.71389582436
 31
0.0
  0
LINE
  5
A59
330
2
100
AcDbEntity
  8
6-家具-143
 62
   143
100
AcDbLine
 10
820.9770428846116
 20
1026.71389582436
 30
0.0
 11
817.7320584301362
 21
1024.768568453676
 31
0.0
  0
LINE
  5
A5A
330
2
100
AcDbEntity
  8
6-家具-143
 62
   143
100
AcDbLine
 10
817.7320584301362
 20
1024.768568453676
 30
0.0
 11
817.472459673776
 21
1023.341995048518
 31
0.0
  0
LINE
  5
A5B
330
2
100
AcDbEntity
  8
6-家具-143
 62
   143
100
AcDbLine
 10
817.472459673776
 20
1023.341995048518
 30
0.0
 11
818.770453455566
 21
1023.082618065755
 31
0.0
  0
LINE
  5
A5C
330
2
100
AcDbEntity
  8
6-家具-143
 62
   143
100
AcDbLine
 10
818.770453455566
 20
1023.082618065755
 30
0.0
 11
816.8234627828811
 21
1021.137290695071
 31
0.0
  0
LINE
  5
A5D
330
2
100
AcDbEntity
  8
6-家具-143
 62
   143
100
AcDbLine
 10
816.8234627828811
 20
1021.137290695071
 30
0.0
 11
816.9532621610551
 21
1020.359159746807
 31
0.0
  0
LINE
  5
A5E
330
2
100
AcDbEntity
  8
6-家具-143
 62
   143
100
AcDbLine
 10
816.9532621610551
 20
1020.359159746807
 30
0.0
 11
817.6022590519503
 21
1019.840405781282
 31
0.0
  0
LINE
  5
A5F
330
2
100
AcDbEntity
  8
6-家具-143
 62
   143
100
AcDbLine
 10
817.6022590519503
 20
1019.840405781282
 30
0.0
 11
816.9532621610551
 21
1018.802897850257
 31
0.0
  0
LINE
  5
A60
330
2
100
AcDbEntity
  8
6-家具-143
 62
   143
100
AcDbLine
 10
816.9532621610551
 20
1018.802897850257
 30
0.0
 11
817.7320584301362
 21
1018.024766901992
 31
0.0
  0
LINE
  5
A61
330
2
100
AcDbEntity
  8
6-家具-143
 62
   143
100
AcDbLine
 10
817.7320584301362
 20
1018.024766901992
 30
0.0
 11
817.472459673776
 21
1016.598193496834
 31
0.0
  0
LINE
  5
A62
330
2
100
AcDbEntity
  8
6-家具-143
 62
   143
100
AcDbLine
 10
817.472459673776
 20
1016.598193496834
 30
0.0
 11
818.1214565646708
 21
1015.690374057176
 31
0.0
  0
LINE
  5
A63
330
2
100
AcDbEntity
  8
6-家具-143
 62
   143
100
AcDbLine
 10
818.1214565646708
 20
1015.690374057176
 30
0.0
 11
819.8088484809957
 21
1016.209128022677
 31
0.0
  0
LINE
  5
A64
330
2
100
AcDbEntity
  8
6-家具-143
 62
   143
100
AcDbLine
 10
819.8088484809957
 20
1016.209128022677
 30
0.0
 11
822.6644348009363
 21
1018.543520867517
 31
0.0
  0
LINE
  5
A65
330
2
100
AcDbEntity
  8
6-家具-143
 62
   143
100
AcDbLine
 10
822.6644348009363
 20
1018.543520867517
 30
0.0
 11
824.3518267172614
 21
1021.137290695071
 31
0.0
  0
LINE
  5
A66
330
2
100
AcDbEntity
  8
6-家具-143
 62
   143
100
AcDbLine
 10
824.3518267172614
 20
1021.137290695071
 30
0.0
 11
826.4286167681209
 21
1022.563864100253
 31
0.0
  0
LINE
  5
A67
330
2
100
AcDbEntity
  8
6-家具-143
 62
   143
100
AcDbLine
 10
826.4286167681209
 20
1022.563864100253
 30
0.0
 11
828.5054068189921
 21
1022.045110134728
 31
0.0
  0
LINE
  5
A68
330
2
100
AcDbEntity
  8
6-家具-143
 62
   143
100
AcDbLine
 10
827.0811212107881
 20
1020.586990826199
 30
0.0
 11
829.1333546069095
 21
1021.726146485046
 31
0.0
  0
LINE
  5
A69
330
2
100
AcDbEntity
  8
6-家具-143
 62
   143
100
AcDbLine
 10
829.1333546069095
 20
1021.726146485046
 30
0.0
 11
830.0454583385253
 21
1024.915782329807
 31
0.0
  0
LINE
  5
A6A
330
2
100
AcDbEntity
  8
6-家具-143
 62
   143
100
AcDbLine
 10
830.0454583385253
 20
1024.915782329807
 30
0.0
 11
829.3613805398104
 21
1027.87758704279
 31
0.0
  0
LINE
  5
A6B
330
2
100
AcDbEntity
  8
6-家具-143
 62
   143
100
AcDbLine
 10
829.3613805398104
 20
1027.87758704279
 30
0.0
 11
827.3091471436892
 21
1029.016742701637
 31
0.0
  0
LINE
  5
A6C
330
2
100
AcDbEntity
  8
6-家具-143
 62
   143
100
AcDbLine
 10
827.3091471436892
 20
1029.016742701637
 30
0.0
 11
825.9409915462825
 21
1029.244573833392
 31
0.0
  0
LINE
  5
A6D
330
2
100
AcDbEntity
  8
6-家具-143
 62
   143
100
AcDbLine
 10
818.2975464044478
 20
1058.111517371907
 30
0.0
 11
817.5259852324137
 21
1049.246148043191
 31
0.0
  0
LINE
  5
A6E
330
2
100
AcDbEntity
  8
6-家具-143
 62
   143
100
AcDbLine
 10
817.5259852324137
 20
1049.246148043191
 30
0.0
 11
818.1046561114365
 21
1037.489897148073
 31
0.0
  0
LINE
  5
A6F
330
2
100
AcDbEntity
  8
6-家具-143
 62
   143
100
AcDbLine
 10
818.1046561114365
 20
1037.489897148073
 30
0.0
 11
818.2975464044478
 21
1032.286310701603
 31
0.0
  0
LINE
  5
A70
330
2
100
AcDbEntity
  8
6-家具-143
 62
   143
100
AcDbLine
 10
818.2975464044478
 20
1032.286310701603
 30
0.0
 11
819.4548874411259
 21
1026.889999159281
 31
0.0
  0
LINE
  5
A71
330
2
100
AcDbEntity
  8
6-家具-143
 62
   143
100
AcDbLine
 10
831.641639868833
 20
1059.318283226801
 30
0.0
 11
830.9575620701297
 21
1055.44515398675
 31
0.0
  0
LINE
  5
A72
330
2
100
AcDbEntity
  8
6-家具-143
 62
   143
100
AcDbLine
 10
830.9575620701297
 20
1055.44515398675
 30
0.0
 11
827.9932249424042
 21
1053.85033606437
 31
0.0
  0
LINE
  5
A73
330
2
100
AcDbEntity
  8
6-家具-143
 62
   143
100
AcDbLine
 10
827.9932249424042
 20
1053.85033606437
 30
0.0
 11
830.7295361372283
 21
1052.711180405523
 31
0.0
  0
LINE
  5
A74
330
2
100
AcDbEntity
  8
6-家具-143
 62
   143
100
AcDbLine
 10
830.7295361372283
 20
1052.711180405523
 30
0.0
 11
827.9932249424042
 21
1049.293713429006
 31
0.0
  0
LINE
  5
A75
330
2
100
AcDbEntity
  8
6-家具-143
 62
   143
100
AcDbLine
 10
827.9932249424042
 20
1049.293713429006
 30
0.0
 11
826.1690174791837
 21
1042.003117212416
 31
0.0
  0
LINE
  5
A76
330
2
100
AcDbEntity
  8
6-家具-143
 62
   143
100
AcDbLine
 10
826.1690174791837
 20
1042.003117212416
 30
0.0
 11
824.5728359488646
 21
1032.206378546375
 31
0.0
  0
LINE
  5
A77
330
2
100
AcDbEntity
  8
6-家具-143
 62
   143
100
AcDbLine
 10
827.7651990094913
 20
1061.140932280961
 30
0.0
 11
823.8887581501613
 21
1053.166842669057
 31
0.0
  0
LINE
  5
A78
330
2
100
AcDbEntity
  8
6-家具-143
 62
   143
100
AcDbLine
 10
823.8887581501613
 20
1053.166842669057
 30
0.0
 11
820.9244210224241
 21
1046.331908716023
 31
0.0
  0
LINE
  5
A79
330
2
100
AcDbEntity
  8
6-家具-143
 62
   143
100
AcDbLine
 10
820.9244210224241
 20
1046.331908716023
 30
0.0
 11
820.2403432237211
 21
1037.446494577051
 31
0.0
  0
LINE
  5
A7A
330
2
100
AcDbEntity
  8
6-家具-143
 62
   143
100
AcDbLine
 10
820.2403432237211
 20
1037.446494577051
 30
0.0
 11
820.0123172908199
 21
1032.662040809932
 31
0.0
  0
LINE
  5
A7B
330
2
100
AcDbEntity
  8
6-家具-143
 62
   143
100
AcDbLine
 10
810.6632540418177
 20
1061.368763412716
 30
0.0
 11
808.3829947127952
 21
1058.634789831488
 31
0.0
  0
LINE
  5
A7C
330
2
100
AcDbEntity
  8
6-家具-143
 62
   143
100
AcDbLine
 10
808.3829947127952
 20
1058.634789831488
 30
0.0
 11
807.6989169140921
 21
1052.02768701021
 31
0.0
  0
LINE
  5
A7D
330
2
100
AcDbEntity
  8
6-家具-143
 62
   143
100
AcDbLine
 10
807.6989169140921
 20
1052.02768701021
 30
0.0
 11
808.1549687798942
 21
1040.863961553568
 31
0.0
  0
LINE
  5
A7E
330
2
100
AcDbEntity
  8
6-家具-143
 62
   143
100
AcDbLine
 10
808.1549687798942
 20
1040.863961553568
 30
0.0
 11
810.4352281089166
 21
1024.915782329807
 31
0.0
  0
LINE
  5
A7F
330
2
100
AcDbEntity
  8
6-家具-143
 62
   143
100
AcDbLine
 10
815.4517986327633
 20
1058.862620963267
 30
0.0
 11
812.7154874379389
 21
1049.977206824319
 31
0.0
  0
LINE
  5
A80
330
2
100
AcDbEntity
  8
6-家具-143
 62
   143
100
AcDbLine
 10
812.7154874379389
 20
1049.977206824319
 30
0.0
 11
811.5753577734334
 21
1035.168183259381
 31
0.0
  0
LINE
  5
A81
330
2
100
AcDbEntity
  8
6-家具-143
 62
   143
100
AcDbLine
 10
811.5753577734334
 20
1035.168183259381
 30
0.0
 11
810.8912799747187
 21
1022.181808748581
 31
0.0
  0
LINE
  5
A82
330
2
100
AcDbEntity
  8
6-家具-143
 62
   143
100
AcDbLine
 10
810.8912799747187
 20
1022.181808748581
 30
0.0
 11
809.9791762431145
 21
1016.941692717904
 31
0.0
  0
LINE
  5
A83
330
2
100
AcDbEntity
  8
6-家具-143
 62
   143
100
AcDbLine
 10
809.9791762431145
 20
1016.941692717904
 30
0.0
 11
814.9957467669613
 21
1011.701576687251
 31
0.0
  0
LINE
  5
A84
330
2
100
AcDbEntity
  8
6-家具-143
 62
   143
100
AcDbLine
 10
814.9957467669613
 20
1011.701576687251
 30
0.0
 11
818.6441616934017
 21
1015.574705927301
 31
0.0
  0
LINE
  5
A85
330
2
100
AcDbEntity
  8
6-家具-143
 62
   143
100
AcDbLine
 10
805.6466835179708
 20
1059.090452095047
 30
0.0
 11
802.6823463902335
 21
1055.672985118506
 31
0.0
  0
LINE
  5
A86
330
2
100
AcDbEntity
  8
6-家具-143
 62
   143
100
AcDbLine
 10
802.6823463902335
 20
1055.672985118506
 30
0.0
 11
805.190631652157
 21
1053.85033606437
 31
0.0
  0
LINE
  5
A87
330
2
100
AcDbEntity
  8
6-家具-143
 62
   143
100
AcDbLine
 10
805.190631652157
 20
1053.85033606437
 30
0.0
 11
801.9982685915302
 21
1051.572024746676
 31
0.0
  0
LINE
  5
A88
330
2
100
AcDbEntity
  8
6-家具-143
 62
   143
100
AcDbLine
 10
801.9982685915302
 20
1051.572024746676
 30
0.0
 11
804.5065538534537
 21
1044.509259661865
 31
0.0
  0
LINE
  5
A89
330
2
100
AcDbEntity
  8
6-家具-143
 62
   143
100
AcDbLine
 10
804.5065538534537
 20
1044.509259661865
 30
0.0
 11
807.9269428469931
 21
1031.97854741462
 31
0.0
  0
LINE
  5
A8A
330
2
100
AcDbEntity
  8
6-家具-143
 62
   143
100
AcDbLine
 10
807.9269428469931
 20
1031.97854741462
 30
0.0
 11
809.9791762431145
 21
1022.181808748581
 31
0.0
  0
LINE
  5
A8B
330
2
100
AcDbEntity
  8
6-家具-143
 62
   143
100
AcDbLine
 10
809.9791762431145
 20
1022.181808748581
 30
0.0
 11
810.4352281089166
 21
1019.90349743091
 31
0.0
  0
LINE
  5
A8C
330
2
100
AcDbEntity
  8
6-家具-143
 62
   143
100
AcDbLine
 10
811.5753577734334
 20
1062.507919071563
 30
0.0
 11
806.5587872495749
 21
1059.54611435858
 31
0.0
  0
LINE
  5
A8D
330
2
100
AcDbEntity
  8
6-家具-143
 62
   143
100
AcDbLine
 10
806.5587872495749
 20
1059.54611435858
 30
0.0
 11
801.7702426586291
 21
1057.495634172665
 31
0.0
  0
LINE
  5
A8E
330
2
100
AcDbEntity
  8
6-家具-143
 62
   143
100
AcDbLine
 10
801.7702426586291
 20
1057.495634172665
 30
0.0
 11
799.2619573967056
 21
1055.672985118506
 31
0.0
  0
LINE
  5
A8F
330
2
100
AcDbEntity
  8
6-家具-143
 62
   143
100
AcDbLine
 10
799.2619573967056
 20
1055.672985118506
 30
0.0
 11
797.2097240005844
 21
1052.711180405523
 31
0.0
  0
LINE
  5
A90
330
2
100
AcDbEntity
  8
6-家具-143
 62
   143
100
AcDbLine
 10
797.2097240005844
 20
1052.711180405523
 30
0.0
 11
795.3855165373644
 21
1047.015402111313
 31
0.0
  0
LINE
  5
A91
330
2
100
AcDbEntity
  8
6-家具-143
 62
   143
100
AcDbLine
 10
795.3855165373644
 20
1047.015402111313
 30
0.0
 11
796.5256462018697
 21
1036.079507786449
 31
0.0
  0
LINE
  5
A92
330
2
100
AcDbEntity
  8
6-家具-143
 62
   143
100
AcDbLine
 10
796.5256462018697
 20
1036.079507786449
 30
0.0
 11
795.8415684031665
 21
1028.105418174545
 31
0.0
  0
LINE
  5
A93
330
2
100
AcDbEntity
  8
6-家具-143
 62
   143
100
AcDbLine
 10
795.8415684031665
 20
1028.105418174545
 30
0.0
 11
796.0695943360674
 21
1025.599275725097
 31
0.0
  0
LINE
  5
A94
330
2
100
AcDbEntity
  8
6-家具-143
 62
   143
100
AcDbLine
 10
796.0695943360674
 20
1025.599275725097
 30
0.0
 11
799.9460351954088
 21
1003.499655943591
 31
0.0
  0
LINE
  5
A95
330
2
100
AcDbEntity
  8
6-家具-143
 62
   143
100
AcDbLine
 10
799.9460351954088
 20
1003.499655943591
 30
0.0
 11
800.8581389270133
 21
1003.043993680058
 31
0.0
  0
LINE
  5
A96
330
2
100
AcDbEntity
  8
6-家具-143
 62
   143
100
AcDbLine
 10
800.8581389270133
 20
1003.043993680058
 30
0.0
 11
801.314190792827
 21
999.1708644399841
 31
0.0
  0
LINE
  5
A97
330
2
100
AcDbEntity
  8
6-家具-143
 62
   143
100
AcDbLine
 10
801.314190792827
 20
999.1708644399841
 30
0.0
 11
801.9982685915302
 21
999.1708644399841
 31
0.0
  0
LINE
  5
A98
330
2
100
AcDbEntity
  8
6-家具-143
 62
   143
100
AcDbLine
 10
801.9982685915302
 20
999.1708644399841
 30
0.0
 11
802.6823463902335
 21
999.1708644399841
 31
0.0
  0
LINE
  5
A99
330
2
100
AcDbEntity
  8
6-家具-143
 62
   143
100
AcDbLine
 10
828.2212508753049
 20
1062.280087939784
 30
0.0
 11
832.3257176675477
 21
1060.001776622114
 31
0.0
  0
LINE
  5
A9A
330
2
100
AcDbEntity
  8
6-家具-143
 62
   143
100
AcDbLine
 10
832.3257176675477
 20
1060.001776622114
 30
0.0
 11
838.2543919230107
 21
1057.951296436199
 31
0.0
  0
LINE
  5
A9B
330
2
100
AcDbEntity
  8
6-家具-143
 62
   143
100
AcDbLine
 10
838.2543919230107
 20
1057.951296436199
 30
0.0
 11
843.0429365139563
 21
1056.356478513818
 31
0.0
  0
LINE
  5
A9C
330
2
100
AcDbEntity
  8
6-家具-143
 62
   143
100
AcDbLine
 10
843.0429365139563
 20
1056.356478513818
 30
0.0
 11
846.0072736416819
 21
1051.799855878455
 31
0.0
  0
LINE
  5
A9D
330
2
100
AcDbEntity
  8
6-家具-143
 62
   143
100
AcDbLine
 10
846.0072736416819
 20
1051.799855878455
 30
0.0
 11
847.3754292390999
 21
1041.319623817102
 31
0.0
  0
LINE
  5
A9E
330
2
100
AcDbEntity
  8
6-家具-143
 62
   143
100
AcDbLine
 10
847.3754292390999
 20
1041.319623817102
 30
0.0
 11
846.9193773732978
 21
1029.244573833392
 31
0.0
  0
LINE
  5
A9F
330
2
100
AcDbEntity
  8
6-家具-143
 62
   143
100
AcDbLine
 10
846.9193773732978
 20
1029.244573833392
 30
0.0
 11
843.9550402455607
 21
1024.460120066273
 31
0.0
  0
LINE
  5
AA0
330
2
100
AcDbEntity
  8
6-家具-143
 62
   143
100
AcDbLine
 10
843.9550402455607
 20
1024.460120066273
 30
0.0
 11
840.0785993862189
 21
1021.042653089733
 31
0.0
  0
LINE
  5
AA1
330
2
100
AcDbEntity
  8
6-家具-143
 62
   143
100
AcDbLine
 10
840.0785993862189
 20
1021.042653089733
 30
0.0
 11
837.1142622584935
 21
1018.764341772063
 31
0.0
  0
LINE
  5
AA2
330
2
100
AcDbEntity
  8
6-家具-143
 62
   143
100
AcDbLine
 10
837.1142622584935
 20
1018.764341772063
 30
0.0
 11
831.1855880030307
 21
1018.764341772063
 31
0.0
  0
LINE
  5
AA3
330
2
100
AcDbEntity
  8
6-家具-143
 62
   143
100
AcDbLine
 10
831.1855880030307
 20
1018.764341772063
 30
0.0
 11
827.7651990094913
 21
1018.992172903818
 31
0.0
  0
LINE
  5
AA4
330
2
100
AcDbEntity
  8
6-家具-143
 62
   143
100
AcDbLine
 10
827.7651990094913
 20
1018.992172903818
 30
0.0
 11
825.2569137475678
 21
1020.359159694444
 31
0.0
  0
LINE
  5
AA5
330
2
100
AcDbEntity
  8
6-家具-143
 62
   143
100
AcDbLine
 10
802.1561330486546
 20
998.8308701779416
 30
0.0
 11
800.7283398886787
 21
995.5886578934688
 31
0.0
  0
LINE
  5
AA6
330
2
100
AcDbEntity
  8
6-家具-143
 62
   143
100
AcDbLine
 10
800.7283398886787
 20
995.5886578934688
 30
0.0
 11
799.9495436196093
 21
992.0870686262334
 31
0.0
  0
LINE
  5
AA7
330
2
100
AcDbEntity
  8
6-家具-143
 62
   143
100
AcDbLine
 10
803.1383982560356
 20
990.5132814327908
 30
0.0
 11
802.2262945244316
 21
999.3986955717625
 31
0.0
  0
LINE
  5
AA8
330
2
100
AcDbEntity
  8
6-家具-143
 62
   143
100
AcDbLine
 10
802.2262945244316
 20
999.3986955717625
 30
0.0
 11
802.2262945244316
 21
1006.461460656574
 31
0.0
  0
LINE
  5
AA9
330
2
100
AcDbEntity
  8
6-家具-143
 62
   143
100
AcDbLine
 10
802.2262945244316
 20
1006.461460656574
 30
0.0
 11
801.542216725728
 21
1013.296394609631
 31
0.0
  0
LINE
  5
AAA
330
2
100
AcDbEntity
  8
6-家具-143
 62
   143
100
AcDbLine
 10
801.542216725728
 20
1013.296394609631
 30
0.0
 11
801.542216725728
 21
1018.992172903818
 31
0.0
  0
LINE
  5
AAB
330
2
100
AcDbEntity
  8
6-家具-143
 62
   143
100
AcDbLine
 10
801.542216725728
 20
1018.992172903818
 30
0.0
 11
801.542216725728
 21
1025.143613461564
 31
0.0
  0
LINE
  5
AAC
330
2
100
AcDbEntity
  8
6-家具-143
 62
   143
100
AcDbLine
 10
801.542216725728
 20
1025.143613461564
 30
0.0
 11
801.9982685915302
 21
1035.623845522915
 31
0.0
  0
LINE
  5
AAD
330
2
100
AcDbEntity
  8
6-家具-143
 62
   143
100
AcDbLine
 10
801.9982685915302
 20
1035.623845522915
 30
0.0
 11
799.718009262508
 21
1042.458779475949
 31
0.0
  0
LINE
  5
AAE
330
2
100
AcDbEntity
  8
6-家具-143
 62
   143
100
AcDbLine
 10
811.5753577734334
 20
1015.119043663768
 30
0.0
 11
810.4352281089166
 21
1010.33458989665
 31
0.0
  0
LINE
  5
AAF
330
2
100
AcDbEntity
  8
6-家具-143
 62
   143
100
AcDbLine
 10
810.4352281089166
 20
1010.33458989665
 30
0.0
 11
809.5231243773124
 21
1006.917122920108
 31
0.0
  0
LINE
  5
AB0
330
2
100
AcDbEntity
  8
6-家具-143
 62
   143
100
AcDbLine
 10
809.5231243773124
 20
1006.917122920108
 30
0.0
 11
809.5231243773124
 21
1000.537851230609
 31
0.0
  0
LINE
  5
AB1
330
2
100
AcDbEntity
  8
6-家具-143
 62
   143
100
AcDbLine
 10
809.5231243773124
 20
1000.537851230609
 30
0.0
 11
807.2428650482784
 21
996.2090597270012
 31
0.0
  0
LINE
  5
AB2
330
2
100
AcDbEntity
  8
6-家具-143
 62
   143
100
AcDbLine
 10
807.2428650482784
 20
996.2090597270012
 30
0.0
 11
804.7345797863549
 21
993.4750861457969
 31
0.0
  0
LINE
  5
AB3
330
2
100
AcDbEntity
  8
6-家具-143
 62
   143
100
AcDbLine
 10
804.7345797863549
 20
993.4750861457969
 30
0.0
 11
802.9103723231346
 21
990.0576191692568
 31
0.0
  0
LINE
  5
AB4
330
2
100
AcDbEntity
  8
6-家具-143
 62
   143
100
AcDbLine
 10
802.9103723231346
 20
990.0576191692568
 30
0.0
 11
802.4543204573323
 21
987.095814456274
 31
0.0
  0
LINE
  5
AB5
330
2
100
AcDbEntity
  8
6-家具-143
 62
   143
100
AcDbLine
 10
829.3613805398104
 20
989.6019569057228
 30
0.0
 11
823.8887581501613
 21
995.9812285952459
 31
0.0
  0
LINE
  5
AB6
330
2
100
AcDbEntity
  8
6-家具-143
 62
   143
100
AcDbLine
 10
823.8887581501613
 20
995.9812285952459
 30
0.0
 11
819.5562654250061
 21
1002.588331416524
 31
0.0
  0
LINE
  5
AB7
330
2
100
AcDbEntity
  8
6-家具-143
 62
   143
100
AcDbLine
 10
819.5562654250061
 20
1002.588331416524
 30
0.0
 11
819.328239492105
 21
1008.739771974268
 31
0.0
  0
LINE
  5
AB8
330
2
100
AcDbEntity
  8
6-家具-143
 62
   143
100
AcDbLine
 10
819.328239492105
 20
1008.739771974268
 30
0.0
 11
819.7842913579187
 21
1015.346874795546
 31
0.0
  0
LINE
  5
AB9
330
2
100
AcDbEntity
  8
6-家具-143
 62
   143
100
AcDbLine
 10
840.3066253191319
 20
1020.586990826199
 30
0.0
 11
840.0785993862189
 21
1017.625186113217
 31
0.0
  0
LINE
  5
ABA
330
2
100
AcDbEntity
  8
6-家具-143
 62
   143
100
AcDbLine
 10
840.0785993862189
 20
1017.625186113217
 30
0.0
 11
839.6225475204168
 21
1009.651096501336
 31
0.0
  0
VIEWPORT
  5
DA
102
{ACAD_XDICTIONARY
360
ACD
102
}
330
C
100
AcDbEntity
 67
     1
  8
0
100
AcDbViewport
 10
420.5071835950612
 20
297.0009369707932
 30
0.0
 40
848.880193293653
 41
633.6711302051212
 68
     1
 69
     1
 12
420.5071835950612
 22
297.0009369707932
 13
0.0
 23
0.0
 14
10.0
 24
10.0
 15
10.0
 25
10.0
 16
0.0
 26
0.0
 36
1.0
 17
0.0
 27
0.0
 37
0.0
 42
50.0
 43
0.0
 44
0.0
 45
633.6711302051212
 50
0.0
 51
0.0
 72
  1000
 90
    32864
  1

281
     0
 71
     1
 74
     0
110
0.0
120
0.0
130
0.0
111
1.0
121
0.0
131
0.0
112
0.0
122
1.0
132
0.0
 79
     0
146
0.0
  0
ENDSEC
  0
SECTION
  2
OBJECTS
  0
DICTIONARY
  5
7
330
0
100
AcDbDictionary
281
     1
  3
ACAD_COLOR
350
DE
  3
ACAD_GROUP
350
20
  3
ACAD_LAYOUT
350
B
  3
ACAD_MATERIAL
350
DD
  3
ACAD_MLINESTYLE
350
21
  3
ACAD_PLOTSETTINGS
350
22
  3
ACAD_PLOTSTYLENAME
350
6
  3
ACDBHEADERROUNDTRIPXREC
350
AC6
  3
AcDbVariableDictionary
350
115
  0
DICTIONARY
  5
1A3
330
10
100
AcDbDictionary
280
     1
281
     1
  3
ACAD_LAYERSTATES
360
1A4
  0
DICTIONARY
  5
ACD
330
DA
100
AcDbDictionary
280
     1
281
     1
  3
ACAD_XREC_ROUNDTRIP
360
ACE
  0
DICTIONARY
  5
DE
102
{ACAD_REACTORS
330
7
102
}
330
7
100
AcDbDictionary
281
     1
  0
DICTIONARY
  5
20
102
{ACAD_REACTORS
330
7
102
}
330
7
100
AcDbDictionary
281
     1
  0
DICTIONARY
  5
B
102
{ACAD_REACTORS
330
7
102
}
330
7
100
AcDbDictionary
281
     1
  3
JIS A1 Title Block
350
F
  3
Model
350
A
  0
DICTIONARY
  5
DD
102
{ACAD_REACTORS
330
7
102
}
330
7
100
AcDbDictionary
281
     1
  0
DICTIONARY
  5
21
102
{ACAD_REACTORS
330
7
102
}
330
7
100
AcDbDictionary
281
     1
  3
Standard
350
23
  0
DICTIONARY
  5
22
102
{ACAD_REACTORS
330
7
102
}
330
7
100
AcDbDictionary
281
     1
  0
ACDBDICTIONARYWDFLT
  5
6
102
{ACAD_REACTORS
330
7
102
}
330
7
100
AcDbDictionary
281
     1
  3
Normal
350
5
100
AcDbDictionaryWithDefault
340
5
  0
DICTIONARY
  5
AC6
102
{ACAD_REACTORS
330
7
102
}
330
7
100
AcDbDictionary
281
     1
  3
COLORDICT
350
AC8
  3
MATERIALDICT
350
AC7
  0
DICTIONARY
  5
115
102
{ACAD_REACTORS
330
7
102
}
330
7
100
AcDbDictionary
281
     1
  3
DIMASSOC
350
116
  3
PROJECTNAME
350
117
  0
DICTIONARY
  5
1A4
102
{ACAD_REACTORS
330
1A3
102
}
330
1A3
100
AcDbDictionary
281
     1
  0
XRECORD
  5
ACE
102
{ACAD_REACTORS
330
ACD
102
}
330
ACD
100
AcDbXrecord
280
     1
102
SHADEPLOT
 70
     0
  0
LAYOUT
  5
F
102
{ACAD_XDICTIONARY
360
ACB
102
}
102
{ACAD_REACTORS
330
B
102
}
330
B
100
AcDbPlotSettings
  1

  2
none_device
  4
ISO_A1_(594.00_x_841.00_MM)
  6

 40
7.549999999999998
 41
20.05
 42
7.549999999999998
 43
20.05
 44
594.0
 45
841.0
 46
-7.559999999999997
 47
-20.07
 48
0.0
 49
0.0
140
0.0
141
0.0
142
1.0
143
1.0
 70
   692
 72
     1
 73
     1
 74
     1
  7

 75
    16
147
1.0
148
0.0128164049386896
149
0.0090630292066862
100
AcDbLayout
  1
JIS A1 Title Block
 70
     1
 71
     1
 10
0.0071835950613099
 20
0.0009369707933136
 11
841.0071835950612
 21
594.0009369707931
 12
0.0
 22
0.0
 32
0.0
 14
1.000000000000000E+20
 24
1.000000000000000E+20
 34
1.000000000000000E+20
 15
-1.000000000000000E+20
 25
-1.000000000000000E+20
 35
-1.000000000000000E+20
146
0.0
 13
0.0
 23
0.0
 33
0.0
 16
1.0
 26
0.0
 36
0.0
 17
0.0
 27
1.0
 37
0.0
 76
     0
330
C
331
DA
  0
LAYOUT
  5
A
102
{ACAD_XDICTIONARY
360
AC9
102
}
102
{ACAD_REACTORS
330
B
102
}
330
B
100
AcDbPlotSettings
  1

  2
none_device
  4
ANSI_A_(8.50_x_11.00_Inches)
  6

 40
6.349999904632567
 41
19.04999923706055
 42
6.350006103515625
 43
19.04998779296875
 44
215.8999938964844
 45
279.3999938964844
 46
28.79458090408706
 47
17.57028564415653
 48
0.0
 49
0.0
140
0.0
141
0.0
142
1.0
143
103.6285708313174
 70
 11956
 72
     0
 73
     1
 74
     1
  7

 75
     0
147
0.0096498484151418
148
1.303736702137707
149
0.9208318680958655
100
AcDbLayout
  1
Model
 70
     1
 71
     0
 10
0.0
 20
0.0
 11
12.0
 21
9.0
 12
0.0
 22
0.0
 32
0.0
 14
0.0
 24
0.0
 34
0.0
 15
0.0
 25
0.0
 35
0.0
146
0.0
 13
0.0
 23
0.0
 33
0.0
 16
1.0
 26
0.0
 36
0.0
 17
0.0
 27
1.0
 37
0.0
 76
     0
330
2
  0
MLINESTYLE
  5
23
102
{ACAD_REACTORS
330
21
102
}
330
21
100
AcDbMlineStyle
  2
STANDARD
 70
     0
  3

 62
   256
 51
90.0
 52
90.0
 71
     2
 49
0.5
 62
   256
  6
BYLAYER
 49
-0.5
 62
   256
  6
BYLAYER
  0
ACDBPLACEHOLDER
  5
5
102
{ACAD_REACTORS
330
6
102
}
330
6
  0
XRECORD
  5
AC8
102
{ACAD_REACTORS
330
AC6
102
}
330
AC6
100
AcDbXrecord
280
     1
340
DE
  0
XRECORD
  5
AC7
102
{ACAD_REACTORS
330
AC6
102
}
330
AC6
100
AcDbXrecord
280
     1
340
DD
  0
DICTIONARYVAR
  5
116
102
{ACAD_REACTORS
330
115
102
}
330
115
100
DictionaryVariables
280
     0
  1
1
  0
DICTIONARYVAR
  5
117
102
{ACAD_REACTORS
330
115
102
}
330
115
100
DictionaryVariables
280
     0
  1

  0
DICTIONARY
  5
ACB
330
F
100
AcDbDictionary
280
     1
281
     1
  3
ACAD_XREC_ROUNDTRIP
360
ACC
  0
DICTIONARY
  5
AC9
330
A
100
AcDbDictionary
280
     1
281
     1
  3
ACAD_XREC_ROUNDTRIP
360
ACA
  0
XRECORD
  5
ACC
102
{ACAD_REACTORS
330
ACB
102
}
330
ACB
100
AcDbXrecord
280
     1
102
SHADEPLOT
 70
     0
102
SHADEPLOTRESLEVEL
 70
     2
102
SHADEPLOTCUSTOMDPI
 70
   300
  0
XRECORD
  5
ACA
102
{ACAD_REACTORS
330
AC9
102
}
330
AC9
100
AcDbXrecord
280
     1
102
SHADEPLOT
 70
     0
102
SHADEPLOTRESLEVEL
 70
     2
102
SHADEPLOTCUSTOMDPI
 70
   300
  0
ENDSEC
  0
EOF
