  0
SECTION
  2
HEADER
  9
$ACADVER
  1
AC1015
  9
$ACADMAINTVER
 70
    20
  9
$DWGCODEPAGE
  3
ANSI_936
  9
$INSBASE
 10
0.0
 20
0.0
 30
0.0
  9
$EXTMIN
 10
-0.0488001835601608
 20
-0.0366001376705754
 30
-0.0000000000000053
  9
$EXTMAX
 10
1600.04884302707
 20
1200.036632270302
 30
0.0000000000000099
  9
$LIMMIN
 10
0.0
 20
0.0
  9
$LIMMAX
 10
420.0
 20
297.0
  9
$ORTHOMODE
 70
     0
  9
$REGENMODE
 70
     1
  9
$FILLMODE
 70
     1
  9
$QTEXTMODE
 70
     0
  9
$MIRRTEXT
 70
     0
  9
$LTSCALE
 40
1.0
  9
$ATTMODE
 70
     1
  9
$TEXTSIZE
 40
2.5
  9
$TRACEWID
 40
1.0
  9
$TEXTSTYLE
  7
Standard
  9
$CLAYER
  8
0
  9
$CELTYPE
  6
ByLayer
  9
$CECOLOR
 62
   256
  9
$CELTSCALE
 40
1.0
  9
$DISPSILH
 70
     0
  9
$DIMSCALE
 40
1.0
  9
$DIMASZ
 40
2.5
  9
$DIMEXO
 40
1.0
  9
$DIMDLI
 40
7.0
  9
$DIMRND
 40
0.0
  9
$DIMDLE
 40
0.0
  9
$DIMEXE
 40
1.0
  9
$DIMTP
 40
0.0
  9
$DIMTM
 40
0.0
  9
$DIMTXT
 40
2.5
  9
$DIMCEN
 40
0.0
  9
$DIMTSZ
 40
0.0
  9
$DIMTOL
 70
     0
  9
$DIMLIM
 70
     0
  9
$DIMTIH
 70
     0
  9
$DIMTOH
 70
     0
  9
$DIMSE1
 70
     0
  9
$DIMSE2
 70
     0
  9
$DIMTAD
 70
     1
  9
$DIMZIN
 70
     8
  9
$DIMBLK
  1

  9
$DIMASO
 70
     1
  9
$DIMSHO
 70
     1
  9
$DIMPOST
  1

  9
$DIMAPOST
  1

  9
$DIMALT
 70
     0
  9
$DIMALTD
 70
     2
  9
$DIMALTF
 40
0.0394
  9
$DIMLFAC
 40
1.0
  9
$DIMTOFL
 70
     1
  9
$DIMTVP
 40
0.0
  9
$DIMTIX
 70
     1
  9
$DIMSOXD
 70
     1
  9
$DIMSAH
 70
     0
  9
$DIMBLK1
  1

  9
$DIMBLK2
  1

  9
$DIMSTYLE
  2
JIS
  9
$DIMCLRD
 70
     0
  9
$DIMCLRE
 70
     0
  9
$DIMCLRT
 70
     0
  9
$DIMTFAC
 40
1.0
  9
$DIMGAP
 40
0.0
  9
$DIMJUST
 70
     0
  9
$DIMSD1
 70
     0
  9
$DIMSD2
 70
     0
  9
$DIMTOLJ
 70
     1
  9
$DIMTZIN
 70
     0
  9
$DIMALTZ
 70
     0
  9
$DIMALTTZ
 70
     0
  9
$DIMUPT
 70
     0
  9
$DIMDEC
 70
     4
  9
$DIMTDEC
 70
     4
  9
$DIMALTU
 70
     2
  9
$DIMALTTD
 70
     2
  9
$DIMTXSTY
  7
Standard
  9
$DIMAUNIT
 70
     0
  9
$DIMADEC
 70
     0
  9
$DIMALTRND
 40
0.0
  9
$DIMAZIN
 70
     0
  9
$DIMDSEP
 70
    46
  9
$DIMATFIT
 70
     3
  9
$DIMFRAC
 70
     0
  9
$DIMLDRBLK
  1

  9
$DIMLUNIT
 70
     2
  9
$DIMLWD
 70
    -2
  9
$DIMLWE
 70
    -2
  9
$DIMTMOVE
 70
     0
  9
$LUNITS
 70
     2
  9
$LUPREC
 70
     4
  9
$SKETCHINC
 40
1.0
  9
$FILLETRAD
 40
0.0
  9
$AUNITS
 70
     0
  9
$AUPREC
 70
     0
  9
$MENU
  1
.
  9
$ELEVATION
 40
0.0
  9
$PELEVATION
 40
0.0
  9
$THICKNESS
 40
0.0
  9
$LIMCHECK
 70
     0
  9
$CHAMFERA
 40
0.0
  9
$CHAMFERB
 40
0.0
  9
$CHAMFERC
 40
0.0
  9
$CHAMFERD
 40
0.0
  9
$SKPOLY
 70
     0
  9
$TDCREATE
 40
2455955.017649734
  9
$TDUCREATE
 40
2455954.684316401
  9
$TDUPDATE
 40
2456193.629644456
  9
$TDUUPDATE
 40
2456193.296311123
  9
$TDINDWG
 40
0.0593652199
  9
$TDUSRTIMER
 40
0.0593598032
  9
$USRTIMER
 70
     1
  9
$ANGBASE
 50
0.0
  9
$ANGDIR
 70
     0
  9
$PDMODE
 70
     0
  9
$PDSIZE
 40
0.0
  9
$PLINEWID
 40
0.0
  9
$SPLFRAME
 70
     0
  9
$SPLINETYPE
 70
     6
  9
$SPLINESEGS
 70
   100
  9
$HANDSEED
  5
AEB
  9
$SURFTAB1
 70
     6
  9
$SURFTAB2
 70
     6
  9
$SURFTYPE
 70
     6
  9
$SURFU
 70
     6
  9
$SURFV
 70
     6
  9
$UCSBASE
  2

  9
$UCSNAME
  2

  9
$UCSORG
 10
0.0
 20
0.0
 30
0.0
  9
$UCSXDIR
 10
1.0
 20
0.0
 30
0.0
  9
$UCSYDIR
 10
0.0
 20
1.0
 30
0.0
  9
$UCSORTHOREF
  2

  9
$UCSORTHOVIEW
 70
     0
  9
$UCSORGTOP
 10
0.0
 20
0.0
 30
0.0
  9
$UCSORGBOTTOM
 10
0.0
 20
0.0
 30
0.0
  9
$UCSORGLEFT
 10
0.0
 20
0.0
 30
0.0
  9
$UCSORGRIGHT
 10
0.0
 20
0.0
 30
0.0
  9
$UCSORGFRONT
 10
0.0
 20
0.0
 30
0.0
  9
$UCSORGBACK
 10
0.0
 20
0.0
 30
0.0
  9
$PUCSBASE
  2

  9
$PUCSNAME
  2

  9
$PUCSORG
 10
0.0
 20
0.0
 30
0.0
  9
$PUCSXDIR
 10
1.0
 20
0.0
 30
0.0
  9
$PUCSYDIR
 10
0.0
 20
1.0
 30
0.0
  9
$PUCSORTHOREF
  2

  9
$PUCSORTHOVIEW
 70
     0
  9
$PUCSORGTOP
 10
0.0
 20
0.0
 30
0.0
  9
$PUCSORGBOTTOM
 10
0.0
 20
0.0
 30
0.0
  9
$PUCSORGLEFT
 10
0.0
 20
0.0
 30
0.0
  9
$PUCSORGRIGHT
 10
0.0
 20
0.0
 30
0.0
  9
$PUCSORGFRONT
 10
0.0
 20
0.0
 30
0.0
  9
$PUCSORGBACK
 10
0.0
 20
0.0
 30
0.0
  9
$USERI1
 70
     0
  9
$USERI2
 70
     0
  9
$USERI3
 70
     0
  9
$USERI4
 70
     0
  9
$USERI5
 70
     0
  9
$USERR1
 40
0.0
  9
$USERR2
 40
0.0
  9
$USERR3
 40
0.0
  9
$USERR4
 40
0.0
  9
$USERR5
 40
0.0
  9
$WORLDVIEW
 70
     1
  9
$SHADEDGE
 70
     3
  9
$SHADEDIF
 70
    70
  9
$TILEMODE
 70
     1
  9
$MAXACTVP
 70
    64
  9
$PINSBASE
 10
0.0
 20
0.0
 30
0.0
  9
$PLIMCHECK
 70
     0
  9
$PEXTMIN
 10
1.000000000000000E+20
 20
1.000000000000000E+20
 30
1.000000000000000E+20
  9
$PEXTMAX
 10
-1.000000000000000E+20
 20
-1.000000000000000E+20
 30
-1.000000000000000E+20
  9
$PLIMMIN
 10
0.0071835950613099
 20
0.0009369707933136
  9
$PLIMMAX
 10
841.0071835950612
 20
594.0009369707931
  9
$UNITMODE
 70
     0
  9
$VISRETAIN
 70
     1
  9
$PLINEGEN
 70
     0
  9
$PSLTSCALE
 70
     1
  9
$TREEDEPTH
 70
  3020
  9
$CMLSTYLE
  2
Standard
  9
$CMLJUST
 70
     0
  9
$CMLSCALE
 40
20.0
  9
$PROXYGRAPHICS
 70
     1
  9
$MEASUREMENT
 70
     1
  9
$CELWEIGHT
370
    -1
  9
$ENDCAPS
280
     0
  9
$JOINSTYLE
280
     0
  9
$LWDISPLAY
290
     1
  9
$INSUNITS
 70
     4
  9
$HYPERLINKBASE
  1

  9
$STYLESHEET
  1

  9
$XEDIT
290
     1
  9
$CEPSNTYPE
380
     0
  9
$PSTYLEMODE
290
     1
  9
$FINGERPRINTGUID
  2
{048D7354-A980-11D2-9A39-0060089B3A3F}
  9
$VERSIONGUID
  2
{1F370E17-5762-4F44-ABAA-C8CA845EA8C8}
  9
$EXTNAMES
290
     1
  9
$PSVPSCALE
 40
0.0
  9
$OLESTARTUP
290
     0
  0
ENDSEC
  0
SECTION
  2
CLASSES
  0
CLASS
  1
ACDBDICTIONARYWDFLT
  2
AcDbDictionaryWithDefault
  3
ObjectDBX Classes
 90
        0
280
     0
281
     0
  0
CLASS
  1
ACDBPLACEHOLDER
  2
AcDbPlaceHolder
  3
ObjectDBX Classes
 90
        0
280
     0
281
     0
  0
CLASS
  1
LAYOUT
  2
AcDbLayout
  3
ObjectDBX Classes
 90
        0
280
     0
281
     0
  0
CLASS
  1
PLOTSETTINGS
  2
AcDbPlotSettings
  3
ObjectDBX Classes
 90
    32768
280
     0
281
     0
  0
CLASS
  1
DICTIONARYVAR
  2
AcDbDictionaryVar
  3
ObjectDBX Classes
 90
        0
280
     0
281
     0
  0
ENDSEC
  0
SECTION
  2
TABLES
  0
TABLE
  2
VPORT
  5
19
330
0
100
AcDbSymbolTable
 70
     5
  0
VPORT
  5
AE1
330
19
100
AcDbSymbolTableRecord
100
AcDbViewportTableRecord
  2
*Active
 70
     0
 10
0.0
 20
0.0
 11
1.0
 21
1.0
 12
800.0000219376385
 22
600.0000152651202
 13
0.0
 23
0.0
 14
10.0
 24
10.0
 15
10.0
 25
10.0
 16
0.0
 26
0.0
 36
1.0
 17
0.0
 27
0.0
 37
0.0
 40
1286.768590453487
 41
2.293805309734513
 42
50.0
 43
0.0
 44
0.0
 50
0.0
 51
0.0
 71
     0
 72
  2000
 73
     1
 74
     3
 75
     0
 76
     0
 77
     0
 78
     0
281
     0
 65
     1
110
0.0
120
0.0
130
0.0
111
1.0
121
0.0
131
0.0
112
0.0
122
1.0
132
0.0
 79
     0
146
0.0
  0
ENDTAB
  0
TABLE
  2
LTYPE
  5
14
330
0
100
AcDbSymbolTable
 70
     1
  0
LTYPE
  5
15
330
14
100
AcDbSymbolTableRecord
100
AcDbLinetypeTableRecord
  2
ByBlock
 70
     0
  3

 72
    65
 73
     0
 40
0.0
  0
LTYPE
  5
16
330
14
100
AcDbSymbolTableRecord
100
AcDbLinetypeTableRecord
  2
ByLayer
 70
     0
  3

 72
    65
 73
     0
 40
0.0
  0
LTYPE
  5
8
330
14
100
AcDbSymbolTableRecord
100
AcDbLinetypeTableRecord
  2
Continuous
 70
     0
  3
Solid line
 72
    65
 73
     0
 40
0.0
  0
ENDTAB
  0
TABLE
  2
LAYER
  5
10
102
{ACAD_XDICTIONARY
360
1A3
102
}
330
0
100
AcDbSymbolTable
 70
     4
  0
LAYER
  5
4
330
10
100
AcDbSymbolTableRecord
100
AcDbLayerTableRecord
  2
0
 70
     0
 62
     7
  6
Continuous
370
    -3
390
5
  0
LAYER
  5
28
330
10
100
AcDbSymbolTableRecord
100
AcDbLayerTableRecord
  2
Object
 70
     0
 62
     7
  6
Continuous
370
    -3
390
5
  0
LAYER
  5
1A2
330
10
100
AcDbSymbolTableRecord
100
AcDbLayerTableRecord
  2
TOPOVERLAY
 70
     0
 62
     2
  6
Continuous
370
    -3
390
5
  0
LAYER
  5
7B8
330
10
100
AcDbSymbolTableRecord
100
AcDbLayerTableRecord
  2
6-家具-143
 70
     0
 62
   143
  6
Continuous
370
    -3
390
5
  0
ENDTAB
  0
TABLE
  2
STYLE
  5
11
330
0
100
AcDbSymbolTable
 70
     2
  0
STYLE
  5
12
330
11
100
AcDbSymbolTableRecord
100
AcDbTextStyleTableRecord
  2
Standard
 70
     0
 40
0.0
 41
1.0
 50
0.0
 71
     0
 42
2.5
  3
txt
  4

  0
STYLE
  5
2E
330
11
100
AcDbSymbolTableRecord
100
AcDbTextStyleTableRecord
  2
Roman
 70
     0
 40
0.0
 41
1.0
 50
0.0
 71
     0
 42
5.0
  3
romans
  4
bigfont
  0
ENDTAB
  0
TABLE
  2
VIEW
  5
17
330
0
100
AcDbSymbolTable
 70
     0
  0
ENDTAB
  0
TABLE
  2
UCS
  5
18
330
0
100
AcDbSymbolTable
 70
     0
  0
ENDTAB
  0
TABLE
  2
APPID
  5
1B
330
0
100
AcDbSymbolTable
 70
     1
  0
APPID
  5
1C
330
1B
100
AcDbSymbolTableRecord
100
AcDbRegAppTableRecord
  2
ACAD
 70
     0
  0
ENDTAB
  0
TABLE
  2
DIMSTYLE
  5
1D
330
0
100
AcDbSymbolTable
 70
     1
100
AcDbDimStyleTable
 71
     1
340
1E
  0
DIMSTYLE
105
1E
330
1D
100
AcDbSymbolTableRecord
100
AcDbDimStyleTableRecord
  2
JIS
 70
     0
 41
2.5
 42
1.0
 43
7.0
 44
1.0
 73
     0
 74
     0
 77
     1
 78
     8
140
2.5
141
0.0
143
0.0394
147
0.0
172
     1
174
     1
175
     1
340
12
  0
ENDTAB
  0
TABLE
  2
BLOCK_RECORD
  5
1
330
0
100
AcDbSymbolTable
 70
     1
  0
BLOCK_RECORD
  5
2
330
1
100
AcDbSymbolTableRecord
100
AcDbBlockTableRecord
  2
*Model_Space
340
A
  0
BLOCK_RECORD
  5
C
330
1
100
AcDbSymbolTableRecord
100
AcDbBlockTableRecord
  2
*Paper_Space
340
F
  0
ENDTAB
  0
ENDSEC
  0
SECTION
  2
BLOCKS
  0
BLOCK
  5
3
330
2
100
AcDbEntity
  8
0
100
AcDbBlockBegin
  2
*Model_Space
 70
     2
 10
0.0
 20
0.0
 30
0.0
  3
*Model_Space
  1

  0
ENDBLK
  5
9
330
2
100
AcDbEntity
  8
0
100
AcDbBlockEnd
  0
BLOCK
  5
D
330
C
100
AcDbEntity
 67
     1
  8
0
100
AcDbBlockBegin
  2
*Paper_Space
 70
     0
 10
0.0
 20
0.0
 30
0.0
  3
*Paper_Space
  1

  0
ENDBLK
  5
E
330
C
100
AcDbEntity
 67
     1
  8
0
100
AcDbBlockEnd
  0
ENDSEC
  0
SECTION
  2
ENTITIES
  0
LINE
  5
14F
330
2
100
AcDbEntity
  8
0
100
AcDbLine
 10
0.0
 20
0.0
 30
0.0
 11
1600.0
 21
0.0
 31
0.0
  0
LINE
  5
150
330
2
100
AcDbEntity
  8
0
100
AcDbLine
 10
1600.0
 20
0.0
 30
0.0
 11
1600.0
 21
1200.0
 31
0.0
  0
LINE
  5
151
330
2
100
AcDbEntity
  8
0
100
AcDbLine
 10
1600.0
 20
1200.0
 30
0.0
 11
0.0
 21
1200.0
 31
0.0
  0
LINE
  5
152
330
2
100
AcDbEntity
  8
0
100
AcDbLine
 10
0.0
 20
1200.0
 30
0.0
 11
0.0
 21
0.0
 31
0.0
  0
LINE
  5
24D
330
2
100
AcDbEntity
  8
0
 62
     5
370
    35
100
AcDbLine
 10
146.8773759648378
 20
134.2453454679304
 30
0.0
 11
146.8773759648378
 21
1100.245345467943
 31
0.0
  0
LINE
  5
24E
330
2
100
AcDbEntity
  8
0
 62
     5
370
    35
100
AcDbLine
 10
146.8773759648378
 20
1100.245345467943
 30
0.0
 11
1462.87737596485
 21
1100.245345467943
 31
0.0
  0
LINE
  5
24F
330
2
100
AcDbEntity
  8
0
 62
     5
370
    35
100
AcDbLine
 10
1462.87737596485
 20
134.2453454679304
 30
0.0
 11
1462.87737596485
 21
1100.245345467943
 31
0.0
  0
LINE
  5
250
330
2
100
AcDbEntity
  8
0
 62
     5
370
    35
100
AcDbLine
 10
146.8773759648378
 20
134.2453454679304
 30
0.0
 11
1462.87737596485
 21
134.2453454679304
 31
0.0
  0
ARC
  5
253
330
2
100
AcDbEntity
  8
0
 62
    56
100
AcDbCircle
 10
401.2681708086422
 20
628.4567916576502
 30
0.0
 40
86.57756336906864
100
AcDbArc
 50
93.76815435825868
 51
266.2318456417413
  0
LINE
  5
254
330
2
100
AcDbEntity
  8
0
 62
    56
100
AcDbLine
 10
470.1374477329405
 20
628.3583971343634
 30
0.0
 11
499.3982512737052
 21
628.3583971343634
 31
0.0
  0
LINE
  5
255
330
2
100
AcDbEntity
  8
0
 62
   250
370
   100
100
AcDbLine
 10
527.8635948504152
 20
628.2835470220474
 30
0.0
 11
587.9718373885777
 21
628.2835470220474
 31
0.0
  0
LINE
  5
256
330
2
100
AcDbEntity
  8
TOPOVERLAY
  6
Continuous
 62
   250
370
   100
100
AcDbLine
 10
541.4356581651294
 20
585.0814711308552
 30
0.0
 11
587.6442963840311
 21
614.4695149158027
 31
0.0
  0
LINE
  5
257
330
2
100
AcDbEntity
  8
0
 62
    56
100
AcDbLine
 10
604.2264970840532
 20
628.4012180692907
 30
0.0
 11
658.7775067137572
 21
628.4012180692907
 31
0.0
  0
CIRCLE
  5
25A
330
2
100
AcDbEntity
  8
0
 62
   252
100
AcDbCircle
 10
849.8347280698894
 20
544.8099052881846
 30
0.0
 40
20.66015533163439
  0
CIRCLE
  5
25B
330
2
100
AcDbEntity
  8
0
 62
   252
100
AcDbCircle
 10
896.2810363508351
 20
544.8099052881846
 30
0.0
 40
20.66015533163439
  0
LINE
  5
25C
330
2
100
AcDbEntity
  8
0
 62
   252
100
AcDbLine
 10
846.0386689126329
 20
572.6575850725935
 30
0.0
 11
846.0386689126329
 21
590.4449980898156
 31
0.0
  0
LINE
  5
25D
330
2
100
AcDbEntity
  8
0
 62
   252
100
AcDbLine
 10
851.7095168752783
 20
569.7441298102651
 30
0.0
 11
851.7095168752783
 21
587.5315428273284
 31
0.0
  0
LINE
  5
25E
330
2
100
AcDbEntity
  8
0
 62
   252
100
AcDbLine
 10
840.3678256780167
 20
583.0846877287699
 30
0.0
 11
859.9858798658585
 21
574.651003384211
 31
0.0
  0
LINE
  5
25F
330
2
100
AcDbEntity
  8
0
 62
   252
100
AcDbLine
 10
891.6408484796201
 20
571.4311248843483
 30
0.0
 11
891.6408484796201
 21
589.2185379015702
 31
0.0
  0
LINE
  5
260
330
2
100
AcDbEntity
  8
0
 62
   252
100
AcDbLine
 10
897.3116964422823
 20
568.5176696219882
 30
0.0
 11
897.3116964422823
 21
586.3050826390831
 31
0.0
  0
LINE
  5
261
330
2
100
AcDbEntity
  8
0
 62
   252
100
AcDbLine
 10
885.9700052450161
 20
581.8582275404926
 30
0.0
 11
905.5880594328653
 21
573.4245431959656
 31
0.0
  0
LINE
  5
262
330
2
100
AcDbEntity
  8
0
 62
   252
100
AcDbLine
 10
811.4020209092316
 20
547.0627865766075
 30
0.0
 11
938.3176685414612
 21
547.0627865766075
 31
0.0
  0
CIRCLE
  5
263
330
2
100
AcDbEntity
  8
0
 62
   252
100
AcDbCircle
 10
846.4638490603672
 20
689.8273729904121
 30
0.0
 40
20.66015533163439
  0
CIRCLE
  5
264
330
2
100
AcDbEntity
  8
0
 62
   252
100
AcDbCircle
 10
892.9101573412921
 20
689.8273729904121
 30
0.0
 40
20.66015533163439
  0
LINE
  5
265
330
2
100
AcDbEntity
  8
0
 62
   252
100
AcDbLine
 10
842.6677899030917
 20
717.6750527748207
 30
0.0
 11
842.6677899030917
 21
735.4624657919162
 31
0.0
  0
LINE
  5
266
330
2
100
AcDbEntity
  8
0
 62
   252
100
AcDbLine
 10
848.3386378657456
 20
714.761597512334
 30
0.0
 11
848.3386378657456
 21
732.549010529556
 31
0.0
  0
LINE
  5
267
330
2
100
AcDbEntity
  8
0
 62
   252
100
AcDbLine
 10
836.9969466684873
 20
728.1021554308705
 30
0.0
 11
856.6150008563175
 21
719.6684710864705
 31
0.0
  0
LINE
  5
268
330
2
100
AcDbEntity
  8
0
 62
   252
100
AcDbLine
 10
888.2699694700912
 20
716.448592586576
 30
0.0
 11
888.2699694700912
 21
734.2360056036708
 31
0.0
  0
LINE
  5
269
330
2
100
AcDbEntity
  8
0
 62
   252
100
AcDbLine
 10
893.9408174327452
 20
713.5351373240884
 30
0.0
 11
893.9408174327452
 21
731.3225503413426
 31
0.0
  0
LINE
  5
26A
330
2
100
AcDbEntity
  8
0
 62
   252
100
AcDbLine
 10
882.5991262354792
 20
726.8756952426248
 30
0.0
 11
902.2171804233362
 21
718.442010898098
 31
0.0
  0
LINE
  5
26B
330
2
100
AcDbEntity
  8
0
 62
   252
100
AcDbLine
 10
808.0311418997078
 20
692.0802542788354
 30
0.0
 11
934.9467895319213
 21
692.0802542788354
 31
0.0
  0
LINE
  5
26C
330
2
100
AcDbEntity
  8
0
 62
    56
100
AcDbLine
 10
294.9873178741801
 20
240.3176229270147
 30
0.0
 11
294.9595074320472
 21
1017.926882565553
 31
0.0
  0
ARC
  5
26E
330
2
100
AcDbEntity
  8
0
 62
    56
100
AcDbCircle
 10
714.0263533355915
 20
629.3287134877487
 30
0.0
 40
86.57756336906864
100
AcDbArc
 50
273.7681543582587
 51
86.23184564174131
  0
LINE
  5
26F
330
2
100
AcDbEntity
  8
0
 62
    56
100
AcDbLine
 10
973.9539700263961
 20
625.1124834942498
 30
0.0
 11
973.9539700263961
 21
501.1746429232616
 31
0.0
  0
LINE
  5
270
330
2
100
AcDbEntity
  8
0
 62
    56
100
AcDbLine
 10
973.9539700263961
 20
501.1746429232616
 30
0.0
 11
906.4579844358259
 21
501.1746429232616
 31
0.0
  0
LINE
  5
271
330
2
100
AcDbEntity
  8
0
 62
    56
100
AcDbLine
 10
906.4579844358259
 20
501.1746429232616
 30
0.0
 11
906.4579844358259
 21
394.2070817623431
 31
0.0
  0
LINE
  5
272
330
2
100
AcDbEntity
  8
0
 62
    56
100
AcDbLine
 10
906.4579844358259
 20
394.2070817623431
 30
0.0
 11
934.4953215517596
 21
394.2070817623431
 31
0.0
  0
LINE
  5
273
330
2
100
AcDbEntity
  8
0
 62
    56
100
AcDbLine
 10
934.4953215517596
 20
380.8960846563837
 30
0.0
 11
934.4953215517596
 21
407.460580247544
 31
0.0
  0
LINE
  5
274
330
2
100
AcDbEntity
  8
0
 62
    56
100
AcDbLine
 10
940.8403907057147
 20
380.8960846563837
 30
0.0
 11
940.8403907057147
 21
407.460580247544
 31
0.0
  0
CIRCLE
  5
275
330
2
100
AcDbEntity
  8
0
 62
   250
370
    30
100
AcDbCircle
 10
1003.517714356422
 20
334.9398966850963
 30
0.0
 40
21.00918010397843
  0
CIRCLE
  5
279
330
2
100
AcDbEntity
  8
0
 62
   250
370
    30
100
AcDbCircle
 10
1003.455272873811
 20
394.3476714354988
 30
0.0
 40
21.00918010397843
  0
CIRCLE
  5
27D
330
2
100
AcDbEntity
  8
0
 62
   250
370
    30
100
AcDbCircle
 10
1003.455272873811
 20
451.0131016931476
 30
0.0
 40
21.00918010397843
  0
LINE
  5
281
330
2
100
AcDbEntity
  8
0
 62
    56
100
AcDbLine
 10
982.4460927698423
 20
394.3476714354988
 30
0.0
 11
940.8403907057147
 21
394.3476714354988
 31
0.0
  0
LINE
  5
282
330
2
100
AcDbEntity
  8
0
 62
    56
100
AcDbLine
 10
1024.464452977806
 20
394.3476714354988
 30
0.0
 11
1039.314395454069
 21
394.3476714354988
 31
0.0
  0
LINE
  5
283
330
2
100
AcDbEntity
  8
0
 62
    56
100
AcDbLine
 10
1039.388990038443
 20
379.3676202292459
 30
0.0
 11
1039.388990038443
 21
409.00459600814
 31
0.0
  0
LINE
  5
284
330
2
100
AcDbEntity
  8
0
 62
    56
100
AcDbLine
 10
1042.74302770237
 20
383.8706902995915
 30
0.0
 11
1042.74302770237
 21
403.1583864851246
 31
0.0
  0
LINE
  5
285
330
2
100
AcDbEntity
  8
0
 62
    56
100
AcDbLine
 10
1046.461012423949
 20
389.243690747517
 30
0.0
 11
1046.461012423949
 21
397.7853860371993
 31
0.0
  0
LINE
  5
286
330
2
100
AcDbEntity
  8
0
 62
    56
100
AcDbLine
 10
973.9539700263961
 20
625.1124834942498
 30
0.0
 11
973.9539700263961
 21
752.756677270245
 31
0.0
  0
LINE
  5
287
330
2
100
AcDbEntity
  8
0
 62
    56
100
AcDbLine
 10
973.9539700263961
 20
752.756677270245
 30
0.0
 11
905.6413493840961
 21
752.756677270245
 31
0.0
  0
LINE
  5
288
330
2
100
AcDbEntity
  8
0
 62
    56
100
AcDbLine
 10
905.6413493840961
 20
752.756677270245
 30
0.0
 11
905.6413493840961
 21
920.9552148575816
 31
0.0
  0
LINE
  5
289
330
2
100
AcDbEntity
  8
0
 62
    56
100
AcDbLine
 10
905.6413493840961
 20
920.9552148575816
 30
0.0
 11
942.2925948928883
 21
920.9552148575816
 31
0.0
  0
LINE
  5
28A
330
2
100
AcDbEntity
  8
0
 62
     1
370
    30
100
AcDbLine
 10
950.2989489221251
 20
845.5916548606225
 30
0.0
 11
1012.039857522575
 21
845.5916548606225
 31
0.0
  0
LINE
  5
28B
330
2
100
AcDbEntity
  8
0
 62
     3
370
    30
100
AcDbLine
 10
969.3382320053286
 20
803.5084767944718
 30
0.0
 11
1011.712316518024
 21
830.4615642773709
 31
0.0
  0
LINE
  5
28C
330
2
100
AcDbEntity
  8
0
 62
    56
100
AcDbLine
 10
934.9535364719052
 20
827.3457265659777
 30
0.0
 11
934.9535364719052
 21
858.7929572286345
 31
0.0
  0
LINE
  5
28D
330
2
100
AcDbEntity
  8
0
 62
    56
100
AcDbLine
 10
934.9535364719052
 20
842.1221343767278
 30
0.0
 11
905.6413493840961
 21
842.1221343767278
 31
0.0
  0
LINE
  5
28E
330
2
100
AcDbEntity
  8
0
 62
    56
100
AcDbLine
 10
1024.464452977806
 20
841.4595212865702
 30
0.0
 11
1039.314395454069
 21
841.4595212865702
 31
0.0
  0
LINE
  5
28F
330
2
100
AcDbEntity
  8
0
 62
    56
100
AcDbLine
 10
1039.388990038443
 20
826.4794700803172
 30
0.0
 11
1039.388990038443
 21
856.1164458592115
 31
0.0
  0
LINE
  5
290
330
2
100
AcDbEntity
  8
0
 62
    56
100
AcDbLine
 10
1042.74302770237
 20
830.9825401507263
 30
0.0
 11
1042.74302770237
 21
850.2702363362281
 31
0.0
  0
LINE
  5
291
330
2
100
AcDbEntity
  8
0
 62
    56
100
AcDbLine
 10
1046.461012423949
 20
836.3555405986202
 30
0.0
 11
1046.461012423949
 21
844.8972358883024
 31
0.0
  0
LINE
  5
292
330
2
100
AcDbEntity
  8
0
 62
    56
370
    20
100
AcDbLine
 10
947.6868372289683
 20
911.4332543979623
 30
0.0
 11
1010.827803089492
 21
911.4332543979623
 31
0.0
  0
LINE
  5
293
330
2
100
AcDbEntity
  8
0
 62
    56
370
    20
100
AcDbLine
 10
1010.827803089492
 20
911.4332543979623
 30
0.0
 11
1010.827803089492
 21
930.5621469768404
 31
0.0
  0
LINE
  5
294
330
2
100
AcDbEntity
  8
0
 62
    56
370
    20
100
AcDbLine
 10
1010.827803089492
 20
930.5621469768404
 30
0.0
 11
947.6868372289683
 21
930.5621469768404
 31
0.0
  0
LINE
  5
295
330
2
100
AcDbEntity
  8
0
 62
    56
370
    20
100
AcDbLine
 10
947.6868372289683
 20
930.5621469768404
 30
0.0
 11
947.6868372289683
 21
911.4332543979623
 31
0.0
  0
LINE
  5
296
330
2
100
AcDbEntity
  8
0
 62
    56
370
    20
100
AcDbLine
 10
942.2925948928883
 20
920.9552148575816
 30
0.0
 11
957.1310260261633
 21
920.9552148575816
 31
0.0
  0
LINE
  5
297
330
2
100
AcDbEntity
  8
0
 62
    56
370
    20
100
AcDbLine
 10
957.1310260261633
 20
914.6058149412926
 30
0.0
 11
957.1310260261633
 21
927.30461477403
 31
0.0
  0
LINE
  5
298
330
2
100
AcDbEntity
  8
0
 62
    56
370
    20
100
AcDbLine
 10
957.1310260261633
 20
927.30461477403
 30
0.0
 11
992.8444137824833
 21
920.9552148575816
 31
0.0
  0
LINE
  5
299
330
2
100
AcDbEntity
  8
0
 62
    56
370
    20
100
AcDbLine
 10
957.1310260261633
 20
914.6058149412926
 30
0.0
 11
992.8444137824833
 21
920.9552148575816
 31
0.0
  0
LINE
  5
29A
330
2
100
AcDbEntity
  8
0
 62
    56
100
AcDbLine
 10
1024.575723114653
 20
921.1158627875423
 30
0.0
 11
1039.425665590903
 21
921.1158627875423
 31
0.0
  0
LINE
  5
29B
330
2
100
AcDbEntity
  8
0
 62
    56
100
AcDbLine
 10
1039.500260175289
 20
906.1358115812897
 30
0.0
 11
1039.500260175289
 21
935.7727873603113
 31
0.0
  0
LINE
  5
29C
330
2
100
AcDbEntity
  8
0
 62
    56
100
AcDbLine
 10
1042.854297839231
 20
910.6388816516666
 30
0.0
 11
1042.854297839231
 21
929.926577837328
 31
0.0
  0
LINE
  5
29D
330
2
100
AcDbEntity
  8
0
 62
    56
100
AcDbLine
 10
1046.572282560815
 20
916.0118820995927
 30
0.0
 11
1046.572282560815
 21
924.5535773894019
 31
0.0
  0
LINE
  5
29E
330
2
100
AcDbEntity
  8
0
 62
    56
100
AcDbLine
 10
800.5989484865619
 20
628.4012180692907
 30
0.0
 11
1085.671855937085
 21
628.4012180692907
 31
0.0
  0
CIRCLE
  5
29F
330
2
100
AcDbEntity
  8
0
 62
   250
370
    30
100
AcDbCircle
 10
1234.582622490346
 20
335.6770914340137
 30
0.0
 40
21.00918010397843
  0
CIRCLE
  5
2A3
330
2
100
AcDbEntity
  8
0
 62
   250
370
    30
100
AcDbCircle
 10
1234.520181007761
 20
395.0848661843843
 30
0.0
 40
21.00918010397843
  0
CIRCLE
  5
2A7
330
2
100
AcDbEntity
  8
0
 62
   250
370
    30
100
AcDbCircle
 10
1234.520181007761
 20
451.7502964421924
 30
0.0
 40
21.00918010397843
  0
CIRCLE
  5
2AB
330
2
100
AcDbEntity
  8
0
 62
   250
370
    30
100
AcDbCircle
 10
1137.685615453919
 20
578.5931509954439
 30
0.0
 40
21.00918010397843
  0
LINE
  5
2AE
330
2
100
AcDbEntity
  8
0
 62
   252
100
AcDbLine
 10
1094.57518754467
 20
261.2888166757517
 30
0.0
 11
1094.57518754467
 21
619.2495115365913
 31
0.0
  0
LINE
  5
2AF
330
2
100
AcDbEntity
  8
0
 62
   252
100
AcDbLine
 10
1094.57518754467
 20
619.2495115365913
 30
0.0
 11
1339.165136360506
 21
619.2495115365913
 31
0.0
  0
LINE
  5
2B0
330
2
100
AcDbEntity
  8
0
 62
   252
100
AcDbLine
 10
1339.165136360506
 20
619.2495115365913
 30
0.0
 11
1339.165136360506
 21
261.2888166757517
 31
0.0
  0
LINE
  5
2B1
330
2
100
AcDbEntity
  8
0
 62
   252
100
AcDbLine
 10
1339.165136360506
 20
261.2888166757517
 30
0.0
 11
1094.57518754467
 21
261.2888166757517
 31
0.0
  0
CIRCLE
  5
2B3
330
2
100
AcDbEntity
  8
0
 62
   250
370
    30
100
AcDbCircle
 10
1234.582622490346
 20
768.358341278077
 30
0.0
 40
21.00918010397843
  0
CIRCLE
  5
2B7
330
2
100
AcDbEntity
  8
0
 62
     1
370
    30
100
AcDbCircle
 10
1234.520181007761
 20
886.8995479778192
 30
0.0
 40
21.00918010397843
  0
LINE
  5
2B8
330
2
100
AcDbEntity
  8
0
 62
     1
370
    30
100
AcDbLine
 10
1221.017559352162
 20
871.3262743741145
 30
0.0
 11
1248.022798577847
 21
902.4728251238176
 31
0.0
  0
LINE
  5
2B9
330
2
100
AcDbEntity
  8
0
 62
     1
370
    30
100
AcDbLine
 10
1234.520181007761
 20
886.8995479778192
 30
0.0
 11
1221.954892414037
 21
903.2384942371871
 31
0.0
  0
LINE
  5
2BA
330
2
100
AcDbEntity
  8
0
 62
     1
370
    30
100
AcDbLine
 10
1234.520181007761
 20
886.8995479778192
 30
0.0
 11
1246.712678770662
 21
870.2805636342517
 31
0.0
  0
LINE
  5
2BB
330
2
100
AcDbEntity
  8
0
 62
   252
100
AcDbLine
 10
1094.57518754467
 20
653.1478911412072
 30
0.0
 11
1094.57518754467
 21
1011.108586001919
 31
0.0
  0
LINE
  5
2BC
330
2
100
AcDbEntity
  8
0
 62
   252
100
AcDbLine
 10
1094.57518754467
 20
1011.108586001919
 30
0.0
 11
1339.165136360506
 21
1011.108586001919
 31
0.0
  0
LINE
  5
2BD
330
2
100
AcDbEntity
  8
0
 62
   252
100
AcDbLine
 10
1339.165136360506
 20
1011.108586001919
 30
0.0
 11
1339.165136360506
 21
653.1478911412075
 31
0.0
  0
LINE
  5
2BE
330
2
100
AcDbEntity
  8
0
 62
   252
100
AcDbLine
 10
1339.165136360506
 20
653.1478911412075
 30
0.0
 11
1094.57518754467
 21
653.1478911412075
 31
0.0
  0
LINE
  5
2C1
330
2
100
AcDbEntity
  8
0
 62
   252
100
AcDbLine
 10
599.7926463441414
 20
796.0172651447789
 30
0.0
 11
636.104935636844
 21
821.9138351143877
 31
0.0
  0
LINE
  5
2C2
330
2
100
AcDbEntity
  8
0
 62
   252
100
AcDbLine
 10
601.6548179111188
 20
811.6557315550569
 30
0.0
 11
633.4979104466635
 21
833.6398903008328
 31
0.0
  0
LINE
  5
2C4
330
2
100
AcDbEntity
  8
0
 62
   252
100
AcDbLine
 10
636.2000600586878
 20
849.2813438231047
 30
0.0
 11
599.4059293878438
 21
824.0740703083114
 31
0.0
  0
LINE
  5
2C6
330
2
100
AcDbEntity
  8
0
 62
   252
100
AcDbLine
 10
659.3275608998866
 20
796.0172651447784
 30
0.0
 11
695.6398501925906
 21
821.9138351143874
 31
0.0
  0
LINE
  5
2C7
330
2
100
AcDbEntity
  8
0
 62
   252
100
AcDbLine
 10
661.1897324668648
 20
811.6557315550567
 30
0.0
 11
693.0328250024127
 21
833.6398903008332
 31
0.0
  0
LINE
  5
2C9
330
2
100
AcDbEntity
  8
0
 62
   252
100
AcDbLine
 10
695.734974614433
 20
849.2813438230722
 30
0.0
 11
658.9408439435697
 21
824.0740703082797
 31
0.0
  0
ARC
  5
2CA
330
2
100
AcDbEntity
  8
0
 62
    18
370
     0
100
AcDbCircle
 10
1139.286453494253
 20
767.3453875379626
 30
0.0
 40
14.46431580258922
100
AcDbArc
 50
96.35583041835197
 51
263.644169581648
  0
LINE
  5
2CB
330
2
100
AcDbEntity
  8
0
 62
    18
370
     0
100
AcDbLine
 10
1137.685213251165
 20
752.9699758457857
 30
0.0
 11
1151.510053583306
 21
752.9699758457857
 31
0.0
  0
LINE
  5
2CC
330
2
100
AcDbEntity
  8
0
 62
    18
370
     0
100
AcDbLine
 10
1137.685213251165
 20
781.7207992301703
 30
0.0
 11
1151.510053583306
 21
781.7207992301703
 31
0.0
  0
LINE
  5
2CD
330
2
100
AcDbEntity
  8
0
 62
    18
370
     0
100
AcDbLine
 10
1151.510053583306
 20
747.2938776490585
 30
0.0
 11
1151.510053583306
 21
787.4255459526518
 31
0.0
  0
LINE
  5
2CE
330
2
100
AcDbEntity
  8
0
 62
    18
370
     0
100
AcDbLine
 10
1151.510053583306
 20
747.2938776490585
 30
0.0
 11
1178.172928851987
 21
747.2938776490585
 31
0.0
  0
LINE
  5
2CF
330
2
100
AcDbEntity
  8
0
 62
    18
370
     0
100
AcDbLine
 10
1178.172928851987
 20
747.2938776490585
 30
0.0
 11
1178.172928851987
 21
787.4255459526518
 31
0.0
  0
LINE
  5
2D0
330
2
100
AcDbEntity
  8
0
 62
    18
370
     0
100
AcDbLine
 10
1178.172928851987
 20
787.4255459526518
 30
0.0
 11
1151.510053583306
 21
787.4255459526518
 31
0.0
  0
ARC
  5
2D1
330
2
100
AcDbEntity
  8
0
 62
    88
100
AcDbCircle
 10
1139.003241827325
 20
858.899169573338
 30
0.0
 40
14.46431580258922
100
AcDbArc
 50
96.35583041835197
 51
263.644169581648
  0
LINE
  5
2D2
330
2
100
AcDbEntity
  8
0
 62
    88
100
AcDbLine
 10
1137.402001584215
 20
873.421985177711
 30
0.0
 11
1151.226841916377
 21
873.421985177711
 31
0.0
  0
LINE
  5
2D3
330
2
100
AcDbEntity
  8
0
 62
    88
100
AcDbLine
 10
1151.226841916377
 20
867.7458869808249
 30
0.0
 11
1151.226841916377
 21
907.8775552845764
 31
0.0
  0
LINE
  5
2D4
330
2
100
AcDbEntity
  8
0
 62
    88
100
AcDbLine
 10
1151.226841916377
 20
867.7458869808249
 30
0.0
 11
1177.88971718507
 21
867.7458869808249
 31
0.0
  0
LINE
  5
2D5
330
2
100
AcDbEntity
  8
0
 62
    88
100
AcDbLine
 10
1177.88971718507
 20
867.7458869808249
 30
0.0
 11
1177.889717185057
 21
907.8775552845764
 31
0.0
  0
LINE
  5
2D6
330
2
100
AcDbEntity
  8
0
 62
    88
100
AcDbLine
 10
1177.88971718507
 20
907.8775552845764
 30
0.0
 11
1151.226841916377
 21
907.8775552845764
 31
0.0
  0
LINE
  5
2D7
330
2
100
AcDbEntity
  8
0
 62
   250
370
    30
100
AcDbLine
 10
665.8807654987732
 20
907.4940630177801
 30
0.0
 11
665.8807654987732
 21
945.7800229854225
 31
0.0
  0
LINE
  5
2D8
330
2
100
AcDbEntity
  8
0
 62
   250
370
    30
100
AcDbLine
 10
665.8807654987732
 20
945.7800229854225
 30
0.0
 11
689.6916630852606
 21
945.7800229854225
 31
0.0
  0
LINE
  5
2D9
330
2
100
AcDbEntity
  8
0
 62
   250
370
    30
100
AcDbLine
 10
689.6916630852606
 20
945.7800229854225
 30
0.0
 11
689.6916630852606
 21
907.4940630177801
 31
0.0
  0
LINE
  5
2DA
330
2
100
AcDbEntity
  8
0
 62
   250
370
    30
100
AcDbLine
 10
689.6916630852606
 20
907.4940630177801
 30
0.0
 11
665.8807654987732
 21
907.4940630177801
 31
0.0
  0
LINE
  5
2DB
330
2
100
AcDbEntity
  8
TOPOVERLAY
  6
Continuous
 62
     3
370
    30
100
AcDbLine
 10
606.3458509430277
 20
907.4940630177803
 30
0.0
 11
606.3458509430277
 21
945.7800229852642
 31
0.0
  0
LINE
  5
2DC
330
2
100
AcDbEntity
  8
TOPOVERLAY
  6
Continuous
 62
     3
370
    30
100
AcDbLine
 10
606.3458509430277
 20
945.7800229852642
 30
0.0
 11
630.1567485295541
 21
945.7800229852642
 31
0.0
  0
LINE
  5
2DD
330
2
100
AcDbEntity
  8
TOPOVERLAY
  6
Continuous
 62
     3
370
    30
100
AcDbLine
 10
630.1567485295541
 20
945.7800229852642
 30
0.0
 11
630.1567485295541
 21
907.4940630177803
 31
0.0
  0
LINE
  5
2DE
330
2
100
AcDbEntity
  8
TOPOVERLAY
  6
Continuous
 62
     3
370
    30
100
AcDbLine
 10
630.1567485295541
 20
907.4940630177803
 30
0.0
 11
606.3458509430277
 21
907.4940630177803
 31
0.0
  0
LINE
  5
2E0
330
2
100
AcDbEntity
  8
0
 62
   252
100
AcDbLine
 10
1176.401910468062
 20
557.2303403402433
 30
0.0
 11
1176.401910468062
 21
601.3235525283021
 31
0.0
  0
LINE
  5
2E1
330
2
100
AcDbEntity
  8
0
 62
   252
100
AcDbLine
 10
1176.401910468062
 20
601.3235525283021
 30
0.0
 11
1211.659521838679
 21
601.3235525283021
 31
0.0
  0
LINE
  5
2E2
330
2
100
AcDbEntity
  8
0
 62
   252
100
AcDbLine
 10
1211.659521838679
 20
601.3235525283021
 30
0.0
 11
1211.659521838679
 21
557.2303403402433
 31
0.0
  0
LINE
  5
2E3
330
2
100
AcDbEntity
  8
0
 62
   252
100
AcDbLine
 10
1211.659521838679
 20
557.2303403402433
 30
0.0
 11
1176.401910468062
 21
557.2303403402433
 31
0.0
  0
LINE
  5
2E6
330
2
100
AcDbEntity
  8
0
 62
   250
370
   100
100
AcDbLine
 10
527.8635948504152
 20
628.2835470220474
 30
0.0
 11
587.9718373885777
 21
628.2835470220474
 31
0.0
  0
LINE
  5
2E7
330
2
100
AcDbEntity
  8
TOPOVERLAY
  6
Continuous
 62
   250
370
   100
100
AcDbLine
 10
541.4356581651294
 20
585.0814711308552
 30
0.0
 11
587.6442963840311
 21
614.4695149158027
 31
0.0
  0
LINE
  5
2EA
330
2
100
AcDbEntity
  8
0
 62
     1
370
   100
100
AcDbLine
 10
950.2989489221251
 20
845.5916548606225
 30
0.0
 11
1012.039857522575
 21
845.5916548606225
 31
0.0
  0
LINE
  5
2EB
330
2
100
AcDbEntity
  8
0
 62
   250
370
   100
100
AcDbLine
 10
969.3382320053286
 20
803.5084767944718
 30
0.0
 11
1011.712316518024
 21
830.4615642773709
 31
0.0
  0
LINE
  5
2ED
330
2
100
AcDbEntity
  8
0
 62
    56
100
AcDbLine
 10
487.2596160318638
 20
616.2796927904357
 30
0.0
 11
511.5368865155466
 21
640.4371014782914
 31
0.0
  0
LINE
  5
2EE
330
2
100
AcDbEntity
  8
0
 62
    56
100
AcDbLine
 10
487.2596160318638
 20
640.4371014782914
 30
0.0
 11
511.5368865155466
 21
616.2796927904357
 31
0.0
  0
LINE
  5
2EF
330
2
100
AcDbEntity
  8
0
 62
    56
100
AcDbLine
 10
646.6388714719157
 20
640.4799224132188
 30
0.0
 11
670.9161419555982
 21
616.3225137253627
 31
0.0
  0
LINE
  5
2F0
330
2
100
AcDbEntity
  8
0
 62
    56
100
AcDbLine
 10
646.6388714719157
 20
616.3225137253627
 30
0.0
 11
670.9161419555982
 21
640.4799224132188
 31
0.0
  0
LINE
  5
34E
330
2
100
AcDbEntity
  8
TOPOVERLAY
  6
Continuous
 62
   250
370
   100
100
AcDbLine
 10
402.8918988683551
 20
615.0891707921307
 30
0.0
 11
402.8918988683551
 21
581.2038389636446
 31
0.0
  0
LINE
  5
34F
330
2
100
AcDbEntity
  8
0
 62
   250
370
   100
100
AcDbLine
 10
369.3976333107765
 20
628.4012180692907
 30
0.0
 11
389.5796502072763
 21
628.4012180692907
 31
0.0
  0
LINE
  5
350
330
2
100
AcDbEntity
  8
0
 62
   250
370
   100
100
AcDbLine
 10
355.6943183798837
 20
628.4012180692907
 30
0.0
 11
389.5796502072763
 21
628.4012180692907
 31
0.0
  0
LINE
  5
351
330
2
100
AcDbEntity
  8
0
 62
   250
370
   100
100
AcDbLine
 10
416.2037447646424
 20
628.4012180692907
 30
0.0
 11
439.2980590427089
 21
628.4012180692907
 31
0.0
  0
LINE
  5
352
330
2
100
AcDbEntity
  8
0
 62
   250
370
   100
100
AcDbLine
 10
416.2037447646424
 20
628.4012180692907
 30
0.0
 11
450.0890765920352
 21
628.4012180692907
 31
0.0
  0
LINE
  5
353
330
2
100
AcDbEntity
  8
TOPOVERLAY
  6
Continuous
 62
   250
370
   100
100
AcDbLine
 10
402.8918988683551
 20
641.7132653464506
 30
0.0
 11
402.8918988683551
 21
675.5985971749367
 31
0.0
  0
LINE
  5
3A7
330
2
100
AcDbEntity
  8
0
 62
    56
100
AcDbLine
 10
314.6906252757422
 20
628.4012180692907
 30
0.0
 11
294.9734384654401
 21
628.4005129031984
 31
0.0
  0
MTEXT
  5
41F
330
2
100
AcDbEntity
  8
0
100
AcDbMText
 10
178.1088203111944
 20
165.4714462935649
 30
0.0
 40
30.0
 41
3011.936264869754
 71
     1
 72
     5
  1
ORT400
 11
0.0000000000000001
 21
1.0
 31
0.0
 73
     1
 44
1.0
1001
ACAD
1000
MTEXTBEGIN
1070
    73
1070
     1
1070
    44
1040
1.0
1070
    74
1070
     0
1000
MTEXTEND
  0
LINE
  5
4D4
330
2
100
AcDbEntity
  8
0
 62
   250
370
    30
100
AcDbLine
 10
1234.582624533102
 20
768.3583395069299
 30
0.0
 11
1246.775122296003
 21
751.7393551633626
 31
0.0
  0
LINE
  5
4D5
330
2
100
AcDbEntity
  8
0
 62
   250
370
    30
100
AcDbLine
 10
1234.582624533102
 20
768.3583395069299
 30
0.0
 11
1222.017335939378
 21
784.697285766298
 31
0.0
  0
LINE
  5
4D6
330
2
100
AcDbEntity
  8
0
 62
   250
370
    30
100
AcDbLine
 10
1221.080002877503
 20
752.7850659032252
 30
0.0
 11
1248.085242103188
 21
783.9316166529283
 31
0.0
  0
LINE
  5
4D7
330
2
100
AcDbEntity
  8
0
 62
   250
370
    30
100
AcDbLine
 10
1124.182995841076
 20
563.0198756205922
 30
0.0
 11
1151.188235066761
 21
594.1664263702953
 31
0.0
  0
LINE
  5
4D8
330
2
100
AcDbEntity
  8
0
 62
   250
370
    30
100
AcDbLine
 10
1137.685617496675
 20
578.593149224297
 30
0.0
 11
1125.12032890295
 21
594.9320954836649
 31
0.0
  0
LINE
  5
4D9
330
2
100
AcDbEntity
  8
0
 62
   250
370
    30
100
AcDbLine
 10
1137.685617496675
 20
578.593149224297
 30
0.0
 11
1149.878115259576
 21
561.9741648807295
 31
0.0
  0
LINE
  5
4DA
330
2
100
AcDbEntity
  8
0
 62
   250
370
    30
100
AcDbLine
 10
1221.017561394918
 20
436.1770210673407
 30
0.0
 11
1248.022800620603
 21
467.3235718170438
 31
0.0
  0
LINE
  5
4DB
330
2
100
AcDbEntity
  8
0
 62
   250
370
    30
100
AcDbLine
 10
1234.520183050517
 20
451.7502946710455
 30
0.0
 11
1221.954894456793
 21
468.0892409304131
 31
0.0
  0
LINE
  5
4DC
330
2
100
AcDbEntity
  8
0
 62
   250
370
    30
100
AcDbLine
 10
1234.520183050517
 20
451.7502946710455
 30
0.0
 11
1246.712680813418
 21
435.131310327478
 31
0.0
  0
LINE
  5
4DD
330
2
100
AcDbEntity
  8
0
 62
   250
370
    30
100
AcDbLine
 10
1221.017561394918
 20
379.5115908095326
 30
0.0
 11
1248.022800620603
 21
410.6581415592358
 31
0.0
  0
LINE
  5
4DE
330
2
100
AcDbEntity
  8
0
 62
   250
370
    30
100
AcDbLine
 10
1234.520183050517
 20
395.0848644132374
 30
0.0
 11
1221.954894456793
 21
411.4238106726054
 31
0.0
  0
LINE
  5
4DF
330
2
100
AcDbEntity
  8
0
 62
   250
370
    30
100
AcDbLine
 10
1234.520183050517
 20
395.0848644132374
 30
0.0
 11
1246.712680813418
 21
378.4658800696699
 31
0.0
  0
LINE
  5
4E0
330
2
100
AcDbEntity
  8
0
 62
   250
370
    30
100
AcDbLine
 10
1221.080002877503
 20
320.103816059162
 30
0.0
 11
1248.085242103188
 21
351.2503668088652
 31
0.0
  0
LINE
  5
4E1
330
2
100
AcDbEntity
  8
0
 62
   250
370
    30
100
AcDbLine
 10
1234.582624533102
 20
335.6770896628668
 30
0.0
 11
1222.017335939378
 21
352.0160359222348
 31
0.0
  0
LINE
  5
4E2
330
2
100
AcDbEntity
  8
0
 62
   250
370
    30
100
AcDbLine
 10
1234.582624533102
 20
335.6770896628668
 30
0.0
 11
1246.775122296003
 21
319.0581053192993
 31
0.0
  0
LINE
  5
4E3
330
2
100
AcDbEntity
  8
0
 62
   250
370
    30
100
AcDbLine
 10
989.9526532609682
 20
435.4398263182958
 30
0.0
 11
1016.957892486653
 21
466.5863770679991
 31
0.0
  0
LINE
  5
4E4
330
2
100
AcDbEntity
  8
0
 62
   250
370
    30
100
AcDbLine
 10
1003.455274916567
 20
451.0130999220006
 30
0.0
 11
990.8899863228434
 21
467.3520461813687
 31
0.0
  0
LINE
  5
4E5
330
2
100
AcDbEntity
  8
0
 62
   250
370
    30
100
AcDbLine
 10
1003.455274916567
 20
451.0130999220006
 30
0.0
 11
1015.647772679468
 21
434.3941155784332
 31
0.0
  0
LINE
  5
4E6
330
2
100
AcDbEntity
  8
0
 62
   250
370
    30
100
AcDbLine
 10
989.9526532609682
 20
378.7743960606472
 30
0.0
 11
1016.957892486653
 21
409.92094681035
 31
0.0
  0
LINE
  5
4E7
330
2
100
AcDbEntity
  8
0
 62
   250
370
    30
100
AcDbLine
 10
1003.455274916567
 20
394.3476696643519
 30
0.0
 11
990.8899863228434
 21
410.6866159237197
 31
0.0
  0
LINE
  5
4E8
330
2
100
AcDbEntity
  8
0
 62
   250
370
    30
100
AcDbLine
 10
1003.455274916567
 20
394.3476696643519
 30
0.0
 11
1015.647772679468
 21
377.7286853207844
 31
0.0
  0
LINE
  5
4E9
330
2
100
AcDbEntity
  8
0
 62
   250
370
    30
100
AcDbLine
 10
990.0150947435792
 20
319.3666213102447
 30
0.0
 11
1017.020333969264
 21
350.5131720599478
 31
0.0
  0
LINE
  5
4EA
330
2
100
AcDbEntity
  8
0
 62
   250
370
    30
100
AcDbLine
 10
1003.517716399178
 20
334.9398949139493
 30
0.0
 11
990.9524278054542
 21
351.2788411733175
 31
0.0
  0
LINE
  5
4EB
330
2
100
AcDbEntity
  8
0
 62
   250
370
    30
100
AcDbLine
 10
1003.517716399178
 20
334.9398949139493
 30
0.0
 11
1015.710214162079
 21
318.3209105703819
 31
0.0
  0
LINE
  5
5FE
330
2
100
AcDbEntity
  8
TOPOVERLAY
  6
Continuous
 62
   250
370
   100
100
AcDbLine
 10
732.0778698662016
 20
615.0891707921307
 30
0.0
 11
732.0778698662013
 21
581.2038389636446
 31
0.0
  0
LINE
  5
5FF
330
2
100
AcDbEntity
  8
0
 62
   250
370
   100
100
AcDbLine
 10
684.8802893777299
 20
628.4012180692907
 30
0.0
 11
718.7656212051225
 21
628.4012180692907
 31
0.0
  0
LINE
  5
600
330
2
100
AcDbEntity
  8
0
 62
   250
370
   100
100
AcDbLine
 10
698.5836043086227
 20
628.4012180692907
 30
0.0
 11
718.7656212051225
 21
628.4012180692907
 31
0.0
  0
LINE
  5
601
330
2
100
AcDbEntity
  8
TOPOVERLAY
  6
Continuous
 62
   250
370
   100
100
AcDbLine
 10
732.0778698662016
 20
641.7132653464506
 30
0.0
 11
732.0778698662013
 21
675.5985971749367
 31
0.0
  0
LINE
  5
602
330
2
100
AcDbEntity
  8
0
 62
   250
370
   100
100
AcDbLine
 10
745.3897157624886
 20
628.4012180692907
 30
0.0
 11
779.2750475898814
 21
628.4012180692907
 31
0.0
  0
LINE
  5
603
330
2
100
AcDbEntity
  8
0
 62
   250
370
   100
100
AcDbLine
 10
745.3897157624886
 20
628.4012180692907
 30
0.0
 11
768.4840300405551
 21
628.4012180692907
 31
0.0
  0
ARC
  5
690
330
2
100
AcDbEntity
  8
0
 62
   252
100
AcDbCircle
 10
617.8764404623666
 20
856.3992904409591
 30
0.0
 40
19.88045606348704
100
AcDbArc
 50
162.0486963503322
 51
20.11213206675568
  0
ARC
  5
6A3
330
2
100
AcDbEntity
  8
0
 62
   252
100
AcDbCircle
 10
618.2472219321501
 20
789.2460880659657
 30
0.0
 40
19.88045606348704
100
AcDbArc
 50
340.9682821417888
 51
199.0317178582113
  0
ARC
  5
6A4
330
2
100
AcDbEntity
  8
0
 62
   252
100
AcDbCircle
 10
677.4113550180925
 20
856.3992904409273
 30
0.0
 40
19.88045606348704
100
AcDbArc
 50
162.0486963503322
 51
20.11213206675568
  0
ARC
  5
6A5
330
2
100
AcDbEntity
  8
0
 62
   252
100
AcDbCircle
 10
677.7821364878757
 20
789.2460880659341
 30
0.0
 40
19.88045606348704
100
AcDbArc
 50
340.9682821417888
 51
199.0317178582113
  0
LINE
  5
733
330
2
100
AcDbEntity
  8
0
100
AcDbLine
 10
771.0166902888186
 20
1016.275047700322
 30
0.0
 11
951.0793078530085
 21
862.9691879784022
 31
0.0
  0
LINE
  5
737
330
2
100
AcDbEntity
  8
0
100
AcDbLine
 10
951.0793078530085
 20
862.9691879784022
 30
0.0
 11
926.5229616268623
 21
860.1814874344754
 31
0.0
  0
LINE
  5
738
330
2
100
AcDbEntity
  8
0
100
AcDbLine
 10
951.0793078530085
 20
862.9691879784022
 30
0.0
 11
948.2888139636743
 21
889.7311198476787
 31
0.0
  0
LINE
  5
9C1
330
2
100
AcDbEntity
  8
6-家具-143
 62
   143
100
AcDbLine
 10
724.7657905066545
 20
1016.095045327459
 30
0.0
 11
725.2218423724566
 21
1008.120955715579
 31
0.0
  0
LINE
  5
9C2
330
2
100
AcDbEntity
  8
6-家具-143
 62
   143
100
AcDbLine
 10
724.5377645737416
 20
1019.056850040441
 30
0.0
 11
724.7657905066545
 21
1016.095045327459
 31
0.0
  0
LINE
  5
9C3
330
2
100
AcDbEntity
  8
6-家具-143
 62
   143
100
AcDbLine
 10
745.5161504007685
 20
1007.20963118851
 30
0.0
 11
745.0600985349548
 21
1013.816734009789
 31
0.0
  0
LINE
  5
9C4
330
2
100
AcDbEntity
  8
6-家具-143
 62
   143
100
AcDbLine
 10
745.2881244678675
 20
1001.058190630766
 30
0.0
 11
745.5161504007685
 21
1007.20963118851
 31
0.0
  0
LINE
  5
9C5
330
2
100
AcDbEntity
  8
6-家具-143
 62
   143
100
AcDbLine
 10
740.9556317427123
 20
994.4510878094881
 30
0.0
 11
745.2881244678675
 21
1001.058190630766
 31
0.0
  0
LINE
  5
9C6
330
2
100
AcDbEntity
  8
6-家具-143
 62
   143
100
AcDbLine
 10
735.4830093530631
 20
988.071816119965
 30
0.0
 11
740.9556317427123
 21
994.4510878094881
 31
0.0
  0
LINE
  5
9C7
330
2
100
AcDbEntity
  8
6-家具-143
 62
   143
100
AcDbLine
 10
761.9340175697389
 20
988.527478383499
 30
0.0
 11
762.3900694355413
 21
985.5656736705162
 31
0.0
  0
LINE
  5
9C8
330
2
100
AcDbEntity
  8
6-家具-143
 62
   143
100
AcDbLine
 10
760.1098101065186
 20
991.9449453600391
 30
0.0
 11
761.9340175697389
 21
988.527478383499
 31
0.0
  0
LINE
  5
9C9
330
2
100
AcDbEntity
  8
6-家具-143
 62
   143
100
AcDbLine
 10
757.6015248445951
 20
994.6789189412434
 30
0.0
 11
760.1098101065186
 21
991.9449453600391
 31
0.0
  0
LINE
  5
9CA
330
2
100
AcDbEntity
  8
6-家具-143
 62
   143
100
AcDbLine
 10
755.3212655155611
 20
999.0077104448513
 30
0.0
 11
757.6015248445951
 21
994.6789189412434
 31
0.0
  0
LINE
  5
9CB
330
2
100
AcDbEntity
  8
6-家具-143
 62
   143
100
AcDbLine
 10
755.3212655155611
 20
1005.386982134351
 30
0.0
 11
755.3212655155611
 21
999.0077104448513
 31
0.0
  0
LINE
  5
9CC
330
2
100
AcDbEntity
  8
6-家具-143
 62
   143
100
AcDbLine
 10
754.4091617839568
 20
1008.804449110892
 30
0.0
 11
755.3212655155611
 21
1005.386982134351
 31
0.0
  0
LINE
  5
9CD
330
2
100
AcDbEntity
  8
6-家具-143
 62
   143
100
AcDbLine
 10
753.26903211944
 20
1013.58890287801
 30
0.0
 11
754.4091617839568
 21
1008.804449110892
 31
0.0
  0
LINE
  5
9CE
330
2
100
AcDbEntity
  8
6-家具-143
 62
   143
100
AcDbLine
 10
762.8461213013434
 20
1034.093704737157
 30
0.0
 11
765.1263806303655
 21
1040.928638690192
 31
0.0
  0
LINE
  5
9CF
330
2
100
AcDbEntity
  8
6-家具-143
 62
   143
100
AcDbLine
 10
763.3021731671454
 20
1023.613472675806
 30
0.0
 11
762.8461213013434
 21
1034.093704737157
 31
0.0
  0
LINE
  5
9D0
330
2
100
AcDbEntity
  8
6-家具-143
 62
   143
100
AcDbLine
 10
763.3021731671454
 20
1017.462032118061
 30
0.0
 11
763.3021731671454
 21
1023.613472675806
 31
0.0
  0
LINE
  5
9D1
330
2
100
AcDbEntity
  8
6-家具-143
 62
   143
100
AcDbLine
 10
763.3021731671454
 20
1011.766253823874
 30
0.0
 11
763.3021731671454
 21
1017.462032118061
 31
0.0
  0
LINE
  5
9D2
330
2
100
AcDbEntity
  8
6-家具-143
 62
   143
100
AcDbLine
 10
762.6180953684419
 20
1004.931319870816
 30
0.0
 11
763.3021731671454
 21
1011.766253823874
 31
0.0
  0
LINE
  5
9D3
330
2
100
AcDbEntity
  8
6-家具-143
 62
   143
100
AcDbLine
 10
762.6180953684419
 20
997.8685547860047
 30
0.0
 11
762.6180953684419
 21
1004.931319870816
 31
0.0
  0
LINE
  5
9D4
330
2
100
AcDbEntity
  8
6-家具-143
 62
   143
100
AcDbLine
 10
761.7059916368378
 20
988.983140647033
 30
0.0
 11
762.6180953684419
 21
997.8685547860047
 31
0.0
  0
LINE
  5
9D5
330
2
100
AcDbEntity
  8
6-家具-143
 62
   143
100
AcDbLine
 10
764.1160500041948
 20
994.058517107711
 30
0.0
 11
764.8948462732643
 21
990.5569278404756
 31
0.0
  0
LINE
  5
9D6
330
2
100
AcDbEntity
  8
6-家具-143
 62
   143
100
AcDbLine
 10
762.6882568442189
 20
997.3007293921838
 30
0.0
 11
764.1160500041948
 21
994.058517107711
 31
0.0
  0
LINE
  5
9D7
330
2
100
AcDbEntity
  8
6-家具-143
 62
   143
100
AcDbLine
 10
737.0791908833822
 20
1017.462032118061
 30
0.0
 11
739.5874761453057
 21
1018.829018908687
 31
0.0
  0
LINE
  5
9D8
330
2
100
AcDbEntity
  8
6-家具-143
 62
   143
100
AcDbLine
 10
733.6588018898428
 20
1017.234200986306
 30
0.0
 11
737.0791908833822
 21
1017.462032118061
 31
0.0
  0
LINE
  5
9D9
330
2
100
AcDbEntity
  8
6-家具-143
 62
   143
100
AcDbLine
 10
727.7301276343799
 20
1017.234200986306
 30
0.0
 11
733.6588018898428
 21
1017.234200986306
 31
0.0
  0
LINE
  5
9DA
330
2
100
AcDbEntity
  8
6-家具-143
 62
   143
100
AcDbLine
 10
724.7657905066545
 20
1019.512512303975
 30
0.0
 11
727.7301276343799
 21
1017.234200986306
 31
0.0
  0
LINE
  5
9DB
330
2
100
AcDbEntity
  8
6-家具-143
 62
   143
100
AcDbLine
 10
720.8893496473128
 20
1022.929979280515
 30
0.0
 11
724.7657905066545
 21
1019.512512303975
 31
0.0
  0
LINE
  5
9DC
330
2
100
AcDbEntity
  8
6-家具-143
 62
   143
100
AcDbLine
 10
717.9250125195756
 20
1027.714433047635
 30
0.0
 11
720.8893496473128
 21
1022.929979280515
 31
0.0
  0
LINE
  5
9DD
330
2
100
AcDbEntity
  8
6-家具-143
 62
   143
100
AcDbLine
 10
717.4689606537736
 20
1039.789483031344
 30
0.0
 11
717.9250125195756
 21
1027.714433047635
 31
0.0
  0
LINE
  5
9DE
330
2
100
AcDbEntity
  8
6-家具-143
 62
   143
100
AcDbLine
 10
718.8371162511916
 20
1050.269715092698
 30
0.0
 11
717.4689606537736
 21
1039.789483031344
 31
0.0
  0
LINE
  5
9DF
330
2
100
AcDbEntity
  8
6-家具-143
 62
   143
100
AcDbLine
 10
721.8014533789173
 20
1054.82633772806
 30
0.0
 11
718.8371162511916
 21
1050.269715092698
 31
0.0
  0
LINE
  5
9E0
330
2
100
AcDbEntity
  8
6-家具-143
 62
   143
100
AcDbLine
 10
726.5899979698628
 20
1056.421155650442
 30
0.0
 11
721.8014533789173
 21
1054.82633772806
 31
0.0
  0
LINE
  5
9E1
330
2
100
AcDbEntity
  8
6-家具-143
 62
   143
100
AcDbLine
 10
732.5186722253257
 20
1058.471635836357
 30
0.0
 11
726.5899979698628
 21
1056.421155650442
 31
0.0
  0
LINE
  5
9E2
330
2
100
AcDbEntity
  8
6-家具-143
 62
   143
100
AcDbLine
 10
736.6231390175685
 20
1060.749947154027
 30
0.0
 11
732.5186722253257
 21
1058.471635836357
 31
0.0
  0
LINE
  5
9E3
330
2
100
AcDbEntity
  8
6-家具-143
 62
   143
100
AcDbLine
 10
762.8461213013434
 20
997.6407236542263
 30
0.0
 11
762.16204350264
 21
997.6407236542263
 31
0.0
  0
LINE
  5
9E4
330
2
100
AcDbEntity
  8
6-家具-143
 62
   143
100
AcDbLine
 10
763.5301991000464
 20
997.6407236542263
 30
0.0
 11
762.8461213013434
 21
997.6407236542263
 31
0.0
  0
LINE
  5
9E5
330
2
100
AcDbEntity
  8
6-家具-143
 62
   143
100
AcDbLine
 10
763.9862509658601
 20
1001.5138528943
 30
0.0
 11
763.5301991000464
 21
997.6407236542263
 31
0.0
  0
LINE
  5
9E6
330
2
100
AcDbEntity
  8
6-家具-143
 62
   143
100
AcDbLine
 10
764.8983546974647
 20
1001.969515157834
 30
0.0
 11
763.9862509658601
 21
1001.5138528943
 31
0.0
  0
LINE
  5
9E7
330
2
100
AcDbEntity
  8
6-家具-143
 62
   143
100
AcDbLine
 10
768.7747955568061
 20
1024.069134939339
 30
0.0
 11
764.8983546974647
 21
1001.969515157834
 31
0.0
  0
LINE
  5
9E8
330
2
100
AcDbEntity
  8
6-家具-143
 62
   143
100
AcDbLine
 10
769.0028214897069
 20
1026.575277388787
 30
0.0
 11
768.7747955568061
 21
1024.069134939339
 31
0.0
  0
LINE
  5
9E9
330
2
100
AcDbEntity
  8
6-家具-143
 62
   143
100
AcDbLine
 10
768.3187436910039
 20
1034.549367000691
 30
0.0
 11
769.0028214897069
 21
1026.575277388787
 31
0.0
  0
LINE
  5
9EA
330
2
100
AcDbEntity
  8
6-家具-143
 62
   143
100
AcDbLine
 10
769.4588733555091
 20
1045.485261325556
 30
0.0
 11
768.3187436910039
 21
1034.549367000691
 31
0.0
  0
LINE
  5
9EB
330
2
100
AcDbEntity
  8
6-家具-143
 62
   143
100
AcDbLine
 10
767.6346658922891
 20
1051.181039619765
 30
0.0
 11
769.4588733555091
 21
1045.485261325556
 31
0.0
  0
LINE
  5
9EC
330
2
100
AcDbEntity
  8
6-家具-143
 62
   143
100
AcDbLine
 10
765.5824324961679
 20
1054.142844332749
 30
0.0
 11
767.6346658922891
 21
1051.181039619765
 31
0.0
  0
LINE
  5
9ED
330
2
100
AcDbEntity
  8
6-家具-143
 62
   143
100
AcDbLine
 10
763.0741472342443
 20
1055.965493386908
 30
0.0
 11
765.5824324961679
 21
1054.142844332749
 31
0.0
  0
LINE
  5
9EE
330
2
100
AcDbEntity
  8
6-家具-143
 62
   143
100
AcDbLine
 10
758.2856026432986
 20
1058.015973572823
 30
0.0
 11
763.0741472342443
 21
1055.965493386908
 31
0.0
  0
LINE
  5
9EF
330
2
100
AcDbEntity
  8
6-家具-143
 62
   143
100
AcDbLine
 10
753.26903211944
 20
1060.977778285805
 30
0.0
 11
758.2856026432986
 21
1058.015973572823
 31
0.0
  0
LINE
  5
9F0
330
2
100
AcDbEntity
  8
6-家具-143
 62
   143
100
AcDbLine
 10
754.865213649759
 20
1020.651667962823
 30
0.0
 11
754.4091617839568
 21
1018.373356645153
 31
0.0
  0
LINE
  5
9F1
330
2
100
AcDbEntity
  8
6-家具-143
 62
   143
100
AcDbLine
 10
756.9174470458804
 20
1030.448406628863
 30
0.0
 11
754.865213649759
 21
1020.651667962823
 31
0.0
  0
LINE
  5
9F2
330
2
100
AcDbEntity
  8
6-家具-143
 62
   143
100
AcDbLine
 10
760.3378360394198
 20
1042.979118876107
 30
0.0
 11
756.9174470458804
 21
1030.448406628863
 31
0.0
  0
LINE
  5
9F3
330
2
100
AcDbEntity
  8
6-家具-143
 62
   143
100
AcDbLine
 10
762.8461213013434
 20
1050.041883960918
 30
0.0
 11
760.3378360394198
 21
1042.979118876107
 31
0.0
  0
LINE
  5
9F4
330
2
100
AcDbEntity
  8
6-家具-143
 62
   143
100
AcDbLine
 10
759.6537582407165
 20
1052.320195278612
 30
0.0
 11
762.8461213013434
 21
1050.041883960918
 31
0.0
  0
LINE
  5
9F5
330
2
100
AcDbEntity
  8
6-家具-143
 62
   143
100
AcDbLine
 10
762.16204350264
 20
1054.142844332749
 30
0.0
 11
759.6537582407165
 21
1052.320195278612
 31
0.0
  0
LINE
  5
9F6
330
2
100
AcDbEntity
  8
6-家具-143
 62
   143
100
AcDbLine
 10
759.1977063749027
 20
1057.560311309289
 30
0.0
 11
762.16204350264
 21
1054.142844332749
 31
0.0
  0
LINE
  5
9F7
330
2
100
AcDbEntity
  8
6-家具-143
 62
   143
100
AcDbLine
 10
749.8486431259122
 20
1010.171435901494
 30
0.0
 11
746.2002281994719
 21
1014.044565141544
 31
0.0
  0
LINE
  5
9F8
330
2
100
AcDbEntity
  8
6-家具-143
 62
   143
100
AcDbLine
 10
754.865213649759
 20
1015.411551932146
 30
0.0
 11
749.8486431259122
 21
1010.171435901494
 31
0.0
  0
LINE
  5
9F9
330
2
100
AcDbEntity
  8
6-家具-143
 62
   143
100
AcDbLine
 10
753.9531099181547
 20
1020.651667962823
 30
0.0
 11
754.865213649759
 21
1015.411551932146
 31
0.0
  0
LINE
  5
9FA
330
2
100
AcDbEntity
  8
6-家具-143
 62
   143
100
AcDbLine
 10
753.26903211944
 20
1033.638042473624
 30
0.0
 11
753.9531099181547
 21
1020.651667962823
 31
0.0
  0
LINE
  5
9FB
330
2
100
AcDbEntity
  8
6-家具-143
 62
   143
100
AcDbLine
 10
752.1289024549346
 20
1048.447066038562
 30
0.0
 11
753.26903211944
 21
1033.638042473624
 31
0.0
  0
LINE
  5
9FC
330
2
100
AcDbEntity
  8
6-家具-143
 62
   143
100
AcDbLine
 10
749.3925912601102
 20
1057.332480177509
 30
0.0
 11
752.1289024549346
 21
1048.447066038562
 31
0.0
  0
LINE
  5
9FD
330
2
100
AcDbEntity
  8
6-家具-143
 62
   143
100
AcDbLine
 10
756.6894211129793
 20
1039.333820767811
 30
0.0
 11
754.4091617839568
 21
1023.38564154405
 31
0.0
  0
LINE
  5
9FE
330
2
100
AcDbEntity
  8
6-家具-143
 62
   143
100
AcDbLine
 10
757.1454729787815
 20
1050.497546224453
 30
0.0
 11
756.6894211129793
 21
1039.333820767811
 31
0.0
  0
LINE
  5
9FF
330
2
100
AcDbEntity
  8
6-家具-143
 62
   143
100
AcDbLine
 10
756.4613951800782
 20
1057.10464904573
 30
0.0
 11
757.1454729787815
 21
1050.497546224453
 31
0.0
  0
LINE
  5
A00
330
2
100
AcDbEntity
  8
6-家具-143
 62
   143
100
AcDbLine
 10
754.1811358510558
 20
1059.838622626958
 30
0.0
 11
756.4613951800782
 21
1057.10464904573
 31
0.0
  0
LINE
  5
A01
330
2
100
AcDbEntity
  8
6-家具-143
 62
   143
100
AcDbLine
 10
744.6040466691524
 20
1035.916353791293
 30
0.0
 11
744.8320726020536
 21
1031.131900024174
 31
0.0
  0
LINE
  5
A02
330
2
100
AcDbEntity
  8
6-家具-143
 62
   143
100
AcDbLine
 10
743.9199688704493
 20
1044.801767930265
 30
0.0
 11
744.6040466691524
 21
1035.916353791293
 31
0.0
  0
LINE
  5
A03
330
2
100
AcDbEntity
  8
6-家具-143
 62
   143
100
AcDbLine
 10
740.9556317427123
 20
1051.6367018833
 30
0.0
 11
743.9199688704493
 21
1044.801767930265
 31
0.0
  0
LINE
  5
A04
330
2
100
AcDbEntity
  8
6-家具-143
 62
   143
100
AcDbLine
 10
737.0791908833822
 20
1059.610791495203
 30
0.0
 11
740.9556317427123
 21
1051.6367018833
 31
0.0
  0
LINE
  5
A05
330
2
100
AcDbEntity
  8
6-家具-143
 62
   143
100
AcDbLine
 10
738.6753724136897
 20
1040.472976426658
 30
0.0
 11
740.2715539440089
 21
1030.676237760618
 31
0.0
  0
LINE
  5
A06
330
2
100
AcDbEntity
  8
6-家具-143
 62
   143
100
AcDbLine
 10
736.8511649504693
 20
1047.763572643249
 30
0.0
 11
738.6753724136897
 21
1040.472976426658
 31
0.0
  0
LINE
  5
A07
330
2
100
AcDbEntity
  8
6-家具-143
 62
   143
100
AcDbLine
 10
734.1148537556453
 20
1051.181039619765
 30
0.0
 11
736.8511649504693
 21
1047.763572643249
 31
0.0
  0
LINE
  5
A08
330
2
100
AcDbEntity
  8
6-家具-143
 62
   143
100
AcDbLine
 10
736.8511649504693
 20
1052.320195278612
 30
0.0
 11
734.1148537556453
 21
1051.181039619765
 31
0.0
  0
LINE
  5
A09
330
2
100
AcDbEntity
  8
6-家具-143
 62
   143
100
AcDbLine
 10
733.8868278227438
 20
1053.915013200993
 30
0.0
 11
736.8511649504693
 21
1052.320195278612
 31
0.0
  0
LINE
  5
A0A
330
2
100
AcDbEntity
  8
6-家具-143
 62
   143
100
AcDbLine
 10
733.2027500240404
 20
1057.788142441044
 30
0.0
 11
733.8868278227438
 21
1053.915013200993
 31
0.0
  0
LINE
  5
A0B
330
2
100
AcDbEntity
  8
6-家具-143
 62
   143
100
AcDbLine
 10
746.5468434884257
 20
1030.756169915846
 30
0.0
 11
745.3895024517476
 21
1025.359858373524
 31
0.0
  0
LINE
  5
A0C
330
2
100
AcDbEntity
  8
6-家具-143
 62
   143
100
AcDbLine
 10
746.7397337814369
 20
1035.959756362315
 30
0.0
 11
746.5468434884257
 21
1030.756169915846
 31
0.0
  0
LINE
  5
A0D
330
2
100
AcDbEntity
  8
6-家具-143
 62
   143
100
AcDbLine
 10
747.3184046604599
 20
1047.716007257433
 30
0.0
 11
746.7397337814369
 21
1035.959756362315
 31
0.0
  0
LINE
  5
A0E
330
2
100
AcDbEntity
  8
6-家具-143
 62
   143
100
AcDbLine
 10
746.5468434884257
 20
1056.58137658615
 30
0.0
 11
747.3184046604599
 21
1047.716007257433
 31
0.0
  0
LINE
  5
A0F
330
2
100
AcDbEntity
  8
6-家具-143
 62
   143
100
AcDbLine
 10
737.5352427491844
 20
1027.48660191588
 30
0.0
 11
738.903398346591
 21
1027.714433047635
 31
0.0
  0
LINE
  5
A10
330
2
100
AcDbEntity
  8
6-家具-143
 62
   143
100
AcDbLine
 10
735.4830093530631
 20
1026.347446257033
 30
0.0
 11
737.5352427491844
 21
1027.48660191588
 31
0.0
  0
LINE
  5
A11
330
2
100
AcDbEntity
  8
6-家具-143
 62
   143
100
AcDbLine
 10
734.7989315543483
 20
1023.38564154405
 30
0.0
 11
735.4830093530631
 21
1026.347446257033
 31
0.0
  0
LINE
  5
A12
330
2
100
AcDbEntity
  8
6-家具-143
 62
   143
100
AcDbLine
 10
735.711035285964
 20
1020.196005699289
 30
0.0
 11
734.7989315543483
 21
1023.38564154405
 31
0.0
  0
LINE
  5
A13
330
2
100
AcDbEntity
  8
6-家具-143
 62
   143
100
AcDbLine
 10
737.7632686820853
 20
1019.056850040441
 30
0.0
 11
735.711035285964
 21
1020.196005699289
 31
0.0
  0
LINE
  5
A14
330
2
100
AcDbEntity
  8
6-家具-143
 62
   143
100
AcDbLine
 10
738.4157731247526
 20
1021.033723314496
 30
0.0
 11
736.3389830738813
 21
1020.514969348971
 31
0.0
  0
LINE
  5
A15
330
2
100
AcDbEntity
  8
6-家具-143
 62
   143
100
AcDbLine
 10
740.4925631756121
 20
1019.607149909314
 30
0.0
 11
738.4157731247526
 21
1021.033723314496
 31
0.0
  0
LINE
  5
A16
330
2
100
AcDbEntity
  8
6-家具-143
 62
   143
100
AcDbLine
 10
742.1799550919371
 20
1017.01338008176
 30
0.0
 11
740.4925631756121
 21
1019.607149909314
 31
0.0
  0
LINE
  5
A17
330
2
100
AcDbEntity
  8
6-家具-143
 62
   143
100
AcDbLine
 10
745.0355414118777
 20
1014.67898723692
 30
0.0
 11
742.1799550919371
 21
1017.01338008176
 31
0.0
  0
LINE
  5
A18
330
2
100
AcDbEntity
  8
6-家具-143
 62
   143
100
AcDbLine
 10
746.7229333282026
 20
1014.160233271419
 30
0.0
 11
745.0355414118777
 21
1014.67898723692
 31
0.0
  0
LINE
  5
A19
330
2
100
AcDbEntity
  8
6-家具-143
 62
   143
100
AcDbLine
 10
747.3719302190975
 20
1015.068052711076
 30
0.0
 11
746.7229333282026
 21
1014.160233271419
 31
0.0
  0
LINE
  5
A1A
330
2
100
AcDbEntity
  8
6-家具-143
 62
   143
100
AcDbLine
 10
747.1123314627373
 20
1016.494626116235
 30
0.0
 11
747.3719302190975
 21
1015.068052711076
 31
0.0
  0
LINE
  5
A1B
330
2
100
AcDbEntity
  8
6-家具-143
 62
   143
100
AcDbLine
 10
747.8911277318184
 20
1017.272757064499
 30
0.0
 11
747.1123314627373
 21
1016.494626116235
 31
0.0
  0
LINE
  5
A1C
330
2
100
AcDbEntity
  8
6-家具-143
 62
   143
100
AcDbLine
 10
747.2421308409233
 20
1018.310264995524
 30
0.0
 11
747.8911277318184
 21
1017.272757064499
 31
0.0
  0
LINE
  5
A1D
330
2
100
AcDbEntity
  8
6-家具-143
 62
   143
100
AcDbLine
 10
747.8911277318184
 20
1018.82901896105
 30
0.0
 11
747.2421308409233
 21
1018.310264995524
 31
0.0
  0
LINE
  5
A1E
330
2
100
AcDbEntity
  8
6-家具-143
 62
   143
100
AcDbLine
 10
748.0209271099925
 20
1019.607149909314
 30
0.0
 11
747.8911277318184
 21
1018.82901896105
 31
0.0
  0
LINE
  5
A1F
330
2
100
AcDbEntity
  8
6-家具-143
 62
   143
100
AcDbLine
 10
746.0739364373075
 20
1021.552477279997
 30
0.0
 11
748.0209271099925
 21
1019.607149909314
 31
0.0
  0
LINE
  5
A20
330
2
100
AcDbEntity
  8
6-家具-143
 62
   143
100
AcDbLine
 10
747.3719302190975
 20
1021.81185426276
 30
0.0
 11
746.0739364373075
 21
1021.552477279997
 31
0.0
  0
LINE
  5
A21
330
2
100
AcDbEntity
  8
6-家具-143
 62
   143
100
AcDbLine
 10
747.1123314627373
 20
1023.238427667918
 30
0.0
 11
747.3719302190975
 21
1021.81185426276
 31
0.0
  0
LINE
  5
A22
330
2
100
AcDbEntity
  8
6-家具-143
 62
   143
100
AcDbLine
 10
743.8673470082618
 20
1025.183755038602
 30
0.0
 11
747.1123314627373
 21
1023.238427667918
 31
0.0
  0
LINE
  5
A23
330
2
100
AcDbEntity
  8
6-家具-143
 62
   143
100
AcDbLine
 10
742.3097544701231
 20
1026.869705426523
 30
0.0
 11
743.8673470082618
 21
1025.183755038602
 31
0.0
  0
LINE
  5
A24
330
2
100
AcDbEntity
  8
6-家具-143
 62
   143
100
AcDbLine
 10
743.2183501173668
 20
1028.036901848943
 30
0.0
 11
742.3097544701231
 21
1026.869705426523
 31
0.0
  0
LINE
  5
A25
330
2
100
AcDbEntity
  8
6-家具-143
 62
   143
100
AcDbLine
 10
744.6461432773428
 20
1028.685344305838
 30
0.0
 11
743.2183501173668
 21
1028.036901848943
 31
0.0
  0
LINE
  5
A26
330
2
100
AcDbEntity
  8
6-家具-143
 62
   143
100
AcDbLine
 10
745.0355414118777
 20
1029.722852236865
 30
0.0
 11
744.6461432773428
 21
1028.685344305838
 31
0.0
  0
LINE
  5
A27
330
2
100
AcDbEntity
  8
6-家具-143
 62
   143
100
AcDbLine
 10
744.5163438991569
 20
1030.630671676522
 30
0.0
 11
745.0355414118777
 21
1029.722852236865
 31
0.0
  0
LINE
  5
A28
330
2
100
AcDbEntity
  8
6-家具-143
 62
   143
100
AcDbLine
 10
742.6991526046577
 20
1030.24160620239
 30
0.0
 11
744.5163438991569
 21
1030.630671676522
 31
0.0
  0
LINE
  5
A29
330
2
100
AcDbEntity
  8
6-家具-143
 62
   143
100
AcDbLine
 10
741.530958201042
 20
1030.24160620239
 30
0.0
 11
742.6991526046577
 21
1030.24160620239
 31
0.0
  0
LINE
  5
A2A
330
2
100
AcDbEntity
  8
6-家具-143
 62
   143
100
AcDbLine
 10
740.2329644192518
 20
1028.815032797208
 30
0.0
 11
741.530958201042
 21
1030.24160620239
 31
0.0
  0
LINE
  5
A2B
330
2
100
AcDbEntity
  8
6-家具-143
 62
   143
100
AcDbLine
 10
739.3243687719964
 20
1026.610328443761
 30
0.0
 11
740.2329644192518
 21
1028.815032797208
 31
0.0
  0
LINE
  5
A2C
330
2
100
AcDbEntity
  8
6-家具-143
 62
   143
100
AcDbLine
 10
738.4157731247526
 20
1026.480639952392
 30
0.0
 11
739.3243687719964
 21
1026.610328443761
 31
0.0
  0
LINE
  5
A2D
330
2
100
AcDbEntity
  8
6-家具-143
 62
   143
100
AcDbLine
 10
750.3046949917143
 20
1008.120955715579
 30
0.0
 11
745.7441763336698
 21
1008.804449110892
 31
0.0
  0
LINE
  5
A2E
330
2
100
AcDbEntity
  8
6-家具-143
 62
   143
100
AcDbLine
 10
753.9531099181547
 20
1009.032280242647
 30
0.0
 11
750.3046949917143
 21
1008.120955715579
 31
0.0
  0
LINE
  5
A2F
330
2
100
AcDbEntity
  8
6-家具-143
 62
   143
100
AcDbLine
 10
727.502101701479
 20
1038.878158504277
 30
0.0
 11
730.0103869634024
 21
1037.283340581896
 31
0.0
  0
LINE
  5
A30
330
2
100
AcDbEntity
  8
6-家具-143
 62
   143
100
AcDbLine
 10
729.326309164699
 20
1030.904068892397
 30
0.0
 11
727.502101701479
 21
1038.878158504277
 31
0.0
  0
LINE
  5
A31
330
2
100
AcDbEntity
  8
6-家具-143
 62
   143
100
AcDbLine
 10
727.7301276343799
 20
1030.448406628863
 30
0.0
 11
729.326309164699
 21
1030.904068892397
 31
0.0
  0
LINE
  5
A32
330
2
100
AcDbEntity
  8
6-家具-143
 62
   143
100
AcDbLine
 10
730.4664388292044
 20
1030.448406628863
 30
0.0
 11
727.7301276343799
 21
1030.448406628863
 31
0.0
  0
LINE
  5
A33
330
2
100
AcDbEntity
  8
6-家具-143
 62
   143
100
AcDbLine
 10
735.2549834201621
 20
1028.170095311168
 30
0.0
 11
730.4664388292044
 21
1030.448406628863
 31
0.0
  0
LINE
  5
A34
330
2
100
AcDbEntity
  8
6-家具-143
 62
   143
100
AcDbLine
 10
738.903398346591
 20
1027.714433047635
 30
0.0
 11
735.2549834201621
 21
1028.170095311168
 31
0.0
  0
LINE
  5
A35
330
2
100
AcDbEntity
  8
6-家具-143
 62
   143
100
AcDbLine
 10
736.2939626381307
 20
1078.376482400595
 30
0.0
 11
736.9488063430221
 21
1077.067913848622
 31
0.0
  0
LINE
  5
A36
330
2
100
AcDbEntity
  8
6-家具-143
 62
   143
100
AcDbLine
 10
735.9197662353438
 20
1080.713211957684
 30
0.0
 11
736.2939626381307
 21
1078.376482400595
 31
0.0
  0
LINE
  5
A37
330
2
100
AcDbEntity
  8
6-家具-143
 62
   143
100
AcDbLine
 10
736.6681590409293
 20
1083.517287426203
 30
0.0
 11
735.9197662353438
 21
1080.713211957684
 31
0.0
  0
LINE
  5
A38
330
2
100
AcDbEntity
  8
6-家具-143
 62
   143
100
AcDbLine
 10
738.1649446520996
 20
1086.13442453015
 30
0.0
 11
736.6681590409293
 21
1083.517287426203
 31
0.0
  0
LINE
  5
A39
330
2
100
AcDbEntity
  8
6-家具-143
 62
   143
100
AcDbLine
 10
740.9714176730296
 20
1086.882177988434
 30
0.0
 11
738.1649446520996
 21
1086.13442453015
 31
0.0
  0
LINE
  5
A3A
330
2
100
AcDbEntity
  8
6-家具-143
 62
   143
100
AcDbLine
 10
748.1746984267765
 20
1087.256054717576
 30
0.0
 11
740.9714176730296
 21
1086.882177988434
 31
0.0
  0
LINE
  5
A3B
330
2
100
AcDbEntity
  8
6-家具-143
 62
   143
100
AcDbLine
 10
753.1328007637799
 20
1086.414832077007
 30
0.0
 11
748.1746984267765
 21
1087.256054717576
 31
0.0
  0
LINE
  5
A3C
330
2
100
AcDbEntity
  8
6-家具-143
 62
   143
100
AcDbLine
 10
754.4424881735508
 20
1085.106263525033
 30
0.0
 11
753.1328007637799
 21
1086.414832077007
 31
0.0
  0
LINE
  5
A3D
330
2
100
AcDbEntity
  8
6-家具-143
 62
   143
100
AcDbLine
 10
754.2553899721517
 20
1082.956472332514
 30
0.0
 11
754.4424881735508
 21
1085.106263525033
 31
0.0
  0
LINE
  5
A3E
330
2
100
AcDbEntity
  8
6-家具-143
 62
   143
100
AcDbLine
 10
755.0037827777369
 20
1078.656889947451
 30
0.0
 11
754.2553899721517
 21
1082.956472332514
 31
0.0
  0
LINE
  5
A3F
330
2
100
AcDbEntity
  8
6-家具-143
 62
   143
100
AcDbLine
 10
755.0037827777369
 20
1075.852814478934
 30
0.0
 11
755.0037827777369
 21
1078.656889947451
 31
0.0
  0
LINE
  5
A40
330
2
100
AcDbEntity
  8
6-家具-143
 62
   143
100
AcDbLine
 10
754.4424881735508
 20
1074.637715109221
 30
0.0
 11
755.0037827777369
 21
1075.852814478934
 31
0.0
  0
LINE
  5
A41
330
2
100
AcDbEntity
  8
6-家具-143
 62
   143
100
AcDbLine
 10
755.1908809791362
 20
1071.740170458419
 30
0.0
 11
754.4424881735508
 21
1074.637715109221
 31
0.0
  0
LINE
  5
A42
330
2
100
AcDbEntity
  8
6-家具-143
 62
   143
100
AcDbLine
 10
754.1618408714581
 20
1067.347118891071
 30
0.0
 11
755.1908809791362
 21
1071.740170458419
 31
0.0
  0
LINE
  5
A43
330
2
100
AcDbEntity
  8
6-家具-143
 62
   143
100
AcDbLine
 10
752.9457025623805
 20
1064.916920151695
 30
0.0
 11
754.1618408714581
 21
1067.347118891071
 31
0.0
  0
LINE
  5
A44
330
2
100
AcDbEntity
  8
6-家具-143
 62
   143
100
AcDbLine
 10
751.9166624547024
 20
1063.701820782007
 30
0.0
 11
752.9457025623805
 21
1064.916920151695
 31
0.0
  0
LINE
  5
A45
330
2
100
AcDbEntity
  8
6-家具-143
 62
   143
100
AcDbLine
 10
750.981171447718
 20
1063.514882417436
 30
0.0
 11
751.9166624547024
 21
1063.701820782007
 31
0.0
  0
LINE
  5
A46
330
2
100
AcDbEntity
  8
6-家具-143
 62
   143
100
AcDbLine
 10
750.3263277428382
 20
1062.486721412319
 30
0.0
 11
750.981171447718
 21
1063.514882417436
 31
0.0
  0
LINE
  5
A47
330
2
100
AcDbEntity
  8
6-家具-143
 62
   143
100
AcDbLine
 10
738.6326901555801
 20
1076.974444666336
 30
0.0
 11
738.2584937527932
 21
1076.787506301765
 31
0.0
  0
LINE
  5
A48
330
2
100
AcDbEntity
  8
6-家具-143
 62
   143
100
AcDbLine
 10
738.6326901555801
 20
1077.815667306881
 30
0.0
 11
738.6326901555801
 21
1076.974444666336
 31
0.0
  0
LINE
  5
A49
330
2
100
AcDbEntity
  8
6-家具-143
 62
   143
100
AcDbLine
 10
739.6617302632583
 20
1078.750359129713
 30
0.0
 11
738.6326901555801
 21
1077.815667306881
 31
0.0
  0
LINE
  5
A4A
330
2
100
AcDbEntity
  8
6-家具-143
 62
   143
100
AcDbLine
 10
740.0359266660567
 20
1080.713211957684
 30
0.0
 11
739.6617302632583
 21
1078.750359129713
 31
0.0
  0
LINE
  5
A4B
330
2
100
AcDbEntity
  8
6-家具-143
 62
   143
100
AcDbLine
 10
741.0649667737349
 20
1082.769533967943
 30
0.0
 11
740.0359266660567
 21
1080.713211957684
 31
0.0
  0
LINE
  5
A4C
330
2
100
AcDbEntity
  8
6-家具-143
 62
   143
100
AcDbLine
 10
743.1230469890912
 20
1083.610756608489
 30
0.0
 11
741.0649667737349
 21
1082.769533967943
 31
0.0
  0
LINE
  5
A4D
330
2
100
AcDbEntity
  8
6-家具-143
 62
   143
100
AcDbLine
 10
745.1811272044476
 20
1083.984633337631
 30
0.0
 11
743.1230469890912
 21
1083.610756608489
 31
0.0
  0
LINE
  5
A4E
330
2
100
AcDbEntity
  8
6-家具-143
 62
   143
100
AcDbLine
 10
749.5779349372533
 20
1084.078102519915
 30
0.0
 11
745.1811272044476
 21
1083.984633337631
 31
0.0
  0
LINE
  5
A4F
330
2
100
AcDbEntity
  8
6-家具-143
 62
   143
100
AcDbLine
 10
753.5069971665667
 20
1083.891164155345
 30
0.0
 11
749.5779349372533
 21
1084.078102519915
 31
0.0
  0
LINE
  5
A50
330
2
100
AcDbEntity
  8
6-家具-143
 62
   143
100
AcDbLine
 10
754.0682917707523
 20
1083.23687987937
 30
0.0
 11
753.5069971665667
 21
1083.891164155345
 31
0.0
  0
LINE
  5
A51
330
2
100
AcDbEntity
  8
6-家具-143
 62
   143
100
AcDbLine
 10
738.7262392562856
 20
1065.290796880836
 30
0.0
 11
738.9133374576731
 21
1063.234474870579
 31
0.0
  0
LINE
  5
A52
330
2
100
AcDbEntity
  8
6-家具-143
 62
   143
100
AcDbLine
 10
738.3520428534871
 20
1069.029564172186
 30
0.0
 11
738.7262392562856
 21
1065.290796880836
 31
0.0
  0
LINE
  5
A53
330
2
100
AcDbEntity
  8
6-家具-143
 62
   143
100
AcDbLine
 10
737.4165518465144
 20
1071.3662937293
 30
0.0
 11
738.3520428534871
 21
1069.029564172186
 31
0.0
  0
LINE
  5
A54
330
2
100
AcDbEntity
  8
6-家具-143
 62
   143
100
AcDbLine
 10
737.6036500479018
 20
1063.327944052865
 30
0.0
 11
738.5391410548865
 21
1063.234474870579
 31
0.0
  0
LINE
  5
A55
330
2
100
AcDbEntity
  8
6-家具-143
 62
   143
100
AcDbLine
 10
737.3230027458088
 20
1061.178152860346
 30
0.0
 11
737.6036500479018
 21
1063.327944052865
 31
0.0
  0
LINE
  5
A56
330
2
100
AcDbEntity
  8
6-家具-143
 62
   143
100
AcDbLine
 10
736.7617081416232
 20
1059.30876921466
 30
0.0
 11
737.3230027458088
 21
1061.178152860346
 31
0.0
  0
LINE
  5
A57
330
2
100
AcDbEntity
  8
6-家具-143
 62
   143
100
AcDbLine
 10
738.6326901555801
 20
1058.093669844972
 30
0.0
 11
736.7617081416232
 21
1059.30876921466
 31
0.0
  0
LINE
  5
A58
330
2
100
AcDbEntity
  8
6-家具-143
 62
   143
100
AcDbLine
 10
741.8133595793204
 20
1056.037347834714
 30
0.0
 11
738.6326901555801
 21
1058.093669844972
 31
0.0
  0
LINE
  5
A59
330
2
100
AcDbEntity
  8
6-家具-143
 62
   143
100
AcDbLine
 10
745.7424218086333
 20
1061.925906318607
 30
0.0
 11
741.8133595793204
 21
1056.037347834714
 31
0.0
  0
LINE
  5
A5A
330
2
100
AcDbEntity
  8
6-家具-143
 62
   143
100
AcDbLine
 10
748.9230912323616
 20
1062.019375500891
 30
0.0
 11
745.7424218086333
 21
1061.925906318607
 31
0.0
  0
LINE
  5
A5B
330
2
100
AcDbEntity
  8
6-家具-143
 62
   143
100
AcDbLine
 10
750.5134259442258
 20
1060.523868584348
 30
0.0
 11
748.9230912323616
 21
1062.019375500891
 31
0.0
  0
LINE
  5
A5C
330
2
100
AcDbEntity
  8
6-家具-143
 62
   143
100
AcDbLine
 10
754.1618408714581
 20
1056.691632110712
 30
0.0
 11
750.5134259442258
 21
1060.523868584348
 31
0.0
  0
LINE
  5
A5D
330
2
100
AcDbEntity
  8
6-家具-143
 62
   143
100
AcDbLine
 10
752.7586043609812
 20
1062.580190594605
 30
0.0
 11
754.1618408714581
 21
1056.691632110712
 31
0.0
  0
LINE
  5
A5E
330
2
100
AcDbEntity
  8
6-家具-143
 62
   143
100
AcDbLine
 10
752.1037606561018
 20
1063.047536506009
 30
0.0
 11
752.7586043609812
 21
1062.580190594605
 31
0.0
  0
LINE
  5
A5F
330
2
100
AcDbEntity
  8
6-家具-143
 62
   143
100
AcDbLine
 10
751.261818749811
 20
1063.047536506009
 30
0.0
 11
752.1037606561018
 21
1063.047536506009
 31
0.0
  0
LINE
  5
A60
330
2
100
AcDbEntity
  8
6-家具-143
 62
   143
100
AcDbLine
 10
746.2101673121256
 20
1057.532854751259
 30
0.0
 11
745.0875781037422
 21
1060.243461037491
 31
0.0
  0
LINE
  5
A61
330
2
100
AcDbEntity
  8
6-家具-143
 62
   143
100
AcDbLine
 10
747.8940511246835
 20
1056.878570475284
 30
0.0
 11
746.2101673121256
 21
1057.532854751259
 31
0.0
  0
LINE
  5
A62
330
2
100
AcDbEntity
  8
6-家具-143
 62
   143
100
AcDbLine
 10
748.548894829575
 20
1057.439385568972
 30
0.0
 11
747.8940511246835
 21
1056.878570475284
 31
0.0
  0
LINE
  5
A63
330
2
100
AcDbEntity
  8
6-家具-143
 62
   143
100
AcDbLine
 10
749.9521313400398
 20
1060.523868584348
 30
0.0
 11
748.548894829575
 21
1057.439385568972
 31
0.0
  0
LINE
  5
A64
330
2
100
AcDbEntity
  8
6-家具-143
 62
   143
100
AcDbLine
 10
741.7198104786145
 20
1062.206313865463
 30
0.0
 11
745.2746763051412
 21
1062.206313865463
 31
0.0
  0
LINE
  5
A65
330
2
100
AcDbEntity
  8
6-家具-143
 62
   143
100
AcDbLine
 10
738.6326901555801
 20
1062.673659776889
 30
0.0
 11
741.7198104786145
 21
1062.206313865463
 31
0.0
  0
LINE
  5
A66
330
2
100
AcDbEntity
  8
6-家具-143
 62
   143
100
AcDbLine
 10
739.0068865583786
 20
1063.234474870579
 30
0.0
 11
738.6326901555801
 21
1062.673659776889
 31
0.0
  0
LINE
  5
A67
330
2
100
AcDbEntity
  8
6-家具-143
 62
   143
100
AcDbLine
 10
752.0102115553964
 20
1062.393252230034
 30
0.0
 11
749.8585822393461
 21
1062.112844683178
 31
0.0
  0
LINE
  5
A68
330
2
100
AcDbEntity
  8
6-家具-143
 62
   143
100
AcDbLine
 10
751.9166624547024
 20
1062.673659776889
 30
0.0
 11
752.0102115553964
 21
1062.393252230034
 31
0.0
  0
LINE
  5
A69
330
2
100
AcDbEntity
  8
6-家具-143
 62
   143
100
AcDbLine
 10
750.3263277428382
 20
1066.879772979667
 30
0.0
 11
748.6424439302687
 21
1066.786303797381
 31
0.0
  0
LINE
  5
A6A
330
2
100
AcDbEntity
  8
6-家具-143
 62
   143
100
AcDbLine
 10
739.0068865583786
 20
1070.057725177327
 30
0.0
 11
739.1939847597777
 21
1070.618540271015
 31
0.0
  0
LINE
  5
A6B
330
2
100
AcDbEntity
  8
6-家具-143
 62
   143
100
AcDbLine
 10
738.4455919541927
 20
1070.33813272416
 30
0.0
 11
739.0068865583786
 21
1070.057725177327
 31
0.0
  0
LINE
  5
A6C
330
2
100
AcDbEntity
  8
6-家具-143
 62
   143
100
AcDbLine
 10
737.7907482493013
 20
1071.179355364729
 30
0.0
 11
738.4455919541927
 21
1070.33813272416
 31
0.0
  0
LINE
  5
A6D
330
2
100
AcDbEntity
  8
6-家具-143
 62
   143
100
AcDbLine
 10
736.7617081416232
 20
1072.300985552132
 30
0.0
 11
737.7907482493013
 21
1071.179355364729
 31
0.0
  0
LINE
  5
A6E
330
2
100
AcDbEntity
  8
6-家具-143
 62
   143
100
AcDbLine
 10
736.2004135374371
 20
1073.609554104106
 30
0.0
 11
736.7617081416232
 21
1072.300985552132
 31
0.0
  0
LINE
  5
A6F
330
2
100
AcDbEntity
  8
6-家具-143
 62
   143
100
AcDbLine
 10
735.9197662353438
 20
1075.385468567506
 30
0.0
 11
736.2004135374371
 21
1073.609554104106
 31
0.0
  0
LINE
  5
A70
330
2
100
AcDbEntity
  8
6-家具-143
 62
   143
100
AcDbLine
 10
736.2939626381307
 20
1076.320160390338
 30
0.0
 11
735.9197662353438
 21
1075.385468567506
 31
0.0
  0
LINE
  5
A71
330
2
100
AcDbEntity
  8
6-家具-143
 62
   143
100
AcDbLine
 10
736.9488063430221
 20
1076.974444666336
 30
0.0
 11
736.2939626381307
 21
1076.320160390338
 31
0.0
  0
LINE
  5
A72
330
2
100
AcDbEntity
  8
6-家具-143
 62
   143
100
AcDbLine
 10
737.7907482493013
 20
1076.69403711948
 30
0.0
 11
736.9488063430221
 21
1076.974444666336
 31
0.0
  0
LINE
  5
A73
330
2
100
AcDbEntity
  8
6-家具-143
 62
   143
100
AcDbLine
 10
738.2584937527932
 20
1076.039752843505
 30
0.0
 11
737.7907482493013
 21
1076.69403711948
 31
0.0
  0
LINE
  5
A74
330
2
100
AcDbEntity
  8
6-家具-143
 62
   143
100
AcDbLine
 10
748.6424439302687
 20
1069.777317630469
 30
0.0
 11
747.6134038225905
 21
1070.244663541898
 31
0.0
  0
LINE
  5
A75
330
2
100
AcDbEntity
  8
6-家具-143
 62
   143
100
AcDbLine
 10
750.700524145625
 20
1069.683848448184
 30
0.0
 11
748.6424439302687
 21
1069.777317630469
 31
0.0
  0
LINE
  5
A76
330
2
100
AcDbEntity
  8
6-家具-143
 62
   143
100
AcDbLine
 10
750.981171447718
 20
1070.151194359588
 30
0.0
 11
750.700524145625
 21
1069.683848448184
 31
0.0
  0
LINE
  5
A77
330
2
100
AcDbEntity
  8
6-家具-143
 62
   143
100
AcDbLine
 10
749.2037385344548
 20
1067.907933984784
 30
0.0
 11
747.2392074198037
 21
1067.627526437928
 31
0.0
  0
LINE
  5
A78
330
2
100
AcDbEntity
  8
6-家具-143
 62
   143
100
AcDbLine
 10
750.0456804407455
 20
1068.00140316707
 30
0.0
 11
749.2037385344548
 21
1067.907933984784
 31
0.0
  0
LINE
  5
A79
330
2
100
AcDbEntity
  8
6-家具-143
 62
   143
100
AcDbLine
 10
751.6360151526093
 20
1067.534057255642
 30
0.0
 11
750.0456804407455
 21
1068.00140316707
 31
0.0
  0
LINE
  5
A7A
330
2
100
AcDbEntity
  8
6-家具-143
 62
   143
100
AcDbLine
 10
746.1166182114202
 20
1074.170369197817
 30
0.0
 11
744.2456361974632
 21
1074.824653473793
 31
0.0
  0
LINE
  5
A7B
330
2
100
AcDbEntity
  8
6-家具-143
 62
   143
100
AcDbLine
 10
747.3327565204979
 20
1074.263838380104
 30
0.0
 11
746.1166182114202
 21
1074.170369197817
 31
0.0
  0
LINE
  5
A7C
330
2
100
AcDbEntity
  8
6-家具-143
 62
   143
100
AcDbLine
 10
747.8005020239899
 20
1074.824653473793
 30
0.0
 11
747.3327565204979
 21
1074.263838380104
 31
0.0
  0
LINE
  5
A7D
330
2
100
AcDbEntity
  8
6-家具-143
 62
   143
100
AcDbLine
 10
747.0521092184046
 20
1075.291999385221
 30
0.0
 11
747.8005020239899
 21
1074.824653473793
 31
0.0
  0
LINE
  5
A7E
330
2
100
AcDbEntity
  8
6-家具-143
 62
   143
100
AcDbLine
 10
745.4617745065403
 20
1075.478937749791
 30
0.0
 11
747.0521092184046
 21
1075.291999385221
 31
0.0
  0
LINE
  5
A7F
330
2
100
AcDbEntity
  8
6-家具-143
 62
   143
100
AcDbLine
 10
744.2456361974632
 20
1075.385468567506
 30
0.0
 11
745.4617745065403
 21
1075.478937749791
 31
0.0
  0
LINE
  5
A80
330
2
100
AcDbEntity
  8
6-家具-143
 62
   143
100
AcDbLine
 10
743.8714398471216
 20
1076.320160500467
 30
0.0
 11
743.4036939190742
 21
1075.572407015873
 31
0.0
  0
LINE
  5
A81
330
2
100
AcDbEntity
  8
6-家具-143
 62
   143
100
AcDbLine
 10
746.7714619136692
 20
1076.600567785807
 30
0.0
 11
743.8714398471216
 21
1076.320160500467
 31
0.0
  0
LINE
  5
A82
330
2
100
AcDbEntity
  8
6-家具-143
 62
   143
100
AcDbLine
 10
747.9875999829191
 20
1075.665876255714
 30
0.0
 11
746.7714619136692
 21
1076.600567785807
 31
0.0
  0
LINE
  5
A83
330
2
100
AcDbEntity
  8
6-家具-143
 62
   143
100
AcDbLine
 10
751.4489169512103
 20
1074.357307562388
 30
0.0
 11
753.2263498644737
 21
1074.824653473793
 31
0.0
  0
LINE
  5
A84
330
2
100
AcDbEntity
  8
6-家具-143
 62
   143
100
AcDbLine
 10
750.4198768435323
 20
1074.263838380104
 30
0.0
 11
751.4489169512103
 21
1074.357307562388
 31
0.0
  0
LINE
  5
A85
330
2
100
AcDbEntity
  8
6-家具-143
 62
   143
100
AcDbLine
 10
750.0456804407455
 20
1074.824653473793
 30
0.0
 11
750.4198768435323
 21
1074.263838380104
 31
0.0
  0
LINE
  5
A86
330
2
100
AcDbEntity
  8
6-家具-143
 62
   143
100
AcDbLine
 10
751.5424660519043
 20
1075.385468567506
 30
0.0
 11
750.0456804407455
 21
1074.824653473793
 31
0.0
  0
LINE
  5
A87
330
2
100
AcDbEntity
  8
6-家具-143
 62
   143
100
AcDbLine
 10
753.6940953679658
 20
1075.291999385221
 30
0.0
 11
751.5424660519043
 21
1075.385468567506
 31
0.0
  0
LINE
  5
A88
330
2
100
AcDbEntity
  8
6-家具-143
 62
   143
100
AcDbLine
 10
752.1973092547892
 20
1076.600567848393
 30
0.0
 11
750.0456799387391
 21
1075.759345207823
 31
0.0
  0
LINE
  5
A89
330
2
100
AcDbEntity
  8
6-家具-143
 62
   143
100
AcDbLine
 10
754.3489385708509
 20
1076.133221936965
 30
0.0
 11
752.1973092547892
 21
1076.600567848393
 31
0.0
  0
LINE
  5
A8A
330
2
100
AcDbEntity
  8
6-家具-143
 62
   143
100
AcDbLine
 10
751.9166624547024
 20
1075.198530202935
 30
-0.0000000000000013
 11
751.3553678505163
 21
1074.544245926936
 31
0.0000000000000007
  0
LINE
  5
A8B
330
2
100
AcDbEntity
  8
6-家具-143
 62
   143
100
AcDbLine
 10
752.4779570588885
 20
1075.011591838364
 30
-0.0000000000000009
 11
751.9166624547024
 21
1075.198530202935
 31
-0.0000000000000013
  0
LINE
  5
A8C
330
2
100
AcDbEntity
  8
6-家具-143
 62
   143
100
AcDbLine
 10
746.5843637149123
 20
1074.918122656079
 30
0.0000000000000018
 11
745.7424218086333
 21
1074.637715109221
 31
0.000000000000002
  0
LINE
  5
A8D
330
2
100
AcDbEntity
  8
6-家具-143
 62
   143
100
AcDbLine
 10
747.0521092184046
 20
1074.450776744675
 30
-0.000000000000001
 11
746.5843637149123
 21
1074.918122656079
 31
0.0000000000000018
  0
LINE
  5
A8E
330
2
100
AcDbEntity
  8
6-家具-143
 62
   143
100
AcDbLine
 10
726.3619720369621
 20
980.0977265080843
 30
0.0
 11
729.5543350976004
 21
980.7812199033971
 31
0.0
  0
LINE
  5
A8F
330
2
100
AcDbEntity
  8
6-家具-143
 62
   143
100
AcDbLine
 10
722.2575052447194
 20
978.0472463221698
 30
0.0
 11
726.3619720369621
 21
980.0977265080843
 31
0.0
  0
LINE
  5
A90
330
2
100
AcDbEntity
  8
6-家具-143
 62
   143
100
AcDbLine
 10
719.7492199827958
 20
978.2750774539481
 30
0.0
 11
722.2575052447194
 21
978.0472463221698
 31
0.0
  0
LINE
  5
A91
330
2
100
AcDbEntity
  8
6-家具-143
 62
   143
100
AcDbLine
 10
724.0817127079392
 20
981.2368821669309
 30
0.0
 11
728.6422313659843
 21
985.110011406982
 31
0.0
  0
LINE
  5
A92
330
2
100
AcDbEntity
  8
6-家具-143
 62
   143
100
AcDbLine
 10
720.6613237144117
 20
978.9585708492378
 30
0.0
 11
724.0817127079392
 21
981.2368821669309
 31
0.0
  0
LINE
  5
A93
330
2
100
AcDbEntity
  8
6-家具-143
 62
   143
100
AcDbLine
 10
760.5658619723207
 20
977.3637529268569
 30
0.0
 11
758.0575767103974
 21
978.2750774539481
 31
0.0
  0
LINE
  5
A94
330
2
100
AcDbEntity
  8
6-家具-143
 62
   143
100
AcDbLine
 10
761.2499397710239
 20
980.325557639863
 30
0.0
 11
760.5658619723207
 21
977.3637529268569
 31
0.0
  0
LINE
  5
A95
330
2
100
AcDbEntity
  8
6-家具-143
 62
   143
100
AcDbLine
 10
763.3372537351138
 20
980.9599794784501
 30
0.0
 11
761.6498618187891
 21
980.4412255129486
 31
0.0
  0
LINE
  5
A96
330
2
100
AcDbEntity
  8
6-家具-143
 62
   143
100
AcDbLine
 10
763.5968524914742
 20
981.9974874095001
 30
0.0
 11
763.3372537351138
 21
980.9599794784501
 31
0.0
  0
LINE
  5
A97
330
2
100
AcDbEntity
  8
6-家具-143
 62
   143
100
AcDbLine
 10
764.5054481387297
 20
982.1271759008697
 30
0.0
 11
763.5968524914742
 21
981.9974874095001
 31
0.0
  0
LINE
  5
A98
330
2
100
AcDbEntity
  8
6-家具-143
 62
   143
100
AcDbLine
 10
765.0246456514503
 20
983.5537493060284
 30
0.0
 11
764.5054481387297
 21
982.1271759008697
 31
0.0
  0
LINE
  5
A99
330
2
100
AcDbEntity
  8
6-家具-143
 62
   143
100
AcDbLine
 10
765.80344192052
 20
983.8131262887911
 30
0.0
 11
765.0246456514503
 21
983.5537493060284
 31
0.0
  0
LINE
  5
A9A
330
2
100
AcDbEntity
  8
6-家具-143
 62
   143
100
AcDbLine
 10
743.0552238301648
 20
953.8147767091111
 30
0.0
 11
744.6549134549845
 21
980.9862680480058
 31
0.0
  0
LINE
  5
A9B
330
2
100
AcDbEntity
  8
6-家具-143
 62
   143
100
AcDbLine
 10
742.2553790177492
 20
951.1509050092133
 30
0.0
 11
743.0552238301648
 21
953.8147767091111
 31
0.0
  0
LINE
  5
A9C
330
2
100
AcDbEntity
  8
6-家具-143
 62
   143
100
AcDbLine
 10
738.5227698931744
 20
913.0575397007575
 30
0.0
 11
742.2553790177492
 21
951.1509050092133
 31
0.0
  0
LINE
  5
A9D
330
2
100
AcDbEntity
  8
6-家具-143
 62
   143
100
AcDbLine
 10
737.4563101433028
 20
911.7256038508084
 30
0.0
 11
738.5227698931744
 21
913.0575397007575
 31
0.0
  0
LINE
  5
A9E
330
2
100
AcDbEntity
  8
6-家具-143
 62
   143
100
AcDbLine
 10
740.6556893929298
 20
908.7953449809397
 30
0.0
 11
737.4563101433028
 21
911.7256038508084
 31
0.0
  0
LINE
  5
A9F
330
2
100
AcDbEntity
  8
6-家具-143
 62
   143
100
AcDbLine
 10
741.7221491428133
 20
906.9306347910025
 30
0.0
 11
740.6556893929298
 21
908.7953449809397
 31
0.0
  0
LINE
  5
AA0
330
2
100
AcDbEntity
  8
6-家具-143
 62
   143
100
AcDbLine
 10
740.6556893929298
 20
904.7995374310936
 30
0.0
 11
741.7221491428133
 21
906.9306347910025
 31
0.0
  0
LINE
  5
AA1
330
2
100
AcDbEntity
  8
6-家具-143
 62
   143
100
AcDbLine
 10
732.9238562063124
 20
905.0659246010882
 30
0.0
 11
740.6556893929298
 21
904.7995374310936
 31
0.0
  0
LINE
  5
AA2
330
2
100
AcDbEntity
  8
6-家具-143
 62
   143
100
AcDbLine
 10
728.9246321442694
 20
905.3323117710826
 30
0.0
 11
732.9238562063124
 21
905.0659246010882
 31
0.0
  0
LINE
  5
AA3
330
2
100
AcDbEntity
  8
6-家具-143
 62
   143
100
AcDbLine
 10
728.9246321442694
 20
906.9306347910025
 30
0.0
 11
728.9246321442694
 21
905.3323117710826
 31
0.0
  0
LINE
  5
AA4
330
2
100
AcDbEntity
  8
6-家具-143
 62
   143
100
AcDbLine
 10
730.5243217690891
 20
908.5289578109456
 30
0.0
 11
728.9246321442694
 21
906.9306347910025
 31
0.0
  0
LINE
  5
AA5
330
2
100
AcDbEntity
  8
6-家具-143
 62
   143
100
AcDbLine
 10
732.1240113939084
 20
911.7256038508084
 30
0.0
 11
730.5243217690891
 21
908.5289578109456
 31
0.0
  0
LINE
  5
AA6
330
2
100
AcDbEntity
  8
6-家具-143
 62
   143
100
AcDbLine
 10
729.457862019217
 20
912.5247653607917
 30
0.0
 11
732.1240113939084
 21
911.7256038508084
 31
0.0
  0
LINE
  5
AA7
330
2
100
AcDbEntity
  8
6-家具-143
 62
   143
100
AcDbLine
 10
728.9246321442694
 20
951.9500665191735
 30
0.0
 11
729.457862019217
 21
912.5247653607917
 31
0.0
  0
LINE
  5
AA8
330
2
100
AcDbEntity
  8
6-家具-143
 62
   143
100
AcDbLine
 10
729.7244769566851
 20
954.8803253890655
 30
0.0
 11
728.9246321442694
 21
951.9500665191735
 31
0.0
  0
LINE
  5
AA9
330
2
100
AcDbEntity
  8
6-家具-143
 62
   143
100
AcDbLine
 10
755.852740828697
 20
953.0156151991281
 30
0.0
 11
756.3859707036448
 21
954.3475510490765
 31
0.0
  0
LINE
  5
AAA
330
2
100
AcDbEntity
  8
6-家具-143
 62
   143
100
AcDbLine
 10
756.3859707036448
 20
950.6181306692248
 30
0.0
 11
755.852740828697
 21
953.0156151991281
 31
0.0
  0
LINE
  5
AAB
330
2
100
AcDbEntity
  8
6-家具-143
 62
   143
100
AcDbLine
 10
755.0528960162933
 20
911.4592166808373
 30
0.0
 11
756.3859707036448
 21
950.6181306692248
 31
0.0
  0
LINE
  5
AAC
330
2
100
AcDbEntity
  8
6-家具-143
 62
   143
100
AcDbLine
 10
761.1850395780914
 20
907.4634091309912
 30
0.0
 11
755.0528960162933
 21
911.4592166808373
 31
0.0
  0
LINE
  5
AAD
330
2
100
AcDbEntity
  8
6-家具-143
 62
   143
100
AcDbLine
 10
761.1850395780914
 20
905.0659246010882
 30
0.0
 11
761.1850395780914
 21
907.4634091309912
 31
0.0
  0
LINE
  5
AAE
330
2
100
AcDbEntity
  8
6-家具-143
 62
   143
100
AcDbLine
 10
757.9856603284522
 20
905.0659246010882
 30
0.0
 11
761.1850395780914
 21
905.0659246010882
 31
0.0
  0
LINE
  5
AAF
330
2
100
AcDbEntity
  8
6-家具-143
 62
   143
100
AcDbLine
 10
752.9199765165377
 20
904.7995374310936
 30
0.0
 11
757.9856603284522
 21
905.0659246010882
 31
0.0
  0
LINE
  5
AB0
330
2
100
AcDbEntity
  8
6-家具-143
 62
   143
100
AcDbLine
 10
745.1881433299202
 20
905.3323117710826
 30
0.0
 11
752.9199765165377
 21
904.7995374310936
 31
0.0
  0
LINE
  5
AB1
330
2
100
AcDbEntity
  8
6-家具-143
 62
   143
100
AcDbLine
 10
745.1881433299202
 20
906.9306347910025
 30
0.0
 11
745.1881433299202
 21
905.3323117710826
 31
0.0
  0
LINE
  5
AB2
330
2
100
AcDbEntity
  8
6-家具-143
 62
   143
100
AcDbLine
 10
747.3210628296757
 20
911.192829510843
 30
0.0
 11
745.1881433299202
 21
906.9306347910025
 31
0.0
  0
LINE
  5
AB3
330
2
100
AcDbEntity
  8
6-家具-143
 62
   143
100
AcDbLine
 10
746.254603079792
 20
911.4592166808373
 30
0.0
 11
747.3210628296757
 21
911.192829510843
 31
0.0
  0
LINE
  5
AB4
330
2
100
AcDbEntity
  8
6-家具-143
 62
   143
100
AcDbLine
 10
744.1216835800368
 20
950.3517434992538
 30
0.0
 11
746.254603079792
 21
911.4592166808373
 31
0.0
  0
LINE
  5
AB5
330
2
100
AcDbEntity
  8
6-家具-143
 62
   143
100
AcDbLine
 10
744.6549134549845
 20
950.6181306692248
 30
0.0
 11
744.1216835800368
 21
950.3517434992538
 31
0.0
  0
LINE
  5
AB6
330
2
100
AcDbEntity
  8
6-家具-143
 62
   143
100
AcDbLine
 10
743.5884537051008
 20
953.282002369122
 30
0.0
 11
744.6549134549845
 21
950.6181306692248
 31
0.0
  0
LINE
  5
AB7
330
2
100
AcDbEntity
  8
6-家具-143
 62
   143
100
AcDbLine
 10
749.1873673919632
 20
910.9264423408488
 30
0.0
 11
748.6541375170271
 21
910.9264423408488
 31
0.0
  0
LINE
  5
AB8
330
2
100
AcDbEntity
  8
6-家具-143
 62
   143
100
AcDbLine
 10
752.9199765165377
 20
913.3239268707518
 30
0.0
 11
749.1873673919632
 21
910.9264423408488
 31
0.0
  0
LINE
  5
AB9
330
2
100
AcDbEntity
  8
6-家具-143
 62
   143
100
AcDbLine
 10
753.4532063914737
 20
911.9919910208031
 30
0.0
 11
752.9199765165377
 21
913.3239268707518
 31
0.0
  0
LINE
  5
ABA
330
2
100
AcDbEntity
  8
6-家具-143
 62
   143
100
AcDbLine
 10
733.1904711437918
 20
914.6558627207005
 30
0.0
 11
730.5243217690891
 21
913.0575397007575
 31
0.0
  0
LINE
  5
ABB
330
2
100
AcDbEntity
  8
6-家具-143
 62
   143
100
AcDbLine
 10
736.3898503934193
 20
913.590314040746
 30
0.0
 11
733.1904711437918
 21
914.6558627207005
 31
0.0
  0
LINE
  5
ABC
330
2
100
AcDbEntity
  8
6-家具-143
 62
   143
100
AcDbLine
 10
725.2218423724566
 20
1008.120955715579
 30
0.0
 11
719.7492199827958
 21
978.2750774539481
 31
0.0
  0
LINE
  5
ABD
330
2
100
AcDbEntity
  8
6-家具-143
 62
   143
100
AcDbLine
 10
728.6422313659843
 20
985.110011406982
 30
0.0
 11
735.4830093530631
 21
988.071816119965
 31
0.0
  0
LINE
  5
ABE
330
2
100
AcDbEntity
  8
6-家具-143
 62
   143
100
AcDbLine
 10
762.3900694355413
 20
985.5656736705162
 30
0.0
 11
761.2499397710239
 21
980.325557639863
 31
0.0
  0
LINE
  5
ABF
330
2
100
AcDbEntity
  8
6-家具-143
 62
   143
100
AcDbLine
 10
764.8948462732643
 20
990.5569278404756
 30
0.0
 11
765.80344192052
 21
983.8131262887911
 31
0.0
  0
LINE
  5
AC0
330
2
100
AcDbEntity
  8
6-家具-143
 62
   143
100
AcDbLine
 10
744.6549134549845
 20
980.9862680480058
 30
0.0
 11
748.920752454495
 21
988.9778831476755
 31
0.0
  0
LINE
  5
AC1
330
2
100
AcDbEntity
  8
6-家具-143
 62
   143
100
AcDbLine
 10
729.7244769566851
 20
985.7812371078122
 30
0.0
 11
729.7244769566851
 21
954.8803253890655
 31
0.0
  0
LINE
  5
AC2
330
2
100
AcDbEntity
  8
6-家具-143
 62
   143
100
AcDbLine
 10
756.3859707036448
 20
954.3475510490765
 30
0.0
 11
758.7855051408681
 21
991.6417548475727
 31
0.0
  0
VIEWPORT
  5
DA
102
{ACAD_XDICTIONARY
360
AE9
102
}
330
C
100
AcDbEntity
 67
     1
  8
0
100
AcDbViewport
 10
420.5071835950612
 20
297.0009369707932
 30
0.0
 40
848.880193293653
 41
633.6711302051212
 68
     1
 69
     1
 12
420.5071835950612
 22
297.0009369707932
 13
0.0
 23
0.0
 14
10.0
 24
10.0
 15
10.0
 25
10.0
 16
0.0
 26
0.0
 36
1.0
 17
0.0
 27
0.0
 37
0.0
 42
50.0
 43
0.0
 44
0.0
 45
633.6711302051212
 50
0.0
 51
0.0
 72
  1000
 90
    32864
  1

281
     0
 71
     1
 74
     0
110
0.0
120
0.0
130
0.0
111
1.0
121
0.0
131
0.0
112
0.0
122
1.0
132
0.0
 79
     0
146
0.0
  0
ENDSEC
  0
SECTION
  2
OBJECTS
  0
DICTIONARY
  5
7
330
0
100
AcDbDictionary
281
     1
  3
ACAD_COLOR
350
DE
  3
ACAD_GROUP
350
20
  3
ACAD_LAYOUT
350
B
  3
ACAD_MATERIAL
350
DD
  3
ACAD_MLINESTYLE
350
21
  3
ACAD_PLOTSETTINGS
350
22
  3
ACAD_PLOTSTYLENAME
350
6
  3
ACDBHEADERROUNDTRIPXREC
350
AE2
  3
AcDbVariableDictionary
350
115
  0
DICTIONARY
  5
1A3
330
10
100
AcDbDictionary
280
     1
281
     1
  3
ACAD_LAYERSTATES
360
1A4
  0
DICTIONARY
  5
AE9
330
DA
100
AcDbDictionary
280
     1
281
     1
  3
ACAD_XREC_ROUNDTRIP
360
AEA
  0
DICTIONARY
  5
DE
102
{ACAD_REACTORS
330
7
102
}
330
7
100
AcDbDictionary
281
     1
  0
DICTIONARY
  5
20
102
{ACAD_REACTORS
330
7
102
}
330
7
100
AcDbDictionary
281
     1
  0
DICTIONARY
  5
B
102
{ACAD_REACTORS
330
7
102
}
330
7
100
AcDbDictionary
281
     1
  3
JIS A1 Title Block
350
F
  3
Model
350
A
  0
DICTIONARY
  5
DD
102
{ACAD_REACTORS
330
7
102
}
330
7
100
AcDbDictionary
281
     1
  0
DICTIONARY
  5
21
102
{ACAD_REACTORS
330
7
102
}
330
7
100
AcDbDictionary
281
     1
  3
Standard
350
23
  0
DICTIONARY
  5
22
102
{ACAD_REACTORS
330
7
102
}
330
7
100
AcDbDictionary
281
     1
  0
ACDBDICTIONARYWDFLT
  5
6
102
{ACAD_REACTORS
330
7
102
}
330
7
100
AcDbDictionary
281
     1
  3
Normal
350
5
100
AcDbDictionaryWithDefault
340
5
  0
DICTIONARY
  5
AE2
102
{ACAD_REACTORS
330
7
102
}
330
7
100
AcDbDictionary
281
     1
  3
COLORDICT
350
AE4
  3
MATERIALDICT
350
AE3
  0
DICTIONARY
  5
115
102
{ACAD_REACTORS
330
7
102
}
330
7
100
AcDbDictionary
281
     1
  3
DIMASSOC
350
116
  3
PROJECTNAME
350
117
  0
DICTIONARY
  5
1A4
102
{ACAD_REACTORS
330
1A3
102
}
330
1A3
100
AcDbDictionary
281
     1
  0
XRECORD
  5
AEA
102
{ACAD_REACTORS
330
AE9
102
}
330
AE9
100
AcDbXrecord
280
     1
102
SHADEPLOT
 70
     0
  0
LAYOUT
  5
F
102
{ACAD_XDICTIONARY
360
AE7
102
}
102
{ACAD_REACTORS
330
B
102
}
330
B
100
AcDbPlotSettings
  1

  2
none_device
  4
ISO_A1_(594.00_x_841.00_MM)
  6

 40
7.549999999999998
 41
20.05
 42
7.549999999999998
 43
20.05
 44
594.0
 45
841.0
 46
-7.559999999999997
 47
-20.07
 48
0.0
 49
0.0
140
0.0
141
0.0
142
1.0
143
1.0
 70
   692
 72
     1
 73
     1
 74
     1
  7

 75
    16
147
1.0
148
0.0128164049386896
149
0.0090630292066862
100
AcDbLayout
  1
JIS A1 Title Block
 70
     1
 71
     1
 10
0.0071835950613099
 20
0.0009369707933136
 11
841.0071835950612
 21
594.0009369707931
 12
0.0
 22
0.0
 32
0.0
 14
1.000000000000000E+20
 24
1.000000000000000E+20
 34
1.000000000000000E+20
 15
-1.000000000000000E+20
 25
-1.000000000000000E+20
 35
-1.000000000000000E+20
146
0.0
 13
0.0
 23
0.0
 33
0.0
 16
1.0
 26
0.0
 36
0.0
 17
0.0
 27
1.0
 37
0.0
 76
     0
330
C
331
DA
  0
LAYOUT
  5
A
102
{ACAD_XDICTIONARY
360
AE5
102
}
102
{ACAD_REACTORS
330
B
102
}
330
B
100
AcDbPlotSettings
  1

  2
none_device
  4
ANSI_A_(8.50_x_11.00_Inches)
  6

 40
6.349999904632567
 41
19.04999923706055
 42
6.350006103515625
 43
19.04998779296875
 44
215.8999938964844
 45
279.3999938964844
 46
28.79458090408706
 47
17.57028564415653
 48
0.0
 49
0.0
140
0.0
141
0.0
142
1.0
143
103.6285708313174
 70
 11956
 72
     0
 73
     1
 74
     1
  7

 75
     0
147
0.0096498484151418
148
1.303736702137707
149
0.9208318680958655
100
AcDbLayout
  1
Model
 70
     1
 71
     0
 10
0.0
 20
0.0
 11
12.0
 21
9.0
 12
0.0
 22
0.0
 32
0.0
 14
0.0
 24
0.0
 34
0.0
 15
0.0
 25
0.0
 35
0.0
146
0.0
 13
0.0
 23
0.0
 33
0.0
 16
1.0
 26
0.0
 36
0.0
 17
0.0
 27
1.0
 37
0.0
 76
     0
330
2
  0
MLINESTYLE
  5
23
102
{ACAD_REACTORS
330
21
102
}
330
21
100
AcDbMlineStyle
  2
STANDARD
 70
     0
  3

 62
   256
 51
90.0
 52
90.0
 71
     2
 49
0.5
 62
   256
  6
BYLAYER
 49
-0.5
 62
   256
  6
BYLAYER
  0
ACDBPLACEHOLDER
  5
5
102
{ACAD_REACTORS
330
6
102
}
330
6
  0
XRECORD
  5
AE4
102
{ACAD_REACTORS
330
AE2
102
}
330
AE2
100
AcDbXrecord
280
     1
340
DE
  0
XRECORD
  5
AE3
102
{ACAD_REACTORS
330
AE2
102
}
330
AE2
100
AcDbXrecord
280
     1
340
DD
  0
DICTIONARYVAR
  5
116
102
{ACAD_REACTORS
330
115
102
}
330
115
100
DictionaryVariables
280
     0
  1
1
  0
DICTIONARYVAR
  5
117
102
{ACAD_REACTORS
330
115
102
}
330
115
100
DictionaryVariables
280
     0
  1

  0
DICTIONARY
  5
AE7
330
F
100
AcDbDictionary
280
     1
281
     1
  3
ACAD_XREC_ROUNDTRIP
360
AE8
  0
DICTIONARY
  5
AE5
330
A
100
AcDbDictionary
280
     1
281
     1
  3
ACAD_XREC_ROUNDTRIP
360
AE6
  0
XRECORD
  5
AE8
102
{ACAD_REACTORS
330
AE7
102
}
330
AE7
100
AcDbXrecord
280
     1
102
SHADEPLOT
 70
     0
102
SHADEPLOTRESLEVEL
 70
     2
102
SHADEPLOTCUSTOMDPI
 70
   300
  0
XRECORD
  5
AE6
102
{ACAD_REACTORS
330
AE5
102
}
330
AE5
100
AcDbXrecord
280
     1
102
SHADEPLOT
 70
     0
102
SHADEPLOTRESLEVEL
 70
     2
102
SHADEPLOTCUSTOMDPI
 70
   300
  0
ENDSEC
  0
EOF
