  0
SECTION
  2
HEADER
  9
$ACADVER
  1
AC1015
  9
$ACADMAINTVER
 70
    20
  9
$DWGCODEPAGE
  3
ANSI_936
  9
$INSBASE
 10
0.0
 20
0.0
 30
0.0
  9
$EXTMIN
 10
-0.0488001835601608
 20
-0.0366001376705754
 30
-0.0000000000000053
  9
$EXTMAX
 10
1600.04884302707
 20
1200.036632270302
 30
0.0000000000000099
  9
$LIMMIN
 10
0.0
 20
0.0
  9
$LIMMAX
 10
420.0
 20
297.0
  9
$ORTHOMODE
 70
     0
  9
$REGENMODE
 70
     1
  9
$FILLMODE
 70
     1
  9
$QTEXTMODE
 70
     0
  9
$MIRRTEXT
 70
     0
  9
$LTSCALE
 40
1.0
  9
$ATTMODE
 70
     1
  9
$TEXTSIZE
 40
2.5
  9
$TRACEWID
 40
1.0
  9
$TEXTSTYLE
  7
Standard
  9
$CLAYER
  8
0
  9
$CELTYPE
  6
ByLayer
  9
$CECOLOR
 62
   256
  9
$CELTSCALE
 40
1.0
  9
$DISPSILH
 70
     0
  9
$DIMSCALE
 40
1.0
  9
$DIMASZ
 40
2.5
  9
$DIMEXO
 40
1.0
  9
$DIMDLI
 40
7.0
  9
$DIMRND
 40
0.0
  9
$DIMDLE
 40
0.0
  9
$DIMEXE
 40
1.0
  9
$DIMTP
 40
0.0
  9
$DIMTM
 40
0.0
  9
$DIMTXT
 40
2.5
  9
$DIMCEN
 40
0.0
  9
$DIMTSZ
 40
0.0
  9
$DIMTOL
 70
     0
  9
$DIMLIM
 70
     0
  9
$DIMTIH
 70
     0
  9
$DIMTOH
 70
     0
  9
$DIMSE1
 70
     0
  9
$DIMSE2
 70
     0
  9
$DIMTAD
 70
     1
  9
$DIMZIN
 70
     8
  9
$DIMBLK
  1

  9
$DIMASO
 70
     1
  9
$DIMSHO
 70
     1
  9
$DIMPOST
  1

  9
$DIMAPOST
  1

  9
$DIMALT
 70
     0
  9
$DIMALTD
 70
     2
  9
$DIMALTF
 40
0.0394
  9
$DIMLFAC
 40
1.0
  9
$DIMTOFL
 70
     1
  9
$DIMTVP
 40
0.0
  9
$DIMTIX
 70
     1
  9
$DIMSOXD
 70
     1
  9
$DIMSAH
 70
     0
  9
$DIMBLK1
  1

  9
$DIMBLK2
  1

  9
$DIMSTYLE
  2
JIS
  9
$DIMCLRD
 70
     0
  9
$DIMCLRE
 70
     0
  9
$DIMCLRT
 70
     0
  9
$DIMTFAC
 40
1.0
  9
$DIMGAP
 40
0.0
  9
$DIMJUST
 70
     0
  9
$DIMSD1
 70
     0
  9
$DIMSD2
 70
     0
  9
$DIMTOLJ
 70
     1
  9
$DIMTZIN
 70
     0
  9
$DIMALTZ
 70
     0
  9
$DIMALTTZ
 70
     0
  9
$DIMUPT
 70
     0
  9
$DIMDEC
 70
     4
  9
$DIMTDEC
 70
     4
  9
$DIMALTU
 70
     2
  9
$DIMALTTD
 70
     2
  9
$DIMTXSTY
  7
Standard
  9
$DIMAUNIT
 70
     0
  9
$DIMADEC
 70
     0
  9
$DIMALTRND
 40
0.0
  9
$DIMAZIN
 70
     0
  9
$DIMDSEP
 70
    46
  9
$DIMATFIT
 70
     3
  9
$DIMFRAC
 70
     0
  9
$DIMLDRBLK
  1

  9
$DIMLUNIT
 70
     2
  9
$DIMLWD
 70
    -2
  9
$DIMLWE
 70
    -2
  9
$DIMTMOVE
 70
     0
  9
$LUNITS
 70
     2
  9
$LUPREC
 70
     4
  9
$SKETCHINC
 40
1.0
  9
$FILLETRAD
 40
0.0
  9
$AUNITS
 70
     0
  9
$AUPREC
 70
     0
  9
$MENU
  1
.
  9
$ELEVATION
 40
0.0
  9
$PELEVATION
 40
0.0
  9
$THICKNESS
 40
0.0
  9
$LIMCHECK
 70
     0
  9
$CHAMFERA
 40
0.0
  9
$CHAMFERB
 40
0.0
  9
$CHAMFERC
 40
0.0
  9
$CHAMFERD
 40
0.0
  9
$SKPOLY
 70
     0
  9
$TDCREATE
 40
2455955.017649734
  9
$TDUCREATE
 40
2455954.684316401
  9
$TDUPDATE
 40
2456193.628058264
  9
$TDUUPDATE
 40
2456193.294724930
  9
$TDINDWG
 40
0.0576517245
  9
$TDUSRTIMER
 40
0.0576459375
  9
$USRTIMER
 70
     1
  9
$ANGBASE
 50
0.0
  9
$ANGDIR
 70
     0
  9
$PDMODE
 70
     0
  9
$PDSIZE
 40
0.0
  9
$PLINEWID
 40
0.0
  9
$SPLFRAME
 70
     0
  9
$SPLINETYPE
 70
     6
  9
$SPLINESEGS
 70
   100
  9
$HANDSEED
  5
AD8
  9
$SURFTAB1
 70
     6
  9
$SURFTAB2
 70
     6
  9
$SURFTYPE
 70
     6
  9
$SURFU
 70
     6
  9
$SURFV
 70
     6
  9
$UCSBASE
  2

  9
$UCSNAME
  2

  9
$UCSORG
 10
0.0
 20
0.0
 30
0.0
  9
$UCSXDIR
 10
1.0
 20
0.0
 30
0.0
  9
$UCSYDIR
 10
0.0
 20
1.0
 30
0.0
  9
$UCSORTHOREF
  2

  9
$UCSORTHOVIEW
 70
     0
  9
$UCSORGTOP
 10
0.0
 20
0.0
 30
0.0
  9
$UCSORGBOTTOM
 10
0.0
 20
0.0
 30
0.0
  9
$UCSORGLEFT
 10
0.0
 20
0.0
 30
0.0
  9
$UCSORGRIGHT
 10
0.0
 20
0.0
 30
0.0
  9
$UCSORGFRONT
 10
0.0
 20
0.0
 30
0.0
  9
$UCSORGBACK
 10
0.0
 20
0.0
 30
0.0
  9
$PUCSBASE
  2

  9
$PUCSNAME
  2

  9
$PUCSORG
 10
0.0
 20
0.0
 30
0.0
  9
$PUCSXDIR
 10
1.0
 20
0.0
 30
0.0
  9
$PUCSYDIR
 10
0.0
 20
1.0
 30
0.0
  9
$PUCSORTHOREF
  2

  9
$PUCSORTHOVIEW
 70
     0
  9
$PUCSORGTOP
 10
0.0
 20
0.0
 30
0.0
  9
$PUCSORGBOTTOM
 10
0.0
 20
0.0
 30
0.0
  9
$PUCSORGLEFT
 10
0.0
 20
0.0
 30
0.0
  9
$PUCSORGRIGHT
 10
0.0
 20
0.0
 30
0.0
  9
$PUCSORGFRONT
 10
0.0
 20
0.0
 30
0.0
  9
$PUCSORGBACK
 10
0.0
 20
0.0
 30
0.0
  9
$USERI1
 70
     0
  9
$USERI2
 70
     0
  9
$USERI3
 70
     0
  9
$USERI4
 70
     0
  9
$USERI5
 70
     0
  9
$USERR1
 40
0.0
  9
$USERR2
 40
0.0
  9
$USERR3
 40
0.0
  9
$USERR4
 40
0.0
  9
$USERR5
 40
0.0
  9
$WORLDVIEW
 70
     1
  9
$SHADEDGE
 70
     3
  9
$SHADEDIF
 70
    70
  9
$TILEMODE
 70
     1
  9
$MAXACTVP
 70
    64
  9
$PINSBASE
 10
0.0
 20
0.0
 30
0.0
  9
$PLIMCHECK
 70
     0
  9
$PEXTMIN
 10
1.000000000000000E+20
 20
1.000000000000000E+20
 30
1.000000000000000E+20
  9
$PEXTMAX
 10
-1.000000000000000E+20
 20
-1.000000000000000E+20
 30
-1.000000000000000E+20
  9
$PLIMMIN
 10
0.0071835950613099
 20
0.0009369707933136
  9
$PLIMMAX
 10
841.0071835950612
 20
594.0009369707931
  9
$UNITMODE
 70
     0
  9
$VISRETAIN
 70
     1
  9
$PLINEGEN
 70
     0
  9
$PSLTSCALE
 70
     1
  9
$TREEDEPTH
 70
  3020
  9
$CMLSTYLE
  2
Standard
  9
$CMLJUST
 70
     0
  9
$CMLSCALE
 40
20.0
  9
$PROXYGRAPHICS
 70
     1
  9
$MEASUREMENT
 70
     1
  9
$CELWEIGHT
370
    -1
  9
$ENDCAPS
280
     0
  9
$JOINSTYLE
280
     0
  9
$LWDISPLAY
290
     1
  9
$INSUNITS
 70
     4
  9
$HYPERLINKBASE
  1

  9
$STYLESHEET
  1

  9
$XEDIT
290
     1
  9
$CEPSNTYPE
380
     0
  9
$PSTYLEMODE
290
     1
  9
$FINGERPRINTGUID
  2
{048D7354-A980-11D2-9A39-0060089B3A3F}
  9
$VERSIONGUID
  2
{6C8A35BD-8FAF-4779-A040-2561CCC3531C}
  9
$EXTNAMES
290
     1
  9
$PSVPSCALE
 40
0.0
  9
$OLESTARTUP
290
     0
  0
ENDSEC
  0
SECTION
  2
CLASSES
  0
CLASS
  1
ACDBDICTIONARYWDFLT
  2
AcDbDictionaryWithDefault
  3
ObjectDBX Classes
 90
        0
280
     0
281
     0
  0
CLASS
  1
ACDBPLACEHOLDER
  2
AcDbPlaceHolder
  3
ObjectDBX Classes
 90
        0
280
     0
281
     0
  0
CLASS
  1
LAYOUT
  2
AcDbLayout
  3
ObjectDBX Classes
 90
        0
280
     0
281
     0
  0
CLASS
  1
PLOTSETTINGS
  2
AcDbPlotSettings
  3
ObjectDBX Classes
 90
    32768
280
     0
281
     0
  0
CLASS
  1
DICTIONARYVAR
  2
AcDbDictionaryVar
  3
ObjectDBX Classes
 90
        0
280
     0
281
     0
  0
ENDSEC
  0
SECTION
  2
TABLES
  0
TABLE
  2
VPORT
  5
19
330
0
100
AcDbSymbolTable
 70
     4
  0
VPORT
  5
ACE
330
19
100
AcDbSymbolTableRecord
100
AcDbViewportTableRecord
  2
*Active
 70
     0
 10
0.0
 20
0.0
 11
1.0
 21
1.0
 12
800.0000212177827
 22
600.0000135856446
 13
0.0
 23
0.0
 14
10.0
 24
10.0
 15
10.0
 25
10.0
 16
0.0
 26
0.0
 36
1.0
 17
0.0
 27
0.0
 37
0.0
 40
1285.562550250092
 41
2.293805309734513
 42
50.0
 43
0.0
 44
0.0
 50
0.0
 51
0.0
 71
     0
 72
  2000
 73
     1
 74
     3
 75
     0
 76
     0
 77
     0
 78
     0
281
     0
 65
     1
110
0.0
120
0.0
130
0.0
111
1.0
121
0.0
131
0.0
112
0.0
122
1.0
132
0.0
 79
     0
146
0.0
  0
ENDTAB
  0
TABLE
  2
LTYPE
  5
14
330
0
100
AcDbSymbolTable
 70
     1
  0
LTYPE
  5
15
330
14
100
AcDbSymbolTableRecord
100
AcDbLinetypeTableRecord
  2
ByBlock
 70
     0
  3

 72
    65
 73
     0
 40
0.0
  0
LTYPE
  5
16
330
14
100
AcDbSymbolTableRecord
100
AcDbLinetypeTableRecord
  2
ByLayer
 70
     0
  3

 72
    65
 73
     0
 40
0.0
  0
LTYPE
  5
8
330
14
100
AcDbSymbolTableRecord
100
AcDbLinetypeTableRecord
  2
Continuous
 70
     0
  3
Solid line
 72
    65
 73
     0
 40
0.0
  0
ENDTAB
  0
TABLE
  2
LAYER
  5
10
102
{ACAD_XDICTIONARY
360
1A3
102
}
330
0
100
AcDbSymbolTable
 70
     4
  0
LAYER
  5
4
330
10
100
AcDbSymbolTableRecord
100
AcDbLayerTableRecord
  2
0
 70
     0
 62
     7
  6
Continuous
370
    -3
390
5
  0
LAYER
  5
28
330
10
100
AcDbSymbolTableRecord
100
AcDbLayerTableRecord
  2
Object
 70
     0
 62
     7
  6
Continuous
370
    -3
390
5
  0
LAYER
  5
1A2
330
10
100
AcDbSymbolTableRecord
100
AcDbLayerTableRecord
  2
TOPOVERLAY
 70
     0
 62
     2
  6
Continuous
370
    -3
390
5
  0
LAYER
  5
7B8
330
10
100
AcDbSymbolTableRecord
100
AcDbLayerTableRecord
  2
6-家具-143
 70
     0
 62
   143
  6
Continuous
370
    -3
390
5
  0
ENDTAB
  0
TABLE
  2
STYLE
  5
11
330
0
100
AcDbSymbolTable
 70
     2
  0
STYLE
  5
12
330
11
100
AcDbSymbolTableRecord
100
AcDbTextStyleTableRecord
  2
Standard
 70
     0
 40
0.0
 41
1.0
 50
0.0
 71
     0
 42
2.5
  3
txt
  4

  0
STYLE
  5
2E
330
11
100
AcDbSymbolTableRecord
100
AcDbTextStyleTableRecord
  2
Roman
 70
     0
 40
0.0
 41
1.0
 50
0.0
 71
     0
 42
5.0
  3
romans
  4
bigfont
  0
ENDTAB
  0
TABLE
  2
VIEW
  5
17
330
0
100
AcDbSymbolTable
 70
     0
  0
ENDTAB
  0
TABLE
  2
UCS
  5
18
330
0
100
AcDbSymbolTable
 70
     0
  0
ENDTAB
  0
TABLE
  2
APPID
  5
1B
330
0
100
AcDbSymbolTable
 70
     1
  0
APPID
  5
1C
330
1B
100
AcDbSymbolTableRecord
100
AcDbRegAppTableRecord
  2
ACAD
 70
     0
  0
ENDTAB
  0
TABLE
  2
DIMSTYLE
  5
1D
330
0
100
AcDbSymbolTable
 70
     1
100
AcDbDimStyleTable
 71
     1
340
1E
  0
DIMSTYLE
105
1E
330
1D
100
AcDbSymbolTableRecord
100
AcDbDimStyleTableRecord
  2
JIS
 70
     0
 41
2.5
 42
1.0
 43
7.0
 44
1.0
 73
     0
 74
     0
 77
     1
 78
     8
140
2.5
141
0.0
143
0.0394
147
0.0
172
     1
174
     1
175
     1
340
12
  0
ENDTAB
  0
TABLE
  2
BLOCK_RECORD
  5
1
330
0
100
AcDbSymbolTable
 70
     1
  0
BLOCK_RECORD
  5
2
330
1
100
AcDbSymbolTableRecord
100
AcDbBlockTableRecord
  2
*Model_Space
340
A
  0
BLOCK_RECORD
  5
C
330
1
100
AcDbSymbolTableRecord
100
AcDbBlockTableRecord
  2
*Paper_Space
340
F
  0
ENDTAB
  0
ENDSEC
  0
SECTION
  2
BLOCKS
  0
BLOCK
  5
3
330
2
100
AcDbEntity
  8
0
100
AcDbBlockBegin
  2
*Model_Space
 70
     2
 10
0.0
 20
0.0
 30
0.0
  3
*Model_Space
  1

  0
ENDBLK
  5
9
330
2
100
AcDbEntity
  8
0
100
AcDbBlockEnd
  0
BLOCK
  5
D
330
C
100
AcDbEntity
 67
     1
  8
0
100
AcDbBlockBegin
  2
*Paper_Space
 70
     0
 10
0.0
 20
0.0
 30
0.0
  3
*Paper_Space
  1

  0
ENDBLK
  5
E
330
C
100
AcDbEntity
 67
     1
  8
0
100
AcDbBlockEnd
  0
ENDSEC
  0
SECTION
  2
ENTITIES
  0
LINE
  5
14F
330
2
100
AcDbEntity
  8
0
100
AcDbLine
 10
0.0
 20
0.0
 30
0.0
 11
1600.0
 21
0.0
 31
0.0
  0
LINE
  5
150
330
2
100
AcDbEntity
  8
0
100
AcDbLine
 10
1600.0
 20
0.0
 30
0.0
 11
1600.0
 21
1200.0
 31
0.0
  0
LINE
  5
151
330
2
100
AcDbEntity
  8
0
100
AcDbLine
 10
1600.0
 20
1200.0
 30
0.0
 11
0.0
 21
1200.0
 31
0.0
  0
LINE
  5
152
330
2
100
AcDbEntity
  8
0
100
AcDbLine
 10
0.0
 20
1200.0
 30
0.0
 11
0.0
 21
0.0
 31
0.0
  0
LINE
  5
24D
330
2
100
AcDbEntity
  8
0
 62
     5
370
    35
100
AcDbLine
 10
146.8773759648378
 20
134.2453454679304
 30
0.0
 11
146.8773759648378
 21
1100.245345467943
 31
0.0
  0
LINE
  5
24E
330
2
100
AcDbEntity
  8
0
 62
     5
370
    35
100
AcDbLine
 10
146.8773759648378
 20
1100.245345467943
 30
0.0
 11
1462.87737596485
 21
1100.245345467943
 31
0.0
  0
LINE
  5
24F
330
2
100
AcDbEntity
  8
0
 62
     5
370
    35
100
AcDbLine
 10
1462.87737596485
 20
134.2453454679304
 30
0.0
 11
1462.87737596485
 21
1100.245345467943
 31
0.0
  0
LINE
  5
250
330
2
100
AcDbEntity
  8
0
 62
     5
370
    35
100
AcDbLine
 10
146.8773759648378
 20
134.2453454679304
 30
0.0
 11
1462.87737596485
 21
134.2453454679304
 31
0.0
  0
ARC
  5
253
330
2
100
AcDbEntity
  8
0
 62
    56
100
AcDbCircle
 10
401.2681708086422
 20
628.4567916576502
 30
0.0
 40
86.57756336906864
100
AcDbArc
 50
93.76815435825868
 51
266.2318456417413
  0
LINE
  5
254
330
2
100
AcDbEntity
  8
0
 62
    56
100
AcDbLine
 10
470.1374477329405
 20
628.3583971343634
 30
0.0
 11
499.3982512737052
 21
628.3583971343634
 31
0.0
  0
LINE
  5
255
330
2
100
AcDbEntity
  8
0
 62
   250
370
   100
100
AcDbLine
 10
527.8635948504152
 20
628.2835470220474
 30
0.0
 11
587.9718373885777
 21
628.2835470220474
 31
0.0
  0
LINE
  5
256
330
2
100
AcDbEntity
  8
TOPOVERLAY
  6
Continuous
 62
   250
370
   100
100
AcDbLine
 10
541.4356581651294
 20
585.0814711308552
 30
0.0
 11
587.6442963840311
 21
614.4695149158027
 31
0.0
  0
LINE
  5
257
330
2
100
AcDbEntity
  8
0
 62
    56
100
AcDbLine
 10
604.2264970840532
 20
628.4012180692907
 30
0.0
 11
658.7775067137572
 21
628.4012180692907
 31
0.0
  0
CIRCLE
  5
25A
330
2
100
AcDbEntity
  8
0
 62
   252
100
AcDbCircle
 10
849.8347280698894
 20
544.8099052881846
 30
0.0
 40
20.66015533163439
  0
CIRCLE
  5
25B
330
2
100
AcDbEntity
  8
0
 62
   252
100
AcDbCircle
 10
896.2810363508351
 20
544.8099052881846
 30
0.0
 40
20.66015533163439
  0
LINE
  5
25C
330
2
100
AcDbEntity
  8
0
 62
   252
100
AcDbLine
 10
846.0386689126329
 20
572.6575850725935
 30
0.0
 11
846.0386689126329
 21
590.4449980898156
 31
0.0
  0
LINE
  5
25D
330
2
100
AcDbEntity
  8
0
 62
   252
100
AcDbLine
 10
851.7095168752783
 20
569.7441298102651
 30
0.0
 11
851.7095168752783
 21
587.5315428273284
 31
0.0
  0
LINE
  5
25E
330
2
100
AcDbEntity
  8
0
 62
   252
100
AcDbLine
 10
840.3678256780167
 20
583.0846877287699
 30
0.0
 11
859.9858798658585
 21
574.651003384211
 31
0.0
  0
LINE
  5
25F
330
2
100
AcDbEntity
  8
0
 62
   252
100
AcDbLine
 10
891.6408484796201
 20
571.4311248843483
 30
0.0
 11
891.6408484796201
 21
589.2185379015702
 31
0.0
  0
LINE
  5
260
330
2
100
AcDbEntity
  8
0
 62
   252
100
AcDbLine
 10
897.3116964422823
 20
568.5176696219882
 30
0.0
 11
897.3116964422823
 21
586.3050826390831
 31
0.0
  0
LINE
  5
261
330
2
100
AcDbEntity
  8
0
 62
   252
100
AcDbLine
 10
885.9700052450161
 20
581.8582275404926
 30
0.0
 11
905.5880594328653
 21
573.4245431959656
 31
0.0
  0
LINE
  5
262
330
2
100
AcDbEntity
  8
0
 62
   252
100
AcDbLine
 10
811.4020209092316
 20
547.0627865766075
 30
0.0
 11
938.3176685414612
 21
547.0627865766075
 31
0.0
  0
CIRCLE
  5
263
330
2
100
AcDbEntity
  8
0
 62
   252
100
AcDbCircle
 10
846.4638490603672
 20
689.8273729904121
 30
0.0
 40
20.66015533163439
  0
CIRCLE
  5
264
330
2
100
AcDbEntity
  8
0
 62
   252
100
AcDbCircle
 10
892.9101573412921
 20
689.8273729904121
 30
0.0
 40
20.66015533163439
  0
LINE
  5
265
330
2
100
AcDbEntity
  8
0
 62
   252
100
AcDbLine
 10
842.6677899030917
 20
717.6750527748207
 30
0.0
 11
842.6677899030917
 21
735.4624657919162
 31
0.0
  0
LINE
  5
266
330
2
100
AcDbEntity
  8
0
 62
   252
100
AcDbLine
 10
848.3386378657456
 20
714.761597512334
 30
0.0
 11
848.3386378657456
 21
732.549010529556
 31
0.0
  0
LINE
  5
267
330
2
100
AcDbEntity
  8
0
 62
   252
100
AcDbLine
 10
836.9969466684873
 20
728.1021554308705
 30
0.0
 11
856.6150008563175
 21
719.6684710864705
 31
0.0
  0
LINE
  5
268
330
2
100
AcDbEntity
  8
0
 62
   252
100
AcDbLine
 10
888.2699694700912
 20
716.448592586576
 30
0.0
 11
888.2699694700912
 21
734.2360056036708
 31
0.0
  0
LINE
  5
269
330
2
100
AcDbEntity
  8
0
 62
   252
100
AcDbLine
 10
893.9408174327452
 20
713.5351373240884
 30
0.0
 11
893.9408174327452
 21
731.3225503413426
 31
0.0
  0
LINE
  5
26A
330
2
100
AcDbEntity
  8
0
 62
   252
100
AcDbLine
 10
882.5991262354792
 20
726.8756952426248
 30
0.0
 11
902.2171804233362
 21
718.442010898098
 31
0.0
  0
LINE
  5
26B
330
2
100
AcDbEntity
  8
0
 62
   252
100
AcDbLine
 10
808.0311418997078
 20
692.0802542788354
 30
0.0
 11
934.9467895319213
 21
692.0802542788354
 31
0.0
  0
LINE
  5
26C
330
2
100
AcDbEntity
  8
0
 62
    56
100
AcDbLine
 10
294.9873178741801
 20
240.3176229270147
 30
0.0
 11
294.9595074320472
 21
1017.926882565553
 31
0.0
  0
ARC
  5
26E
330
2
100
AcDbEntity
  8
0
 62
    56
100
AcDbCircle
 10
714.0263533355915
 20
629.3287134877487
 30
0.0
 40
86.57756336906864
100
AcDbArc
 50
273.7681543582587
 51
86.23184564174131
  0
LINE
  5
26F
330
2
100
AcDbEntity
  8
0
 62
    56
100
AcDbLine
 10
973.9539700263961
 20
625.1124834942498
 30
0.0
 11
973.9539700263961
 21
501.1746429232616
 31
0.0
  0
LINE
  5
270
330
2
100
AcDbEntity
  8
0
 62
    56
100
AcDbLine
 10
973.9539700263961
 20
501.1746429232616
 30
0.0
 11
906.4579844358259
 21
501.1746429232616
 31
0.0
  0
LINE
  5
271
330
2
100
AcDbEntity
  8
0
 62
    56
100
AcDbLine
 10
906.4579844358259
 20
501.1746429232616
 30
0.0
 11
906.4579844358259
 21
394.2070817623431
 31
0.0
  0
LINE
  5
272
330
2
100
AcDbEntity
  8
0
 62
    56
100
AcDbLine
 10
906.4579844358259
 20
394.2070817623431
 30
0.0
 11
934.4953215517596
 21
394.2070817623431
 31
0.0
  0
LINE
  5
273
330
2
100
AcDbEntity
  8
0
 62
    56
100
AcDbLine
 10
934.4953215517596
 20
380.8960846563837
 30
0.0
 11
934.4953215517596
 21
407.460580247544
 31
0.0
  0
LINE
  5
274
330
2
100
AcDbEntity
  8
0
 62
    56
100
AcDbLine
 10
940.8403907057147
 20
380.8960846563837
 30
0.0
 11
940.8403907057147
 21
407.460580247544
 31
0.0
  0
CIRCLE
  5
275
330
2
100
AcDbEntity
  8
0
 62
     1
370
    30
100
AcDbCircle
 10
1003.517714356422
 20
334.9398966850963
 30
0.0
 40
21.00918010397843
  0
CIRCLE
  5
279
330
2
100
AcDbEntity
  8
0
 62
   250
370
    30
100
AcDbCircle
 10
1003.455272873811
 20
394.3476714354988
 30
0.0
 40
21.00918010397843
  0
CIRCLE
  5
27D
330
2
100
AcDbEntity
  8
0
 62
   250
370
    30
100
AcDbCircle
 10
1003.455272873811
 20
451.0131016931476
 30
0.0
 40
21.00918010397843
  0
LINE
  5
281
330
2
100
AcDbEntity
  8
0
 62
    56
100
AcDbLine
 10
982.4460927698423
 20
394.3476714354988
 30
0.0
 11
940.8403907057147
 21
394.3476714354988
 31
0.0
  0
LINE
  5
282
330
2
100
AcDbEntity
  8
0
 62
    56
100
AcDbLine
 10
1024.464452977806
 20
394.3476714354988
 30
0.0
 11
1039.314395454069
 21
394.3476714354988
 31
0.0
  0
LINE
  5
283
330
2
100
AcDbEntity
  8
0
 62
    56
100
AcDbLine
 10
1039.388990038443
 20
379.3676202292459
 30
0.0
 11
1039.388990038443
 21
409.00459600814
 31
0.0
  0
LINE
  5
284
330
2
100
AcDbEntity
  8
0
 62
    56
100
AcDbLine
 10
1042.74302770237
 20
383.8706902995915
 30
0.0
 11
1042.74302770237
 21
403.1583864851246
 31
0.0
  0
LINE
  5
285
330
2
100
AcDbEntity
  8
0
 62
    56
100
AcDbLine
 10
1046.461012423949
 20
389.243690747517
 30
0.0
 11
1046.461012423949
 21
397.7853860371993
 31
0.0
  0
LINE
  5
286
330
2
100
AcDbEntity
  8
0
 62
    56
100
AcDbLine
 10
973.9539700263961
 20
625.1124834942498
 30
0.0
 11
973.9539700263961
 21
752.756677270245
 31
0.0
  0
LINE
  5
287
330
2
100
AcDbEntity
  8
0
 62
    56
100
AcDbLine
 10
973.9539700263961
 20
752.756677270245
 30
0.0
 11
905.6413493840961
 21
752.756677270245
 31
0.0
  0
LINE
  5
288
330
2
100
AcDbEntity
  8
0
 62
    56
100
AcDbLine
 10
905.6413493840961
 20
752.756677270245
 30
0.0
 11
905.6413493840961
 21
920.9552148575816
 31
0.0
  0
LINE
  5
289
330
2
100
AcDbEntity
  8
0
 62
    56
100
AcDbLine
 10
905.6413493840961
 20
920.9552148575816
 30
0.0
 11
942.2925948928883
 21
920.9552148575816
 31
0.0
  0
LINE
  5
28A
330
2
100
AcDbEntity
  8
0
 62
   250
370
    30
100
AcDbLine
 10
950.2989489221251
 20
845.5916548606225
 30
0.0
 11
1012.039857522575
 21
845.5916548606225
 31
0.0
  0
LINE
  5
28B
330
2
100
AcDbEntity
  8
0
 62
     3
370
    30
100
AcDbLine
 10
969.3382320053286
 20
803.5084767944718
 30
0.0
 11
1011.712316518024
 21
830.4615642773709
 31
0.0
  0
LINE
  5
28C
330
2
100
AcDbEntity
  8
0
 62
    56
100
AcDbLine
 10
934.9535364719052
 20
827.3457265659777
 30
0.0
 11
934.9535364719052
 21
858.7929572286345
 31
0.0
  0
LINE
  5
28D
330
2
100
AcDbEntity
  8
0
 62
    56
100
AcDbLine
 10
934.9535364719052
 20
842.1221343767278
 30
0.0
 11
905.6413493840961
 21
842.1221343767278
 31
0.0
  0
LINE
  5
28E
330
2
100
AcDbEntity
  8
0
 62
    56
100
AcDbLine
 10
1024.464452977806
 20
841.4595212865702
 30
0.0
 11
1039.314395454069
 21
841.4595212865702
 31
0.0
  0
LINE
  5
28F
330
2
100
AcDbEntity
  8
0
 62
    56
100
AcDbLine
 10
1039.388990038443
 20
826.4794700803172
 30
0.0
 11
1039.388990038443
 21
856.1164458592115
 31
0.0
  0
LINE
  5
290
330
2
100
AcDbEntity
  8
0
 62
    56
100
AcDbLine
 10
1042.74302770237
 20
830.9825401507263
 30
0.0
 11
1042.74302770237
 21
850.2702363362281
 31
0.0
  0
LINE
  5
291
330
2
100
AcDbEntity
  8
0
 62
    56
100
AcDbLine
 10
1046.461012423949
 20
836.3555405986202
 30
0.0
 11
1046.461012423949
 21
844.8972358883024
 31
0.0
  0
LINE
  5
292
330
2
100
AcDbEntity
  8
0
 62
    56
370
    20
100
AcDbLine
 10
947.6868372289683
 20
911.4332543979623
 30
0.0
 11
1010.827803089492
 21
911.4332543979623
 31
0.0
  0
LINE
  5
293
330
2
100
AcDbEntity
  8
0
 62
    56
370
    20
100
AcDbLine
 10
1010.827803089492
 20
911.4332543979623
 30
0.0
 11
1010.827803089492
 21
930.5621469768404
 31
0.0
  0
LINE
  5
294
330
2
100
AcDbEntity
  8
0
 62
    56
370
    20
100
AcDbLine
 10
1010.827803089492
 20
930.5621469768404
 30
0.0
 11
947.6868372289683
 21
930.5621469768404
 31
0.0
  0
LINE
  5
295
330
2
100
AcDbEntity
  8
0
 62
    56
370
    20
100
AcDbLine
 10
947.6868372289683
 20
930.5621469768404
 30
0.0
 11
947.6868372289683
 21
911.4332543979623
 31
0.0
  0
LINE
  5
296
330
2
100
AcDbEntity
  8
0
 62
    56
370
    20
100
AcDbLine
 10
942.2925948928883
 20
920.9552148575816
 30
0.0
 11
957.1310260261633
 21
920.9552148575816
 31
0.0
  0
LINE
  5
297
330
2
100
AcDbEntity
  8
0
 62
    56
370
    20
100
AcDbLine
 10
957.1310260261633
 20
914.6058149412926
 30
0.0
 11
957.1310260261633
 21
927.30461477403
 31
0.0
  0
LINE
  5
298
330
2
100
AcDbEntity
  8
0
 62
    56
370
    20
100
AcDbLine
 10
957.1310260261633
 20
927.30461477403
 30
0.0
 11
992.8444137824833
 21
920.9552148575816
 31
0.0
  0
LINE
  5
299
330
2
100
AcDbEntity
  8
0
 62
    56
370
    20
100
AcDbLine
 10
957.1310260261633
 20
914.6058149412926
 30
0.0
 11
992.8444137824833
 21
920.9552148575816
 31
0.0
  0
LINE
  5
29A
330
2
100
AcDbEntity
  8
0
 62
    56
100
AcDbLine
 10
1024.575723114653
 20
921.1158627875423
 30
0.0
 11
1039.425665590903
 21
921.1158627875423
 31
0.0
  0
LINE
  5
29B
330
2
100
AcDbEntity
  8
0
 62
    56
100
AcDbLine
 10
1039.500260175289
 20
906.1358115812897
 30
0.0
 11
1039.500260175289
 21
935.7727873603113
 31
0.0
  0
LINE
  5
29C
330
2
100
AcDbEntity
  8
0
 62
    56
100
AcDbLine
 10
1042.854297839231
 20
910.6388816516666
 30
0.0
 11
1042.854297839231
 21
929.926577837328
 31
0.0
  0
LINE
  5
29D
330
2
100
AcDbEntity
  8
0
 62
    56
100
AcDbLine
 10
1046.572282560815
 20
916.0118820995927
 30
0.0
 11
1046.572282560815
 21
924.5535773894019
 31
0.0
  0
LINE
  5
29E
330
2
100
AcDbEntity
  8
0
 62
    56
100
AcDbLine
 10
800.5989484865619
 20
628.4012180692907
 30
0.0
 11
1085.671855937085
 21
628.4012180692907
 31
0.0
  0
CIRCLE
  5
29F
330
2
100
AcDbEntity
  8
0
 62
   250
370
    30
100
AcDbCircle
 10
1234.582622490346
 20
335.6770914340137
 30
0.0
 40
21.00918010397843
  0
CIRCLE
  5
2A3
330
2
100
AcDbEntity
  8
0
 62
   250
370
    30
100
AcDbCircle
 10
1234.520181007761
 20
395.0848661843843
 30
0.0
 40
21.00918010397843
  0
CIRCLE
  5
2A7
330
2
100
AcDbEntity
  8
0
 62
   250
370
    30
100
AcDbCircle
 10
1234.520181007761
 20
451.7502964421924
 30
0.0
 40
21.00918010397843
  0
CIRCLE
  5
2AB
330
2
100
AcDbEntity
  8
0
 62
   250
370
    30
100
AcDbCircle
 10
1137.685615453919
 20
578.5931509954439
 30
0.0
 40
21.00918010397843
  0
LINE
  5
2AE
330
2
100
AcDbEntity
  8
0
 62
   252
100
AcDbLine
 10
1094.57518754467
 20
261.2888166757517
 30
0.0
 11
1094.57518754467
 21
619.2495115365913
 31
0.0
  0
LINE
  5
2AF
330
2
100
AcDbEntity
  8
0
 62
   252
100
AcDbLine
 10
1094.57518754467
 20
619.2495115365913
 30
0.0
 11
1339.165136360506
 21
619.2495115365913
 31
0.0
  0
LINE
  5
2B0
330
2
100
AcDbEntity
  8
0
 62
   252
100
AcDbLine
 10
1339.165136360506
 20
619.2495115365913
 30
0.0
 11
1339.165136360506
 21
261.2888166757517
 31
0.0
  0
LINE
  5
2B1
330
2
100
AcDbEntity
  8
0
 62
   252
100
AcDbLine
 10
1339.165136360506
 20
261.2888166757517
 30
0.0
 11
1094.57518754467
 21
261.2888166757517
 31
0.0
  0
CIRCLE
  5
2B3
330
2
100
AcDbEntity
  8
0
 62
     1
370
    30
100
AcDbCircle
 10
1234.582622490346
 20
768.358341278077
 30
0.0
 40
21.00918010397843
  0
CIRCLE
  5
2B7
330
2
100
AcDbEntity
  8
0
 62
   250
370
    30
100
AcDbCircle
 10
1234.520181007761
 20
886.8995479778192
 30
0.0
 40
21.00918010397843
  0
LINE
  5
2B8
330
2
100
AcDbEntity
  8
0
 62
   250
370
    30
100
AcDbLine
 10
1221.017559352162
 20
871.3262743741145
 30
0.0
 11
1248.022798577847
 21
902.4728251238176
 31
0.0
  0
LINE
  5
2B9
330
2
100
AcDbEntity
  8
0
 62
   250
370
    30
100
AcDbLine
 10
1234.520181007761
 20
886.8995479778192
 30
0.0
 11
1221.954892414037
 21
903.2384942371871
 31
0.0
  0
LINE
  5
2BA
330
2
100
AcDbEntity
  8
0
 62
   250
370
    30
100
AcDbLine
 10
1234.520181007761
 20
886.8995479778192
 30
0.0
 11
1246.712678770662
 21
870.2805636342517
 31
0.0
  0
LINE
  5
2BB
330
2
100
AcDbEntity
  8
0
 62
   252
100
AcDbLine
 10
1094.57518754467
 20
653.1478911412072
 30
0.0
 11
1094.57518754467
 21
1011.108586001919
 31
0.0
  0
LINE
  5
2BC
330
2
100
AcDbEntity
  8
0
 62
   252
100
AcDbLine
 10
1094.57518754467
 20
1011.108586001919
 30
0.0
 11
1339.165136360506
 21
1011.108586001919
 31
0.0
  0
LINE
  5
2BD
330
2
100
AcDbEntity
  8
0
 62
   252
100
AcDbLine
 10
1339.165136360506
 20
1011.108586001919
 30
0.0
 11
1339.165136360506
 21
653.1478911412075
 31
0.0
  0
LINE
  5
2BE
330
2
100
AcDbEntity
  8
0
 62
   252
100
AcDbLine
 10
1339.165136360506
 20
653.1478911412075
 30
0.0
 11
1094.57518754467
 21
653.1478911412075
 31
0.0
  0
LINE
  5
2C1
330
2
100
AcDbEntity
  8
0
 62
   252
100
AcDbLine
 10
599.7926463441414
 20
796.0172651447789
 30
0.0
 11
636.104935636844
 21
821.9138351143877
 31
0.0
  0
LINE
  5
2C2
330
2
100
AcDbEntity
  8
0
 62
   252
100
AcDbLine
 10
601.6548179111188
 20
811.6557315550569
 30
0.0
 11
633.4979104466635
 21
833.6398903008328
 31
0.0
  0
LINE
  5
2C4
330
2
100
AcDbEntity
  8
0
 62
   252
100
AcDbLine
 10
636.2000600586878
 20
849.2813438231047
 30
0.0
 11
599.4059293878438
 21
824.0740703083114
 31
0.0
  0
LINE
  5
2C6
330
2
100
AcDbEntity
  8
0
 62
   252
100
AcDbLine
 10
659.3275608998866
 20
796.0172651447784
 30
0.0
 11
695.6398501925906
 21
821.9138351143874
 31
0.0
  0
LINE
  5
2C7
330
2
100
AcDbEntity
  8
0
 62
   252
100
AcDbLine
 10
661.1897324668648
 20
811.6557315550567
 30
0.0
 11
693.0328250024127
 21
833.6398903008332
 31
0.0
  0
LINE
  5
2C9
330
2
100
AcDbEntity
  8
0
 62
   252
100
AcDbLine
 10
695.734974614433
 20
849.2813438230722
 30
0.0
 11
658.9408439435697
 21
824.0740703082797
 31
0.0
  0
ARC
  5
2CA
330
2
100
AcDbEntity
  8
0
 62
    18
370
     0
100
AcDbCircle
 10
1139.286453494253
 20
767.3453875379626
 30
0.0
 40
14.46431580258922
100
AcDbArc
 50
96.35583041835197
 51
263.644169581648
  0
LINE
  5
2CB
330
2
100
AcDbEntity
  8
0
 62
    18
370
     0
100
AcDbLine
 10
1137.685213251165
 20
752.9699758457857
 30
0.0
 11
1151.510053583306
 21
752.9699758457857
 31
0.0
  0
LINE
  5
2CC
330
2
100
AcDbEntity
  8
0
 62
    18
370
     0
100
AcDbLine
 10
1137.685213251165
 20
781.7207992301703
 30
0.0
 11
1151.510053583306
 21
781.7207992301703
 31
0.0
  0
LINE
  5
2CD
330
2
100
AcDbEntity
  8
0
 62
    18
370
     0
100
AcDbLine
 10
1151.510053583306
 20
747.2938776490585
 30
0.0
 11
1151.510053583306
 21
787.4255459526518
 31
0.0
  0
LINE
  5
2CE
330
2
100
AcDbEntity
  8
0
 62
    18
370
     0
100
AcDbLine
 10
1151.510053583306
 20
747.2938776490585
 30
0.0
 11
1178.172928851987
 21
747.2938776490585
 31
0.0
  0
LINE
  5
2CF
330
2
100
AcDbEntity
  8
0
 62
    18
370
     0
100
AcDbLine
 10
1178.172928851987
 20
747.2938776490585
 30
0.0
 11
1178.172928851987
 21
787.4255459526518
 31
0.0
  0
LINE
  5
2D0
330
2
100
AcDbEntity
  8
0
 62
    18
370
     0
100
AcDbLine
 10
1178.172928851987
 20
787.4255459526518
 30
0.0
 11
1151.510053583306
 21
787.4255459526518
 31
0.0
  0
ARC
  5
2D1
330
2
100
AcDbEntity
  8
0
 62
    88
100
AcDbCircle
 10
1139.003241827325
 20
858.899169573338
 30
0.0
 40
14.46431580258922
100
AcDbArc
 50
96.35583041835197
 51
263.644169581648
  0
LINE
  5
2D2
330
2
100
AcDbEntity
  8
0
 62
    88
100
AcDbLine
 10
1137.402001584215
 20
873.421985177711
 30
0.0
 11
1151.226841916377
 21
873.421985177711
 31
0.0
  0
LINE
  5
2D3
330
2
100
AcDbEntity
  8
0
 62
    88
100
AcDbLine
 10
1151.226841916377
 20
867.7458869808249
 30
0.0
 11
1151.226841916377
 21
907.8775552845764
 31
0.0
  0
LINE
  5
2D4
330
2
100
AcDbEntity
  8
0
 62
    88
100
AcDbLine
 10
1151.226841916377
 20
867.7458869808249
 30
0.0
 11
1177.88971718507
 21
867.7458869808249
 31
0.0
  0
LINE
  5
2D5
330
2
100
AcDbEntity
  8
0
 62
    88
100
AcDbLine
 10
1177.88971718507
 20
867.7458869808249
 30
0.0
 11
1177.889717185057
 21
907.8775552845764
 31
0.0
  0
LINE
  5
2D6
330
2
100
AcDbEntity
  8
0
 62
    88
100
AcDbLine
 10
1177.88971718507
 20
907.8775552845764
 30
0.0
 11
1151.226841916377
 21
907.8775552845764
 31
0.0
  0
LINE
  5
2D7
330
2
100
AcDbEntity
  8
0
 62
   250
370
    30
100
AcDbLine
 10
665.8807654987732
 20
907.4940630177801
 30
0.0
 11
665.8807654987732
 21
945.7800229854225
 31
0.0
  0
LINE
  5
2D8
330
2
100
AcDbEntity
  8
0
 62
   250
370
    30
100
AcDbLine
 10
665.8807654987732
 20
945.7800229854225
 30
0.0
 11
689.6916630852606
 21
945.7800229854225
 31
0.0
  0
LINE
  5
2D9
330
2
100
AcDbEntity
  8
0
 62
   250
370
    30
100
AcDbLine
 10
689.6916630852606
 20
945.7800229854225
 30
0.0
 11
689.6916630852606
 21
907.4940630177801
 31
0.0
  0
LINE
  5
2DA
330
2
100
AcDbEntity
  8
0
 62
   250
370
    30
100
AcDbLine
 10
689.6916630852606
 20
907.4940630177801
 30
0.0
 11
665.8807654987732
 21
907.4940630177801
 31
0.0
  0
LINE
  5
2DB
330
2
100
AcDbEntity
  8
TOPOVERLAY
  6
Continuous
 62
     3
370
    30
100
AcDbLine
 10
606.3458509430277
 20
907.4940630177803
 30
0.0
 11
606.3458509430277
 21
945.7800229852642
 31
0.0
  0
LINE
  5
2DC
330
2
100
AcDbEntity
  8
TOPOVERLAY
  6
Continuous
 62
     3
370
    30
100
AcDbLine
 10
606.3458509430277
 20
945.7800229852642
 30
0.0
 11
630.1567485295541
 21
945.7800229852642
 31
0.0
  0
LINE
  5
2DD
330
2
100
AcDbEntity
  8
TOPOVERLAY
  6
Continuous
 62
     3
370
    30
100
AcDbLine
 10
630.1567485295541
 20
945.7800229852642
 30
0.0
 11
630.1567485295541
 21
907.4940630177803
 31
0.0
  0
LINE
  5
2DE
330
2
100
AcDbEntity
  8
TOPOVERLAY
  6
Continuous
 62
     3
370
    30
100
AcDbLine
 10
630.1567485295541
 20
907.4940630177803
 30
0.0
 11
606.3458509430277
 21
907.4940630177803
 31
0.0
  0
LINE
  5
2E0
330
2
100
AcDbEntity
  8
0
 62
   252
100
AcDbLine
 10
1176.401910468062
 20
557.2303403402433
 30
0.0
 11
1176.401910468062
 21
601.3235525283021
 31
0.0
  0
LINE
  5
2E1
330
2
100
AcDbEntity
  8
0
 62
   252
100
AcDbLine
 10
1176.401910468062
 20
601.3235525283021
 30
0.0
 11
1211.659521838679
 21
601.3235525283021
 31
0.0
  0
LINE
  5
2E2
330
2
100
AcDbEntity
  8
0
 62
   252
100
AcDbLine
 10
1211.659521838679
 20
601.3235525283021
 30
0.0
 11
1211.659521838679
 21
557.2303403402433
 31
0.0
  0
LINE
  5
2E3
330
2
100
AcDbEntity
  8
0
 62
   252
100
AcDbLine
 10
1211.659521838679
 20
557.2303403402433
 30
0.0
 11
1176.401910468062
 21
557.2303403402433
 31
0.0
  0
LINE
  5
2E6
330
2
100
AcDbEntity
  8
0
 62
   250
370
   100
100
AcDbLine
 10
527.8635948504152
 20
628.2835470220474
 30
0.0
 11
587.9718373885777
 21
628.2835470220474
 31
0.0
  0
LINE
  5
2E7
330
2
100
AcDbEntity
  8
TOPOVERLAY
  6
Continuous
 62
   250
370
   100
100
AcDbLine
 10
541.4356581651294
 20
585.0814711308552
 30
0.0
 11
587.6442963840311
 21
614.4695149158027
 31
0.0
  0
LINE
  5
2EA
330
2
100
AcDbEntity
  8
0
 62
   250
370
   100
100
AcDbLine
 10
950.2989489221251
 20
845.5916548606225
 30
0.0
 11
1012.039857522575
 21
845.5916548606225
 31
0.0
  0
LINE
  5
2EB
330
2
100
AcDbEntity
  8
TOPOVERLAY
  6
Continuous
 62
     3
370
   100
100
AcDbLine
 10
969.3382320053286
 20
803.5084767944718
 30
0.0
 11
1011.712316518024
 21
830.4615642773709
 31
0.0
  0
LINE
  5
2ED
330
2
100
AcDbEntity
  8
0
 62
    56
100
AcDbLine
 10
487.2596160318638
 20
616.2796927904357
 30
0.0
 11
511.5368865155466
 21
640.4371014782914
 31
0.0
  0
LINE
  5
2EE
330
2
100
AcDbEntity
  8
0
 62
    56
100
AcDbLine
 10
487.2596160318638
 20
640.4371014782914
 30
0.0
 11
511.5368865155466
 21
616.2796927904357
 31
0.0
  0
LINE
  5
2EF
330
2
100
AcDbEntity
  8
0
 62
    56
100
AcDbLine
 10
646.6388714719157
 20
640.4799224132188
 30
0.0
 11
670.9161419555982
 21
616.3225137253627
 31
0.0
  0
LINE
  5
2F0
330
2
100
AcDbEntity
  8
0
 62
    56
100
AcDbLine
 10
646.6388714719157
 20
616.3225137253627
 30
0.0
 11
670.9161419555982
 21
640.4799224132188
 31
0.0
  0
LINE
  5
34E
330
2
100
AcDbEntity
  8
TOPOVERLAY
  6
Continuous
 62
   250
370
   100
100
AcDbLine
 10
402.8918988683551
 20
615.0891707921307
 30
0.0
 11
402.8918988683551
 21
581.2038389636446
 31
0.0
  0
LINE
  5
34F
330
2
100
AcDbEntity
  8
0
 62
   250
370
   100
100
AcDbLine
 10
369.3976333107765
 20
628.4012180692907
 30
0.0
 11
389.5796502072763
 21
628.4012180692907
 31
0.0
  0
LINE
  5
350
330
2
100
AcDbEntity
  8
0
 62
   250
370
   100
100
AcDbLine
 10
355.6943183798837
 20
628.4012180692907
 30
0.0
 11
389.5796502072763
 21
628.4012180692907
 31
0.0
  0
LINE
  5
351
330
2
100
AcDbEntity
  8
0
 62
   250
370
   100
100
AcDbLine
 10
416.2037447646424
 20
628.4012180692907
 30
0.0
 11
439.2980590427089
 21
628.4012180692907
 31
0.0
  0
LINE
  5
352
330
2
100
AcDbEntity
  8
0
 62
   250
370
   100
100
AcDbLine
 10
416.2037447646424
 20
628.4012180692907
 30
0.0
 11
450.0890765920352
 21
628.4012180692907
 31
0.0
  0
LINE
  5
353
330
2
100
AcDbEntity
  8
TOPOVERLAY
  6
Continuous
 62
   250
370
   100
100
AcDbLine
 10
402.8918988683551
 20
641.7132653464506
 30
0.0
 11
402.8918988683551
 21
675.5985971749367
 31
0.0
  0
LINE
  5
3A7
330
2
100
AcDbEntity
  8
0
 62
    56
100
AcDbLine
 10
314.6906252757422
 20
628.4012180692907
 30
0.0
 11
294.9734384654401
 21
628.4005129031984
 31
0.0
  0
MTEXT
  5
41F
330
2
100
AcDbEntity
  8
0
100
AcDbMText
 10
178.1088203111944
 20
165.4714462935649
 30
0.0
 40
30.0
 41
3011.936264869754
 71
     1
 72
     5
  1
ORT400
 11
0.0000000000000001
 21
1.0
 31
0.0
 73
     1
 44
1.0
1001
ACAD
1000
MTEXTBEGIN
1070
    73
1070
     1
1070
    44
1040
1.0
1070
    74
1070
     0
1000
MTEXTEND
  0
LINE
  5
4D4
330
2
100
AcDbEntity
  8
0
 62
     1
370
    30
100
AcDbLine
 10
1234.582624533102
 20
768.3583395069299
 30
0.0
 11
1246.775122296003
 21
751.7393551633626
 31
0.0
  0
LINE
  5
4D5
330
2
100
AcDbEntity
  8
0
 62
     1
370
    30
100
AcDbLine
 10
1234.582624533102
 20
768.3583395069299
 30
0.0
 11
1222.017335939378
 21
784.697285766298
 31
0.0
  0
LINE
  5
4D6
330
2
100
AcDbEntity
  8
0
 62
     1
370
    30
100
AcDbLine
 10
1221.080002877503
 20
752.7850659032252
 30
0.0
 11
1248.085242103188
 21
783.9316166529283
 31
0.0
  0
LINE
  5
4D7
330
2
100
AcDbEntity
  8
0
 62
   250
370
    30
100
AcDbLine
 10
1124.182995841076
 20
563.0198756205922
 30
0.0
 11
1151.188235066761
 21
594.1664263702953
 31
0.0
  0
LINE
  5
4D8
330
2
100
AcDbEntity
  8
0
 62
   250
370
    30
100
AcDbLine
 10
1137.685617496675
 20
578.593149224297
 30
0.0
 11
1125.12032890295
 21
594.9320954836649
 31
0.0
  0
LINE
  5
4D9
330
2
100
AcDbEntity
  8
0
 62
   250
370
    30
100
AcDbLine
 10
1137.685617496675
 20
578.593149224297
 30
0.0
 11
1149.878115259576
 21
561.9741648807295
 31
0.0
  0
LINE
  5
4DA
330
2
100
AcDbEntity
  8
0
 62
   250
370
    30
100
AcDbLine
 10
1221.017561394918
 20
436.1770210673407
 30
0.0
 11
1248.022800620603
 21
467.3235718170438
 31
0.0
  0
LINE
  5
4DB
330
2
100
AcDbEntity
  8
0
 62
   250
370
    30
100
AcDbLine
 10
1234.520183050517
 20
451.7502946710455
 30
0.0
 11
1221.954894456793
 21
468.0892409304131
 31
0.0
  0
LINE
  5
4DC
330
2
100
AcDbEntity
  8
0
 62
   250
370
    30
100
AcDbLine
 10
1234.520183050517
 20
451.7502946710455
 30
0.0
 11
1246.712680813418
 21
435.131310327478
 31
0.0
  0
LINE
  5
4DD
330
2
100
AcDbEntity
  8
0
 62
   250
370
    30
100
AcDbLine
 10
1221.017561394918
 20
379.5115908095326
 30
0.0
 11
1248.022800620603
 21
410.6581415592358
 31
0.0
  0
LINE
  5
4DE
330
2
100
AcDbEntity
  8
0
 62
   250
370
    30
100
AcDbLine
 10
1234.520183050517
 20
395.0848644132374
 30
0.0
 11
1221.954894456793
 21
411.4238106726054
 31
0.0
  0
LINE
  5
4DF
330
2
100
AcDbEntity
  8
0
 62
   250
370
    30
100
AcDbLine
 10
1234.520183050517
 20
395.0848644132374
 30
0.0
 11
1246.712680813418
 21
378.4658800696699
 31
0.0
  0
LINE
  5
4E0
330
2
100
AcDbEntity
  8
0
 62
   250
370
    30
100
AcDbLine
 10
1221.080002877503
 20
320.103816059162
 30
0.0
 11
1248.085242103188
 21
351.2503668088652
 31
0.0
  0
LINE
  5
4E1
330
2
100
AcDbEntity
  8
0
 62
   250
370
    30
100
AcDbLine
 10
1234.582624533102
 20
335.6770896628668
 30
0.0
 11
1222.017335939378
 21
352.0160359222348
 31
0.0
  0
LINE
  5
4E2
330
2
100
AcDbEntity
  8
0
 62
   250
370
    30
100
AcDbLine
 10
1234.582624533102
 20
335.6770896628668
 30
0.0
 11
1246.775122296003
 21
319.0581053192993
 31
0.0
  0
LINE
  5
4E3
330
2
100
AcDbEntity
  8
0
 62
   250
370
    30
100
AcDbLine
 10
989.9526532609682
 20
435.4398263182958
 30
0.0
 11
1016.957892486653
 21
466.5863770679991
 31
0.0
  0
LINE
  5
4E4
330
2
100
AcDbEntity
  8
0
 62
   250
370
    30
100
AcDbLine
 10
1003.455274916567
 20
451.0130999220006
 30
0.0
 11
990.8899863228434
 21
467.3520461813687
 31
0.0
  0
LINE
  5
4E5
330
2
100
AcDbEntity
  8
0
 62
   250
370
    30
100
AcDbLine
 10
1003.455274916567
 20
451.0130999220006
 30
0.0
 11
1015.647772679468
 21
434.3941155784332
 31
0.0
  0
LINE
  5
4E6
330
2
100
AcDbEntity
  8
0
 62
   250
370
    30
100
AcDbLine
 10
989.9526532609682
 20
378.7743960606472
 30
0.0
 11
1016.957892486653
 21
409.92094681035
 31
0.0
  0
LINE
  5
4E7
330
2
100
AcDbEntity
  8
0
 62
   250
370
    30
100
AcDbLine
 10
1003.455274916567
 20
394.3476696643519
 30
0.0
 11
990.8899863228434
 21
410.6866159237197
 31
0.0
  0
LINE
  5
4E8
330
2
100
AcDbEntity
  8
0
 62
   250
370
    30
100
AcDbLine
 10
1003.455274916567
 20
394.3476696643519
 30
0.0
 11
1015.647772679468
 21
377.7286853207844
 31
0.0
  0
LINE
  5
4E9
330
2
100
AcDbEntity
  8
0
 62
     1
370
    30
100
AcDbLine
 10
990.0150947435792
 20
319.3666213102447
 30
0.0
 11
1017.020333969264
 21
350.5131720599478
 31
0.0
  0
LINE
  5
4EA
330
2
100
AcDbEntity
  8
0
 62
     1
370
    30
100
AcDbLine
 10
1003.517716399178
 20
334.9398949139493
 30
0.0
 11
990.9524278054542
 21
351.2788411733175
 31
0.0
  0
LINE
  5
4EB
330
2
100
AcDbEntity
  8
0
 62
     1
370
    30
100
AcDbLine
 10
1003.517716399178
 20
334.9398949139493
 30
0.0
 11
1015.710214162079
 21
318.3209105703819
 31
0.0
  0
LINE
  5
5FE
330
2
100
AcDbEntity
  8
TOPOVERLAY
  6
Continuous
 62
   250
370
   100
100
AcDbLine
 10
732.0778698662016
 20
615.0891707921307
 30
0.0
 11
732.0778698662013
 21
581.2038389636446
 31
0.0
  0
LINE
  5
5FF
330
2
100
AcDbEntity
  8
0
 62
   250
370
   100
100
AcDbLine
 10
684.8802893777299
 20
628.4012180692907
 30
0.0
 11
718.7656212051225
 21
628.4012180692907
 31
0.0
  0
LINE
  5
600
330
2
100
AcDbEntity
  8
0
 62
   250
370
   100
100
AcDbLine
 10
698.5836043086227
 20
628.4012180692907
 30
0.0
 11
718.7656212051225
 21
628.4012180692907
 31
0.0
  0
LINE
  5
601
330
2
100
AcDbEntity
  8
TOPOVERLAY
  6
Continuous
 62
   250
370
   100
100
AcDbLine
 10
732.0778698662016
 20
641.7132653464506
 30
0.0
 11
732.0778698662013
 21
675.5985971749367
 31
0.0
  0
LINE
  5
602
330
2
100
AcDbEntity
  8
0
 62
   250
370
   100
100
AcDbLine
 10
745.3897157624886
 20
628.4012180692907
 30
0.0
 11
779.2750475898814
 21
628.4012180692907
 31
0.0
  0
LINE
  5
603
330
2
100
AcDbEntity
  8
0
 62
   250
370
   100
100
AcDbLine
 10
745.3897157624886
 20
628.4012180692907
 30
0.0
 11
768.4840300405551
 21
628.4012180692907
 31
0.0
  0
ARC
  5
690
330
2
100
AcDbEntity
  8
0
 62
   252
100
AcDbCircle
 10
617.8764404623666
 20
856.3992904409591
 30
0.0
 40
19.88045606348704
100
AcDbArc
 50
162.0486963503322
 51
20.11213206675568
  0
ARC
  5
6A3
330
2
100
AcDbEntity
  8
0
 62
   252
100
AcDbCircle
 10
618.2472219321501
 20
789.2460880659657
 30
0.0
 40
19.88045606348704
100
AcDbArc
 50
340.9682821417888
 51
199.0317178582113
  0
ARC
  5
6A4
330
2
100
AcDbEntity
  8
0
 62
   252
100
AcDbCircle
 10
677.4113550180925
 20
856.3992904409273
 30
0.0
 40
19.88045606348704
100
AcDbArc
 50
162.0486963503322
 51
20.11213206675568
  0
ARC
  5
6A5
330
2
100
AcDbEntity
  8
0
 62
   252
100
AcDbCircle
 10
677.7821364878757
 20
789.2460880659341
 30
0.0
 40
19.88045606348704
100
AcDbArc
 50
340.9682821417888
 51
199.0317178582113
  0
LINE
  5
733
330
2
100
AcDbEntity
  8
0
100
AcDbLine
 10
785.6482549971706
 20
1013.206254290344
 30
0.0
 11
960.3567536550215
 21
426.5183347411025
 31
0.0
  0
LINE
  5
734
330
2
100
AcDbEntity
  8
0
100
AcDbLine
 10
1169.6377440746
 20
840.650738063462
 30
0.0
 11
785.6482549971706
 21
1013.206254290344
 31
0.0
  0
LINE
  5
737
330
2
100
AcDbEntity
  8
0
100
AcDbLine
 10
960.3567536550215
 20
426.5183347411025
 30
0.0
 11
918.9828648361142
 21
461.3245353585134
 31
0.0
  0
LINE
  5
738
330
2
100
AcDbEntity
  8
0
100
AcDbLine
 10
960.3567536550215
 20
426.5183347411025
 30
0.0
 11
962.7068156388704
 21
481.7203036610626
 31
0.0
  0
LINE
  5
739
330
2
100
AcDbEntity
  8
0
100
AcDbLine
 10
1169.6377440746
 20
840.650738063462
 30
0.0
 11
1154.828345296952
 21
864.0105912911279
 31
0.0
  0
LINE
  5
73A
330
2
100
AcDbEntity
  8
0
100
AcDbLine
 10
1169.6377440746
 20
840.650738063462
 30
0.0
 11
1146.254478829105
 21
831.3067955637452
 31
0.0
  0
LINE
  5
9C1
330
2
100
AcDbEntity
  8
6-家具-143
 62
   143
100
AcDbLine
 10
740.2934094718686
 20
1022.031906712168
 30
0.0
 11
740.7494613376707
 21
1014.057817100288
 31
0.0
  0
LINE
  5
9C2
330
2
100
AcDbEntity
  8
6-家具-143
 62
   143
100
AcDbLine
 10
740.0653835389557
 20
1024.993711425151
 30
0.0
 11
740.2934094718686
 21
1022.031906712168
 31
0.0
  0
LINE
  5
9C3
330
2
100
AcDbEntity
  8
6-家具-143
 62
   143
100
AcDbLine
 10
761.0437693659825
 20
1013.14649257322
 30
0.0
 11
760.5877175001689
 21
1019.753595394498
 31
0.0
  0
LINE
  5
9C4
330
2
100
AcDbEntity
  8
6-家具-143
 62
   143
100
AcDbLine
 10
760.8157434330816
 20
1006.995052015476
 30
0.0
 11
761.0437693659825
 21
1013.14649257322
 31
0.0
  0
LINE
  5
9C5
330
2
100
AcDbEntity
  8
6-家具-143
 62
   143
100
AcDbLine
 10
756.4832507079263
 20
1000.387949194197
 30
0.0
 11
760.8157434330816
 21
1006.995052015476
 31
0.0
  0
LINE
  5
9C6
330
2
100
AcDbEntity
  8
6-家具-143
 62
   143
100
AcDbLine
 10
751.0106283182771
 20
994.0086775046745
 30
0.0
 11
756.4832507079263
 21
1000.387949194197
 31
0.0
  0
LINE
  5
9C7
330
2
100
AcDbEntity
  8
6-家具-143
 62
   143
100
AcDbLine
 10
777.461636534953
 20
994.4643397682085
 30
0.0
 11
777.9176884007553
 21
991.5025350552257
 31
0.0
  0
LINE
  5
9C8
330
2
100
AcDbEntity
  8
6-家具-143
 62
   143
100
AcDbLine
 10
775.6374290717327
 20
997.8818067447486
 30
0.0
 11
777.461636534953
 21
994.4643397682085
 31
0.0
  0
LINE
  5
9C9
330
2
100
AcDbEntity
  8
6-家具-143
 62
   143
100
AcDbLine
 10
773.1291438098091
 20
1000.615780325953
 30
0.0
 11
775.6374290717327
 21
997.8818067447486
 31
0.0
  0
LINE
  5
9CA
330
2
100
AcDbEntity
  8
6-家具-143
 62
   143
100
AcDbLine
 10
770.8488844807752
 20
1004.944571829561
 30
0.0
 11
773.1291438098091
 21
1000.615780325953
 31
0.0
  0
LINE
  5
9CB
330
2
100
AcDbEntity
  8
6-家具-143
 62
   143
100
AcDbLine
 10
770.8488844807752
 20
1011.32384351906
 30
0.0
 11
770.8488844807752
 21
1004.944571829561
 31
0.0
  0
LINE
  5
9CC
330
2
100
AcDbEntity
  8
6-家具-143
 62
   143
100
AcDbLine
 10
769.9367807491709
 20
1014.741310495601
 30
0.0
 11
770.8488844807752
 21
1011.32384351906
 31
0.0
  0
LINE
  5
9CD
330
2
100
AcDbEntity
  8
6-家具-143
 62
   143
100
AcDbLine
 10
768.796651084654
 20
1019.52576426272
 30
0.0
 11
769.9367807491709
 21
1014.741310495601
 31
0.0
  0
LINE
  5
9CE
330
2
100
AcDbEntity
  8
6-家具-143
 62
   143
100
AcDbLine
 10
778.3737402665574
 20
1040.030566121867
 30
0.0
 11
780.6539995955796
 21
1046.865500074901
 31
0.0
  0
LINE
  5
9CF
330
2
100
AcDbEntity
  8
6-家具-143
 62
   143
100
AcDbLine
 10
778.8297921323594
 20
1029.550334060515
 30
0.0
 11
778.3737402665574
 21
1040.030566121867
 31
0.0
  0
LINE
  5
9D0
330
2
100
AcDbEntity
  8
6-家具-143
 62
   143
100
AcDbLine
 10
778.8297921323594
 20
1023.39889350277
 30
0.0
 11
778.8297921323594
 21
1029.550334060515
 31
0.0
  0
LINE
  5
9D1
330
2
100
AcDbEntity
  8
6-家具-143
 62
   143
100
AcDbLine
 10
778.8297921323594
 20
1017.703115208583
 30
0.0
 11
778.8297921323594
 21
1023.39889350277
 31
0.0
  0
LINE
  5
9D2
330
2
100
AcDbEntity
  8
6-家具-143
 62
   143
100
AcDbLine
 10
778.145714333656
 20
1010.868181255526
 30
0.0
 11
778.8297921323594
 21
1017.703115208583
 31
0.0
  0
LINE
  5
9D3
330
2
100
AcDbEntity
  8
6-家具-143
 62
   143
100
AcDbLine
 10
778.145714333656
 20
1003.805416170714
 30
0.0
 11
778.145714333656
 21
1010.868181255526
 31
0.0
  0
LINE
  5
9D4
330
2
100
AcDbEntity
  8
6-家具-143
 62
   143
100
AcDbLine
 10
777.2336106020519
 20
994.9200020317425
 30
0.0
 11
778.145714333656
 21
1003.805416170714
 31
0.0
  0
LINE
  5
9D5
330
2
100
AcDbEntity
  8
6-家具-143
 62
   143
100
AcDbLine
 10
779.6436689694088
 20
999.9953784924207
 30
0.0
 11
780.4224652384784
 21
996.4937892251853
 31
0.0
  0
LINE
  5
9D6
330
2
100
AcDbEntity
  8
6-家具-143
 62
   143
100
AcDbLine
 10
778.215875809433
 20
1003.237590776893
 30
0.0
 11
779.6436689694088
 21
999.9953784924207
 31
0.0
  0
LINE
  5
9D7
330
2
100
AcDbEntity
  8
6-家具-143
 62
   143
100
AcDbLine
 10
752.6068098485962
 20
1023.39889350277
 30
0.0
 11
755.1150951105198
 21
1024.765880293396
 31
0.0
  0
LINE
  5
9D8
330
2
100
AcDbEntity
  8
6-家具-143
 62
   143
100
AcDbLine
 10
749.1864208550569
 20
1023.171062371015
 30
0.0
 11
752.6068098485962
 21
1023.39889350277
 31
0.0
  0
LINE
  5
9D9
330
2
100
AcDbEntity
  8
6-家具-143
 62
   143
100
AcDbLine
 10
743.257746599594
 20
1023.171062371015
 30
0.0
 11
749.1864208550569
 21
1023.171062371015
 31
0.0
  0
LINE
  5
9DA
330
2
100
AcDbEntity
  8
6-家具-143
 62
   143
100
AcDbLine
 10
740.2934094718686
 20
1025.449373688685
 30
0.0
 11
743.257746599594
 21
1023.171062371015
 31
0.0
  0
LINE
  5
9DB
330
2
100
AcDbEntity
  8
6-家具-143
 62
   143
100
AcDbLine
 10
736.4169686125268
 20
1028.866840665225
 30
0.0
 11
740.2934094718686
 21
1025.449373688685
 31
0.0
  0
LINE
  5
9DC
330
2
100
AcDbEntity
  8
6-家具-143
 62
   143
100
AcDbLine
 10
733.4526314847896
 20
1033.651294432344
 30
0.0
 11
736.4169686125268
 21
1028.866840665225
 31
0.0
  0
LINE
  5
9DD
330
2
100
AcDbEntity
  8
6-家具-143
 62
   143
100
AcDbLine
 10
732.9965796189876
 20
1045.726344416054
 30
0.0
 11
733.4526314847896
 21
1033.651294432344
 31
0.0
  0
LINE
  5
9DE
330
2
100
AcDbEntity
  8
6-家具-143
 62
   143
100
AcDbLine
 10
734.3647352164057
 20
1056.206576477407
 30
0.0
 11
732.9965796189876
 21
1045.726344416054
 31
0.0
  0
LINE
  5
9DF
330
2
100
AcDbEntity
  8
6-家具-143
 62
   143
100
AcDbLine
 10
737.3290723441312
 20
1060.76319911277
 30
0.0
 11
734.3647352164057
 21
1056.206576477407
 31
0.0
  0
LINE
  5
9E0
330
2
100
AcDbEntity
  8
6-家具-143
 62
   143
100
AcDbLine
 10
742.1176169350768
 20
1062.358017035151
 30
0.0
 11
737.3290723441312
 21
1060.76319911277
 31
0.0
  0
LINE
  5
9E1
330
2
100
AcDbEntity
  8
6-家具-143
 62
   143
100
AcDbLine
 10
748.0462911905398
 20
1064.408497221066
 30
0.0
 11
742.1176169350768
 21
1062.358017035151
 31
0.0
  0
LINE
  5
9E2
330
2
100
AcDbEntity
  8
6-家具-143
 62
   143
100
AcDbLine
 10
752.1507579827826
 20
1066.686808538736
 30
0.0
 11
748.0462911905398
 21
1064.408497221066
 31
0.0
  0
LINE
  5
9E3
330
2
100
AcDbEntity
  8
6-家具-143
 62
   143
100
AcDbLine
 10
778.3737402665574
 20
1003.577585038936
 30
0.0
 11
777.689662467854
 21
1003.577585038936
 31
0.0
  0
LINE
  5
9E4
330
2
100
AcDbEntity
  8
6-家具-143
 62
   143
100
AcDbLine
 10
779.0578180652605
 20
1003.577585038936
 30
0.0
 11
778.3737402665574
 21
1003.577585038936
 31
0.0
  0
LINE
  5
9E5
330
2
100
AcDbEntity
  8
6-家具-143
 62
   143
100
AcDbLine
 10
779.5138699310741
 20
1007.45071427901
 30
0.0
 11
779.0578180652605
 21
1003.577585038936
 31
0.0
  0
LINE
  5
9E6
330
2
100
AcDbEntity
  8
6-家具-143
 62
   143
100
AcDbLine
 10
780.4259736626788
 20
1007.906376542543
 30
0.0
 11
779.5138699310741
 21
1007.45071427901
 31
0.0
  0
LINE
  5
9E7
330
2
100
AcDbEntity
  8
6-家具-143
 62
   143
100
AcDbLine
 10
784.3024145220201
 20
1030.005996324049
 30
0.0
 11
780.4259736626788
 21
1007.906376542543
 31
0.0
  0
LINE
  5
9E8
330
2
100
AcDbEntity
  8
6-家具-143
 62
   143
100
AcDbLine
 10
784.530440454921
 20
1032.512138773497
 30
0.0
 11
784.3024145220201
 21
1030.005996324049
 31
0.0
  0
LINE
  5
9E9
330
2
100
AcDbEntity
  8
6-家具-143
 62
   143
100
AcDbLine
 10
783.8463626562179
 20
1040.486228385401
 30
0.0
 11
784.530440454921
 21
1032.512138773497
 31
0.0
  0
LINE
  5
9EA
330
2
100
AcDbEntity
  8
6-家具-143
 62
   143
100
AcDbLine
 10
784.9864923207231
 20
1051.422122710265
 30
0.0
 11
783.8463626562179
 21
1040.486228385401
 31
0.0
  0
LINE
  5
9EB
330
2
100
AcDbEntity
  8
6-家具-143
 62
   143
100
AcDbLine
 10
783.1622848575031
 20
1057.117901004475
 30
0.0
 11
784.9864923207231
 21
1051.422122710265
 31
0.0
  0
LINE
  5
9EC
330
2
100
AcDbEntity
  8
6-家具-143
 62
   143
100
AcDbLine
 10
781.110051461382
 20
1060.079705717458
 30
0.0
 11
783.1622848575031
 21
1057.117901004475
 31
0.0
  0
LINE
  5
9ED
330
2
100
AcDbEntity
  8
6-家具-143
 62
   143
100
AcDbLine
 10
778.6017661994584
 20
1061.902354771617
 30
0.0
 11
781.110051461382
 21
1060.079705717458
 31
0.0
  0
LINE
  5
9EE
330
2
100
AcDbEntity
  8
6-家具-143
 62
   143
100
AcDbLine
 10
773.8132216085126
 20
1063.952834957532
 30
0.0
 11
778.6017661994584
 21
1061.902354771617
 31
0.0
  0
LINE
  5
9EF
330
2
100
AcDbEntity
  8
6-家具-143
 62
   143
100
AcDbLine
 10
768.796651084654
 20
1066.914639670515
 30
0.0
 11
773.8132216085126
 21
1063.952834957532
 31
0.0
  0
LINE
  5
9F0
330
2
100
AcDbEntity
  8
6-家具-143
 62
   143
100
AcDbLine
 10
770.3928326149731
 20
1026.588529347532
 30
0.0
 11
769.9367807491709
 21
1024.310218029862
 31
0.0
  0
LINE
  5
9F1
330
2
100
AcDbEntity
  8
6-家具-143
 62
   143
100
AcDbLine
 10
772.4450660110944
 20
1036.385268013572
 30
0.0
 11
770.3928326149731
 21
1026.588529347532
 31
0.0
  0
LINE
  5
9F2
330
2
100
AcDbEntity
  8
6-家具-143
 62
   143
100
AcDbLine
 10
775.8654550046339
 20
1048.915980260816
 30
0.0
 11
772.4450660110944
 21
1036.385268013572
 31
0.0
  0
LINE
  5
9F3
330
2
100
AcDbEntity
  8
6-家具-143
 62
   143
100
AcDbLine
 10
778.3737402665574
 20
1055.978745345628
 30
0.0
 11
775.8654550046339
 21
1048.915980260816
 31
0.0
  0
LINE
  5
9F4
330
2
100
AcDbEntity
  8
6-家具-143
 62
   143
100
AcDbLine
 10
775.1813772059306
 20
1058.257056663322
 30
0.0
 11
778.3737402665574
 21
1055.978745345628
 31
0.0
  0
LINE
  5
9F5
330
2
100
AcDbEntity
  8
6-家具-143
 62
   143
100
AcDbLine
 10
777.689662467854
 20
1060.079705717458
 30
0.0
 11
775.1813772059306
 21
1058.257056663322
 31
0.0
  0
LINE
  5
9F6
330
2
100
AcDbEntity
  8
6-家具-143
 62
   143
100
AcDbLine
 10
774.7253253401168
 20
1063.497172693998
 30
0.0
 11
777.689662467854
 21
1060.079705717458
 31
0.0
  0
LINE
  5
9F7
330
2
100
AcDbEntity
  8
6-家具-143
 62
   143
100
AcDbLine
 10
765.3762620911262
 20
1016.108297286203
 30
0.0
 11
761.727847164686
 21
1019.981426526253
 31
0.0
  0
LINE
  5
9F8
330
2
100
AcDbEntity
  8
6-家具-143
 62
   143
100
AcDbLine
 10
770.3928326149731
 20
1021.348413316856
 30
0.0
 11
765.3762620911262
 21
1016.108297286203
 31
0.0
  0
LINE
  5
9F9
330
2
100
AcDbEntity
  8
6-家具-143
 62
   143
100
AcDbLine
 10
769.4807288833687
 20
1026.588529347532
 30
0.0
 11
770.3928326149731
 21
1021.348413316856
 31
0.0
  0
LINE
  5
9FA
330
2
100
AcDbEntity
  8
6-家具-143
 62
   143
100
AcDbLine
 10
768.796651084654
 20
1039.574903858333
 30
0.0
 11
769.4807288833687
 21
1026.588529347532
 31
0.0
  0
LINE
  5
9FB
330
2
100
AcDbEntity
  8
6-家具-143
 62
   143
100
AcDbLine
 10
767.6565214201486
 20
1054.383927423271
 30
0.0
 11
768.796651084654
 21
1039.574903858333
 31
0.0
  0
LINE
  5
9FC
330
2
100
AcDbEntity
  8
6-家具-143
 62
   143
100
AcDbLine
 10
764.9202102253242
 20
1063.269341562219
 30
0.0
 11
767.6565214201486
 21
1054.383927423271
 31
0.0
  0
LINE
  5
9FD
330
2
100
AcDbEntity
  8
6-家具-143
 62
   143
100
AcDbLine
 10
772.2170400781934
 20
1045.27068215252
 30
0.0
 11
769.9367807491709
 21
1029.322502928759
 31
0.0
  0
LINE
  5
9FE
330
2
100
AcDbEntity
  8
6-家具-143
 62
   143
100
AcDbLine
 10
772.6730919439956
 20
1056.434407609162
 30
0.0
 11
772.2170400781934
 21
1045.27068215252
 31
0.0
  0
LINE
  5
9FF
330
2
100
AcDbEntity
  8
6-家具-143
 62
   143
100
AcDbLine
 10
771.9890141452923
 20
1063.04151043044
 30
0.0
 11
772.6730919439956
 21
1056.434407609162
 31
0.0
  0
LINE
  5
A00
330
2
100
AcDbEntity
  8
6-家具-143
 62
   143
100
AcDbLine
 10
769.7087548162699
 20
1065.775484011668
 30
0.0
 11
771.9890141452923
 21
1063.04151043044
 31
0.0
  0
LINE
  5
A01
330
2
100
AcDbEntity
  8
6-家具-143
 62
   143
100
AcDbLine
 10
760.1316656343665
 20
1041.853215176003
 30
0.0
 11
760.3596915672677
 21
1037.068761408884
 31
0.0
  0
LINE
  5
A02
330
2
100
AcDbEntity
  8
6-家具-143
 62
   143
100
AcDbLine
 10
759.4475878356633
 20
1050.738629314975
 30
0.0
 11
760.1316656343665
 21
1041.853215176003
 31
0.0
  0
LINE
  5
A03
330
2
100
AcDbEntity
  8
6-家具-143
 62
   143
100
AcDbLine
 10
756.4832507079263
 20
1057.573563268009
 30
0.0
 11
759.4475878356633
 21
1050.738629314975
 31
0.0
  0
LINE
  5
A04
330
2
100
AcDbEntity
  8
6-家具-143
 62
   143
100
AcDbLine
 10
752.6068098485962
 20
1065.547652879913
 30
0.0
 11
756.4832507079263
 21
1057.573563268009
 31
0.0
  0
LINE
  5
A05
330
2
100
AcDbEntity
  8
6-家具-143
 62
   143
100
AcDbLine
 10
754.2029913789037
 20
1046.409837811367
 30
0.0
 11
755.7991729092229
 21
1036.613099145327
 31
0.0
  0
LINE
  5
A06
330
2
100
AcDbEntity
  8
6-家具-143
 62
   143
100
AcDbLine
 10
752.3787839156833
 20
1053.700434027958
 30
0.0
 11
754.2029913789037
 21
1046.409837811367
 31
0.0
  0
LINE
  5
A07
330
2
100
AcDbEntity
  8
6-家具-143
 62
   143
100
AcDbLine
 10
749.6424727208593
 20
1057.117901004475
 30
0.0
 11
752.3787839156833
 21
1053.700434027958
 31
0.0
  0
LINE
  5
A08
330
2
100
AcDbEntity
  8
6-家具-143
 62
   143
100
AcDbLine
 10
752.3787839156833
 20
1058.257056663322
 30
0.0
 11
749.6424727208593
 21
1057.117901004475
 31
0.0
  0
LINE
  5
A09
330
2
100
AcDbEntity
  8
6-家具-143
 62
   143
100
AcDbLine
 10
749.4144467879578
 20
1059.851874585702
 30
0.0
 11
752.3787839156833
 21
1058.257056663322
 31
0.0
  0
LINE
  5
A0A
330
2
100
AcDbEntity
  8
6-家具-143
 62
   143
100
AcDbLine
 10
748.7303689892545
 20
1063.725003825753
 30
0.0
 11
749.4144467879578
 21
1059.851874585702
 31
0.0
  0
LINE
  5
A0B
330
2
100
AcDbEntity
  8
6-家具-143
 62
   143
100
AcDbLine
 10
762.0744624536397
 20
1036.693031300555
 30
0.0
 11
760.9171214169617
 21
1031.296719758233
 31
0.0
  0
LINE
  5
A0C
330
2
100
AcDbEntity
  8
6-家具-143
 62
   143
100
AcDbLine
 10
762.267352746651
 20
1041.896617747025
 30
0.0
 11
762.0744624536397
 21
1036.693031300555
 31
0.0
  0
LINE
  5
A0D
330
2
100
AcDbEntity
  8
6-家具-143
 62
   143
100
AcDbLine
 10
762.8460236256739
 20
1053.652868642142
 30
0.0
 11
762.267352746651
 21
1041.896617747025
 31
0.0
  0
LINE
  5
A0E
330
2
100
AcDbEntity
  8
6-家具-143
 62
   143
100
AcDbLine
 10
762.0744624536397
 20
1062.518237970859
 30
0.0
 11
762.8460236256739
 21
1053.652868642142
 31
0.0
  0
LINE
  5
A0F
330
2
100
AcDbEntity
  8
6-家具-143
 62
   143
100
AcDbLine
 10
753.0628617143984
 20
1033.423463300589
 30
0.0
 11
754.4310173118049
 21
1033.651294432344
 31
0.0
  0
LINE
  5
A10
330
2
100
AcDbEntity
  8
6-家具-143
 62
   143
100
AcDbLine
 10
751.0106283182771
 20
1032.284307641742
 30
0.0
 11
753.0628617143984
 21
1033.423463300589
 31
0.0
  0
LINE
  5
A11
330
2
100
AcDbEntity
  8
6-家具-143
 62
   143
100
AcDbLine
 10
750.3265505195623
 20
1029.322502928759
 30
0.0
 11
751.0106283182771
 21
1032.284307641742
 31
0.0
  0
LINE
  5
A12
330
2
100
AcDbEntity
  8
6-家具-143
 62
   143
100
AcDbLine
 10
751.2386542511781
 20
1026.132867083998
 30
0.0
 11
750.3265505195623
 21
1029.322502928759
 31
0.0
  0
LINE
  5
A13
330
2
100
AcDbEntity
  8
6-家具-143
 62
   143
100
AcDbLine
 10
753.2908876472994
 20
1024.993711425151
 30
0.0
 11
751.2386542511781
 21
1026.132867083998
 31
0.0
  0
LINE
  5
A14
330
2
100
AcDbEntity
  8
6-家具-143
 62
   143
100
AcDbLine
 10
753.9433920899666
 20
1026.970584699205
 30
0.0
 11
751.8666020390953
 21
1026.45183073368
 31
0.0
  0
LINE
  5
A15
330
2
100
AcDbEntity
  8
6-家具-143
 62
   143
100
AcDbLine
 10
756.0201821408262
 20
1025.544011294023
 30
0.0
 11
753.9433920899666
 21
1026.970584699205
 31
0.0
  0
LINE
  5
A16
330
2
100
AcDbEntity
  8
6-家具-143
 62
   143
100
AcDbLine
 10
757.7075740571512
 20
1022.950241466469
 30
0.0
 11
756.0201821408262
 21
1025.544011294023
 31
0.0
  0
LINE
  5
A17
330
2
100
AcDbEntity
  8
6-家具-143
 62
   143
100
AcDbLine
 10
760.5631603770917
 20
1020.615848621629
 30
0.0
 11
757.7075740571512
 21
1022.950241466469
 31
0.0
  0
LINE
  5
A18
330
2
100
AcDbEntity
  8
6-家具-143
 62
   143
100
AcDbLine
 10
762.2505522934167
 20
1020.097094656128
 30
0.0
 11
760.5631603770917
 21
1020.615848621629
 31
0.0
  0
LINE
  5
A19
330
2
100
AcDbEntity
  8
6-家具-143
 62
   143
100
AcDbLine
 10
762.8995491843116
 20
1021.004914095785
 30
0.0
 11
762.2505522934167
 21
1020.097094656128
 31
0.0
  0
LINE
  5
A1A
330
2
100
AcDbEntity
  8
6-家具-143
 62
   143
100
AcDbLine
 10
762.6399504279513
 20
1022.431487500944
 30
0.0
 11
762.8995491843116
 21
1021.004914095785
 31
0.0
  0
LINE
  5
A1B
330
2
100
AcDbEntity
  8
6-家具-143
 62
   143
100
AcDbLine
 10
763.4187466970324
 20
1023.209618449208
 30
0.0
 11
762.6399504279513
 21
1022.431487500944
 31
0.0
  0
LINE
  5
A1C
330
2
100
AcDbEntity
  8
6-家具-143
 62
   143
100
AcDbLine
 10
762.7697498061373
 20
1024.247126380234
 30
0.0
 11
763.4187466970324
 21
1023.209618449208
 31
0.0
  0
LINE
  5
A1D
330
2
100
AcDbEntity
  8
6-家具-143
 62
   143
100
AcDbLine
 10
763.4187466970324
 20
1024.765880345759
 30
0.0
 11
762.7697498061373
 21
1024.247126380234
 31
0.0
  0
LINE
  5
A1E
330
2
100
AcDbEntity
  8
6-家具-143
 62
   143
100
AcDbLine
 10
763.5485460752065
 20
1025.544011294023
 30
0.0
 11
763.4187466970324
 21
1024.765880345759
 31
0.0
  0
LINE
  5
A1F
330
2
100
AcDbEntity
  8
6-家具-143
 62
   143
100
AcDbLine
 10
761.6015554025215
 20
1027.489338664707
 30
0.0
 11
763.5485460752065
 21
1025.544011294023
 31
0.0
  0
LINE
  5
A20
330
2
100
AcDbEntity
  8
6-家具-143
 62
   143
100
AcDbLine
 10
762.8995491843116
 20
1027.74871564747
 30
0.0
 11
761.6015554025215
 21
1027.489338664707
 31
0.0
  0
LINE
  5
A21
330
2
100
AcDbEntity
  8
6-家具-143
 62
   143
100
AcDbLine
 10
762.6399504279513
 20
1029.175289052628
 30
0.0
 11
762.8995491843116
 21
1027.74871564747
 31
0.0
  0
LINE
  5
A22
330
2
100
AcDbEntity
  8
6-家具-143
 62
   143
100
AcDbLine
 10
759.3949659734759
 20
1031.120616423312
 30
0.0
 11
762.6399504279513
 21
1029.175289052628
 31
0.0
  0
LINE
  5
A23
330
2
100
AcDbEntity
  8
6-家具-143
 62
   143
100
AcDbLine
 10
757.8373734353371
 20
1032.806566811233
 30
0.0
 11
759.3949659734759
 21
1031.120616423312
 31
0.0
  0
LINE
  5
A24
330
2
100
AcDbEntity
  8
6-家具-143
 62
   143
100
AcDbLine
 10
758.7459690825808
 20
1033.973763233653
 30
0.0
 11
757.8373734353371
 21
1032.806566811233
 31
0.0
  0
LINE
  5
A25
330
2
100
AcDbEntity
  8
6-家具-143
 62
   143
100
AcDbLine
 10
760.1737622425568
 20
1034.622205690547
 30
0.0
 11
758.7459690825808
 21
1033.973763233653
 31
0.0
  0
LINE
  5
A26
330
2
100
AcDbEntity
  8
6-家具-143
 62
   143
100
AcDbLine
 10
760.5631603770917
 20
1035.659713621574
 30
0.0
 11
760.1737622425568
 21
1034.622205690547
 31
0.0
  0
LINE
  5
A27
330
2
100
AcDbEntity
  8
6-家具-143
 62
   143
100
AcDbLine
 10
760.043962864371
 20
1036.567533061231
 30
0.0
 11
760.5631603770917
 21
1035.659713621574
 31
0.0
  0
LINE
  5
A28
330
2
100
AcDbEntity
  8
6-家具-143
 62
   143
100
AcDbLine
 10
758.2267715698717
 20
1036.178467587099
 30
0.0
 11
760.043962864371
 21
1036.567533061231
 31
0.0
  0
LINE
  5
A29
330
2
100
AcDbEntity
  8
6-家具-143
 62
   143
100
AcDbLine
 10
757.058577166256
 20
1036.178467587099
 30
0.0
 11
758.2267715698717
 21
1036.178467587099
 31
0.0
  0
LINE
  5
A2A
330
2
100
AcDbEntity
  8
6-家具-143
 62
   143
100
AcDbLine
 10
755.7605833844659
 20
1034.751894181917
 30
0.0
 11
757.058577166256
 21
1036.178467587099
 31
0.0
  0
LINE
  5
A2B
330
2
100
AcDbEntity
  8
6-家具-143
 62
   143
100
AcDbLine
 10
754.8519877372105
 20
1032.547189828471
 30
0.0
 11
755.7605833844659
 21
1034.751894181917
 31
0.0
  0
LINE
  5
A2C
330
2
100
AcDbEntity
  8
6-家具-143
 62
   143
100
AcDbLine
 10
753.9433920899666
 20
1032.417501337101
 30
0.0
 11
754.8519877372105
 21
1032.547189828471
 31
0.0
  0
LINE
  5
A2D
330
2
100
AcDbEntity
  8
6-家具-143
 62
   143
100
AcDbLine
 10
765.8323139569283
 20
1014.057817100288
 30
0.0
 11
761.2717952988838
 21
1014.741310495601
 31
0.0
  0
LINE
  5
A2E
330
2
100
AcDbEntity
  8
6-家具-143
 62
   143
100
AcDbLine
 10
769.4807288833687
 20
1014.969141627356
 30
0.0
 11
765.8323139569283
 21
1014.057817100288
 31
0.0
  0
LINE
  5
A2F
330
2
100
AcDbEntity
  8
6-家具-143
 62
   143
100
AcDbLine
 10
743.029720666693
 20
1044.815019888986
 30
0.0
 11
745.5380059286165
 21
1043.220201966605
 31
0.0
  0
LINE
  5
A30
330
2
100
AcDbEntity
  8
6-家具-143
 62
   143
100
AcDbLine
 10
744.853928129913
 20
1036.840930277106
 30
0.0
 11
743.029720666693
 21
1044.815019888986
 31
0.0
  0
LINE
  5
A31
330
2
100
AcDbEntity
  8
6-家具-143
 62
   143
100
AcDbLine
 10
743.257746599594
 20
1036.385268013572
 30
0.0
 11
744.853928129913
 21
1036.840930277106
 31
0.0
  0
LINE
  5
A32
330
2
100
AcDbEntity
  8
6-家具-143
 62
   143
100
AcDbLine
 10
745.9940577944185
 20
1036.385268013572
 30
0.0
 11
743.257746599594
 21
1036.385268013572
 31
0.0
  0
LINE
  5
A33
330
2
100
AcDbEntity
  8
6-家具-143
 62
   143
100
AcDbLine
 10
750.7826023853762
 20
1034.106956695878
 30
0.0
 11
745.9940577944185
 21
1036.385268013572
 31
0.0
  0
LINE
  5
A34
330
2
100
AcDbEntity
  8
6-家具-143
 62
   143
100
AcDbLine
 10
754.4310173118049
 20
1033.651294432344
 30
0.0
 11
750.7826023853762
 21
1034.106956695878
 31
0.0
  0
LINE
  5
A35
330
2
100
AcDbEntity
  8
6-家具-143
 62
   143
100
AcDbLine
 10
751.8215816033448
 20
1084.313343785304
 30
0.0
 11
752.4764253082362
 21
1083.004775233331
 31
0.0
  0
LINE
  5
A36
330
2
100
AcDbEntity
  8
6-家具-143
 62
   143
100
AcDbLine
 10
751.4473852005579
 20
1086.650073342394
 30
0.0
 11
751.8215816033448
 21
1084.313343785304
 31
0.0
  0
LINE
  5
A37
330
2
100
AcDbEntity
  8
6-家具-143
 62
   143
100
AcDbLine
 10
752.1957780061434
 20
1089.454148810912
 30
0.0
 11
751.4473852005579
 21
1086.650073342394
 31
0.0
  0
LINE
  5
A38
330
2
100
AcDbEntity
  8
6-家具-143
 62
   143
100
AcDbLine
 10
753.6925636173137
 20
1092.071285914859
 30
0.0
 11
752.1957780061434
 21
1089.454148810912
 31
0.0
  0
LINE
  5
A39
330
2
100
AcDbEntity
  8
6-家具-143
 62
   143
100
AcDbLine
 10
756.4990366382436
 20
1092.819039373143
 30
0.0
 11
753.6925636173137
 21
1092.071285914859
 31
0.0
  0
LINE
  5
A3A
330
2
100
AcDbEntity
  8
6-家具-143
 62
   143
100
AcDbLine
 10
763.7023173919906
 20
1093.192916102285
 30
0.0
 11
756.4990366382436
 21
1092.819039373143
 31
0.0
  0
LINE
  5
A3B
330
2
100
AcDbEntity
  8
6-家具-143
 62
   143
100
AcDbLine
 10
768.6604197289939
 20
1092.351693461716
 30
0.0
 11
763.7023173919906
 21
1093.192916102285
 31
0.0
  0
LINE
  5
A3C
330
2
100
AcDbEntity
  8
6-家具-143
 62
   143
100
AcDbLine
 10
769.9701071387648
 20
1091.043124909742
 30
0.0
 11
768.6604197289939
 21
1092.351693461716
 31
0.0
  0
LINE
  5
A3D
330
2
100
AcDbEntity
  8
6-家具-143
 62
   143
100
AcDbLine
 10
769.7830089373658
 20
1088.893333717223
 30
0.0
 11
769.9701071387648
 21
1091.043124909742
 31
0.0
  0
LINE
  5
A3E
330
2
100
AcDbEntity
  8
6-家具-143
 62
   143
100
AcDbLine
 10
770.531401742951
 20
1084.59375133216
 30
0.0
 11
769.7830089373658
 21
1088.893333717223
 31
0.0
  0
LINE
  5
A3F
330
2
100
AcDbEntity
  8
6-家具-143
 62
   143
100
AcDbLine
 10
770.531401742951
 20
1081.789675863643
 30
0.0
 11
770.531401742951
 21
1084.59375133216
 31
0.0
  0
LINE
  5
A40
330
2
100
AcDbEntity
  8
6-家具-143
 62
   143
100
AcDbLine
 10
769.9701071387648
 20
1080.574576493931
 30
0.0
 11
770.531401742951
 21
1081.789675863643
 31
0.0
  0
LINE
  5
A41
330
2
100
AcDbEntity
  8
6-家具-143
 62
   143
100
AcDbLine
 10
770.7184999443502
 20
1077.677031843128
 30
0.0
 11
769.9701071387648
 21
1080.574576493931
 31
0.0
  0
LINE
  5
A42
330
2
100
AcDbEntity
  8
6-家具-143
 62
   143
100
AcDbLine
 10
769.6894598366721
 20
1073.28398027578
 30
0.0
 11
770.7184999443502
 21
1077.677031843128
 31
0.0
  0
LINE
  5
A43
330
2
100
AcDbEntity
  8
6-家具-143
 62
   143
100
AcDbLine
 10
768.4733215275945
 20
1070.853781536404
 30
0.0
 11
769.6894598366721
 21
1073.28398027578
 31
0.0
  0
LINE
  5
A44
330
2
100
AcDbEntity
  8
6-家具-143
 62
   143
100
AcDbLine
 10
767.4442814199164
 20
1069.638682166716
 30
0.0
 11
768.4733215275945
 21
1070.853781536404
 31
0.0
  0
LINE
  5
A45
330
2
100
AcDbEntity
  8
6-家具-143
 62
   143
100
AcDbLine
 10
766.508790412932
 20
1069.451743802145
 30
0.0
 11
767.4442814199164
 21
1069.638682166716
 31
0.0
  0
LINE
  5
A46
330
2
100
AcDbEntity
  8
6-家具-143
 62
   143
100
AcDbLine
 10
765.8539467080523
 20
1068.423582797028
 30
0.0
 11
766.508790412932
 21
1069.451743802145
 31
0.0
  0
LINE
  5
A47
330
2
100
AcDbEntity
  8
6-家具-143
 62
   143
100
AcDbLine
 10
754.1603091207941
 20
1082.911306051045
 30
0.0
 11
753.7861127180073
 21
1082.724367686474
 31
0.0
  0
LINE
  5
A48
330
2
100
AcDbEntity
  8
6-家具-143
 62
   143
100
AcDbLine
 10
754.1603091207941
 20
1083.752528691591
 30
0.0
 11
754.1603091207941
 21
1082.911306051045
 31
0.0
  0
LINE
  5
A49
330
2
100
AcDbEntity
  8
6-家具-143
 62
   143
100
AcDbLine
 10
755.1893492284724
 20
1084.687220514423
 30
0.0
 11
754.1603091207941
 21
1083.752528691591
 31
0.0
  0
LINE
  5
A4A
330
2
100
AcDbEntity
  8
6-家具-143
 62
   143
100
AcDbLine
 10
755.5635456312708
 20
1086.650073342394
 30
0.0
 11
755.1893492284724
 21
1084.687220514423
 31
0.0
  0
LINE
  5
A4B
330
2
100
AcDbEntity
  8
6-家具-143
 62
   143
100
AcDbLine
 10
756.592585738949
 20
1088.706395352652
 30
0.0
 11
755.5635456312708
 21
1086.650073342394
 31
0.0
  0
LINE
  5
A4C
330
2
100
AcDbEntity
  8
6-家具-143
 62
   143
100
AcDbLine
 10
758.6506659543053
 20
1089.547617993198
 30
0.0
 11
756.592585738949
 21
1088.706395352652
 31
0.0
  0
LINE
  5
A4D
330
2
100
AcDbEntity
  8
6-家具-143
 62
   143
100
AcDbLine
 10
760.7087461696616
 20
1089.92149472234
 30
0.0
 11
758.6506659543053
 21
1089.547617993198
 31
0.0
  0
LINE
  5
A4E
330
2
100
AcDbEntity
  8
6-家具-143
 62
   143
100
AcDbLine
 10
765.1055539024674
 20
1090.014963904625
 30
0.0
 11
760.7087461696616
 21
1089.92149472234
 31
0.0
  0
LINE
  5
A4F
330
2
100
AcDbEntity
  8
6-家具-143
 62
   143
100
AcDbLine
 10
769.0346161317807
 20
1089.828025540054
 30
0.0
 11
765.1055539024674
 21
1090.014963904625
 31
0.0
  0
LINE
  5
A50
330
2
100
AcDbEntity
  8
6-家具-143
 62
   143
100
AcDbLine
 10
769.5959107359664
 20
1089.173741264079
 30
0.0
 11
769.0346161317807
 21
1089.828025540054
 31
0.0
  0
LINE
  5
A51
330
2
100
AcDbEntity
  8
6-家具-143
 62
   143
100
AcDbLine
 10
754.2538582214997
 20
1071.227658265546
 30
0.0
 11
754.4409564228872
 21
1069.171336255289
 31
0.0
  0
LINE
  5
A52
330
2
100
AcDbEntity
  8
6-家具-143
 62
   143
100
AcDbLine
 10
753.8796618187011
 20
1074.966425556896
 30
0.0
 11
754.2538582214997
 21
1071.227658265546
 31
0.0
  0
LINE
  5
A53
330
2
100
AcDbEntity
  8
6-家具-143
 62
   143
100
AcDbLine
 10
752.9441708117284
 20
1077.303155114009
 30
0.0
 11
753.8796618187011
 21
1074.966425556896
 31
0.0
  0
LINE
  5
A54
330
2
100
AcDbEntity
  8
6-家具-143
 62
   143
100
AcDbLine
 10
753.1312690131159
 20
1069.264805437574
 30
0.0
 11
754.0667600201005
 21
1069.171336255289
 31
0.0
  0
LINE
  5
A55
330
2
100
AcDbEntity
  8
6-家具-143
 62
   143
100
AcDbLine
 10
752.8506217110228
 20
1067.115014245055
 30
0.0
 11
753.1312690131159
 21
1069.264805437574
 31
0.0
  0
LINE
  5
A56
330
2
100
AcDbEntity
  8
6-家具-143
 62
   143
100
AcDbLine
 10
752.2893271068372
 20
1065.245630599369
 30
0.0
 11
752.8506217110228
 21
1067.115014245055
 31
0.0
  0
LINE
  5
A57
330
2
100
AcDbEntity
  8
6-家具-143
 62
   143
100
AcDbLine
 10
754.1603091207941
 20
1064.030531229681
 30
0.0
 11
752.2893271068372
 21
1065.245630599369
 31
0.0
  0
LINE
  5
A58
330
2
100
AcDbEntity
  8
6-家具-143
 62
   143
100
AcDbLine
 10
757.3409785445344
 20
1061.974209219423
 30
0.0
 11
754.1603091207941
 21
1064.030531229681
 31
0.0
  0
LINE
  5
A59
330
2
100
AcDbEntity
  8
6-家具-143
 62
   143
100
AcDbLine
 10
761.2700407738474
 20
1067.862767703316
 30
0.0
 11
757.3409785445344
 21
1061.974209219423
 31
0.0
  0
LINE
  5
A5A
330
2
100
AcDbEntity
  8
6-家具-143
 62
   143
100
AcDbLine
 10
764.4507101975757
 20
1067.956236885601
 30
0.0
 11
761.2700407738474
 21
1067.862767703316
 31
0.0
  0
LINE
  5
A5B
330
2
100
AcDbEntity
  8
6-家具-143
 62
   143
100
AcDbLine
 10
766.0410449094399
 20
1066.460729969057
 30
0.0
 11
764.4507101975757
 21
1067.956236885601
 31
0.0
  0
LINE
  5
A5C
330
2
100
AcDbEntity
  8
6-家具-143
 62
   143
100
AcDbLine
 10
769.6894598366721
 20
1062.628493495422
 30
0.0
 11
766.0410449094399
 21
1066.460729969057
 31
0.0
  0
LINE
  5
A5D
330
2
100
AcDbEntity
  8
6-家具-143
 62
   143
100
AcDbLine
 10
768.2862233261953
 20
1068.517051979314
 30
0.0
 11
769.6894598366721
 21
1062.628493495422
 31
0.0
  0
LINE
  5
A5E
330
2
100
AcDbEntity
  8
6-家具-143
 62
   143
100
AcDbLine
 10
767.6313796213158
 20
1068.984397890718
 30
0.0
 11
768.2862233261953
 21
1068.517051979314
 31
0.0
  0
LINE
  5
A5F
330
2
100
AcDbEntity
  8
6-家具-143
 62
   143
100
AcDbLine
 10
766.7894377150251
 20
1068.984397890718
 30
0.0
 11
767.6313796213158
 21
1068.984397890718
 31
0.0
  0
LINE
  5
A60
330
2
100
AcDbEntity
  8
6-家具-143
 62
   143
100
AcDbLine
 10
761.7377862773396
 20
1063.469716135968
 30
0.0
 11
760.6151970689563
 21
1066.1803224222
 31
0.0
  0
LINE
  5
A61
330
2
100
AcDbEntity
  8
6-家具-143
 62
   143
100
AcDbLine
 10
763.4216700898975
 20
1062.815431859993
 30
0.0
 11
761.7377862773396
 21
1063.469716135968
 31
0.0
  0
LINE
  5
A62
330
2
100
AcDbEntity
  8
6-家具-143
 62
   143
100
AcDbLine
 10
764.0765137947891
 20
1063.376246953682
 30
0.0
 11
763.4216700898975
 21
1062.815431859993
 31
0.0
  0
LINE
  5
A63
330
2
100
AcDbEntity
  8
6-家具-143
 62
   143
100
AcDbLine
 10
765.4797503052539
 20
1066.460729969057
 30
0.0
 11
764.0765137947891
 21
1063.376246953682
 31
0.0
  0
LINE
  5
A64
330
2
100
AcDbEntity
  8
6-家具-143
 62
   143
100
AcDbLine
 10
757.2474294438286
 20
1068.143175250172
 30
0.0
 11
760.8022952703553
 21
1068.143175250172
 31
0.0
  0
LINE
  5
A65
330
2
100
AcDbEntity
  8
6-家具-143
 62
   143
100
AcDbLine
 10
754.1603091207941
 20
1068.610521161599
 30
0.0
 11
757.2474294438286
 21
1068.143175250172
 31
0.0
  0
LINE
  5
A66
330
2
100
AcDbEntity
  8
6-家具-143
 62
   143
100
AcDbLine
 10
754.5345055235927
 20
1069.171336255289
 30
0.0
 11
754.1603091207941
 21
1068.610521161599
 31
0.0
  0
LINE
  5
A67
330
2
100
AcDbEntity
  8
6-家具-143
 62
   143
100
AcDbLine
 10
767.5378305206104
 20
1068.330113614743
 30
0.0
 11
765.3862012045602
 21
1068.049706067887
 31
0.0
  0
LINE
  5
A68
330
2
100
AcDbEntity
  8
6-家具-143
 62
   143
100
AcDbLine
 10
767.4442814199164
 20
1068.610521161599
 30
0.0
 11
767.5378305206104
 21
1068.330113614743
 31
0.0
  0
LINE
  5
A69
330
2
100
AcDbEntity
  8
6-家具-143
 62
   143
100
AcDbLine
 10
765.8539467080523
 20
1072.816634364376
 30
0.0
 11
764.1700628954827
 21
1072.723165182091
 31
0.0
  0
LINE
  5
A6A
330
2
100
AcDbEntity
  8
6-家具-143
 62
   143
100
AcDbLine
 10
754.5345055235927
 20
1075.994586562036
 30
0.0
 11
754.7216037249918
 21
1076.555401655725
 31
0.0
  0
LINE
  5
A6B
330
2
100
AcDbEntity
  8
6-家具-143
 62
   143
100
AcDbLine
 10
753.9732109194067
 20
1076.274994108869
 30
0.0
 11
754.5345055235927
 21
1075.994586562036
 31
0.0
  0
LINE
  5
A6C
330
2
100
AcDbEntity
  8
6-家具-143
 62
   143
100
AcDbLine
 10
753.3183672145153
 20
1077.116216749438
 30
0.0
 11
753.9732109194067
 21
1076.274994108869
 31
0.0
  0
LINE
  5
A6D
330
2
100
AcDbEntity
  8
6-家具-143
 62
   143
100
AcDbLine
 10
752.2893271068372
 20
1078.237846936841
 30
0.0
 11
753.3183672145153
 21
1077.116216749438
 31
0.0
  0
LINE
  5
A6E
330
2
100
AcDbEntity
  8
6-家具-143
 62
   143
100
AcDbLine
 10
751.7280325026511
 20
1079.546415488815
 30
0.0
 11
752.2893271068372
 21
1078.237846936841
 31
0.0
  0
LINE
  5
A6F
330
2
100
AcDbEntity
  8
6-家具-143
 62
   143
100
AcDbLine
 10
751.4473852005579
 20
1081.322329952215
 30
0.0
 11
751.7280325026511
 21
1079.546415488815
 31
0.0
  0
LINE
  5
A70
330
2
100
AcDbEntity
  8
6-家具-143
 62
   143
100
AcDbLine
 10
751.8215816033448
 20
1082.257021775047
 30
0.0
 11
751.4473852005579
 21
1081.322329952215
 31
0.0
  0
LINE
  5
A71
330
2
100
AcDbEntity
  8
6-家具-143
 62
   143
100
AcDbLine
 10
752.4764253082362
 20
1082.911306051045
 30
0.0
 11
751.8215816033448
 21
1082.257021775047
 31
0.0
  0
LINE
  5
A72
330
2
100
AcDbEntity
  8
6-家具-143
 62
   143
100
AcDbLine
 10
753.3183672145153
 20
1082.630898504189
 30
0.0
 11
752.4764253082362
 21
1082.911306051045
 31
0.0
  0
LINE
  5
A73
330
2
100
AcDbEntity
  8
6-家具-143
 62
   143
100
AcDbLine
 10
753.7861127180073
 20
1081.976614228214
 30
0.0
 11
753.3183672145153
 21
1082.630898504189
 31
0.0
  0
LINE
  5
A74
330
2
100
AcDbEntity
  8
6-家具-143
 62
   143
100
AcDbLine
 10
764.1700628954827
 20
1075.714179015179
 30
0.0
 11
763.1410227878046
 21
1076.181524926607
 31
0.0
  0
LINE
  5
A75
330
2
100
AcDbEntity
  8
6-家具-143
 62
   143
100
AcDbLine
 10
766.2281431108389
 20
1075.620709832894
 30
0.0
 11
764.1700628954827
 21
1075.714179015179
 31
0.0
  0
LINE
  5
A76
330
2
100
AcDbEntity
  8
6-家具-143
 62
   143
100
AcDbLine
 10
766.508790412932
 20
1076.088055744298
 30
0.0
 11
766.2281431108389
 21
1075.620709832894
 31
0.0
  0
LINE
  5
A77
330
2
100
AcDbEntity
  8
6-家具-143
 62
   143
100
AcDbLine
 10
764.7313574996688
 20
1073.844795369493
 30
0.0
 11
762.7668263850178
 21
1073.564387822637
 31
0.0
  0
LINE
  5
A78
330
2
100
AcDbEntity
  8
6-家具-143
 62
   143
100
AcDbLine
 10
765.5732994059595
 20
1073.938264551779
 30
0.0
 11
764.7313574996688
 21
1073.844795369493
 31
0.0
  0
LINE
  5
A79
330
2
100
AcDbEntity
  8
6-家具-143
 62
   143
100
AcDbLine
 10
767.1636341178234
 20
1073.470918640351
 30
0.0
 11
765.5732994059595
 21
1073.938264551779
 31
0.0
  0
LINE
  5
A7A
330
2
100
AcDbEntity
  8
6-家具-143
 62
   143
100
AcDbLine
 10
761.6442371766343
 20
1080.107230582527
 30
0.0
 11
759.7732551626773
 21
1080.761514858502
 31
0.0
  0
LINE
  5
A7B
330
2
100
AcDbEntity
  8
6-家具-143
 62
   143
100
AcDbLine
 10
762.8603754857119
 20
1080.200699764813
 30
0.0
 11
761.6442371766343
 21
1080.107230582527
 31
0.0
  0
LINE
  5
A7C
330
2
100
AcDbEntity
  8
6-家具-143
 62
   143
100
AcDbLine
 10
763.3281209892039
 20
1080.761514858502
 30
0.0
 11
762.8603754857119
 21
1080.200699764813
 31
0.0
  0
LINE
  5
A7D
330
2
100
AcDbEntity
  8
6-家具-143
 62
   143
100
AcDbLine
 10
762.5797281836187
 20
1081.22886076993
 30
0.0
 11
763.3281209892039
 21
1080.761514858502
 31
0.0
  0
LINE
  5
A7E
330
2
100
AcDbEntity
  8
6-家具-143
 62
   143
100
AcDbLine
 10
760.9893934717543
 20
1081.415799134501
 30
0.0
 11
762.5797281836187
 21
1081.22886076993
 31
0.0
  0
LINE
  5
A7F
330
2
100
AcDbEntity
  8
6-家具-143
 62
   143
100
AcDbLine
 10
759.7732551626773
 20
1081.322329952215
 30
0.0
 11
760.9893934717543
 21
1081.415799134501
 31
0.0
  0
LINE
  5
A80
330
2
100
AcDbEntity
  8
6-家具-143
 62
   143
100
AcDbLine
 10
759.3990588123356
 20
1082.257021885176
 30
0.0
 11
758.9313128842883
 21
1081.509268400582
 31
0.0
  0
LINE
  5
A81
330
2
100
AcDbEntity
  8
6-家具-143
 62
   143
100
AcDbLine
 10
762.2990808788832
 20
1082.537429170517
 30
0.0
 11
759.3990588123356
 21
1082.257021885176
 31
0.0
  0
LINE
  5
A82
330
2
100
AcDbEntity
  8
6-家具-143
 62
   143
100
AcDbLine
 10
763.5152189481332
 20
1081.602737640423
 30
0.0
 11
762.2990808788832
 21
1082.537429170517
 31
0.0
  0
LINE
  5
A83
330
2
100
AcDbEntity
  8
6-家具-143
 62
   143
100
AcDbLine
 10
766.9765359164244
 20
1080.294168947098
 30
0.0
 11
768.7539688296878
 21
1080.761514858502
 31
0.0
  0
LINE
  5
A84
330
2
100
AcDbEntity
  8
6-家具-143
 62
   143
100
AcDbLine
 10
765.9474958087463
 20
1080.200699764813
 30
0.0
 11
766.9765359164244
 21
1080.294168947098
 31
0.0
  0
LINE
  5
A85
330
2
100
AcDbEntity
  8
6-家具-143
 62
   143
100
AcDbLine
 10
765.5732994059595
 20
1080.761514858502
 30
0.0
 11
765.9474958087463
 21
1080.200699764813
 31
0.0
  0
LINE
  5
A86
330
2
100
AcDbEntity
  8
6-家具-143
 62
   143
100
AcDbLine
 10
767.0700850171183
 20
1081.322329952215
 30
0.0
 11
765.5732994059595
 21
1080.761514858502
 31
0.0
  0
LINE
  5
A87
330
2
100
AcDbEntity
  8
6-家具-143
 62
   143
100
AcDbLine
 10
769.2217143331799
 20
1081.22886076993
 30
0.0
 11
767.0700850171183
 21
1081.322329952215
 31
0.0
  0
LINE
  5
A88
330
2
100
AcDbEntity
  8
6-家具-143
 62
   143
100
AcDbLine
 10
767.7249282200033
 20
1082.537429233102
 30
0.0
 11
765.5732989039531
 21
1081.696206592532
 31
0.0
  0
LINE
  5
A89
330
2
100
AcDbEntity
  8
6-家具-143
 62
   143
100
AcDbLine
 10
769.8765575360649
 20
1082.070083321674
 30
0.0
 11
767.7249282200033
 21
1082.537429233102
 31
0.0
  0
LINE
  5
A8A
330
2
100
AcDbEntity
  8
6-家具-143
 62
   143
100
AcDbLine
 10
767.4442814199164
 20
1081.135391587644
 30
-0.0000000000000013
 11
766.8829868157303
 21
1080.481107311646
 31
0.0000000000000007
  0
LINE
  5
A8B
330
2
100
AcDbEntity
  8
6-家具-143
 62
   143
100
AcDbLine
 10
768.0055760241025
 20
1080.948453223073
 30
-0.0000000000000009
 11
767.4442814199164
 21
1081.135391587644
 31
-0.0000000000000013
  0
LINE
  5
A8C
330
2
100
AcDbEntity
  8
6-家具-143
 62
   143
100
AcDbLine
 10
762.1119826801264
 20
1080.854984040788
 30
0.0000000000000018
 11
761.2700407738474
 21
1080.574576493931
 31
0.000000000000002
  0
LINE
  5
A8D
330
2
100
AcDbEntity
  8
6-家具-143
 62
   143
100
AcDbLine
 10
762.5797281836187
 20
1080.387638129384
 30
-0.000000000000001
 11
762.1119826801264
 21
1080.854984040788
 31
0.0000000000000018
  0
LINE
  5
A8E
330
2
100
AcDbEntity
  8
6-家具-143
 62
   143
100
AcDbLine
 10
741.8895910021761
 20
986.034587892794
 30
0.0
 11
745.0819540628144
 21
986.7180812881068
 31
0.0
  0
LINE
  5
A8F
330
2
100
AcDbEntity
  8
6-家具-143
 62
   143
100
AcDbLine
 10
737.7851242099335
 20
983.9841077068793
 30
0.0
 11
741.8895910021761
 21
986.034587892794
 31
0.0
  0
LINE
  5
A90
330
2
100
AcDbEntity
  8
6-家具-143
 62
   143
100
AcDbLine
 10
735.2768389480099
 20
984.2119388386576
 30
0.0
 11
737.7851242099335
 21
983.9841077068793
 31
0.0
  0
LINE
  5
A91
330
2
100
AcDbEntity
  8
6-家具-143
 62
   143
100
AcDbLine
 10
739.6093316731533
 20
987.1737435516406
 30
0.0
 11
744.1698503311983
 21
991.0468727916915
 31
0.0
  0
LINE
  5
A92
330
2
100
AcDbEntity
  8
6-家具-143
 62
   143
100
AcDbLine
 10
736.1889426796258
 20
984.8954322339475
 30
0.0
 11
739.6093316731533
 21
987.1737435516406
 31
0.0
  0
LINE
  5
A93
330
2
100
AcDbEntity
  8
6-家具-143
 62
   143
100
AcDbLine
 10
776.0934809375348
 20
983.3006143115666
 30
0.0
 11
773.5851956756115
 21
984.2119388386576
 31
0.0
  0
LINE
  5
A94
330
2
100
AcDbEntity
  8
6-家具-143
 62
   143
100
AcDbLine
 10
776.777558736238
 20
986.2624190245727
 30
0.0
 11
776.0934809375348
 21
983.3006143115666
 31
0.0
  0
LINE
  5
A95
330
2
100
AcDbEntity
  8
6-家具-143
 62
   143
100
AcDbLine
 10
778.8648727003278
 20
986.8968408631596
 30
0.0
 11
777.1774807840031
 21
986.3780868976581
 31
0.0
  0
LINE
  5
A96
330
2
100
AcDbEntity
  8
6-家具-143
 62
   143
100
AcDbLine
 10
779.1244714566882
 20
987.9343487942096
 30
0.0
 11
778.8648727003278
 21
986.8968408631596
 31
0.0
  0
LINE
  5
A97
330
2
100
AcDbEntity
  8
6-家具-143
 62
   143
100
AcDbLine
 10
780.0330671039437
 20
988.0640372855792
 30
0.0
 11
779.1244714566882
 21
987.9343487942096
 31
0.0
  0
LINE
  5
A98
330
2
100
AcDbEntity
  8
6-家具-143
 62
   143
100
AcDbLine
 10
780.5522646166644
 20
989.4906106907381
 30
0.0
 11
780.0330671039437
 21
988.0640372855792
 31
0.0
  0
LINE
  5
A99
330
2
100
AcDbEntity
  8
6-家具-143
 62
   143
100
AcDbLine
 10
781.331060885734
 20
989.7499876735006
 30
0.0
 11
780.5522646166644
 21
989.4906106907381
 31
0.0
  0
LINE
  5
A9A
330
2
100
AcDbEntity
  8
6-家具-143
 62
   143
100
AcDbLine
 10
758.5828427953788
 20
959.7516380938206
 30
0.0
 11
760.1825324201985
 21
986.9231294327153
 31
0.0
  0
LINE
  5
A9B
330
2
100
AcDbEntity
  8
6-家具-143
 62
   143
100
AcDbLine
 10
757.7829979829633
 20
957.087766393923
 30
0.0
 11
758.5828427953788
 21
959.7516380938206
 31
0.0
  0
LINE
  5
A9C
330
2
100
AcDbEntity
  8
6-家具-143
 62
   143
100
AcDbLine
 10
754.0503888583884
 20
918.9944010854672
 30
0.0
 11
757.7829979829633
 21
957.087766393923
 31
0.0
  0
LINE
  5
A9D
330
2
100
AcDbEntity
  8
6-家具-143
 62
   143
100
AcDbLine
 10
752.9839291085169
 20
917.6624652355181
 30
0.0
 11
754.0503888583884
 21
918.9944010854672
 31
0.0
  0
LINE
  5
A9E
330
2
100
AcDbEntity
  8
6-家具-143
 62
   143
100
AcDbLine
 10
756.1833083581439
 20
914.7322063656492
 30
0.0
 11
752.9839291085169
 21
917.6624652355181
 31
0.0
  0
LINE
  5
A9F
330
2
100
AcDbEntity
  8
6-家具-143
 62
   143
100
AcDbLine
 10
757.2497681080274
 20
912.867496175712
 30
0.0
 11
756.1833083581439
 21
914.7322063656492
 31
0.0
  0
LINE
  5
AA0
330
2
100
AcDbEntity
  8
6-家具-143
 62
   143
100
AcDbLine
 10
756.1833083581439
 20
910.7363988158031
 30
0.0
 11
757.2497681080274
 21
912.867496175712
 31
0.0
  0
LINE
  5
AA1
330
2
100
AcDbEntity
  8
6-家具-143
 62
   143
100
AcDbLine
 10
748.4514751715265
 20
911.0027859857977
 30
0.0
 11
756.1833083581439
 21
910.7363988158031
 31
0.0
  0
LINE
  5
AA2
330
2
100
AcDbEntity
  8
6-家具-143
 62
   143
100
AcDbLine
 10
744.4522511094834
 20
911.2691731557921
 30
0.0
 11
748.4514751715265
 21
911.0027859857977
 31
0.0
  0
LINE
  5
AA3
330
2
100
AcDbEntity
  8
6-家具-143
 62
   143
100
AcDbLine
 10
744.4522511094834
 20
912.867496175712
 30
0.0
 11
744.4522511094834
 21
911.2691731557921
 31
0.0
  0
LINE
  5
AA4
330
2
100
AcDbEntity
  8
6-家具-143
 62
   143
100
AcDbLine
 10
746.051940734303
 20
914.4658191956553
 30
0.0
 11
744.4522511094834
 21
912.867496175712
 31
0.0
  0
LINE
  5
AA5
330
2
100
AcDbEntity
  8
6-家具-143
 62
   143
100
AcDbLine
 10
747.6516303591225
 20
917.6624652355181
 30
0.0
 11
746.051940734303
 21
914.4658191956553
 31
0.0
  0
LINE
  5
AA6
330
2
100
AcDbEntity
  8
6-家具-143
 62
   143
100
AcDbLine
 10
744.985480984431
 20
918.4616267455012
 30
0.0
 11
747.6516303591225
 21
917.6624652355181
 31
0.0
  0
LINE
  5
AA7
330
2
100
AcDbEntity
  8
6-家具-143
 62
   143
100
AcDbLine
 10
744.4522511094834
 20
957.886927903883
 30
0.0
 11
744.985480984431
 21
918.4616267455012
 31
0.0
  0
LINE
  5
AA8
330
2
100
AcDbEntity
  8
6-家具-143
 62
   143
100
AcDbLine
 10
745.2520959218991
 20
960.817186773775
 30
0.0
 11
744.4522511094834
 21
957.886927903883
 31
0.0
  0
LINE
  5
AA9
330
2
100
AcDbEntity
  8
6-家具-143
 62
   143
100
AcDbLine
 10
771.3803597939111
 20
958.9524765838376
 30
0.0
 11
771.9135896688588
 21
960.2844124337861
 31
0.0
  0
LINE
  5
AAA
330
2
100
AcDbEntity
  8
6-家具-143
 62
   143
100
AcDbLine
 10
771.9135896688588
 20
956.5549920539343
 30
0.0
 11
771.3803597939111
 21
958.9524765838376
 31
0.0
  0
LINE
  5
AAB
330
2
100
AcDbEntity
  8
6-家具-143
 62
   143
100
AcDbLine
 10
770.5805149815073
 20
917.396078065547
 30
0.0
 11
771.9135896688588
 21
956.5549920539343
 31
0.0
  0
LINE
  5
AAC
330
2
100
AcDbEntity
  8
6-家具-143
 62
   143
100
AcDbLine
 10
776.7126585433055
 20
913.4002705157007
 30
0.0
 11
770.5805149815073
 21
917.396078065547
 31
0.0
  0
LINE
  5
AAD
330
2
100
AcDbEntity
  8
6-家具-143
 62
   143
100
AcDbLine
 10
776.7126585433055
 20
911.0027859857977
 30
0.0
 11
776.7126585433055
 21
913.4002705157007
 31
0.0
  0
LINE
  5
AAE
330
2
100
AcDbEntity
  8
6-家具-143
 62
   143
100
AcDbLine
 10
773.5132792936663
 20
911.0027859857977
 30
0.0
 11
776.7126585433055
 21
911.0027859857977
 31
0.0
  0
LINE
  5
AAF
330
2
100
AcDbEntity
  8
6-家具-143
 62
   143
100
AcDbLine
 10
768.4475954817518
 20
910.7363988158031
 30
0.0
 11
773.5132792936663
 21
911.0027859857977
 31
0.0
  0
LINE
  5
AB0
330
2
100
AcDbEntity
  8
6-家具-143
 62
   143
100
AcDbLine
 10
760.7157622951343
 20
911.2691731557921
 30
0.0
 11
768.4475954817518
 21
910.7363988158031
 31
0.0
  0
LINE
  5
AB1
330
2
100
AcDbEntity
  8
6-家具-143
 62
   143
100
AcDbLine
 10
760.7157622951343
 20
912.867496175712
 30
0.0
 11
760.7157622951343
 21
911.2691731557921
 31
0.0
  0
LINE
  5
AB2
330
2
100
AcDbEntity
  8
6-家具-143
 62
   143
100
AcDbLine
 10
762.8486817948897
 20
917.1296908955525
 30
0.0
 11
760.7157622951343
 21
912.867496175712
 31
0.0
  0
LINE
  5
AB3
330
2
100
AcDbEntity
  8
6-家具-143
 62
   143
100
AcDbLine
 10
761.782222045006
 20
917.396078065547
 30
0.0
 11
762.8486817948897
 21
917.1296908955525
 31
0.0
  0
LINE
  5
AB4
330
2
100
AcDbEntity
  8
6-家具-143
 62
   143
100
AcDbLine
 10
759.6493025452509
 20
956.2886048839635
 30
0.0
 11
761.782222045006
 21
917.396078065547
 31
0.0
  0
LINE
  5
AB5
330
2
100
AcDbEntity
  8
6-家具-143
 62
   143
100
AcDbLine
 10
760.1825324201985
 20
956.5549920539343
 30
0.0
 11
759.6493025452509
 21
956.2886048839635
 31
0.0
  0
LINE
  5
AB6
330
2
100
AcDbEntity
  8
6-家具-143
 62
   143
100
AcDbLine
 10
759.1160726703149
 20
959.2188637538317
 30
0.0
 11
760.1825324201985
 21
956.5549920539343
 31
0.0
  0
LINE
  5
AB7
330
2
100
AcDbEntity
  8
6-家具-143
 62
   143
100
AcDbLine
 10
764.7149863571772
 20
916.8633037255583
 30
0.0
 11
764.1817564822412
 21
916.8633037255583
 31
0.0
  0
LINE
  5
AB8
330
2
100
AcDbEntity
  8
6-家具-143
 62
   143
100
AcDbLine
 10
768.4475954817518
 20
919.2607882554613
 30
0.0
 11
764.7149863571772
 21
916.8633037255583
 31
0.0
  0
LINE
  5
AB9
330
2
100
AcDbEntity
  8
6-家具-143
 62
   143
100
AcDbLine
 10
768.9808253566877
 20
917.9288524055126
 30
0.0
 11
768.4475954817518
 21
919.2607882554613
 31
0.0
  0
LINE
  5
ABA
330
2
100
AcDbEntity
  8
6-家具-143
 62
   143
100
AcDbLine
 10
748.7180901090059
 20
920.59272410541
 30
0.0
 11
746.051940734303
 21
918.9944010854672
 31
0.0
  0
LINE
  5
ABB
330
2
100
AcDbEntity
  8
6-家具-143
 62
   143
100
AcDbLine
 10
751.9174693586334
 20
919.5271754254557
 30
0.0
 11
748.7180901090059
 21
920.59272410541
 31
0.0
  0
LINE
  5
ABC
330
2
100
AcDbEntity
  8
6-家具-143
 62
   143
100
AcDbLine
 10
740.7494613376707
 20
1014.057817100288
 30
0.0
 11
735.2768389480099
 21
984.2119388386576
 31
0.0
  0
LINE
  5
ABD
330
2
100
AcDbEntity
  8
6-家具-143
 62
   143
100
AcDbLine
 10
744.1698503311983
 20
991.0468727916915
 30
0.0
 11
751.0106283182771
 21
994.0086775046745
 31
0.0
  0
LINE
  5
ABE
330
2
100
AcDbEntity
  8
6-家具-143
 62
   143
100
AcDbLine
 10
777.9176884007553
 20
991.5025350552257
 30
0.0
 11
776.777558736238
 21
986.2624190245727
 31
0.0
  0
LINE
  5
ABF
330
2
100
AcDbEntity
  8
6-家具-143
 62
   143
100
AcDbLine
 10
780.4224652384784
 20
996.4937892251853
 30
0.0
 11
781.331060885734
 21
989.7499876735006
 31
0.0
  0
LINE
  5
AC0
330
2
100
AcDbEntity
  8
6-家具-143
 62
   143
100
AcDbLine
 10
760.1825324201985
 20
986.9231294327153
 30
0.0
 11
764.448371419709
 21
994.914744532385
 31
0.0
  0
LINE
  5
AC1
330
2
100
AcDbEntity
  8
6-家具-143
 62
   143
100
AcDbLine
 10
745.2520959218991
 20
991.7180984925218
 30
0.0
 11
745.2520959218991
 21
960.817186773775
 31
0.0
  0
LINE
  5
AC2
330
2
100
AcDbEntity
  8
6-家具-143
 62
   143
100
AcDbLine
 10
771.9135896688588
 20
960.2844124337861
 30
0.0
 11
774.3131241060822
 21
997.5786162322823
 31
0.0
  0
VIEWPORT
  5
DA
102
{ACAD_XDICTIONARY
360
AD6
102
}
330
C
100
AcDbEntity
 67
     1
  8
0
100
AcDbViewport
 10
420.5071835950612
 20
297.0009369707932
 30
0.0
 40
848.880193293653
 41
633.6711302051212
 68
     1
 69
     1
 12
420.5071835950612
 22
297.0009369707932
 13
0.0
 23
0.0
 14
10.0
 24
10.0
 15
10.0
 25
10.0
 16
0.0
 26
0.0
 36
1.0
 17
0.0
 27
0.0
 37
0.0
 42
50.0
 43
0.0
 44
0.0
 45
633.6711302051212
 50
0.0
 51
0.0
 72
  1000
 90
    32864
  1

281
     0
 71
     1
 74
     0
110
0.0
120
0.0
130
0.0
111
1.0
121
0.0
131
0.0
112
0.0
122
1.0
132
0.0
 79
     0
146
0.0
  0
ENDSEC
  0
SECTION
  2
OBJECTS
  0
DICTIONARY
  5
7
330
0
100
AcDbDictionary
281
     1
  3
ACAD_COLOR
350
DE
  3
ACAD_GROUP
350
20
  3
ACAD_LAYOUT
350
B
  3
ACAD_MATERIAL
350
DD
  3
ACAD_MLINESTYLE
350
21
  3
ACAD_PLOTSETTINGS
350
22
  3
ACAD_PLOTSTYLENAME
350
6
  3
ACDBHEADERROUNDTRIPXREC
350
ACF
  3
AcDbVariableDictionary
350
115
  0
DICTIONARY
  5
1A3
330
10
100
AcDbDictionary
280
     1
281
     1
  3
ACAD_LAYERSTATES
360
1A4
  0
DICTIONARY
  5
AD6
330
DA
100
AcDbDictionary
280
     1
281
     1
  3
ACAD_XREC_ROUNDTRIP
360
AD7
  0
DICTIONARY
  5
DE
102
{ACAD_REACTORS
330
7
102
}
330
7
100
AcDbDictionary
281
     1
  0
DICTIONARY
  5
20
102
{ACAD_REACTORS
330
7
102
}
330
7
100
AcDbDictionary
281
     1
  0
DICTIONARY
  5
B
102
{ACAD_REACTORS
330
7
102
}
330
7
100
AcDbDictionary
281
     1
  3
JIS A1 Title Block
350
F
  3
Model
350
A
  0
DICTIONARY
  5
DD
102
{ACAD_REACTORS
330
7
102
}
330
7
100
AcDbDictionary
281
     1
  0
DICTIONARY
  5
21
102
{ACAD_REACTORS
330
7
102
}
330
7
100
AcDbDictionary
281
     1
  3
Standard
350
23
  0
DICTIONARY
  5
22
102
{ACAD_REACTORS
330
7
102
}
330
7
100
AcDbDictionary
281
     1
  0
ACDBDICTIONARYWDFLT
  5
6
102
{ACAD_REACTORS
330
7
102
}
330
7
100
AcDbDictionary
281
     1
  3
Normal
350
5
100
AcDbDictionaryWithDefault
340
5
  0
DICTIONARY
  5
ACF
102
{ACAD_REACTORS
330
7
102
}
330
7
100
AcDbDictionary
281
     1
  3
COLORDICT
350
AD1
  3
MATERIALDICT
350
AD0
  0
DICTIONARY
  5
115
102
{ACAD_REACTORS
330
7
102
}
330
7
100
AcDbDictionary
281
     1
  3
DIMASSOC
350
116
  3
PROJECTNAME
350
117
  0
DICTIONARY
  5
1A4
102
{ACAD_REACTORS
330
1A3
102
}
330
1A3
100
AcDbDictionary
281
     1
  0
XRECORD
  5
AD7
102
{ACAD_REACTORS
330
AD6
102
}
330
AD6
100
AcDbXrecord
280
     1
102
SHADEPLOT
 70
     0
  0
LAYOUT
  5
F
102
{ACAD_XDICTIONARY
360
AD4
102
}
102
{ACAD_REACTORS
330
B
102
}
330
B
100
AcDbPlotSettings
  1

  2
none_device
  4
ISO_A1_(594.00_x_841.00_MM)
  6

 40
7.549999999999998
 41
20.05
 42
7.549999999999998
 43
20.05
 44
594.0
 45
841.0
 46
-7.559999999999997
 47
-20.07
 48
0.0
 49
0.0
140
0.0
141
0.0
142
1.0
143
1.0
 70
   692
 72
     1
 73
     1
 74
     1
  7

 75
    16
147
1.0
148
0.0128164049386896
149
0.0090630292066862
100
AcDbLayout
  1
JIS A1 Title Block
 70
     1
 71
     1
 10
0.0071835950613099
 20
0.0009369707933136
 11
841.0071835950612
 21
594.0009369707931
 12
0.0
 22
0.0
 32
0.0
 14
1.000000000000000E+20
 24
1.000000000000000E+20
 34
1.000000000000000E+20
 15
-1.000000000000000E+20
 25
-1.000000000000000E+20
 35
-1.000000000000000E+20
146
0.0
 13
0.0
 23
0.0
 33
0.0
 16
1.0
 26
0.0
 36
0.0
 17
0.0
 27
1.0
 37
0.0
 76
     0
330
C
331
DA
  0
LAYOUT
  5
A
102
{ACAD_XDICTIONARY
360
AD2
102
}
102
{ACAD_REACTORS
330
B
102
}
330
B
100
AcDbPlotSettings
  1

  2
none_device
  4
ANSI_A_(8.50_x_11.00_Inches)
  6

 40
6.349999904632567
 41
19.04999923706055
 42
6.350006103515625
 43
19.04998779296875
 44
215.8999938964844
 45
279.3999938964844
 46
28.79458090408706
 47
17.57028564415653
 48
0.0
 49
0.0
140
0.0
141
0.0
142
1.0
143
103.6285708313174
 70
 11956
 72
     0
 73
     1
 74
     1
  7

 75
     0
147
0.0096498484151418
148
1.303736702137707
149
0.9208318680958655
100
AcDbLayout
  1
Model
 70
     1
 71
     0
 10
0.0
 20
0.0
 11
12.0
 21
9.0
 12
0.0
 22
0.0
 32
0.0
 14
0.0
 24
0.0
 34
0.0
 15
0.0
 25
0.0
 35
0.0
146
0.0
 13
0.0
 23
0.0
 33
0.0
 16
1.0
 26
0.0
 36
0.0
 17
0.0
 27
1.0
 37
0.0
 76
     0
330
2
  0
MLINESTYLE
  5
23
102
{ACAD_REACTORS
330
21
102
}
330
21
100
AcDbMlineStyle
  2
STANDARD
 70
     0
  3

 62
   256
 51
90.0
 52
90.0
 71
     2
 49
0.5
 62
   256
  6
BYLAYER
 49
-0.5
 62
   256
  6
BYLAYER
  0
ACDBPLACEHOLDER
  5
5
102
{ACAD_REACTORS
330
6
102
}
330
6
  0
XRECORD
  5
AD1
102
{ACAD_REACTORS
330
ACF
102
}
330
ACF
100
AcDbXrecord
280
     1
340
DE
  0
XRECORD
  5
AD0
102
{ACAD_REACTORS
330
ACF
102
}
330
ACF
100
AcDbXrecord
280
     1
340
DD
  0
DICTIONARYVAR
  5
116
102
{ACAD_REACTORS
330
115
102
}
330
115
100
DictionaryVariables
280
     0
  1
1
  0
DICTIONARYVAR
  5
117
102
{ACAD_REACTORS
330
115
102
}
330
115
100
DictionaryVariables
280
     0
  1

  0
DICTIONARY
  5
AD4
330
F
100
AcDbDictionary
280
     1
281
     1
  3
ACAD_XREC_ROUNDTRIP
360
AD5
  0
DICTIONARY
  5
AD2
330
A
100
AcDbDictionary
280
     1
281
     1
  3
ACAD_XREC_ROUNDTRIP
360
AD3
  0
XRECORD
  5
AD5
102
{ACAD_REACTORS
330
AD4
102
}
330
AD4
100
AcDbXrecord
280
     1
102
SHADEPLOT
 70
     0
102
SHADEPLOTRESLEVEL
 70
     2
102
SHADEPLOTCUSTOMDPI
 70
   300
  0
XRECORD
  5
AD3
102
{ACAD_REACTORS
330
AD2
102
}
330
AD2
100
AcDbXrecord
280
     1
102
SHADEPLOT
 70
     0
102
SHADEPLOTRESLEVEL
 70
     2
102
SHADEPLOTCUSTOMDPI
 70
   300
  0
ENDSEC
  0
EOF
