  0
SECTION
  2
HEADER
  9
$ACADVER
  1
AC1015
  9
$ACADMAINTVER
 70
    20
  9
$DWGCODEPAGE
  3
ANSI_936
  9
$INSBASE
 10
0.0
 20
0.0
 30
0.0
  9
$EXTMIN
 10
-0.0976275629336669
 20
-0.0732206722004776
 30
-0.000000000000013
  9
$EXTMAX
 10
1600.097677857479
 20
1200.073258393109
 30
0.0000000000000023
  9
$LIMMIN
 10
0.0
 20
0.0
  9
$LIMMAX
 10
420.0
 20
297.0
  9
$ORTHOMODE
 70
     0
  9
$REGENMODE
 70
     1
  9
$FILLMODE
 70
     1
  9
$QTEXTMODE
 70
     0
  9
$MIRRTEXT
 70
     0
  9
$LTSCALE
 40
1.0
  9
$ATTMODE
 70
     1
  9
$TEXTSIZE
 40
2.5
  9
$TRACEWID
 40
1.0
  9
$TEXTSTYLE
  7
Standard
  9
$CLAYER
  8
0
  9
$CELTYPE
  6
ByLayer
  9
$CECOLOR
 62
   256
  9
$CELTSCALE
 40
1.0
  9
$DISPSILH
 70
     0
  9
$DIMSCALE
 40
1.0
  9
$DIMASZ
 40
2.5
  9
$DIMEXO
 40
1.0
  9
$DIMDLI
 40
7.0
  9
$DIMRND
 40
0.0
  9
$DIMDLE
 40
0.0
  9
$DIMEXE
 40
1.0
  9
$DIMTP
 40
0.0
  9
$DIMTM
 40
0.0
  9
$DIMTXT
 40
2.5
  9
$DIMCEN
 40
0.0
  9
$DIMTSZ
 40
0.0
  9
$DIMTOL
 70
     0
  9
$DIMLIM
 70
     0
  9
$DIMTIH
 70
     0
  9
$DIMTOH
 70
     0
  9
$DIMSE1
 70
     0
  9
$DIMSE2
 70
     0
  9
$DIMTAD
 70
     1
  9
$DIMZIN
 70
     8
  9
$DIMBLK
  1

  9
$DIMASO
 70
     1
  9
$DIMSHO
 70
     1
  9
$DIMPOST
  1

  9
$DIMAPOST
  1

  9
$DIMALT
 70
     0
  9
$DIMALTD
 70
     2
  9
$DIMALTF
 40
0.0394
  9
$DIMLFAC
 40
1.0
  9
$DIMTOFL
 70
     1
  9
$DIMTVP
 40
0.0
  9
$DIMTIX
 70
     1
  9
$DIMSOXD
 70
     1
  9
$DIMSAH
 70
     0
  9
$DIMBLK1
  1

  9
$DIMBLK2
  1

  9
$DIMSTYLE
  2
JIS
  9
$DIMCLRD
 70
     0
  9
$DIMCLRE
 70
     0
  9
$DIMCLRT
 70
     0
  9
$DIMTFAC
 40
1.0
  9
$DIMGAP
 40
0.0
  9
$DIMJUST
 70
     0
  9
$DIMSD1
 70
     0
  9
$DIMSD2
 70
     0
  9
$DIMTOLJ
 70
     1
  9
$DIMTZIN
 70
     0
  9
$DIMALTZ
 70
     0
  9
$DIMALTTZ
 70
     0
  9
$DIMUPT
 70
     0
  9
$DIMDEC
 70
     4
  9
$DIMTDEC
 70
     4
  9
$DIMALTU
 70
     2
  9
$DIMALTTD
 70
     2
  9
$DIMTXSTY
  7
Standard
  9
$DIMAUNIT
 70
     0
  9
$DIMADEC
 70
     0
  9
$DIMALTRND
 40
0.0
  9
$DIMAZIN
 70
     0
  9
$DIMDSEP
 70
    46
  9
$DIMATFIT
 70
     3
  9
$DIMFRAC
 70
     0
  9
$DIMLDRBLK
  1

  9
$DIMLUNIT
 70
     2
  9
$DIMLWD
 70
    -2
  9
$DIMLWE
 70
    -2
  9
$DIMTMOVE
 70
     0
  9
$LUNITS
 70
     2
  9
$LUPREC
 70
     4
  9
$SKETCHINC
 40
1.0
  9
$FILLETRAD
 40
0.0
  9
$AUNITS
 70
     0
  9
$AUPREC
 70
     0
  9
$MENU
  1
.
  9
$ELEVATION
 40
0.0
  9
$PELEVATION
 40
0.0
  9
$THICKNESS
 40
0.0
  9
$LIMCHECK
 70
     0
  9
$CHAMFERA
 40
0.0
  9
$CHAMFERB
 40
0.0
  9
$CHAMFERC
 40
0.0
  9
$CHAMFERD
 40
0.0
  9
$SKPOLY
 70
     0
  9
$TDCREATE
 40
2455955.017649734
  9
$TDUCREATE
 40
2455954.684316401
  9
$TDUPDATE
 40
2456193.628503507
  9
$TDUUPDATE
 40
2456193.295170174
  9
$TDINDWG
 40
0.0575309144
  9
$TDUSRTIMER
 40
0.0575251273
  9
$USRTIMER
 70
     1
  9
$ANGBASE
 50
0.0
  9
$ANGDIR
 70
     0
  9
$PDMODE
 70
     0
  9
$PDSIZE
 40
0.0
  9
$PLINEWID
 40
0.0
  9
$SPLFRAME
 70
     0
  9
$SPLINETYPE
 70
     6
  9
$SPLINESEGS
 70
   100
  9
$HANDSEED
  5
9DD
  9
$SURFTAB1
 70
     6
  9
$SURFTAB2
 70
     6
  9
$SURFTYPE
 70
     6
  9
$SURFU
 70
     6
  9
$SURFV
 70
     6
  9
$UCSBASE
  2

  9
$UCSNAME
  2

  9
$UCSORG
 10
0.0
 20
0.0
 30
0.0
  9
$UCSXDIR
 10
1.0
 20
0.0
 30
0.0
  9
$UCSYDIR
 10
0.0
 20
1.0
 30
0.0
  9
$UCSORTHOREF
  2

  9
$UCSORTHOVIEW
 70
     0
  9
$UCSORGTOP
 10
0.0
 20
0.0
 30
0.0
  9
$UCSORGBOTTOM
 10
0.0
 20
0.0
 30
0.0
  9
$UCSORGLEFT
 10
0.0
 20
0.0
 30
0.0
  9
$UCSORGRIGHT
 10
0.0
 20
0.0
 30
0.0
  9
$UCSORGFRONT
 10
0.0
 20
0.0
 30
0.0
  9
$UCSORGBACK
 10
0.0
 20
0.0
 30
0.0
  9
$PUCSBASE
  2

  9
$PUCSNAME
  2

  9
$PUCSORG
 10
0.0
 20
0.0
 30
0.0
  9
$PUCSXDIR
 10
1.0
 20
0.0
 30
0.0
  9
$PUCSYDIR
 10
0.0
 20
1.0
 30
0.0
  9
$PUCSORTHOREF
  2

  9
$PUCSORTHOVIEW
 70
     0
  9
$PUCSORGTOP
 10
0.0
 20
0.0
 30
0.0
  9
$PUCSORGBOTTOM
 10
0.0
 20
0.0
 30
0.0
  9
$PUCSORGLEFT
 10
0.0
 20
0.0
 30
0.0
  9
$PUCSORGRIGHT
 10
0.0
 20
0.0
 30
0.0
  9
$PUCSORGFRONT
 10
0.0
 20
0.0
 30
0.0
  9
$PUCSORGBACK
 10
0.0
 20
0.0
 30
0.0
  9
$USERI1
 70
     0
  9
$USERI2
 70
     0
  9
$USERI3
 70
     0
  9
$USERI4
 70
     0
  9
$USERI5
 70
     0
  9
$USERR1
 40
0.0
  9
$USERR2
 40
0.0
  9
$USERR3
 40
0.0
  9
$USERR4
 40
0.0
  9
$USERR5
 40
0.0
  9
$WORLDVIEW
 70
     1
  9
$SHADEDGE
 70
     3
  9
$SHADEDIF
 70
    70
  9
$TILEMODE
 70
     1
  9
$MAXACTVP
 70
    64
  9
$PINSBASE
 10
0.0
 20
0.0
 30
0.0
  9
$PLIMCHECK
 70
     0
  9
$PEXTMIN
 10
1.000000000000000E+20
 20
1.000000000000000E+20
 30
1.000000000000000E+20
  9
$PEXTMAX
 10
-1.000000000000000E+20
 20
-1.000000000000000E+20
 30
-1.000000000000000E+20
  9
$PLIMMIN
 10
0.0071835950613099
 20
0.0009369707933136
  9
$PLIMMAX
 10
841.0071835950612
 20
594.0009369707931
  9
$UNITMODE
 70
     0
  9
$VISRETAIN
 70
     1
  9
$PLINEGEN
 70
     0
  9
$PSLTSCALE
 70
     1
  9
$TREEDEPTH
 70
  3020
  9
$CMLSTYLE
  2
Standard
  9
$CMLJUST
 70
     0
  9
$CMLSCALE
 40
20.0
  9
$PROXYGRAPHICS
 70
     1
  9
$MEASUREMENT
 70
     1
  9
$CELWEIGHT
370
    -1
  9
$ENDCAPS
280
     0
  9
$JOINSTYLE
280
     0
  9
$LWDISPLAY
290
     1
  9
$INSUNITS
 70
     4
  9
$HYPERLINKBASE
  1

  9
$STYLESHEET
  1

  9
$XEDIT
290
     1
  9
$CEPSNTYPE
380
     0
  9
$PSTYLEMODE
290
     1
  9
$FINGERPRINTGUID
  2
{048D7354-A980-11D2-9A39-0060089B3A3F}
  9
$VERSIONGUID
  2
{8B54A67F-65E1-43F9-8847-40A6E3CC308C}
  9
$EXTNAMES
290
     1
  9
$PSVPSCALE
 40
0.0
  9
$OLESTARTUP
290
     0
  0
ENDSEC
  0
SECTION
  2
CLASSES
  0
CLASS
  1
ACDBDICTIONARYWDFLT
  2
AcDbDictionaryWithDefault
  3
ObjectDBX Classes
 90
        0
280
     0
281
     0
  0
CLASS
  1
ACDBPLACEHOLDER
  2
AcDbPlaceHolder
  3
ObjectDBX Classes
 90
        0
280
     0
281
     0
  0
CLASS
  1
LAYOUT
  2
AcDbLayout
  3
ObjectDBX Classes
 90
        0
280
     0
281
     0
  0
CLASS
  1
PLOTSETTINGS
  2
AcDbPlotSettings
  3
ObjectDBX Classes
 90
    32768
280
     0
281
     0
  0
CLASS
  1
DICTIONARYVAR
  2
AcDbDictionaryVar
  3
ObjectDBX Classes
 90
        0
280
     0
281
     0
  0
ENDSEC
  0
SECTION
  2
TABLES
  0
TABLE
  2
VPORT
  5
19
330
0
100
AcDbSymbolTable
 70
     2
  0
VPORT
  5
9D3
330
19
100
AcDbSymbolTableRecord
100
AcDbViewportTableRecord
  2
*Active
 70
     0
 10
0.0
 20
0.0
 11
1.0
 21
1.0
 12
800.0000209810115
 22
600.0000170118
 13
0.0
 23
0.0
 14
10.0
 24
10.0
 15
10.0
 25
10.0
 16
0.0
 26
0.0
 36
1.0
 17
0.0
 27
0.0
 37
0.0
 40
1273.512325414425
 41
2.293805309734513
 42
50.0
 43
0.0
 44
0.0
 50
0.0
 51
0.0
 71
     0
 72
  2000
 73
     1
 74
     3
 75
     0
 76
     0
 77
     0
 78
     0
281
     0
 65
     1
110
0.0
120
0.0
130
0.0
111
1.0
121
0.0
131
0.0
112
0.0
122
1.0
132
0.0
 79
     0
146
0.0
  0
ENDTAB
  0
TABLE
  2
LTYPE
  5
14
330
0
100
AcDbSymbolTable
 70
     1
  0
LTYPE
  5
15
330
14
100
AcDbSymbolTableRecord
100
AcDbLinetypeTableRecord
  2
ByBlock
 70
     0
  3

 72
    65
 73
     0
 40
0.0
  0
LTYPE
  5
16
330
14
100
AcDbSymbolTableRecord
100
AcDbLinetypeTableRecord
  2
ByLayer
 70
     0
  3

 72
    65
 73
     0
 40
0.0
  0
LTYPE
  5
8
330
14
100
AcDbSymbolTableRecord
100
AcDbLinetypeTableRecord
  2
Continuous
 70
     0
  3
Solid line
 72
    65
 73
     0
 40
0.0
  0
ENDTAB
  0
TABLE
  2
LAYER
  5
10
102
{ACAD_XDICTIONARY
360
1A3
102
}
330
0
100
AcDbSymbolTable
 70
     4
  0
LAYER
  5
4
330
10
100
AcDbSymbolTableRecord
100
AcDbLayerTableRecord
  2
0
 70
     0
 62
     7
  6
Continuous
370
    -3
390
5
  0
LAYER
  5
28
330
10
100
AcDbSymbolTableRecord
100
AcDbLayerTableRecord
  2
Object
 70
     0
 62
     7
  6
Continuous
370
    -3
390
5
  0
LAYER
  5
1A2
330
10
100
AcDbSymbolTableRecord
100
AcDbLayerTableRecord
  2
TOPOVERLAY
 70
     0
 62
     2
  6
Continuous
370
    -3
390
5
  0
LAYER
  5
7CA
330
10
100
AcDbSymbolTableRecord
100
AcDbLayerTableRecord
  2
6-家具-143
 70
     0
 62
   143
  6
Continuous
370
    -3
390
5
  0
ENDTAB
  0
TABLE
  2
STYLE
  5
11
330
0
100
AcDbSymbolTable
 70
     2
  0
STYLE
  5
12
330
11
100
AcDbSymbolTableRecord
100
AcDbTextStyleTableRecord
  2
Standard
 70
     0
 40
0.0
 41
1.0
 50
0.0
 71
     0
 42
2.5
  3
txt
  4

  0
STYLE
  5
2E
330
11
100
AcDbSymbolTableRecord
100
AcDbTextStyleTableRecord
  2
Roman
 70
     0
 40
0.0
 41
1.0
 50
0.0
 71
     0
 42
5.0
  3
romans
  4
bigfont
  0
ENDTAB
  0
TABLE
  2
VIEW
  5
17
330
0
100
AcDbSymbolTable
 70
     0
  0
ENDTAB
  0
TABLE
  2
UCS
  5
18
330
0
100
AcDbSymbolTable
 70
     0
  0
ENDTAB
  0
TABLE
  2
APPID
  5
1B
330
0
100
AcDbSymbolTable
 70
     1
  0
APPID
  5
1C
330
1B
100
AcDbSymbolTableRecord
100
AcDbRegAppTableRecord
  2
ACAD
 70
     0
  0
ENDTAB
  0
TABLE
  2
DIMSTYLE
  5
1D
330
0
100
AcDbSymbolTable
 70
     1
100
AcDbDimStyleTable
 71
     1
340
1E
  0
DIMSTYLE
105
1E
330
1D
100
AcDbSymbolTableRecord
100
AcDbDimStyleTableRecord
  2
JIS
 70
     0
 41
2.5
 42
1.0
 43
7.0
 44
1.0
 73
     0
 74
     0
 77
     1
 78
     8
140
2.5
141
0.0
143
0.0394
147
0.0
172
     1
174
     1
175
     1
340
12
  0
ENDTAB
  0
TABLE
  2
BLOCK_RECORD
  5
1
330
0
100
AcDbSymbolTable
 70
     1
  0
BLOCK_RECORD
  5
2
330
1
100
AcDbSymbolTableRecord
100
AcDbBlockTableRecord
  2
*Model_Space
340
A
  0
BLOCK_RECORD
  5
C
330
1
100
AcDbSymbolTableRecord
100
AcDbBlockTableRecord
  2
*Paper_Space
340
F
  0
ENDTAB
  0
ENDSEC
  0
SECTION
  2
BLOCKS
  0
BLOCK
  5
3
330
2
100
AcDbEntity
  8
0
100
AcDbBlockBegin
  2
*Model_Space
 70
     2
 10
0.0
 20
0.0
 30
0.0
  3
*Model_Space
  1

  0
ENDBLK
  5
9
330
2
100
AcDbEntity
  8
0
100
AcDbBlockEnd
  0
BLOCK
  5
D
330
C
100
AcDbEntity
 67
     1
  8
0
100
AcDbBlockBegin
  2
*Paper_Space
 70
     0
 10
0.0
 20
0.0
 30
0.0
  3
*Paper_Space
  1

  0
ENDBLK
  5
E
330
C
100
AcDbEntity
 67
     1
  8
0
100
AcDbBlockEnd
  0
ENDSEC
  0
SECTION
  2
ENTITIES
  0
LINE
  5
14F
330
2
100
AcDbEntity
  8
0
100
AcDbLine
 10
0.0
 20
0.0
 30
0.0
 11
1600.0
 21
0.0
 31
0.0
  0
LINE
  5
150
330
2
100
AcDbEntity
  8
0
100
AcDbLine
 10
1600.0
 20
0.0
 30
0.0
 11
1600.0
 21
1200.0
 31
0.0
  0
LINE
  5
151
330
2
100
AcDbEntity
  8
0
100
AcDbLine
 10
1600.0
 20
1200.0
 30
0.0
 11
0.0
 21
1200.0
 31
0.0
  0
LINE
  5
152
330
2
100
AcDbEntity
  8
0
100
AcDbLine
 10
0.0
 20
1200.0
 30
0.0
 11
0.0
 21
0.0
 31
0.0
  0
LINE
  5
24D
330
2
100
AcDbEntity
  8
0
 62
     5
370
    35
100
AcDbLine
 10
146.8773759648378
 20
134.2453454679304
 30
0.0
 11
146.8773759648378
 21
1100.245345467943
 31
0.0
  0
LINE
  5
24E
330
2
100
AcDbEntity
  8
0
 62
     5
370
    35
100
AcDbLine
 10
146.8773759648378
 20
1100.245345467943
 30
0.0
 11
1462.87737596485
 21
1100.245345467943
 31
0.0
  0
LINE
  5
24F
330
2
100
AcDbEntity
  8
0
 62
     5
370
    35
100
AcDbLine
 10
1462.87737596485
 20
134.2453454679304
 30
0.0
 11
1462.87737596485
 21
1100.245345467943
 31
0.0
  0
LINE
  5
250
330
2
100
AcDbEntity
  8
0
 62
     5
370
    35
100
AcDbLine
 10
146.8773759648378
 20
134.2453454679304
 30
0.0
 11
1462.87737596485
 21
134.2453454679304
 31
0.0
  0
ARC
  5
253
330
2
100
AcDbEntity
  8
0
 62
    56
100
AcDbCircle
 10
401.2681708086422
 20
628.4567916576502
 30
0.0
 40
86.57756336906864
100
AcDbArc
 50
93.76815435825868
 51
266.2318456417413
  0
LINE
  5
254
330
2
100
AcDbEntity
  8
0
 62
    56
100
AcDbLine
 10
470.1374477329405
 20
628.3583971343634
 30
0.0
 11
499.3982512737052
 21
628.3583971343634
 31
0.0
  0
LINE
  5
255
330
2
100
AcDbEntity
  8
0
 62
   250
370
   100
100
AcDbLine
 10
527.8635948504152
 20
628.2835470220474
 30
0.0
 11
587.9718373885777
 21
628.2835470220474
 31
0.0
  0
LINE
  5
256
330
2
100
AcDbEntity
  8
TOPOVERLAY
  6
Continuous
 62
   250
370
   100
100
AcDbLine
 10
541.4356581651294
 20
585.0814711308552
 30
0.0
 11
587.6442963840311
 21
614.4695149158027
 31
0.0
  0
LINE
  5
257
330
2
100
AcDbEntity
  8
0
 62
    56
100
AcDbLine
 10
604.2264970840532
 20
628.4012180692907
 30
0.0
 11
658.7775067137572
 21
628.4012180692907
 31
0.0
  0
CIRCLE
  5
25A
330
2
100
AcDbEntity
  8
0
 62
   252
100
AcDbCircle
 10
849.8347280698894
 20
544.8099052881846
 30
0.0
 40
20.66015533163439
  0
CIRCLE
  5
25B
330
2
100
AcDbEntity
  8
0
 62
   252
100
AcDbCircle
 10
896.2810363508351
 20
544.8099052881846
 30
0.0
 40
20.66015533163439
  0
LINE
  5
25C
330
2
100
AcDbEntity
  8
0
 62
   252
100
AcDbLine
 10
846.0386689126329
 20
572.6575850725935
 30
0.0
 11
846.0386689126329
 21
590.4449980898156
 31
0.0
  0
LINE
  5
25D
330
2
100
AcDbEntity
  8
0
 62
   252
100
AcDbLine
 10
851.7095168752783
 20
569.7441298102651
 30
0.0
 11
851.7095168752783
 21
587.5315428273284
 31
0.0
  0
LINE
  5
25E
330
2
100
AcDbEntity
  8
0
 62
   252
100
AcDbLine
 10
840.3678256780167
 20
583.0846877287699
 30
0.0
 11
859.9858798658585
 21
574.651003384211
 31
0.0
  0
LINE
  5
25F
330
2
100
AcDbEntity
  8
0
 62
   252
100
AcDbLine
 10
891.6408484796201
 20
571.4311248843483
 30
0.0
 11
891.6408484796201
 21
589.2185379015702
 31
0.0
  0
LINE
  5
260
330
2
100
AcDbEntity
  8
0
 62
   252
100
AcDbLine
 10
897.3116964422823
 20
568.5176696219882
 30
0.0
 11
897.3116964422823
 21
586.3050826390831
 31
0.0
  0
LINE
  5
261
330
2
100
AcDbEntity
  8
0
 62
   252
100
AcDbLine
 10
885.9700052450161
 20
581.8582275404926
 30
0.0
 11
905.5880594328653
 21
573.4245431959656
 31
0.0
  0
LINE
  5
262
330
2
100
AcDbEntity
  8
0
 62
   252
100
AcDbLine
 10
811.4020209092316
 20
547.0627865766075
 30
0.0
 11
938.3176685414612
 21
547.0627865766075
 31
0.0
  0
CIRCLE
  5
263
330
2
100
AcDbEntity
  8
0
 62
   252
100
AcDbCircle
 10
846.4638490603672
 20
689.8273729904121
 30
0.0
 40
20.66015533163439
  0
CIRCLE
  5
264
330
2
100
AcDbEntity
  8
0
 62
   252
100
AcDbCircle
 10
892.9101573412921
 20
689.8273729904121
 30
0.0
 40
20.66015533163439
  0
LINE
  5
265
330
2
100
AcDbEntity
  8
0
 62
   252
100
AcDbLine
 10
842.6677899030917
 20
717.6750527748207
 30
0.0
 11
842.6677899030917
 21
735.4624657919162
 31
0.0
  0
LINE
  5
266
330
2
100
AcDbEntity
  8
0
 62
   252
100
AcDbLine
 10
848.3386378657456
 20
714.761597512334
 30
0.0
 11
848.3386378657456
 21
732.549010529556
 31
0.0
  0
LINE
  5
267
330
2
100
AcDbEntity
  8
0
 62
   252
100
AcDbLine
 10
836.9969466684873
 20
728.1021554308705
 30
0.0
 11
856.6150008563175
 21
719.6684710864705
 31
0.0
  0
LINE
  5
268
330
2
100
AcDbEntity
  8
0
 62
   252
100
AcDbLine
 10
888.2699694700912
 20
716.448592586576
 30
0.0
 11
888.2699694700912
 21
734.2360056036708
 31
0.0
  0
LINE
  5
269
330
2
100
AcDbEntity
  8
0
 62
   252
100
AcDbLine
 10
893.9408174327452
 20
713.5351373240884
 30
0.0
 11
893.9408174327452
 21
731.3225503413426
 31
0.0
  0
LINE
  5
26A
330
2
100
AcDbEntity
  8
0
 62
   252
100
AcDbLine
 10
882.5991262354792
 20
726.8756952426248
 30
0.0
 11
902.2171804233362
 21
718.442010898098
 31
0.0
  0
LINE
  5
26B
330
2
100
AcDbEntity
  8
0
 62
   252
100
AcDbLine
 10
808.0311418997078
 20
692.0802542788354
 30
0.0
 11
934.9467895319213
 21
692.0802542788354
 31
0.0
  0
LINE
  5
26C
330
2
100
AcDbEntity
  8
0
 62
    56
100
AcDbLine
 10
294.9873178741801
 20
240.3176229270147
 30
0.0
 11
294.9595074320472
 21
1017.926882565553
 31
0.0
  0
ARC
  5
26E
330
2
100
AcDbEntity
  8
0
 62
    56
100
AcDbCircle
 10
714.0263533355915
 20
629.3287134877487
 30
0.0
 40
86.57756336906864
100
AcDbArc
 50
273.7681543582587
 51
86.23184564174131
  0
LINE
  5
26F
330
2
100
AcDbEntity
  8
0
 62
    56
100
AcDbLine
 10
973.9539700263961
 20
625.1124834942498
 30
0.0
 11
973.9539700263961
 21
501.1746429232616
 31
0.0
  0
LINE
  5
270
330
2
100
AcDbEntity
  8
0
 62
    56
100
AcDbLine
 10
973.9539700263961
 20
501.1746429232616
 30
0.0
 11
906.4579844358259
 21
501.1746429232616
 31
0.0
  0
LINE
  5
271
330
2
100
AcDbEntity
  8
0
 62
    56
100
AcDbLine
 10
906.4579844358259
 20
501.1746429232616
 30
0.0
 11
906.4579844358259
 21
394.2070817623431
 31
0.0
  0
LINE
  5
272
330
2
100
AcDbEntity
  8
0
 62
    56
100
AcDbLine
 10
906.4579844358259
 20
394.2070817623431
 30
0.0
 11
934.4953215517596
 21
394.2070817623431
 31
0.0
  0
LINE
  5
273
330
2
100
AcDbEntity
  8
0
 62
    56
100
AcDbLine
 10
934.4953215517596
 20
380.8960846563837
 30
0.0
 11
934.4953215517596
 21
407.460580247544
 31
0.0
  0
LINE
  5
274
330
2
100
AcDbEntity
  8
0
 62
    56
100
AcDbLine
 10
940.8403907057147
 20
380.8960846563837
 30
0.0
 11
940.8403907057147
 21
407.460580247544
 31
0.0
  0
CIRCLE
  5
275
330
2
100
AcDbEntity
  8
0
 62
   250
370
    30
100
AcDbCircle
 10
1003.517714356422
 20
334.9398966850963
 30
0.0
 40
21.00918010397843
  0
CIRCLE
  5
279
330
2
100
AcDbEntity
  8
0
 62
     1
370
    30
100
AcDbCircle
 10
1003.455272873811
 20
394.3476714354988
 30
0.0
 40
21.00918010397843
  0
CIRCLE
  5
27D
330
2
100
AcDbEntity
  8
0
 62
   250
370
    30
100
AcDbCircle
 10
1003.455272873811
 20
451.0131016931476
 30
0.0
 40
21.00918010397843
  0
LINE
  5
281
330
2
100
AcDbEntity
  8
0
 62
    56
100
AcDbLine
 10
982.4460927698423
 20
394.3476714354988
 30
0.0
 11
940.8403907057147
 21
394.3476714354988
 31
0.0
  0
LINE
  5
282
330
2
100
AcDbEntity
  8
0
 62
    56
100
AcDbLine
 10
1024.464452977806
 20
394.3476714354988
 30
0.0
 11
1039.314395454069
 21
394.3476714354988
 31
0.0
  0
LINE
  5
283
330
2
100
AcDbEntity
  8
0
 62
    56
100
AcDbLine
 10
1039.388990038443
 20
379.3676202292459
 30
0.0
 11
1039.388990038443
 21
409.00459600814
 31
0.0
  0
LINE
  5
284
330
2
100
AcDbEntity
  8
0
 62
    56
100
AcDbLine
 10
1042.74302770237
 20
383.8706902995915
 30
0.0
 11
1042.74302770237
 21
403.1583864851246
 31
0.0
  0
LINE
  5
285
330
2
100
AcDbEntity
  8
0
 62
    56
100
AcDbLine
 10
1046.461012423949
 20
389.243690747517
 30
0.0
 11
1046.461012423949
 21
397.7853860371993
 31
0.0
  0
LINE
  5
286
330
2
100
AcDbEntity
  8
0
 62
    56
100
AcDbLine
 10
973.9539700263961
 20
625.1124834942498
 30
0.0
 11
973.9539700263961
 21
752.756677270245
 31
0.0
  0
LINE
  5
287
330
2
100
AcDbEntity
  8
0
 62
    56
100
AcDbLine
 10
973.9539700263961
 20
752.756677270245
 30
0.0
 11
905.6413493840961
 21
752.756677270245
 31
0.0
  0
LINE
  5
288
330
2
100
AcDbEntity
  8
0
 62
    56
100
AcDbLine
 10
905.6413493840961
 20
752.756677270245
 30
0.0
 11
905.6413493840961
 21
920.9552148575816
 31
0.0
  0
LINE
  5
289
330
2
100
AcDbEntity
  8
0
 62
    56
100
AcDbLine
 10
905.6413493840961
 20
920.9552148575816
 30
0.0
 11
942.2925948928883
 21
920.9552148575816
 31
0.0
  0
LINE
  5
28A
330
2
100
AcDbEntity
  8
0
 62
   250
370
    30
100
AcDbLine
 10
950.2989489221251
 20
845.5916548606225
 30
0.0
 11
1012.039857522575
 21
845.5916548606225
 31
0.0
  0
LINE
  5
28B
330
2
100
AcDbEntity
  8
0
 62
     3
370
    30
100
AcDbLine
 10
969.3382320053286
 20
803.5084767944718
 30
0.0
 11
1011.712316518024
 21
830.4615642773709
 31
0.0
  0
LINE
  5
28C
330
2
100
AcDbEntity
  8
0
 62
    56
100
AcDbLine
 10
934.9535364719052
 20
827.3457265659777
 30
0.0
 11
934.9535364719052
 21
858.7929572286345
 31
0.0
  0
LINE
  5
28D
330
2
100
AcDbEntity
  8
0
 62
    56
100
AcDbLine
 10
934.9535364719052
 20
842.1221343767278
 30
0.0
 11
905.6413493840961
 21
842.1221343767278
 31
0.0
  0
LINE
  5
28E
330
2
100
AcDbEntity
  8
0
 62
    56
100
AcDbLine
 10
1024.464452977806
 20
841.4595212865702
 30
0.0
 11
1039.314395454069
 21
841.4595212865702
 31
0.0
  0
LINE
  5
28F
330
2
100
AcDbEntity
  8
0
 62
    56
100
AcDbLine
 10
1039.388990038443
 20
826.4794700803172
 30
0.0
 11
1039.388990038443
 21
856.1164458592115
 31
0.0
  0
LINE
  5
290
330
2
100
AcDbEntity
  8
0
 62
    56
100
AcDbLine
 10
1042.74302770237
 20
830.9825401507263
 30
0.0
 11
1042.74302770237
 21
850.2702363362281
 31
0.0
  0
LINE
  5
291
330
2
100
AcDbEntity
  8
0
 62
    56
100
AcDbLine
 10
1046.461012423949
 20
836.3555405986202
 30
0.0
 11
1046.461012423949
 21
844.8972358883024
 31
0.0
  0
LINE
  5
292
330
2
100
AcDbEntity
  8
0
 62
    56
370
    20
100
AcDbLine
 10
947.6868372289683
 20
911.4332543979623
 30
0.0
 11
1010.827803089492
 21
911.4332543979623
 31
0.0
  0
LINE
  5
293
330
2
100
AcDbEntity
  8
0
 62
    56
370
    20
100
AcDbLine
 10
1010.827803089492
 20
911.4332543979623
 30
0.0
 11
1010.827803089492
 21
930.5621469768404
 31
0.0
  0
LINE
  5
294
330
2
100
AcDbEntity
  8
0
 62
    56
370
    20
100
AcDbLine
 10
1010.827803089492
 20
930.5621469768404
 30
0.0
 11
947.6868372289683
 21
930.5621469768404
 31
0.0
  0
LINE
  5
295
330
2
100
AcDbEntity
  8
0
 62
    56
370
    20
100
AcDbLine
 10
947.6868372289683
 20
930.5621469768404
 30
0.0
 11
947.6868372289683
 21
911.4332543979623
 31
0.0
  0
LINE
  5
296
330
2
100
AcDbEntity
  8
0
 62
    56
370
    20
100
AcDbLine
 10
942.2925948928883
 20
920.9552148575816
 30
0.0
 11
957.1310260261633
 21
920.9552148575816
 31
0.0
  0
LINE
  5
297
330
2
100
AcDbEntity
  8
0
 62
    56
370
    20
100
AcDbLine
 10
957.1310260261633
 20
914.6058149412926
 30
0.0
 11
957.1310260261633
 21
927.30461477403
 31
0.0
  0
LINE
  5
298
330
2
100
AcDbEntity
  8
0
 62
    56
370
    20
100
AcDbLine
 10
957.1310260261633
 20
927.30461477403
 30
0.0
 11
992.8444137824833
 21
920.9552148575816
 31
0.0
  0
LINE
  5
299
330
2
100
AcDbEntity
  8
0
 62
    56
370
    20
100
AcDbLine
 10
957.1310260261633
 20
914.6058149412926
 30
0.0
 11
992.8444137824833
 21
920.9552148575816
 31
0.0
  0
LINE
  5
29A
330
2
100
AcDbEntity
  8
0
 62
    56
100
AcDbLine
 10
1024.575723114653
 20
921.1158627875423
 30
0.0
 11
1039.425665590903
 21
921.1158627875423
 31
0.0
  0
LINE
  5
29B
330
2
100
AcDbEntity
  8
0
 62
    56
100
AcDbLine
 10
1039.500260175289
 20
906.1358115812897
 30
0.0
 11
1039.500260175289
 21
935.7727873603113
 31
0.0
  0
LINE
  5
29C
330
2
100
AcDbEntity
  8
0
 62
    56
100
AcDbLine
 10
1042.854297839231
 20
910.6388816516666
 30
0.0
 11
1042.854297839231
 21
929.926577837328
 31
0.0
  0
LINE
  5
29D
330
2
100
AcDbEntity
  8
0
 62
    56
100
AcDbLine
 10
1046.572282560815
 20
916.0118820995927
 30
0.0
 11
1046.572282560815
 21
924.5535773894019
 31
0.0
  0
LINE
  5
29E
330
2
100
AcDbEntity
  8
0
 62
    56
100
AcDbLine
 10
800.5989484865619
 20
628.4012180692907
 30
0.0
 11
1085.671855937085
 21
628.4012180692907
 31
0.0
  0
CIRCLE
  5
29F
330
2
100
AcDbEntity
  8
0
 62
   250
370
    30
100
AcDbCircle
 10
1234.582622490346
 20
335.6770914340137
 30
0.0
 40
21.00918010397843
  0
CIRCLE
  5
2A3
330
2
100
AcDbEntity
  8
0
 62
   250
370
    30
100
AcDbCircle
 10
1234.520181007761
 20
395.0848661843843
 30
0.0
 40
21.00918010397843
  0
CIRCLE
  5
2A7
330
2
100
AcDbEntity
  8
0
 62
   250
370
    30
100
AcDbCircle
 10
1234.520181007761
 20
451.7502964421924
 30
0.0
 40
21.00918010397843
  0
CIRCLE
  5
2AB
330
2
100
AcDbEntity
  8
0
 62
   250
370
    30
100
AcDbCircle
 10
1137.685615453919
 20
578.5931509954439
 30
0.0
 40
21.00918010397843
  0
LINE
  5
2AE
330
2
100
AcDbEntity
  8
0
 62
   252
100
AcDbLine
 10
1094.57518754467
 20
261.2888166757517
 30
0.0
 11
1094.57518754467
 21
619.2495115365913
 31
0.0
  0
LINE
  5
2AF
330
2
100
AcDbEntity
  8
0
 62
   252
100
AcDbLine
 10
1094.57518754467
 20
619.2495115365913
 30
0.0
 11
1339.165136360506
 21
619.2495115365913
 31
0.0
  0
LINE
  5
2B0
330
2
100
AcDbEntity
  8
0
 62
   252
100
AcDbLine
 10
1339.165136360506
 20
619.2495115365913
 30
0.0
 11
1339.165136360506
 21
261.2888166757517
 31
0.0
  0
LINE
  5
2B1
330
2
100
AcDbEntity
  8
0
 62
   252
100
AcDbLine
 10
1339.165136360506
 20
261.2888166757517
 30
0.0
 11
1094.57518754467
 21
261.2888166757517
 31
0.0
  0
CIRCLE
  5
2B3
330
2
100
AcDbEntity
  8
0
 62
     1
370
    30
100
AcDbCircle
 10
1234.582622490346
 20
768.358341278077
 30
0.0
 40
21.00918010397843
  0
CIRCLE
  5
2B7
330
2
100
AcDbEntity
  8
0
 62
   250
370
    30
100
AcDbCircle
 10
1234.520181007761
 20
886.8995479778192
 30
0.0
 40
21.00918010397843
  0
LINE
  5
2B8
330
2
100
AcDbEntity
  8
0
 62
   250
370
    30
100
AcDbLine
 10
1221.017559352162
 20
871.3262743741145
 30
0.0
 11
1248.022798577847
 21
902.4728251238176
 31
0.0
  0
LINE
  5
2B9
330
2
100
AcDbEntity
  8
0
 62
   250
370
    30
100
AcDbLine
 10
1234.520181007761
 20
886.8995479778192
 30
0.0
 11
1221.954892414037
 21
903.2384942371871
 31
0.0
  0
LINE
  5
2BA
330
2
100
AcDbEntity
  8
0
 62
   250
370
    30
100
AcDbLine
 10
1234.520181007761
 20
886.8995479778192
 30
0.0
 11
1246.712678770662
 21
870.2805636342517
 31
0.0
  0
LINE
  5
2BB
330
2
100
AcDbEntity
  8
0
 62
   252
100
AcDbLine
 10
1094.57518754467
 20
653.1478911412072
 30
0.0
 11
1094.57518754467
 21
1011.108586001919
 31
0.0
  0
LINE
  5
2BC
330
2
100
AcDbEntity
  8
0
 62
   252
100
AcDbLine
 10
1094.57518754467
 20
1011.108586001919
 30
0.0
 11
1339.165136360506
 21
1011.108586001919
 31
0.0
  0
LINE
  5
2BD
330
2
100
AcDbEntity
  8
0
 62
   252
100
AcDbLine
 10
1339.165136360506
 20
1011.108586001919
 30
0.0
 11
1339.165136360506
 21
653.1478911412075
 31
0.0
  0
LINE
  5
2BE
330
2
100
AcDbEntity
  8
0
 62
   252
100
AcDbLine
 10
1339.165136360506
 20
653.1478911412075
 30
0.0
 11
1094.57518754467
 21
653.1478911412075
 31
0.0
  0
LINE
  5
2C1
330
2
100
AcDbEntity
  8
0
 62
   252
100
AcDbLine
 10
599.7926463441414
 20
796.0172651447789
 30
0.0
 11
636.104935636844
 21
821.9138351143877
 31
0.0
  0
LINE
  5
2C2
330
2
100
AcDbEntity
  8
0
 62
   252
100
AcDbLine
 10
601.6548179111188
 20
811.6557315550569
 30
0.0
 11
633.4979104466635
 21
833.6398903008328
 31
0.0
  0
LINE
  5
2C4
330
2
100
AcDbEntity
  8
0
 62
   252
100
AcDbLine
 10
636.2000600586878
 20
849.2813438231047
 30
0.0
 11
599.4059293878438
 21
824.0740703083114
 31
0.0
  0
LINE
  5
2C6
330
2
100
AcDbEntity
  8
0
 62
   252
100
AcDbLine
 10
659.3275608998866
 20
796.0172651447784
 30
0.0
 11
695.6398501925906
 21
821.9138351143874
 31
0.0
  0
LINE
  5
2C7
330
2
100
AcDbEntity
  8
0
 62
   252
100
AcDbLine
 10
661.1897324668648
 20
811.6557315550567
 30
0.0
 11
693.0328250024127
 21
833.6398903008332
 31
0.0
  0
LINE
  5
2C9
330
2
100
AcDbEntity
  8
0
 62
   252
100
AcDbLine
 10
695.734974614433
 20
849.2813438230722
 30
0.0
 11
658.9408439435697
 21
824.0740703082797
 31
0.0
  0
ARC
  5
2CA
330
2
100
AcDbEntity
  8
0
 62
    18
370
     0
100
AcDbCircle
 10
1139.286453494253
 20
767.3453875379626
 30
0.0
 40
14.46431580258922
100
AcDbArc
 50
96.35583041835197
 51
263.644169581648
  0
LINE
  5
2CB
330
2
100
AcDbEntity
  8
0
 62
    18
370
     0
100
AcDbLine
 10
1137.685213251165
 20
752.9699758457857
 30
0.0
 11
1151.510053583306
 21
752.9699758457857
 31
0.0
  0
LINE
  5
2CC
330
2
100
AcDbEntity
  8
0
 62
    18
370
     0
100
AcDbLine
 10
1137.685213251165
 20
781.7207992301703
 30
0.0
 11
1151.510053583306
 21
781.7207992301703
 31
0.0
  0
LINE
  5
2CD
330
2
100
AcDbEntity
  8
0
 62
    18
370
     0
100
AcDbLine
 10
1151.510053583306
 20
747.2938776490585
 30
0.0
 11
1151.510053583306
 21
787.4255459526518
 31
0.0
  0
LINE
  5
2CE
330
2
100
AcDbEntity
  8
0
 62
    18
370
     0
100
AcDbLine
 10
1151.510053583306
 20
747.2938776490585
 30
0.0
 11
1178.172928851987
 21
747.2938776490585
 31
0.0
  0
LINE
  5
2CF
330
2
100
AcDbEntity
  8
0
 62
    18
370
     0
100
AcDbLine
 10
1178.172928851987
 20
747.2938776490585
 30
0.0
 11
1178.172928851987
 21
787.4255459526518
 31
0.0
  0
LINE
  5
2D0
330
2
100
AcDbEntity
  8
0
 62
    18
370
     0
100
AcDbLine
 10
1178.172928851987
 20
787.4255459526518
 30
0.0
 11
1151.510053583306
 21
787.4255459526518
 31
0.0
  0
ARC
  5
2D1
330
2
100
AcDbEntity
  8
0
 62
    88
100
AcDbCircle
 10
1139.003241827325
 20
858.899169573338
 30
0.0
 40
14.46431580258922
100
AcDbArc
 50
96.35583041835197
 51
263.644169581648
  0
LINE
  5
2D2
330
2
100
AcDbEntity
  8
0
 62
    88
100
AcDbLine
 10
1137.402001584215
 20
873.421985177711
 30
0.0
 11
1151.226841916377
 21
873.421985177711
 31
0.0
  0
LINE
  5
2D3
330
2
100
AcDbEntity
  8
0
 62
    88
100
AcDbLine
 10
1151.226841916377
 20
867.7458869808249
 30
0.0
 11
1151.226841916377
 21
907.8775552845764
 31
0.0
  0
LINE
  5
2D4
330
2
100
AcDbEntity
  8
0
 62
    88
100
AcDbLine
 10
1151.226841916377
 20
867.7458869808249
 30
0.0
 11
1177.88971718507
 21
867.7458869808249
 31
0.0
  0
LINE
  5
2D5
330
2
100
AcDbEntity
  8
0
 62
    88
100
AcDbLine
 10
1177.88971718507
 20
867.7458869808249
 30
0.0
 11
1177.889717185057
 21
907.8775552845764
 31
0.0
  0
LINE
  5
2D6
330
2
100
AcDbEntity
  8
0
 62
    88
100
AcDbLine
 10
1177.88971718507
 20
907.8775552845764
 30
0.0
 11
1151.226841916377
 21
907.8775552845764
 31
0.0
  0
LINE
  5
2D7
330
2
100
AcDbEntity
  8
0
 62
   250
370
    30
100
AcDbLine
 10
665.8807654987732
 20
907.4940630177801
 30
0.0
 11
665.8807654987732
 21
945.7800229854225
 31
0.0
  0
LINE
  5
2D8
330
2
100
AcDbEntity
  8
0
 62
   250
370
    30
100
AcDbLine
 10
665.8807654987732
 20
945.7800229854225
 30
0.0
 11
689.6916630852606
 21
945.7800229854225
 31
0.0
  0
LINE
  5
2D9
330
2
100
AcDbEntity
  8
0
 62
   250
370
    30
100
AcDbLine
 10
689.6916630852606
 20
945.7800229854225
 30
0.0
 11
689.6916630852606
 21
907.4940630177801
 31
0.0
  0
LINE
  5
2DA
330
2
100
AcDbEntity
  8
0
 62
   250
370
    30
100
AcDbLine
 10
689.6916630852606
 20
907.4940630177801
 30
0.0
 11
665.8807654987732
 21
907.4940630177801
 31
0.0
  0
LINE
  5
2DB
330
2
100
AcDbEntity
  8
TOPOVERLAY
  6
Continuous
 62
     3
370
    30
100
AcDbLine
 10
606.3458509430277
 20
907.4940630177803
 30
0.0
 11
606.3458509430277
 21
945.7800229852642
 31
0.0
  0
LINE
  5
2DC
330
2
100
AcDbEntity
  8
TOPOVERLAY
  6
Continuous
 62
     3
370
    30
100
AcDbLine
 10
606.3458509430277
 20
945.7800229852642
 30
0.0
 11
630.1567485295541
 21
945.7800229852642
 31
0.0
  0
LINE
  5
2DD
330
2
100
AcDbEntity
  8
TOPOVERLAY
  6
Continuous
 62
     3
370
    30
100
AcDbLine
 10
630.1567485295541
 20
945.7800229852642
 30
0.0
 11
630.1567485295541
 21
907.4940630177803
 31
0.0
  0
LINE
  5
2DE
330
2
100
AcDbEntity
  8
TOPOVERLAY
  6
Continuous
 62
     3
370
    30
100
AcDbLine
 10
630.1567485295541
 20
907.4940630177803
 30
0.0
 11
606.3458509430277
 21
907.4940630177803
 31
0.0
  0
LINE
  5
2E0
330
2
100
AcDbEntity
  8
0
 62
   252
100
AcDbLine
 10
1176.401910468062
 20
557.2303403402433
 30
0.0
 11
1176.401910468062
 21
601.3235525283021
 31
0.0
  0
LINE
  5
2E1
330
2
100
AcDbEntity
  8
0
 62
   252
100
AcDbLine
 10
1176.401910468062
 20
601.3235525283021
 30
0.0
 11
1211.659521838679
 21
601.3235525283021
 31
0.0
  0
LINE
  5
2E2
330
2
100
AcDbEntity
  8
0
 62
   252
100
AcDbLine
 10
1211.659521838679
 20
601.3235525283021
 30
0.0
 11
1211.659521838679
 21
557.2303403402433
 31
0.0
  0
LINE
  5
2E3
330
2
100
AcDbEntity
  8
0
 62
   252
100
AcDbLine
 10
1211.659521838679
 20
557.2303403402433
 30
0.0
 11
1176.401910468062
 21
557.2303403402433
 31
0.0
  0
LINE
  5
2E6
330
2
100
AcDbEntity
  8
0
 62
   250
370
   100
100
AcDbLine
 10
527.8635948504152
 20
628.2835470220474
 30
0.0
 11
587.9718373885777
 21
628.2835470220474
 31
0.0
  0
LINE
  5
2E7
330
2
100
AcDbEntity
  8
TOPOVERLAY
  6
Continuous
 62
   250
370
   100
100
AcDbLine
 10
541.4356581651294
 20
585.0814711308552
 30
0.0
 11
587.6442963840311
 21
614.4695149158027
 31
0.0
  0
LINE
  5
2EA
330
2
100
AcDbEntity
  8
0
 62
   250
370
   100
100
AcDbLine
 10
950.2989489221251
 20
845.5916548606225
 30
0.0
 11
1012.039857522575
 21
845.5916548606225
 31
0.0
  0
LINE
  5
2EB
330
2
100
AcDbEntity
  8
TOPOVERLAY
  6
Continuous
 62
     3
370
   100
100
AcDbLine
 10
969.3382320053286
 20
803.5084767944718
 30
0.0
 11
1011.712316518024
 21
830.4615642773709
 31
0.0
  0
LINE
  5
2ED
330
2
100
AcDbEntity
  8
0
 62
    56
100
AcDbLine
 10
487.2596160318638
 20
616.2796927904357
 30
0.0
 11
511.5368865155466
 21
640.4371014782914
 31
0.0
  0
LINE
  5
2EE
330
2
100
AcDbEntity
  8
0
 62
    56
100
AcDbLine
 10
487.2596160318638
 20
640.4371014782914
 30
0.0
 11
511.5368865155466
 21
616.2796927904357
 31
0.0
  0
LINE
  5
2EF
330
2
100
AcDbEntity
  8
0
 62
    56
100
AcDbLine
 10
646.6388714719157
 20
640.4799224132188
 30
0.0
 11
670.9161419555982
 21
616.3225137253627
 31
0.0
  0
LINE
  5
2F0
330
2
100
AcDbEntity
  8
0
 62
    56
100
AcDbLine
 10
646.6388714719157
 20
616.3225137253627
 30
0.0
 11
670.9161419555982
 21
640.4799224132188
 31
0.0
  0
LINE
  5
34E
330
2
100
AcDbEntity
  8
TOPOVERLAY
  6
Continuous
 62
   250
370
   100
100
AcDbLine
 10
402.8918988683551
 20
615.0891707921307
 30
0.0
 11
402.8918988683551
 21
581.2038389636446
 31
0.0
  0
LINE
  5
34F
330
2
100
AcDbEntity
  8
0
 62
   250
370
   100
100
AcDbLine
 10
369.3976333107765
 20
628.4012180692907
 30
0.0
 11
389.5796502072763
 21
628.4012180692907
 31
0.0
  0
LINE
  5
350
330
2
100
AcDbEntity
  8
0
 62
   250
370
   100
100
AcDbLine
 10
355.6943183798837
 20
628.4012180692907
 30
0.0
 11
389.5796502072763
 21
628.4012180692907
 31
0.0
  0
LINE
  5
351
330
2
100
AcDbEntity
  8
0
 62
   250
370
   100
100
AcDbLine
 10
416.2037447646424
 20
628.4012180692907
 30
0.0
 11
439.2980590427089
 21
628.4012180692907
 31
0.0
  0
LINE
  5
352
330
2
100
AcDbEntity
  8
0
 62
   250
370
   100
100
AcDbLine
 10
416.2037447646424
 20
628.4012180692907
 30
0.0
 11
450.0890765920352
 21
628.4012180692907
 31
0.0
  0
LINE
  5
353
330
2
100
AcDbEntity
  8
TOPOVERLAY
  6
Continuous
 62
   250
370
   100
100
AcDbLine
 10
402.8918988683551
 20
641.7132653464506
 30
0.0
 11
402.8918988683551
 21
675.5985971749367
 31
0.0
  0
LINE
  5
3A7
330
2
100
AcDbEntity
  8
0
 62
    56
100
AcDbLine
 10
314.6906252757422
 20
628.4012180692907
 30
0.0
 11
294.9734384654401
 21
628.4005129031984
 31
0.0
  0
MTEXT
  5
41F
330
2
100
AcDbEntity
  8
0
100
AcDbMText
 10
178.1088203111944
 20
165.4714462935649
 30
0.0
 40
30.0
 41
3011.936264869754
 71
     1
 72
     5
  1
ORT400
 11
0.0000000000000001
 21
1.0
 31
0.0
 73
     1
 44
1.0
1001
ACAD
1000
MTEXTBEGIN
1070
    73
1070
     1
1070
    44
1040
1.0
1070
    74
1070
     0
1000
MTEXTEND
  0
LINE
  5
4D4
330
2
100
AcDbEntity
  8
0
 62
     1
370
    30
100
AcDbLine
 10
1234.582624533102
 20
768.3583395069299
 30
0.0
 11
1246.775122296003
 21
751.7393551633626
 31
0.0
  0
LINE
  5
4D5
330
2
100
AcDbEntity
  8
0
 62
     1
370
    30
100
AcDbLine
 10
1234.582624533102
 20
768.3583395069299
 30
0.0
 11
1222.017335939378
 21
784.697285766298
 31
0.0
  0
LINE
  5
4D6
330
2
100
AcDbEntity
  8
0
 62
     1
370
    30
100
AcDbLine
 10
1221.080002877503
 20
752.7850659032252
 30
0.0
 11
1248.085242103188
 21
783.9316166529283
 31
0.0
  0
LINE
  5
4D7
330
2
100
AcDbEntity
  8
0
 62
   250
370
    30
100
AcDbLine
 10
1124.182995841076
 20
563.0198756205922
 30
0.0
 11
1151.188235066761
 21
594.1664263702953
 31
0.0
  0
LINE
  5
4D8
330
2
100
AcDbEntity
  8
0
 62
   250
370
    30
100
AcDbLine
 10
1137.685617496675
 20
578.593149224297
 30
0.0
 11
1125.12032890295
 21
594.9320954836649
 31
0.0
  0
LINE
  5
4D9
330
2
100
AcDbEntity
  8
0
 62
   250
370
    30
100
AcDbLine
 10
1137.685617496675
 20
578.593149224297
 30
0.0
 11
1149.878115259576
 21
561.9741648807295
 31
0.0
  0
LINE
  5
4DA
330
2
100
AcDbEntity
  8
0
 62
   250
370
    30
100
AcDbLine
 10
1221.017561394918
 20
436.1770210673407
 30
0.0
 11
1248.022800620603
 21
467.3235718170438
 31
0.0
  0
LINE
  5
4DB
330
2
100
AcDbEntity
  8
0
 62
   250
370
    30
100
AcDbLine
 10
1234.520183050517
 20
451.7502946710455
 30
0.0
 11
1221.954894456793
 21
468.0892409304131
 31
0.0
  0
LINE
  5
4DC
330
2
100
AcDbEntity
  8
0
 62
   250
370
    30
100
AcDbLine
 10
1234.520183050517
 20
451.7502946710455
 30
0.0
 11
1246.712680813418
 21
435.131310327478
 31
0.0
  0
LINE
  5
4DD
330
2
100
AcDbEntity
  8
0
 62
   250
370
    30
100
AcDbLine
 10
1221.017561394918
 20
379.5115908095326
 30
0.0
 11
1248.022800620603
 21
410.6581415592358
 31
0.0
  0
LINE
  5
4DE
330
2
100
AcDbEntity
  8
0
 62
   250
370
    30
100
AcDbLine
 10
1234.520183050517
 20
395.0848644132374
 30
0.0
 11
1221.954894456793
 21
411.4238106726054
 31
0.0
  0
LINE
  5
4DF
330
2
100
AcDbEntity
  8
0
 62
   250
370
    30
100
AcDbLine
 10
1234.520183050517
 20
395.0848644132374
 30
0.0
 11
1246.712680813418
 21
378.4658800696699
 31
0.0
  0
LINE
  5
4E0
330
2
100
AcDbEntity
  8
0
 62
   250
370
    30
100
AcDbLine
 10
1221.080002877503
 20
320.103816059162
 30
0.0
 11
1248.085242103188
 21
351.2503668088652
 31
0.0
  0
LINE
  5
4E1
330
2
100
AcDbEntity
  8
0
 62
   250
370
    30
100
AcDbLine
 10
1234.582624533102
 20
335.6770896628668
 30
0.0
 11
1222.017335939378
 21
352.0160359222348
 31
0.0
  0
LINE
  5
4E2
330
2
100
AcDbEntity
  8
0
 62
   250
370
    30
100
AcDbLine
 10
1234.582624533102
 20
335.6770896628668
 30
0.0
 11
1246.775122296003
 21
319.0581053192993
 31
0.0
  0
LINE
  5
4E3
330
2
100
AcDbEntity
  8
0
 62
   250
370
    30
100
AcDbLine
 10
989.9526532609682
 20
435.4398263182958
 30
0.0
 11
1016.957892486653
 21
466.5863770679991
 31
0.0
  0
LINE
  5
4E4
330
2
100
AcDbEntity
  8
0
 62
   250
370
    30
100
AcDbLine
 10
1003.455274916567
 20
451.0130999220006
 30
0.0
 11
990.8899863228434
 21
467.3520461813687
 31
0.0
  0
LINE
  5
4E5
330
2
100
AcDbEntity
  8
0
 62
   250
370
    30
100
AcDbLine
 10
1003.455274916567
 20
451.0130999220006
 30
0.0
 11
1015.647772679468
 21
434.3941155784332
 31
0.0
  0
LINE
  5
4E6
330
2
100
AcDbEntity
  8
0
 62
     1
370
    30
100
AcDbLine
 10
989.9526532609682
 20
378.7743960606472
 30
0.0
 11
1016.957892486653
 21
409.92094681035
 31
0.0
  0
LINE
  5
4E7
330
2
100
AcDbEntity
  8
0
 62
     1
370
    30
100
AcDbLine
 10
1003.455274916567
 20
394.3476696643519
 30
0.0
 11
990.8899863228434
 21
410.6866159237197
 31
0.0
  0
LINE
  5
4E8
330
2
100
AcDbEntity
  8
0
 62
     1
370
    30
100
AcDbLine
 10
1003.455274916567
 20
394.3476696643519
 30
0.0
 11
1015.647772679468
 21
377.7286853207844
 31
0.0
  0
LINE
  5
4E9
330
2
100
AcDbEntity
  8
0
 62
   250
370
    30
100
AcDbLine
 10
990.0150947435792
 20
319.3666213102447
 30
0.0
 11
1017.020333969264
 21
350.5131720599478
 31
0.0
  0
LINE
  5
4EA
330
2
100
AcDbEntity
  8
0
 62
   250
370
    30
100
AcDbLine
 10
1003.517716399178
 20
334.9398949139493
 30
0.0
 11
990.9524278054542
 21
351.2788411733175
 31
0.0
  0
LINE
  5
4EB
330
2
100
AcDbEntity
  8
0
 62
   250
370
    30
100
AcDbLine
 10
1003.517716399178
 20
334.9398949139493
 30
0.0
 11
1015.710214162079
 21
318.3209105703819
 31
0.0
  0
LINE
  5
5FE
330
2
100
AcDbEntity
  8
TOPOVERLAY
  6
Continuous
 62
   250
370
   100
100
AcDbLine
 10
732.0778698662016
 20
615.0891707921307
 30
0.0
 11
732.0778698662013
 21
581.2038389636446
 31
0.0
  0
LINE
  5
5FF
330
2
100
AcDbEntity
  8
0
 62
   250
370
   100
100
AcDbLine
 10
684.8802893777299
 20
628.4012180692907
 30
0.0
 11
718.7656212051225
 21
628.4012180692907
 31
0.0
  0
LINE
  5
600
330
2
100
AcDbEntity
  8
0
 62
   250
370
   100
100
AcDbLine
 10
698.5836043086227
 20
628.4012180692907
 30
0.0
 11
718.7656212051225
 21
628.4012180692907
 31
0.0
  0
LINE
  5
601
330
2
100
AcDbEntity
  8
TOPOVERLAY
  6
Continuous
 62
   250
370
   100
100
AcDbLine
 10
732.0778698662016
 20
641.7132653464506
 30
0.0
 11
732.0778698662013
 21
675.5985971749367
 31
0.0
  0
LINE
  5
602
330
2
100
AcDbEntity
  8
0
 62
   250
370
   100
100
AcDbLine
 10
745.3897157624886
 20
628.4012180692907
 30
0.0
 11
779.2750475898814
 21
628.4012180692907
 31
0.0
  0
LINE
  5
603
330
2
100
AcDbEntity
  8
0
 62
   250
370
   100
100
AcDbLine
 10
745.3897157624886
 20
628.4012180692907
 30
0.0
 11
768.4840300405551
 21
628.4012180692907
 31
0.0
  0
ARC
  5
690
330
2
100
AcDbEntity
  8
0
 62
   252
100
AcDbCircle
 10
617.8764404623666
 20
856.3992904409591
 30
0.0
 40
19.88045606348704
100
AcDbArc
 50
162.0486963503322
 51
20.11213206675568
  0
ARC
  5
6A3
330
2
100
AcDbEntity
  8
0
 62
   252
100
AcDbCircle
 10
618.2472219321501
 20
789.2460880659657
 30
0.0
 40
19.88045606348704
100
AcDbArc
 50
340.9682821417888
 51
199.0317178582113
  0
ARC
  5
6A4
330
2
100
AcDbEntity
  8
0
 62
   252
100
AcDbCircle
 10
677.4113550180925
 20
856.3992904409273
 30
0.0
 40
19.88045606348704
100
AcDbArc
 50
162.0486963503322
 51
20.11213206675568
  0
ARC
  5
6A5
330
2
100
AcDbEntity
  8
0
 62
   252
100
AcDbCircle
 10
677.7821364878757
 20
789.2460880659341
 30
0.0
 40
19.88045606348704
100
AcDbArc
 50
340.9682821417888
 51
199.0317178582113
  0
LINE
  5
733
330
2
100
AcDbEntity
  8
0
100
AcDbLine
 10
783.522852682654
 20
992.3359181106016
 30
0.0
 11
960.3567536550215
 21
426.5183347411025
 31
0.0
  0
LINE
  5
734
330
2
100
AcDbEntity
  8
0
100
AcDbLine
 10
1169.6377440746
 20
840.650738063462
 30
0.0
 11
783.522852682654
 21
992.3359181106016
 31
0.0
  0
LINE
  5
737
330
2
100
AcDbEntity
  8
0
100
AcDbLine
 10
960.3567536550215
 20
426.5183347411025
 30
0.0
 11
918.9828648361142
 21
461.3245353585134
 31
0.0
  0
LINE
  5
738
330
2
100
AcDbEntity
  8
0
100
AcDbLine
 10
960.3567536550215
 20
426.5183347411025
 30
0.0
 11
962.7068156388704
 21
481.7203036610626
 31
0.0
  0
LINE
  5
739
330
2
100
AcDbEntity
  8
0
100
AcDbLine
 10
1169.6377440746
 20
840.650738063462
 30
0.0
 11
1154.828345296952
 21
864.0105912911279
 31
0.0
  0
LINE
  5
73A
330
2
100
AcDbEntity
  8
0
100
AcDbLine
 10
1169.6377440746
 20
840.650738063462
 30
0.0
 11
1146.254478829105
 21
831.3067955637452
 31
0.0
  0
LINE
  5
8D1
330
2
100
AcDbEntity
  8
6-家具-143
 62
   143
100
AcDbLine
 10
771.6371150958651
 20
938.2304228708816
 30
0.0
 11
774.0366495330885
 21
975.5246266693779
 31
0.0
  0
LINE
  5
8D2
330
2
100
AcDbEntity
  8
6-家具-143
 62
   143
100
AcDbLine
 10
744.9756213489053
 20
969.6641089296173
 30
0.0
 11
744.9756213489053
 21
938.7631972108707
 31
0.0
  0
LINE
  5
8D3
330
2
100
AcDbEntity
  8
6-家具-143
 62
   143
100
AcDbLine
 10
759.9060578472048
 20
964.869139869811
 30
0.0
 11
764.1718968467152
 21
972.8607549694805
 31
0.0
  0
LINE
  5
8D4
330
2
100
AcDbEntity
  8
6-家具-143
 62
   143
100
AcDbLine
 10
780.1459906654846
 20
974.4397996622808
 30
0.0
 11
781.0545863127402
 21
967.6959981105962
 31
0.0
  0
LINE
  5
8D5
330
2
100
AcDbEntity
  8
6-家具-143
 62
   143
100
AcDbLine
 10
777.6412138277615
 20
969.4485454923212
 30
0.0
 11
776.5010841632443
 21
964.2084294616681
 31
0.0
  0
LINE
  5
8D6
330
2
100
AcDbEntity
  8
6-家具-143
 62
   143
100
AcDbLine
 10
743.8933757582047
 20
968.9928832287872
 30
0.0
 11
750.7341537452835
 21
971.95468794177
 31
0.0
  0
LINE
  5
8D7
330
2
100
AcDbEntity
  8
6-家具-143
 62
   143
100
AcDbLine
 10
740.472986764677
 20
992.0038275373839
 30
0.0
 11
735.0003643750161
 21
962.1579492757533
 31
0.0
  0
LINE
  5
8D8
330
2
100
AcDbEntity
  8
6-家具-143
 62
   143
100
AcDbLine
 10
751.6409947856397
 20
897.4731858625512
 30
0.0
 11
748.4416155360122
 21
898.5387345425056
 31
0.0
  0
LINE
  5
8D9
330
2
100
AcDbEntity
  8
6-家具-143
 62
   143
100
AcDbLine
 10
748.4416155360122
 20
898.5387345425056
 30
0.0
 11
745.7754661613094
 21
896.9404115225627
 31
0.0
  0
LINE
  5
8DA
330
2
100
AcDbEntity
  8
6-家具-143
 62
   143
100
AcDbLine
 10
768.704350783694
 20
895.8748628426082
 30
0.0
 11
768.171120908758
 21
897.2067986925567
 31
0.0
  0
LINE
  5
8DB
330
2
100
AcDbEntity
  8
6-家具-143
 62
   143
100
AcDbLine
 10
768.171120908758
 20
897.2067986925567
 30
0.0
 11
764.4385117841835
 21
894.8093141626539
 31
0.0
  0
LINE
  5
8DC
330
2
100
AcDbEntity
  8
6-家具-143
 62
   143
100
AcDbLine
 10
764.4385117841835
 20
894.8093141626539
 30
0.0
 11
763.9052819092475
 21
894.8093141626539
 31
0.0
  0
LINE
  5
8DD
330
2
100
AcDbEntity
  8
6-家具-143
 62
   143
100
AcDbLine
 10
758.8395980973212
 20
937.1648741909272
 30
0.0
 11
759.9060578472048
 21
934.5010024910299
 31
0.0
  0
LINE
  5
8DE
330
2
100
AcDbEntity
  8
6-家具-143
 62
   143
100
AcDbLine
 10
759.9060578472048
 20
934.5010024910299
 30
0.0
 11
759.3728279722571
 21
934.234615321059
 31
0.0
  0
LINE
  5
8DF
330
2
100
AcDbEntity
  8
6-家具-143
 62
   143
100
AcDbLine
 10
759.3728279722571
 20
934.234615321059
 30
0.0
 11
761.5057474720123
 21
895.3420885026424
 31
0.0
  0
LINE
  5
8E0
330
2
100
AcDbEntity
  8
6-家具-143
 62
   143
100
AcDbLine
 10
761.5057474720123
 20
895.3420885026424
 30
0.0
 11
762.5722072218961
 21
895.075701332648
 31
0.0
  0
LINE
  5
8E1
330
2
100
AcDbEntity
  8
6-家具-143
 62
   143
100
AcDbLine
 10
762.5722072218961
 20
895.075701332648
 30
0.0
 11
760.4392877221406
 21
890.8135066128076
 31
0.0
  0
LINE
  5
8E2
330
2
100
AcDbEntity
  8
6-家具-143
 62
   143
100
AcDbLine
 10
760.4392877221406
 20
890.8135066128076
 30
0.0
 11
760.4392877221406
 21
889.2151835928876
 31
0.0
  0
LINE
  5
8E3
330
2
100
AcDbEntity
  8
6-家具-143
 62
   143
100
AcDbLine
 10
760.4392877221406
 20
889.2151835928876
 30
0.0
 11
768.171120908758
 21
888.6824092528986
 31
0.0
  0
LINE
  5
8E4
330
2
100
AcDbEntity
  8
6-家具-143
 62
   143
100
AcDbLine
 10
768.171120908758
 20
888.6824092528986
 30
0.0
 11
773.2368047206725
 21
888.9487964228933
 31
0.0
  0
LINE
  5
8E5
330
2
100
AcDbEntity
  8
6-家具-143
 62
   143
100
AcDbLine
 10
773.2368047206725
 20
888.9487964228933
 30
0.0
 11
776.4361839703117
 21
888.9487964228933
 31
0.0
  0
LINE
  5
8E6
330
2
100
AcDbEntity
  8
6-家具-143
 62
   143
100
AcDbLine
 10
776.4361839703117
 20
888.9487964228933
 30
0.0
 11
776.4361839703117
 21
891.3462809527963
 31
0.0
  0
LINE
  5
8E7
330
2
100
AcDbEntity
  8
6-家具-143
 62
   143
100
AcDbLine
 10
776.4361839703117
 20
891.3462809527963
 30
0.0
 11
770.3040404085136
 21
895.3420885026424
 31
0.0
  0
LINE
  5
8E8
330
2
100
AcDbEntity
  8
6-家具-143
 62
   143
100
AcDbLine
 10
770.3040404085136
 20
895.3420885026424
 30
0.0
 11
771.6371150958651
 21
934.5010024910299
 31
0.0
  0
LINE
  5
8E9
330
2
100
AcDbEntity
  8
6-家具-143
 62
   143
100
AcDbLine
 10
771.6371150958651
 20
934.5010024910299
 30
0.0
 11
771.1038852209173
 21
936.8984870209331
 31
0.0
  0
LINE
  5
8EA
330
2
100
AcDbEntity
  8
6-家具-143
 62
   143
100
AcDbLine
 10
771.1038852209173
 20
936.8984870209331
 30
0.0
 11
771.6371150958651
 21
938.2304228708816
 31
0.0
  0
LINE
  5
8EB
330
2
100
AcDbEntity
  8
6-家具-143
 62
   143
100
AcDbLine
 10
744.9756213489053
 20
938.7631972108707
 30
0.0
 11
744.1757765364897
 21
935.8329383409785
 31
0.0
  0
LINE
  5
8EC
330
2
100
AcDbEntity
  8
6-家具-143
 62
   143
100
AcDbLine
 10
744.1757765364897
 20
935.8329383409785
 30
0.0
 11
744.7090064114373
 21
896.4076371825969
 31
0.0
  0
LINE
  5
8ED
330
2
100
AcDbEntity
  8
6-家具-143
 62
   143
100
AcDbLine
 10
744.7090064114373
 20
896.4076371825969
 30
0.0
 11
747.3751557861287
 21
895.6084756726136
 31
0.0
  0
LINE
  5
8EE
330
2
100
AcDbEntity
  8
6-家具-143
 62
   143
100
AcDbLine
 10
747.3751557861287
 20
895.6084756726136
 30
0.0
 11
745.7754661613094
 21
892.4118296327508
 31
0.0
  0
LINE
  5
8EF
330
2
100
AcDbEntity
  8
6-家具-143
 62
   143
100
AcDbLine
 10
745.7754661613094
 20
892.4118296327508
 30
0.0
 11
744.1757765364897
 21
890.8135066128076
 31
0.0
  0
LINE
  5
8F0
330
2
100
AcDbEntity
  8
6-家具-143
 62
   143
100
AcDbLine
 10
744.1757765364897
 20
890.8135066128076
 30
0.0
 11
744.1757765364897
 21
889.2151835928876
 31
0.0
  0
LINE
  5
8F1
330
2
100
AcDbEntity
  8
6-家具-143
 62
   143
100
AcDbLine
 10
744.1757765364897
 20
889.2151835928876
 30
0.0
 11
748.1750005985327
 21
888.9487964228933
 31
0.0
  0
LINE
  5
8F2
330
2
100
AcDbEntity
  8
6-家具-143
 62
   143
100
AcDbLine
 10
748.1750005985327
 20
888.9487964228933
 30
0.0
 11
755.9068337851502
 21
888.6824092528986
 31
0.0
  0
LINE
  5
8F3
330
2
100
AcDbEntity
  8
6-家具-143
 62
   143
100
AcDbLine
 10
755.9068337851502
 20
888.6824092528986
 30
0.0
 11
756.9732935350336
 21
890.8135066128076
 31
0.0
  0
LINE
  5
8F4
330
2
100
AcDbEntity
  8
6-家具-143
 62
   143
100
AcDbLine
 10
756.9732935350336
 20
890.8135066128076
 30
0.0
 11
755.9068337851502
 21
892.6782168027449
 31
0.0
  0
LINE
  5
8F5
330
2
100
AcDbEntity
  8
6-家具-143
 62
   143
100
AcDbLine
 10
755.9068337851502
 20
892.6782168027449
 30
0.0
 11
752.7074545355231
 21
895.6084756726136
 31
0.0
  0
LINE
  5
8F6
330
2
100
AcDbEntity
  8
6-家具-143
 62
   143
100
AcDbLine
 10
752.7074545355231
 20
895.6084756726136
 30
0.0
 11
753.7739142853947
 21
896.9404115225627
 31
0.0
  0
LINE
  5
8F7
330
2
100
AcDbEntity
  8
6-家具-143
 62
   143
100
AcDbLine
 10
753.7739142853947
 20
896.9404115225627
 30
0.0
 11
757.5065234099696
 21
935.0337768310184
 31
0.0
  0
LINE
  5
8F8
330
2
100
AcDbEntity
  8
6-家具-143
 62
   143
100
AcDbLine
 10
757.5065234099696
 20
935.0337768310184
 30
0.0
 11
758.3063682223851
 21
937.697648530916
 31
0.0
  0
LINE
  5
8F9
330
2
100
AcDbEntity
  8
6-家具-143
 62
   143
100
AcDbLine
 10
758.3063682223851
 20
937.697648530916
 30
0.0
 11
759.9060578472048
 21
964.869139869811
 31
0.0
  0
LINE
  5
8FA
330
2
100
AcDbEntity
  8
6-家具-143
 62
   143
100
AcDbLine
 10
781.0545863127402
 20
967.6959981105962
 30
0.0
 11
780.2757900436707
 21
967.4366211278336
 31
0.0
  0
LINE
  5
8FB
330
2
100
AcDbEntity
  8
6-家具-143
 62
   143
100
AcDbLine
 10
780.2757900436707
 20
967.4366211278336
 30
0.0
 11
779.7565925309499
 21
966.0100477226748
 31
0.0
  0
LINE
  5
8FC
330
2
100
AcDbEntity
  8
6-家具-143
 62
   143
100
AcDbLine
 10
779.7565925309499
 20
966.0100477226748
 30
0.0
 11
778.8479968836946
 21
965.8803592313052
 31
0.0
  0
LINE
  5
8FD
330
2
100
AcDbEntity
  8
6-家具-143
 62
   143
100
AcDbLine
 10
778.8479968836946
 20
965.8803592313052
 30
0.0
 11
778.5883981273341
 21
964.8428513002553
 31
0.0
  0
LINE
  5
8FE
330
2
100
AcDbEntity
  8
6-家具-143
 62
   143
100
AcDbLine
 10
778.5883981273341
 20
964.8428513002553
 30
0.0
 11
776.9010062110094
 21
964.3240973347536
 31
0.0
  0
LINE
  5
8FF
330
2
100
AcDbEntity
  8
6-家具-143
 62
   143
100
AcDbLine
 10
776.5010841632443
 20
964.2084294616681
 30
0.0
 11
775.8170063645411
 21
961.246624748662
 31
0.0
  0
LINE
  5
900
330
2
100
AcDbEntity
  8
6-家具-143
 62
   143
100
AcDbLine
 10
775.8170063645411
 20
961.246624748662
 30
0.0
 11
773.3087211026178
 21
962.1579492757533
 31
0.0
  0
LINE
  5
901
330
2
100
AcDbEntity
  8
6-家具-143
 62
   143
100
AcDbLine
 10
735.9124681066321
 20
962.8414426710429
 30
0.0
 11
739.3328571001595
 21
965.1197539887361
 31
0.0
  0
LINE
  5
902
330
2
100
AcDbEntity
  8
6-家具-143
 62
   143
100
AcDbLine
 10
739.3328571001595
 20
965.1197539887361
 30
0.0
 11
743.8933757582047
 21
968.9928832287872
 31
0.0
  0
LINE
  5
903
330
2
100
AcDbEntity
  8
6-家具-143
 62
   143
100
AcDbLine
 10
735.0003643750161
 20
962.1579492757533
 30
0.0
 11
737.5086496369398
 21
961.930118143975
 31
0.0
  0
LINE
  5
904
330
2
100
AcDbEntity
  8
6-家具-143
 62
   143
100
AcDbLine
 10
737.5086496369398
 20
961.930118143975
 30
0.0
 11
741.6131164291824
 21
963.9805983298895
 31
0.0
  0
LINE
  5
905
330
2
100
AcDbEntity
  8
6-家具-143
 62
   143
100
AcDbLine
 10
741.6131164291824
 20
963.9805983298895
 30
0.0
 11
744.8054794898207
 21
964.6640917252023
 31
0.0
  0
LINE
  5
906
330
2
100
AcDbEntity
  8
6-家具-143
 62
   143
100
AcDbLine
 10
762.303253610625
 20
1058.33364856648
 30
-0.000000000000001
 11
761.8355081071326
 21
1058.800994477884
 31
0.0000000000000018
  0
LINE
  5
907
330
2
100
AcDbEntity
  8
6-家具-143
 62
   143
100
AcDbLine
 10
761.8355081071326
 20
1058.800994477884
 30
0.0000000000000018
 11
760.9935662008536
 21
1058.520586931027
 31
0.000000000000002
  0
LINE
  5
908
330
2
100
AcDbEntity
  8
6-家具-143
 62
   143
100
AcDbLine
 10
767.7291014511088
 20
1058.894463660169
 30
-0.0000000000000009
 11
767.1678068469227
 21
1059.08140202474
 31
-0.0000000000000013
  0
LINE
  5
909
330
2
100
AcDbEntity
  8
6-家具-143
 62
   143
100
AcDbLine
 10
767.1678068469227
 20
1059.08140202474
 30
-0.0000000000000013
 11
766.6065122427367
 21
1058.427117748742
 31
0.0000000000000007
  0
LINE
  5
90A
330
2
100
AcDbEntity
  8
6-家具-143
 62
   143
100
AcDbLine
 10
769.6000829630713
 20
1060.01609375877
 30
0.0
 11
767.4484536470096
 21
1060.483439670198
 31
0.0
  0
LINE
  5
90B
330
2
100
AcDbEntity
  8
6-家具-143
 62
   143
100
AcDbLine
 10
767.4484536470096
 20
1060.483439670198
 30
0.0
 11
765.2968243309594
 21
1059.642217029628
 31
0.0
  0
LINE
  5
90C
330
2
100
AcDbEntity
  8
6-家具-143
 62
   143
100
AcDbLine
 10
768.9452397601861
 20
1059.174871207026
 30
0.0
 11
766.7936104441245
 21
1059.268340389311
 31
0.0
  0
LINE
  5
90D
330
2
100
AcDbEntity
  8
6-家具-143
 62
   143
100
AcDbLine
 10
766.7936104441245
 20
1059.268340389311
 30
0.0
 11
765.2968248329658
 21
1058.707525295598
 31
0.0
  0
LINE
  5
90E
330
2
100
AcDbEntity
  8
6-家具-143
 62
   143
100
AcDbLine
 10
765.2968248329658
 20
1058.707525295598
 30
0.0
 11
765.6710212357526
 21
1058.146710201909
 31
0.0
  0
LINE
  5
90F
330
2
100
AcDbEntity
  8
6-家具-143
 62
   143
100
AcDbLine
 10
765.6710212357526
 20
1058.146710201909
 30
0.0
 11
766.7000613434306
 21
1058.240179384194
 31
0.0
  0
LINE
  5
910
330
2
100
AcDbEntity
  8
6-家具-143
 62
   143
100
AcDbLine
 10
766.7000613434306
 20
1058.240179384194
 30
0.0
 11
768.477494256694
 21
1058.707525295598
 31
0.0
  0
LINE
  5
911
330
2
100
AcDbEntity
  8
6-家具-143
 62
   143
100
AcDbLine
 10
763.2387443751395
 20
1059.548748077519
 30
0.0
 11
762.0226063058895
 21
1060.483439607613
 31
0.0
  0
LINE
  5
912
330
2
100
AcDbEntity
  8
6-家具-143
 62
   143
100
AcDbLine
 10
762.0226063058895
 20
1060.483439607613
 30
0.0
 11
759.1225842393419
 21
1060.203032322272
 31
0.0
  0
LINE
  5
913
330
2
100
AcDbEntity
  8
6-家具-143
 62
   143
100
AcDbLine
 10
759.1225842393419
 20
1060.203032322272
 30
0.0
 11
758.6548383112946
 21
1059.455278837678
 31
0.0
  0
LINE
  5
914
330
2
100
AcDbEntity
  8
6-家具-143
 62
   143
100
AcDbLine
 10
759.4967805896835
 20
1059.268340389311
 30
0.0
 11
760.7129188987606
 21
1059.361809571597
 31
0.0
  0
LINE
  5
915
330
2
100
AcDbEntity
  8
6-家具-143
 62
   143
100
AcDbLine
 10
760.7129188987606
 20
1059.361809571597
 30
0.0
 11
762.303253610625
 21
1059.174871207026
 31
0.0
  0
LINE
  5
916
330
2
100
AcDbEntity
  8
6-家具-143
 62
   143
100
AcDbLine
 10
762.303253610625
 20
1059.174871207026
 30
0.0
 11
763.0516464162102
 21
1058.707525295598
 31
0.0
  0
LINE
  5
917
330
2
100
AcDbEntity
  8
6-家具-143
 62
   143
100
AcDbLine
 10
763.0516464162102
 20
1058.707525295598
 30
0.0
 11
762.5839009127182
 21
1058.146710201909
 31
0.0
  0
LINE
  5
918
330
2
100
AcDbEntity
  8
6-家具-143
 62
   143
100
AcDbLine
 10
762.5839009127182
 20
1058.146710201909
 30
0.0
 11
761.3677626036405
 21
1058.053241019623
 31
0.0
  0
LINE
  5
919
330
2
100
AcDbEntity
  8
6-家具-143
 62
   143
100
AcDbLine
 10
761.3677626036405
 20
1058.053241019623
 30
0.0
 11
759.4967805896835
 21
1058.707525295598
 31
0.0
  0
LINE
  5
91A
330
2
100
AcDbEntity
  8
6-家具-143
 62
   143
100
AcDbLine
 10
766.8871595448297
 20
1051.416929077447
 30
0.0
 11
765.2968248329658
 21
1051.884274988875
 31
0.0
  0
LINE
  5
91B
330
2
100
AcDbEntity
  8
6-家具-143
 62
   143
100
AcDbLine
 10
765.2968248329658
 20
1051.884274988875
 30
0.0
 11
764.4548829266751
 21
1051.790805806589
 31
0.0
  0
LINE
  5
91C
330
2
100
AcDbEntity
  8
6-家具-143
 62
   143
100
AcDbLine
 10
764.4548829266751
 20
1051.790805806589
 30
0.0
 11
762.490351812024
 21
1051.510398259733
 31
0.0
  0
LINE
  5
91D
330
2
100
AcDbEntity
  8
6-家具-143
 62
   143
100
AcDbLine
 10
766.2323158399383
 20
1054.034066181394
 30
0.0
 11
765.9516685378453
 21
1053.56672026999
 31
0.0
  0
LINE
  5
91E
330
2
100
AcDbEntity
  8
6-家具-143
 62
   143
100
AcDbLine
 10
765.9516685378453
 20
1053.56672026999
 30
0.0
 11
763.8935883224889
 21
1053.660189452275
 31
0.0
  0
LINE
  5
91F
330
2
100
AcDbEntity
  8
6-家具-143
 62
   143
100
AcDbLine
 10
763.8935883224889
 20
1053.660189452275
 30
0.0
 11
762.8645482148108
 21
1054.127535363703
 31
0.0
  0
LINE
  5
920
330
2
100
AcDbEntity
  8
6-家具-143
 62
   143
100
AcDbLine
 10
753.5096381450135
 20
1059.92262466531
 30
0.0
 11
753.0418926415215
 21
1060.576908941285
 31
0.0
  0
LINE
  5
921
330
2
100
AcDbEntity
  8
6-家具-143
 62
   143
100
AcDbLine
 10
753.0418926415215
 20
1060.576908941285
 30
0.0
 11
752.1999507352425
 21
1060.857316488141
 31
0.0
  0
LINE
  5
922
330
2
100
AcDbEntity
  8
6-家具-143
 62
   143
100
AcDbLine
 10
752.1999507352425
 20
1060.857316488141
 30
0.0
 11
751.5451070303511
 21
1060.203032212143
 31
0.0
  0
LINE
  5
923
330
2
100
AcDbEntity
  8
6-家具-143
 62
   143
100
AcDbLine
 10
751.5451070303511
 20
1060.203032212143
 30
0.0
 11
751.1709106275642
 21
1059.268340389311
 31
0.0
  0
LINE
  5
924
330
2
100
AcDbEntity
  8
6-家具-143
 62
   143
100
AcDbLine
 10
751.1709106275642
 20
1059.268340389311
 30
0.0
 11
751.4515579296575
 21
1057.492425925911
 31
0.0
  0
LINE
  5
925
330
2
100
AcDbEntity
  8
6-家具-143
 62
   143
100
AcDbLine
 10
751.4515579296575
 20
1057.492425925911
 30
0.0
 11
752.0128525338435
 21
1056.183857373937
 31
0.0
  0
LINE
  5
926
330
2
100
AcDbEntity
  8
6-家具-143
 62
   143
100
AcDbLine
 10
752.0128525338435
 20
1056.183857373937
 30
0.0
 11
753.0418926415215
 21
1055.062227186533
 31
0.0
  0
LINE
  5
927
330
2
100
AcDbEntity
  8
6-家具-143
 62
   143
100
AcDbLine
 10
753.0418926415215
 20
1055.062227186533
 30
0.0
 11
753.6967363464129
 21
1054.221004545965
 31
0.0
  0
LINE
  5
928
330
2
100
AcDbEntity
  8
6-家具-143
 62
   143
100
AcDbLine
 10
753.6967363464129
 20
1054.221004545965
 30
0.0
 11
754.2580309505989
 21
1053.940596999132
 31
0.0
  0
LINE
  5
929
330
2
100
AcDbEntity
  8
6-家具-143
 62
   143
100
AcDbLine
 10
754.2580309505989
 20
1053.940596999132
 30
0.0
 11
754.4451291519981
 21
1054.501412092821
 31
0.0
  0
LINE
  5
92A
330
2
100
AcDbEntity
  8
6-家具-143
 62
   143
100
AcDbLine
 10
765.5774721350586
 20
1050.762644801472
 30
0.0
 11
763.8935883224889
 21
1050.669175619187
 31
0.0
  0
LINE
  5
92B
330
2
100
AcDbEntity
  8
6-家具-143
 62
   143
100
AcDbLine
 10
767.1678068469227
 20
1046.556531598695
 30
0.0
 11
767.2613559476167
 21
1046.276124051839
 31
0.0
  0
LINE
  5
92C
330
2
100
AcDbEntity
  8
6-家具-143
 62
   143
100
AcDbLine
 10
767.2613559476167
 20
1046.276124051839
 30
0.0
 11
765.1097266315664
 21
1045.995716504983
 31
0.0
  0
LINE
  5
92D
330
2
100
AcDbEntity
  8
6-家具-143
 62
   143
100
AcDbLine
 10
754.2580309505989
 20
1047.117346692385
 30
0.0
 11
753.8838345478004
 21
1046.556531598695
 31
0.0
  0
LINE
  5
92E
330
2
100
AcDbEntity
  8
6-家具-143
 62
   143
100
AcDbLine
 10
753.8838345478004
 20
1046.556531598695
 30
0.0
 11
756.9709548708349
 21
1046.089185687268
 31
0.0
  0
LINE
  5
92F
330
2
100
AcDbEntity
  8
6-家具-143
 62
   143
100
AcDbLine
 10
756.9709548708349
 20
1046.089185687268
 30
0.0
 11
760.5258206973616
 21
1046.089185687268
 31
0.0
  0
LINE
  5
930
330
2
100
AcDbEntity
  8
6-家具-143
 62
   143
100
AcDbLine
 10
765.2032757322602
 20
1044.406740406153
 30
0.0
 11
763.8000392217954
 21
1041.322257390778
 31
0.0
  0
LINE
  5
931
330
2
100
AcDbEntity
  8
6-家具-143
 62
   143
100
AcDbLine
 10
763.8000392217954
 20
1041.322257390778
 30
0.0
 11
763.1451955169039
 21
1040.761442297089
 31
0.0
  0
LINE
  5
932
330
2
100
AcDbEntity
  8
6-家具-143
 62
   143
100
AcDbLine
 10
763.1451955169039
 20
1040.761442297089
 30
0.0
 11
761.4613117043459
 21
1041.415726573064
 31
0.0
  0
LINE
  5
933
330
2
100
AcDbEntity
  8
6-家具-143
 62
   143
100
AcDbLine
 10
761.4613117043459
 20
1041.415726573064
 30
0.0
 11
760.3387224959625
 21
1044.126332859296
 31
0.0
  0
LINE
  5
934
330
2
100
AcDbEntity
  8
6-家具-143
 62
   143
100
AcDbLine
 10
766.5129631420313
 20
1046.930408327814
 30
0.0
 11
767.3549050483221
 21
1046.930408327814
 31
0.0
  0
LINE
  5
935
330
2
100
AcDbEntity
  8
6-家具-143
 62
   143
100
AcDbLine
 10
767.3549050483221
 20
1046.930408327814
 30
0.0
 11
768.0097487532016
 21
1046.46306241641
 31
0.0
  0
LINE
  5
936
330
2
100
AcDbEntity
  8
6-家具-143
 62
   143
100
AcDbLine
 10
768.0097487532016
 20
1046.46306241641
 30
0.0
 11
769.4129852636785
 21
1040.574503932518
 31
0.0
  0
LINE
  5
937
330
2
100
AcDbEntity
  8
6-家具-143
 62
   143
100
AcDbLine
 10
769.4129852636785
 20
1040.574503932518
 30
0.0
 11
765.7645703364462
 21
1044.406740406153
 31
0.0
  0
LINE
  5
938
330
2
100
AcDbEntity
  8
6-家具-143
 62
   143
100
AcDbLine
 10
765.7645703364462
 20
1044.406740406153
 30
0.0
 11
764.174235624582
 21
1045.902247322697
 31
0.0
  0
LINE
  5
939
330
2
100
AcDbEntity
  8
6-家具-143
 62
   143
100
AcDbLine
 10
764.174235624582
 20
1045.902247322697
 30
0.0
 11
760.9935662008536
 21
1045.808778140412
 31
0.0
  0
LINE
  5
93A
330
2
100
AcDbEntity
  8
6-家具-143
 62
   143
100
AcDbLine
 10
760.9935662008536
 20
1045.808778140412
 30
0.0
 11
757.0645039715407
 21
1039.920219656519
 31
0.0
  0
LINE
  5
93B
330
2
100
AcDbEntity
  8
6-家具-143
 62
   143
100
AcDbLine
 10
757.0645039715407
 20
1039.920219656519
 30
0.0
 11
753.8838345478004
 21
1041.976541666777
 31
0.0
  0
LINE
  5
93C
330
2
100
AcDbEntity
  8
6-家具-143
 62
   143
100
AcDbLine
 10
753.8838345478004
 20
1041.976541666777
 30
0.0
 11
752.0128525338435
 21
1043.191641036465
 31
0.0
  0
LINE
  5
93D
330
2
100
AcDbEntity
  8
6-家具-143
 62
   143
100
AcDbLine
 10
752.0128525338435
 20
1043.191641036465
 30
0.0
 11
752.5741471380292
 21
1045.061024682151
 31
0.0
  0
LINE
  5
93E
330
2
100
AcDbEntity
  8
6-家具-143
 62
   143
100
AcDbLine
 10
752.5741471380292
 20
1045.061024682151
 30
0.0
 11
752.8547944401221
 21
1047.21081587467
 31
0.0
  0
LINE
  5
93F
330
2
100
AcDbEntity
  8
6-家具-143
 62
   143
100
AcDbLine
 10
752.8547944401221
 20
1047.21081587467
 30
0.0
 11
753.7902854471068
 21
1047.117346692385
 31
0.0
  0
LINE
  5
940
330
2
100
AcDbEntity
  8
6-家具-143
 62
   143
100
AcDbLine
 10
752.6676962387347
 20
1055.249165551105
 30
0.0
 11
753.6031872457074
 21
1052.912435993992
 31
0.0
  0
LINE
  5
941
330
2
100
AcDbEntity
  8
6-家具-143
 62
   143
100
AcDbLine
 10
753.6031872457074
 20
1052.912435993992
 30
0.0
 11
753.977383648506
 21
1049.173668702642
 31
0.0
  0
LINE
  5
942
330
2
100
AcDbEntity
  8
6-家具-143
 62
   143
100
AcDbLine
 10
753.977383648506
 20
1049.173668702642
 30
0.0
 11
754.1644818498935
 21
1047.117346692385
 31
0.0
  0
LINE
  5
943
330
2
100
AcDbEntity
  8
6-家具-143
 62
   143
100
AcDbLine
 10
769.3194361629727
 20
1067.119751701175
 30
0.0
 11
768.7581415587871
 21
1067.77403597715
 31
0.0
  0
LINE
  5
944
330
2
100
AcDbEntity
  8
6-家具-143
 62
   143
100
AcDbLine
 10
768.7581415587871
 20
1067.77403597715
 30
0.0
 11
764.8290793294736
 21
1067.960974341721
 31
0.0
  0
LINE
  5
945
330
2
100
AcDbEntity
  8
6-家具-143
 62
   143
100
AcDbLine
 10
764.8290793294736
 20
1067.960974341721
 30
0.0
 11
760.432271596668
 21
1067.867505159436
 31
0.0
  0
LINE
  5
946
330
2
100
AcDbEntity
  8
6-家具-143
 62
   143
100
AcDbLine
 10
760.432271596668
 20
1067.867505159436
 30
0.0
 11
758.3741913813115
 21
1067.493628430294
 31
0.0
  0
LINE
  5
947
330
2
100
AcDbEntity
  8
6-家具-143
 62
   143
100
AcDbLine
 10
758.3741913813115
 20
1067.493628430294
 30
0.0
 11
756.3161111659552
 21
1066.652405789748
 31
0.0
  0
LINE
  5
948
330
2
100
AcDbEntity
  8
6-家具-143
 62
   143
100
AcDbLine
 10
756.3161111659552
 20
1066.652405789748
 30
0.0
 11
755.287071058277
 21
1064.59608377949
 31
0.0
  0
LINE
  5
949
330
2
100
AcDbEntity
  8
6-家具-143
 62
   143
100
AcDbLine
 10
755.287071058277
 20
1064.59608377949
 30
0.0
 11
754.9128746554787
 21
1062.633230951519
 31
0.0
  0
LINE
  5
94A
330
2
100
AcDbEntity
  8
6-家具-143
 62
   143
100
AcDbLine
 10
754.9128746554787
 20
1062.633230951519
 30
0.0
 11
753.8838345478004
 21
1061.698539128687
 31
0.0
  0
LINE
  5
94B
330
2
100
AcDbEntity
  8
6-家具-143
 62
   143
100
AcDbLine
 10
753.8838345478004
 20
1061.698539128687
 30
0.0
 11
753.8838345478004
 21
1060.857316488141
 31
0.0
  0
LINE
  5
94C
330
2
100
AcDbEntity
  8
6-家具-143
 62
   143
100
AcDbLine
 10
753.8838345478004
 20
1060.857316488141
 30
0.0
 11
753.5096381450135
 21
1060.67037812357
 31
0.0
  0
LINE
  5
94D
330
2
100
AcDbEntity
  8
6-家具-143
 62
   143
100
AcDbLine
 10
765.5774721350586
 20
1046.369593234124
 30
0.0
 11
766.2323158399383
 21
1047.397754239241
 31
0.0
  0
LINE
  5
94E
330
2
100
AcDbEntity
  8
6-家具-143
 62
   143
100
AcDbLine
 10
766.2323158399383
 20
1047.397754239241
 30
0.0
 11
767.1678068469227
 21
1047.584692603812
 31
0.0
  0
LINE
  5
94F
330
2
100
AcDbEntity
  8
6-家具-143
 62
   143
100
AcDbLine
 10
767.1678068469227
 20
1047.584692603812
 30
0.0
 11
768.1968469546007
 21
1048.7997919735
 31
0.0
  0
LINE
  5
950
330
2
100
AcDbEntity
  8
6-家具-143
 62
   143
100
AcDbLine
 10
768.1968469546007
 20
1048.7997919735
 30
0.0
 11
769.4129852636785
 21
1051.229990712876
 31
0.0
  0
LINE
  5
951
330
2
100
AcDbEntity
  8
6-家具-143
 62
   143
100
AcDbLine
 10
769.4129852636785
 20
1051.229990712876
 30
0.0
 11
770.4420253713565
 21
1055.623042280224
 31
0.0
  0
LINE
  5
952
330
2
100
AcDbEntity
  8
6-家具-143
 62
   143
100
AcDbLine
 10
770.4420253713565
 20
1055.623042280224
 30
0.0
 11
769.6936325657711
 21
1058.520586931027
 31
0.0
  0
LINE
  5
953
330
2
100
AcDbEntity
  8
6-家具-143
 62
   143
100
AcDbLine
 10
769.6936325657711
 20
1058.520586931027
 30
0.0
 11
770.2549271699573
 21
1059.735686300739
 31
0.0
  0
LINE
  5
954
330
2
100
AcDbEntity
  8
6-家具-143
 62
   143
100
AcDbLine
 10
770.2549271699573
 20
1059.735686300739
 30
0.0
 11
770.2549271699573
 21
1062.539761769256
 31
0.0
  0
LINE
  5
955
330
2
100
AcDbEntity
  8
6-家具-143
 62
   143
100
AcDbLine
 10
770.2549271699573
 20
1062.539761769256
 30
0.0
 11
769.5065343643721
 21
1066.839344154319
 31
0.0
  0
LINE
  5
956
330
2
100
AcDbEntity
  8
6-家具-143
 62
   143
100
AcDbLine
 10
769.5065343643721
 20
1066.839344154319
 30
0.0
 11
769.6936325657711
 21
1068.989135346838
 31
0.0
  0
LINE
  5
957
330
2
100
AcDbEntity
  8
6-家具-143
 62
   143
100
AcDbLine
 10
769.6936325657711
 20
1068.989135346838
 30
0.0
 11
768.3839451560002
 21
1070.297703898812
 31
0.0
  0
LINE
  5
958
330
2
100
AcDbEntity
  8
6-家具-143
 62
   143
100
AcDbLine
 10
768.3839451560002
 20
1070.297703898812
 30
0.0
 11
763.4258428189968
 21
1071.138926539381
 31
0.0
  0
LINE
  5
959
330
2
100
AcDbEntity
  8
6-家具-143
 62
   143
100
AcDbLine
 10
763.4258428189968
 20
1071.138926539381
 30
0.0
 11
756.2225620652498
 21
1070.765049810239
 31
0.0
  0
LINE
  5
95A
330
2
100
AcDbEntity
  8
6-家具-143
 62
   143
100
AcDbLine
 10
756.2225620652498
 20
1070.765049810239
 30
0.0
 11
753.41608904432
 21
1070.017296351955
 31
0.0
  0
LINE
  5
95B
330
2
100
AcDbEntity
  8
6-家具-143
 62
   143
100
AcDbLine
 10
753.41608904432
 20
1070.017296351955
 30
0.0
 11
751.9193034331497
 21
1067.400159248008
 31
0.0
  0
LINE
  5
95C
330
2
100
AcDbEntity
  8
6-家具-143
 62
   143
100
AcDbLine
 10
751.9193034331497
 20
1067.400159248008
 30
0.0
 11
751.1709106275642
 21
1064.59608377949
 31
0.0
  0
LINE
  5
95D
330
2
100
AcDbEntity
  8
6-家具-143
 62
   143
100
AcDbLine
 10
751.1709106275642
 20
1064.59608377949
 30
0.0
 11
751.5451070303511
 21
1062.2593542224
 31
0.0
  0
LINE
  5
95E
330
2
100
AcDbEntity
  8
6-家具-143
 62
   143
100
AcDbLine
 10
751.5451070303511
 20
1062.2593542224
 30
0.0
 11
752.1999507352425
 21
1060.950785670427
 31
0.0
  0
LINE
  5
95F
330
2
100
AcDbEntity
  8
6-家具-143
 62
   143
100
AcDbLine
 10
754.1545427388113
 20
1011.59730486944
 30
0.0
 11
750.5061278123824
 21
1012.052967132974
 31
0.0
  0
LINE
  5
960
330
2
100
AcDbEntity
  8
6-家具-143
 62
   143
100
AcDbLine
 10
750.5061278123824
 20
1012.052967132974
 30
0.0
 11
745.7175832214248
 21
1014.331278450668
 31
0.0
  0
LINE
  5
961
330
2
100
AcDbEntity
  8
6-家具-143
 62
   143
100
AcDbLine
 10
745.7175832214248
 20
1014.331278450668
 30
0.0
 11
742.9812720266003
 21
1014.331278450668
 31
0.0
  0
LINE
  5
962
330
2
100
AcDbEntity
  8
6-家具-143
 62
   143
100
AcDbLine
 10
742.9812720266003
 20
1014.331278450668
 30
0.0
 11
744.5774535569192
 21
1014.786940714202
 31
0.0
  0
LINE
  5
963
330
2
100
AcDbEntity
  8
6-家具-143
 62
   143
100
AcDbLine
 10
744.5774535569192
 20
1014.786940714202
 30
0.0
 11
742.7532460936993
 21
1022.761030326082
 31
0.0
  0
LINE
  5
964
330
2
100
AcDbEntity
  8
6-家具-143
 62
   143
100
AcDbLine
 10
742.7532460936993
 20
1022.761030326082
 30
0.0
 11
745.2615313556227
 21
1021.166212403701
 31
0.0
  0
LINE
  5
965
330
2
100
AcDbEntity
  8
6-家具-143
 62
   143
100
AcDbLine
 10
769.2042543103751
 20
992.9151520644518
 30
0.0
 11
765.5558393839346
 21
992.0038275373839
 31
0.0
  0
LINE
  5
966
330
2
100
AcDbEntity
  8
6-家具-143
 62
   143
100
AcDbLine
 10
765.5558393839346
 20
992.0038275373839
 30
0.0
 11
760.9953207258901
 21
992.6873209326968
 31
0.0
  0
LINE
  5
967
330
2
100
AcDbEntity
  8
6-家具-143
 62
   143
100
AcDbLine
 10
753.6669175169729
 20
1010.363511774197
 30
0.0
 11
754.5755131642168
 21
1010.493200265567
 31
0.0
  0
LINE
  5
968
330
2
100
AcDbEntity
  8
6-家具-143
 62
   143
100
AcDbLine
 10
754.5755131642168
 20
1010.493200265567
 30
0.0
 11
755.4841088114722
 21
1012.697904619013
 31
0.0
  0
LINE
  5
969
330
2
100
AcDbEntity
  8
6-家具-143
 62
   143
100
AcDbLine
 10
755.4841088114722
 20
1012.697904619013
 30
0.0
 11
756.7821025932623
 21
1014.124478024195
 31
0.0
  0
LINE
  5
96A
330
2
100
AcDbEntity
  8
6-家具-143
 62
   143
100
AcDbLine
 10
756.7821025932623
 20
1014.124478024195
 30
0.0
 11
757.950296996878
 21
1014.124478024195
 31
0.0
  0
LINE
  5
96B
330
2
100
AcDbEntity
  8
6-家具-143
 62
   143
100
AcDbLine
 10
757.950296996878
 20
1014.124478024195
 30
0.0
 11
759.7674882913772
 21
1014.513543498327
 31
0.0
  0
LINE
  5
96C
330
2
100
AcDbEntity
  8
6-家具-143
 62
   143
100
AcDbLine
 10
759.7674882913772
 20
1014.513543498327
 30
0.0
 11
760.2866858040981
 21
1013.60572405867
 31
0.0
  0
LINE
  5
96D
330
2
100
AcDbEntity
  8
6-家具-143
 62
   143
100
AcDbLine
 10
760.2866858040981
 20
1013.60572405867
 30
0.0
 11
759.8972876695632
 21
1012.568216127643
 31
0.0
  0
LINE
  5
96E
330
2
100
AcDbEntity
  8
6-家具-143
 62
   143
100
AcDbLine
 10
759.8972876695632
 20
1012.568216127643
 30
0.0
 11
758.469494509587
 21
1011.919773670749
 31
0.0
  0
LINE
  5
96F
330
2
100
AcDbEntity
  8
6-家具-143
 62
   143
100
AcDbLine
 10
758.469494509587
 20
1011.919773670749
 30
0.0
 11
757.5608988623435
 21
1010.752577248329
 31
0.0
  0
LINE
  5
970
330
2
100
AcDbEntity
  8
6-家具-143
 62
   143
100
AcDbLine
 10
757.5608988623435
 20
1010.752577248329
 30
0.0
 11
759.1184914004822
 21
1009.066626860408
 31
0.0
  0
LINE
  5
971
330
2
100
AcDbEntity
  8
6-家具-143
 62
   143
100
AcDbLine
 10
759.1184914004822
 20
1009.066626860408
 30
0.0
 11
762.3634758549576
 21
1007.121299489724
 31
0.0
  0
LINE
  5
972
330
2
100
AcDbEntity
  8
6-家具-143
 62
   143
100
AcDbLine
 10
762.3634758549576
 20
1007.121299489724
 30
0.0
 11
762.6230746113178
 21
1005.694726084566
 31
0.0
  0
LINE
  5
973
330
2
100
AcDbEntity
  8
6-家具-143
 62
   143
100
AcDbLine
 10
762.6230746113178
 20
1005.694726084566
 30
0.0
 11
761.3250808295277
 21
1005.435349101803
 31
0.0
  0
LINE
  5
974
330
2
100
AcDbEntity
  8
6-家具-143
 62
   143
100
AcDbLine
 10
761.3250808295277
 20
1005.435349101803
 30
0.0
 11
763.2720715022128
 21
1003.490021731119
 31
0.0
  0
LINE
  5
975
330
2
100
AcDbEntity
  8
6-家具-143
 62
   143
100
AcDbLine
 10
763.2720715022128
 20
1003.490021731119
 30
0.0
 11
763.1422721240388
 21
1002.711890782855
 31
0.0
  0
LINE
  5
976
330
2
100
AcDbEntity
  8
6-家具-143
 62
   143
100
AcDbLine
 10
763.1422721240388
 20
1002.711890782855
 30
0.0
 11
762.4932752331436
 21
1002.19313681733
 31
0.0
  0
LINE
  5
977
330
2
100
AcDbEntity
  8
6-家具-143
 62
   143
100
AcDbLine
 10
762.4932752331436
 20
1002.19313681733
 30
0.0
 11
763.1422721240388
 21
1001.155628886304
 31
0.0
  0
LINE
  5
978
330
2
100
AcDbEntity
  8
6-家具-143
 62
   143
100
AcDbLine
 10
763.1422721240388
 20
1001.155628886304
 30
0.0
 11
762.3634758549576
 21
1000.37749793804
 31
0.0
  0
LINE
  5
979
330
2
100
AcDbEntity
  8
6-家具-143
 62
   143
100
AcDbLine
 10
762.3634758549576
 20
1000.37749793804
 30
0.0
 11
762.6230746113178
 21
998.9509245328809
 31
0.0
  0
LINE
  5
97A
330
2
100
AcDbEntity
  8
6-家具-143
 62
   143
100
AcDbLine
 10
762.6230746113178
 20
998.9509245328809
 30
0.0
 11
761.974077720423
 21
998.0431050932239
 31
0.0
  0
LINE
  5
97B
330
2
100
AcDbEntity
  8
6-家具-143
 62
   143
100
AcDbLine
 10
761.974077720423
 20
998.0431050932239
 30
0.0
 11
760.2866858040981
 21
998.5618590587248
 31
0.0
  0
LINE
  5
97C
330
2
100
AcDbEntity
  8
6-家具-143
 62
   143
100
AcDbLine
 10
760.2866858040981
 20
998.5618590587248
 30
0.0
 11
757.4310994841574
 21
1000.896251903565
 31
0.0
  0
LINE
  5
97D
330
2
100
AcDbEntity
  8
6-家具-143
 62
   143
100
AcDbLine
 10
757.4310994841574
 20
1000.896251903565
 30
0.0
 11
755.7437075678325
 21
1003.490021731119
 31
0.0
  0
LINE
  5
97E
330
2
100
AcDbEntity
  8
6-家具-143
 62
   143
100
AcDbLine
 10
755.7437075678325
 20
1003.490021731119
 30
0.0
 11
753.6669175169729
 21
1004.916595136301
 31
0.0
  0
LINE
  5
97F
330
2
100
AcDbEntity
  8
6-家具-143
 62
   143
100
AcDbLine
 10
753.6669175169729
 20
1004.916595136301
 30
0.0
 11
751.5901274661016
 21
1004.397841170776
 31
0.0
  0
LINE
  5
980
330
2
100
AcDbEntity
  8
6-家具-143
 62
   143
100
AcDbLine
 10
753.0144130743057
 20
1002.939721862247
 30
0.0
 11
750.9621796781844
 21
1004.078877521094
 31
0.0
  0
LINE
  5
981
330
2
100
AcDbEntity
  8
6-家具-143
 62
   143
100
AcDbLine
 10
750.9621796781844
 20
1004.078877521094
 30
0.0
 11
750.0500759465686
 21
1007.268513365855
 31
0.0
  0
LINE
  5
982
330
2
100
AcDbEntity
  8
6-家具-143
 62
   143
100
AcDbLine
 10
750.0500759465686
 20
1007.268513365855
 30
0.0
 11
750.7341537452835
 21
1010.230318078838
 31
0.0
  0
LINE
  5
983
330
2
100
AcDbEntity
  8
6-家具-143
 62
   143
100
AcDbLine
 10
750.7341537452835
 20
1010.230318078838
 30
0.0
 11
752.7863871414047
 21
1011.369473737685
 31
0.0
  0
LINE
  5
984
330
2
100
AcDbEntity
  8
6-家具-143
 62
   143
100
AcDbLine
 10
752.7863871414047
 20
1011.369473737685
 30
0.0
 11
754.1545427388113
 21
1011.59730486944
 31
0.0
  0
LINE
  5
985
330
2
100
AcDbEntity
  8
6-家具-143
 62
   143
100
AcDbLine
 10
761.797987880646
 20
1040.464248407954
 30
0.0
 11
762.5695490526802
 21
1031.598879079238
 31
0.0
  0
LINE
  5
986
330
2
100
AcDbEntity
  8
6-家具-143
 62
   143
100
AcDbLine
 10
762.5695490526802
 20
1031.598879079238
 30
0.0
 11
761.9908781736572
 21
1019.842628184121
 31
0.0
  0
LINE
  5
987
330
2
100
AcDbEntity
  8
6-家具-143
 62
   143
100
AcDbLine
 10
761.9908781736572
 20
1019.842628184121
 30
0.0
 11
761.797987880646
 21
1014.639041737651
 31
0.0
  0
LINE
  5
988
330
2
100
AcDbEntity
  8
6-家具-143
 62
   143
100
AcDbLine
 10
761.797987880646
 20
1014.639041737651
 30
0.0
 11
760.6406468439679
 21
1009.242730195329
 31
0.0
  0
LINE
  5
989
330
2
100
AcDbEntity
  8
6-家具-143
 62
   143
100
AcDbLine
 10
748.4538944162608
 20
1041.671014262849
 30
0.0
 11
749.1379722149641
 21
1037.797885022798
 31
0.0
  0
LINE
  5
98A
330
2
100
AcDbEntity
  8
6-家具-143
 62
   143
100
AcDbLine
 10
749.1379722149641
 20
1037.797885022798
 30
0.0
 11
752.1023093426896
 21
1036.203067100418
 31
0.0
  0
LINE
  5
98B
330
2
100
AcDbEntity
  8
6-家具-143
 62
   143
100
AcDbLine
 10
752.1023093426896
 20
1036.203067100418
 30
0.0
 11
749.3659981478656
 21
1035.063911441571
 31
0.0
  0
LINE
  5
98C
330
2
100
AcDbEntity
  8
6-家具-143
 62
   143
100
AcDbLine
 10
749.3659981478656
 20
1035.063911441571
 30
0.0
 11
752.1023093426896
 21
1031.646444465053
 31
0.0
  0
LINE
  5
98D
330
2
100
AcDbEntity
  8
6-家具-143
 62
   143
100
AcDbLine
 10
752.1023093426896
 20
1031.646444465053
 30
0.0
 11
753.9265168059101
 21
1024.355848248463
 31
0.0
  0
LINE
  5
98E
330
2
100
AcDbEntity
  8
6-家具-143
 62
   143
100
AcDbLine
 10
753.9265168059101
 20
1024.355848248463
 30
0.0
 11
755.5226983362293
 21
1014.559109582423
 31
0.0
  0
LINE
  5
98F
330
2
100
AcDbEntity
  8
6-家具-143
 62
   143
100
AcDbLine
 10
752.3303352756025
 20
1043.493663317009
 30
0.0
 11
756.2067761349326
 21
1035.519573705105
 31
0.0
  0
LINE
  5
990
330
2
100
AcDbEntity
  8
6-家具-143
 62
   143
100
AcDbLine
 10
756.2067761349326
 20
1035.519573705105
 30
0.0
 11
759.1711132626697
 21
1028.684639752071
 31
0.0
  0
LINE
  5
991
330
2
100
AcDbEntity
  8
6-家具-143
 62
   143
100
AcDbLine
 10
759.1711132626697
 20
1028.684639752071
 30
0.0
 11
759.8551910613728
 21
1019.799225613098
 31
0.0
  0
LINE
  5
992
330
2
100
AcDbEntity
  8
6-家具-143
 62
   143
100
AcDbLine
 10
759.8551910613728
 20
1019.799225613098
 30
0.0
 11
760.083216994274
 21
1015.01477184598
 31
0.0
  0
LINE
  5
993
330
2
100
AcDbEntity
  8
6-家具-143
 62
   143
100
AcDbLine
 10
769.4322802432761
 20
1043.721494448764
 30
0.0
 11
771.7125395722986
 21
1040.987520867536
 31
0.0
  0
LINE
  5
994
330
2
100
AcDbEntity
  8
6-家具-143
 62
   143
100
AcDbLine
 10
771.7125395722986
 20
1040.987520867536
 30
0.0
 11
772.3966173710018
 21
1034.380418046258
 31
0.0
  0
LINE
  5
995
330
2
100
AcDbEntity
  8
6-家具-143
 62
   143
100
AcDbLine
 10
772.3966173710018
 20
1034.380418046258
 30
0.0
 11
771.9405655051996
 21
1023.216692589616
 31
0.0
  0
LINE
  5
996
330
2
100
AcDbEntity
  8
6-家具-143
 62
   143
100
AcDbLine
 10
771.9405655051996
 20
1023.216692589616
 30
0.0
 11
769.6603061761772
 21
1007.268513365855
 31
0.0
  0
LINE
  5
997
330
2
100
AcDbEntity
  8
6-家具-143
 62
   143
100
AcDbLine
 10
764.6437356523305
 20
1041.215351999315
 30
0.0
 11
767.3800468471549
 21
1032.329937860367
 31
0.0
  0
LINE
  5
998
330
2
100
AcDbEntity
  8
6-家具-143
 62
   143
100
AcDbLine
 10
767.3800468471549
 20
1032.329937860367
 30
0.0
 11
768.5201765116603
 21
1017.520914295429
 31
0.0
  0
LINE
  5
999
330
2
100
AcDbEntity
  8
6-家具-143
 62
   143
100
AcDbLine
 10
768.5201765116603
 20
1017.520914295429
 30
0.0
 11
769.2042543103751
 21
1004.534539784628
 31
0.0
  0
LINE
  5
99A
330
2
100
AcDbEntity
  8
6-家具-143
 62
   143
100
AcDbLine
 10
769.2042543103751
 20
1004.534539784628
 30
0.0
 11
770.1163580419794
 21
999.2944237539518
 31
0.0
  0
LINE
  5
99B
330
2
100
AcDbEntity
  8
6-家具-143
 62
   143
100
AcDbLine
 10
770.1163580419794
 20
999.2944237539518
 30
0.0
 11
765.0997875181325
 21
994.0543077232989
 31
0.0
  0
LINE
  5
99C
330
2
100
AcDbEntity
  8
6-家具-143
 62
   143
100
AcDbLine
 10
765.0997875181325
 20
994.0543077232989
 30
0.0
 11
761.4513725916922
 21
997.927436963349
 31
0.0
  0
LINE
  5
99D
330
2
100
AcDbEntity
  8
6-家具-143
 62
   143
100
AcDbLine
 10
774.448850767123
 20
1041.443183131094
 30
0.0
 11
777.4131878948603
 21
1038.025716154554
 31
0.0
  0
LINE
  5
99E
330
2
100
AcDbEntity
  8
6-家具-143
 62
   143
100
AcDbLine
 10
777.4131878948603
 20
1038.025716154554
 30
0.0
 11
774.9049026329369
 21
1036.203067100418
 31
0.0
  0
LINE
  5
99F
330
2
100
AcDbEntity
  8
6-家具-143
 62
   143
100
AcDbLine
 10
774.9049026329369
 20
1036.203067100418
 30
0.0
 11
778.0972656935637
 21
1033.924755782724
 31
0.0
  0
LINE
  5
9A0
330
2
100
AcDbEntity
  8
6-家具-143
 62
   143
100
AcDbLine
 10
778.0972656935637
 20
1033.924755782724
 30
0.0
 11
775.5889804316401
 21
1026.861990697912
 31
0.0
  0
LINE
  5
9A1
330
2
100
AcDbEntity
  8
6-家具-143
 62
   143
100
AcDbLine
 10
775.5889804316401
 20
1026.861990697912
 30
0.0
 11
772.1685914381007
 21
1014.331278450668
 31
0.0
  0
LINE
  5
9A2
330
2
100
AcDbEntity
  8
6-家具-143
 62
   143
100
AcDbLine
 10
772.1685914381007
 20
1014.331278450668
 30
0.0
 11
770.1163580419794
 21
1004.534539784628
 31
0.0
  0
LINE
  5
9A3
330
2
100
AcDbEntity
  8
6-家具-143
 62
   143
100
AcDbLine
 10
770.1163580419794
 20
1004.534539784628
 30
0.0
 11
769.6603061761772
 21
1002.256228466958
 31
0.0
  0
LINE
  5
9A4
330
2
100
AcDbEntity
  8
6-家具-143
 62
   143
100
AcDbLine
 10
768.5201765116603
 20
1044.860650107611
 30
0.0
 11
773.5367470355189
 21
1041.898845394628
 31
0.0
  0
LINE
  5
9A5
330
2
100
AcDbEntity
  8
6-家具-143
 62
   143
100
AcDbLine
 10
773.5367470355189
 20
1041.898845394628
 30
0.0
 11
778.3252916264647
 21
1039.848365208713
 31
0.0
  0
LINE
  5
9A6
330
2
100
AcDbEntity
  8
6-家具-143
 62
   143
100
AcDbLine
 10
778.3252916264647
 20
1039.848365208713
 30
0.0
 11
780.8335768883883
 21
1038.025716154554
 31
0.0
  0
LINE
  5
9A7
330
2
100
AcDbEntity
  8
6-家具-143
 62
   143
100
AcDbLine
 10
780.8335768883883
 20
1038.025716154554
 30
0.0
 11
782.8858102845095
 21
1035.063911441571
 31
0.0
  0
LINE
  5
9A8
330
2
100
AcDbEntity
  8
6-家具-143
 62
   143
100
AcDbLine
 10
782.8858102845095
 20
1035.063911441571
 30
0.0
 11
784.7100177477295
 21
1029.368133147361
 31
0.0
  0
LINE
  5
9A9
330
2
100
AcDbEntity
  8
6-家具-143
 62
   143
100
AcDbLine
 10
784.7100177477295
 20
1029.368133147361
 30
0.0
 11
783.5698880832242
 21
1018.432238822497
 31
0.0
  0
LINE
  5
9AA
330
2
100
AcDbEntity
  8
6-家具-143
 62
   143
100
AcDbLine
 10
783.5698880832242
 20
1018.432238822497
 30
0.0
 11
784.2539658819273
 21
1010.458149210593
 31
0.0
  0
LINE
  5
9AB
330
2
100
AcDbEntity
  8
6-家具-143
 62
   143
100
AcDbLine
 10
784.2539658819273
 20
1010.458149210593
 30
0.0
 11
784.0259399490264
 21
1007.952006761144
 31
0.0
  0
LINE
  5
9AC
330
2
100
AcDbEntity
  8
6-家具-143
 62
   143
100
AcDbLine
 10
784.0259399490264
 20
1007.952006761144
 30
0.0
 11
780.149499089685
 21
985.8523869796389
 31
0.0
  0
LINE
  5
9AD
330
2
100
AcDbEntity
  8
6-家具-143
 62
   143
100
AcDbLine
 10
780.149499089685
 20
985.8523869796389
 30
0.0
 11
779.2373953580804
 21
985.3967247161055
 31
0.0
  0
LINE
  5
9AE
330
2
100
AcDbEntity
  8
6-家具-143
 62
   143
100
AcDbLine
 10
779.2373953580804
 20
985.3967247161055
 30
0.0
 11
778.7813434922668
 21
981.5235954760312
 31
0.0
  0
LINE
  5
9AF
330
2
100
AcDbEntity
  8
6-家具-143
 62
   143
100
AcDbLine
 10
778.7813434922668
 20
981.5235954760312
 30
0.0
 11
778.0972656935637
 21
981.5235954760312
 31
0.0
  0
LINE
  5
9B0
330
2
100
AcDbEntity
  8
6-家具-143
 62
   143
100
AcDbLine
 10
778.0972656935637
 20
981.5235954760312
 30
0.0
 11
777.4131878948603
 21
981.5235954760312
 31
0.0
  0
LINE
  5
9B1
330
2
100
AcDbEntity
  8
6-家具-143
 62
   143
100
AcDbLine
 10
751.8742834097889
 20
1044.632818975832
 30
0.0
 11
747.7698166175461
 21
1042.354507658162
 31
0.0
  0
LINE
  5
9B2
330
2
100
AcDbEntity
  8
6-家具-143
 62
   143
100
AcDbLine
 10
747.7698166175461
 20
1042.354507658162
 30
0.0
 11
741.8411423620831
 21
1040.304027472247
 31
0.0
  0
LINE
  5
9B3
330
2
100
AcDbEntity
  8
6-家具-143
 62
   143
100
AcDbLine
 10
741.8411423620831
 20
1040.304027472247
 30
0.0
 11
737.0525977711375
 21
1038.709209549866
 31
0.0
  0
LINE
  5
9B4
330
2
100
AcDbEntity
  8
6-家具-143
 62
   143
100
AcDbLine
 10
737.0525977711375
 20
1038.709209549866
 30
0.0
 11
734.088260643412
 21
1034.152586914503
 31
0.0
  0
LINE
  5
9B5
330
2
100
AcDbEntity
  8
6-家具-143
 62
   143
100
AcDbLine
 10
734.088260643412
 20
1034.152586914503
 30
0.0
 11
732.7201050459939
 21
1023.672354853149
 31
0.0
  0
LINE
  5
9B6
330
2
100
AcDbEntity
  8
6-家具-143
 62
   143
100
AcDbLine
 10
732.7201050459939
 20
1023.672354853149
 30
0.0
 11
733.1761569117959
 21
1011.59730486944
 31
0.0
  0
LINE
  5
9B7
330
2
100
AcDbEntity
  8
6-家具-143
 62
   143
100
AcDbLine
 10
733.1761569117959
 20
1011.59730486944
 30
0.0
 11
736.1404940395331
 21
1006.812851102321
 31
0.0
  0
LINE
  5
9B8
330
2
100
AcDbEntity
  8
6-家具-143
 62
   143
100
AcDbLine
 10
736.1404940395331
 20
1006.812851102321
 30
0.0
 11
740.0169348988749
 21
1003.395384125781
 31
0.0
  0
LINE
  5
9B9
330
2
100
AcDbEntity
  8
6-家具-143
 62
   143
100
AcDbLine
 10
740.0169348988749
 20
1003.395384125781
 30
0.0
 11
742.9812720266003
 21
1001.117072808111
 31
0.0
  0
LINE
  5
9BA
330
2
100
AcDbEntity
  8
6-家具-143
 62
   143
100
AcDbLine
 10
742.9812720266003
 20
1001.117072808111
 30
0.0
 11
748.9099462820631
 21
1001.117072808111
 31
0.0
  0
LINE
  5
9BB
330
2
100
AcDbEntity
  8
6-家具-143
 62
   143
100
AcDbLine
 10
748.9099462820631
 20
1001.117072808111
 30
0.0
 11
752.3303352756025
 21
1001.344903939866
 31
0.0
  0
LINE
  5
9BC
330
2
100
AcDbEntity
  8
6-家具-143
 62
   143
100
AcDbLine
 10
752.3303352756025
 20
1001.344903939866
 30
0.0
 11
754.8386205375261
 21
1002.711890730492
 31
0.0
  0
LINE
  5
9BD
330
2
100
AcDbEntity
  8
6-家具-143
 62
   143
100
AcDbLine
 10
777.9394012364392
 20
981.183601213989
 30
0.0
 11
779.3671943964151
 21
977.9413889295161
 31
0.0
  0
LINE
  5
9BE
330
2
100
AcDbEntity
  8
6-家具-143
 62
   143
100
AcDbLine
 10
779.3671943964151
 20
977.9413889295161
 30
0.0
 11
780.1459906654846
 21
974.4397996622808
 31
0.0
  0
LINE
  5
9BF
330
2
100
AcDbEntity
  8
6-家具-143
 62
   143
100
AcDbLine
 10
776.9571360290582
 20
972.8660124688381
 30
0.0
 11
777.8692397606622
 21
981.7514266078099
 31
0.0
  0
LINE
  5
9C0
330
2
100
AcDbEntity
  8
6-家具-143
 62
   143
100
AcDbLine
 10
777.8692397606622
 20
981.7514266078099
 30
0.0
 11
777.8692397606622
 21
988.8141916926219
 31
0.0
  0
LINE
  5
9C1
330
2
100
AcDbEntity
  8
6-家具-143
 62
   143
100
AcDbLine
 10
777.8692397606622
 20
988.8141916926219
 30
0.0
 11
778.5533175593656
 21
995.6491256456788
 31
0.0
  0
LINE
  5
9C2
330
2
100
AcDbEntity
  8
6-家具-143
 62
   143
100
AcDbLine
 10
778.5533175593656
 20
995.6491256456788
 30
0.0
 11
778.5533175593656
 21
1001.344903939866
 31
0.0
  0
LINE
  5
9C3
330
2
100
AcDbEntity
  8
6-家具-143
 62
   143
100
AcDbLine
 10
778.5533175593656
 20
1001.344903939866
 30
0.0
 11
778.5533175593656
 21
1007.496344497611
 31
0.0
  0
LINE
  5
9C4
330
2
100
AcDbEntity
  8
6-家具-143
 62
   143
100
AcDbLine
 10
778.5533175593656
 20
1007.496344497611
 30
0.0
 11
778.0972656935637
 21
1017.976576558963
 31
0.0
  0
LINE
  5
9C5
330
2
100
AcDbEntity
  8
6-家具-143
 62
   143
100
AcDbLine
 10
778.0972656935637
 20
1017.976576558963
 30
0.0
 11
780.3775250225859
 21
1024.811510511997
 31
0.0
  0
LINE
  5
9C6
330
2
100
AcDbEntity
  8
6-家具-143
 62
   143
100
AcDbLine
 10
768.5201765116603
 20
997.4717746998159
 30
0.0
 11
769.6603061761772
 21
992.6873209326968
 31
0.0
  0
LINE
  5
9C7
330
2
100
AcDbEntity
  8
6-家具-143
 62
   143
100
AcDbLine
 10
769.6603061761772
 20
992.6873209326968
 30
0.0
 11
770.5724099077815
 21
989.2698539561557
 31
0.0
  0
LINE
  5
9C8
330
2
100
AcDbEntity
  8
6-家具-143
 62
   143
100
AcDbLine
 10
770.5724099077815
 20
989.2698539561557
 30
0.0
 11
770.5724099077815
 21
982.8905822666564
 31
0.0
  0
LINE
  5
9C9
330
2
100
AcDbEntity
  8
6-家具-143
 62
   143
100
AcDbLine
 10
770.5724099077815
 20
982.8905822666564
 30
0.0
 11
772.8526692368155
 21
978.5617907630484
 31
0.0
  0
LINE
  5
9CA
330
2
100
AcDbEntity
  8
6-家具-143
 62
   143
100
AcDbLine
 10
772.8526692368155
 20
978.5617907630484
 30
0.0
 11
775.360954498739
 21
975.8278171818441
 31
0.0
  0
LINE
  5
9CB
330
2
100
AcDbEntity
  8
6-家具-143
 62
   143
100
AcDbLine
 10
775.360954498739
 20
975.8278171818441
 30
0.0
 11
777.1851619619592
 21
972.410350205304
 31
0.0
  0
LINE
  5
9CC
330
2
100
AcDbEntity
  8
6-家具-143
 62
   143
100
AcDbLine
 10
777.1851619619592
 20
972.410350205304
 30
0.0
 11
777.6412138277615
 21
969.4485454923212
 31
0.0
  0
LINE
  5
9CD
330
2
100
AcDbEntity
  8
6-家具-143
 62
   143
100
AcDbLine
 10
750.7341537452835
 20
971.95468794177
 30
0.0
 11
756.2067761349326
 21
978.3339596312931
 31
0.0
  0
LINE
  5
9CE
330
2
100
AcDbEntity
  8
6-家具-143
 62
   143
100
AcDbLine
 10
756.2067761349326
 20
978.3339596312931
 30
0.0
 11
760.5392688600878
 21
984.9410624525715
 31
0.0
  0
LINE
  5
9CF
330
2
100
AcDbEntity
  8
6-家具-143
 62
   143
100
AcDbLine
 10
760.5392688600878
 20
984.9410624525715
 30
0.0
 11
760.7672947929889
 21
991.0925030103157
 31
0.0
  0
LINE
  5
9D0
330
2
100
AcDbEntity
  8
6-家具-143
 62
   143
100
AcDbLine
 10
760.7672947929889
 20
991.0925030103157
 30
0.0
 11
760.3112429271751
 21
997.6996058315938
 31
0.0
  0
LINE
  5
9D1
330
2
100
AcDbEntity
  8
6-家具-143
 62
   143
100
AcDbLine
 10
739.788908965962
 20
1002.939721862247
 30
0.0
 11
740.0169348988749
 21
999.9779171492638
 31
0.0
  0
LINE
  5
9D2
330
2
100
AcDbEntity
  8
6-家具-143
 62
   143
100
AcDbLine
 10
740.0169348988749
 20
999.9779171492638
 30
0.0
 11
740.472986764677
 21
992.0038275373839
 31
0.0
  0
VIEWPORT
  5
DA
102
{ACAD_XDICTIONARY
360
9DB
102
}
330
C
100
AcDbEntity
 67
     1
  8
0
100
AcDbViewport
 10
420.5071835950612
 20
297.0009369707932
 30
0.0
 40
848.880193293653
 41
633.6711302051212
 68
     1
 69
     1
 12
420.5071835950612
 22
297.0009369707932
 13
0.0
 23
0.0
 14
10.0
 24
10.0
 15
10.0
 25
10.0
 16
0.0
 26
0.0
 36
1.0
 17
0.0
 27
0.0
 37
0.0
 42
50.0
 43
0.0
 44
0.0
 45
633.6711302051212
 50
0.0
 51
0.0
 72
  1000
 90
    32864
  1

281
     0
 71
     1
 74
     0
110
0.0
120
0.0
130
0.0
111
1.0
121
0.0
131
0.0
112
0.0
122
1.0
132
0.0
 79
     0
146
0.0
  0
ENDSEC
  0
SECTION
  2
OBJECTS
  0
DICTIONARY
  5
7
330
0
100
AcDbDictionary
281
     1
  3
ACAD_COLOR
350
DE
  3
ACAD_GROUP
350
20
  3
ACAD_LAYOUT
350
B
  3
ACAD_MATERIAL
350
DD
  3
ACAD_MLINESTYLE
350
21
  3
ACAD_PLOTSETTINGS
350
22
  3
ACAD_PLOTSTYLENAME
350
6
  3
ACDBHEADERROUNDTRIPXREC
350
9D4
  3
AcDbVariableDictionary
350
115
  0
DICTIONARY
  5
1A3
330
10
100
AcDbDictionary
280
     1
281
     1
  3
ACAD_LAYERSTATES
360
1A4
  0
DICTIONARY
  5
9DB
330
DA
100
AcDbDictionary
280
     1
281
     1
  3
ACAD_XREC_ROUNDTRIP
360
9DC
  0
DICTIONARY
  5
DE
102
{ACAD_REACTORS
330
7
102
}
330
7
100
AcDbDictionary
281
     1
  0
DICTIONARY
  5
20
102
{ACAD_REACTORS
330
7
102
}
330
7
100
AcDbDictionary
281
     1
  0
DICTIONARY
  5
B
102
{ACAD_REACTORS
330
7
102
}
330
7
100
AcDbDictionary
281
     1
  3
JIS A1 Title Block
350
F
  3
Model
350
A
  0
DICTIONARY
  5
DD
102
{ACAD_REACTORS
330
7
102
}
330
7
100
AcDbDictionary
281
     1
  0
DICTIONARY
  5
21
102
{ACAD_REACTORS
330
7
102
}
330
7
100
AcDbDictionary
281
     1
  3
Standard
350
23
  0
DICTIONARY
  5
22
102
{ACAD_REACTORS
330
7
102
}
330
7
100
AcDbDictionary
281
     1
  0
ACDBDICTIONARYWDFLT
  5
6
102
{ACAD_REACTORS
330
7
102
}
330
7
100
AcDbDictionary
281
     1
  3
Normal
350
5
100
AcDbDictionaryWithDefault
340
5
  0
DICTIONARY
  5
9D4
102
{ACAD_REACTORS
330
7
102
}
330
7
100
AcDbDictionary
281
     1
  3
COLORDICT
350
9D6
  3
MATERIALDICT
350
9D5
  0
DICTIONARY
  5
115
102
{ACAD_REACTORS
330
7
102
}
330
7
100
AcDbDictionary
281
     1
  3
DIMASSOC
350
116
  3
PROJECTNAME
350
117
  0
DICTIONARY
  5
1A4
102
{ACAD_REACTORS
330
1A3
102
}
330
1A3
100
AcDbDictionary
281
     1
  0
XRECORD
  5
9DC
102
{ACAD_REACTORS
330
9DB
102
}
330
9DB
100
AcDbXrecord
280
     1
102
SHADEPLOT
 70
     0
  0
LAYOUT
  5
F
102
{ACAD_XDICTIONARY
360
9D9
102
}
102
{ACAD_REACTORS
330
B
102
}
330
B
100
AcDbPlotSettings
  1

  2
none_device
  4
ISO_A1_(594.00_x_841.00_MM)
  6

 40
7.549999999999998
 41
20.05
 42
7.549999999999998
 43
20.05
 44
594.0
 45
841.0
 46
-7.559999999999997
 47
-20.07
 48
0.0
 49
0.0
140
0.0
141
0.0
142
1.0
143
1.0
 70
   692
 72
     1
 73
     1
 74
     1
  7

 75
    16
147
1.0
148
0.0128164049386896
149
0.0090630292066862
100
AcDbLayout
  1
JIS A1 Title Block
 70
     1
 71
     1
 10
0.0071835950613099
 20
0.0009369707933136
 11
841.0071835950612
 21
594.0009369707931
 12
0.0
 22
0.0
 32
0.0
 14
1.000000000000000E+20
 24
1.000000000000000E+20
 34
1.000000000000000E+20
 15
-1.000000000000000E+20
 25
-1.000000000000000E+20
 35
-1.000000000000000E+20
146
0.0
 13
0.0
 23
0.0
 33
0.0
 16
1.0
 26
0.0
 36
0.0
 17
0.0
 27
1.0
 37
0.0
 76
     0
330
C
331
DA
  0
LAYOUT
  5
A
102
{ACAD_XDICTIONARY
360
9D7
102
}
102
{ACAD_REACTORS
330
B
102
}
330
B
100
AcDbPlotSettings
  1

  2
none_device
  4
ANSI_A_(8.50_x_11.00_Inches)
  6

 40
6.349999904632567
 41
19.04999923706055
 42
6.350006103515625
 43
19.04998779296875
 44
215.8999938964844
 45
279.3999938964844
 46
28.79458090408706
 47
17.57028564415653
 48
0.0
 49
0.0
140
0.0
141
0.0
142
1.0
143
103.6285708313174
 70
 11956
 72
     0
 73
     1
 74
     1
  7

 75
     0
147
0.0096498484151418
148
1.303736702137707
149
0.9208318680958655
100
AcDbLayout
  1
Model
 70
     1
 71
     0
 10
0.0
 20
0.0
 11
12.0
 21
9.0
 12
0.0
 22
0.0
 32
0.0
 14
0.0
 24
0.0
 34
0.0
 15
0.0
 25
0.0
 35
0.0
146
0.0
 13
0.0
 23
0.0
 33
0.0
 16
1.0
 26
0.0
 36
0.0
 17
0.0
 27
1.0
 37
0.0
 76
     0
330
2
  0
MLINESTYLE
  5
23
102
{ACAD_REACTORS
330
21
102
}
330
21
100
AcDbMlineStyle
  2
STANDARD
 70
     0
  3

 62
   256
 51
90.0
 52
90.0
 71
     2
 49
0.5
 62
   256
  6
BYLAYER
 49
-0.5
 62
   256
  6
BYLAYER
  0
ACDBPLACEHOLDER
  5
5
102
{ACAD_REACTORS
330
6
102
}
330
6
  0
XRECORD
  5
9D6
102
{ACAD_REACTORS
330
9D4
102
}
330
9D4
100
AcDbXrecord
280
     1
340
DE
  0
XRECORD
  5
9D5
102
{ACAD_REACTORS
330
9D4
102
}
330
9D4
100
AcDbXrecord
280
     1
340
DD
  0
DICTIONARYVAR
  5
116
102
{ACAD_REACTORS
330
115
102
}
330
115
100
DictionaryVariables
280
     0
  1
1
  0
DICTIONARYVAR
  5
117
102
{ACAD_REACTORS
330
115
102
}
330
115
100
DictionaryVariables
280
     0
  1

  0
DICTIONARY
  5
9D9
330
F
100
AcDbDictionary
280
     1
281
     1
  3
ACAD_XREC_ROUNDTRIP
360
9DA
  0
DICTIONARY
  5
9D7
330
A
100
AcDbDictionary
280
     1
281
     1
  3
ACAD_XREC_ROUNDTRIP
360
9D8
  0
XRECORD
  5
9DA
102
{ACAD_REACTORS
330
9D9
102
}
330
9D9
100
AcDbXrecord
280
     1
102
SHADEPLOT
 70
     0
102
SHADEPLOTRESLEVEL
 70
     2
102
SHADEPLOTCUSTOMDPI
 70
   300
  0
XRECORD
  5
9D8
102
{ACAD_REACTORS
330
9D7
102
}
330
9D7
100
AcDbXrecord
280
     1
102
SHADEPLOT
 70
     0
102
SHADEPLOTRESLEVEL
 70
     2
102
SHADEPLOTCUSTOMDPI
 70
   300
  0
ENDSEC
  0
EOF
