  0
SECTION
  2
HEADER
  9
$ACADVER
  1
AC1015
  9
$ACADMAINTVER
 70
    20
  9
$DWGCODEPAGE
  3
ANSI_936
  9
$INSBASE
 10
0.0
 20
0.0
 30
0.0
  9
$EXTMIN
 10
-0.0243727092311019
 20
-0.0182795319233264
 30
-0.0000000000000053
  9
$EXTMAX
 10
1600.024430455266
 20
1200.018322841449
 30
0.0000000000000099
  9
$LIMMIN
 10
0.0
 20
0.0
  9
$LIMMAX
 10
420.0
 20
297.0
  9
$ORTHOMODE
 70
     0
  9
$REGENMODE
 70
     1
  9
$FILLMODE
 70
     1
  9
$QTEXTMODE
 70
     0
  9
$MIRRTEXT
 70
     0
  9
$LTSCALE
 40
1.0
  9
$ATTMODE
 70
     1
  9
$TEXTSIZE
 40
2.5
  9
$TRACEWID
 40
1.0
  9
$TEXTSTYLE
  7
Standard
  9
$CLAYER
  8
0
  9
$CELTYPE
  6
ByLayer
  9
$CECOLOR
 62
   256
  9
$CELTSCALE
 40
1.0
  9
$DISPSILH
 70
     0
  9
$DIMSCALE
 40
1.0
  9
$DIMASZ
 40
2.5
  9
$DIMEXO
 40
1.0
  9
$DIMDLI
 40
7.0
  9
$DIMRND
 40
0.0
  9
$DIMDLE
 40
0.0
  9
$DIMEXE
 40
1.0
  9
$DIMTP
 40
0.0
  9
$DIMTM
 40
0.0
  9
$DIMTXT
 40
2.5
  9
$DIMCEN
 40
0.0
  9
$DIMTSZ
 40
0.0
  9
$DIMTOL
 70
     0
  9
$DIMLIM
 70
     0
  9
$DIMTIH
 70
     0
  9
$DIMTOH
 70
     0
  9
$DIMSE1
 70
     0
  9
$DIMSE2
 70
     0
  9
$DIMTAD
 70
     1
  9
$DIMZIN
 70
     8
  9
$DIMBLK
  1

  9
$DIMASO
 70
     1
  9
$DIMSHO
 70
     1
  9
$DIMPOST
  1

  9
$DIMAPOST
  1

  9
$DIMALT
 70
     0
  9
$DIMALTD
 70
     2
  9
$DIMALTF
 40
0.0394
  9
$DIMLFAC
 40
1.0
  9
$DIMTOFL
 70
     1
  9
$DIMTVP
 40
0.0
  9
$DIMTIX
 70
     1
  9
$DIMSOXD
 70
     1
  9
$DIMSAH
 70
     0
  9
$DIMBLK1
  1

  9
$DIMBLK2
  1

  9
$DIMSTYLE
  2
JIS
  9
$DIMCLRD
 70
     0
  9
$DIMCLRE
 70
     0
  9
$DIMCLRT
 70
     0
  9
$DIMTFAC
 40
1.0
  9
$DIMGAP
 40
0.0
  9
$DIMJUST
 70
     0
  9
$DIMSD1
 70
     0
  9
$DIMSD2
 70
     0
  9
$DIMTOLJ
 70
     1
  9
$DIMTZIN
 70
     0
  9
$DIMALTZ
 70
     0
  9
$DIMALTTZ
 70
     0
  9
$DIMUPT
 70
     0
  9
$DIMDEC
 70
     4
  9
$DIMTDEC
 70
     4
  9
$DIMALTU
 70
     2
  9
$DIMALTTD
 70
     2
  9
$DIMTXSTY
  7
Standard
  9
$DIMAUNIT
 70
     0
  9
$DIMADEC
 70
     0
  9
$DIMALTRND
 40
0.0
  9
$DIMAZIN
 70
     0
  9
$DIMDSEP
 70
    46
  9
$DIMATFIT
 70
     3
  9
$DIMFRAC
 70
     0
  9
$DIMLDRBLK
  1

  9
$DIMLUNIT
 70
     2
  9
$DIMLWD
 70
    -2
  9
$DIMLWE
 70
    -2
  9
$DIMTMOVE
 70
     0
  9
$LUNITS
 70
     2
  9
$LUPREC
 70
     4
  9
$SKETCHINC
 40
1.0
  9
$FILLETRAD
 40
0.0
  9
$AUNITS
 70
     0
  9
$AUPREC
 70
     0
  9
$MENU
  1
.
  9
$ELEVATION
 40
0.0
  9
$PELEVATION
 40
0.0
  9
$THICKNESS
 40
0.0
  9
$LIMCHECK
 70
     0
  9
$CHAMFERA
 40
0.0
  9
$CHAMFERB
 40
0.0
  9
$CHAMFERC
 40
0.0
  9
$CHAMFERD
 40
0.0
  9
$SKPOLY
 70
     0
  9
$TDCREATE
 40
2455955.017649734
  9
$TDUCREATE
 40
2455954.684316401
  9
$TDUPDATE
 40
2456193.628767361
  9
$TDUUPDATE
 40
2456193.295434028
  9
$TDINDWG
 40
0.0577902546
  9
$TDUSRTIMER
 40
0.0577846528
  9
$USRTIMER
 70
     1
  9
$ANGBASE
 50
0.0
  9
$ANGDIR
 70
     0
  9
$PDMODE
 70
     0
  9
$PDSIZE
 40
0.0
  9
$PLINEWID
 40
0.0
  9
$SPLFRAME
 70
     0
  9
$SPLINETYPE
 70
     6
  9
$SPLINESEGS
 70
   100
  9
$HANDSEED
  5
9F9
  9
$SURFTAB1
 70
     6
  9
$SURFTAB2
 70
     6
  9
$SURFTYPE
 70
     6
  9
$SURFU
 70
     6
  9
$SURFV
 70
     6
  9
$UCSBASE
  2

  9
$UCSNAME
  2

  9
$UCSORG
 10
0.0
 20
0.0
 30
0.0
  9
$UCSXDIR
 10
1.0
 20
0.0
 30
0.0
  9
$UCSYDIR
 10
0.0
 20
1.0
 30
0.0
  9
$UCSORTHOREF
  2

  9
$UCSORTHOVIEW
 70
     0
  9
$UCSORGTOP
 10
0.0
 20
0.0
 30
0.0
  9
$UCSORGBOTTOM
 10
0.0
 20
0.0
 30
0.0
  9
$UCSORGLEFT
 10
0.0
 20
0.0
 30
0.0
  9
$UCSORGRIGHT
 10
0.0
 20
0.0
 30
0.0
  9
$UCSORGFRONT
 10
0.0
 20
0.0
 30
0.0
  9
$UCSORGBACK
 10
0.0
 20
0.0
 30
0.0
  9
$PUCSBASE
  2

  9
$PUCSNAME
  2

  9
$PUCSORG
 10
0.0
 20
0.0
 30
0.0
  9
$PUCSXDIR
 10
1.0
 20
0.0
 30
0.0
  9
$PUCSYDIR
 10
0.0
 20
1.0
 30
0.0
  9
$PUCSORTHOREF
  2

  9
$PUCSORTHOVIEW
 70
     0
  9
$PUCSORGTOP
 10
0.0
 20
0.0
 30
0.0
  9
$PUCSORGBOTTOM
 10
0.0
 20
0.0
 30
0.0
  9
$PUCSORGLEFT
 10
0.0
 20
0.0
 30
0.0
  9
$PUCSORGRIGHT
 10
0.0
 20
0.0
 30
0.0
  9
$PUCSORGFRONT
 10
0.0
 20
0.0
 30
0.0
  9
$PUCSORGBACK
 10
0.0
 20
0.0
 30
0.0
  9
$USERI1
 70
     0
  9
$USERI2
 70
     0
  9
$USERI3
 70
     0
  9
$USERI4
 70
     0
  9
$USERI5
 70
     0
  9
$USERR1
 40
0.0
  9
$USERR2
 40
0.0
  9
$USERR3
 40
0.0
  9
$USERR4
 40
0.0
  9
$USERR5
 40
0.0
  9
$WORLDVIEW
 70
     1
  9
$SHADEDGE
 70
     3
  9
$SHADEDIF
 70
    70
  9
$TILEMODE
 70
     1
  9
$MAXACTVP
 70
    64
  9
$PINSBASE
 10
0.0
 20
0.0
 30
0.0
  9
$PLIMCHECK
 70
     0
  9
$PEXTMIN
 10
1.000000000000000E+20
 20
1.000000000000000E+20
 30
1.000000000000000E+20
  9
$PEXTMAX
 10
-1.000000000000000E+20
 20
-1.000000000000000E+20
 30
-1.000000000000000E+20
  9
$PLIMMIN
 10
0.0071835950613099
 20
0.0009369707933136
  9
$PLIMMAX
 10
841.0071835950612
 20
594.0009369707931
  9
$UNITMODE
 70
     0
  9
$VISRETAIN
 70
     1
  9
$PLINEGEN
 70
     0
  9
$PSLTSCALE
 70
     1
  9
$TREEDEPTH
 70
  3020
  9
$CMLSTYLE
  2
Standard
  9
$CMLJUST
 70
     0
  9
$CMLSCALE
 40
20.0
  9
$PROXYGRAPHICS
 70
     1
  9
$MEASUREMENT
 70
     1
  9
$CELWEIGHT
370
    -1
  9
$ENDCAPS
280
     0
  9
$JOINSTYLE
280
     0
  9
$LWDISPLAY
290
     1
  9
$INSUNITS
 70
     4
  9
$HYPERLINKBASE
  1

  9
$STYLESHEET
  1

  9
$XEDIT
290
     1
  9
$CEPSNTYPE
380
     0
  9
$PSTYLEMODE
290
     1
  9
$FINGERPRINTGUID
  2
{048D7354-A980-11D2-9A39-0060089B3A3F}
  9
$VERSIONGUID
  2
{7E64C9A9-97DB-4FB4-8803-AB446B928601}
  9
$EXTNAMES
290
     1
  9
$PSVPSCALE
 40
0.0
  9
$OLESTARTUP
290
     0
  0
ENDSEC
  0
SECTION
  2
CLASSES
  0
CLASS
  1
ACDBDICTIONARYWDFLT
  2
AcDbDictionaryWithDefault
  3
ObjectDBX Classes
 90
        0
280
     0
281
     0
  0
CLASS
  1
ACDBPLACEHOLDER
  2
AcDbPlaceHolder
  3
ObjectDBX Classes
 90
        0
280
     0
281
     0
  0
CLASS
  1
LAYOUT
  2
AcDbLayout
  3
ObjectDBX Classes
 90
        0
280
     0
281
     0
  0
CLASS
  1
PLOTSETTINGS
  2
AcDbPlotSettings
  3
ObjectDBX Classes
 90
    32768
280
     0
281
     0
  0
CLASS
  1
DICTIONARYVAR
  2
AcDbDictionaryVar
  3
ObjectDBX Classes
 90
        0
280
     0
281
     0
  0
ENDSEC
  0
SECTION
  2
TABLES
  0
TABLE
  2
VPORT
  5
19
330
0
100
AcDbSymbolTable
 70
     2
  0
VPORT
  5
9EF
330
19
100
AcDbSymbolTableRecord
100
AcDbViewportTableRecord
  2
*Active
 70
     0
 10
0.0
 20
0.0
 11
1.0
 21
1.0
 12
800.000024321174
 22
600.0000213820317
 13
0.0
 23
0.0
 14
10.0
 24
10.0
 15
10.0
 25
10.0
 16
0.0
 26
0.0
 36
1.0
 17
0.0
 27
0.0
 37
0.0
 40
1297.650887577669
 41
2.293805309734513
 42
50.0
 43
0.0
 44
0.0
 50
0.0
 51
0.0
 71
     0
 72
  2000
 73
     1
 74
     3
 75
     0
 76
     0
 77
     0
 78
     0
281
     0
 65
     1
110
0.0
120
0.0
130
0.0
111
1.0
121
0.0
131
0.0
112
0.0
122
1.0
132
0.0
 79
     0
146
0.0
  0
ENDTAB
  0
TABLE
  2
LTYPE
  5
14
330
0
100
AcDbSymbolTable
 70
     1
  0
LTYPE
  5
15
330
14
100
AcDbSymbolTableRecord
100
AcDbLinetypeTableRecord
  2
ByBlock
 70
     0
  3

 72
    65
 73
     0
 40
0.0
  0
LTYPE
  5
16
330
14
100
AcDbSymbolTableRecord
100
AcDbLinetypeTableRecord
  2
ByLayer
 70
     0
  3

 72
    65
 73
     0
 40
0.0
  0
LTYPE
  5
8
330
14
100
AcDbSymbolTableRecord
100
AcDbLinetypeTableRecord
  2
Continuous
 70
     0
  3
Solid line
 72
    65
 73
     0
 40
0.0
  0
ENDTAB
  0
TABLE
  2
LAYER
  5
10
102
{ACAD_XDICTIONARY
360
1A3
102
}
330
0
100
AcDbSymbolTable
 70
     4
  0
LAYER
  5
4
330
10
100
AcDbSymbolTableRecord
100
AcDbLayerTableRecord
  2
0
 70
     0
 62
     7
  6
Continuous
370
    -3
390
5
  0
LAYER
  5
28
330
10
100
AcDbSymbolTableRecord
100
AcDbLayerTableRecord
  2
Object
 70
     0
 62
     7
  6
Continuous
370
    -3
390
5
  0
LAYER
  5
1A2
330
10
100
AcDbSymbolTableRecord
100
AcDbLayerTableRecord
  2
TOPOVERLAY
 70
     0
 62
     2
  6
Continuous
370
    -3
390
5
  0
LAYER
  5
7E6
330
10
100
AcDbSymbolTableRecord
100
AcDbLayerTableRecord
  2
6-家具-143
 70
     0
 62
   143
  6
Continuous
370
    -3
390
5
  0
ENDTAB
  0
TABLE
  2
STYLE
  5
11
330
0
100
AcDbSymbolTable
 70
     2
  0
STYLE
  5
12
330
11
100
AcDbSymbolTableRecord
100
AcDbTextStyleTableRecord
  2
Standard
 70
     0
 40
0.0
 41
1.0
 50
0.0
 71
     0
 42
2.5
  3
txt
  4

  0
STYLE
  5
2E
330
11
100
AcDbSymbolTableRecord
100
AcDbTextStyleTableRecord
  2
Roman
 70
     0
 40
0.0
 41
1.0
 50
0.0
 71
     0
 42
5.0
  3
romans
  4
bigfont
  0
ENDTAB
  0
TABLE
  2
VIEW
  5
17
330
0
100
AcDbSymbolTable
 70
     0
  0
ENDTAB
  0
TABLE
  2
UCS
  5
18
330
0
100
AcDbSymbolTable
 70
     0
  0
ENDTAB
  0
TABLE
  2
APPID
  5
1B
330
0
100
AcDbSymbolTable
 70
     1
  0
APPID
  5
1C
330
1B
100
AcDbSymbolTableRecord
100
AcDbRegAppTableRecord
  2
ACAD
 70
     0
  0
ENDTAB
  0
TABLE
  2
DIMSTYLE
  5
1D
330
0
100
AcDbSymbolTable
 70
     1
100
AcDbDimStyleTable
 71
     1
340
1E
  0
DIMSTYLE
105
1E
330
1D
100
AcDbSymbolTableRecord
100
AcDbDimStyleTableRecord
  2
JIS
 70
     0
 41
2.5
 42
1.0
 43
7.0
 44
1.0
 73
     0
 74
     0
 77
     1
 78
     8
140
2.5
141
0.0
143
0.0394
147
0.0
172
     1
174
     1
175
     1
340
12
  0
ENDTAB
  0
TABLE
  2
BLOCK_RECORD
  5
1
330
0
100
AcDbSymbolTable
 70
     1
  0
BLOCK_RECORD
  5
2
330
1
100
AcDbSymbolTableRecord
100
AcDbBlockTableRecord
  2
*Model_Space
340
A
  0
BLOCK_RECORD
  5
C
330
1
100
AcDbSymbolTableRecord
100
AcDbBlockTableRecord
  2
*Paper_Space
340
F
  0
ENDTAB
  0
ENDSEC
  0
SECTION
  2
BLOCKS
  0
BLOCK
  5
3
330
2
100
AcDbEntity
  8
0
100
AcDbBlockBegin
  2
*Model_Space
 70
     2
 10
0.0
 20
0.0
 30
0.0
  3
*Model_Space
  1

  0
ENDBLK
  5
9
330
2
100
AcDbEntity
  8
0
100
AcDbBlockEnd
  0
BLOCK
  5
D
330
C
100
AcDbEntity
 67
     1
  8
0
100
AcDbBlockBegin
  2
*Paper_Space
 70
     0
 10
0.0
 20
0.0
 30
0.0
  3
*Paper_Space
  1

  0
ENDBLK
  5
E
330
C
100
AcDbEntity
 67
     1
  8
0
100
AcDbBlockEnd
  0
ENDSEC
  0
SECTION
  2
ENTITIES
  0
LINE
  5
14F
330
2
100
AcDbEntity
  8
0
100
AcDbLine
 10
0.0
 20
0.0
 30
0.0
 11
1600.0
 21
0.0
 31
0.0
  0
LINE
  5
150
330
2
100
AcDbEntity
  8
0
100
AcDbLine
 10
1600.0
 20
0.0
 30
0.0
 11
1600.0
 21
1200.0
 31
0.0
  0
LINE
  5
151
330
2
100
AcDbEntity
  8
0
100
AcDbLine
 10
1600.0
 20
1200.0
 30
0.0
 11
0.0
 21
1200.0
 31
0.0
  0
LINE
  5
152
330
2
100
AcDbEntity
  8
0
100
AcDbLine
 10
0.0
 20
1200.0
 30
0.0
 11
0.0
 21
0.0
 31
0.0
  0
LINE
  5
24D
330
2
100
AcDbEntity
  8
0
 62
     5
370
    35
100
AcDbLine
 10
146.8773759648378
 20
134.2453454679304
 30
0.0
 11
146.8773759648378
 21
1100.245345467943
 31
0.0
  0
LINE
  5
24E
330
2
100
AcDbEntity
  8
0
 62
     5
370
    35
100
AcDbLine
 10
146.8773759648378
 20
1100.245345467943
 30
0.0
 11
1462.87737596485
 21
1100.245345467943
 31
0.0
  0
LINE
  5
24F
330
2
100
AcDbEntity
  8
0
 62
     5
370
    35
100
AcDbLine
 10
1462.87737596485
 20
134.2453454679304
 30
0.0
 11
1462.87737596485
 21
1100.245345467943
 31
0.0
  0
LINE
  5
250
330
2
100
AcDbEntity
  8
0
 62
     5
370
    35
100
AcDbLine
 10
146.8773759648378
 20
134.2453454679304
 30
0.0
 11
1462.87737596485
 21
134.2453454679304
 31
0.0
  0
ARC
  5
253
330
2
100
AcDbEntity
  8
0
 62
    56
100
AcDbCircle
 10
401.2681708086422
 20
628.4567916576502
 30
0.0
 40
86.57756336906864
100
AcDbArc
 50
93.76815435825868
 51
266.2318456417413
  0
LINE
  5
254
330
2
100
AcDbEntity
  8
0
 62
    56
100
AcDbLine
 10
470.1374477329405
 20
628.3583971343634
 30
0.0
 11
499.3982512737052
 21
628.3583971343634
 31
0.0
  0
LINE
  5
255
330
2
100
AcDbEntity
  8
0
 62
   250
370
   100
100
AcDbLine
 10
527.8635948504152
 20
628.2835470220474
 30
0.0
 11
587.9718373885777
 21
628.2835470220474
 31
0.0
  0
LINE
  5
256
330
2
100
AcDbEntity
  8
TOPOVERLAY
  6
Continuous
 62
   250
370
   100
100
AcDbLine
 10
541.4356581651294
 20
585.0814711308552
 30
0.0
 11
587.6442963840311
 21
614.4695149158027
 31
0.0
  0
LINE
  5
257
330
2
100
AcDbEntity
  8
0
 62
    56
100
AcDbLine
 10
604.2264970840532
 20
628.4012180692907
 30
0.0
 11
658.7775067137572
 21
628.4012180692907
 31
0.0
  0
CIRCLE
  5
25A
330
2
100
AcDbEntity
  8
0
 62
   252
100
AcDbCircle
 10
849.8347280698894
 20
544.8099052881846
 30
0.0
 40
20.66015533163439
  0
CIRCLE
  5
25B
330
2
100
AcDbEntity
  8
0
 62
   252
100
AcDbCircle
 10
896.2810363508351
 20
544.8099052881846
 30
0.0
 40
20.66015533163439
  0
LINE
  5
25C
330
2
100
AcDbEntity
  8
0
 62
   252
100
AcDbLine
 10
846.0386689126329
 20
572.6575850725935
 30
0.0
 11
846.0386689126329
 21
590.4449980898156
 31
0.0
  0
LINE
  5
25D
330
2
100
AcDbEntity
  8
0
 62
   252
100
AcDbLine
 10
851.7095168752783
 20
569.7441298102651
 30
0.0
 11
851.7095168752783
 21
587.5315428273284
 31
0.0
  0
LINE
  5
25E
330
2
100
AcDbEntity
  8
0
 62
   252
100
AcDbLine
 10
840.3678256780167
 20
583.0846877287699
 30
0.0
 11
859.9858798658585
 21
574.651003384211
 31
0.0
  0
LINE
  5
25F
330
2
100
AcDbEntity
  8
0
 62
   252
100
AcDbLine
 10
891.6408484796201
 20
571.4311248843483
 30
0.0
 11
891.6408484796201
 21
589.2185379015702
 31
0.0
  0
LINE
  5
260
330
2
100
AcDbEntity
  8
0
 62
   252
100
AcDbLine
 10
897.3116964422823
 20
568.5176696219882
 30
0.0
 11
897.3116964422823
 21
586.3050826390831
 31
0.0
  0
LINE
  5
261
330
2
100
AcDbEntity
  8
0
 62
   252
100
AcDbLine
 10
885.9700052450161
 20
581.8582275404926
 30
0.0
 11
905.5880594328653
 21
573.4245431959656
 31
0.0
  0
LINE
  5
262
330
2
100
AcDbEntity
  8
0
 62
   252
100
AcDbLine
 10
811.4020209092316
 20
547.0627865766075
 30
0.0
 11
938.3176685414612
 21
547.0627865766075
 31
0.0
  0
CIRCLE
  5
263
330
2
100
AcDbEntity
  8
0
 62
   252
100
AcDbCircle
 10
846.4638490603672
 20
689.8273729904121
 30
0.0
 40
20.66015533163439
  0
CIRCLE
  5
264
330
2
100
AcDbEntity
  8
0
 62
   252
100
AcDbCircle
 10
892.9101573412921
 20
689.8273729904121
 30
0.0
 40
20.66015533163439
  0
LINE
  5
265
330
2
100
AcDbEntity
  8
0
 62
   252
100
AcDbLine
 10
842.6677899030917
 20
717.6750527748207
 30
0.0
 11
842.6677899030917
 21
735.4624657919162
 31
0.0
  0
LINE
  5
266
330
2
100
AcDbEntity
  8
0
 62
   252
100
AcDbLine
 10
848.3386378657456
 20
714.761597512334
 30
0.0
 11
848.3386378657456
 21
732.549010529556
 31
0.0
  0
LINE
  5
267
330
2
100
AcDbEntity
  8
0
 62
   252
100
AcDbLine
 10
836.9969466684873
 20
728.1021554308705
 30
0.0
 11
856.6150008563175
 21
719.6684710864705
 31
0.0
  0
LINE
  5
268
330
2
100
AcDbEntity
  8
0
 62
   252
100
AcDbLine
 10
888.2699694700912
 20
716.448592586576
 30
0.0
 11
888.2699694700912
 21
734.2360056036708
 31
0.0
  0
LINE
  5
269
330
2
100
AcDbEntity
  8
0
 62
   252
100
AcDbLine
 10
893.9408174327452
 20
713.5351373240884
 30
0.0
 11
893.9408174327452
 21
731.3225503413426
 31
0.0
  0
LINE
  5
26A
330
2
100
AcDbEntity
  8
0
 62
   252
100
AcDbLine
 10
882.5991262354792
 20
726.8756952426248
 30
0.0
 11
902.2171804233362
 21
718.442010898098
 31
0.0
  0
LINE
  5
26B
330
2
100
AcDbEntity
  8
0
 62
   252
100
AcDbLine
 10
808.0311418997078
 20
692.0802542788354
 30
0.0
 11
934.9467895319213
 21
692.0802542788354
 31
0.0
  0
LINE
  5
26C
330
2
100
AcDbEntity
  8
0
 62
    56
100
AcDbLine
 10
294.9873178741801
 20
240.3176229270147
 30
0.0
 11
294.9595074320472
 21
1017.926882565553
 31
0.0
  0
ARC
  5
26E
330
2
100
AcDbEntity
  8
0
 62
    56
100
AcDbCircle
 10
714.0263533355915
 20
629.3287134877487
 30
0.0
 40
86.57756336906864
100
AcDbArc
 50
273.7681543582587
 51
86.23184564174131
  0
LINE
  5
26F
330
2
100
AcDbEntity
  8
0
 62
    56
100
AcDbLine
 10
973.9539700263961
 20
625.1124834942498
 30
0.0
 11
973.9539700263961
 21
501.1746429232616
 31
0.0
  0
LINE
  5
270
330
2
100
AcDbEntity
  8
0
 62
    56
100
AcDbLine
 10
973.9539700263961
 20
501.1746429232616
 30
0.0
 11
906.4579844358259
 21
501.1746429232616
 31
0.0
  0
LINE
  5
271
330
2
100
AcDbEntity
  8
0
 62
    56
100
AcDbLine
 10
906.4579844358259
 20
501.1746429232616
 30
0.0
 11
906.4579844358259
 21
394.2070817623431
 31
0.0
  0
LINE
  5
272
330
2
100
AcDbEntity
  8
0
 62
    56
100
AcDbLine
 10
906.4579844358259
 20
394.2070817623431
 30
0.0
 11
934.4953215517596
 21
394.2070817623431
 31
0.0
  0
LINE
  5
273
330
2
100
AcDbEntity
  8
0
 62
    56
100
AcDbLine
 10
934.4953215517596
 20
380.8960846563837
 30
0.0
 11
934.4953215517596
 21
407.460580247544
 31
0.0
  0
LINE
  5
274
330
2
100
AcDbEntity
  8
0
 62
    56
100
AcDbLine
 10
940.8403907057147
 20
380.8960846563837
 30
0.0
 11
940.8403907057147
 21
407.460580247544
 31
0.0
  0
CIRCLE
  5
275
330
2
100
AcDbEntity
  8
0
 62
   250
370
    30
100
AcDbCircle
 10
1003.517714356422
 20
334.9398966850963
 30
0.0
 40
21.00918010397843
  0
CIRCLE
  5
279
330
2
100
AcDbEntity
  8
0
 62
   250
370
    30
100
AcDbCircle
 10
1003.455272873811
 20
394.3476714354988
 30
0.0
 40
21.00918010397843
  0
CIRCLE
  5
27D
330
2
100
AcDbEntity
  8
0
 62
     1
370
    30
100
AcDbCircle
 10
1003.455272873811
 20
451.0131016931476
 30
0.0
 40
21.00918010397843
  0
LINE
  5
281
330
2
100
AcDbEntity
  8
0
 62
    56
100
AcDbLine
 10
982.4460927698423
 20
394.3476714354988
 30
0.0
 11
940.8403907057147
 21
394.3476714354988
 31
0.0
  0
LINE
  5
282
330
2
100
AcDbEntity
  8
0
 62
    56
100
AcDbLine
 10
1024.464452977806
 20
394.3476714354988
 30
0.0
 11
1039.314395454069
 21
394.3476714354988
 31
0.0
  0
LINE
  5
283
330
2
100
AcDbEntity
  8
0
 62
    56
100
AcDbLine
 10
1039.388990038443
 20
379.3676202292459
 30
0.0
 11
1039.388990038443
 21
409.00459600814
 31
0.0
  0
LINE
  5
284
330
2
100
AcDbEntity
  8
0
 62
    56
100
AcDbLine
 10
1042.74302770237
 20
383.8706902995915
 30
0.0
 11
1042.74302770237
 21
403.1583864851246
 31
0.0
  0
LINE
  5
285
330
2
100
AcDbEntity
  8
0
 62
    56
100
AcDbLine
 10
1046.461012423949
 20
389.243690747517
 30
0.0
 11
1046.461012423949
 21
397.7853860371993
 31
0.0
  0
LINE
  5
286
330
2
100
AcDbEntity
  8
0
 62
    56
100
AcDbLine
 10
973.9539700263961
 20
625.1124834942498
 30
0.0
 11
973.9539700263961
 21
752.756677270245
 31
0.0
  0
LINE
  5
287
330
2
100
AcDbEntity
  8
0
 62
    56
100
AcDbLine
 10
973.9539700263961
 20
752.756677270245
 30
0.0
 11
905.6413493840961
 21
752.756677270245
 31
0.0
  0
LINE
  5
288
330
2
100
AcDbEntity
  8
0
 62
    56
100
AcDbLine
 10
905.6413493840961
 20
752.756677270245
 30
0.0
 11
905.6413493840961
 21
920.9552148575816
 31
0.0
  0
LINE
  5
289
330
2
100
AcDbEntity
  8
0
 62
    56
100
AcDbLine
 10
905.6413493840961
 20
920.9552148575816
 30
0.0
 11
942.2925948928883
 21
920.9552148575816
 31
0.0
  0
LINE
  5
28A
330
2
100
AcDbEntity
  8
0
 62
   250
370
    30
100
AcDbLine
 10
950.2989489221251
 20
845.5916548606225
 30
0.0
 11
1012.039857522575
 21
845.5916548606225
 31
0.0
  0
LINE
  5
28B
330
2
100
AcDbEntity
  8
0
 62
     3
370
    30
100
AcDbLine
 10
969.3382320053286
 20
803.5084767944718
 30
0.0
 11
1011.712316518024
 21
830.4615642773709
 31
0.0
  0
LINE
  5
28C
330
2
100
AcDbEntity
  8
0
 62
    56
100
AcDbLine
 10
934.9535364719052
 20
827.3457265659777
 30
0.0
 11
934.9535364719052
 21
858.7929572286345
 31
0.0
  0
LINE
  5
28D
330
2
100
AcDbEntity
  8
0
 62
    56
100
AcDbLine
 10
934.9535364719052
 20
842.1221343767278
 30
0.0
 11
905.6413493840961
 21
842.1221343767278
 31
0.0
  0
LINE
  5
28E
330
2
100
AcDbEntity
  8
0
 62
    56
100
AcDbLine
 10
1024.464452977806
 20
841.4595212865702
 30
0.0
 11
1039.314395454069
 21
841.4595212865702
 31
0.0
  0
LINE
  5
28F
330
2
100
AcDbEntity
  8
0
 62
    56
100
AcDbLine
 10
1039.388990038443
 20
826.4794700803172
 30
0.0
 11
1039.388990038443
 21
856.1164458592115
 31
0.0
  0
LINE
  5
290
330
2
100
AcDbEntity
  8
0
 62
    56
100
AcDbLine
 10
1042.74302770237
 20
830.9825401507263
 30
0.0
 11
1042.74302770237
 21
850.2702363362281
 31
0.0
  0
LINE
  5
291
330
2
100
AcDbEntity
  8
0
 62
    56
100
AcDbLine
 10
1046.461012423949
 20
836.3555405986202
 30
0.0
 11
1046.461012423949
 21
844.8972358883024
 31
0.0
  0
LINE
  5
292
330
2
100
AcDbEntity
  8
0
 62
    56
370
    20
100
AcDbLine
 10
947.6868372289683
 20
911.4332543979623
 30
0.0
 11
1010.827803089492
 21
911.4332543979623
 31
0.0
  0
LINE
  5
293
330
2
100
AcDbEntity
  8
0
 62
    56
370
    20
100
AcDbLine
 10
1010.827803089492
 20
911.4332543979623
 30
0.0
 11
1010.827803089492
 21
930.5621469768404
 31
0.0
  0
LINE
  5
294
330
2
100
AcDbEntity
  8
0
 62
    56
370
    20
100
AcDbLine
 10
1010.827803089492
 20
930.5621469768404
 30
0.0
 11
947.6868372289683
 21
930.5621469768404
 31
0.0
  0
LINE
  5
295
330
2
100
AcDbEntity
  8
0
 62
    56
370
    20
100
AcDbLine
 10
947.6868372289683
 20
930.5621469768404
 30
0.0
 11
947.6868372289683
 21
911.4332543979623
 31
0.0
  0
LINE
  5
296
330
2
100
AcDbEntity
  8
0
 62
    56
370
    20
100
AcDbLine
 10
942.2925948928883
 20
920.9552148575816
 30
0.0
 11
957.1310260261633
 21
920.9552148575816
 31
0.0
  0
LINE
  5
297
330
2
100
AcDbEntity
  8
0
 62
    56
370
    20
100
AcDbLine
 10
957.1310260261633
 20
914.6058149412926
 30
0.0
 11
957.1310260261633
 21
927.30461477403
 31
0.0
  0
LINE
  5
298
330
2
100
AcDbEntity
  8
0
 62
    56
370
    20
100
AcDbLine
 10
957.1310260261633
 20
927.30461477403
 30
0.0
 11
992.8444137824833
 21
920.9552148575816
 31
0.0
  0
LINE
  5
299
330
2
100
AcDbEntity
  8
0
 62
    56
370
    20
100
AcDbLine
 10
957.1310260261633
 20
914.6058149412926
 30
0.0
 11
992.8444137824833
 21
920.9552148575816
 31
0.0
  0
LINE
  5
29A
330
2
100
AcDbEntity
  8
0
 62
    56
100
AcDbLine
 10
1024.575723114653
 20
921.1158627875423
 30
0.0
 11
1039.425665590903
 21
921.1158627875423
 31
0.0
  0
LINE
  5
29B
330
2
100
AcDbEntity
  8
0
 62
    56
100
AcDbLine
 10
1039.500260175289
 20
906.1358115812897
 30
0.0
 11
1039.500260175289
 21
935.7727873603113
 31
0.0
  0
LINE
  5
29C
330
2
100
AcDbEntity
  8
0
 62
    56
100
AcDbLine
 10
1042.854297839231
 20
910.6388816516666
 30
0.0
 11
1042.854297839231
 21
929.926577837328
 31
0.0
  0
LINE
  5
29D
330
2
100
AcDbEntity
  8
0
 62
    56
100
AcDbLine
 10
1046.572282560815
 20
916.0118820995927
 30
0.0
 11
1046.572282560815
 21
924.5535773894019
 31
0.0
  0
LINE
  5
29E
330
2
100
AcDbEntity
  8
0
 62
    56
100
AcDbLine
 10
800.5989484865619
 20
628.4012180692907
 30
0.0
 11
1085.671855937085
 21
628.4012180692907
 31
0.0
  0
CIRCLE
  5
29F
330
2
100
AcDbEntity
  8
0
 62
   250
370
    30
100
AcDbCircle
 10
1234.582622490346
 20
335.6770914340137
 30
0.0
 40
21.00918010397843
  0
CIRCLE
  5
2A3
330
2
100
AcDbEntity
  8
0
 62
   250
370
    30
100
AcDbCircle
 10
1234.520181007761
 20
395.0848661843843
 30
0.0
 40
21.00918010397843
  0
CIRCLE
  5
2A7
330
2
100
AcDbEntity
  8
0
 62
   250
370
    30
100
AcDbCircle
 10
1234.520181007761
 20
451.7502964421924
 30
0.0
 40
21.00918010397843
  0
CIRCLE
  5
2AB
330
2
100
AcDbEntity
  8
0
 62
   250
370
    30
100
AcDbCircle
 10
1137.685615453919
 20
578.5931509954439
 30
0.0
 40
21.00918010397843
  0
LINE
  5
2AE
330
2
100
AcDbEntity
  8
0
 62
   252
100
AcDbLine
 10
1094.57518754467
 20
261.2888166757517
 30
0.0
 11
1094.57518754467
 21
619.2495115365913
 31
0.0
  0
LINE
  5
2AF
330
2
100
AcDbEntity
  8
0
 62
   252
100
AcDbLine
 10
1094.57518754467
 20
619.2495115365913
 30
0.0
 11
1339.165136360506
 21
619.2495115365913
 31
0.0
  0
LINE
  5
2B0
330
2
100
AcDbEntity
  8
0
 62
   252
100
AcDbLine
 10
1339.165136360506
 20
619.2495115365913
 30
0.0
 11
1339.165136360506
 21
261.2888166757517
 31
0.0
  0
LINE
  5
2B1
330
2
100
AcDbEntity
  8
0
 62
   252
100
AcDbLine
 10
1339.165136360506
 20
261.2888166757517
 30
0.0
 11
1094.57518754467
 21
261.2888166757517
 31
0.0
  0
CIRCLE
  5
2B3
330
2
100
AcDbEntity
  8
0
 62
     1
370
    30
100
AcDbCircle
 10
1234.582622490346
 20
768.358341278077
 30
0.0
 40
21.00918010397843
  0
CIRCLE
  5
2B7
330
2
100
AcDbEntity
  8
0
 62
   250
370
    30
100
AcDbCircle
 10
1234.520181007761
 20
886.8995479778192
 30
0.0
 40
21.00918010397843
  0
LINE
  5
2B8
330
2
100
AcDbEntity
  8
0
 62
   250
370
    30
100
AcDbLine
 10
1221.017559352162
 20
871.3262743741145
 30
0.0
 11
1248.022798577847
 21
902.4728251238176
 31
0.0
  0
LINE
  5
2B9
330
2
100
AcDbEntity
  8
0
 62
   250
370
    30
100
AcDbLine
 10
1234.520181007761
 20
886.8995479778192
 30
0.0
 11
1221.954892414037
 21
903.2384942371871
 31
0.0
  0
LINE
  5
2BA
330
2
100
AcDbEntity
  8
0
 62
   250
370
    30
100
AcDbLine
 10
1234.520181007761
 20
886.8995479778192
 30
0.0
 11
1246.712678770662
 21
870.2805636342517
 31
0.0
  0
LINE
  5
2BB
330
2
100
AcDbEntity
  8
0
 62
   252
100
AcDbLine
 10
1094.57518754467
 20
653.1478911412072
 30
0.0
 11
1094.57518754467
 21
1011.108586001919
 31
0.0
  0
LINE
  5
2BC
330
2
100
AcDbEntity
  8
0
 62
   252
100
AcDbLine
 10
1094.57518754467
 20
1011.108586001919
 30
0.0
 11
1339.165136360506
 21
1011.108586001919
 31
0.0
  0
LINE
  5
2BD
330
2
100
AcDbEntity
  8
0
 62
   252
100
AcDbLine
 10
1339.165136360506
 20
1011.108586001919
 30
0.0
 11
1339.165136360506
 21
653.1478911412075
 31
0.0
  0
LINE
  5
2BE
330
2
100
AcDbEntity
  8
0
 62
   252
100
AcDbLine
 10
1339.165136360506
 20
653.1478911412075
 30
0.0
 11
1094.57518754467
 21
653.1478911412075
 31
0.0
  0
LINE
  5
2C1
330
2
100
AcDbEntity
  8
0
 62
   252
100
AcDbLine
 10
599.7926463441414
 20
796.0172651447789
 30
0.0
 11
636.104935636844
 21
821.9138351143877
 31
0.0
  0
LINE
  5
2C2
330
2
100
AcDbEntity
  8
0
 62
   252
100
AcDbLine
 10
601.6548179111188
 20
811.6557315550569
 30
0.0
 11
633.4979104466635
 21
833.6398903008328
 31
0.0
  0
LINE
  5
2C4
330
2
100
AcDbEntity
  8
0
 62
   252
100
AcDbLine
 10
636.2000600586878
 20
849.2813438231047
 30
0.0
 11
599.4059293878438
 21
824.0740703083114
 31
0.0
  0
LINE
  5
2C6
330
2
100
AcDbEntity
  8
0
 62
   252
100
AcDbLine
 10
659.3275608998866
 20
796.0172651447784
 30
0.0
 11
695.6398501925906
 21
821.9138351143874
 31
0.0
  0
LINE
  5
2C7
330
2
100
AcDbEntity
  8
0
 62
   252
100
AcDbLine
 10
661.1897324668648
 20
811.6557315550567
 30
0.0
 11
693.0328250024127
 21
833.6398903008332
 31
0.0
  0
LINE
  5
2C9
330
2
100
AcDbEntity
  8
0
 62
   252
100
AcDbLine
 10
695.734974614433
 20
849.2813438230722
 30
0.0
 11
658.9408439435697
 21
824.0740703082797
 31
0.0
  0
ARC
  5
2CA
330
2
100
AcDbEntity
  8
0
 62
    18
370
     0
100
AcDbCircle
 10
1139.286453494253
 20
767.3453875379626
 30
0.0
 40
14.46431580258922
100
AcDbArc
 50
96.35583041835197
 51
263.644169581648
  0
LINE
  5
2CB
330
2
100
AcDbEntity
  8
0
 62
    18
370
     0
100
AcDbLine
 10
1137.685213251165
 20
752.9699758457857
 30
0.0
 11
1151.510053583306
 21
752.9699758457857
 31
0.0
  0
LINE
  5
2CC
330
2
100
AcDbEntity
  8
0
 62
    18
370
     0
100
AcDbLine
 10
1137.685213251165
 20
781.7207992301703
 30
0.0
 11
1151.510053583306
 21
781.7207992301703
 31
0.0
  0
LINE
  5
2CD
330
2
100
AcDbEntity
  8
0
 62
    18
370
     0
100
AcDbLine
 10
1151.510053583306
 20
747.2938776490585
 30
0.0
 11
1151.510053583306
 21
787.4255459526518
 31
0.0
  0
LINE
  5
2CE
330
2
100
AcDbEntity
  8
0
 62
    18
370
     0
100
AcDbLine
 10
1151.510053583306
 20
747.2938776490585
 30
0.0
 11
1178.172928851987
 21
747.2938776490585
 31
0.0
  0
LINE
  5
2CF
330
2
100
AcDbEntity
  8
0
 62
    18
370
     0
100
AcDbLine
 10
1178.172928851987
 20
747.2938776490585
 30
0.0
 11
1178.172928851987
 21
787.4255459526518
 31
0.0
  0
LINE
  5
2D0
330
2
100
AcDbEntity
  8
0
 62
    18
370
     0
100
AcDbLine
 10
1178.172928851987
 20
787.4255459526518
 30
0.0
 11
1151.510053583306
 21
787.4255459526518
 31
0.0
  0
ARC
  5
2D1
330
2
100
AcDbEntity
  8
0
 62
    88
100
AcDbCircle
 10
1139.003241827325
 20
858.899169573338
 30
0.0
 40
14.46431580258922
100
AcDbArc
 50
96.35583041835197
 51
263.644169581648
  0
LINE
  5
2D2
330
2
100
AcDbEntity
  8
0
 62
    88
100
AcDbLine
 10
1137.402001584215
 20
873.421985177711
 30
0.0
 11
1151.226841916377
 21
873.421985177711
 31
0.0
  0
LINE
  5
2D3
330
2
100
AcDbEntity
  8
0
 62
    88
100
AcDbLine
 10
1151.226841916377
 20
867.7458869808249
 30
0.0
 11
1151.226841916377
 21
907.8775552845764
 31
0.0
  0
LINE
  5
2D4
330
2
100
AcDbEntity
  8
0
 62
    88
100
AcDbLine
 10
1151.226841916377
 20
867.7458869808249
 30
0.0
 11
1177.88971718507
 21
867.7458869808249
 31
0.0
  0
LINE
  5
2D5
330
2
100
AcDbEntity
  8
0
 62
    88
100
AcDbLine
 10
1177.88971718507
 20
867.7458869808249
 30
0.0
 11
1177.889717185057
 21
907.8775552845764
 31
0.0
  0
LINE
  5
2D6
330
2
100
AcDbEntity
  8
0
 62
    88
100
AcDbLine
 10
1177.88971718507
 20
907.8775552845764
 30
0.0
 11
1151.226841916377
 21
907.8775552845764
 31
0.0
  0
LINE
  5
2D7
330
2
100
AcDbEntity
  8
0
 62
   250
370
    30
100
AcDbLine
 10
665.8807654987732
 20
907.4940630177801
 30
0.0
 11
665.8807654987732
 21
945.7800229854225
 31
0.0
  0
LINE
  5
2D8
330
2
100
AcDbEntity
  8
0
 62
   250
370
    30
100
AcDbLine
 10
665.8807654987732
 20
945.7800229854225
 30
0.0
 11
689.6916630852606
 21
945.7800229854225
 31
0.0
  0
LINE
  5
2D9
330
2
100
AcDbEntity
  8
0
 62
   250
370
    30
100
AcDbLine
 10
689.6916630852606
 20
945.7800229854225
 30
0.0
 11
689.6916630852606
 21
907.4940630177801
 31
0.0
  0
LINE
  5
2DA
330
2
100
AcDbEntity
  8
0
 62
   250
370
    30
100
AcDbLine
 10
689.6916630852606
 20
907.4940630177801
 30
0.0
 11
665.8807654987732
 21
907.4940630177801
 31
0.0
  0
LINE
  5
2DB
330
2
100
AcDbEntity
  8
TOPOVERLAY
  6
Continuous
 62
     3
370
    30
100
AcDbLine
 10
606.3458509430277
 20
907.4940630177803
 30
0.0
 11
606.3458509430277
 21
945.7800229852642
 31
0.0
  0
LINE
  5
2DC
330
2
100
AcDbEntity
  8
TOPOVERLAY
  6
Continuous
 62
     3
370
    30
100
AcDbLine
 10
606.3458509430277
 20
945.7800229852642
 30
0.0
 11
630.1567485295541
 21
945.7800229852642
 31
0.0
  0
LINE
  5
2DD
330
2
100
AcDbEntity
  8
TOPOVERLAY
  6
Continuous
 62
     3
370
    30
100
AcDbLine
 10
630.1567485295541
 20
945.7800229852642
 30
0.0
 11
630.1567485295541
 21
907.4940630177803
 31
0.0
  0
LINE
  5
2DE
330
2
100
AcDbEntity
  8
TOPOVERLAY
  6
Continuous
 62
     3
370
    30
100
AcDbLine
 10
630.1567485295541
 20
907.4940630177803
 30
0.0
 11
606.3458509430277
 21
907.4940630177803
 31
0.0
  0
LINE
  5
2E0
330
2
100
AcDbEntity
  8
0
 62
   252
100
AcDbLine
 10
1176.401910468062
 20
557.2303403402433
 30
0.0
 11
1176.401910468062
 21
601.3235525283021
 31
0.0
  0
LINE
  5
2E1
330
2
100
AcDbEntity
  8
0
 62
   252
100
AcDbLine
 10
1176.401910468062
 20
601.3235525283021
 30
0.0
 11
1211.659521838679
 21
601.3235525283021
 31
0.0
  0
LINE
  5
2E2
330
2
100
AcDbEntity
  8
0
 62
   252
100
AcDbLine
 10
1211.659521838679
 20
601.3235525283021
 30
0.0
 11
1211.659521838679
 21
557.2303403402433
 31
0.0
  0
LINE
  5
2E3
330
2
100
AcDbEntity
  8
0
 62
   252
100
AcDbLine
 10
1211.659521838679
 20
557.2303403402433
 30
0.0
 11
1176.401910468062
 21
557.2303403402433
 31
0.0
  0
LINE
  5
2E6
330
2
100
AcDbEntity
  8
0
 62
   250
370
   100
100
AcDbLine
 10
527.8635948504152
 20
628.2835470220474
 30
0.0
 11
587.9718373885777
 21
628.2835470220474
 31
0.0
  0
LINE
  5
2E7
330
2
100
AcDbEntity
  8
TOPOVERLAY
  6
Continuous
 62
   250
370
   100
100
AcDbLine
 10
541.4356581651294
 20
585.0814711308552
 30
0.0
 11
587.6442963840311
 21
614.4695149158027
 31
0.0
  0
LINE
  5
2EA
330
2
100
AcDbEntity
  8
0
 62
   250
370
   100
100
AcDbLine
 10
950.2989489221251
 20
845.5916548606225
 30
0.0
 11
1012.039857522575
 21
845.5916548606225
 31
0.0
  0
LINE
  5
2EB
330
2
100
AcDbEntity
  8
TOPOVERLAY
  6
Continuous
 62
     3
370
   100
100
AcDbLine
 10
969.3382320053286
 20
803.5084767944718
 30
0.0
 11
1011.712316518024
 21
830.4615642773709
 31
0.0
  0
LINE
  5
2ED
330
2
100
AcDbEntity
  8
0
 62
    56
100
AcDbLine
 10
487.2596160318638
 20
616.2796927904357
 30
0.0
 11
511.5368865155466
 21
640.4371014782914
 31
0.0
  0
LINE
  5
2EE
330
2
100
AcDbEntity
  8
0
 62
    56
100
AcDbLine
 10
487.2596160318638
 20
640.4371014782914
 30
0.0
 11
511.5368865155466
 21
616.2796927904357
 31
0.0
  0
LINE
  5
2EF
330
2
100
AcDbEntity
  8
0
 62
    56
100
AcDbLine
 10
646.6388714719157
 20
640.4799224132188
 30
0.0
 11
670.9161419555982
 21
616.3225137253627
 31
0.0
  0
LINE
  5
2F0
330
2
100
AcDbEntity
  8
0
 62
    56
100
AcDbLine
 10
646.6388714719157
 20
616.3225137253627
 30
0.0
 11
670.9161419555982
 21
640.4799224132188
 31
0.0
  0
LINE
  5
34E
330
2
100
AcDbEntity
  8
TOPOVERLAY
  6
Continuous
 62
   250
370
   100
100
AcDbLine
 10
402.8918988683551
 20
615.0891707921307
 30
0.0
 11
402.8918988683551
 21
581.2038389636446
 31
0.0
  0
LINE
  5
34F
330
2
100
AcDbEntity
  8
0
 62
   250
370
   100
100
AcDbLine
 10
369.3976333107765
 20
628.4012180692907
 30
0.0
 11
389.5796502072763
 21
628.4012180692907
 31
0.0
  0
LINE
  5
350
330
2
100
AcDbEntity
  8
0
 62
   250
370
   100
100
AcDbLine
 10
355.6943183798837
 20
628.4012180692907
 30
0.0
 11
389.5796502072763
 21
628.4012180692907
 31
0.0
  0
LINE
  5
351
330
2
100
AcDbEntity
  8
0
 62
   250
370
   100
100
AcDbLine
 10
416.2037447646424
 20
628.4012180692907
 30
0.0
 11
439.2980590427089
 21
628.4012180692907
 31
0.0
  0
LINE
  5
352
330
2
100
AcDbEntity
  8
0
 62
   250
370
   100
100
AcDbLine
 10
416.2037447646424
 20
628.4012180692907
 30
0.0
 11
450.0890765920352
 21
628.4012180692907
 31
0.0
  0
LINE
  5
353
330
2
100
AcDbEntity
  8
TOPOVERLAY
  6
Continuous
 62
   250
370
   100
100
AcDbLine
 10
402.8918988683551
 20
641.7132653464506
 30
0.0
 11
402.8918988683551
 21
675.5985971749367
 31
0.0
  0
LINE
  5
3A7
330
2
100
AcDbEntity
  8
0
 62
    56
100
AcDbLine
 10
314.6906252757422
 20
628.4012180692907
 30
0.0
 11
294.9734384654401
 21
628.4005129031984
 31
0.0
  0
MTEXT
  5
41F
330
2
100
AcDbEntity
  8
0
100
AcDbMText
 10
178.1088203111944
 20
165.4714462935649
 30
0.0
 40
30.0
 41
3011.936264869754
 71
     1
 72
     5
  1
ORT400
 11
0.0000000000000001
 21
1.0
 31
0.0
 73
     1
 44
1.0
1001
ACAD
1000
MTEXTBEGIN
1070
    73
1070
     1
1070
    44
1040
1.0
1070
    74
1070
     0
1000
MTEXTEND
  0
LINE
  5
4D4
330
2
100
AcDbEntity
  8
0
 62
     1
370
    30
100
AcDbLine
 10
1234.582624533102
 20
768.3583395069299
 30
0.0
 11
1246.775122296003
 21
751.7393551633626
 31
0.0
  0
LINE
  5
4D5
330
2
100
AcDbEntity
  8
0
 62
     1
370
    30
100
AcDbLine
 10
1234.582624533102
 20
768.3583395069299
 30
0.0
 11
1222.017335939378
 21
784.697285766298
 31
0.0
  0
LINE
  5
4D6
330
2
100
AcDbEntity
  8
0
 62
     1
370
    30
100
AcDbLine
 10
1221.080002877503
 20
752.7850659032252
 30
0.0
 11
1248.085242103188
 21
783.9316166529283
 31
0.0
  0
LINE
  5
4D7
330
2
100
AcDbEntity
  8
0
 62
   250
370
    30
100
AcDbLine
 10
1124.182995841076
 20
563.0198756205922
 30
0.0
 11
1151.188235066761
 21
594.1664263702953
 31
0.0
  0
LINE
  5
4D8
330
2
100
AcDbEntity
  8
0
 62
   250
370
    30
100
AcDbLine
 10
1137.685617496675
 20
578.593149224297
 30
0.0
 11
1125.12032890295
 21
594.9320954836649
 31
0.0
  0
LINE
  5
4D9
330
2
100
AcDbEntity
  8
0
 62
   250
370
    30
100
AcDbLine
 10
1137.685617496675
 20
578.593149224297
 30
0.0
 11
1149.878115259576
 21
561.9741648807295
 31
0.0
  0
LINE
  5
4DA
330
2
100
AcDbEntity
  8
0
 62
   250
370
    30
100
AcDbLine
 10
1221.017561394918
 20
436.1770210673407
 30
0.0
 11
1248.022800620603
 21
467.3235718170438
 31
0.0
  0
LINE
  5
4DB
330
2
100
AcDbEntity
  8
0
 62
   250
370
    30
100
AcDbLine
 10
1234.520183050517
 20
451.7502946710455
 30
0.0
 11
1221.954894456793
 21
468.0892409304131
 31
0.0
  0
LINE
  5
4DC
330
2
100
AcDbEntity
  8
0
 62
   250
370
    30
100
AcDbLine
 10
1234.520183050517
 20
451.7502946710455
 30
0.0
 11
1246.712680813418
 21
435.131310327478
 31
0.0
  0
LINE
  5
4DD
330
2
100
AcDbEntity
  8
0
 62
   250
370
    30
100
AcDbLine
 10
1221.017561394918
 20
379.5115908095326
 30
0.0
 11
1248.022800620603
 21
410.6581415592358
 31
0.0
  0
LINE
  5
4DE
330
2
100
AcDbEntity
  8
0
 62
   250
370
    30
100
AcDbLine
 10
1234.520183050517
 20
395.0848644132374
 30
0.0
 11
1221.954894456793
 21
411.4238106726054
 31
0.0
  0
LINE
  5
4DF
330
2
100
AcDbEntity
  8
0
 62
   250
370
    30
100
AcDbLine
 10
1234.520183050517
 20
395.0848644132374
 30
0.0
 11
1246.712680813418
 21
378.4658800696699
 31
0.0
  0
LINE
  5
4E0
330
2
100
AcDbEntity
  8
0
 62
   250
370
    30
100
AcDbLine
 10
1221.080002877503
 20
320.103816059162
 30
0.0
 11
1248.085242103188
 21
351.2503668088652
 31
0.0
  0
LINE
  5
4E1
330
2
100
AcDbEntity
  8
0
 62
   250
370
    30
100
AcDbLine
 10
1234.582624533102
 20
335.6770896628668
 30
0.0
 11
1222.017335939378
 21
352.0160359222348
 31
0.0
  0
LINE
  5
4E2
330
2
100
AcDbEntity
  8
0
 62
   250
370
    30
100
AcDbLine
 10
1234.582624533102
 20
335.6770896628668
 30
0.0
 11
1246.775122296003
 21
319.0581053192993
 31
0.0
  0
LINE
  5
4E3
330
2
100
AcDbEntity
  8
0
 62
     1
370
    30
100
AcDbLine
 10
989.9526532609682
 20
435.4398263182958
 30
0.0
 11
1016.957892486653
 21
466.5863770679991
 31
0.0
  0
LINE
  5
4E4
330
2
100
AcDbEntity
  8
0
 62
     1
370
    30
100
AcDbLine
 10
1003.455274916567
 20
451.0130999220006
 30
0.0
 11
990.8899863228434
 21
467.3520461813687
 31
0.0
  0
LINE
  5
4E5
330
2
100
AcDbEntity
  8
0
 62
     1
370
    30
100
AcDbLine
 10
1003.455274916567
 20
451.0130999220006
 30
0.0
 11
1015.647772679468
 21
434.3941155784332
 31
0.0
  0
LINE
  5
4E6
330
2
100
AcDbEntity
  8
0
 62
   250
370
    30
100
AcDbLine
 10
989.9526532609682
 20
378.7743960606472
 30
0.0
 11
1016.957892486653
 21
409.92094681035
 31
0.0
  0
LINE
  5
4E7
330
2
100
AcDbEntity
  8
0
 62
   250
370
    30
100
AcDbLine
 10
1003.455274916567
 20
394.3476696643519
 30
0.0
 11
990.8899863228434
 21
410.6866159237197
 31
0.0
  0
LINE
  5
4E8
330
2
100
AcDbEntity
  8
0
 62
   250
370
    30
100
AcDbLine
 10
1003.455274916567
 20
394.3476696643519
 30
0.0
 11
1015.647772679468
 21
377.7286853207844
 31
0.0
  0
LINE
  5
4E9
330
2
100
AcDbEntity
  8
0
 62
   250
370
    30
100
AcDbLine
 10
990.0150947435792
 20
319.3666213102447
 30
0.0
 11
1017.020333969264
 21
350.5131720599478
 31
0.0
  0
LINE
  5
4EA
330
2
100
AcDbEntity
  8
0
 62
   250
370
    30
100
AcDbLine
 10
1003.517716399178
 20
334.9398949139493
 30
0.0
 11
990.9524278054542
 21
351.2788411733175
 31
0.0
  0
LINE
  5
4EB
330
2
100
AcDbEntity
  8
0
 62
   250
370
    30
100
AcDbLine
 10
1003.517716399178
 20
334.9398949139493
 30
0.0
 11
1015.710214162079
 21
318.3209105703819
 31
0.0
  0
LINE
  5
5FE
330
2
100
AcDbEntity
  8
TOPOVERLAY
  6
Continuous
 62
   250
370
   100
100
AcDbLine
 10
732.0778698662016
 20
615.0891707921307
 30
0.0
 11
732.0778698662013
 21
581.2038389636446
 31
0.0
  0
LINE
  5
5FF
330
2
100
AcDbEntity
  8
0
 62
   250
370
   100
100
AcDbLine
 10
684.8802893777299
 20
628.4012180692907
 30
0.0
 11
718.7656212051225
 21
628.4012180692907
 31
0.0
  0
LINE
  5
600
330
2
100
AcDbEntity
  8
0
 62
   250
370
   100
100
AcDbLine
 10
698.5836043086227
 20
628.4012180692907
 30
0.0
 11
718.7656212051225
 21
628.4012180692907
 31
0.0
  0
LINE
  5
601
330
2
100
AcDbEntity
  8
TOPOVERLAY
  6
Continuous
 62
   250
370
   100
100
AcDbLine
 10
732.0778698662016
 20
641.7132653464506
 30
0.0
 11
732.0778698662013
 21
675.5985971749367
 31
0.0
  0
LINE
  5
602
330
2
100
AcDbEntity
  8
0
 62
   250
370
   100
100
AcDbLine
 10
745.3897157624886
 20
628.4012180692907
 30
0.0
 11
779.2750475898814
 21
628.4012180692907
 31
0.0
  0
LINE
  5
603
330
2
100
AcDbEntity
  8
0
 62
   250
370
   100
100
AcDbLine
 10
745.3897157624886
 20
628.4012180692907
 30
0.0
 11
768.4840300405551
 21
628.4012180692907
 31
0.0
  0
ARC
  5
690
330
2
100
AcDbEntity
  8
0
 62
   252
100
AcDbCircle
 10
617.8764404623666
 20
856.3992904409591
 30
0.0
 40
19.88045606348704
100
AcDbArc
 50
162.0486963503322
 51
20.11213206675568
  0
ARC
  5
6A3
330
2
100
AcDbEntity
  8
0
 62
   252
100
AcDbCircle
 10
618.2472219321501
 20
789.2460880659657
 30
0.0
 40
19.88045606348704
100
AcDbArc
 50
340.9682821417888
 51
199.0317178582113
  0
ARC
  5
6A4
330
2
100
AcDbEntity
  8
0
 62
   252
100
AcDbCircle
 10
677.4113550180925
 20
856.3992904409273
 30
0.0
 40
19.88045606348704
100
AcDbArc
 50
162.0486963503322
 51
20.11213206675568
  0
ARC
  5
6A5
330
2
100
AcDbEntity
  8
0
 62
   252
100
AcDbCircle
 10
677.7821364878757
 20
789.2460880659341
 30
0.0
 40
19.88045606348704
100
AcDbArc
 50
340.9682821417888
 51
199.0317178582113
  0
LINE
  5
733
330
2
100
AcDbEntity
  8
0
100
AcDbLine
 10
783.6976298063801
 20
991.6679526593052
 30
0.0
 11
960.3567536550215
 21
426.5183347411025
 31
0.0
  0
LINE
  5
734
330
2
100
AcDbEntity
  8
0
100
AcDbLine
 10
1169.6377440746
 20
840.650738063462
 30
0.0
 11
783.6976298063801
 21
991.6679526593052
 31
0.0
  0
LINE
  5
737
330
2
100
AcDbEntity
  8
0
100
AcDbLine
 10
960.3567536550215
 20
426.5183347411025
 30
0.0
 11
918.9828648361142
 21
461.3245353585134
 31
0.0
  0
LINE
  5
738
330
2
100
AcDbEntity
  8
0
100
AcDbLine
 10
960.3567536550215
 20
426.5183347411025
 30
0.0
 11
962.7068156388704
 21
481.7203036610626
 31
0.0
  0
LINE
  5
739
330
2
100
AcDbEntity
  8
0
100
AcDbLine
 10
1169.6377440746
 20
840.650738063462
 30
0.0
 11
1154.828345296952
 21
864.0105912911279
 31
0.0
  0
LINE
  5
73A
330
2
100
AcDbEntity
  8
0
100
AcDbLine
 10
1169.6377440746
 20
840.650738063462
 30
0.0
 11
1146.254478829105
 21
831.3067955637452
 31
0.0
  0
LINE
  5
8ED
330
2
100
AcDbEntity
  8
6-家具-143
 62
   143
100
AcDbLine
 10
768.4288676235549
 20
931.0543353784018
 30
0.0
 11
770.8284020607783
 21
968.348539176898
 31
0.0
  0
LINE
  5
8EE
330
2
100
AcDbEntity
  8
6-家具-143
 62
   143
100
AcDbLine
 10
741.7673738765952
 20
962.4880214371374
 30
0.0
 11
741.7673738765952
 21
931.5871097183908
 31
0.0
  0
LINE
  5
8EF
330
2
100
AcDbEntity
  8
6-家具-143
 62
   143
100
AcDbLine
 10
756.6978103748946
 20
957.6930523773311
 30
0.0
 11
760.9636493744051
 21
965.6846674770006
 31
0.0
  0
LINE
  5
8F0
330
2
100
AcDbEntity
  8
6-家具-143
 62
   143
100
AcDbLine
 10
776.9377431931745
 20
967.2637121698009
 30
0.0
 11
777.8463388404301
 21
960.5199106181164
 31
0.0
  0
LINE
  5
8F1
330
2
100
AcDbEntity
  8
6-家具-143
 62
   143
100
AcDbLine
 10
774.4329663554514
 20
962.2724579998415
 30
0.0
 11
773.2928366909341
 21
957.0323419691883
 31
0.0
  0
LINE
  5
8F2
330
2
100
AcDbEntity
  8
6-家具-143
 62
   143
100
AcDbLine
 10
740.6851282858944
 20
961.8167957363073
 30
0.0
 11
747.5259062729733
 21
964.7786004492902
 31
0.0
  0
LINE
  5
8F3
330
2
100
AcDbEntity
  8
6-家具-143
 62
   143
100
AcDbLine
 10
737.2647392923668
 20
984.827740044904
 30
0.0
 11
731.792116902706
 21
954.9818617832734
 31
0.0
  0
LINE
  5
8F4
330
2
100
AcDbEntity
  8
6-家具-143
 62
   143
100
AcDbLine
 10
748.4327473133295
 20
890.2970983700713
 30
0.0
 11
745.233368063702
 21
891.3626470500258
 31
0.0
  0
LINE
  5
8F5
330
2
100
AcDbEntity
  8
6-家具-143
 62
   143
100
AcDbLine
 10
745.233368063702
 20
891.3626470500258
 30
0.0
 11
742.5672186889991
 21
889.7643240300828
 31
0.0
  0
LINE
  5
8F6
330
2
100
AcDbEntity
  8
6-家具-143
 62
   143
100
AcDbLine
 10
765.4961033113838
 20
888.6987753501284
 30
0.0
 11
764.9628734364479
 21
890.0307112000771
 31
0.0
  0
LINE
  5
8F7
330
2
100
AcDbEntity
  8
6-家具-143
 62
   143
100
AcDbLine
 10
764.9628734364479
 20
890.0307112000771
 30
0.0
 11
761.2302643118733
 21
887.6332266701741
 31
0.0
  0
LINE
  5
8F8
330
2
100
AcDbEntity
  8
6-家具-143
 62
   143
100
AcDbLine
 10
761.2302643118733
 20
887.6332266701741
 30
0.0
 11
760.6970344369373
 21
887.6332266701741
 31
0.0
  0
LINE
  5
8F9
330
2
100
AcDbEntity
  8
6-家具-143
 62
   143
100
AcDbLine
 10
755.631350625011
 20
929.9887866984473
 30
0.0
 11
756.6978103748946
 21
927.3249149985501
 31
0.0
  0
LINE
  5
8FA
330
2
100
AcDbEntity
  8
6-家具-143
 62
   143
100
AcDbLine
 10
756.6978103748946
 20
927.3249149985501
 30
0.0
 11
756.164580499947
 21
927.0585278285791
 31
0.0
  0
LINE
  5
8FB
330
2
100
AcDbEntity
  8
6-家具-143
 62
   143
100
AcDbLine
 10
756.164580499947
 20
927.0585278285791
 30
0.0
 11
758.2974999997021
 21
888.1660010101626
 31
0.0
  0
LINE
  5
8FC
330
2
100
AcDbEntity
  8
6-家具-143
 62
   143
100
AcDbLine
 10
758.2974999997021
 20
888.1660010101626
 30
0.0
 11
759.3639597495858
 21
887.8996138401683
 31
0.0
  0
LINE
  5
8FD
330
2
100
AcDbEntity
  8
6-家具-143
 62
   143
100
AcDbLine
 10
759.3639597495858
 20
887.8996138401683
 30
0.0
 11
757.2310402498304
 21
883.6374191203278
 31
0.0
  0
LINE
  5
8FE
330
2
100
AcDbEntity
  8
6-家具-143
 62
   143
100
AcDbLine
 10
757.2310402498304
 20
883.6374191203278
 30
0.0
 11
757.2310402498304
 21
882.0390961004077
 31
0.0
  0
LINE
  5
8FF
330
2
100
AcDbEntity
  8
6-家具-143
 62
   143
100
AcDbLine
 10
757.2310402498304
 20
882.0390961004077
 30
0.0
 11
764.9628734364479
 21
881.5063217604189
 31
0.0
  0
LINE
  5
900
330
2
100
AcDbEntity
  8
6-家具-143
 62
   143
100
AcDbLine
 10
764.9628734364479
 20
881.5063217604189
 30
0.0
 11
770.0285572483624
 21
881.7727089304135
 31
0.0
  0
LINE
  5
901
330
2
100
AcDbEntity
  8
6-家具-143
 62
   143
100
AcDbLine
 10
770.0285572483624
 20
881.7727089304135
 30
0.0
 11
773.2279364980016
 21
881.7727089304135
 31
0.0
  0
LINE
  5
902
330
2
100
AcDbEntity
  8
6-家具-143
 62
   143
100
AcDbLine
 10
773.2279364980016
 20
881.7727089304135
 30
0.0
 11
773.2279364980016
 21
884.1701934603165
 31
0.0
  0
LINE
  5
903
330
2
100
AcDbEntity
  8
6-家具-143
 62
   143
100
AcDbLine
 10
773.2279364980016
 20
884.1701934603165
 30
0.0
 11
767.0957929362034
 21
888.1660010101626
 31
0.0
  0
LINE
  5
904
330
2
100
AcDbEntity
  8
6-家具-143
 62
   143
100
AcDbLine
 10
767.0957929362034
 20
888.1660010101626
 30
0.0
 11
768.4288676235549
 21
927.3249149985501
 31
0.0
  0
LINE
  5
905
330
2
100
AcDbEntity
  8
6-家具-143
 62
   143
100
AcDbLine
 10
768.4288676235549
 20
927.3249149985501
 30
0.0
 11
767.8956377486072
 21
929.7223995284534
 31
0.0
  0
LINE
  5
906
330
2
100
AcDbEntity
  8
6-家具-143
 62
   143
100
AcDbLine
 10
767.8956377486072
 20
929.7223995284534
 30
0.0
 11
768.4288676235549
 21
931.0543353784018
 31
0.0
  0
LINE
  5
907
330
2
100
AcDbEntity
  8
6-家具-143
 62
   143
100
AcDbLine
 10
741.7673738765952
 20
931.5871097183908
 30
0.0
 11
740.9675290641795
 21
928.6568508484988
 31
0.0
  0
LINE
  5
908
330
2
100
AcDbEntity
  8
6-家具-143
 62
   143
100
AcDbLine
 10
740.9675290641795
 20
928.6568508484988
 30
0.0
 11
741.5007589391271
 21
889.231549690117
 31
0.0
  0
LINE
  5
909
330
2
100
AcDbEntity
  8
6-家具-143
 62
   143
100
AcDbLine
 10
741.5007589391271
 20
889.231549690117
 30
0.0
 11
744.1669083138186
 21
888.4323881801337
 31
0.0
  0
LINE
  5
90A
330
2
100
AcDbEntity
  8
6-家具-143
 62
   143
100
AcDbLine
 10
744.1669083138186
 20
888.4323881801337
 30
0.0
 11
742.5672186889991
 21
885.2357421402709
 31
0.0
  0
LINE
  5
90B
330
2
100
AcDbEntity
  8
6-家具-143
 62
   143
100
AcDbLine
 10
742.5672186889991
 20
885.2357421402709
 30
0.0
 11
740.9675290641795
 21
883.6374191203278
 31
0.0
  0
LINE
  5
90C
330
2
100
AcDbEntity
  8
6-家具-143
 62
   143
100
AcDbLine
 10
740.9675290641795
 20
883.6374191203278
 30
0.0
 11
740.9675290641795
 21
882.0390961004077
 31
0.0
  0
LINE
  5
90D
330
2
100
AcDbEntity
  8
6-家具-143
 62
   143
100
AcDbLine
 10
740.9675290641795
 20
882.0390961004077
 30
0.0
 11
744.9667531262226
 21
881.7727089304135
 31
0.0
  0
LINE
  5
90E
330
2
100
AcDbEntity
  8
6-家具-143
 62
   143
100
AcDbLine
 10
744.9667531262226
 20
881.7727089304135
 30
0.0
 11
752.69858631284
 21
881.5063217604189
 31
0.0
  0
LINE
  5
90F
330
2
100
AcDbEntity
  8
6-家具-143
 62
   143
100
AcDbLine
 10
752.69858631284
 20
881.5063217604189
 30
0.0
 11
753.7650460627235
 21
883.6374191203278
 31
0.0
  0
LINE
  5
910
330
2
100
AcDbEntity
  8
6-家具-143
 62
   143
100
AcDbLine
 10
753.7650460627235
 20
883.6374191203278
 30
0.0
 11
752.69858631284
 21
885.502129310265
 31
0.0
  0
LINE
  5
911
330
2
100
AcDbEntity
  8
6-家具-143
 62
   143
100
AcDbLine
 10
752.69858631284
 20
885.502129310265
 30
0.0
 11
749.499207063213
 21
888.4323881801337
 31
0.0
  0
LINE
  5
912
330
2
100
AcDbEntity
  8
6-家具-143
 62
   143
100
AcDbLine
 10
749.499207063213
 20
888.4323881801337
 30
0.0
 11
750.5656668130845
 21
889.7643240300828
 31
0.0
  0
LINE
  5
913
330
2
100
AcDbEntity
  8
6-家具-143
 62
   143
100
AcDbLine
 10
750.5656668130845
 20
889.7643240300828
 30
0.0
 11
754.2982759376594
 21
927.8576893385386
 31
0.0
  0
LINE
  5
914
330
2
100
AcDbEntity
  8
6-家具-143
 62
   143
100
AcDbLine
 10
754.2982759376594
 20
927.8576893385386
 30
0.0
 11
755.0981207500749
 21
930.5215610384363
 31
0.0
  0
LINE
  5
915
330
2
100
AcDbEntity
  8
6-家具-143
 62
   143
100
AcDbLine
 10
755.0981207500749
 20
930.5215610384363
 30
0.0
 11
756.6978103748946
 21
957.6930523773311
 31
0.0
  0
LINE
  5
916
330
2
100
AcDbEntity
  8
6-家具-143
 62
   143
100
AcDbLine
 10
777.8463388404301
 20
960.5199106181164
 30
0.0
 11
777.0675425713605
 21
960.2605336353537
 31
0.0
  0
LINE
  5
917
330
2
100
AcDbEntity
  8
6-家具-143
 62
   143
100
AcDbLine
 10
777.0675425713605
 20
960.2605336353537
 30
0.0
 11
776.5483450586398
 21
958.833960230195
 31
0.0
  0
LINE
  5
918
330
2
100
AcDbEntity
  8
6-家具-143
 62
   143
100
AcDbLine
 10
776.5483450586398
 20
958.833960230195
 30
0.0
 11
775.6397494113843
 21
958.7042717388253
 31
0.0
  0
LINE
  5
919
330
2
100
AcDbEntity
  8
6-家具-143
 62
   143
100
AcDbLine
 10
775.6397494113843
 20
958.7042717388253
 30
0.0
 11
775.380150655024
 21
957.6667638077754
 31
0.0
  0
LINE
  5
91A
330
2
100
AcDbEntity
  8
6-家具-143
 62
   143
100
AcDbLine
 10
775.380150655024
 20
957.6667638077754
 30
0.0
 11
773.6927587386992
 21
957.1480098422737
 31
0.0
  0
LINE
  5
91B
330
2
100
AcDbEntity
  8
6-家具-143
 62
   143
100
AcDbLine
 10
773.2928366909341
 20
957.0323419691883
 30
0.0
 11
772.6087588922309
 21
954.0705372561822
 31
0.0
  0
LINE
  5
91C
330
2
100
AcDbEntity
  8
6-家具-143
 62
   143
100
AcDbLine
 10
772.6087588922309
 20
954.0705372561822
 30
0.0
 11
770.1004736303076
 21
954.9818617832734
 31
0.0
  0
LINE
  5
91D
330
2
100
AcDbEntity
  8
6-家具-143
 62
   143
100
AcDbLine
 10
732.7042206343219
 20
955.6653551785631
 30
0.0
 11
736.1246096278494
 21
957.9436664962562
 31
0.0
  0
LINE
  5
91E
330
2
100
AcDbEntity
  8
6-家具-143
 62
   143
100
AcDbLine
 10
736.1246096278494
 20
957.9436664962562
 30
0.0
 11
740.6851282858944
 21
961.8167957363073
 31
0.0
  0
LINE
  5
91F
330
2
100
AcDbEntity
  8
6-家具-143
 62
   143
100
AcDbLine
 10
731.792116902706
 20
954.9818617832734
 30
0.0
 11
734.3004021646296
 21
954.7540306514951
 31
0.0
  0
LINE
  5
920
330
2
100
AcDbEntity
  8
6-家具-143
 62
   143
100
AcDbLine
 10
734.3004021646296
 20
954.7540306514951
 30
0.0
 11
738.4048689568722
 21
956.8045108374096
 31
0.0
  0
LINE
  5
921
330
2
100
AcDbEntity
  8
6-家具-143
 62
   143
100
AcDbLine
 10
738.4048689568722
 20
956.8045108374096
 30
0.0
 11
741.5972320175105
 21
957.4880042327224
 31
0.0
  0
LINE
  5
922
330
2
100
AcDbEntity
  8
6-家具-143
 62
   143
100
AcDbLine
 10
759.0950061383148
 20
1051.157561074
 30
-0.000000000000001
 11
758.6272606348225
 21
1051.624906985404
 31
0.0000000000000018
  0
LINE
  5
923
330
2
100
AcDbEntity
  8
6-家具-143
 62
   143
100
AcDbLine
 10
758.6272606348225
 20
1051.624906985404
 30
0.0000000000000018
 11
757.7853187285435
 21
1051.344499438547
 31
0.000000000000002
  0
LINE
  5
924
330
2
100
AcDbEntity
  8
6-家具-143
 62
   143
100
AcDbLine
 10
764.5208539787986
 20
1051.718376167689
 30
-0.0000000000000009
 11
763.9595593746125
 21
1051.90531453226
 31
-0.0000000000000013
  0
LINE
  5
925
330
2
100
AcDbEntity
  8
6-家具-143
 62
   143
100
AcDbLine
 10
763.9595593746125
 20
1051.90531453226
 30
-0.0000000000000013
 11
763.3982647704264
 21
1051.251030256262
 31
0.0000000000000007
  0
LINE
  5
926
330
2
100
AcDbEntity
  8
6-家具-143
 62
   143
100
AcDbLine
 10
766.391835490761
 20
1052.84000626629
 30
0.0
 11
764.2402061746994
 21
1053.307352177718
 31
0.0
  0
LINE
  5
927
330
2
100
AcDbEntity
  8
6-家具-143
 62
   143
100
AcDbLine
 10
764.2402061746994
 20
1053.307352177718
 30
0.0
 11
762.0885768586492
 21
1052.466129537148
 31
0.0
  0
LINE
  5
928
330
2
100
AcDbEntity
  8
6-家具-143
 62
   143
100
AcDbLine
 10
765.736992287876
 20
1051.998783714546
 30
0.0
 11
763.5853629718144
 21
1052.092252896831
 31
0.0
  0
LINE
  5
929
330
2
100
AcDbEntity
  8
6-家具-143
 62
   143
100
AcDbLine
 10
763.5853629718144
 20
1052.092252896831
 30
0.0
 11
762.0885773606556
 21
1051.531437803118
 31
0.0
  0
LINE
  5
92A
330
2
100
AcDbEntity
  8
6-家具-143
 62
   143
100
AcDbLine
 10
762.0885773606556
 20
1051.531437803118
 30
0.0
 11
762.4627737634424
 21
1050.970622709429
 31
0.0
  0
LINE
  5
92B
330
2
100
AcDbEntity
  8
6-家具-143
 62
   143
100
AcDbLine
 10
762.4627737634424
 20
1050.970622709429
 30
0.0
 11
763.4918138711205
 21
1051.064091891714
 31
0.0
  0
LINE
  5
92C
330
2
100
AcDbEntity
  8
6-家具-143
 62
   143
100
AcDbLine
 10
763.4918138711205
 20
1051.064091891714
 30
0.0
 11
765.2692467843839
 21
1051.531437803118
 31
0.0
  0
LINE
  5
92D
330
2
100
AcDbEntity
  8
6-家具-143
 62
   143
100
AcDbLine
 10
760.0304969028293
 20
1052.372660585039
 30
0.0
 11
758.8143588335793
 21
1053.307352115133
 31
0.0
  0
LINE
  5
92E
330
2
100
AcDbEntity
  8
6-家具-143
 62
   143
100
AcDbLine
 10
758.8143588335793
 20
1053.307352115133
 30
0.0
 11
755.9143367670317
 21
1053.026944829792
 31
0.0
  0
LINE
  5
92F
330
2
100
AcDbEntity
  8
6-家具-143
 62
   143
100
AcDbLine
 10
755.9143367670317
 20
1053.026944829792
 30
0.0
 11
755.4465908389844
 21
1052.279191345198
 31
0.0
  0
LINE
  5
930
330
2
100
AcDbEntity
  8
6-家具-143
 62
   143
100
AcDbLine
 10
756.2885331173734
 20
1052.092252896831
 30
0.0
 11
757.5046714264504
 21
1052.185722079117
 31
0.0
  0
LINE
  5
931
330
2
100
AcDbEntity
  8
6-家具-143
 62
   143
100
AcDbLine
 10
757.5046714264504
 20
1052.185722079117
 30
0.0
 11
759.0950061383148
 21
1051.998783714546
 31
0.0
  0
LINE
  5
932
330
2
100
AcDbEntity
  8
6-家具-143
 62
   143
100
AcDbLine
 10
759.0950061383148
 20
1051.998783714546
 30
0.0
 11
759.8433989439
 21
1051.531437803118
 31
0.0
  0
LINE
  5
933
330
2
100
AcDbEntity
  8
6-家具-143
 62
   143
100
AcDbLine
 10
759.8433989439
 20
1051.531437803118
 30
0.0
 11
759.375653440408
 21
1050.970622709429
 31
0.0
  0
LINE
  5
934
330
2
100
AcDbEntity
  8
6-家具-143
 62
   143
100
AcDbLine
 10
759.375653440408
 20
1050.970622709429
 30
0.0
 11
758.1595151313304
 21
1050.877153527143
 31
0.0
  0
LINE
  5
935
330
2
100
AcDbEntity
  8
6-家具-143
 62
   143
100
AcDbLine
 10
758.1595151313304
 20
1050.877153527143
 30
0.0
 11
756.2885331173734
 21
1051.531437803118
 31
0.0
  0
LINE
  5
936
330
2
100
AcDbEntity
  8
6-家具-143
 62
   143
100
AcDbLine
 10
763.6789120725195
 20
1044.240841584967
 30
0.0
 11
762.0885773606556
 21
1044.708187496395
 31
0.0
  0
LINE
  5
937
330
2
100
AcDbEntity
  8
6-家具-143
 62
   143
100
AcDbLine
 10
762.0885773606556
 20
1044.708187496395
 30
0.0
 11
761.2466354543649
 21
1044.614718314109
 31
0.0
  0
LINE
  5
938
330
2
100
AcDbEntity
  8
6-家具-143
 62
   143
100
AcDbLine
 10
761.2466354543649
 20
1044.614718314109
 30
0.0
 11
759.2821043397139
 21
1044.334310767253
 31
0.0
  0
LINE
  5
939
330
2
100
AcDbEntity
  8
6-家具-143
 62
   143
100
AcDbLine
 10
763.0240683676281
 20
1046.857978688914
 30
0.0
 11
762.7434210655351
 21
1046.39063277751
 31
0.0
  0
LINE
  5
93A
330
2
100
AcDbEntity
  8
6-家具-143
 62
   143
100
AcDbLine
 10
762.7434210655351
 20
1046.39063277751
 30
0.0
 11
760.6853408501788
 21
1046.484101959795
 31
0.0
  0
LINE
  5
93B
330
2
100
AcDbEntity
  8
6-家具-143
 62
   143
100
AcDbLine
 10
760.6853408501788
 20
1046.484101959795
 30
0.0
 11
759.6563007425007
 21
1046.951447871223
 31
0.0
  0
LINE
  5
93C
330
2
100
AcDbEntity
  8
6-家具-143
 62
   143
100
AcDbLine
 10
750.3013906727034
 20
1052.74653717283
 30
0.0
 11
749.8336451692114
 21
1053.400821448805
 31
0.0
  0
LINE
  5
93D
330
2
100
AcDbEntity
  8
6-家具-143
 62
   143
100
AcDbLine
 10
749.8336451692114
 20
1053.400821448805
 30
0.0
 11
748.9917032629323
 21
1053.681228995661
 31
0.0
  0
LINE
  5
93E
330
2
100
AcDbEntity
  8
6-家具-143
 62
   143
100
AcDbLine
 10
748.9917032629323
 20
1053.681228995661
 30
0.0
 11
748.3368595580409
 21
1053.026944719663
 31
0.0
  0
LINE
  5
93F
330
2
100
AcDbEntity
  8
6-家具-143
 62
   143
100
AcDbLine
 10
748.3368595580409
 20
1053.026944719663
 30
0.0
 11
747.962663155254
 21
1052.092252896831
 31
0.0
  0
LINE
  5
940
330
2
100
AcDbEntity
  8
6-家具-143
 62
   143
100
AcDbLine
 10
747.962663155254
 20
1052.092252896831
 30
0.0
 11
748.2433104573473
 21
1050.316338433431
 31
0.0
  0
LINE
  5
941
330
2
100
AcDbEntity
  8
6-家具-143
 62
   143
100
AcDbLine
 10
748.2433104573473
 20
1050.316338433431
 30
0.0
 11
748.8046050615333
 21
1049.007769881457
 31
0.0
  0
LINE
  5
942
330
2
100
AcDbEntity
  8
6-家具-143
 62
   143
100
AcDbLine
 10
748.8046050615333
 20
1049.007769881457
 30
0.0
 11
749.8336451692114
 21
1047.886139694054
 31
0.0
  0
LINE
  5
943
330
2
100
AcDbEntity
  8
6-家具-143
 62
   143
100
AcDbLine
 10
749.8336451692114
 20
1047.886139694054
 30
0.0
 11
750.4884888741027
 21
1047.044917053485
 31
0.0
  0
LINE
  5
944
330
2
100
AcDbEntity
  8
6-家具-143
 62
   143
100
AcDbLine
 10
750.4884888741027
 20
1047.044917053485
 30
0.0
 11
751.0497834782888
 21
1046.764509506652
 31
0.0
  0
LINE
  5
945
330
2
100
AcDbEntity
  8
6-家具-143
 62
   143
100
AcDbLine
 10
751.0497834782888
 20
1046.764509506652
 30
0.0
 11
751.2368816796879
 21
1047.325324600341
 31
0.0
  0
LINE
  5
946
330
2
100
AcDbEntity
  8
6-家具-143
 62
   143
100
AcDbLine
 10
762.3692246627484
 20
1043.586557308992
 30
0.0
 11
760.6853408501788
 21
1043.493088126707
 31
0.0
  0
LINE
  5
947
330
2
100
AcDbEntity
  8
6-家具-143
 62
   143
100
AcDbLine
 10
763.9595593746125
 20
1039.380444106215
 30
0.0
 11
764.0531084753065
 21
1039.100036559359
 31
0.0
  0
LINE
  5
948
330
2
100
AcDbEntity
  8
6-家具-143
 62
   143
100
AcDbLine
 10
764.0531084753065
 20
1039.100036559359
 30
0.0
 11
761.9014791592563
 21
1038.819629012503
 31
0.0
  0
LINE
  5
949
330
2
100
AcDbEntity
  8
6-家具-143
 62
   143
100
AcDbLine
 10
751.0497834782888
 20
1039.941259199905
 30
0.0
 11
750.6755870754902
 21
1039.380444106215
 31
0.0
  0
LINE
  5
94A
330
2
100
AcDbEntity
  8
6-家具-143
 62
   143
100
AcDbLine
 10
750.6755870754902
 20
1039.380444106215
 30
0.0
 11
753.7627073985247
 21
1038.913098194788
 31
0.0
  0
LINE
  5
94B
330
2
100
AcDbEntity
  8
6-家具-143
 62
   143
100
AcDbLine
 10
753.7627073985247
 20
1038.913098194788
 30
0.0
 11
757.3175732250514
 21
1038.913098194788
 31
0.0
  0
LINE
  5
94C
330
2
100
AcDbEntity
  8
6-家具-143
 62
   143
100
AcDbLine
 10
761.99502825995
 20
1037.230652913673
 30
0.0
 11
760.5917917494852
 21
1034.146169898298
 31
0.0
  0
LINE
  5
94D
330
2
100
AcDbEntity
  8
6-家具-143
 62
   143
100
AcDbLine
 10
760.5917917494852
 20
1034.146169898298
 30
0.0
 11
759.9369480445936
 21
1033.585354804609
 31
0.0
  0
LINE
  5
94E
330
2
100
AcDbEntity
  8
6-家具-143
 62
   143
100
AcDbLine
 10
759.9369480445936
 20
1033.585354804609
 30
0.0
 11
758.2530642320357
 21
1034.239639080584
 31
0.0
  0
LINE
  5
94F
330
2
100
AcDbEntity
  8
6-家具-143
 62
   143
100
AcDbLine
 10
758.2530642320357
 20
1034.239639080584
 30
0.0
 11
757.1304750236524
 21
1036.950245366816
 31
0.0
  0
LINE
  5
950
330
2
100
AcDbEntity
  8
6-家具-143
 62
   143
100
AcDbLine
 10
763.3047156697212
 20
1039.754320835334
 30
0.0
 11
764.1466575760119
 21
1039.754320835334
 31
0.0
  0
LINE
  5
951
330
2
100
AcDbEntity
  8
6-家具-143
 62
   143
100
AcDbLine
 10
764.1466575760119
 20
1039.754320835334
 30
0.0
 11
764.8015012808914
 21
1039.28697492393
 31
0.0
  0
LINE
  5
952
330
2
100
AcDbEntity
  8
6-家具-143
 62
   143
100
AcDbLine
 10
764.8015012808914
 20
1039.28697492393
 30
0.0
 11
766.2047377913682
 21
1033.398416440038
 31
0.0
  0
LINE
  5
953
330
2
100
AcDbEntity
  8
6-家具-143
 62
   143
100
AcDbLine
 10
766.2047377913682
 20
1033.398416440038
 30
0.0
 11
762.556322864136
 21
1037.230652913673
 31
0.0
  0
LINE
  5
954
330
2
100
AcDbEntity
  8
6-家具-143
 62
   143
100
AcDbLine
 10
762.556322864136
 20
1037.230652913673
 30
0.0
 11
760.9659881522718
 21
1038.726159830217
 31
0.0
  0
LINE
  5
955
330
2
100
AcDbEntity
  8
6-家具-143
 62
   143
100
AcDbLine
 10
760.9659881522718
 20
1038.726159830217
 30
0.0
 11
757.7853187285435
 21
1038.632690647932
 31
0.0
  0
LINE
  5
956
330
2
100
AcDbEntity
  8
6-家具-143
 62
   143
100
AcDbLine
 10
757.7853187285435
 20
1038.632690647932
 30
0.0
 11
753.8562564992305
 21
1032.744132164039
 31
0.0
  0
LINE
  5
957
330
2
100
AcDbEntity
  8
6-家具-143
 62
   143
100
AcDbLine
 10
753.8562564992305
 20
1032.744132164039
 30
0.0
 11
750.6755870754902
 21
1034.800454174297
 31
0.0
  0
LINE
  5
958
330
2
100
AcDbEntity
  8
6-家具-143
 62
   143
100
AcDbLine
 10
750.6755870754902
 20
1034.800454174297
 30
0.0
 11
748.8046050615333
 21
1036.015553543985
 31
0.0
  0
LINE
  5
959
330
2
100
AcDbEntity
  8
6-家具-143
 62
   143
100
AcDbLine
 10
748.8046050615333
 20
1036.015553543985
 30
0.0
 11
749.3658996657189
 21
1037.884937189671
 31
0.0
  0
LINE
  5
95A
330
2
100
AcDbEntity
  8
6-家具-143
 62
   143
100
AcDbLine
 10
749.3658996657189
 20
1037.884937189671
 30
0.0
 11
749.646546967812
 21
1040.03472838219
 31
0.0
  0
LINE
  5
95B
330
2
100
AcDbEntity
  8
6-家具-143
 62
   143
100
AcDbLine
 10
749.646546967812
 20
1040.03472838219
 30
0.0
 11
750.5820379747966
 21
1039.941259199905
 31
0.0
  0
LINE
  5
95C
330
2
100
AcDbEntity
  8
6-家具-143
 62
   143
100
AcDbLine
 10
749.4594487664245
 20
1048.073078058625
 30
0.0
 11
750.3949397733972
 21
1045.736348501512
 31
0.0
  0
LINE
  5
95D
330
2
100
AcDbEntity
  8
6-家具-143
 62
   143
100
AcDbLine
 10
750.3949397733972
 20
1045.736348501512
 30
0.0
 11
750.7691361761958
 21
1041.997581210162
 31
0.0
  0
LINE
  5
95E
330
2
100
AcDbEntity
  8
6-家具-143
 62
   143
100
AcDbLine
 10
750.7691361761958
 20
1041.997581210162
 30
0.0
 11
750.9562343775833
 21
1039.941259199905
 31
0.0
  0
LINE
  5
95F
330
2
100
AcDbEntity
  8
6-家具-143
 62
   143
100
AcDbLine
 10
766.1111886906625
 20
1059.943664208695
 30
0.0
 11
765.5498940864768
 21
1060.59794848467
 31
0.0
  0
LINE
  5
960
330
2
100
AcDbEntity
  8
6-家具-143
 62
   143
100
AcDbLine
 10
765.5498940864768
 20
1060.59794848467
 30
0.0
 11
761.6208318571635
 21
1060.784886849241
 31
0.0
  0
LINE
  5
961
330
2
100
AcDbEntity
  8
6-家具-143
 62
   143
100
AcDbLine
 10
761.6208318571635
 20
1060.784886849241
 30
0.0
 11
757.2240241243577
 21
1060.691417666956
 31
0.0
  0
LINE
  5
962
330
2
100
AcDbEntity
  8
6-家具-143
 62
   143
100
AcDbLine
 10
757.2240241243577
 20
1060.691417666956
 30
0.0
 11
755.1659439090014
 21
1060.317540937814
 31
0.0
  0
LINE
  5
963
330
2
100
AcDbEntity
  8
6-家具-143
 62
   143
100
AcDbLine
 10
755.1659439090014
 20
1060.317540937814
 30
0.0
 11
753.1078636936451
 21
1059.476318297268
 31
0.0
  0
LINE
  5
964
330
2
100
AcDbEntity
  8
6-家具-143
 62
   143
100
AcDbLine
 10
753.1078636936451
 20
1059.476318297268
 30
0.0
 11
752.0788235859669
 21
1057.41999628701
 31
0.0
  0
LINE
  5
965
330
2
100
AcDbEntity
  8
6-家具-143
 62
   143
100
AcDbLine
 10
752.0788235859669
 20
1057.41999628701
 30
0.0
 11
751.7046271831685
 21
1055.457143459039
 31
0.0
  0
LINE
  5
966
330
2
100
AcDbEntity
  8
6-家具-143
 62
   143
100
AcDbLine
 10
751.7046271831685
 20
1055.457143459039
 30
0.0
 11
750.6755870754902
 21
1054.522451636207
 31
0.0
  0
LINE
  5
967
330
2
100
AcDbEntity
  8
6-家具-143
 62
   143
100
AcDbLine
 10
750.6755870754902
 20
1054.522451636207
 30
0.0
 11
750.6755870754902
 21
1053.681228995661
 31
0.0
  0
LINE
  5
968
330
2
100
AcDbEntity
  8
6-家具-143
 62
   143
100
AcDbLine
 10
750.6755870754902
 20
1053.681228995661
 30
0.0
 11
750.3013906727034
 21
1053.49429063109
 31
0.0
  0
LINE
  5
969
330
2
100
AcDbEntity
  8
6-家具-143
 62
   143
100
AcDbLine
 10
762.3692246627484
 20
1039.193505741644
 30
0.0
 11
763.0240683676281
 21
1040.221666746761
 31
0.0
  0
LINE
  5
96A
330
2
100
AcDbEntity
  8
6-家具-143
 62
   143
100
AcDbLine
 10
763.0240683676281
 20
1040.221666746761
 30
0.0
 11
763.9595593746125
 21
1040.408605111332
 31
0.0
  0
LINE
  5
96B
330
2
100
AcDbEntity
  8
6-家具-143
 62
   143
100
AcDbLine
 10
763.9595593746125
 20
1040.408605111332
 30
0.0
 11
764.9885994822906
 21
1041.62370448102
 31
0.0
  0
LINE
  5
96C
330
2
100
AcDbEntity
  8
6-家具-143
 62
   143
100
AcDbLine
 10
764.9885994822906
 20
1041.62370448102
 30
0.0
 11
766.2047377913682
 21
1044.053903220396
 31
0.0
  0
LINE
  5
96D
330
2
100
AcDbEntity
  8
6-家具-143
 62
   143
100
AcDbLine
 10
766.2047377913682
 20
1044.053903220396
 30
0.0
 11
767.2337778990463
 21
1048.446954787744
 31
0.0
  0
LINE
  5
96E
330
2
100
AcDbEntity
  8
6-家具-143
 62
   143
100
AcDbLine
 10
767.2337778990463
 20
1048.446954787744
 30
0.0
 11
766.4853850934609
 21
1051.344499438547
 31
0.0
  0
LINE
  5
96F
330
2
100
AcDbEntity
  8
6-家具-143
 62
   143
100
AcDbLine
 10
766.4853850934609
 20
1051.344499438547
 30
0.0
 11
767.0466796976471
 21
1052.559598808259
 31
0.0
  0
LINE
  5
970
330
2
100
AcDbEntity
  8
6-家具-143
 62
   143
100
AcDbLine
 10
767.0466796976471
 20
1052.559598808259
 30
0.0
 11
767.0466796976471
 21
1055.363674276776
 31
0.0
  0
LINE
  5
971
330
2
100
AcDbEntity
  8
6-家具-143
 62
   143
100
AcDbLine
 10
767.0466796976471
 20
1055.363674276776
 30
0.0
 11
766.2982868920619
 21
1059.663256661839
 31
0.0
  0
LINE
  5
972
330
2
100
AcDbEntity
  8
6-家具-143
 62
   143
100
AcDbLine
 10
766.2982868920619
 20
1059.663256661839
 30
0.0
 11
766.4853850934609
 21
1061.813047854358
 31
0.0
  0
LINE
  5
973
330
2
100
AcDbEntity
  8
6-家具-143
 62
   143
100
AcDbLine
 10
766.4853850934609
 20
1061.813047854358
 30
0.0
 11
765.17569768369
 21
1063.121616406332
 31
0.0
  0
LINE
  5
974
330
2
100
AcDbEntity
  8
6-家具-143
 62
   143
100
AcDbLine
 10
765.17569768369
 20
1063.121616406332
 30
0.0
 11
760.2175953466867
 21
1063.962839046901
 31
0.0
  0
LINE
  5
975
330
2
100
AcDbEntity
  8
6-家具-143
 62
   143
100
AcDbLine
 10
760.2175953466867
 20
1063.962839046901
 30
0.0
 11
753.0143145929397
 21
1063.588962317759
 31
0.0
  0
LINE
  5
976
330
2
100
AcDbEntity
  8
6-家具-143
 62
   143
100
AcDbLine
 10
753.0143145929397
 20
1063.588962317759
 30
0.0
 11
750.2078415720098
 21
1062.841208859475
 31
0.0
  0
LINE
  5
977
330
2
100
AcDbEntity
  8
6-家具-143
 62
   143
100
AcDbLine
 10
750.2078415720098
 20
1062.841208859475
 30
0.0
 11
748.7110559608395
 21
1060.224071755528
 31
0.0
  0
LINE
  5
978
330
2
100
AcDbEntity
  8
6-家具-143
 62
   143
100
AcDbLine
 10
748.7110559608395
 20
1060.224071755528
 30
0.0
 11
747.962663155254
 21
1057.41999628701
 31
0.0
  0
LINE
  5
979
330
2
100
AcDbEntity
  8
6-家具-143
 62
   143
100
AcDbLine
 10
747.962663155254
 20
1057.41999628701
 30
0.0
 11
748.3368595580409
 21
1055.08326672992
 31
0.0
  0
LINE
  5
97A
330
2
100
AcDbEntity
  8
6-家具-143
 62
   143
100
AcDbLine
 10
748.3368595580409
 20
1055.08326672992
 30
0.0
 11
748.9917032629323
 21
1053.774698177947
 31
0.0
  0
LINE
  5
97B
330
2
100
AcDbEntity
  8
6-家具-143
 62
   143
100
AcDbLine
 10
750.946295266501
 20
1004.42121737696
 30
0.0
 11
747.2978803400723
 21
1004.876879640494
 31
0.0
  0
LINE
  5
97C
330
2
100
AcDbEntity
  8
6-家具-143
 62
   143
100
AcDbLine
 10
747.2978803400723
 20
1004.876879640494
 30
0.0
 11
742.5093357491146
 21
1007.155190958188
 31
0.0
  0
LINE
  5
97D
330
2
100
AcDbEntity
  8
6-家具-143
 62
   143
100
AcDbLine
 10
742.5093357491146
 20
1007.155190958188
 30
0.0
 11
739.7730245542901
 21
1007.155190958188
 31
0.0
  0
LINE
  5
97E
330
2
100
AcDbEntity
  8
6-家具-143
 62
   143
100
AcDbLine
 10
739.7730245542901
 20
1007.155190958188
 30
0.0
 11
741.3692060846091
 21
1007.610853221722
 31
0.0
  0
LINE
  5
97F
330
2
100
AcDbEntity
  8
6-家具-143
 62
   143
100
AcDbLine
 10
741.3692060846091
 20
1007.610853221722
 30
0.0
 11
739.5449986213891
 21
1015.584942833602
 31
0.0
  0
LINE
  5
980
330
2
100
AcDbEntity
  8
6-家具-143
 62
   143
100
AcDbLine
 10
739.5449986213891
 20
1015.584942833602
 30
0.0
 11
742.0532838833126
 21
1013.990124911221
 31
0.0
  0
LINE
  5
981
330
2
100
AcDbEntity
  8
6-家具-143
 62
   143
100
AcDbLine
 10
765.9960068380648
 20
985.739064571972
 30
0.0
 11
762.3475919116245
 21
984.827740044904
 31
0.0
  0
LINE
  5
982
330
2
100
AcDbEntity
  8
6-家具-143
 62
   143
100
AcDbLine
 10
762.3475919116245
 20
984.827740044904
 30
0.0
 11
757.7870732535799
 21
985.5112334402171
 31
0.0
  0
LINE
  5
983
330
2
100
AcDbEntity
  8
6-家具-143
 62
   143
100
AcDbLine
 10
750.4586700446627
 20
1003.187424281717
 30
0.0
 11
751.3672656919066
 21
1003.317112773087
 31
0.0
  0
LINE
  5
984
330
2
100
AcDbEntity
  8
6-家具-143
 62
   143
100
AcDbLine
 10
751.3672656919066
 20
1003.317112773087
 30
0.0
 11
752.275861339162
 21
1005.521817126533
 31
0.0
  0
LINE
  5
985
330
2
100
AcDbEntity
  8
6-家具-143
 62
   143
100
AcDbLine
 10
752.275861339162
 20
1005.521817126533
 30
0.0
 11
753.5738551209521
 21
1006.948390531715
 31
0.0
  0
LINE
  5
986
330
2
100
AcDbEntity
  8
6-家具-143
 62
   143
100
AcDbLine
 10
753.5738551209521
 20
1006.948390531715
 30
0.0
 11
754.7420495245678
 21
1006.948390531715
 31
0.0
  0
LINE
  5
987
330
2
100
AcDbEntity
  8
6-家具-143
 62
   143
100
AcDbLine
 10
754.7420495245678
 20
1006.948390531715
 30
0.0
 11
756.5592408190671
 21
1007.337456005847
 31
0.0
  0
LINE
  5
988
330
2
100
AcDbEntity
  8
6-家具-143
 62
   143
100
AcDbLine
 10
756.5592408190671
 20
1007.337456005847
 30
0.0
 11
757.0784383317878
 21
1006.42963656619
 31
0.0
  0
LINE
  5
989
330
2
100
AcDbEntity
  8
6-家具-143
 62
   143
100
AcDbLine
 10
757.0784383317878
 20
1006.42963656619
 30
0.0
 11
756.6890401972529
 21
1005.392128635163
 31
0.0
  0
LINE
  5
98A
330
2
100
AcDbEntity
  8
6-家具-143
 62
   143
100
AcDbLine
 10
756.6890401972529
 20
1005.392128635163
 30
0.0
 11
755.2612470372769
 21
1004.743686178269
 31
0.0
  0
LINE
  5
98B
330
2
100
AcDbEntity
  8
6-家具-143
 62
   143
100
AcDbLine
 10
755.2612470372769
 20
1004.743686178269
 30
0.0
 11
754.3526513900332
 21
1003.576489755849
 31
0.0
  0
LINE
  5
98C
330
2
100
AcDbEntity
  8
6-家具-143
 62
   143
100
AcDbLine
 10
754.3526513900332
 20
1003.576489755849
 30
0.0
 11
755.910243928172
 21
1001.890539367928
 31
0.0
  0
LINE
  5
98D
330
2
100
AcDbEntity
  8
6-家具-143
 62
   143
100
AcDbLine
 10
755.910243928172
 20
1001.890539367928
 30
0.0
 11
759.1552283826474
 21
999.945211997244
 31
0.0
  0
LINE
  5
98E
330
2
100
AcDbEntity
  8
6-家具-143
 62
   143
100
AcDbLine
 10
759.1552283826474
 20
999.945211997244
 30
0.0
 11
759.4148271390077
 21
998.518638592086
 31
0.0
  0
LINE
  5
98F
330
2
100
AcDbEntity
  8
6-家具-143
 62
   143
100
AcDbLine
 10
759.4148271390077
 20
998.518638592086
 30
0.0
 11
758.1168333572176
 21
998.259261609323
 31
0.0
  0
LINE
  5
990
330
2
100
AcDbEntity
  8
6-家具-143
 62
   143
100
AcDbLine
 10
758.1168333572176
 20
998.259261609323
 30
0.0
 11
760.0638240299026
 21
996.3139342386389
 31
0.0
  0
LINE
  5
991
330
2
100
AcDbEntity
  8
6-家具-143
 62
   143
100
AcDbLine
 10
760.0638240299026
 20
996.3139342386389
 30
0.0
 11
759.9340246517286
 21
995.5358032903751
 31
0.0
  0
LINE
  5
992
330
2
100
AcDbEntity
  8
6-家具-143
 62
   143
100
AcDbLine
 10
759.9340246517286
 20
995.5358032903751
 30
0.0
 11
759.2850277608334
 21
995.0170493248499
 31
0.0
  0
LINE
  5
993
330
2
100
AcDbEntity
  8
6-家具-143
 62
   143
100
AcDbLine
 10
759.2850277608334
 20
995.0170493248499
 30
0.0
 11
759.9340246517286
 21
993.979541393824
 31
0.0
  0
LINE
  5
994
330
2
100
AcDbEntity
  8
6-家具-143
 62
   143
100
AcDbLine
 10
759.9340246517286
 20
993.979541393824
 30
0.0
 11
759.1552283826474
 21
993.20141044556
 31
0.0
  0
LINE
  5
995
330
2
100
AcDbEntity
  8
6-家具-143
 62
   143
100
AcDbLine
 10
759.1552283826474
 20
993.20141044556
 30
0.0
 11
759.4148271390077
 21
991.7748370404011
 31
0.0
  0
LINE
  5
996
330
2
100
AcDbEntity
  8
6-家具-143
 62
   143
100
AcDbLine
 10
759.4148271390077
 20
991.7748370404011
 30
0.0
 11
758.7658302481128
 21
990.867017600744
 31
0.0
  0
LINE
  5
997
330
2
100
AcDbEntity
  8
6-家具-143
 62
   143
100
AcDbLine
 10
758.7658302481128
 20
990.867017600744
 30
0.0
 11
757.0784383317878
 21
991.3857715662452
 31
0.0
  0
LINE
  5
998
330
2
100
AcDbEntity
  8
6-家具-143
 62
   143
100
AcDbLine
 10
757.0784383317878
 20
991.3857715662452
 30
0.0
 11
754.2228520118473
 21
993.7201644110851
 31
0.0
  0
LINE
  5
999
330
2
100
AcDbEntity
  8
6-家具-143
 62
   143
100
AcDbLine
 10
754.2228520118473
 20
993.7201644110851
 30
0.0
 11
752.5354600955223
 21
996.3139342386389
 31
0.0
  0
LINE
  5
99A
330
2
100
AcDbEntity
  8
6-家具-143
 62
   143
100
AcDbLine
 10
752.5354600955223
 20
996.3139342386389
 30
0.0
 11
750.4586700446627
 21
997.7405076438211
 31
0.0
  0
LINE
  5
99B
330
2
100
AcDbEntity
  8
6-家具-143
 62
   143
100
AcDbLine
 10
750.4586700446627
 20
997.7405076438211
 30
0.0
 11
748.3818799937914
 21
997.2217536782959
 31
0.0
  0
LINE
  5
99C
330
2
100
AcDbEntity
  8
6-家具-143
 62
   143
100
AcDbLine
 10
749.8061656019955
 20
995.763634369767
 30
0.0
 11
747.7539322058742
 21
996.9027900286141
 31
0.0
  0
LINE
  5
99D
330
2
100
AcDbEntity
  8
6-家具-143
 62
   143
100
AcDbLine
 10
747.7539322058742
 20
996.9027900286141
 30
0.0
 11
746.8418284742584
 21
1000.092425873375
 31
0.0
  0
LINE
  5
99E
330
2
100
AcDbEntity
  8
6-家具-143
 62
   143
100
AcDbLine
 10
746.8418284742584
 20
1000.092425873375
 30
0.0
 11
747.5259062729733
 21
1003.054230586358
 31
0.0
  0
LINE
  5
99F
330
2
100
AcDbEntity
  8
6-家具-143
 62
   143
100
AcDbLine
 10
747.5259062729733
 20
1003.054230586358
 30
0.0
 11
749.5781396690945
 21
1004.193386245205
 31
0.0
  0
LINE
  5
9A0
330
2
100
AcDbEntity
  8
6-家具-143
 62
   143
100
AcDbLine
 10
749.5781396690945
 20
1004.193386245205
 30
0.0
 11
750.946295266501
 21
1004.42121737696
 31
0.0
  0
LINE
  5
9A1
330
2
100
AcDbEntity
  8
6-家具-143
 62
   143
100
AcDbLine
 10
758.5897404083358
 20
1033.288160915475
 30
0.0
 11
759.36130158037
 21
1024.422791586758
 31
0.0
  0
LINE
  5
9A2
330
2
100
AcDbEntity
  8
6-家具-143
 62
   143
100
AcDbLine
 10
759.36130158037
 20
1024.422791586758
 30
0.0
 11
758.7826307013471
 21
1012.666540691641
 31
0.0
  0
LINE
  5
9A3
330
2
100
AcDbEntity
  8
6-家具-143
 62
   143
100
AcDbLine
 10
758.7826307013471
 20
1012.666540691641
 30
0.0
 11
758.5897404083358
 21
1007.462954245171
 31
0.0
  0
LINE
  5
9A4
330
2
100
AcDbEntity
  8
6-家具-143
 62
   143
100
AcDbLine
 10
758.5897404083358
 20
1007.462954245171
 30
0.0
 11
757.4323993716578
 21
1002.066642702849
 31
0.0
  0
LINE
  5
9A5
330
2
100
AcDbEntity
  8
6-家具-143
 62
   143
100
AcDbLine
 10
745.2456469439506
 20
1034.494926770369
 30
0.0
 11
745.9297247426539
 21
1030.621797530318
 31
0.0
  0
LINE
  5
9A6
330
2
100
AcDbEntity
  8
6-家具-143
 62
   143
100
AcDbLine
 10
745.9297247426539
 20
1030.621797530318
 30
0.0
 11
748.8940618703794
 21
1029.026979607938
 31
0.0
  0
LINE
  5
9A7
330
2
100
AcDbEntity
  8
6-家具-143
 62
   143
100
AcDbLine
 10
748.8940618703794
 20
1029.026979607938
 30
0.0
 11
746.1577506755554
 21
1027.887823949091
 31
0.0
  0
LINE
  5
9A8
330
2
100
AcDbEntity
  8
6-家具-143
 62
   143
100
AcDbLine
 10
746.1577506755554
 20
1027.887823949091
 30
0.0
 11
748.8940618703794
 21
1024.470356972574
 31
0.0
  0
LINE
  5
9A9
330
2
100
AcDbEntity
  8
6-家具-143
 62
   143
100
AcDbLine
 10
748.8940618703794
 20
1024.470356972574
 30
0.0
 11
750.7182693335998
 21
1017.179760755983
 31
0.0
  0
LINE
  5
9AA
330
2
100
AcDbEntity
  8
6-家具-143
 62
   143
100
AcDbLine
 10
750.7182693335998
 20
1017.179760755983
 30
0.0
 11
752.3144508639191
 21
1007.383022089943
 31
0.0
  0
LINE
  5
9AB
330
2
100
AcDbEntity
  8
6-家具-143
 62
   143
100
AcDbLine
 10
749.1220878032923
 20
1036.317575824529
 30
0.0
 11
752.9985286626224
 21
1028.343486212625
 31
0.0
  0
LINE
  5
9AC
330
2
100
AcDbEntity
  8
6-家具-143
 62
   143
100
AcDbLine
 10
752.9985286626224
 20
1028.343486212625
 30
0.0
 11
755.9628657903594
 21
1021.508552259591
 31
0.0
  0
LINE
  5
9AD
330
2
100
AcDbEntity
  8
6-家具-143
 62
   143
100
AcDbLine
 10
755.9628657903594
 20
1021.508552259591
 30
0.0
 11
756.6469435890626
 21
1012.623138120619
 31
0.0
  0
LINE
  5
9AE
330
2
100
AcDbEntity
  8
6-家具-143
 62
   143
100
AcDbLine
 10
756.6469435890626
 20
1012.623138120619
 30
0.0
 11
756.8749695219638
 21
1007.8386843535
 31
0.0
  0
LINE
  5
9AF
330
2
100
AcDbEntity
  8
6-家具-143
 62
   143
100
AcDbLine
 10
766.224032770966
 20
1036.545406956284
 30
0.0
 11
768.5042920999884
 21
1033.811433375056
 31
0.0
  0
LINE
  5
9B0
330
2
100
AcDbEntity
  8
6-家具-143
 62
   143
100
AcDbLine
 10
768.5042920999884
 20
1033.811433375056
 30
0.0
 11
769.1883698986917
 21
1027.204330553778
 31
0.0
  0
LINE
  5
9B1
330
2
100
AcDbEntity
  8
6-家具-143
 62
   143
100
AcDbLine
 10
769.1883698986917
 20
1027.204330553778
 30
0.0
 11
768.7323180328895
 21
1016.040605097136
 31
0.0
  0
LINE
  5
9B2
330
2
100
AcDbEntity
  8
6-家具-143
 62
   143
100
AcDbLine
 10
768.7323180328895
 20
1016.040605097136
 30
0.0
 11
766.452058703867
 21
1000.092425873375
 31
0.0
  0
LINE
  5
9B3
330
2
100
AcDbEntity
  8
6-家具-143
 62
   143
100
AcDbLine
 10
761.4354881800203
 20
1034.039264506835
 30
0.0
 11
764.1717993748447
 21
1025.153850367887
 31
0.0
  0
LINE
  5
9B4
330
2
100
AcDbEntity
  8
6-家具-143
 62
   143
100
AcDbLine
 10
764.1717993748447
 20
1025.153850367887
 30
0.0
 11
765.3119290393501
 21
1010.344826802949
 31
0.0
  0
LINE
  5
9B5
330
2
100
AcDbEntity
  8
6-家具-143
 62
   143
100
AcDbLine
 10
765.3119290393501
 20
1010.344826802949
 30
0.0
 11
765.9960068380648
 21
997.3584522921482
 31
0.0
  0
LINE
  5
9B6
330
2
100
AcDbEntity
  8
6-家具-143
 62
   143
100
AcDbLine
 10
765.9960068380648
 20
997.3584522921482
 30
0.0
 11
766.9081105696692
 21
992.1183362614719
 31
0.0
  0
LINE
  5
9B7
330
2
100
AcDbEntity
  8
6-家具-143
 62
   143
100
AcDbLine
 10
766.9081105696692
 20
992.1183362614719
 30
0.0
 11
761.8915400458223
 21
986.8782202308191
 31
0.0
  0
LINE
  5
9B8
330
2
100
AcDbEntity
  8
6-家具-143
 62
   143
100
AcDbLine
 10
761.8915400458223
 20
986.8782202308191
 30
0.0
 11
758.243125119382
 21
990.7513494708691
 31
0.0
  0
LINE
  5
9B9
330
2
100
AcDbEntity
  8
6-家具-143
 62
   143
100
AcDbLine
 10
771.2406032948129
 20
1034.267095638614
 30
0.0
 11
774.2049404225501
 21
1030.849628662074
 31
0.0
  0
LINE
  5
9BA
330
2
100
AcDbEntity
  8
6-家具-143
 62
   143
100
AcDbLine
 10
774.2049404225501
 20
1030.849628662074
 30
0.0
 11
771.6966551606267
 21
1029.026979607938
 31
0.0
  0
LINE
  5
9BB
330
2
100
AcDbEntity
  8
6-家具-143
 62
   143
100
AcDbLine
 10
771.6966551606267
 20
1029.026979607938
 30
0.0
 11
774.8890182212535
 21
1026.748668290244
 31
0.0
  0
LINE
  5
9BC
330
2
100
AcDbEntity
  8
6-家具-143
 62
   143
100
AcDbLine
 10
774.8890182212535
 20
1026.748668290244
 30
0.0
 11
772.38073295933
 21
1019.685903205432
 31
0.0
  0
LINE
  5
9BD
330
2
100
AcDbEntity
  8
6-家具-143
 62
   143
100
AcDbLine
 10
772.38073295933
 20
1019.685903205432
 30
0.0
 11
768.9603439657905
 21
1007.155190958188
 31
0.0
  0
LINE
  5
9BE
330
2
100
AcDbEntity
  8
6-家具-143
 62
   143
100
AcDbLine
 10
768.9603439657905
 20
1007.155190958188
 30
0.0
 11
766.9081105696692
 21
997.3584522921482
 31
0.0
  0
LINE
  5
9BF
330
2
100
AcDbEntity
  8
6-家具-143
 62
   143
100
AcDbLine
 10
766.9081105696692
 20
997.3584522921482
 30
0.0
 11
766.452058703867
 21
995.0801409744782
 31
0.0
  0
LINE
  5
9C0
330
2
100
AcDbEntity
  8
6-家具-143
 62
   143
100
AcDbLine
 10
765.3119290393501
 20
1037.684562615131
 30
0.0
 11
770.3284995632087
 21
1034.722757902148
 31
0.0
  0
LINE
  5
9C1
330
2
100
AcDbEntity
  8
6-家具-143
 62
   143
100
AcDbLine
 10
770.3284995632087
 20
1034.722757902148
 30
0.0
 11
775.1170441541545
 21
1032.672277716233
 31
0.0
  0
LINE
  5
9C2
330
2
100
AcDbEntity
  8
6-家具-143
 62
   143
100
AcDbLine
 10
775.1170441541545
 20
1032.672277716233
 30
0.0
 11
777.6253294160781
 21
1030.849628662074
 31
0.0
  0
LINE
  5
9C3
330
2
100
AcDbEntity
  8
6-家具-143
 62
   143
100
AcDbLine
 10
777.6253294160781
 20
1030.849628662074
 30
0.0
 11
779.6775628121992
 21
1027.887823949091
 31
0.0
  0
LINE
  5
9C4
330
2
100
AcDbEntity
  8
6-家具-143
 62
   143
100
AcDbLine
 10
779.6775628121992
 20
1027.887823949091
 30
0.0
 11
781.5017702754192
 21
1022.192045654881
 31
0.0
  0
LINE
  5
9C5
330
2
100
AcDbEntity
  8
6-家具-143
 62
   143
100
AcDbLine
 10
781.5017702754192
 20
1022.192045654881
 30
0.0
 11
780.361640610914
 21
1011.256151330017
 31
0.0
  0
LINE
  5
9C6
330
2
100
AcDbEntity
  8
6-家具-143
 62
   143
100
AcDbLine
 10
780.361640610914
 20
1011.256151330017
 30
0.0
 11
781.0457184096171
 21
1003.282061718113
 31
0.0
  0
LINE
  5
9C7
330
2
100
AcDbEntity
  8
6-家具-143
 62
   143
100
AcDbLine
 10
781.0457184096171
 20
1003.282061718113
 30
0.0
 11
780.8176924767162
 21
1000.775919268665
 31
0.0
  0
LINE
  5
9C8
330
2
100
AcDbEntity
  8
6-家具-143
 62
   143
100
AcDbLine
 10
780.8176924767162
 20
1000.775919268665
 30
0.0
 11
776.9412516173749
 21
978.676299487159
 31
0.0
  0
LINE
  5
9C9
330
2
100
AcDbEntity
  8
6-家具-143
 62
   143
100
AcDbLine
 10
776.9412516173749
 20
978.676299487159
 30
0.0
 11
776.0291478857703
 21
978.2206372236256
 31
0.0
  0
LINE
  5
9CA
330
2
100
AcDbEntity
  8
6-家具-143
 62
   143
100
AcDbLine
 10
776.0291478857703
 20
978.2206372236256
 30
0.0
 11
775.5730960199566
 21
974.3475079835516
 31
0.0
  0
LINE
  5
9CB
330
2
100
AcDbEntity
  8
6-家具-143
 62
   143
100
AcDbLine
 10
775.5730960199566
 20
974.3475079835516
 30
0.0
 11
774.8890182212535
 21
974.3475079835516
 31
0.0
  0
LINE
  5
9CC
330
2
100
AcDbEntity
  8
6-家具-143
 62
   143
100
AcDbLine
 10
774.8890182212535
 20
974.3475079835516
 30
0.0
 11
774.2049404225501
 21
974.3475079835516
 31
0.0
  0
LINE
  5
9CD
330
2
100
AcDbEntity
  8
6-家具-143
 62
   143
100
AcDbLine
 10
748.6660359374787
 20
1037.456731483352
 30
0.0
 11
744.5615691452359
 21
1035.178420165682
 31
0.0
  0
LINE
  5
9CE
330
2
100
AcDbEntity
  8
6-家具-143
 62
   143
100
AcDbLine
 10
744.5615691452359
 20
1035.178420165682
 30
0.0
 11
738.6328948897729
 21
1033.127939979767
 31
0.0
  0
LINE
  5
9CF
330
2
100
AcDbEntity
  8
6-家具-143
 62
   143
100
AcDbLine
 10
738.6328948897729
 20
1033.127939979767
 30
0.0
 11
733.8443502988273
 21
1031.533122057386
 31
0.0
  0
LINE
  5
9D0
330
2
100
AcDbEntity
  8
6-家具-143
 62
   143
100
AcDbLine
 10
733.8443502988273
 20
1031.533122057386
 30
0.0
 11
730.8800131711018
 21
1026.976499422023
 31
0.0
  0
LINE
  5
9D1
330
2
100
AcDbEntity
  8
6-家具-143
 62
   143
100
AcDbLine
 10
730.8800131711018
 20
1026.976499422023
 30
0.0
 11
729.5118575736837
 21
1016.49626736067
 31
0.0
  0
LINE
  5
9D2
330
2
100
AcDbEntity
  8
6-家具-143
 62
   143
100
AcDbLine
 10
729.5118575736837
 20
1016.49626736067
 30
0.0
 11
729.9679094394857
 21
1004.42121737696
 31
0.0
  0
LINE
  5
9D3
330
2
100
AcDbEntity
  8
6-家具-143
 62
   143
100
AcDbLine
 10
729.9679094394857
 20
1004.42121737696
 30
0.0
 11
732.9322465672229
 21
999.636763609841
 31
0.0
  0
LINE
  5
9D4
330
2
100
AcDbEntity
  8
6-家具-143
 62
   143
100
AcDbLine
 10
732.9322465672229
 20
999.636763609841
 30
0.0
 11
736.8086874265647
 21
996.2192966333009
 31
0.0
  0
LINE
  5
9D5
330
2
100
AcDbEntity
  8
6-家具-143
 62
   143
100
AcDbLine
 10
736.8086874265647
 20
996.2192966333009
 30
0.0
 11
739.7730245542901
 21
993.9409853156313
 31
0.0
  0
LINE
  5
9D6
330
2
100
AcDbEntity
  8
6-家具-143
 62
   143
100
AcDbLine
 10
739.7730245542901
 20
993.9409853156313
 30
0.0
 11
745.701698809753
 21
993.9409853156313
 31
0.0
  0
LINE
  5
9D7
330
2
100
AcDbEntity
  8
6-家具-143
 62
   143
100
AcDbLine
 10
745.701698809753
 20
993.9409853156313
 30
0.0
 11
749.1220878032923
 21
994.1688164473859
 31
0.0
  0
LINE
  5
9D8
330
2
100
AcDbEntity
  8
6-家具-143
 62
   143
100
AcDbLine
 10
749.1220878032923
 20
994.1688164473859
 30
0.0
 11
751.6303730652159
 21
995.535803238012
 31
0.0
  0
LINE
  5
9D9
330
2
100
AcDbEntity
  8
6-家具-143
 62
   143
100
AcDbLine
 10
774.7311537641291
 20
974.0075137215091
 30
0.0
 11
776.1589469241049
 21
970.7653014370363
 31
0.0
  0
LINE
  5
9DA
330
2
100
AcDbEntity
  8
6-家具-143
 62
   143
100
AcDbLine
 10
776.1589469241049
 20
970.7653014370363
 30
0.0
 11
776.9377431931745
 21
967.2637121698009
 31
0.0
  0
LINE
  5
9DB
330
2
100
AcDbEntity
  8
6-家具-143
 62
   143
100
AcDbLine
 10
773.748888556748
 20
965.6899249763583
 30
0.0
 11
774.6609922883521
 21
974.57533911533
 31
0.0
  0
LINE
  5
9DC
330
2
100
AcDbEntity
  8
6-家具-143
 62
   143
100
AcDbLine
 10
774.6609922883521
 20
974.57533911533
 30
0.0
 11
774.6609922883521
 21
981.638104200142
 31
0.0
  0
LINE
  5
9DD
330
2
100
AcDbEntity
  8
6-家具-143
 62
   143
100
AcDbLine
 10
774.6609922883521
 20
981.638104200142
 30
0.0
 11
775.3450700870555
 21
988.4730381531991
 31
0.0
  0
LINE
  5
9DE
330
2
100
AcDbEntity
  8
6-家具-143
 62
   143
100
AcDbLine
 10
775.3450700870555
 20
988.4730381531991
 30
0.0
 11
775.3450700870555
 21
994.1688164473859
 31
0.0
  0
LINE
  5
9DF
330
2
100
AcDbEntity
  8
6-家具-143
 62
   143
100
AcDbLine
 10
775.3450700870555
 20
994.1688164473859
 30
0.0
 11
775.3450700870555
 21
1000.320257005131
 31
0.0
  0
LINE
  5
9E0
330
2
100
AcDbEntity
  8
6-家具-143
 62
   143
100
AcDbLine
 10
775.3450700870555
 20
1000.320257005131
 30
0.0
 11
774.8890182212535
 21
1010.800489066483
 31
0.0
  0
LINE
  5
9E1
330
2
100
AcDbEntity
  8
6-家具-143
 62
   143
100
AcDbLine
 10
774.8890182212535
 20
1010.800489066483
 30
0.0
 11
777.1692775502757
 21
1017.635423019517
 31
0.0
  0
LINE
  5
9E2
330
2
100
AcDbEntity
  8
6-家具-143
 62
   143
100
AcDbLine
 10
765.3119290393501
 20
990.295687207336
 30
0.0
 11
766.452058703867
 21
985.5112334402171
 31
0.0
  0
LINE
  5
9E3
330
2
100
AcDbEntity
  8
6-家具-143
 62
   143
100
AcDbLine
 10
766.452058703867
 20
985.5112334402171
 30
0.0
 11
767.3641624354713
 21
982.0937664636758
 31
0.0
  0
LINE
  5
9E4
330
2
100
AcDbEntity
  8
6-家具-143
 62
   143
100
AcDbLine
 10
767.3641624354713
 20
982.0937664636758
 30
0.0
 11
767.3641624354713
 21
975.7144947741766
 31
0.0
  0
LINE
  5
9E5
330
2
100
AcDbEntity
  8
6-家具-143
 62
   143
100
AcDbLine
 10
767.3641624354713
 20
975.7144947741766
 30
0.0
 11
769.6444217645052
 21
971.3857032705687
 31
0.0
  0
LINE
  5
9E6
330
2
100
AcDbEntity
  8
6-家具-143
 62
   143
100
AcDbLine
 10
769.6444217645052
 20
971.3857032705687
 30
0.0
 11
772.1527070264288
 21
968.6517296893642
 31
0.0
  0
LINE
  5
9E7
330
2
100
AcDbEntity
  8
6-家具-143
 62
   143
100
AcDbLine
 10
772.1527070264288
 20
968.6517296893642
 30
0.0
 11
773.9769144896491
 21
965.2342627128243
 31
0.0
  0
LINE
  5
9E8
330
2
100
AcDbEntity
  8
6-家具-143
 62
   143
100
AcDbLine
 10
773.9769144896491
 20
965.2342627128243
 30
0.0
 11
774.4329663554514
 21
962.2724579998415
 31
0.0
  0
LINE
  5
9E9
330
2
100
AcDbEntity
  8
6-家具-143
 62
   143
100
AcDbLine
 10
747.5259062729733
 20
964.7786004492902
 30
0.0
 11
752.9985286626224
 21
971.1578721388134
 31
0.0
  0
LINE
  5
9EA
330
2
100
AcDbEntity
  8
6-家具-143
 62
   143
100
AcDbLine
 10
752.9985286626224
 20
971.1578721388134
 30
0.0
 11
757.3310213877777
 21
977.7649749600916
 31
0.0
  0
LINE
  5
9EB
330
2
100
AcDbEntity
  8
6-家具-143
 62
   143
100
AcDbLine
 10
757.3310213877777
 20
977.7649749600916
 30
0.0
 11
757.5590473206787
 21
983.9164155178359
 31
0.0
  0
LINE
  5
9EC
330
2
100
AcDbEntity
  8
6-家具-143
 62
   143
100
AcDbLine
 10
757.5590473206787
 20
983.9164155178359
 30
0.0
 11
757.102995454865
 21
990.5235183391139
 31
0.0
  0
LINE
  5
9ED
330
2
100
AcDbEntity
  8
6-家具-143
 62
   143
100
AcDbLine
 10
736.5806614936518
 20
995.763634369767
 30
0.0
 11
736.8086874265647
 21
992.801829656784
 31
0.0
  0
LINE
  5
9EE
330
2
100
AcDbEntity
  8
6-家具-143
 62
   143
100
AcDbLine
 10
736.8086874265647
 20
992.801829656784
 30
0.0
 11
737.2647392923668
 21
984.827740044904
 31
0.0
  0
VIEWPORT
  5
DA
102
{ACAD_XDICTIONARY
360
9F7
102
}
330
C
100
AcDbEntity
 67
     1
  8
0
100
AcDbViewport
 10
420.5071835950612
 20
297.0009369707932
 30
0.0
 40
848.880193293653
 41
633.6711302051212
 68
     1
 69
     1
 12
420.5071835950612
 22
297.0009369707932
 13
0.0
 23
0.0
 14
10.0
 24
10.0
 15
10.0
 25
10.0
 16
0.0
 26
0.0
 36
1.0
 17
0.0
 27
0.0
 37
0.0
 42
50.0
 43
0.0
 44
0.0
 45
633.6711302051212
 50
0.0
 51
0.0
 72
  1000
 90
    32864
  1

281
     0
 71
     1
 74
     0
110
0.0
120
0.0
130
0.0
111
1.0
121
0.0
131
0.0
112
0.0
122
1.0
132
0.0
 79
     0
146
0.0
  0
ENDSEC
  0
SECTION
  2
OBJECTS
  0
DICTIONARY
  5
7
330
0
100
AcDbDictionary
281
     1
  3
ACAD_COLOR
350
DE
  3
ACAD_GROUP
350
20
  3
ACAD_LAYOUT
350
B
  3
ACAD_MATERIAL
350
DD
  3
ACAD_MLINESTYLE
350
21
  3
ACAD_PLOTSETTINGS
350
22
  3
ACAD_PLOTSTYLENAME
350
6
  3
ACDBHEADERROUNDTRIPXREC
350
9F0
  3
AcDbVariableDictionary
350
115
  0
DICTIONARY
  5
1A3
330
10
100
AcDbDictionary
280
     1
281
     1
  3
ACAD_LAYERSTATES
360
1A4
  0
DICTIONARY
  5
9F7
330
DA
100
AcDbDictionary
280
     1
281
     1
  3
ACAD_XREC_ROUNDTRIP
360
9F8
  0
DICTIONARY
  5
DE
102
{ACAD_REACTORS
330
7
102
}
330
7
100
AcDbDictionary
281
     1
  0
DICTIONARY
  5
20
102
{ACAD_REACTORS
330
7
102
}
330
7
100
AcDbDictionary
281
     1
  0
DICTIONARY
  5
B
102
{ACAD_REACTORS
330
7
102
}
330
7
100
AcDbDictionary
281
     1
  3
JIS A1 Title Block
350
F
  3
Model
350
A
  0
DICTIONARY
  5
DD
102
{ACAD_REACTORS
330
7
102
}
330
7
100
AcDbDictionary
281
     1
  0
DICTIONARY
  5
21
102
{ACAD_REACTORS
330
7
102
}
330
7
100
AcDbDictionary
281
     1
  3
Standard
350
23
  0
DICTIONARY
  5
22
102
{ACAD_REACTORS
330
7
102
}
330
7
100
AcDbDictionary
281
     1
  0
ACDBDICTIONARYWDFLT
  5
6
102
{ACAD_REACTORS
330
7
102
}
330
7
100
AcDbDictionary
281
     1
  3
Normal
350
5
100
AcDbDictionaryWithDefault
340
5
  0
DICTIONARY
  5
9F0
102
{ACAD_REACTORS
330
7
102
}
330
7
100
AcDbDictionary
281
     1
  3
COLORDICT
350
9F2
  3
MATERIALDICT
350
9F1
  0
DICTIONARY
  5
115
102
{ACAD_REACTORS
330
7
102
}
330
7
100
AcDbDictionary
281
     1
  3
DIMASSOC
350
116
  3
PROJECTNAME
350
117
  0
DICTIONARY
  5
1A4
102
{ACAD_REACTORS
330
1A3
102
}
330
1A3
100
AcDbDictionary
281
     1
  0
XRECORD
  5
9F8
102
{ACAD_REACTORS
330
9F7
102
}
330
9F7
100
AcDbXrecord
280
     1
102
SHADEPLOT
 70
     0
  0
LAYOUT
  5
F
102
{ACAD_XDICTIONARY
360
9F5
102
}
102
{ACAD_REACTORS
330
B
102
}
330
B
100
AcDbPlotSettings
  1

  2
none_device
  4
ISO_A1_(594.00_x_841.00_MM)
  6

 40
7.549999999999998
 41
20.05
 42
7.549999999999998
 43
20.05
 44
594.0
 45
841.0
 46
-7.559999999999997
 47
-20.07
 48
0.0
 49
0.0
140
0.0
141
0.0
142
1.0
143
1.0
 70
   692
 72
     1
 73
     1
 74
     1
  7

 75
    16
147
1.0
148
0.0128164049386896
149
0.0090630292066862
100
AcDbLayout
  1
JIS A1 Title Block
 70
     1
 71
     1
 10
0.0071835950613099
 20
0.0009369707933136
 11
841.0071835950612
 21
594.0009369707931
 12
0.0
 22
0.0
 32
0.0
 14
1.000000000000000E+20
 24
1.000000000000000E+20
 34
1.000000000000000E+20
 15
-1.000000000000000E+20
 25
-1.000000000000000E+20
 35
-1.000000000000000E+20
146
0.0
 13
0.0
 23
0.0
 33
0.0
 16
1.0
 26
0.0
 36
0.0
 17
0.0
 27
1.0
 37
0.0
 76
     0
330
C
331
DA
  0
LAYOUT
  5
A
102
{ACAD_XDICTIONARY
360
9F3
102
}
102
{ACAD_REACTORS
330
B
102
}
330
B
100
AcDbPlotSettings
  1

  2
none_device
  4
ANSI_A_(8.50_x_11.00_Inches)
  6

 40
6.349999904632567
 41
19.04999923706055
 42
6.350006103515625
 43
19.04998779296875
 44
215.8999938964844
 45
279.3999938964844
 46
28.79458090408706
 47
17.57028564415653
 48
0.0
 49
0.0
140
0.0
141
0.0
142
1.0
143
103.6285708313174
 70
 11956
 72
     0
 73
     1
 74
     1
  7

 75
     0
147
0.0096498484151418
148
1.303736702137707
149
0.9208318680958655
100
AcDbLayout
  1
Model
 70
     1
 71
     0
 10
0.0
 20
0.0
 11
12.0
 21
9.0
 12
0.0
 22
0.0
 32
0.0
 14
0.0
 24
0.0
 34
0.0
 15
0.0
 25
0.0
 35
0.0
146
0.0
 13
0.0
 23
0.0
 33
0.0
 16
1.0
 26
0.0
 36
0.0
 17
0.0
 27
1.0
 37
0.0
 76
     0
330
2
  0
MLINESTYLE
  5
23
102
{ACAD_REACTORS
330
21
102
}
330
21
100
AcDbMlineStyle
  2
STANDARD
 70
     0
  3

 62
   256
 51
90.0
 52
90.0
 71
     2
 49
0.5
 62
   256
  6
BYLAYER
 49
-0.5
 62
   256
  6
BYLAYER
  0
ACDBPLACEHOLDER
  5
5
102
{ACAD_REACTORS
330
6
102
}
330
6
  0
XRECORD
  5
9F2
102
{ACAD_REACTORS
330
9F0
102
}
330
9F0
100
AcDbXrecord
280
     1
340
DE
  0
XRECORD
  5
9F1
102
{ACAD_REACTORS
330
9F0
102
}
330
9F0
100
AcDbXrecord
280
     1
340
DD
  0
DICTIONARYVAR
  5
116
102
{ACAD_REACTORS
330
115
102
}
330
115
100
DictionaryVariables
280
     0
  1
1
  0
DICTIONARYVAR
  5
117
102
{ACAD_REACTORS
330
115
102
}
330
115
100
DictionaryVariables
280
     0
  1

  0
DICTIONARY
  5
9F5
330
F
100
AcDbDictionary
280
     1
281
     1
  3
ACAD_XREC_ROUNDTRIP
360
9F6
  0
DICTIONARY
  5
9F3
330
A
100
AcDbDictionary
280
     1
281
     1
  3
ACAD_XREC_ROUNDTRIP
360
9F4
  0
XRECORD
  5
9F6
102
{ACAD_REACTORS
330
9F5
102
}
330
9F5
100
AcDbXrecord
280
     1
102
SHADEPLOT
 70
     0
102
SHADEPLOTRESLEVEL
 70
     2
102
SHADEPLOTCUSTOMDPI
 70
   300
  0
XRECORD
  5
9F4
102
{ACAD_REACTORS
330
9F3
102
}
330
9F3
100
AcDbXrecord
280
     1
102
SHADEPLOT
 70
     0
102
SHADEPLOTRESLEVEL
 70
     2
102
SHADEPLOTCUSTOMDPI
 70
   300
  0
ENDSEC
  0
EOF
