  0
SECTION
  2
HEADER
  9
$ACADVER
  1
AC1015
  9
$ACADMAINTVER
 70
    20
  9
$DWGCODEPAGE
  3
ANSI_936
  9
$INSBASE
 10
0.0
 20
0.0
 30
0.0
  9
$EXTMIN
 10
-0.0488001835601608
 20
-0.0366001376705754
 30
-0.0000000000000053
  9
$EXTMAX
 10
1600.04884302707
 20
1200.036632270302
 30
0.0000000000000099
  9
$LIMMIN
 10
0.0
 20
0.0
  9
$LIMMAX
 10
420.0
 20
297.0
  9
$ORTHOMODE
 70
     0
  9
$REGENMODE
 70
     1
  9
$FILLMODE
 70
     1
  9
$QTEXTMODE
 70
     0
  9
$MIRRTEXT
 70
     0
  9
$LTSCALE
 40
1.0
  9
$ATTMODE
 70
     1
  9
$TEXTSIZE
 40
2.5
  9
$TRACEWID
 40
1.0
  9
$TEXTSTYLE
  7
Standard
  9
$CLAYER
  8
0
  9
$CELTYPE
  6
ByLayer
  9
$CECOLOR
 62
   256
  9
$CELTSCALE
 40
1.0
  9
$DISPSILH
 70
     0
  9
$DIMSCALE
 40
1.0
  9
$DIMASZ
 40
2.5
  9
$DIMEXO
 40
1.0
  9
$DIMDLI
 40
7.0
  9
$DIMRND
 40
0.0
  9
$DIMDLE
 40
0.0
  9
$DIMEXE
 40
1.0
  9
$DIMTP
 40
0.0
  9
$DIMTM
 40
0.0
  9
$DIMTXT
 40
2.5
  9
$DIMCEN
 40
0.0
  9
$DIMTSZ
 40
0.0
  9
$DIMTOL
 70
     0
  9
$DIMLIM
 70
     0
  9
$DIMTIH
 70
     0
  9
$DIMTOH
 70
     0
  9
$DIMSE1
 70
     0
  9
$DIMSE2
 70
     0
  9
$DIMTAD
 70
     1
  9
$DIMZIN
 70
     8
  9
$DIMBLK
  1

  9
$DIMASO
 70
     1
  9
$DIMSHO
 70
     1
  9
$DIMPOST
  1

  9
$DIMAPOST
  1

  9
$DIMALT
 70
     0
  9
$DIMALTD
 70
     2
  9
$DIMALTF
 40
0.0394
  9
$DIMLFAC
 40
1.0
  9
$DIMTOFL
 70
     1
  9
$DIMTVP
 40
0.0
  9
$DIMTIX
 70
     1
  9
$DIMSOXD
 70
     1
  9
$DIMSAH
 70
     0
  9
$DIMBLK1
  1

  9
$DIMBLK2
  1

  9
$DIMSTYLE
  2
JIS
  9
$DIMCLRD
 70
     0
  9
$DIMCLRE
 70
     0
  9
$DIMCLRT
 70
     0
  9
$DIMTFAC
 40
1.0
  9
$DIMGAP
 40
0.0
  9
$DIMJUST
 70
     0
  9
$DIMSD1
 70
     0
  9
$DIMSD2
 70
     0
  9
$DIMTOLJ
 70
     1
  9
$DIMTZIN
 70
     0
  9
$DIMALTZ
 70
     0
  9
$DIMALTTZ
 70
     0
  9
$DIMUPT
 70
     0
  9
$DIMDEC
 70
     4
  9
$DIMTDEC
 70
     4
  9
$DIMALTU
 70
     2
  9
$DIMALTTD
 70
     2
  9
$DIMTXSTY
  7
Standard
  9
$DIMAUNIT
 70
     0
  9
$DIMADEC
 70
     0
  9
$DIMALTRND
 40
0.0
  9
$DIMAZIN
 70
     0
  9
$DIMDSEP
 70
    46
  9
$DIMATFIT
 70
     3
  9
$DIMFRAC
 70
     0
  9
$DIMLDRBLK
  1

  9
$DIMLUNIT
 70
     2
  9
$DIMLWD
 70
    -2
  9
$DIMLWE
 70
    -2
  9
$DIMTMOVE
 70
     0
  9
$LUNITS
 70
     2
  9
$LUPREC
 70
     4
  9
$SKETCHINC
 40
1.0
  9
$FILLETRAD
 40
0.0
  9
$AUNITS
 70
     0
  9
$AUPREC
 70
     0
  9
$MENU
  1
.
  9
$ELEVATION
 40
0.0
  9
$PELEVATION
 40
0.0
  9
$THICKNESS
 40
0.0
  9
$LIMCHECK
 70
     0
  9
$CHAMFERA
 40
0.0
  9
$CHAMFERB
 40
0.0
  9
$CHAMFERC
 40
0.0
  9
$CHAMFERD
 40
0.0
  9
$SKPOLY
 70
     0
  9
$TDCREATE
 40
2455955.017649734
  9
$TDUCREATE
 40
2455954.684316401
  9
$TDUPDATE
 40
2456193.628957963
  9
$TDUUPDATE
 40
2456193.295624630
  9
$TDINDWG
 40
0.0567384491
  9
$TDUSRTIMER
 40
0.0567330208
  9
$USRTIMER
 70
     1
  9
$ANGBASE
 50
0.0
  9
$ANGDIR
 70
     0
  9
$PDMODE
 70
     0
  9
$PDSIZE
 40
0.0
  9
$PLINEWID
 40
0.0
  9
$SPLFRAME
 70
     0
  9
$SPLINETYPE
 70
     6
  9
$SPLINESEGS
 70
   100
  9
$HANDSEED
  5
9C1
  9
$SURFTAB1
 70
     6
  9
$SURFTAB2
 70
     6
  9
$SURFTYPE
 70
     6
  9
$SURFU
 70
     6
  9
$SURFV
 70
     6
  9
$UCSBASE
  2

  9
$UCSNAME
  2

  9
$UCSORG
 10
0.0
 20
0.0
 30
0.0
  9
$UCSXDIR
 10
1.0
 20
0.0
 30
0.0
  9
$UCSYDIR
 10
0.0
 20
1.0
 30
0.0
  9
$UCSORTHOREF
  2

  9
$UCSORTHOVIEW
 70
     0
  9
$UCSORGTOP
 10
0.0
 20
0.0
 30
0.0
  9
$UCSORGBOTTOM
 10
0.0
 20
0.0
 30
0.0
  9
$UCSORGLEFT
 10
0.0
 20
0.0
 30
0.0
  9
$UCSORGRIGHT
 10
0.0
 20
0.0
 30
0.0
  9
$UCSORGFRONT
 10
0.0
 20
0.0
 30
0.0
  9
$UCSORGBACK
 10
0.0
 20
0.0
 30
0.0
  9
$PUCSBASE
  2

  9
$PUCSNAME
  2

  9
$PUCSORG
 10
0.0
 20
0.0
 30
0.0
  9
$PUCSXDIR
 10
1.0
 20
0.0
 30
0.0
  9
$PUCSYDIR
 10
0.0
 20
1.0
 30
0.0
  9
$PUCSORTHOREF
  2

  9
$PUCSORTHOVIEW
 70
     0
  9
$PUCSORGTOP
 10
0.0
 20
0.0
 30
0.0
  9
$PUCSORGBOTTOM
 10
0.0
 20
0.0
 30
0.0
  9
$PUCSORGLEFT
 10
0.0
 20
0.0
 30
0.0
  9
$PUCSORGRIGHT
 10
0.0
 20
0.0
 30
0.0
  9
$PUCSORGFRONT
 10
0.0
 20
0.0
 30
0.0
  9
$PUCSORGBACK
 10
0.0
 20
0.0
 30
0.0
  9
$USERI1
 70
     0
  9
$USERI2
 70
     0
  9
$USERI3
 70
     0
  9
$USERI4
 70
     0
  9
$USERI5
 70
     0
  9
$USERR1
 40
0.0
  9
$USERR2
 40
0.0
  9
$USERR3
 40
0.0
  9
$USERR4
 40
0.0
  9
$USERR5
 40
0.0
  9
$WORLDVIEW
 70
     1
  9
$SHADEDGE
 70
     3
  9
$SHADEDIF
 70
    70
  9
$TILEMODE
 70
     1
  9
$MAXACTVP
 70
    64
  9
$PINSBASE
 10
0.0
 20
0.0
 30
0.0
  9
$PLIMCHECK
 70
     0
  9
$PEXTMIN
 10
1.000000000000000E+20
 20
1.000000000000000E+20
 30
1.000000000000000E+20
  9
$PEXTMAX
 10
-1.000000000000000E+20
 20
-1.000000000000000E+20
 30
-1.000000000000000E+20
  9
$PLIMMIN
 10
0.0071835950613099
 20
0.0009369707933136
  9
$PLIMMAX
 10
841.0071835950612
 20
594.0009369707931
  9
$UNITMODE
 70
     0
  9
$VISRETAIN
 70
     1
  9
$PLINEGEN
 70
     0
  9
$PSLTSCALE
 70
     1
  9
$TREEDEPTH
 70
  3020
  9
$CMLSTYLE
  2
Standard
  9
$CMLJUST
 70
     0
  9
$CMLSCALE
 40
20.0
  9
$PROXYGRAPHICS
 70
     1
  9
$MEASUREMENT
 70
     1
  9
$CELWEIGHT
370
    -1
  9
$ENDCAPS
280
     0
  9
$JOINSTYLE
280
     0
  9
$LWDISPLAY
290
     1
  9
$INSUNITS
 70
     4
  9
$HYPERLINKBASE
  1

  9
$STYLESHEET
  1

  9
$XEDIT
290
     1
  9
$CEPSNTYPE
380
     0
  9
$PSTYLEMODE
290
     1
  9
$FINGERPRINTGUID
  2
{048D7354-A980-11D2-9A39-0060089B3A3F}
  9
$VERSIONGUID
  2
{6515EED3-385F-435D-9C80-68A57157B922}
  9
$EXTNAMES
290
     1
  9
$PSVPSCALE
 40
0.0
  9
$OLESTARTUP
290
     0
  0
ENDSEC
  0
SECTION
  2
CLASSES
  0
CLASS
  1
ACDBDICTIONARYWDFLT
  2
AcDbDictionaryWithDefault
  3
ObjectDBX Classes
 90
        0
280
     0
281
     0
  0
CLASS
  1
ACDBPLACEHOLDER
  2
AcDbPlaceHolder
  3
ObjectDBX Classes
 90
        0
280
     0
281
     0
  0
CLASS
  1
LAYOUT
  2
AcDbLayout
  3
ObjectDBX Classes
 90
        0
280
     0
281
     0
  0
CLASS
  1
PLOTSETTINGS
  2
AcDbPlotSettings
  3
ObjectDBX Classes
 90
    32768
280
     0
281
     0
  0
CLASS
  1
DICTIONARYVAR
  2
AcDbDictionaryVar
  3
ObjectDBX Classes
 90
        0
280
     0
281
     0
  0
ENDSEC
  0
SECTION
  2
TABLES
  0
TABLE
  2
VPORT
  5
19
330
0
100
AcDbSymbolTable
 70
     2
  0
VPORT
  5
9B7
330
19
100
AcDbSymbolTableRecord
100
AcDbViewportTableRecord
  2
*Active
 70
     0
 10
0.0
 20
0.0
 11
1.0
 21
1.0
 12
800.000018014065
 22
600.0000197501694
 13
0.0
 23
0.0
 14
10.0
 24
10.0
 15
10.0
 25
10.0
 16
0.0
 26
0.0
 36
1.0
 17
0.0
 27
0.0
 37
0.0
 40
1297.690502646556
 41
2.293805309734513
 42
50.0
 43
0.0
 44
0.0
 50
0.0
 51
0.0
 71
     0
 72
  2000
 73
     1
 74
     3
 75
     0
 76
     0
 77
     0
 78
     0
281
     0
 65
     1
110
0.0
120
0.0
130
0.0
111
1.0
121
0.0
131
0.0
112
0.0
122
1.0
132
0.0
 79
     0
146
0.0
  0
ENDTAB
  0
TABLE
  2
LTYPE
  5
14
330
0
100
AcDbSymbolTable
 70
     1
  0
LTYPE
  5
15
330
14
100
AcDbSymbolTableRecord
100
AcDbLinetypeTableRecord
  2
ByBlock
 70
     0
  3

 72
    65
 73
     0
 40
0.0
  0
LTYPE
  5
16
330
14
100
AcDbSymbolTableRecord
100
AcDbLinetypeTableRecord
  2
ByLayer
 70
     0
  3

 72
    65
 73
     0
 40
0.0
  0
LTYPE
  5
8
330
14
100
AcDbSymbolTableRecord
100
AcDbLinetypeTableRecord
  2
Continuous
 70
     0
  3
Solid line
 72
    65
 73
     0
 40
0.0
  0
ENDTAB
  0
TABLE
  2
LAYER
  5
10
102
{ACAD_XDICTIONARY
360
1A3
102
}
330
0
100
AcDbSymbolTable
 70
     4
  0
LAYER
  5
4
330
10
100
AcDbSymbolTableRecord
100
AcDbLayerTableRecord
  2
0
 70
     0
 62
     7
  6
Continuous
370
    -3
390
5
  0
LAYER
  5
28
330
10
100
AcDbSymbolTableRecord
100
AcDbLayerTableRecord
  2
Object
 70
     0
 62
     7
  6
Continuous
370
    -3
390
5
  0
LAYER
  5
1A2
330
10
100
AcDbSymbolTableRecord
100
AcDbLayerTableRecord
  2
TOPOVERLAY
 70
     0
 62
     2
  6
Continuous
370
    -3
390
5
  0
LAYER
  5
7AE
330
10
100
AcDbSymbolTableRecord
100
AcDbLayerTableRecord
  2
6-家具-143
 70
     0
 62
   143
  6
Continuous
370
    -3
390
5
  0
ENDTAB
  0
TABLE
  2
STYLE
  5
11
330
0
100
AcDbSymbolTable
 70
     2
  0
STYLE
  5
12
330
11
100
AcDbSymbolTableRecord
100
AcDbTextStyleTableRecord
  2
Standard
 70
     0
 40
0.0
 41
1.0
 50
0.0
 71
     0
 42
2.5
  3
txt
  4

  0
STYLE
  5
2E
330
11
100
AcDbSymbolTableRecord
100
AcDbTextStyleTableRecord
  2
Roman
 70
     0
 40
0.0
 41
1.0
 50
0.0
 71
     0
 42
5.0
  3
romans
  4
bigfont
  0
ENDTAB
  0
TABLE
  2
VIEW
  5
17
330
0
100
AcDbSymbolTable
 70
     0
  0
ENDTAB
  0
TABLE
  2
UCS
  5
18
330
0
100
AcDbSymbolTable
 70
     0
  0
ENDTAB
  0
TABLE
  2
APPID
  5
1B
330
0
100
AcDbSymbolTable
 70
     1
  0
APPID
  5
1C
330
1B
100
AcDbSymbolTableRecord
100
AcDbRegAppTableRecord
  2
ACAD
 70
     0
  0
ENDTAB
  0
TABLE
  2
DIMSTYLE
  5
1D
330
0
100
AcDbSymbolTable
 70
     1
100
AcDbDimStyleTable
 71
     1
340
1E
  0
DIMSTYLE
105
1E
330
1D
100
AcDbSymbolTableRecord
100
AcDbDimStyleTableRecord
  2
JIS
 70
     0
 41
2.5
 42
1.0
 43
7.0
 44
1.0
 73
     0
 74
     0
 77
     1
 78
     8
140
2.5
141
0.0
143
0.0394
147
0.0
172
     1
174
     1
175
     1
340
12
  0
ENDTAB
  0
TABLE
  2
BLOCK_RECORD
  5
1
330
0
100
AcDbSymbolTable
 70
     1
  0
BLOCK_RECORD
  5
2
330
1
100
AcDbSymbolTableRecord
100
AcDbBlockTableRecord
  2
*Model_Space
340
A
  0
BLOCK_RECORD
  5
C
330
1
100
AcDbSymbolTableRecord
100
AcDbBlockTableRecord
  2
*Paper_Space
340
F
  0
ENDTAB
  0
ENDSEC
  0
SECTION
  2
BLOCKS
  0
BLOCK
  5
3
330
2
100
AcDbEntity
  8
0
100
AcDbBlockBegin
  2
*Model_Space
 70
     2
 10
0.0
 20
0.0
 30
0.0
  3
*Model_Space
  1

  0
ENDBLK
  5
9
330
2
100
AcDbEntity
  8
0
100
AcDbBlockEnd
  0
BLOCK
  5
D
330
C
100
AcDbEntity
 67
     1
  8
0
100
AcDbBlockBegin
  2
*Paper_Space
 70
     0
 10
0.0
 20
0.0
 30
0.0
  3
*Paper_Space
  1

  0
ENDBLK
  5
E
330
C
100
AcDbEntity
 67
     1
  8
0
100
AcDbBlockEnd
  0
ENDSEC
  0
SECTION
  2
ENTITIES
  0
LINE
  5
14F
330
2
100
AcDbEntity
  8
0
100
AcDbLine
 10
0.0
 20
0.0
 30
0.0
 11
1600.0
 21
0.0
 31
0.0
  0
LINE
  5
150
330
2
100
AcDbEntity
  8
0
100
AcDbLine
 10
1600.0
 20
0.0
 30
0.0
 11
1600.0
 21
1200.0
 31
0.0
  0
LINE
  5
151
330
2
100
AcDbEntity
  8
0
100
AcDbLine
 10
1600.0
 20
1200.0
 30
0.0
 11
0.0
 21
1200.0
 31
0.0
  0
LINE
  5
152
330
2
100
AcDbEntity
  8
0
100
AcDbLine
 10
0.0
 20
1200.0
 30
0.0
 11
0.0
 21
0.0
 31
0.0
  0
LINE
  5
24D
330
2
100
AcDbEntity
  8
0
 62
     5
370
    35
100
AcDbLine
 10
146.8773759648378
 20
134.2453454679304
 30
0.0
 11
146.8773759648378
 21
1100.245345467943
 31
0.0
  0
LINE
  5
24E
330
2
100
AcDbEntity
  8
0
 62
     5
370
    35
100
AcDbLine
 10
146.8773759648378
 20
1100.245345467943
 30
0.0
 11
1462.87737596485
 21
1100.245345467943
 31
0.0
  0
LINE
  5
24F
330
2
100
AcDbEntity
  8
0
 62
     5
370
    35
100
AcDbLine
 10
1462.87737596485
 20
134.2453454679304
 30
0.0
 11
1462.87737596485
 21
1100.245345467943
 31
0.0
  0
LINE
  5
250
330
2
100
AcDbEntity
  8
0
 62
     5
370
    35
100
AcDbLine
 10
146.8773759648378
 20
134.2453454679304
 30
0.0
 11
1462.87737596485
 21
134.2453454679304
 31
0.0
  0
ARC
  5
253
330
2
100
AcDbEntity
  8
0
 62
    56
100
AcDbCircle
 10
401.2681708086422
 20
628.4567916576502
 30
0.0
 40
86.57756336906864
100
AcDbArc
 50
93.76815435825868
 51
266.2318456417413
  0
LINE
  5
254
330
2
100
AcDbEntity
  8
0
 62
    56
100
AcDbLine
 10
470.1374477329405
 20
628.3583971343634
 30
0.0
 11
499.3982512737052
 21
628.3583971343634
 31
0.0
  0
LINE
  5
255
330
2
100
AcDbEntity
  8
0
 62
   250
370
   100
100
AcDbLine
 10
527.8635948504152
 20
628.2835470220474
 30
0.0
 11
587.9718373885777
 21
628.2835470220474
 31
0.0
  0
LINE
  5
256
330
2
100
AcDbEntity
  8
TOPOVERLAY
  6
Continuous
 62
   250
370
   100
100
AcDbLine
 10
541.4356581651294
 20
585.0814711308552
 30
0.0
 11
587.6442963840311
 21
614.4695149158027
 31
0.0
  0
LINE
  5
257
330
2
100
AcDbEntity
  8
0
 62
    56
100
AcDbLine
 10
604.2264970840532
 20
628.4012180692907
 30
0.0
 11
658.7775067137572
 21
628.4012180692907
 31
0.0
  0
CIRCLE
  5
25A
330
2
100
AcDbEntity
  8
0
 62
   252
100
AcDbCircle
 10
849.8347280698894
 20
544.8099052881846
 30
0.0
 40
20.66015533163439
  0
CIRCLE
  5
25B
330
2
100
AcDbEntity
  8
0
 62
   252
100
AcDbCircle
 10
896.2810363508351
 20
544.8099052881846
 30
0.0
 40
20.66015533163439
  0
LINE
  5
25C
330
2
100
AcDbEntity
  8
0
 62
   252
100
AcDbLine
 10
846.0386689126329
 20
572.6575850725935
 30
0.0
 11
846.0386689126329
 21
590.4449980898156
 31
0.0
  0
LINE
  5
25D
330
2
100
AcDbEntity
  8
0
 62
   252
100
AcDbLine
 10
851.7095168752783
 20
569.7441298102651
 30
0.0
 11
851.7095168752783
 21
587.5315428273284
 31
0.0
  0
LINE
  5
25E
330
2
100
AcDbEntity
  8
0
 62
   252
100
AcDbLine
 10
840.3678256780167
 20
583.0846877287699
 30
0.0
 11
859.9858798658585
 21
574.651003384211
 31
0.0
  0
LINE
  5
25F
330
2
100
AcDbEntity
  8
0
 62
   252
100
AcDbLine
 10
891.6408484796201
 20
571.4311248843483
 30
0.0
 11
891.6408484796201
 21
589.2185379015702
 31
0.0
  0
LINE
  5
260
330
2
100
AcDbEntity
  8
0
 62
   252
100
AcDbLine
 10
897.3116964422823
 20
568.5176696219882
 30
0.0
 11
897.3116964422823
 21
586.3050826390831
 31
0.0
  0
LINE
  5
261
330
2
100
AcDbEntity
  8
0
 62
   252
100
AcDbLine
 10
885.9700052450161
 20
581.8582275404926
 30
0.0
 11
905.5880594328653
 21
573.4245431959656
 31
0.0
  0
LINE
  5
262
330
2
100
AcDbEntity
  8
0
 62
   252
100
AcDbLine
 10
811.4020209092316
 20
547.0627865766075
 30
0.0
 11
938.3176685414612
 21
547.0627865766075
 31
0.0
  0
CIRCLE
  5
263
330
2
100
AcDbEntity
  8
0
 62
   252
100
AcDbCircle
 10
846.4638490603672
 20
689.8273729904121
 30
0.0
 40
20.66015533163439
  0
CIRCLE
  5
264
330
2
100
AcDbEntity
  8
0
 62
   252
100
AcDbCircle
 10
892.9101573412921
 20
689.8273729904121
 30
0.0
 40
20.66015533163439
  0
LINE
  5
265
330
2
100
AcDbEntity
  8
0
 62
   252
100
AcDbLine
 10
842.6677899030917
 20
717.6750527748207
 30
0.0
 11
842.6677899030917
 21
735.4624657919162
 31
0.0
  0
LINE
  5
266
330
2
100
AcDbEntity
  8
0
 62
   252
100
AcDbLine
 10
848.3386378657456
 20
714.761597512334
 30
0.0
 11
848.3386378657456
 21
732.549010529556
 31
0.0
  0
LINE
  5
267
330
2
100
AcDbEntity
  8
0
 62
   252
100
AcDbLine
 10
836.9969466684873
 20
728.1021554308705
 30
0.0
 11
856.6150008563175
 21
719.6684710864705
 31
0.0
  0
LINE
  5
268
330
2
100
AcDbEntity
  8
0
 62
   252
100
AcDbLine
 10
888.2699694700912
 20
716.448592586576
 30
0.0
 11
888.2699694700912
 21
734.2360056036708
 31
0.0
  0
LINE
  5
269
330
2
100
AcDbEntity
  8
0
 62
   252
100
AcDbLine
 10
893.9408174327452
 20
713.5351373240884
 30
0.0
 11
893.9408174327452
 21
731.3225503413426
 31
0.0
  0
LINE
  5
26A
330
2
100
AcDbEntity
  8
0
 62
   252
100
AcDbLine
 10
882.5991262354792
 20
726.8756952426248
 30
0.0
 11
902.2171804233362
 21
718.442010898098
 31
0.0
  0
LINE
  5
26B
330
2
100
AcDbEntity
  8
0
 62
   252
100
AcDbLine
 10
808.0311418997078
 20
692.0802542788354
 30
0.0
 11
934.9467895319213
 21
692.0802542788354
 31
0.0
  0
LINE
  5
26C
330
2
100
AcDbEntity
  8
0
 62
    56
100
AcDbLine
 10
294.9873178741801
 20
240.3176229270147
 30
0.0
 11
294.9595074320472
 21
1017.926882565553
 31
0.0
  0
ARC
  5
26E
330
2
100
AcDbEntity
  8
0
 62
    56
100
AcDbCircle
 10
714.0263533355915
 20
629.3287134877487
 30
0.0
 40
86.57756336906864
100
AcDbArc
 50
273.7681543582587
 51
86.23184564174131
  0
LINE
  5
26F
330
2
100
AcDbEntity
  8
0
 62
    56
100
AcDbLine
 10
973.9539700263961
 20
625.1124834942498
 30
0.0
 11
973.9539700263961
 21
501.1746429232616
 31
0.0
  0
LINE
  5
270
330
2
100
AcDbEntity
  8
0
 62
    56
100
AcDbLine
 10
973.9539700263961
 20
501.1746429232616
 30
0.0
 11
906.4579844358259
 21
501.1746429232616
 31
0.0
  0
LINE
  5
271
330
2
100
AcDbEntity
  8
0
 62
    56
100
AcDbLine
 10
906.4579844358259
 20
501.1746429232616
 30
0.0
 11
906.4579844358259
 21
394.2070817623431
 31
0.0
  0
LINE
  5
272
330
2
100
AcDbEntity
  8
0
 62
    56
100
AcDbLine
 10
906.4579844358259
 20
394.2070817623431
 30
0.0
 11
934.4953215517596
 21
394.2070817623431
 31
0.0
  0
LINE
  5
273
330
2
100
AcDbEntity
  8
0
 62
    56
100
AcDbLine
 10
934.4953215517596
 20
380.8960846563837
 30
0.0
 11
934.4953215517596
 21
407.460580247544
 31
0.0
  0
LINE
  5
274
330
2
100
AcDbEntity
  8
0
 62
    56
100
AcDbLine
 10
940.8403907057147
 20
380.8960846563837
 30
0.0
 11
940.8403907057147
 21
407.460580247544
 31
0.0
  0
CIRCLE
  5
275
330
2
100
AcDbEntity
  8
0
 62
   250
370
    30
100
AcDbCircle
 10
1003.517714356422
 20
334.9398966850963
 30
0.0
 40
21.00918010397843
  0
CIRCLE
  5
279
330
2
100
AcDbEntity
  8
0
 62
   250
370
    30
100
AcDbCircle
 10
1003.455272873811
 20
394.3476714354988
 30
0.0
 40
21.00918010397843
  0
CIRCLE
  5
27D
330
2
100
AcDbEntity
  8
0
 62
   250
370
    30
100
AcDbCircle
 10
1003.455272873811
 20
451.0131016931476
 30
0.0
 40
21.00918010397843
  0
LINE
  5
281
330
2
100
AcDbEntity
  8
0
 62
    56
100
AcDbLine
 10
982.4460927698423
 20
394.3476714354988
 30
0.0
 11
940.8403907057147
 21
394.3476714354988
 31
0.0
  0
LINE
  5
282
330
2
100
AcDbEntity
  8
0
 62
    56
100
AcDbLine
 10
1024.464452977806
 20
394.3476714354988
 30
0.0
 11
1039.314395454069
 21
394.3476714354988
 31
0.0
  0
LINE
  5
283
330
2
100
AcDbEntity
  8
0
 62
    56
100
AcDbLine
 10
1039.388990038443
 20
379.3676202292459
 30
0.0
 11
1039.388990038443
 21
409.00459600814
 31
0.0
  0
LINE
  5
284
330
2
100
AcDbEntity
  8
0
 62
    56
100
AcDbLine
 10
1042.74302770237
 20
383.8706902995915
 30
0.0
 11
1042.74302770237
 21
403.1583864851246
 31
0.0
  0
LINE
  5
285
330
2
100
AcDbEntity
  8
0
 62
    56
100
AcDbLine
 10
1046.461012423949
 20
389.243690747517
 30
0.0
 11
1046.461012423949
 21
397.7853860371993
 31
0.0
  0
LINE
  5
286
330
2
100
AcDbEntity
  8
0
 62
    56
100
AcDbLine
 10
973.9539700263961
 20
625.1124834942498
 30
0.0
 11
973.9539700263961
 21
752.756677270245
 31
0.0
  0
LINE
  5
287
330
2
100
AcDbEntity
  8
0
 62
    56
100
AcDbLine
 10
973.9539700263961
 20
752.756677270245
 30
0.0
 11
905.6413493840961
 21
752.756677270245
 31
0.0
  0
LINE
  5
288
330
2
100
AcDbEntity
  8
0
 62
    56
100
AcDbLine
 10
905.6413493840961
 20
752.756677270245
 30
0.0
 11
905.6413493840961
 21
920.9552148575816
 31
0.0
  0
LINE
  5
289
330
2
100
AcDbEntity
  8
0
 62
    56
100
AcDbLine
 10
905.6413493840961
 20
920.9552148575816
 30
0.0
 11
942.2925948928883
 21
920.9552148575816
 31
0.0
  0
LINE
  5
28A
330
2
100
AcDbEntity
  8
0
 62
   250
370
    30
100
AcDbLine
 10
950.2989489221251
 20
845.5916548606225
 30
0.0
 11
1012.039857522575
 21
845.5916548606225
 31
0.0
  0
LINE
  5
28B
330
2
100
AcDbEntity
  8
0
 62
     3
370
    30
100
AcDbLine
 10
969.3382320053286
 20
803.5084767944718
 30
0.0
 11
1011.712316518024
 21
830.4615642773709
 31
0.0
  0
LINE
  5
28C
330
2
100
AcDbEntity
  8
0
 62
    56
100
AcDbLine
 10
934.9535364719052
 20
827.3457265659777
 30
0.0
 11
934.9535364719052
 21
858.7929572286345
 31
0.0
  0
LINE
  5
28D
330
2
100
AcDbEntity
  8
0
 62
    56
100
AcDbLine
 10
934.9535364719052
 20
842.1221343767278
 30
0.0
 11
905.6413493840961
 21
842.1221343767278
 31
0.0
  0
LINE
  5
28E
330
2
100
AcDbEntity
  8
0
 62
    56
100
AcDbLine
 10
1024.464452977806
 20
841.4595212865702
 30
0.0
 11
1039.314395454069
 21
841.4595212865702
 31
0.0
  0
LINE
  5
28F
330
2
100
AcDbEntity
  8
0
 62
    56
100
AcDbLine
 10
1039.388990038443
 20
826.4794700803172
 30
0.0
 11
1039.388990038443
 21
856.1164458592115
 31
0.0
  0
LINE
  5
290
330
2
100
AcDbEntity
  8
0
 62
    56
100
AcDbLine
 10
1042.74302770237
 20
830.9825401507263
 30
0.0
 11
1042.74302770237
 21
850.2702363362281
 31
0.0
  0
LINE
  5
291
330
2
100
AcDbEntity
  8
0
 62
    56
100
AcDbLine
 10
1046.461012423949
 20
836.3555405986202
 30
0.0
 11
1046.461012423949
 21
844.8972358883024
 31
0.0
  0
LINE
  5
292
330
2
100
AcDbEntity
  8
0
 62
    56
370
    20
100
AcDbLine
 10
947.6868372289683
 20
911.4332543979623
 30
0.0
 11
1010.827803089492
 21
911.4332543979623
 31
0.0
  0
LINE
  5
293
330
2
100
AcDbEntity
  8
0
 62
    56
370
    20
100
AcDbLine
 10
1010.827803089492
 20
911.4332543979623
 30
0.0
 11
1010.827803089492
 21
930.5621469768404
 31
0.0
  0
LINE
  5
294
330
2
100
AcDbEntity
  8
0
 62
    56
370
    20
100
AcDbLine
 10
1010.827803089492
 20
930.5621469768404
 30
0.0
 11
947.6868372289683
 21
930.5621469768404
 31
0.0
  0
LINE
  5
295
330
2
100
AcDbEntity
  8
0
 62
    56
370
    20
100
AcDbLine
 10
947.6868372289683
 20
930.5621469768404
 30
0.0
 11
947.6868372289683
 21
911.4332543979623
 31
0.0
  0
LINE
  5
296
330
2
100
AcDbEntity
  8
0
 62
    56
370
    20
100
AcDbLine
 10
942.2925948928883
 20
920.9552148575816
 30
0.0
 11
957.1310260261633
 21
920.9552148575816
 31
0.0
  0
LINE
  5
297
330
2
100
AcDbEntity
  8
0
 62
    56
370
    20
100
AcDbLine
 10
957.1310260261633
 20
914.6058149412926
 30
0.0
 11
957.1310260261633
 21
927.30461477403
 31
0.0
  0
LINE
  5
298
330
2
100
AcDbEntity
  8
0
 62
    56
370
    20
100
AcDbLine
 10
957.1310260261633
 20
927.30461477403
 30
0.0
 11
992.8444137824833
 21
920.9552148575816
 31
0.0
  0
LINE
  5
299
330
2
100
AcDbEntity
  8
0
 62
    56
370
    20
100
AcDbLine
 10
957.1310260261633
 20
914.6058149412926
 30
0.0
 11
992.8444137824833
 21
920.9552148575816
 31
0.0
  0
LINE
  5
29A
330
2
100
AcDbEntity
  8
0
 62
    56
100
AcDbLine
 10
1024.575723114653
 20
921.1158627875423
 30
0.0
 11
1039.425665590903
 21
921.1158627875423
 31
0.0
  0
LINE
  5
29B
330
2
100
AcDbEntity
  8
0
 62
    56
100
AcDbLine
 10
1039.500260175289
 20
906.1358115812897
 30
0.0
 11
1039.500260175289
 21
935.7727873603113
 31
0.0
  0
LINE
  5
29C
330
2
100
AcDbEntity
  8
0
 62
    56
100
AcDbLine
 10
1042.854297839231
 20
910.6388816516666
 30
0.0
 11
1042.854297839231
 21
929.926577837328
 31
0.0
  0
LINE
  5
29D
330
2
100
AcDbEntity
  8
0
 62
    56
100
AcDbLine
 10
1046.572282560815
 20
916.0118820995927
 30
0.0
 11
1046.572282560815
 21
924.5535773894019
 31
0.0
  0
LINE
  5
29E
330
2
100
AcDbEntity
  8
0
 62
    56
100
AcDbLine
 10
800.5989484865619
 20
628.4012180692907
 30
0.0
 11
1085.671855937085
 21
628.4012180692907
 31
0.0
  0
CIRCLE
  5
29F
330
2
100
AcDbEntity
  8
0
 62
   250
370
    30
100
AcDbCircle
 10
1234.582622490346
 20
335.6770914340137
 30
0.0
 40
21.00918010397843
  0
CIRCLE
  5
2A3
330
2
100
AcDbEntity
  8
0
 62
     1
370
    30
100
AcDbCircle
 10
1234.520181007761
 20
395.0848661843843
 30
0.0
 40
21.00918010397843
  0
CIRCLE
  5
2A7
330
2
100
AcDbEntity
  8
0
 62
     1
370
    30
100
AcDbCircle
 10
1234.520181007761
 20
451.7502964421924
 30
0.0
 40
21.00918010397843
  0
CIRCLE
  5
2AB
330
2
100
AcDbEntity
  8
0
 62
   250
370
    30
100
AcDbCircle
 10
1137.685615453919
 20
578.5931509954439
 30
0.0
 40
21.00918010397843
  0
LINE
  5
2AE
330
2
100
AcDbEntity
  8
0
 62
   252
100
AcDbLine
 10
1094.57518754467
 20
261.2888166757517
 30
0.0
 11
1094.57518754467
 21
619.2495115365913
 31
0.0
  0
LINE
  5
2AF
330
2
100
AcDbEntity
  8
0
 62
   252
100
AcDbLine
 10
1094.57518754467
 20
619.2495115365913
 30
0.0
 11
1339.165136360506
 21
619.2495115365913
 31
0.0
  0
LINE
  5
2B0
330
2
100
AcDbEntity
  8
0
 62
   252
100
AcDbLine
 10
1339.165136360506
 20
619.2495115365913
 30
0.0
 11
1339.165136360506
 21
261.2888166757517
 31
0.0
  0
LINE
  5
2B1
330
2
100
AcDbEntity
  8
0
 62
   252
100
AcDbLine
 10
1339.165136360506
 20
261.2888166757517
 30
0.0
 11
1094.57518754467
 21
261.2888166757517
 31
0.0
  0
CIRCLE
  5
2B3
330
2
100
AcDbEntity
  8
0
 62
   250
370
    30
100
AcDbCircle
 10
1234.582622490346
 20
768.358341278077
 30
0.0
 40
21.00918010397843
  0
CIRCLE
  5
2B7
330
2
100
AcDbEntity
  8
0
 62
     1
370
    30
100
AcDbCircle
 10
1234.520181007761
 20
886.8995479778192
 30
0.0
 40
21.00918010397843
  0
LINE
  5
2B8
330
2
100
AcDbEntity
  8
0
 62
     1
370
    30
100
AcDbLine
 10
1221.017559352162
 20
871.3262743741145
 30
0.0
 11
1248.022798577847
 21
902.4728251238176
 31
0.0
  0
LINE
  5
2B9
330
2
100
AcDbEntity
  8
0
 62
     1
370
    30
100
AcDbLine
 10
1234.520181007761
 20
886.8995479778192
 30
0.0
 11
1221.954892414037
 21
903.2384942371871
 31
0.0
  0
LINE
  5
2BA
330
2
100
AcDbEntity
  8
0
 62
     1
370
    30
100
AcDbLine
 10
1234.520181007761
 20
886.8995479778192
 30
0.0
 11
1246.712678770662
 21
870.2805636342517
 31
0.0
  0
LINE
  5
2BB
330
2
100
AcDbEntity
  8
0
 62
   252
100
AcDbLine
 10
1094.57518754467
 20
653.1478911412072
 30
0.0
 11
1094.57518754467
 21
1011.108586001919
 31
0.0
  0
LINE
  5
2BC
330
2
100
AcDbEntity
  8
0
 62
   252
100
AcDbLine
 10
1094.57518754467
 20
1011.108586001919
 30
0.0
 11
1339.165136360506
 21
1011.108586001919
 31
0.0
  0
LINE
  5
2BD
330
2
100
AcDbEntity
  8
0
 62
   252
100
AcDbLine
 10
1339.165136360506
 20
1011.108586001919
 30
0.0
 11
1339.165136360506
 21
653.1478911412075
 31
0.0
  0
LINE
  5
2BE
330
2
100
AcDbEntity
  8
0
 62
   252
100
AcDbLine
 10
1339.165136360506
 20
653.1478911412075
 30
0.0
 11
1094.57518754467
 21
653.1478911412075
 31
0.0
  0
LINE
  5
2C1
330
2
100
AcDbEntity
  8
0
 62
   252
100
AcDbLine
 10
599.7926463441414
 20
796.0172651447789
 30
0.0
 11
636.104935636844
 21
821.9138351143877
 31
0.0
  0
LINE
  5
2C2
330
2
100
AcDbEntity
  8
0
 62
   252
100
AcDbLine
 10
601.6548179111188
 20
811.6557315550569
 30
0.0
 11
633.4979104466635
 21
833.6398903008328
 31
0.0
  0
LINE
  5
2C4
330
2
100
AcDbEntity
  8
0
 62
   252
100
AcDbLine
 10
636.2000600586878
 20
849.2813438231047
 30
0.0
 11
599.4059293878438
 21
824.0740703083114
 31
0.0
  0
LINE
  5
2C6
330
2
100
AcDbEntity
  8
0
 62
   252
100
AcDbLine
 10
659.3275608998866
 20
796.0172651447784
 30
0.0
 11
695.6398501925906
 21
821.9138351143874
 31
0.0
  0
LINE
  5
2C7
330
2
100
AcDbEntity
  8
0
 62
   252
100
AcDbLine
 10
661.1897324668648
 20
811.6557315550567
 30
0.0
 11
693.0328250024127
 21
833.6398903008332
 31
0.0
  0
LINE
  5
2C9
330
2
100
AcDbEntity
  8
0
 62
   252
100
AcDbLine
 10
695.734974614433
 20
849.2813438230722
 30
0.0
 11
658.9408439435697
 21
824.0740703082797
 31
0.0
  0
ARC
  5
2CA
330
2
100
AcDbEntity
  8
0
 62
    18
370
     0
100
AcDbCircle
 10
1139.286453494253
 20
767.3453875379626
 30
0.0
 40
14.46431580258922
100
AcDbArc
 50
96.35583041835197
 51
263.644169581648
  0
LINE
  5
2CB
330
2
100
AcDbEntity
  8
0
 62
    18
370
     0
100
AcDbLine
 10
1137.685213251165
 20
752.9699758457857
 30
0.0
 11
1151.510053583306
 21
752.9699758457857
 31
0.0
  0
LINE
  5
2CC
330
2
100
AcDbEntity
  8
0
 62
    18
370
     0
100
AcDbLine
 10
1137.685213251165
 20
781.7207992301703
 30
0.0
 11
1151.510053583306
 21
781.7207992301703
 31
0.0
  0
LINE
  5
2CD
330
2
100
AcDbEntity
  8
0
 62
    18
370
     0
100
AcDbLine
 10
1151.510053583306
 20
747.2938776490585
 30
0.0
 11
1151.510053583306
 21
787.4255459526518
 31
0.0
  0
LINE
  5
2CE
330
2
100
AcDbEntity
  8
0
 62
    18
370
     0
100
AcDbLine
 10
1151.510053583306
 20
747.2938776490585
 30
0.0
 11
1178.172928851987
 21
747.2938776490585
 31
0.0
  0
LINE
  5
2CF
330
2
100
AcDbEntity
  8
0
 62
    18
370
     0
100
AcDbLine
 10
1178.172928851987
 20
747.2938776490585
 30
0.0
 11
1178.172928851987
 21
787.4255459526518
 31
0.0
  0
LINE
  5
2D0
330
2
100
AcDbEntity
  8
0
 62
    18
370
     0
100
AcDbLine
 10
1178.172928851987
 20
787.4255459526518
 30
0.0
 11
1151.510053583306
 21
787.4255459526518
 31
0.0
  0
ARC
  5
2D1
330
2
100
AcDbEntity
  8
0
 62
    88
100
AcDbCircle
 10
1139.003241827325
 20
858.899169573338
 30
0.0
 40
14.46431580258922
100
AcDbArc
 50
96.35583041835197
 51
263.644169581648
  0
LINE
  5
2D2
330
2
100
AcDbEntity
  8
0
 62
    88
100
AcDbLine
 10
1137.402001584215
 20
873.421985177711
 30
0.0
 11
1151.226841916377
 21
873.421985177711
 31
0.0
  0
LINE
  5
2D3
330
2
100
AcDbEntity
  8
0
 62
    88
100
AcDbLine
 10
1151.226841916377
 20
867.7458869808249
 30
0.0
 11
1151.226841916377
 21
907.8775552845764
 31
0.0
  0
LINE
  5
2D4
330
2
100
AcDbEntity
  8
0
 62
    88
100
AcDbLine
 10
1151.226841916377
 20
867.7458869808249
 30
0.0
 11
1177.88971718507
 21
867.7458869808249
 31
0.0
  0
LINE
  5
2D5
330
2
100
AcDbEntity
  8
0
 62
    88
100
AcDbLine
 10
1177.88971718507
 20
867.7458869808249
 30
0.0
 11
1177.889717185057
 21
907.8775552845764
 31
0.0
  0
LINE
  5
2D6
330
2
100
AcDbEntity
  8
0
 62
    88
100
AcDbLine
 10
1177.88971718507
 20
907.8775552845764
 30
0.0
 11
1151.226841916377
 21
907.8775552845764
 31
0.0
  0
LINE
  5
2D7
330
2
100
AcDbEntity
  8
0
 62
   250
370
    30
100
AcDbLine
 10
665.8807654987732
 20
907.4940630177801
 30
0.0
 11
665.8807654987732
 21
945.7800229854225
 31
0.0
  0
LINE
  5
2D8
330
2
100
AcDbEntity
  8
0
 62
   250
370
    30
100
AcDbLine
 10
665.8807654987732
 20
945.7800229854225
 30
0.0
 11
689.6916630852606
 21
945.7800229854225
 31
0.0
  0
LINE
  5
2D9
330
2
100
AcDbEntity
  8
0
 62
   250
370
    30
100
AcDbLine
 10
689.6916630852606
 20
945.7800229854225
 30
0.0
 11
689.6916630852606
 21
907.4940630177801
 31
0.0
  0
LINE
  5
2DA
330
2
100
AcDbEntity
  8
0
 62
   250
370
    30
100
AcDbLine
 10
689.6916630852606
 20
907.4940630177801
 30
0.0
 11
665.8807654987732
 21
907.4940630177801
 31
0.0
  0
LINE
  5
2DB
330
2
100
AcDbEntity
  8
TOPOVERLAY
  6
Continuous
 62
     3
370
    30
100
AcDbLine
 10
606.3458509430277
 20
907.4940630177803
 30
0.0
 11
606.3458509430277
 21
945.7800229852642
 31
0.0
  0
LINE
  5
2DC
330
2
100
AcDbEntity
  8
TOPOVERLAY
  6
Continuous
 62
     3
370
    30
100
AcDbLine
 10
606.3458509430277
 20
945.7800229852642
 30
0.0
 11
630.1567485295541
 21
945.7800229852642
 31
0.0
  0
LINE
  5
2DD
330
2
100
AcDbEntity
  8
TOPOVERLAY
  6
Continuous
 62
     3
370
    30
100
AcDbLine
 10
630.1567485295541
 20
945.7800229852642
 30
0.0
 11
630.1567485295541
 21
907.4940630177803
 31
0.0
  0
LINE
  5
2DE
330
2
100
AcDbEntity
  8
TOPOVERLAY
  6
Continuous
 62
     3
370
    30
100
AcDbLine
 10
630.1567485295541
 20
907.4940630177803
 30
0.0
 11
606.3458509430277
 21
907.4940630177803
 31
0.0
  0
LINE
  5
2E0
330
2
100
AcDbEntity
  8
0
 62
   252
100
AcDbLine
 10
1176.401910468062
 20
557.2303403402433
 30
0.0
 11
1176.401910468062
 21
601.3235525283021
 31
0.0
  0
LINE
  5
2E1
330
2
100
AcDbEntity
  8
0
 62
   252
100
AcDbLine
 10
1176.401910468062
 20
601.3235525283021
 30
0.0
 11
1211.659521838679
 21
601.3235525283021
 31
0.0
  0
LINE
  5
2E2
330
2
100
AcDbEntity
  8
0
 62
   252
100
AcDbLine
 10
1211.659521838679
 20
601.3235525283021
 30
0.0
 11
1211.659521838679
 21
557.2303403402433
 31
0.0
  0
LINE
  5
2E3
330
2
100
AcDbEntity
  8
0
 62
   252
100
AcDbLine
 10
1211.659521838679
 20
557.2303403402433
 30
0.0
 11
1176.401910468062
 21
557.2303403402433
 31
0.0
  0
LINE
  5
2E6
330
2
100
AcDbEntity
  8
0
 62
   250
370
   100
100
AcDbLine
 10
527.8635948504152
 20
628.2835470220474
 30
0.0
 11
587.9718373885777
 21
628.2835470220474
 31
0.0
  0
LINE
  5
2E7
330
2
100
AcDbEntity
  8
TOPOVERLAY
  6
Continuous
 62
   250
370
   100
100
AcDbLine
 10
541.4356581651294
 20
585.0814711308552
 30
0.0
 11
587.6442963840311
 21
614.4695149158027
 31
0.0
  0
LINE
  5
2EA
330
2
100
AcDbEntity
  8
0
 62
   250
370
   100
100
AcDbLine
 10
950.2989489221251
 20
845.5916548606225
 30
0.0
 11
1012.039857522575
 21
845.5916548606225
 31
0.0
  0
LINE
  5
2EB
330
2
100
AcDbEntity
  8
TOPOVERLAY
  6
Continuous
 62
     3
370
   100
100
AcDbLine
 10
969.3382320053286
 20
803.5084767944718
 30
0.0
 11
1011.712316518024
 21
830.4615642773709
 31
0.0
  0
LINE
  5
2ED
330
2
100
AcDbEntity
  8
0
 62
    56
100
AcDbLine
 10
487.2596160318638
 20
616.2796927904357
 30
0.0
 11
511.5368865155466
 21
640.4371014782914
 31
0.0
  0
LINE
  5
2EE
330
2
100
AcDbEntity
  8
0
 62
    56
100
AcDbLine
 10
487.2596160318638
 20
640.4371014782914
 30
0.0
 11
511.5368865155466
 21
616.2796927904357
 31
0.0
  0
LINE
  5
2EF
330
2
100
AcDbEntity
  8
0
 62
    56
100
AcDbLine
 10
646.6388714719157
 20
640.4799224132188
 30
0.0
 11
670.9161419555982
 21
616.3225137253627
 31
0.0
  0
LINE
  5
2F0
330
2
100
AcDbEntity
  8
0
 62
    56
100
AcDbLine
 10
646.6388714719157
 20
616.3225137253627
 30
0.0
 11
670.9161419555982
 21
640.4799224132188
 31
0.0
  0
LINE
  5
34E
330
2
100
AcDbEntity
  8
TOPOVERLAY
  6
Continuous
 62
   250
370
   100
100
AcDbLine
 10
402.8918988683551
 20
615.0891707921307
 30
0.0
 11
402.8918988683551
 21
581.2038389636446
 31
0.0
  0
LINE
  5
34F
330
2
100
AcDbEntity
  8
0
 62
   250
370
   100
100
AcDbLine
 10
369.3976333107765
 20
628.4012180692907
 30
0.0
 11
389.5796502072763
 21
628.4012180692907
 31
0.0
  0
LINE
  5
350
330
2
100
AcDbEntity
  8
0
 62
   250
370
   100
100
AcDbLine
 10
355.6943183798837
 20
628.4012180692907
 30
0.0
 11
389.5796502072763
 21
628.4012180692907
 31
0.0
  0
LINE
  5
351
330
2
100
AcDbEntity
  8
0
 62
   250
370
   100
100
AcDbLine
 10
416.2037447646424
 20
628.4012180692907
 30
0.0
 11
439.2980590427089
 21
628.4012180692907
 31
0.0
  0
LINE
  5
352
330
2
100
AcDbEntity
  8
0
 62
   250
370
   100
100
AcDbLine
 10
416.2037447646424
 20
628.4012180692907
 30
0.0
 11
450.0890765920352
 21
628.4012180692907
 31
0.0
  0
LINE
  5
353
330
2
100
AcDbEntity
  8
TOPOVERLAY
  6
Continuous
 62
   250
370
   100
100
AcDbLine
 10
402.8918988683551
 20
641.7132653464506
 30
0.0
 11
402.8918988683551
 21
675.5985971749367
 31
0.0
  0
LINE
  5
3A7
330
2
100
AcDbEntity
  8
0
 62
    56
100
AcDbLine
 10
314.6906252757422
 20
628.4012180692907
 30
0.0
 11
294.9734384654401
 21
628.4005129031984
 31
0.0
  0
MTEXT
  5
41F
330
2
100
AcDbEntity
  8
0
100
AcDbMText
 10
178.1088203111944
 20
165.4714462935649
 30
0.0
 40
30.0
 41
3011.936264869754
 71
     1
 72
     5
  1
ORT400
 11
0.0000000000000001
 21
1.0
 31
0.0
 73
     1
 44
1.0
1001
ACAD
1000
MTEXTBEGIN
1070
    73
1070
     1
1070
    44
1040
1.0
1070
    74
1070
     0
1000
MTEXTEND
  0
LINE
  5
4D4
330
2
100
AcDbEntity
  8
0
 62
   250
370
    30
100
AcDbLine
 10
1234.582624533102
 20
768.3583395069299
 30
0.0
 11
1246.775122296003
 21
751.7393551633626
 31
0.0
  0
LINE
  5
4D5
330
2
100
AcDbEntity
  8
0
 62
   250
370
    30
100
AcDbLine
 10
1234.582624533102
 20
768.3583395069299
 30
0.0
 11
1222.017335939378
 21
784.697285766298
 31
0.0
  0
LINE
  5
4D6
330
2
100
AcDbEntity
  8
0
 62
   250
370
    30
100
AcDbLine
 10
1221.080002877503
 20
752.7850659032252
 30
0.0
 11
1248.085242103188
 21
783.9316166529283
 31
0.0
  0
LINE
  5
4D7
330
2
100
AcDbEntity
  8
0
 62
   250
370
    30
100
AcDbLine
 10
1124.182995841076
 20
563.0198756205922
 30
0.0
 11
1151.188235066761
 21
594.1664263702953
 31
0.0
  0
LINE
  5
4D8
330
2
100
AcDbEntity
  8
0
 62
   250
370
    30
100
AcDbLine
 10
1137.685617496675
 20
578.593149224297
 30
0.0
 11
1125.12032890295
 21
594.9320954836649
 31
0.0
  0
LINE
  5
4D9
330
2
100
AcDbEntity
  8
0
 62
   250
370
    30
100
AcDbLine
 10
1137.685617496675
 20
578.593149224297
 30
0.0
 11
1149.878115259576
 21
561.9741648807295
 31
0.0
  0
LINE
  5
4DA
330
2
100
AcDbEntity
  8
0
 62
     1
370
    30
100
AcDbLine
 10
1221.017561394918
 20
436.1770210673407
 30
0.0
 11
1248.022800620603
 21
467.3235718170438
 31
0.0
  0
LINE
  5
4DB
330
2
100
AcDbEntity
  8
0
 62
     1
370
    30
100
AcDbLine
 10
1234.520183050517
 20
451.7502946710455
 30
0.0
 11
1221.954894456793
 21
468.0892409304131
 31
0.0
  0
LINE
  5
4DC
330
2
100
AcDbEntity
  8
0
 62
     1
370
    30
100
AcDbLine
 10
1234.520183050517
 20
451.7502946710455
 30
0.0
 11
1246.712680813418
 21
435.131310327478
 31
0.0
  0
LINE
  5
4DD
330
2
100
AcDbEntity
  8
0
 62
     1
370
    30
100
AcDbLine
 10
1221.017561394918
 20
379.5115908095326
 30
0.0
 11
1248.022800620603
 21
410.6581415592358
 31
0.0
  0
LINE
  5
4DE
330
2
100
AcDbEntity
  8
0
 62
     1
370
    30
100
AcDbLine
 10
1234.520183050517
 20
395.0848644132374
 30
0.0
 11
1221.954894456793
 21
411.4238106726054
 31
0.0
  0
LINE
  5
4DF
330
2
100
AcDbEntity
  8
0
 62
     1
370
    30
100
AcDbLine
 10
1234.520183050517
 20
395.0848644132374
 30
0.0
 11
1246.712680813418
 21
378.4658800696699
 31
0.0
  0
LINE
  5
4E0
330
2
100
AcDbEntity
  8
0
 62
   250
370
    30
100
AcDbLine
 10
1221.080002877503
 20
320.103816059162
 30
0.0
 11
1248.085242103188
 21
351.2503668088652
 31
0.0
  0
LINE
  5
4E1
330
2
100
AcDbEntity
  8
0
 62
   250
370
    30
100
AcDbLine
 10
1234.582624533102
 20
335.6770896628668
 30
0.0
 11
1222.017335939378
 21
352.0160359222348
 31
0.0
  0
LINE
  5
4E2
330
2
100
AcDbEntity
  8
0
 62
   250
370
    30
100
AcDbLine
 10
1234.582624533102
 20
335.6770896628668
 30
0.0
 11
1246.775122296003
 21
319.0581053192993
 31
0.0
  0
LINE
  5
4E3
330
2
100
AcDbEntity
  8
0
 62
   250
370
    30
100
AcDbLine
 10
989.9526532609682
 20
435.4398263182958
 30
0.0
 11
1016.957892486653
 21
466.5863770679991
 31
0.0
  0
LINE
  5
4E4
330
2
100
AcDbEntity
  8
0
 62
   250
370
    30
100
AcDbLine
 10
1003.455274916567
 20
451.0130999220006
 30
0.0
 11
990.8899863228434
 21
467.3520461813687
 31
0.0
  0
LINE
  5
4E5
330
2
100
AcDbEntity
  8
0
 62
   250
370
    30
100
AcDbLine
 10
1003.455274916567
 20
451.0130999220006
 30
0.0
 11
1015.647772679468
 21
434.3941155784332
 31
0.0
  0
LINE
  5
4E6
330
2
100
AcDbEntity
  8
0
 62
   250
370
    30
100
AcDbLine
 10
989.9526532609682
 20
378.7743960606472
 30
0.0
 11
1016.957892486653
 21
409.92094681035
 31
0.0
  0
LINE
  5
4E7
330
2
100
AcDbEntity
  8
0
 62
   250
370
    30
100
AcDbLine
 10
1003.455274916567
 20
394.3476696643519
 30
0.0
 11
990.8899863228434
 21
410.6866159237197
 31
0.0
  0
LINE
  5
4E8
330
2
100
AcDbEntity
  8
0
 62
   250
370
    30
100
AcDbLine
 10
1003.455274916567
 20
394.3476696643519
 30
0.0
 11
1015.647772679468
 21
377.7286853207844
 31
0.0
  0
LINE
  5
4E9
330
2
100
AcDbEntity
  8
0
 62
   250
370
    30
100
AcDbLine
 10
990.0150947435792
 20
319.3666213102447
 30
0.0
 11
1017.020333969264
 21
350.5131720599478
 31
0.0
  0
LINE
  5
4EA
330
2
100
AcDbEntity
  8
0
 62
   250
370
    30
100
AcDbLine
 10
1003.517716399178
 20
334.9398949139493
 30
0.0
 11
990.9524278054542
 21
351.2788411733175
 31
0.0
  0
LINE
  5
4EB
330
2
100
AcDbEntity
  8
0
 62
   250
370
    30
100
AcDbLine
 10
1003.517716399178
 20
334.9398949139493
 30
0.0
 11
1015.710214162079
 21
318.3209105703819
 31
0.0
  0
LINE
  5
5FE
330
2
100
AcDbEntity
  8
TOPOVERLAY
  6
Continuous
 62
   250
370
   100
100
AcDbLine
 10
732.0778698662016
 20
615.0891707921307
 30
0.0
 11
732.0778698662013
 21
581.2038389636446
 31
0.0
  0
LINE
  5
5FF
330
2
100
AcDbEntity
  8
0
 62
   250
370
   100
100
AcDbLine
 10
684.8802893777299
 20
628.4012180692907
 30
0.0
 11
718.7656212051225
 21
628.4012180692907
 31
0.0
  0
LINE
  5
600
330
2
100
AcDbEntity
  8
0
 62
   250
370
   100
100
AcDbLine
 10
698.5836043086227
 20
628.4012180692907
 30
0.0
 11
718.7656212051225
 21
628.4012180692907
 31
0.0
  0
LINE
  5
601
330
2
100
AcDbEntity
  8
TOPOVERLAY
  6
Continuous
 62
   250
370
   100
100
AcDbLine
 10
732.0778698662016
 20
641.7132653464506
 30
0.0
 11
732.0778698662013
 21
675.5985971749367
 31
0.0
  0
LINE
  5
602
330
2
100
AcDbEntity
  8
0
 62
   250
370
   100
100
AcDbLine
 10
745.3897157624886
 20
628.4012180692907
 30
0.0
 11
779.2750475898814
 21
628.4012180692907
 31
0.0
  0
LINE
  5
603
330
2
100
AcDbEntity
  8
0
 62
   250
370
   100
100
AcDbLine
 10
745.3897157624886
 20
628.4012180692907
 30
0.0
 11
768.4840300405551
 21
628.4012180692907
 31
0.0
  0
ARC
  5
690
330
2
100
AcDbEntity
  8
0
 62
   252
100
AcDbCircle
 10
617.8764404623666
 20
856.3992904409591
 30
0.0
 40
19.88045606348704
100
AcDbArc
 50
162.0486963503322
 51
20.11213206675568
  0
ARC
  5
6A3
330
2
100
AcDbEntity
  8
0
 62
   252
100
AcDbCircle
 10
618.2472219321501
 20
789.2460880659657
 30
0.0
 40
19.88045606348704
100
AcDbArc
 50
340.9682821417888
 51
199.0317178582113
  0
ARC
  5
6A4
330
2
100
AcDbEntity
  8
0
 62
   252
100
AcDbCircle
 10
677.4113550180925
 20
856.3992904409273
 30
0.0
 40
19.88045606348704
100
AcDbArc
 50
162.0486963503322
 51
20.11213206675568
  0
ARC
  5
6A5
330
2
100
AcDbEntity
  8
0
 62
   252
100
AcDbCircle
 10
677.7821364878757
 20
789.2460880659341
 30
0.0
 40
19.88045606348704
100
AcDbArc
 50
340.9682821417888
 51
199.0317178582113
  0
LINE
  5
734
330
2
100
AcDbEntity
  8
0
100
AcDbLine
 10
1160.635950755763
 20
405.6458959125343
 30
0.0
 11
778.3804629247669
 21
978.296705376335
 31
0.0
  0
LINE
  5
739
330
2
100
AcDbEntity
  8
0
100
AcDbLine
 10
1160.635950755763
 20
405.6458959125343
 30
0.0
 11
1113.601498431269
 21
423.6215716375654
 31
0.0
  0
LINE
  5
73A
330
2
100
AcDbEntity
  8
0
100
AcDbLine
 10
1160.635950755763
 20
405.6458959125343
 30
0.0
 11
1163.273601234847
 21
460.8592291669183
 31
0.0
  0
LINE
  5
8B5
330
2
100
AcDbEntity
  8
6-家具-143
 62
   143
100
AcDbLine
 10
767.0216021909586
 20
923.8633444151414
 30
0.0
 11
769.4211366281819
 21
961.1575482136375
 31
0.0
  0
LINE
  5
8B6
330
2
100
AcDbEntity
  8
6-家具-143
 62
   143
100
AcDbLine
 10
740.3601084439988
 20
955.2970304738771
 30
0.0
 11
740.3601084439988
 21
924.3961187551304
 31
0.0
  0
LINE
  5
8B7
330
2
100
AcDbEntity
  8
6-家具-143
 62
   143
100
AcDbLine
 10
755.2905449422982
 20
950.5020614140706
 30
0.0
 11
759.5563839418087
 21
958.4936765137403
 31
0.0
  0
LINE
  5
8B8
330
2
100
AcDbEntity
  8
6-家具-143
 62
   143
100
AcDbLine
 10
775.530477760578
 20
960.0727212065406
 30
0.0
 11
776.4390734078337
 21
953.3289196548558
 31
0.0
  0
LINE
  5
8B9
330
2
100
AcDbEntity
  8
6-家具-143
 62
   143
100
AcDbLine
 10
773.025700922855
 20
955.0814670365809
 30
0.0
 11
771.8855712583376
 21
949.8413510059279
 31
0.0
  0
LINE
  5
8BA
330
2
100
AcDbEntity
  8
6-家具-143
 62
   143
100
AcDbLine
 10
739.2778628532981
 20
954.6258047730468
 30
0.0
 11
746.1186408403769
 21
957.5876094860298
 31
0.0
  0
LINE
  5
8BB
330
2
100
AcDbEntity
  8
6-家具-143
 62
   143
100
AcDbLine
 10
735.8574738597703
 20
977.6367490816435
 30
0.0
 11
730.3848514701095
 21
947.790870820013
 31
0.0
  0
LINE
  5
8BC
330
2
100
AcDbEntity
  8
6-家具-143
 62
   143
100
AcDbLine
 10
747.025481880733
 20
883.1061074068109
 30
0.0
 11
743.8261026311056
 21
884.1716560867652
 31
0.0
  0
LINE
  5
8BD
330
2
100
AcDbEntity
  8
6-家具-143
 62
   143
100
AcDbLine
 10
743.8261026311056
 20
884.1716560867652
 30
0.0
 11
741.1599532564028
 21
882.5733330668224
 31
0.0
  0
LINE
  5
8BE
330
2
100
AcDbEntity
  8
6-家具-143
 62
   143
100
AcDbLine
 10
764.0888378787874
 20
881.5077843868678
 30
0.0
 11
763.5556080038514
 21
882.8397202368165
 31
0.0
  0
LINE
  5
8BF
330
2
100
AcDbEntity
  8
6-家具-143
 62
   143
100
AcDbLine
 10
763.5556080038514
 20
882.8397202368165
 30
0.0
 11
759.8229988792769
 21
880.4422357069135
 31
0.0
  0
LINE
  5
8C0
330
2
100
AcDbEntity
  8
6-家具-143
 62
   143
100
AcDbLine
 10
759.8229988792769
 20
880.4422357069135
 30
0.0
 11
759.2897690043408
 21
880.4422357069135
 31
0.0
  0
LINE
  5
8C1
330
2
100
AcDbEntity
  8
6-家具-143
 62
   143
100
AcDbLine
 10
754.2240851924145
 20
922.7977957351869
 30
0.0
 11
755.2905449422982
 21
920.1339240352895
 31
0.0
  0
LINE
  5
8C2
330
2
100
AcDbEntity
  8
6-家具-143
 62
   143
100
AcDbLine
 10
755.2905449422982
 20
920.1339240352895
 30
0.0
 11
754.7573150673505
 21
919.8675368653187
 31
0.0
  0
LINE
  5
8C3
330
2
100
AcDbEntity
  8
6-家具-143
 62
   143
100
AcDbLine
 10
754.7573150673505
 20
919.8675368653187
 30
0.0
 11
756.8902345671057
 21
880.9750100469022
 31
0.0
  0
LINE
  5
8C4
330
2
100
AcDbEntity
  8
6-家具-143
 62
   143
100
AcDbLine
 10
756.8902345671057
 20
880.9750100469022
 30
0.0
 11
757.9566943169894
 21
880.7086228769078
 31
0.0
  0
LINE
  5
8C5
330
2
100
AcDbEntity
  8
6-家具-143
 62
   143
100
AcDbLine
 10
757.9566943169894
 20
880.7086228769078
 30
0.0
 11
755.823774817234
 21
876.4464281570672
 31
0.0
  0
LINE
  5
8C6
330
2
100
AcDbEntity
  8
6-家具-143
 62
   143
100
AcDbLine
 10
755.823774817234
 20
876.4464281570672
 30
0.0
 11
755.823774817234
 21
874.8481051371474
 31
0.0
  0
LINE
  5
8C7
330
2
100
AcDbEntity
  8
6-家具-143
 62
   143
100
AcDbLine
 10
755.823774817234
 20
874.8481051371474
 30
0.0
 11
763.5556080038514
 21
874.3153307971583
 31
0.0
  0
LINE
  5
8C8
330
2
100
AcDbEntity
  8
6-家具-143
 62
   143
100
AcDbLine
 10
763.5556080038514
 20
874.3153307971583
 30
0.0
 11
768.6212918157659
 21
874.5817179671531
 31
0.0
  0
LINE
  5
8C9
330
2
100
AcDbEntity
  8
6-家具-143
 62
   143
100
AcDbLine
 10
768.6212918157659
 20
874.5817179671531
 30
0.0
 11
771.8206710654051
 21
874.5817179671531
 31
0.0
  0
LINE
  5
8CA
330
2
100
AcDbEntity
  8
6-家具-143
 62
   143
100
AcDbLine
 10
771.8206710654051
 20
874.5817179671531
 30
0.0
 11
771.8206710654051
 21
876.9792024970559
 31
0.0
  0
LINE
  5
8CB
330
2
100
AcDbEntity
  8
6-家具-143
 62
   143
100
AcDbLine
 10
771.8206710654051
 20
876.9792024970559
 30
0.0
 11
765.688527503607
 21
880.9750100469022
 31
0.0
  0
LINE
  5
8CC
330
2
100
AcDbEntity
  8
6-家具-143
 62
   143
100
AcDbLine
 10
765.688527503607
 20
880.9750100469022
 30
0.0
 11
767.0216021909586
 21
920.1339240352895
 31
0.0
  0
LINE
  5
8CD
330
2
100
AcDbEntity
  8
6-家具-143
 62
   143
100
AcDbLine
 10
767.0216021909586
 20
920.1339240352895
 30
0.0
 11
766.4883723160108
 21
922.5314085651929
 31
0.0
  0
LINE
  5
8CE
330
2
100
AcDbEntity
  8
6-家具-143
 62
   143
100
AcDbLine
 10
766.4883723160108
 20
922.5314085651929
 30
0.0
 11
767.0216021909586
 21
923.8633444151414
 31
0.0
  0
LINE
  5
8CF
330
2
100
AcDbEntity
  8
6-家具-143
 62
   143
100
AcDbLine
 10
740.3601084439988
 20
924.3961187551304
 30
0.0
 11
739.5602636315831
 21
921.4658598852382
 31
0.0
  0
LINE
  5
8D0
330
2
100
AcDbEntity
  8
6-家具-143
 62
   143
100
AcDbLine
 10
739.5602636315831
 20
921.4658598852382
 30
0.0
 11
740.0934935065308
 21
882.0405587268565
 31
0.0
  0
LINE
  5
8D1
330
2
100
AcDbEntity
  8
6-家具-143
 62
   143
100
AcDbLine
 10
740.0934935065308
 20
882.0405587268565
 30
0.0
 11
742.7596428812221
 21
881.2413972168734
 31
0.0
  0
LINE
  5
8D2
330
2
100
AcDbEntity
  8
6-家具-143
 62
   143
100
AcDbLine
 10
742.7596428812221
 20
881.2413972168734
 30
0.0
 11
741.1599532564028
 21
878.0447511770105
 31
0.0
  0
LINE
  5
8D3
330
2
100
AcDbEntity
  8
6-家具-143
 62
   143
100
AcDbLine
 10
741.1599532564028
 20
878.0447511770105
 30
0.0
 11
739.5602636315831
 21
876.4464281570672
 31
0.0
  0
LINE
  5
8D4
330
2
100
AcDbEntity
  8
6-家具-143
 62
   143
100
AcDbLine
 10
739.5602636315831
 20
876.4464281570672
 30
0.0
 11
739.5602636315831
 21
874.8481051371474
 31
0.0
  0
LINE
  5
8D5
330
2
100
AcDbEntity
  8
6-家具-143
 62
   143
100
AcDbLine
 10
739.5602636315831
 20
874.8481051371474
 30
0.0
 11
743.5594876936261
 21
874.5817179671531
 31
0.0
  0
LINE
  5
8D6
330
2
100
AcDbEntity
  8
6-家具-143
 62
   143
100
AcDbLine
 10
743.5594876936261
 20
874.5817179671531
 30
0.0
 11
751.2913208802435
 21
874.3153307971583
 31
0.0
  0
LINE
  5
8D7
330
2
100
AcDbEntity
  8
6-家具-143
 62
   143
100
AcDbLine
 10
751.2913208802435
 20
874.3153307971583
 30
0.0
 11
752.357780630127
 21
876.4464281570672
 31
0.0
  0
LINE
  5
8D8
330
2
100
AcDbEntity
  8
6-家具-143
 62
   143
100
AcDbLine
 10
752.357780630127
 20
876.4464281570672
 30
0.0
 11
751.2913208802435
 21
878.3111383470044
 31
0.0
  0
LINE
  5
8D9
330
2
100
AcDbEntity
  8
6-家具-143
 62
   143
100
AcDbLine
 10
751.2913208802435
 20
878.3111383470044
 30
0.0
 11
748.0919416306165
 21
881.2413972168734
 31
0.0
  0
LINE
  5
8DA
330
2
100
AcDbEntity
  8
6-家具-143
 62
   143
100
AcDbLine
 10
748.0919416306165
 20
881.2413972168734
 30
0.0
 11
749.1584013804882
 21
882.5733330668224
 31
0.0
  0
LINE
  5
8DB
330
2
100
AcDbEntity
  8
6-家具-143
 62
   143
100
AcDbLine
 10
749.1584013804882
 20
882.5733330668224
 30
0.0
 11
752.891010505063
 21
920.6666983752782
 31
0.0
  0
LINE
  5
8DC
330
2
100
AcDbEntity
  8
6-家具-143
 62
   143
100
AcDbLine
 10
752.891010505063
 20
920.6666983752782
 30
0.0
 11
753.6908553174785
 21
923.3305700751758
 31
0.0
  0
LINE
  5
8DD
330
2
100
AcDbEntity
  8
6-家具-143
 62
   143
100
AcDbLine
 10
753.6908553174785
 20
923.3305700751758
 30
0.0
 11
755.2905449422982
 21
950.5020614140706
 31
0.0
  0
LINE
  5
8DE
330
2
100
AcDbEntity
  8
6-家具-143
 62
   143
100
AcDbLine
 10
776.4390734078337
 20
953.3289196548558
 30
0.0
 11
775.660277138764
 21
953.0695426720933
 31
0.0
  0
LINE
  5
8DF
330
2
100
AcDbEntity
  8
6-家具-143
 62
   143
100
AcDbLine
 10
775.660277138764
 20
953.0695426720933
 30
0.0
 11
775.1410796260434
 21
951.6429692669346
 31
0.0
  0
LINE
  5
8E0
330
2
100
AcDbEntity
  8
6-家具-143
 62
   143
100
AcDbLine
 10
775.1410796260434
 20
951.6429692669346
 30
0.0
 11
774.232483978788
 21
951.5132807755648
 31
0.0
  0
LINE
  5
8E1
330
2
100
AcDbEntity
  8
6-家具-143
 62
   143
100
AcDbLine
 10
774.232483978788
 20
951.5132807755648
 30
0.0
 11
773.9728852224275
 21
950.4757728445149
 31
0.0
  0
LINE
  5
8E2
330
2
100
AcDbEntity
  8
6-家具-143
 62
   143
100
AcDbLine
 10
773.9728852224275
 20
950.4757728445149
 30
0.0
 11
772.2854933061028
 21
949.9570188790134
 31
0.0
  0
LINE
  5
8E3
330
2
100
AcDbEntity
  8
6-家具-143
 62
   143
100
AcDbLine
 10
771.8855712583376
 20
949.8413510059279
 30
0.0
 11
771.2014934596346
 21
946.8795462929218
 31
0.0
  0
LINE
  5
8E4
330
2
100
AcDbEntity
  8
6-家具-143
 62
   143
100
AcDbLine
 10
771.2014934596346
 20
946.8795462929218
 30
0.0
 11
768.6932081977112
 21
947.790870820013
 31
0.0
  0
LINE
  5
8E5
330
2
100
AcDbEntity
  8
6-家具-143
 62
   143
100
AcDbLine
 10
731.2969552017254
 20
948.4743642153027
 30
0.0
 11
734.7173441952529
 21
950.7526755329958
 31
0.0
  0
LINE
  5
8E6
330
2
100
AcDbEntity
  8
6-家具-143
 62
   143
100
AcDbLine
 10
734.7173441952529
 20
950.7526755329958
 30
0.0
 11
739.2778628532981
 21
954.6258047730468
 31
0.0
  0
LINE
  5
8E7
330
2
100
AcDbEntity
  8
6-家具-143
 62
   143
100
AcDbLine
 10
730.3848514701095
 20
947.790870820013
 30
0.0
 11
732.8931367320332
 21
947.5630396882346
 31
0.0
  0
LINE
  5
8E8
330
2
100
AcDbEntity
  8
6-家具-143
 62
   143
100
AcDbLine
 10
732.8931367320332
 20
947.5630396882346
 30
0.0
 11
736.9976035242758
 21
949.6135198741493
 31
0.0
  0
LINE
  5
8E9
330
2
100
AcDbEntity
  8
6-家具-143
 62
   143
100
AcDbLine
 10
736.9976035242758
 20
949.6135198741493
 30
0.0
 11
740.1899665849141
 21
950.297013269462
 31
0.0
  0
LINE
  5
8EA
330
2
100
AcDbEntity
  8
6-家具-143
 62
   143
100
AcDbLine
 10
757.6877407057184
 20
1043.96657011074
 30
-0.000000000000001
 11
757.219995202226
 21
1044.433916022144
 31
0.0000000000000018
  0
LINE
  5
8EB
330
2
100
AcDbEntity
  8
6-家具-143
 62
   143
100
AcDbLine
 10
757.219995202226
 20
1044.433916022144
 30
0.0000000000000018
 11
756.378053295947
 21
1044.153508475286
 31
0.000000000000002
  0
LINE
  5
8EC
330
2
100
AcDbEntity
  8
6-家具-143
 62
   143
100
AcDbLine
 10
763.1135885462022
 20
1044.527385204428
 30
-0.0000000000000009
 11
762.5522939420161
 21
1044.714323568999
 31
-0.0000000000000013
  0
LINE
  5
8ED
330
2
100
AcDbEntity
  8
6-家具-143
 62
   143
100
AcDbLine
 10
762.5522939420161
 20
1044.714323568999
 30
-0.0000000000000013
 11
761.9909993378301
 21
1044.060039293001
 31
0.0000000000000007
  0
LINE
  5
8EE
330
2
100
AcDbEntity
  8
6-家具-143
 62
   143
100
AcDbLine
 10
764.9845700581646
 20
1045.64901530303
 30
0.0
 11
762.832940742103
 21
1046.116361214457
 31
0.0
  0
LINE
  5
8EF
330
2
100
AcDbEntity
  8
6-家具-143
 62
   143
100
AcDbLine
 10
762.832940742103
 20
1046.116361214457
 30
0.0
 11
760.6813114260528
 21
1045.275138573887
 31
0.0
  0
LINE
  5
8F0
330
2
100
AcDbEntity
  8
6-家具-143
 62
   143
100
AcDbLine
 10
764.3297268552795
 20
1044.807792751285
 30
0.0
 11
762.178097539218
 21
1044.90126193357
 31
0.0
  0
LINE
  5
8F1
330
2
100
AcDbEntity
  8
6-家具-143
 62
   143
100
AcDbLine
 10
762.178097539218
 20
1044.90126193357
 30
0.0
 11
760.6813119280592
 21
1044.340446839857
 31
0.0
  0
LINE
  5
8F2
330
2
100
AcDbEntity
  8
6-家具-143
 62
   143
100
AcDbLine
 10
760.6813119280592
 20
1044.340446839857
 30
0.0
 11
761.055508330846
 21
1043.779631746168
 31
0.0
  0
LINE
  5
8F3
330
2
100
AcDbEntity
  8
6-家具-143
 62
   143
100
AcDbLine
 10
761.055508330846
 20
1043.779631746168
 30
0.0
 11
762.084548438524
 21
1043.873100928453
 31
0.0
  0
LINE
  5
8F4
330
2
100
AcDbEntity
  8
6-家具-143
 62
   143
100
AcDbLine
 10
762.084548438524
 20
1043.873100928453
 30
0.0
 11
763.8619813517874
 21
1044.340446839857
 31
0.0
  0
LINE
  5
8F5
330
2
100
AcDbEntity
  8
6-家具-143
 62
   143
100
AcDbLine
 10
758.6232314702328
 20
1045.181669621778
 30
0.0
 11
757.4070934009829
 21
1046.116361151872
 31
0.0
  0
LINE
  5
8F6
330
2
100
AcDbEntity
  8
6-家具-143
 62
   143
100
AcDbLine
 10
757.4070934009829
 20
1046.116361151872
 30
0.0
 11
754.5070713344353
 21
1045.835953866531
 31
0.0
  0
LINE
  5
8F7
330
2
100
AcDbEntity
  8
6-家具-143
 62
   143
100
AcDbLine
 10
754.5070713344353
 20
1045.835953866531
 30
0.0
 11
754.039325406388
 21
1045.088200381937
 31
0.0
  0
LINE
  5
8F8
330
2
100
AcDbEntity
  8
6-家具-143
 62
   143
100
AcDbLine
 10
754.8812676847769
 20
1044.90126193357
 30
0.0
 11
756.0974059938541
 21
1044.994731115856
 31
0.0
  0
LINE
  5
8F9
330
2
100
AcDbEntity
  8
6-家具-143
 62
   143
100
AcDbLine
 10
756.0974059938541
 20
1044.994731115856
 30
0.0
 11
757.6877407057184
 21
1044.807792751285
 31
0.0
  0
LINE
  5
8FA
330
2
100
AcDbEntity
  8
6-家具-143
 62
   143
100
AcDbLine
 10
757.6877407057184
 20
1044.807792751285
 30
0.0
 11
758.4361335113036
 21
1044.340446839857
 31
0.0
  0
LINE
  5
8FB
330
2
100
AcDbEntity
  8
6-家具-143
 62
   143
100
AcDbLine
 10
758.4361335113036
 20
1044.340446839857
 30
0.0
 11
757.9683880078116
 21
1043.779631746168
 31
0.0
  0
LINE
  5
8FC
330
2
100
AcDbEntity
  8
6-家具-143
 62
   143
100
AcDbLine
 10
757.9683880078116
 20
1043.779631746168
 30
0.0
 11
756.7522496987339
 21
1043.686162563882
 31
0.0
  0
LINE
  5
8FD
330
2
100
AcDbEntity
  8
6-家具-143
 62
   143
100
AcDbLine
 10
756.7522496987339
 20
1043.686162563882
 30
0.0
 11
754.8812676847769
 21
1044.340446839857
 31
0.0
  0
LINE
  5
8FE
330
2
100
AcDbEntity
  8
6-家具-143
 62
   143
100
AcDbLine
 10
762.2716466399231
 20
1037.049850621706
 30
0.0
 11
760.6813119280592
 21
1037.517196533134
 31
0.0
  0
LINE
  5
8FF
330
2
100
AcDbEntity
  8
6-家具-143
 62
   143
100
AcDbLine
 10
760.6813119280592
 20
1037.517196533134
 30
0.0
 11
759.8393700217685
 21
1037.423727350848
 31
0.0
  0
LINE
  5
900
330
2
100
AcDbEntity
  8
6-家具-143
 62
   143
100
AcDbLine
 10
759.8393700217685
 20
1037.423727350848
 30
0.0
 11
757.8748389071174
 21
1037.143319803992
 31
0.0
  0
LINE
  5
901
330
2
100
AcDbEntity
  8
6-家具-143
 62
   143
100
AcDbLine
 10
761.6168029350317
 20
1039.666987725653
 30
0.0
 11
761.3361556329387
 21
1039.199641814249
 31
0.0
  0
LINE
  5
902
330
2
100
AcDbEntity
  8
6-家具-143
 62
   143
100
AcDbLine
 10
761.3361556329387
 20
1039.199641814249
 30
0.0
 11
759.2780754175824
 21
1039.293110996534
 31
0.0
  0
LINE
  5
903
330
2
100
AcDbEntity
  8
6-家具-143
 62
   143
100
AcDbLine
 10
759.2780754175824
 20
1039.293110996534
 30
0.0
 11
758.2490353099042
 21
1039.760456907963
 31
0.0
  0
LINE
  5
904
330
2
100
AcDbEntity
  8
6-家具-143
 62
   143
100
AcDbLine
 10
748.8941252401069
 20
1045.55554620957
 30
0.0
 11
748.426379736615
 21
1046.209830485544
 31
0.0
  0
LINE
  5
905
330
2
100
AcDbEntity
  8
6-家具-143
 62
   143
100
AcDbLine
 10
748.426379736615
 20
1046.209830485544
 30
0.0
 11
747.5844378303358
 21
1046.4902380324
 31
0.0
  0
LINE
  5
906
330
2
100
AcDbEntity
  8
6-家具-143
 62
   143
100
AcDbLine
 10
747.5844378303358
 20
1046.4902380324
 30
0.0
 11
746.9295941254444
 21
1045.835953756403
 31
0.0
  0
LINE
  5
907
330
2
100
AcDbEntity
  8
6-家具-143
 62
   143
100
AcDbLine
 10
746.9295941254444
 20
1045.835953756403
 30
0.0
 11
746.5553977226576
 21
1044.90126193357
 31
0.0
  0
LINE
  5
908
330
2
100
AcDbEntity
  8
6-家具-143
 62
   143
100
AcDbLine
 10
746.5553977226576
 20
1044.90126193357
 30
0.0
 11
746.8360450247509
 21
1043.12534747017
 31
0.0
  0
LINE
  5
909
330
2
100
AcDbEntity
  8
6-家具-143
 62
   143
100
AcDbLine
 10
746.8360450247509
 20
1043.12534747017
 30
0.0
 11
747.3973396289369
 21
1041.816778918196
 31
0.0
  0
LINE
  5
90A
330
2
100
AcDbEntity
  8
6-家具-143
 62
   143
100
AcDbLine
 10
747.3973396289369
 20
1041.816778918196
 30
0.0
 11
748.426379736615
 21
1040.695148730793
 31
0.0
  0
LINE
  5
90B
330
2
100
AcDbEntity
  8
6-家具-143
 62
   143
100
AcDbLine
 10
748.426379736615
 20
1040.695148730793
 30
0.0
 11
749.0812234415064
 21
1039.853926090224
 31
0.0
  0
LINE
  5
90C
330
2
100
AcDbEntity
  8
6-家具-143
 62
   143
100
AcDbLine
 10
749.0812234415064
 20
1039.853926090224
 30
0.0
 11
749.6425180456923
 21
1039.573518543392
 31
0.0
  0
LINE
  5
90D
330
2
100
AcDbEntity
  8
6-家具-143
 62
   143
100
AcDbLine
 10
749.6425180456923
 20
1039.573518543392
 30
0.0
 11
749.8296162470914
 21
1040.13433363708
 31
0.0
  0
LINE
  5
90E
330
2
100
AcDbEntity
  8
6-家具-143
 62
   143
100
AcDbLine
 10
760.961959230152
 20
1036.395566345731
 30
0.0
 11
759.2780754175824
 21
1036.302097163446
 31
0.0
  0
LINE
  5
90F
330
2
100
AcDbEntity
  8
6-家具-143
 62
   143
100
AcDbLine
 10
762.5522939420161
 20
1032.189453142954
 30
0.0
 11
762.6458430427101
 21
1031.909045596099
 31
0.0
  0
LINE
  5
910
330
2
100
AcDbEntity
  8
6-家具-143
 62
   143
100
AcDbLine
 10
762.6458430427101
 20
1031.909045596099
 30
0.0
 11
760.4942137266598
 21
1031.628638049242
 31
0.0
  0
LINE
  5
911
330
2
100
AcDbEntity
  8
6-家具-143
 62
   143
100
AcDbLine
 10
749.6425180456923
 20
1032.750268236644
 30
0.0
 11
749.2683216428938
 21
1032.189453142954
 31
0.0
  0
LINE
  5
912
330
2
100
AcDbEntity
  8
6-家具-143
 62
   143
100
AcDbLine
 10
749.2683216428938
 20
1032.189453142954
 30
0.0
 11
752.3554419659283
 21
1031.722107231527
 31
0.0
  0
LINE
  5
913
330
2
100
AcDbEntity
  8
6-家具-143
 62
   143
100
AcDbLine
 10
752.3554419659283
 20
1031.722107231527
 30
0.0
 11
755.9103077924549
 21
1031.722107231527
 31
0.0
  0
LINE
  5
914
330
2
100
AcDbEntity
  8
6-家具-143
 62
   143
100
AcDbLine
 10
760.5877628273535
 20
1030.039661950413
 30
0.0
 11
759.1845263168887
 21
1026.955178935037
 31
0.0
  0
LINE
  5
915
330
2
100
AcDbEntity
  8
6-家具-143
 62
   143
100
AcDbLine
 10
759.1845263168887
 20
1026.955178935037
 30
0.0
 11
758.5296826119972
 21
1026.394363841348
 31
0.0
  0
LINE
  5
916
330
2
100
AcDbEntity
  8
6-家具-143
 62
   143
100
AcDbLine
 10
758.5296826119972
 20
1026.394363841348
 30
0.0
 11
756.8457987994393
 21
1027.048648117323
 31
0.0
  0
LINE
  5
917
330
2
100
AcDbEntity
  8
6-家具-143
 62
   143
100
AcDbLine
 10
756.8457987994393
 20
1027.048648117323
 30
0.0
 11
755.7232095910559
 21
1029.759254403555
 31
0.0
  0
LINE
  5
918
330
2
100
AcDbEntity
  8
6-家具-143
 62
   143
100
AcDbLine
 10
761.8974502371247
 20
1032.563329872073
 30
0.0
 11
762.7393921434155
 21
1032.563329872073
 31
0.0
  0
LINE
  5
919
330
2
100
AcDbEntity
  8
6-家具-143
 62
   143
100
AcDbLine
 10
762.7393921434155
 20
1032.563329872073
 30
0.0
 11
763.394235848295
 21
1032.09598396067
 31
0.0
  0
LINE
  5
91A
330
2
100
AcDbEntity
  8
6-家具-143
 62
   143
100
AcDbLine
 10
763.394235848295
 20
1032.09598396067
 30
0.0
 11
764.7974723587719
 21
1026.207425476777
 31
0.0
  0
LINE
  5
91B
330
2
100
AcDbEntity
  8
6-家具-143
 62
   143
100
AcDbLine
 10
764.7974723587719
 20
1026.207425476777
 30
0.0
 11
761.1490574315396
 21
1030.039661950413
 31
0.0
  0
LINE
  5
91C
330
2
100
AcDbEntity
  8
6-家具-143
 62
   143
100
AcDbLine
 10
761.1490574315396
 20
1030.039661950413
 30
0.0
 11
759.5587227196753
 21
1031.535168866956
 31
0.0
  0
LINE
  5
91D
330
2
100
AcDbEntity
  8
6-家具-143
 62
   143
100
AcDbLine
 10
759.5587227196753
 20
1031.535168866956
 30
0.0
 11
756.378053295947
 21
1031.441699684672
 31
0.0
  0
LINE
  5
91E
330
2
100
AcDbEntity
  8
6-家具-143
 62
   143
100
AcDbLine
 10
756.378053295947
 20
1031.441699684672
 30
0.0
 11
752.4489910666341
 21
1025.553141200778
 31
0.0
  0
LINE
  5
91F
330
2
100
AcDbEntity
  8
6-家具-143
 62
   143
100
AcDbLine
 10
752.4489910666341
 20
1025.553141200778
 30
0.0
 11
749.2683216428938
 21
1027.609463211036
 31
0.0
  0
LINE
  5
920
330
2
100
AcDbEntity
  8
6-家具-143
 62
   143
100
AcDbLine
 10
749.2683216428938
 20
1027.609463211036
 30
0.0
 11
747.3973396289369
 21
1028.824562580725
 31
0.0
  0
LINE
  5
921
330
2
100
AcDbEntity
  8
6-家具-143
 62
   143
100
AcDbLine
 10
747.3973396289369
 20
1028.824562580725
 30
0.0
 11
747.9586342331225
 21
1030.69394622641
 31
0.0
  0
LINE
  5
922
330
2
100
AcDbEntity
  8
6-家具-143
 62
   143
100
AcDbLine
 10
747.9586342331225
 20
1030.69394622641
 30
0.0
 11
748.2392815352156
 21
1032.843737418929
 31
0.0
  0
LINE
  5
923
330
2
100
AcDbEntity
  8
6-家具-143
 62
   143
100
AcDbLine
 10
748.2392815352156
 20
1032.843737418929
 30
0.0
 11
749.1747725422002
 21
1032.750268236644
 31
0.0
  0
LINE
  5
924
330
2
100
AcDbEntity
  8
6-家具-143
 62
   143
100
AcDbLine
 10
748.0521833338281
 20
1040.882087095364
 30
0.0
 11
748.9876743408008
 21
1038.545357538251
 31
0.0
  0
LINE
  5
925
330
2
100
AcDbEntity
  8
6-家具-143
 62
   143
100
AcDbLine
 10
748.9876743408008
 20
1038.545357538251
 30
0.0
 11
749.3618707435993
 21
1034.806590246901
 31
0.0
  0
LINE
  5
926
330
2
100
AcDbEntity
  8
6-家具-143
 62
   143
100
AcDbLine
 10
749.3618707435993
 20
1034.806590246901
 30
0.0
 11
749.5489689449868
 21
1032.750268236644
 31
0.0
  0
LINE
  5
927
330
2
100
AcDbEntity
  8
6-家具-143
 62
   143
100
AcDbLine
 10
764.703923258066
 20
1052.752673245434
 30
0.0
 11
764.1426286538805
 21
1053.406957521409
 31
0.0
  0
LINE
  5
928
330
2
100
AcDbEntity
  8
6-家具-143
 62
   143
100
AcDbLine
 10
764.1426286538805
 20
1053.406957521409
 30
0.0
 11
760.213566424567
 21
1053.59389588598
 31
0.0
  0
LINE
  5
929
330
2
100
AcDbEntity
  8
6-家具-143
 62
   143
100
AcDbLine
 10
760.213566424567
 20
1053.59389588598
 30
0.0
 11
755.8167586917614
 21
1053.500426703696
 31
0.0
  0
LINE
  5
92A
330
2
100
AcDbEntity
  8
6-家具-143
 62
   143
100
AcDbLine
 10
755.8167586917614
 20
1053.500426703696
 30
0.0
 11
753.7586784764049
 21
1053.126549974553
 31
0.0
  0
LINE
  5
92B
330
2
100
AcDbEntity
  8
6-家具-143
 62
   143
100
AcDbLine
 10
753.7586784764049
 20
1053.126549974553
 30
0.0
 11
751.7005982610486
 21
1052.285327334008
 31
0.0
  0
LINE
  5
92C
330
2
100
AcDbEntity
  8
6-家具-143
 62
   143
100
AcDbLine
 10
751.7005982610486
 20
1052.285327334008
 30
0.0
 11
750.6715581533704
 21
1050.229005323749
 31
0.0
  0
LINE
  5
92D
330
2
100
AcDbEntity
  8
6-家具-143
 62
   143
100
AcDbLine
 10
750.6715581533704
 20
1050.229005323749
 30
0.0
 11
750.2973617505721
 21
1048.266152495778
 31
0.0
  0
LINE
  5
92E
330
2
100
AcDbEntity
  8
6-家具-143
 62
   143
100
AcDbLine
 10
750.2973617505721
 20
1048.266152495778
 30
0.0
 11
749.2683216428938
 21
1047.331460672946
 31
0.0
  0
LINE
  5
92F
330
2
100
AcDbEntity
  8
6-家具-143
 62
   143
100
AcDbLine
 10
749.2683216428938
 20
1047.331460672946
 30
0.0
 11
749.2683216428938
 21
1046.4902380324
 31
0.0
  0
LINE
  5
930
330
2
100
AcDbEntity
  8
6-家具-143
 62
   143
100
AcDbLine
 10
749.2683216428938
 20
1046.4902380324
 30
0.0
 11
748.8941252401069
 21
1046.303299667829
 31
0.0
  0
LINE
  5
931
330
2
100
AcDbEntity
  8
6-家具-143
 62
   143
100
AcDbLine
 10
760.961959230152
 20
1032.002514778384
 30
0.0
 11
761.6168029350317
 21
1033.030675783501
 31
0.0
  0
LINE
  5
932
330
2
100
AcDbEntity
  8
6-家具-143
 62
   143
100
AcDbLine
 10
761.6168029350317
 20
1033.030675783501
 30
0.0
 11
762.5522939420161
 21
1033.217614148071
 31
0.0
  0
LINE
  5
933
330
2
100
AcDbEntity
  8
6-家具-143
 62
   143
100
AcDbLine
 10
762.5522939420161
 20
1033.217614148071
 30
0.0
 11
763.5813340496942
 21
1034.432713517759
 31
0.0
  0
LINE
  5
934
330
2
100
AcDbEntity
  8
6-家具-143
 62
   143
100
AcDbLine
 10
763.5813340496942
 20
1034.432713517759
 30
0.0
 11
764.7974723587719
 21
1036.862912257135
 31
0.0
  0
LINE
  5
935
330
2
100
AcDbEntity
  8
6-家具-143
 62
   143
100
AcDbLine
 10
764.7974723587719
 20
1036.862912257135
 30
0.0
 11
765.8265124664499
 21
1041.255963824483
 31
0.0
  0
LINE
  5
936
330
2
100
AcDbEntity
  8
6-家具-143
 62
   143
100
AcDbLine
 10
765.8265124664499
 20
1041.255963824483
 30
0.0
 11
765.0781196608646
 21
1044.153508475286
 31
0.0
  0
LINE
  5
937
330
2
100
AcDbEntity
  8
6-家具-143
 62
   143
100
AcDbLine
 10
765.0781196608646
 20
1044.153508475286
 30
0.0
 11
765.6394142650507
 21
1045.368607844999
 31
0.0
  0
LINE
  5
938
330
2
100
AcDbEntity
  8
6-家具-143
 62
   143
100
AcDbLine
 10
765.6394142650507
 20
1045.368607844999
 30
0.0
 11
765.6394142650507
 21
1048.172683313515
 31
0.0
  0
LINE
  5
939
330
2
100
AcDbEntity
  8
6-家具-143
 62
   143
100
AcDbLine
 10
765.6394142650507
 20
1048.172683313515
 30
0.0
 11
764.8910214594654
 21
1052.472265698578
 31
0.0
  0
LINE
  5
93A
330
2
100
AcDbEntity
  8
6-家具-143
 62
   143
100
AcDbLine
 10
764.8910214594654
 20
1052.472265698578
 30
0.0
 11
765.0781196608646
 21
1054.622056891098
 31
0.0
  0
LINE
  5
93B
330
2
100
AcDbEntity
  8
6-家具-143
 62
   143
100
AcDbLine
 10
765.0781196608646
 20
1054.622056891098
 30
0.0
 11
763.7684322510936
 21
1055.930625443072
 31
0.0
  0
LINE
  5
93C
330
2
100
AcDbEntity
  8
6-家具-143
 62
   143
100
AcDbLine
 10
763.7684322510936
 20
1055.930625443072
 30
0.0
 11
758.8103299140903
 21
1056.77184808364
 31
0.0
  0
LINE
  5
93D
330
2
100
AcDbEntity
  8
6-家具-143
 62
   143
100
AcDbLine
 10
758.8103299140903
 20
1056.77184808364
 30
0.0
 11
751.6070491603433
 21
1056.397971354498
 31
0.0
  0
LINE
  5
93E
330
2
100
AcDbEntity
  8
6-家具-143
 62
   143
100
AcDbLine
 10
751.6070491603433
 20
1056.397971354498
 30
0.0
 11
748.8005761394133
 21
1055.650217896214
 31
0.0
  0
LINE
  5
93F
330
2
100
AcDbEntity
  8
6-家具-143
 62
   143
100
AcDbLine
 10
748.8005761394133
 20
1055.650217896214
 30
0.0
 11
747.303790528243
 21
1053.033080792267
 31
0.0
  0
LINE
  5
940
330
2
100
AcDbEntity
  8
6-家具-143
 62
   143
100
AcDbLine
 10
747.303790528243
 20
1053.033080792267
 30
0.0
 11
746.5553977226576
 21
1050.229005323749
 31
0.0
  0
LINE
  5
941
330
2
100
AcDbEntity
  8
6-家具-143
 62
   143
100
AcDbLine
 10
746.5553977226576
 20
1050.229005323749
 30
0.0
 11
746.9295941254444
 21
1047.892275766659
 31
0.0
  0
LINE
  5
942
330
2
100
AcDbEntity
  8
6-家具-143
 62
   143
100
AcDbLine
 10
746.9295941254444
 20
1047.892275766659
 30
0.0
 11
747.5844378303358
 21
1046.583707214686
 31
0.0
  0
LINE
  5
943
330
2
100
AcDbEntity
  8
6-家具-143
 62
   143
100
AcDbLine
 10
749.5390298339047
 20
997.2302264136997
 30
0.0
 11
745.8906149074758
 21
997.6858886772335
 31
0.0
  0
LINE
  5
944
330
2
100
AcDbEntity
  8
6-家具-143
 62
   143
100
AcDbLine
 10
745.8906149074758
 20
997.6858886772335
 30
0.0
 11
741.1020703165181
 21
999.9641999949275
 31
0.0
  0
LINE
  5
945
330
2
100
AcDbEntity
  8
6-家具-143
 62
   143
100
AcDbLine
 10
741.1020703165181
 20
999.9641999949275
 30
0.0
 11
738.3657591216937
 21
999.9641999949275
 31
0.0
  0
LINE
  5
946
330
2
100
AcDbEntity
  8
6-家具-143
 62
   143
100
AcDbLine
 10
738.3657591216937
 20
999.9641999949275
 30
0.0
 11
739.9619406520127
 21
1000.419862258461
 31
0.0
  0
LINE
  5
947
330
2
100
AcDbEntity
  8
6-家具-143
 62
   143
100
AcDbLine
 10
739.9619406520127
 20
1000.419862258461
 30
0.0
 11
738.1377331887927
 21
1008.393951870341
 31
0.0
  0
LINE
  5
948
330
2
100
AcDbEntity
  8
6-家具-143
 62
   143
100
AcDbLine
 10
738.1377331887927
 20
1008.393951870341
 30
0.0
 11
740.6460184507161
 21
1006.79913394796
 31
0.0
  0
LINE
  5
949
330
2
100
AcDbEntity
  8
6-家具-143
 62
   143
100
AcDbLine
 10
764.5887414054684
 20
978.5480736087116
 30
0.0
 11
760.940326479028
 21
977.6367490816435
 31
0.0
  0
LINE
  5
94A
330
2
100
AcDbEntity
  8
6-家具-143
 62
   143
100
AcDbLine
 10
760.940326479028
 20
977.6367490816435
 30
0.0
 11
756.3798078209835
 21
978.3202424769566
 31
0.0
  0
LINE
  5
94B
330
2
100
AcDbEntity
  8
6-家具-143
 62
   143
100
AcDbLine
 10
749.0514046120663
 20
995.9964333184567
 30
0.0
 11
749.9600002593101
 21
996.1261218098266
 31
0.0
  0
LINE
  5
94C
330
2
100
AcDbEntity
  8
6-家具-143
 62
   143
100
AcDbLine
 10
749.9600002593101
 20
996.1261218098266
 30
0.0
 11
750.8685959065656
 21
998.3308261632727
 31
0.0
  0
LINE
  5
94D
330
2
100
AcDbEntity
  8
6-家具-143
 62
   143
100
AcDbLine
 10
750.8685959065656
 20
998.3308261632727
 30
0.0
 11
752.1665896883558
 21
999.7573995684547
 31
0.0
  0
LINE
  5
94E
330
2
100
AcDbEntity
  8
6-家具-143
 62
   143
100
AcDbLine
 10
752.1665896883558
 20
999.7573995684547
 30
0.0
 11
753.3347840919714
 21
999.7573995684547
 31
0.0
  0
LINE
  5
94F
330
2
100
AcDbEntity
  8
6-家具-143
 62
   143
100
AcDbLine
 10
753.3347840919714
 20
999.7573995684547
 30
0.0
 11
755.1519753864706
 21
1000.146465042586
 31
0.0
  0
LINE
  5
950
330
2
100
AcDbEntity
  8
6-家具-143
 62
   143
100
AcDbLine
 10
755.1519753864706
 20
1000.146465042586
 30
0.0
 11
755.6711728991914
 21
999.2386456029295
 31
0.0
  0
LINE
  5
951
330
2
100
AcDbEntity
  8
6-家具-143
 62
   143
100
AcDbLine
 10
755.6711728991914
 20
999.2386456029295
 30
0.0
 11
755.2817747646566
 21
998.2011376719027
 31
0.0
  0
LINE
  5
952
330
2
100
AcDbEntity
  8
6-家具-143
 62
   143
100
AcDbLine
 10
755.2817747646566
 20
998.2011376719027
 30
0.0
 11
753.8539816046805
 21
997.5526952150085
 31
0.0
  0
LINE
  5
953
330
2
100
AcDbEntity
  8
6-家具-143
 62
   143
100
AcDbLine
 10
753.8539816046805
 20
997.5526952150085
 30
0.0
 11
752.9453859574369
 21
996.3854987925886
 31
0.0
  0
LINE
  5
954
330
2
100
AcDbEntity
  8
6-家具-143
 62
   143
100
AcDbLine
 10
752.9453859574369
 20
996.3854987925886
 30
0.0
 11
754.5029784955755
 21
994.6995484046674
 31
0.0
  0
LINE
  5
955
330
2
100
AcDbEntity
  8
6-家具-143
 62
   143
100
AcDbLine
 10
754.5029784955755
 20
994.6995484046674
 30
0.0
 11
757.747962950051
 21
992.7542210339836
 31
0.0
  0
LINE
  5
956
330
2
100
AcDbEntity
  8
6-家具-143
 62
   143
100
AcDbLine
 10
757.747962950051
 20
992.7542210339836
 30
0.0
 11
758.0075617064112
 21
991.3276476288256
 31
0.0
  0
LINE
  5
957
330
2
100
AcDbEntity
  8
6-家具-143
 62
   143
100
AcDbLine
 10
758.0075617064112
 20
991.3276476288256
 30
0.0
 11
756.7095679246212
 21
991.0682706460624
 31
0.0
  0
LINE
  5
958
330
2
100
AcDbEntity
  8
6-家具-143
 62
   143
100
AcDbLine
 10
756.7095679246212
 20
991.0682706460624
 30
0.0
 11
758.6565585973062
 21
989.1229432753785
 31
0.0
  0
LINE
  5
959
330
2
100
AcDbEntity
  8
6-家具-143
 62
   143
100
AcDbLine
 10
758.6565585973062
 20
989.1229432753785
 30
0.0
 11
758.5267592191321
 21
988.3448123271145
 31
0.0
  0
LINE
  5
95A
330
2
100
AcDbEntity
  8
6-家具-143
 62
   143
100
AcDbLine
 10
758.5267592191321
 20
988.3448123271145
 30
0.0
 11
757.877762328237
 21
987.8260583615896
 31
0.0
  0
LINE
  5
95B
330
2
100
AcDbEntity
  8
6-家具-143
 62
   143
100
AcDbLine
 10
757.877762328237
 20
987.8260583615896
 30
0.0
 11
758.5267592191321
 21
986.7885504305636
 31
0.0
  0
LINE
  5
95C
330
2
100
AcDbEntity
  8
6-家具-143
 62
   143
100
AcDbLine
 10
758.5267592191321
 20
986.7885504305636
 30
0.0
 11
757.747962950051
 21
986.0104194822994
 31
0.0
  0
LINE
  5
95D
330
2
100
AcDbEntity
  8
6-家具-143
 62
   143
100
AcDbLine
 10
757.747962950051
 20
986.0104194822994
 30
0.0
 11
758.0075617064112
 21
984.5838460771407
 31
0.0
  0
LINE
  5
95E
330
2
100
AcDbEntity
  8
6-家具-143
 62
   143
100
AcDbLine
 10
758.0075617064112
 20
984.5838460771407
 30
0.0
 11
757.3585648155163
 21
983.6760266374836
 31
0.0
  0
LINE
  5
95F
330
2
100
AcDbEntity
  8
6-家具-143
 62
   143
100
AcDbLine
 10
757.3585648155163
 20
983.6760266374836
 30
0.0
 11
755.6711728991914
 21
984.1947806029846
 31
0.0
  0
LINE
  5
960
330
2
100
AcDbEntity
  8
6-家具-143
 62
   143
100
AcDbLine
 10
755.6711728991914
 20
984.1947806029846
 30
0.0
 11
752.8155865792508
 21
986.5291734478246
 31
0.0
  0
LINE
  5
961
330
2
100
AcDbEntity
  8
6-家具-143
 62
   143
100
AcDbLine
 10
752.8155865792508
 20
986.5291734478246
 30
0.0
 11
751.1281946629259
 21
989.1229432753785
 31
0.0
  0
LINE
  5
962
330
2
100
AcDbEntity
  8
6-家具-143
 62
   143
100
AcDbLine
 10
751.1281946629259
 20
989.1229432753785
 30
0.0
 11
749.0514046120663
 21
990.5495166805605
 31
0.0
  0
LINE
  5
963
330
2
100
AcDbEntity
  8
6-家具-143
 62
   143
100
AcDbLine
 10
749.0514046120663
 20
990.5495166805605
 30
0.0
 11
746.974614561195
 21
990.0307627150354
 31
0.0
  0
LINE
  5
964
330
2
100
AcDbEntity
  8
6-家具-143
 62
   143
100
AcDbLine
 10
748.398900169399
 20
988.5726434065066
 30
0.0
 11
746.3466667732777
 21
989.7117990653537
 31
0.0
  0
LINE
  5
965
330
2
100
AcDbEntity
  8
6-家具-143
 62
   143
100
AcDbLine
 10
746.3466667732777
 20
989.7117990653537
 30
0.0
 11
745.434563041662
 21
992.9014349101146
 31
0.0
  0
LINE
  5
966
330
2
100
AcDbEntity
  8
6-家具-143
 62
   143
100
AcDbLine
 10
745.434563041662
 20
992.9014349101146
 30
0.0
 11
746.1186408403769
 21
995.8632396230976
 31
0.0
  0
LINE
  5
967
330
2
100
AcDbEntity
  8
6-家具-143
 62
   143
100
AcDbLine
 10
746.1186408403769
 20
995.8632396230976
 30
0.0
 11
748.1708742364981
 21
997.0023952819447
 31
0.0
  0
LINE
  5
968
330
2
100
AcDbEntity
  8
6-家具-143
 62
   143
100
AcDbLine
 10
748.1708742364981
 20
997.0023952819447
 30
0.0
 11
749.5390298339047
 21
997.2302264136997
 31
0.0
  0
LINE
  5
969
330
2
100
AcDbEntity
  8
6-家具-143
 62
   143
100
AcDbLine
 10
757.1824749757394
 20
1026.097169952214
 30
0.0
 11
757.9540361477736
 21
1017.231800623497
 31
0.0
  0
LINE
  5
96A
330
2
100
AcDbEntity
  8
6-家具-143
 62
   143
100
AcDbLine
 10
757.9540361477736
 20
1017.231800623497
 30
0.0
 11
757.3753652687506
 21
1005.47554972838
 31
0.0
  0
LINE
  5
96B
330
2
100
AcDbEntity
  8
6-家具-143
 62
   143
100
AcDbLine
 10
757.3753652687506
 20
1005.47554972838
 30
0.0
 11
757.1824749757394
 21
1000.27196328191
 31
0.0
  0
LINE
  5
96C
330
2
100
AcDbEntity
  8
6-家具-143
 62
   143
100
AcDbLine
 10
757.1824749757394
 20
1000.27196328191
 30
0.0
 11
756.0251339390613
 21
994.8756517395887
 31
0.0
  0
LINE
  5
96D
330
2
100
AcDbEntity
  8
6-家具-143
 62
   143
100
AcDbLine
 10
743.8383815113541
 20
1027.303935807108
 30
0.0
 11
744.5224593100576
 21
1023.430806567057
 31
0.0
  0
LINE
  5
96E
330
2
100
AcDbEntity
  8
6-家具-143
 62
   143
100
AcDbLine
 10
744.5224593100576
 20
1023.430806567057
 30
0.0
 11
747.486796437783
 21
1021.835988644677
 31
0.0
  0
LINE
  5
96F
330
2
100
AcDbEntity
  8
6-家具-143
 62
   143
100
AcDbLine
 10
747.486796437783
 20
1021.835988644677
 30
0.0
 11
744.750485242959
 21
1020.69683298583
 31
0.0
  0
LINE
  5
970
330
2
100
AcDbEntity
  8
6-家具-143
 62
   143
100
AcDbLine
 10
744.750485242959
 20
1020.69683298583
 30
0.0
 11
747.486796437783
 21
1017.279366009313
 31
0.0
  0
LINE
  5
971
330
2
100
AcDbEntity
  8
6-家具-143
 62
   143
100
AcDbLine
 10
747.486796437783
 20
1017.279366009313
 30
0.0
 11
749.3110039010034
 21
1009.988769792723
 31
0.0
  0
LINE
  5
972
330
2
100
AcDbEntity
  8
6-家具-143
 62
   143
100
AcDbLine
 10
749.3110039010034
 20
1009.988769792723
 30
0.0
 11
750.9071854313226
 21
1000.192031126682
 31
0.0
  0
LINE
  5
973
330
2
100
AcDbEntity
  8
6-家具-143
 62
   143
100
AcDbLine
 10
747.714822370696
 20
1029.126584861268
 30
0.0
 11
751.591263230026
 21
1021.152495249364
 31
0.0
  0
LINE
  5
974
330
2
100
AcDbEntity
  8
6-家具-143
 62
   143
100
AcDbLine
 10
751.591263230026
 20
1021.152495249364
 30
0.0
 11
754.5556003577631
 21
1014.31756129633
 31
0.0
  0
LINE
  5
975
330
2
100
AcDbEntity
  8
6-家具-143
 62
   143
100
AcDbLine
 10
754.5556003577631
 20
1014.31756129633
 30
0.0
 11
755.2396781564661
 21
1005.432147157358
 31
0.0
  0
LINE
  5
976
330
2
100
AcDbEntity
  8
6-家具-143
 62
   143
100
AcDbLine
 10
755.2396781564661
 20
1005.432147157358
 30
0.0
 11
755.4677040893674
 21
1000.647693390239
 31
0.0
  0
LINE
  5
977
330
2
100
AcDbEntity
  8
6-家具-143
 62
   143
100
AcDbLine
 10
764.8167673383696
 20
1029.354415993023
 30
0.0
 11
767.0970266673919
 21
1026.620442411795
 31
0.0
  0
LINE
  5
978
330
2
100
AcDbEntity
  8
6-家具-143
 62
   143
100
AcDbLine
 10
767.0970266673919
 20
1026.620442411795
 30
0.0
 11
767.7811044660952
 21
1020.013339590517
 31
0.0
  0
LINE
  5
979
330
2
100
AcDbEntity
  8
6-家具-143
 62
   143
100
AcDbLine
 10
767.7811044660952
 20
1020.013339590517
 30
0.0
 11
767.325052600293
 21
1008.849614133875
 31
0.0
  0
LINE
  5
97A
330
2
100
AcDbEntity
  8
6-家具-143
 62
   143
100
AcDbLine
 10
767.325052600293
 20
1008.849614133875
 30
0.0
 11
765.0447932712705
 21
992.9014349101146
 31
0.0
  0
LINE
  5
97B
330
2
100
AcDbEntity
  8
6-家具-143
 62
   143
100
AcDbLine
 10
760.0282227474239
 20
1026.848273543574
 30
0.0
 11
762.7645339422484
 21
1017.962859404627
 31
0.0
  0
LINE
  5
97C
330
2
100
AcDbEntity
  8
6-家具-143
 62
   143
100
AcDbLine
 10
762.7645339422484
 20
1017.962859404627
 30
0.0
 11
763.9046636067537
 21
1003.153835839688
 31
0.0
  0
LINE
  5
97D
330
2
100
AcDbEntity
  8
6-家具-143
 62
   143
100
AcDbLine
 10
763.9046636067537
 20
1003.153835839688
 30
0.0
 11
764.5887414054684
 21
990.1674613288879
 31
0.0
  0
LINE
  5
97E
330
2
100
AcDbEntity
  8
6-家具-143
 62
   143
100
AcDbLine
 10
764.5887414054684
 20
990.1674613288879
 30
0.0
 11
765.5008451370727
 21
984.9273452982115
 31
0.0
  0
LINE
  5
97F
330
2
100
AcDbEntity
  8
6-家具-143
 62
   143
100
AcDbLine
 10
765.5008451370727
 20
984.9273452982115
 30
0.0
 11
760.4842746132259
 21
979.6872292675587
 31
0.0
  0
LINE
  5
980
330
2
100
AcDbEntity
  8
6-家具-143
 62
   143
100
AcDbLine
 10
760.4842746132259
 20
979.6872292675587
 30
0.0
 11
756.8358596867856
 21
983.5603585076087
 31
0.0
  0
LINE
  5
981
330
2
100
AcDbEntity
  8
6-家具-143
 62
   143
100
AcDbLine
 10
769.8333378622164
 20
1027.076104675353
 30
0.0
 11
772.7976749899537
 21
1023.658637698813
 31
0.0
  0
LINE
  5
982
330
2
100
AcDbEntity
  8
6-家具-143
 62
   143
100
AcDbLine
 10
772.7976749899537
 20
1023.658637698813
 30
0.0
 11
770.2893897280302
 21
1021.835988644677
 31
0.0
  0
LINE
  5
983
330
2
100
AcDbEntity
  8
6-家具-143
 62
   143
100
AcDbLine
 10
770.2893897280302
 20
1021.835988644677
 30
0.0
 11
773.4817527886571
 21
1019.557677326983
 31
0.0
  0
LINE
  5
984
330
2
100
AcDbEntity
  8
6-家具-143
 62
   143
100
AcDbLine
 10
773.4817527886571
 20
1019.557677326983
 30
0.0
 11
770.9734675267335
 21
1012.494912242172
 31
0.0
  0
LINE
  5
985
330
2
100
AcDbEntity
  8
6-家具-143
 62
   143
100
AcDbLine
 10
770.9734675267335
 20
1012.494912242172
 30
0.0
 11
767.5530785331941
 21
999.9641999949275
 31
0.0
  0
LINE
  5
986
330
2
100
AcDbEntity
  8
6-家具-143
 62
   143
100
AcDbLine
 10
767.5530785331941
 20
999.9641999949275
 30
0.0
 11
765.5008451370727
 21
990.1674613288879
 31
0.0
  0
LINE
  5
987
330
2
100
AcDbEntity
  8
6-家具-143
 62
   143
100
AcDbLine
 10
765.5008451370727
 20
990.1674613288879
 30
0.0
 11
765.0447932712705
 21
987.8891500112176
 31
0.0
  0
LINE
  5
988
330
2
100
AcDbEntity
  8
6-家具-143
 62
   143
100
AcDbLine
 10
763.9046636067537
 20
1030.49357165187
 30
0.0
 11
768.9212341306123
 21
1027.531766938887
 31
0.0
  0
LINE
  5
989
330
2
100
AcDbEntity
  8
6-家具-143
 62
   143
100
AcDbLine
 10
768.9212341306123
 20
1027.531766938887
 30
0.0
 11
773.7097787215581
 21
1025.481286752973
 31
0.0
  0
LINE
  5
98A
330
2
100
AcDbEntity
  8
6-家具-143
 62
   143
100
AcDbLine
 10
773.7097787215581
 20
1025.481286752973
 30
0.0
 11
776.2180639834816
 21
1023.658637698813
 31
0.0
  0
LINE
  5
98B
330
2
100
AcDbEntity
  8
6-家具-143
 62
   143
100
AcDbLine
 10
776.2180639834816
 20
1023.658637698813
 30
0.0
 11
778.2702973796029
 21
1020.69683298583
 31
0.0
  0
LINE
  5
98C
330
2
100
AcDbEntity
  8
6-家具-143
 62
   143
100
AcDbLine
 10
778.2702973796029
 20
1020.69683298583
 30
0.0
 11
780.0945048428229
 21
1015.00105469162
 31
0.0
  0
LINE
  5
98D
330
2
100
AcDbEntity
  8
6-家具-143
 62
   143
100
AcDbLine
 10
780.0945048428229
 20
1015.00105469162
 30
0.0
 11
778.9543751783176
 21
1004.065160366756
 31
0.0
  0
LINE
  5
98E
330
2
100
AcDbEntity
  8
6-家具-143
 62
   143
100
AcDbLine
 10
778.9543751783176
 20
1004.065160366756
 30
0.0
 11
779.6384529770207
 21
996.0910707548526
 31
0.0
  0
LINE
  5
98F
330
2
100
AcDbEntity
  8
6-家具-143
 62
   143
100
AcDbLine
 10
779.6384529770207
 20
996.0910707548526
 30
0.0
 11
779.4104270441198
 21
993.5849283054045
 31
0.0
  0
LINE
  5
990
330
2
100
AcDbEntity
  8
6-家具-143
 62
   143
100
AcDbLine
 10
779.4104270441198
 20
993.5849283054045
 30
0.0
 11
775.5339861847784
 21
971.4853085238987
 31
0.0
  0
LINE
  5
991
330
2
100
AcDbEntity
  8
6-家具-143
 62
   143
100
AcDbLine
 10
775.5339861847784
 20
971.4853085238987
 30
0.0
 11
774.6218824531738
 21
971.0296462603652
 31
0.0
  0
LINE
  5
992
330
2
100
AcDbEntity
  8
6-家具-143
 62
   143
100
AcDbLine
 10
774.6218824531738
 20
971.0296462603652
 30
0.0
 11
774.1658305873602
 21
967.156517020291
 31
0.0
  0
LINE
  5
993
330
2
100
AcDbEntity
  8
6-家具-143
 62
   143
100
AcDbLine
 10
774.1658305873602
 20
967.156517020291
 30
0.0
 11
773.4817527886571
 21
967.156517020291
 31
0.0
  0
LINE
  5
994
330
2
100
AcDbEntity
  8
6-家具-143
 62
   143
100
AcDbLine
 10
773.4817527886571
 20
967.156517020291
 30
0.0
 11
772.7976749899537
 21
967.156517020291
 31
0.0
  0
LINE
  5
995
330
2
100
AcDbEntity
  8
6-家具-143
 62
   143
100
AcDbLine
 10
747.2587705048822
 20
1030.265740520091
 30
0.0
 11
743.1543037126394
 21
1027.987429202422
 31
0.0
  0
LINE
  5
996
330
2
100
AcDbEntity
  8
6-家具-143
 62
   143
100
AcDbLine
 10
743.1543037126394
 20
1027.987429202422
 30
0.0
 11
737.2256294571765
 21
1025.936949016506
 31
0.0
  0
LINE
  5
997
330
2
100
AcDbEntity
  8
6-家具-143
 62
   143
100
AcDbLine
 10
737.2256294571765
 20
1025.936949016506
 30
0.0
 11
732.437084866231
 21
1024.342131094125
 31
0.0
  0
LINE
  5
998
330
2
100
AcDbEntity
  8
6-家具-143
 62
   143
100
AcDbLine
 10
732.437084866231
 20
1024.342131094125
 30
0.0
 11
729.4727477385054
 21
1019.785508458762
 31
0.0
  0
LINE
  5
999
330
2
100
AcDbEntity
  8
6-家具-143
 62
   143
100
AcDbLine
 10
729.4727477385054
 20
1019.785508458762
 30
0.0
 11
728.1045921410873
 21
1009.305276397409
 31
0.0
  0
LINE
  5
99A
330
2
100
AcDbEntity
  8
6-家具-143
 62
   143
100
AcDbLine
 10
728.1045921410873
 20
1009.305276397409
 30
0.0
 11
728.5606440068893
 21
997.2302264136997
 31
0.0
  0
LINE
  5
99B
330
2
100
AcDbEntity
  8
6-家具-143
 62
   143
100
AcDbLine
 10
728.5606440068893
 20
997.2302264136997
 30
0.0
 11
731.5249811346265
 21
992.4457726465805
 31
0.0
  0
LINE
  5
99C
330
2
100
AcDbEntity
  8
6-家具-143
 62
   143
100
AcDbLine
 10
731.5249811346265
 20
992.4457726465805
 30
0.0
 11
735.4014219939682
 21
989.0283056700404
 31
0.0
  0
LINE
  5
99D
330
2
100
AcDbEntity
  8
6-家具-143
 62
   143
100
AcDbLine
 10
735.4014219939682
 20
989.0283056700404
 30
0.0
 11
738.3657591216937
 21
986.7499943523707
 31
0.0
  0
LINE
  5
99E
330
2
100
AcDbEntity
  8
6-家具-143
 62
   143
100
AcDbLine
 10
738.3657591216937
 20
986.7499943523707
 30
0.0
 11
744.2944333771565
 21
986.7499943523707
 31
0.0
  0
LINE
  5
99F
330
2
100
AcDbEntity
  8
6-家具-143
 62
   143
100
AcDbLine
 10
744.2944333771565
 20
986.7499943523707
 30
0.0
 11
747.714822370696
 21
986.9778254841255
 31
0.0
  0
LINE
  5
9A0
330
2
100
AcDbEntity
  8
6-家具-143
 62
   143
100
AcDbLine
 10
747.714822370696
 20
986.9778254841255
 30
0.0
 11
750.2231076326195
 21
988.3448122747516
 31
0.0
  0
LINE
  5
9A1
330
2
100
AcDbEntity
  8
6-家具-143
 62
   143
100
AcDbLine
 10
773.3238883315326
 20
966.8165227582486
 30
0.0
 11
774.7516814915085
 21
963.5743104737759
 31
0.0
  0
LINE
  5
9A2
330
2
100
AcDbEntity
  8
6-家具-143
 62
   143
100
AcDbLine
 10
774.7516814915085
 20
963.5743104737759
 30
0.0
 11
775.530477760578
 21
960.0727212065406
 31
0.0
  0
LINE
  5
9A3
330
2
100
AcDbEntity
  8
6-家具-143
 62
   143
100
AcDbLine
 10
772.3416231241515
 20
958.4989340130977
 30
0.0
 11
773.2537268557556
 21
967.3843481520696
 31
0.0
  0
LINE
  5
9A4
330
2
100
AcDbEntity
  8
6-家具-143
 62
   143
100
AcDbLine
 10
773.2537268557556
 20
967.3843481520696
 30
0.0
 11
773.2537268557556
 21
974.4471132368815
 31
0.0
  0
LINE
  5
9A5
330
2
100
AcDbEntity
  8
6-家具-143
 62
   143
100
AcDbLine
 10
773.2537268557556
 20
974.4471132368815
 30
0.0
 11
773.9378046544591
 21
981.2820471899385
 31
0.0
  0
LINE
  5
9A6
330
2
100
AcDbEntity
  8
6-家具-143
 62
   143
100
AcDbLine
 10
773.9378046544591
 20
981.2820471899385
 30
0.0
 11
773.9378046544591
 21
986.9778254841255
 31
0.0
  0
LINE
  5
9A7
330
2
100
AcDbEntity
  8
6-家具-143
 62
   143
100
AcDbLine
 10
773.9378046544591
 20
986.9778254841255
 30
0.0
 11
773.9378046544591
 21
993.1292660418707
 31
0.0
  0
LINE
  5
9A8
330
2
100
AcDbEntity
  8
6-家具-143
 62
   143
100
AcDbLine
 10
773.9378046544591
 20
993.1292660418707
 30
0.0
 11
773.4817527886571
 21
1003.609498103222
 31
0.0
  0
LINE
  5
9A9
330
2
100
AcDbEntity
  8
6-家具-143
 62
   143
100
AcDbLine
 10
773.4817527886571
 20
1003.609498103222
 30
0.0
 11
775.7620121176793
 21
1010.444432056256
 31
0.0
  0
LINE
  5
9AA
330
2
100
AcDbEntity
  8
6-家具-143
 62
   143
100
AcDbLine
 10
763.9046636067537
 20
983.1046962440757
 30
0.0
 11
765.0447932712705
 21
978.3202424769566
 31
0.0
  0
LINE
  5
9AB
330
2
100
AcDbEntity
  8
6-家具-143
 62
   143
100
AcDbLine
 10
765.0447932712705
 20
978.3202424769566
 30
0.0
 11
765.9568970028749
 21
974.9027755004155
 31
0.0
  0
LINE
  5
9AC
330
2
100
AcDbEntity
  8
6-家具-143
 62
   143
100
AcDbLine
 10
765.9568970028749
 20
974.9027755004155
 30
0.0
 11
765.9568970028749
 21
968.5235038109162
 31
0.0
  0
LINE
  5
9AD
330
2
100
AcDbEntity
  8
6-家具-143
 62
   143
100
AcDbLine
 10
765.9568970028749
 20
968.5235038109162
 30
0.0
 11
768.2371563319088
 21
964.1947123073082
 31
0.0
  0
LINE
  5
9AE
330
2
100
AcDbEntity
  8
6-家具-143
 62
   143
100
AcDbLine
 10
768.2371563319088
 20
964.1947123073082
 30
0.0
 11
770.7454415938324
 21
961.4607387261038
 31
0.0
  0
LINE
  5
9AF
330
2
100
AcDbEntity
  8
6-家具-143
 62
   143
100
AcDbLine
 10
770.7454415938324
 20
961.4607387261038
 30
0.0
 11
772.5696490570526
 21
958.0432717495638
 31
0.0
  0
LINE
  5
9B0
330
2
100
AcDbEntity
  8
6-家具-143
 62
   143
100
AcDbLine
 10
772.5696490570526
 20
958.0432717495638
 30
0.0
 11
773.025700922855
 21
955.0814670365809
 31
0.0
  0
LINE
  5
9B1
330
2
100
AcDbEntity
  8
6-家具-143
 62
   143
100
AcDbLine
 10
746.1186408403769
 20
957.5876094860298
 30
0.0
 11
751.591263230026
 21
963.9668811755528
 31
0.0
  0
LINE
  5
9B2
330
2
100
AcDbEntity
  8
6-家具-143
 62
   143
100
AcDbLine
 10
751.591263230026
 20
963.9668811755528
 30
0.0
 11
755.9237559551812
 21
970.5739839968313
 31
0.0
  0
LINE
  5
9B3
330
2
100
AcDbEntity
  8
6-家具-143
 62
   143
100
AcDbLine
 10
755.9237559551812
 20
970.5739839968313
 30
0.0
 11
756.1517818880822
 21
976.7254245545755
 31
0.0
  0
LINE
  5
9B4
330
2
100
AcDbEntity
  8
6-家具-143
 62
   143
100
AcDbLine
 10
756.1517818880822
 20
976.7254245545755
 30
0.0
 11
755.6957300222685
 21
983.3325273758536
 31
0.0
  0
LINE
  5
9B5
330
2
100
AcDbEntity
  8
6-家具-143
 62
   143
100
AcDbLine
 10
735.1733960610554
 20
988.5726434065066
 30
0.0
 11
735.4014219939682
 21
985.6108386935236
 31
0.0
  0
LINE
  5
9B6
330
2
100
AcDbEntity
  8
6-家具-143
 62
   143
100
AcDbLine
 10
735.4014219939682
 20
985.6108386935236
 30
0.0
 11
735.8574738597703
 21
977.6367490816435
 31
0.0
  0
VIEWPORT
  5
DA
102
{ACAD_XDICTIONARY
360
9BF
102
}
330
C
100
AcDbEntity
 67
     1
  8
0
100
AcDbViewport
 10
420.5071835950612
 20
297.0009369707932
 30
0.0
 40
848.880193293653
 41
633.6711302051212
 68
     1
 69
     1
 12
420.5071835950612
 22
297.0009369707932
 13
0.0
 23
0.0
 14
10.0
 24
10.0
 15
10.0
 25
10.0
 16
0.0
 26
0.0
 36
1.0
 17
0.0
 27
0.0
 37
0.0
 42
50.0
 43
0.0
 44
0.0
 45
633.6711302051212
 50
0.0
 51
0.0
 72
  1000
 90
    32864
  1

281
     0
 71
     1
 74
     0
110
0.0
120
0.0
130
0.0
111
1.0
121
0.0
131
0.0
112
0.0
122
1.0
132
0.0
 79
     0
146
0.0
  0
ENDSEC
  0
SECTION
  2
OBJECTS
  0
DICTIONARY
  5
7
330
0
100
AcDbDictionary
281
     1
  3
ACAD_COLOR
350
DE
  3
ACAD_GROUP
350
20
  3
ACAD_LAYOUT
350
B
  3
ACAD_MATERIAL
350
DD
  3
ACAD_MLINESTYLE
350
21
  3
ACAD_PLOTSETTINGS
350
22
  3
ACAD_PLOTSTYLENAME
350
6
  3
ACDBHEADERROUNDTRIPXREC
350
9B8
  3
AcDbVariableDictionary
350
115
  0
DICTIONARY
  5
1A3
330
10
100
AcDbDictionary
280
     1
281
     1
  3
ACAD_LAYERSTATES
360
1A4
  0
DICTIONARY
  5
9BF
330
DA
100
AcDbDictionary
280
     1
281
     1
  3
ACAD_XREC_ROUNDTRIP
360
9C0
  0
DICTIONARY
  5
DE
102
{ACAD_REACTORS
330
7
102
}
330
7
100
AcDbDictionary
281
     1
  0
DICTIONARY
  5
20
102
{ACAD_REACTORS
330
7
102
}
330
7
100
AcDbDictionary
281
     1
  0
DICTIONARY
  5
B
102
{ACAD_REACTORS
330
7
102
}
330
7
100
AcDbDictionary
281
     1
  3
JIS A1 Title Block
350
F
  3
Model
350
A
  0
DICTIONARY
  5
DD
102
{ACAD_REACTORS
330
7
102
}
330
7
100
AcDbDictionary
281
     1
  0
DICTIONARY
  5
21
102
{ACAD_REACTORS
330
7
102
}
330
7
100
AcDbDictionary
281
     1
  3
Standard
350
23
  0
DICTIONARY
  5
22
102
{ACAD_REACTORS
330
7
102
}
330
7
100
AcDbDictionary
281
     1
  0
ACDBDICTIONARYWDFLT
  5
6
102
{ACAD_REACTORS
330
7
102
}
330
7
100
AcDbDictionary
281
     1
  3
Normal
350
5
100
AcDbDictionaryWithDefault
340
5
  0
DICTIONARY
  5
9B8
102
{ACAD_REACTORS
330
7
102
}
330
7
100
AcDbDictionary
281
     1
  3
COLORDICT
350
9BA
  3
MATERIALDICT
350
9B9
  0
DICTIONARY
  5
115
102
{ACAD_REACTORS
330
7
102
}
330
7
100
AcDbDictionary
281
     1
  3
DIMASSOC
350
116
  3
PROJECTNAME
350
117
  0
DICTIONARY
  5
1A4
102
{ACAD_REACTORS
330
1A3
102
}
330
1A3
100
AcDbDictionary
281
     1
  0
XRECORD
  5
9C0
102
{ACAD_REACTORS
330
9BF
102
}
330
9BF
100
AcDbXrecord
280
     1
102
SHADEPLOT
 70
     0
  0
LAYOUT
  5
F
102
{ACAD_XDICTIONARY
360
9BD
102
}
102
{ACAD_REACTORS
330
B
102
}
330
B
100
AcDbPlotSettings
  1

  2
none_device
  4
ISO_A1_(594.00_x_841.00_MM)
  6

 40
7.549999999999998
 41
20.05
 42
7.549999999999998
 43
20.05
 44
594.0
 45
841.0
 46
-7.559999999999997
 47
-20.07
 48
0.0
 49
0.0
140
0.0
141
0.0
142
1.0
143
1.0
 70
   692
 72
     1
 73
     1
 74
     1
  7

 75
    16
147
1.0
148
0.0128164049386896
149
0.0090630292066862
100
AcDbLayout
  1
JIS A1 Title Block
 70
     1
 71
     1
 10
0.0071835950613099
 20
0.0009369707933136
 11
841.0071835950612
 21
594.0009369707931
 12
0.0
 22
0.0
 32
0.0
 14
1.000000000000000E+20
 24
1.000000000000000E+20
 34
1.000000000000000E+20
 15
-1.000000000000000E+20
 25
-1.000000000000000E+20
 35
-1.000000000000000E+20
146
0.0
 13
0.0
 23
0.0
 33
0.0
 16
1.0
 26
0.0
 36
0.0
 17
0.0
 27
1.0
 37
0.0
 76
     0
330
C
331
DA
  0
LAYOUT
  5
A
102
{ACAD_XDICTIONARY
360
9BB
102
}
102
{ACAD_REACTORS
330
B
102
}
330
B
100
AcDbPlotSettings
  1

  2
none_device
  4
ANSI_A_(8.50_x_11.00_Inches)
  6

 40
6.349999904632567
 41
19.04999923706055
 42
6.350006103515625
 43
19.04998779296875
 44
215.8999938964844
 45
279.3999938964844
 46
28.79458090408706
 47
17.57028564415653
 48
0.0
 49
0.0
140
0.0
141
0.0
142
1.0
143
103.6285708313174
 70
 11956
 72
     0
 73
     1
 74
     1
  7

 75
     0
147
0.0096498484151418
148
1.303736702137707
149
0.9208318680958655
100
AcDbLayout
  1
Model
 70
     1
 71
     0
 10
0.0
 20
0.0
 11
12.0
 21
9.0
 12
0.0
 22
0.0
 32
0.0
 14
0.0
 24
0.0
 34
0.0
 15
0.0
 25
0.0
 35
0.0
146
0.0
 13
0.0
 23
0.0
 33
0.0
 16
1.0
 26
0.0
 36
0.0
 17
0.0
 27
1.0
 37
0.0
 76
     0
330
2
  0
MLINESTYLE
  5
23
102
{ACAD_REACTORS
330
21
102
}
330
21
100
AcDbMlineStyle
  2
STANDARD
 70
     0
  3

 62
   256
 51
90.0
 52
90.0
 71
     2
 49
0.5
 62
   256
  6
BYLAYER
 49
-0.5
 62
   256
  6
BYLAYER
  0
ACDBPLACEHOLDER
  5
5
102
{ACAD_REACTORS
330
6
102
}
330
6
  0
XRECORD
  5
9BA
102
{ACAD_REACTORS
330
9B8
102
}
330
9B8
100
AcDbXrecord
280
     1
340
DE
  0
XRECORD
  5
9B9
102
{ACAD_REACTORS
330
9B8
102
}
330
9B8
100
AcDbXrecord
280
     1
340
DD
  0
DICTIONARYVAR
  5
116
102
{ACAD_REACTORS
330
115
102
}
330
115
100
DictionaryVariables
280
     0
  1
1
  0
DICTIONARYVAR
  5
117
102
{ACAD_REACTORS
330
115
102
}
330
115
100
DictionaryVariables
280
     0
  1

  0
DICTIONARY
  5
9BD
330
F
100
AcDbDictionary
280
     1
281
     1
  3
ACAD_XREC_ROUNDTRIP
360
9BE
  0
DICTIONARY
  5
9BB
330
A
100
AcDbDictionary
280
     1
281
     1
  3
ACAD_XREC_ROUNDTRIP
360
9BC
  0
XRECORD
  5
9BE
102
{ACAD_REACTORS
330
9BD
102
}
330
9BD
100
AcDbXrecord
280
     1
102
SHADEPLOT
 70
     0
102
SHADEPLOTRESLEVEL
 70
     2
102
SHADEPLOTCUSTOMDPI
 70
   300
  0
XRECORD
  5
9BC
102
{ACAD_REACTORS
330
9BB
102
}
330
9BB
100
AcDbXrecord
280
     1
102
SHADEPLOT
 70
     0
102
SHADEPLOTRESLEVEL
 70
     2
102
SHADEPLOTCUSTOMDPI
 70
   300
  0
ENDSEC
  0
EOF
