  0
SECTION
  2
HEADER
  9
$ACADVER
  1
AC1015
  9
$ACADMAINTVER
 70
    20
  9
$DWGCODEPAGE
  3
ANSI_936
  9
$INSBASE
 10
0.0
 20
0.0
 30
0.0
  9
$EXTMIN
 10
-0.0976275629336669
 20
-0.0732206722004776
 30
-0.000000000000013
  9
$EXTMAX
 10
1600.097677857479
 20
1200.073258393109
 30
0.0000000000000023
  9
$LIMMIN
 10
0.0
 20
0.0
  9
$LIMMAX
 10
420.0
 20
297.0
  9
$ORTHOMODE
 70
     0
  9
$REGENMODE
 70
     1
  9
$FILLMODE
 70
     1
  9
$QTEXTMODE
 70
     0
  9
$MIRRTEXT
 70
     0
  9
$LTSCALE
 40
1.0
  9
$ATTMODE
 70
     1
  9
$TEXTSIZE
 40
2.5
  9
$TRACEWID
 40
1.0
  9
$TEXTSTYLE
  7
Standard
  9
$CLAYER
  8
0
  9
$CELTYPE
  6
ByLayer
  9
$CECOLOR
 62
   256
  9
$CELTSCALE
 40
1.0
  9
$DISPSILH
 70
     0
  9
$DIMSCALE
 40
1.0
  9
$DIMASZ
 40
2.5
  9
$DIMEXO
 40
1.0
  9
$DIMDLI
 40
7.0
  9
$DIMRND
 40
0.0
  9
$DIMDLE
 40
0.0
  9
$DIMEXE
 40
1.0
  9
$DIMTP
 40
0.0
  9
$DIMTM
 40
0.0
  9
$DIMTXT
 40
2.5
  9
$DIMCEN
 40
0.0
  9
$DIMTSZ
 40
0.0
  9
$DIMTOL
 70
     0
  9
$DIMLIM
 70
     0
  9
$DIMTIH
 70
     0
  9
$DIMTOH
 70
     0
  9
$DIMSE1
 70
     0
  9
$DIMSE2
 70
     0
  9
$DIMTAD
 70
     1
  9
$DIMZIN
 70
     8
  9
$DIMBLK
  1

  9
$DIMASO
 70
     1
  9
$DIMSHO
 70
     1
  9
$DIMPOST
  1

  9
$DIMAPOST
  1

  9
$DIMALT
 70
     0
  9
$DIMALTD
 70
     2
  9
$DIMALTF
 40
0.0394
  9
$DIMLFAC
 40
1.0
  9
$DIMTOFL
 70
     1
  9
$DIMTVP
 40
0.0
  9
$DIMTIX
 70
     1
  9
$DIMSOXD
 70
     1
  9
$DIMSAH
 70
     0
  9
$DIMBLK1
  1

  9
$DIMBLK2
  1

  9
$DIMSTYLE
  2
JIS
  9
$DIMCLRD
 70
     0
  9
$DIMCLRE
 70
     0
  9
$DIMCLRT
 70
     0
  9
$DIMTFAC
 40
1.0
  9
$DIMGAP
 40
0.0
  9
$DIMJUST
 70
     0
  9
$DIMSD1
 70
     0
  9
$DIMSD2
 70
     0
  9
$DIMTOLJ
 70
     1
  9
$DIMTZIN
 70
     0
  9
$DIMALTZ
 70
     0
  9
$DIMALTTZ
 70
     0
  9
$DIMUPT
 70
     0
  9
$DIMDEC
 70
     4
  9
$DIMTDEC
 70
     4
  9
$DIMALTU
 70
     2
  9
$DIMALTTD
 70
     2
  9
$DIMTXSTY
  7
Standard
  9
$DIMAUNIT
 70
     0
  9
$DIMADEC
 70
     0
  9
$DIMALTRND
 40
0.0
  9
$DIMAZIN
 70
     0
  9
$DIMDSEP
 70
    46
  9
$DIMATFIT
 70
     3
  9
$DIMFRAC
 70
     0
  9
$DIMLDRBLK
  1

  9
$DIMLUNIT
 70
     2
  9
$DIMLWD
 70
    -2
  9
$DIMLWE
 70
    -2
  9
$DIMTMOVE
 70
     0
  9
$LUNITS
 70
     2
  9
$LUPREC
 70
     4
  9
$SKETCHINC
 40
1.0
  9
$FILLETRAD
 40
0.0
  9
$AUNITS
 70
     0
  9
$AUPREC
 70
     0
  9
$MENU
  1
.
  9
$ELEVATION
 40
0.0
  9
$PELEVATION
 40
0.0
  9
$THICKNESS
 40
0.0
  9
$LIMCHECK
 70
     0
  9
$CHAMFERA
 40
0.0
  9
$CHAMFERB
 40
0.0
  9
$CHAMFERC
 40
0.0
  9
$CHAMFERD
 40
0.0
  9
$SKPOLY
 70
     0
  9
$TDCREATE
 40
2455955.017649734
  9
$TDUCREATE
 40
2455954.684316401
  9
$TDUPDATE
 40
2456193.629672118
  9
$TDUUPDATE
 40
2456193.296338785
  9
$TDINDWG
 40
0.0574376042
  9
$TDUSRTIMER
 40
0.0574321759
  9
$USRTIMER
 70
     1
  9
$ANGBASE
 50
0.0
  9
$ANGDIR
 70
     0
  9
$PDMODE
 70
     0
  9
$PDSIZE
 40
0.0
  9
$PLINEWID
 40
0.0
  9
$SPLFRAME
 70
     0
  9
$SPLINETYPE
 70
     6
  9
$SPLINESEGS
 70
   100
  9
$HANDSEED
  5
9E7
  9
$SURFTAB1
 70
     6
  9
$SURFTAB2
 70
     6
  9
$SURFTYPE
 70
     6
  9
$SURFU
 70
     6
  9
$SURFV
 70
     6
  9
$UCSBASE
  2

  9
$UCSNAME
  2

  9
$UCSORG
 10
0.0
 20
0.0
 30
0.0
  9
$UCSXDIR
 10
1.0
 20
0.0
 30
0.0
  9
$UCSYDIR
 10
0.0
 20
1.0
 30
0.0
  9
$UCSORTHOREF
  2

  9
$UCSORTHOVIEW
 70
     0
  9
$UCSORGTOP
 10
0.0
 20
0.0
 30
0.0
  9
$UCSORGBOTTOM
 10
0.0
 20
0.0
 30
0.0
  9
$UCSORGLEFT
 10
0.0
 20
0.0
 30
0.0
  9
$UCSORGRIGHT
 10
0.0
 20
0.0
 30
0.0
  9
$UCSORGFRONT
 10
0.0
 20
0.0
 30
0.0
  9
$UCSORGBACK
 10
0.0
 20
0.0
 30
0.0
  9
$PUCSBASE
  2

  9
$PUCSNAME
  2

  9
$PUCSORG
 10
0.0
 20
0.0
 30
0.0
  9
$PUCSXDIR
 10
1.0
 20
0.0
 30
0.0
  9
$PUCSYDIR
 10
0.0
 20
1.0
 30
0.0
  9
$PUCSORTHOREF
  2

  9
$PUCSORTHOVIEW
 70
     0
  9
$PUCSORGTOP
 10
0.0
 20
0.0
 30
0.0
  9
$PUCSORGBOTTOM
 10
0.0
 20
0.0
 30
0.0
  9
$PUCSORGLEFT
 10
0.0
 20
0.0
 30
0.0
  9
$PUCSORGRIGHT
 10
0.0
 20
0.0
 30
0.0
  9
$PUCSORGFRONT
 10
0.0
 20
0.0
 30
0.0
  9
$PUCSORGBACK
 10
0.0
 20
0.0
 30
0.0
  9
$USERI1
 70
     0
  9
$USERI2
 70
     0
  9
$USERI3
 70
     0
  9
$USERI4
 70
     0
  9
$USERI5
 70
     0
  9
$USERR1
 40
0.0
  9
$USERR2
 40
0.0
  9
$USERR3
 40
0.0
  9
$USERR4
 40
0.0
  9
$USERR5
 40
0.0
  9
$WORLDVIEW
 70
     1
  9
$SHADEDGE
 70
     3
  9
$SHADEDIF
 70
    70
  9
$TILEMODE
 70
     1
  9
$MAXACTVP
 70
    64
  9
$PINSBASE
 10
0.0
 20
0.0
 30
0.0
  9
$PLIMCHECK
 70
     0
  9
$PEXTMIN
 10
1.000000000000000E+20
 20
1.000000000000000E+20
 30
1.000000000000000E+20
  9
$PEXTMAX
 10
-1.000000000000000E+20
 20
-1.000000000000000E+20
 30
-1.000000000000000E+20
  9
$PLIMMIN
 10
0.0071835950613099
 20
0.0009369707933136
  9
$PLIMMAX
 10
841.0071835950612
 20
594.0009369707931
  9
$UNITMODE
 70
     0
  9
$VISRETAIN
 70
     1
  9
$PLINEGEN
 70
     0
  9
$PSLTSCALE
 70
     1
  9
$TREEDEPTH
 70
  3020
  9
$CMLSTYLE
  2
Standard
  9
$CMLJUST
 70
     0
  9
$CMLSCALE
 40
20.0
  9
$PROXYGRAPHICS
 70
     1
  9
$MEASUREMENT
 70
     1
  9
$CELWEIGHT
370
    -1
  9
$ENDCAPS
280
     0
  9
$JOINSTYLE
280
     0
  9
$LWDISPLAY
290
     1
  9
$INSUNITS
 70
     4
  9
$HYPERLINKBASE
  1

  9
$STYLESHEET
  1

  9
$XEDIT
290
     1
  9
$CEPSNTYPE
380
     0
  9
$PSTYLEMODE
290
     1
  9
$FINGERPRINTGUID
  2
{048D7354-A980-11D2-9A39-0060089B3A3F}
  9
$VERSIONGUID
  2
{D40D10A0-28C1-4832-BE31-40AB790E2601}
  9
$EXTNAMES
290
     1
  9
$PSVPSCALE
 40
0.0
  9
$OLESTARTUP
290
     0
  0
ENDSEC
  0
SECTION
  2
CLASSES
  0
CLASS
  1
ACDBDICTIONARYWDFLT
  2
AcDbDictionaryWithDefault
  3
ObjectDBX Classes
 90
        0
280
     0
281
     0
  0
CLASS
  1
ACDBPLACEHOLDER
  2
AcDbPlaceHolder
  3
ObjectDBX Classes
 90
        0
280
     0
281
     0
  0
CLASS
  1
LAYOUT
  2
AcDbLayout
  3
ObjectDBX Classes
 90
        0
280
     0
281
     0
  0
CLASS
  1
PLOTSETTINGS
  2
AcDbPlotSettings
  3
ObjectDBX Classes
 90
    32768
280
     0
281
     0
  0
CLASS
  1
DICTIONARYVAR
  2
AcDbDictionaryVar
  3
ObjectDBX Classes
 90
        0
280
     0
281
     0
  0
ENDSEC
  0
SECTION
  2
TABLES
  0
TABLE
  2
VPORT
  5
19
330
0
100
AcDbSymbolTable
 70
     4
  0
VPORT
  5
9DD
330
19
100
AcDbSymbolTableRecord
100
AcDbViewportTableRecord
  2
*Active
 70
     0
 10
0.0
 20
0.0
 11
1.0
 21
1.0
 12
800.0000248236885
 22
600.0000169042155
 13
0.0
 23
0.0
 14
10.0
 24
10.0
 15
10.0
 25
10.0
 16
0.0
 26
0.0
 36
1.0
 17
0.0
 27
0.0
 37
0.0
 40
1285.641010982112
 41
2.293805309734513
 42
50.0
 43
0.0
 44
0.0
 50
0.0
 51
0.0
 71
     0
 72
  2000
 73
     1
 74
     3
 75
     0
 76
     0
 77
     0
 78
     0
281
     0
 65
     1
110
0.0
120
0.0
130
0.0
111
1.0
121
0.0
131
0.0
112
0.0
122
1.0
132
0.0
 79
     0
146
0.0
  0
ENDTAB
  0
TABLE
  2
LTYPE
  5
14
330
0
100
AcDbSymbolTable
 70
     1
  0
LTYPE
  5
15
330
14
100
AcDbSymbolTableRecord
100
AcDbLinetypeTableRecord
  2
ByBlock
 70
     0
  3

 72
    65
 73
     0
 40
0.0
  0
LTYPE
  5
16
330
14
100
AcDbSymbolTableRecord
100
AcDbLinetypeTableRecord
  2
ByLayer
 70
     0
  3

 72
    65
 73
     0
 40
0.0
  0
LTYPE
  5
8
330
14
100
AcDbSymbolTableRecord
100
AcDbLinetypeTableRecord
  2
Continuous
 70
     0
  3
Solid line
 72
    65
 73
     0
 40
0.0
  0
ENDTAB
  0
TABLE
  2
LAYER
  5
10
102
{ACAD_XDICTIONARY
360
1A3
102
}
330
0
100
AcDbSymbolTable
 70
     4
  0
LAYER
  5
4
330
10
100
AcDbSymbolTableRecord
100
AcDbLayerTableRecord
  2
0
 70
     0
 62
     7
  6
Continuous
370
    -3
390
5
  0
LAYER
  5
28
330
10
100
AcDbSymbolTableRecord
100
AcDbLayerTableRecord
  2
Object
 70
     0
 62
     7
  6
Continuous
370
    -3
390
5
  0
LAYER
  5
1A2
330
10
100
AcDbSymbolTableRecord
100
AcDbLayerTableRecord
  2
TOPOVERLAY
 70
     0
 62
     2
  6
Continuous
370
    -3
390
5
  0
LAYER
  5
7C0
330
10
100
AcDbSymbolTableRecord
100
AcDbLayerTableRecord
  2
6-家具-143
 70
     0
 62
   143
  6
Continuous
370
    -3
390
5
  0
ENDTAB
  0
TABLE
  2
STYLE
  5
11
330
0
100
AcDbSymbolTable
 70
     2
  0
STYLE
  5
12
330
11
100
AcDbSymbolTableRecord
100
AcDbTextStyleTableRecord
  2
Standard
 70
     0
 40
0.0
 41
1.0
 50
0.0
 71
     0
 42
2.5
  3
txt
  4

  0
STYLE
  5
2E
330
11
100
AcDbSymbolTableRecord
100
AcDbTextStyleTableRecord
  2
Roman
 70
     0
 40
0.0
 41
1.0
 50
0.0
 71
     0
 42
5.0
  3
romans
  4
bigfont
  0
ENDTAB
  0
TABLE
  2
VIEW
  5
17
330
0
100
AcDbSymbolTable
 70
     0
  0
ENDTAB
  0
TABLE
  2
UCS
  5
18
330
0
100
AcDbSymbolTable
 70
     0
  0
ENDTAB
  0
TABLE
  2
APPID
  5
1B
330
0
100
AcDbSymbolTable
 70
     1
  0
APPID
  5
1C
330
1B
100
AcDbSymbolTableRecord
100
AcDbRegAppTableRecord
  2
ACAD
 70
     0
  0
ENDTAB
  0
TABLE
  2
DIMSTYLE
  5
1D
330
0
100
AcDbSymbolTable
 70
     1
100
AcDbDimStyleTable
 71
     1
340
1E
  0
DIMSTYLE
105
1E
330
1D
100
AcDbSymbolTableRecord
100
AcDbDimStyleTableRecord
  2
JIS
 70
     0
 41
2.5
 42
1.0
 43
7.0
 44
1.0
 73
     0
 74
     0
 77
     1
 78
     8
140
2.5
141
0.0
143
0.0394
147
0.0
172
     1
174
     1
175
     1
340
12
  0
ENDTAB
  0
TABLE
  2
BLOCK_RECORD
  5
1
330
0
100
AcDbSymbolTable
 70
     1
  0
BLOCK_RECORD
  5
2
330
1
100
AcDbSymbolTableRecord
100
AcDbBlockTableRecord
  2
*Model_Space
340
A
  0
BLOCK_RECORD
  5
C
330
1
100
AcDbSymbolTableRecord
100
AcDbBlockTableRecord
  2
*Paper_Space
340
F
  0
ENDTAB
  0
ENDSEC
  0
SECTION
  2
BLOCKS
  0
BLOCK
  5
3
330
2
100
AcDbEntity
  8
0
100
AcDbBlockBegin
  2
*Model_Space
 70
     2
 10
0.0
 20
0.0
 30
0.0
  3
*Model_Space
  1

  0
ENDBLK
  5
9
330
2
100
AcDbEntity
  8
0
100
AcDbBlockEnd
  0
BLOCK
  5
D
330
C
100
AcDbEntity
 67
     1
  8
0
100
AcDbBlockBegin
  2
*Paper_Space
 70
     0
 10
0.0
 20
0.0
 30
0.0
  3
*Paper_Space
  1

  0
ENDBLK
  5
E
330
C
100
AcDbEntity
 67
     1
  8
0
100
AcDbBlockEnd
  0
ENDSEC
  0
SECTION
  2
ENTITIES
  0
LINE
  5
14F
330
2
100
AcDbEntity
  8
0
100
AcDbLine
 10
0.0
 20
0.0
 30
0.0
 11
1600.0
 21
0.0
 31
0.0
  0
LINE
  5
150
330
2
100
AcDbEntity
  8
0
100
AcDbLine
 10
1600.0
 20
0.0
 30
0.0
 11
1600.0
 21
1200.0
 31
0.0
  0
LINE
  5
151
330
2
100
AcDbEntity
  8
0
100
AcDbLine
 10
1600.0
 20
1200.0
 30
0.0
 11
0.0
 21
1200.0
 31
0.0
  0
LINE
  5
152
330
2
100
AcDbEntity
  8
0
100
AcDbLine
 10
0.0
 20
1200.0
 30
0.0
 11
0.0
 21
0.0
 31
0.0
  0
LINE
  5
24D
330
2
100
AcDbEntity
  8
0
 62
     5
370
    35
100
AcDbLine
 10
146.8773759648378
 20
134.2453454679304
 30
0.0
 11
146.8773759648378
 21
1100.245345467943
 31
0.0
  0
LINE
  5
24E
330
2
100
AcDbEntity
  8
0
 62
     5
370
    35
100
AcDbLine
 10
146.8773759648378
 20
1100.245345467943
 30
0.0
 11
1462.87737596485
 21
1100.245345467943
 31
0.0
  0
LINE
  5
24F
330
2
100
AcDbEntity
  8
0
 62
     5
370
    35
100
AcDbLine
 10
1462.87737596485
 20
134.2453454679304
 30
0.0
 11
1462.87737596485
 21
1100.245345467943
 31
0.0
  0
LINE
  5
250
330
2
100
AcDbEntity
  8
0
 62
     5
370
    35
100
AcDbLine
 10
146.8773759648378
 20
134.2453454679304
 30
0.0
 11
1462.87737596485
 21
134.2453454679304
 31
0.0
  0
ARC
  5
253
330
2
100
AcDbEntity
  8
0
 62
    56
100
AcDbCircle
 10
401.2681708086422
 20
628.4567916576502
 30
0.0
 40
86.57756336906864
100
AcDbArc
 50
93.76815435825868
 51
266.2318456417413
  0
LINE
  5
254
330
2
100
AcDbEntity
  8
0
 62
    56
100
AcDbLine
 10
470.1374477329405
 20
628.3583971343634
 30
0.0
 11
499.3982512737052
 21
628.3583971343634
 31
0.0
  0
LINE
  5
255
330
2
100
AcDbEntity
  8
0
 62
   250
370
   100
100
AcDbLine
 10
527.8635948504152
 20
628.2835470220474
 30
0.0
 11
587.9718373885777
 21
628.2835470220474
 31
0.0
  0
LINE
  5
256
330
2
100
AcDbEntity
  8
TOPOVERLAY
  6
Continuous
 62
   250
370
   100
100
AcDbLine
 10
541.4356581651294
 20
585.0814711308552
 30
0.0
 11
587.6442963840311
 21
614.4695149158027
 31
0.0
  0
LINE
  5
257
330
2
100
AcDbEntity
  8
0
 62
    56
100
AcDbLine
 10
604.2264970840532
 20
628.4012180692907
 30
0.0
 11
658.7775067137572
 21
628.4012180692907
 31
0.0
  0
CIRCLE
  5
25A
330
2
100
AcDbEntity
  8
0
 62
   252
100
AcDbCircle
 10
849.8347280698894
 20
544.8099052881846
 30
0.0
 40
20.66015533163439
  0
CIRCLE
  5
25B
330
2
100
AcDbEntity
  8
0
 62
   252
100
AcDbCircle
 10
896.2810363508351
 20
544.8099052881846
 30
0.0
 40
20.66015533163439
  0
LINE
  5
25C
330
2
100
AcDbEntity
  8
0
 62
   252
100
AcDbLine
 10
846.0386689126329
 20
572.6575850725935
 30
0.0
 11
846.0386689126329
 21
590.4449980898156
 31
0.0
  0
LINE
  5
25D
330
2
100
AcDbEntity
  8
0
 62
   252
100
AcDbLine
 10
851.7095168752783
 20
569.7441298102651
 30
0.0
 11
851.7095168752783
 21
587.5315428273284
 31
0.0
  0
LINE
  5
25E
330
2
100
AcDbEntity
  8
0
 62
   252
100
AcDbLine
 10
840.3678256780167
 20
583.0846877287699
 30
0.0
 11
859.9858798658585
 21
574.651003384211
 31
0.0
  0
LINE
  5
25F
330
2
100
AcDbEntity
  8
0
 62
   252
100
AcDbLine
 10
891.6408484796201
 20
571.4311248843483
 30
0.0
 11
891.6408484796201
 21
589.2185379015702
 31
0.0
  0
LINE
  5
260
330
2
100
AcDbEntity
  8
0
 62
   252
100
AcDbLine
 10
897.3116964422823
 20
568.5176696219882
 30
0.0
 11
897.3116964422823
 21
586.3050826390831
 31
0.0
  0
LINE
  5
261
330
2
100
AcDbEntity
  8
0
 62
   252
100
AcDbLine
 10
885.9700052450161
 20
581.8582275404926
 30
0.0
 11
905.5880594328653
 21
573.4245431959656
 31
0.0
  0
LINE
  5
262
330
2
100
AcDbEntity
  8
0
 62
   252
100
AcDbLine
 10
811.4020209092316
 20
547.0627865766075
 30
0.0
 11
938.3176685414612
 21
547.0627865766075
 31
0.0
  0
CIRCLE
  5
263
330
2
100
AcDbEntity
  8
0
 62
   252
100
AcDbCircle
 10
846.4638490603672
 20
689.8273729904121
 30
0.0
 40
20.66015533163439
  0
CIRCLE
  5
264
330
2
100
AcDbEntity
  8
0
 62
   252
100
AcDbCircle
 10
892.9101573412921
 20
689.8273729904121
 30
0.0
 40
20.66015533163439
  0
LINE
  5
265
330
2
100
AcDbEntity
  8
0
 62
   252
100
AcDbLine
 10
842.6677899030917
 20
717.6750527748207
 30
0.0
 11
842.6677899030917
 21
735.4624657919162
 31
0.0
  0
LINE
  5
266
330
2
100
AcDbEntity
  8
0
 62
   252
100
AcDbLine
 10
848.3386378657456
 20
714.761597512334
 30
0.0
 11
848.3386378657456
 21
732.549010529556
 31
0.0
  0
LINE
  5
267
330
2
100
AcDbEntity
  8
0
 62
   252
100
AcDbLine
 10
836.9969466684873
 20
728.1021554308705
 30
0.0
 11
856.6150008563175
 21
719.6684710864705
 31
0.0
  0
LINE
  5
268
330
2
100
AcDbEntity
  8
0
 62
   252
100
AcDbLine
 10
888.2699694700912
 20
716.448592586576
 30
0.0
 11
888.2699694700912
 21
734.2360056036708
 31
0.0
  0
LINE
  5
269
330
2
100
AcDbEntity
  8
0
 62
   252
100
AcDbLine
 10
893.9408174327452
 20
713.5351373240884
 30
0.0
 11
893.9408174327452
 21
731.3225503413426
 31
0.0
  0
LINE
  5
26A
330
2
100
AcDbEntity
  8
0
 62
   252
100
AcDbLine
 10
882.5991262354792
 20
726.8756952426248
 30
0.0
 11
902.2171804233362
 21
718.442010898098
 31
0.0
  0
LINE
  5
26B
330
2
100
AcDbEntity
  8
0
 62
   252
100
AcDbLine
 10
808.0311418997078
 20
692.0802542788354
 30
0.0
 11
934.9467895319213
 21
692.0802542788354
 31
0.0
  0
LINE
  5
26C
330
2
100
AcDbEntity
  8
0
 62
    56
100
AcDbLine
 10
294.9873178741801
 20
240.3176229270147
 30
0.0
 11
294.9595074320472
 21
1017.926882565553
 31
0.0
  0
ARC
  5
26E
330
2
100
AcDbEntity
  8
0
 62
    56
100
AcDbCircle
 10
714.0263533355915
 20
629.3287134877487
 30
0.0
 40
86.57756336906864
100
AcDbArc
 50
273.7681543582587
 51
86.23184564174131
  0
LINE
  5
26F
330
2
100
AcDbEntity
  8
0
 62
    56
100
AcDbLine
 10
973.9539700263961
 20
625.1124834942498
 30
0.0
 11
973.9539700263961
 21
501.1746429232616
 31
0.0
  0
LINE
  5
270
330
2
100
AcDbEntity
  8
0
 62
    56
100
AcDbLine
 10
973.9539700263961
 20
501.1746429232616
 30
0.0
 11
906.4579844358259
 21
501.1746429232616
 31
0.0
  0
LINE
  5
271
330
2
100
AcDbEntity
  8
0
 62
    56
100
AcDbLine
 10
906.4579844358259
 20
501.1746429232616
 30
0.0
 11
906.4579844358259
 21
394.2070817623431
 31
0.0
  0
LINE
  5
272
330
2
100
AcDbEntity
  8
0
 62
    56
100
AcDbLine
 10
906.4579844358259
 20
394.2070817623431
 30
0.0
 11
934.4953215517596
 21
394.2070817623431
 31
0.0
  0
LINE
  5
273
330
2
100
AcDbEntity
  8
0
 62
    56
100
AcDbLine
 10
934.4953215517596
 20
380.8960846563837
 30
0.0
 11
934.4953215517596
 21
407.460580247544
 31
0.0
  0
LINE
  5
274
330
2
100
AcDbEntity
  8
0
 62
    56
100
AcDbLine
 10
940.8403907057147
 20
380.8960846563837
 30
0.0
 11
940.8403907057147
 21
407.460580247544
 31
0.0
  0
CIRCLE
  5
275
330
2
100
AcDbEntity
  8
0
 62
   250
370
    30
100
AcDbCircle
 10
1003.517714356422
 20
334.9398966850963
 30
0.0
 40
21.00918010397843
  0
CIRCLE
  5
279
330
2
100
AcDbEntity
  8
0
 62
   250
370
    30
100
AcDbCircle
 10
1003.455272873811
 20
394.3476714354988
 30
0.0
 40
21.00918010397843
  0
CIRCLE
  5
27D
330
2
100
AcDbEntity
  8
0
 62
   250
370
    30
100
AcDbCircle
 10
1003.455272873811
 20
451.0131016931476
 30
0.0
 40
21.00918010397843
  0
LINE
  5
281
330
2
100
AcDbEntity
  8
0
 62
    56
100
AcDbLine
 10
982.4460927698423
 20
394.3476714354988
 30
0.0
 11
940.8403907057147
 21
394.3476714354988
 31
0.0
  0
LINE
  5
282
330
2
100
AcDbEntity
  8
0
 62
    56
100
AcDbLine
 10
1024.464452977806
 20
394.3476714354988
 30
0.0
 11
1039.314395454069
 21
394.3476714354988
 31
0.0
  0
LINE
  5
283
330
2
100
AcDbEntity
  8
0
 62
    56
100
AcDbLine
 10
1039.388990038443
 20
379.3676202292459
 30
0.0
 11
1039.388990038443
 21
409.00459600814
 31
0.0
  0
LINE
  5
284
330
2
100
AcDbEntity
  8
0
 62
    56
100
AcDbLine
 10
1042.74302770237
 20
383.8706902995915
 30
0.0
 11
1042.74302770237
 21
403.1583864851246
 31
0.0
  0
LINE
  5
285
330
2
100
AcDbEntity
  8
0
 62
    56
100
AcDbLine
 10
1046.461012423949
 20
389.243690747517
 30
0.0
 11
1046.461012423949
 21
397.7853860371993
 31
0.0
  0
LINE
  5
286
330
2
100
AcDbEntity
  8
0
 62
    56
100
AcDbLine
 10
973.9539700263961
 20
625.1124834942498
 30
0.0
 11
973.9539700263961
 21
752.756677270245
 31
0.0
  0
LINE
  5
287
330
2
100
AcDbEntity
  8
0
 62
    56
100
AcDbLine
 10
973.9539700263961
 20
752.756677270245
 30
0.0
 11
905.6413493840961
 21
752.756677270245
 31
0.0
  0
LINE
  5
288
330
2
100
AcDbEntity
  8
0
 62
    56
100
AcDbLine
 10
905.6413493840961
 20
752.756677270245
 30
0.0
 11
905.6413493840961
 21
920.9552148575816
 31
0.0
  0
LINE
  5
289
330
2
100
AcDbEntity
  8
0
 62
    56
100
AcDbLine
 10
905.6413493840961
 20
920.9552148575816
 30
0.0
 11
942.2925948928883
 21
920.9552148575816
 31
0.0
  0
LINE
  5
28A
330
2
100
AcDbEntity
  8
0
 62
   250
370
    30
100
AcDbLine
 10
950.2989489221251
 20
845.5916548606225
 30
0.0
 11
1012.039857522575
 21
845.5916548606225
 31
0.0
  0
LINE
  5
28B
330
2
100
AcDbEntity
  8
0
 62
     3
370
    30
100
AcDbLine
 10
969.3382320053286
 20
803.5084767944718
 30
0.0
 11
1011.712316518024
 21
830.4615642773709
 31
0.0
  0
LINE
  5
28C
330
2
100
AcDbEntity
  8
0
 62
    56
100
AcDbLine
 10
934.9535364719052
 20
827.3457265659777
 30
0.0
 11
934.9535364719052
 21
858.7929572286345
 31
0.0
  0
LINE
  5
28D
330
2
100
AcDbEntity
  8
0
 62
    56
100
AcDbLine
 10
934.9535364719052
 20
842.1221343767278
 30
0.0
 11
905.6413493840961
 21
842.1221343767278
 31
0.0
  0
LINE
  5
28E
330
2
100
AcDbEntity
  8
0
 62
    56
100
AcDbLine
 10
1024.464452977806
 20
841.4595212865702
 30
0.0
 11
1039.314395454069
 21
841.4595212865702
 31
0.0
  0
LINE
  5
28F
330
2
100
AcDbEntity
  8
0
 62
    56
100
AcDbLine
 10
1039.388990038443
 20
826.4794700803172
 30
0.0
 11
1039.388990038443
 21
856.1164458592115
 31
0.0
  0
LINE
  5
290
330
2
100
AcDbEntity
  8
0
 62
    56
100
AcDbLine
 10
1042.74302770237
 20
830.9825401507263
 30
0.0
 11
1042.74302770237
 21
850.2702363362281
 31
0.0
  0
LINE
  5
291
330
2
100
AcDbEntity
  8
0
 62
    56
100
AcDbLine
 10
1046.461012423949
 20
836.3555405986202
 30
0.0
 11
1046.461012423949
 21
844.8972358883024
 31
0.0
  0
LINE
  5
292
330
2
100
AcDbEntity
  8
0
 62
    56
370
    20
100
AcDbLine
 10
947.6868372289683
 20
911.4332543979623
 30
0.0
 11
1010.827803089492
 21
911.4332543979623
 31
0.0
  0
LINE
  5
293
330
2
100
AcDbEntity
  8
0
 62
    56
370
    20
100
AcDbLine
 10
1010.827803089492
 20
911.4332543979623
 30
0.0
 11
1010.827803089492
 21
930.5621469768404
 31
0.0
  0
LINE
  5
294
330
2
100
AcDbEntity
  8
0
 62
    56
370
    20
100
AcDbLine
 10
1010.827803089492
 20
930.5621469768404
 30
0.0
 11
947.6868372289683
 21
930.5621469768404
 31
0.0
  0
LINE
  5
295
330
2
100
AcDbEntity
  8
0
 62
    56
370
    20
100
AcDbLine
 10
947.6868372289683
 20
930.5621469768404
 30
0.0
 11
947.6868372289683
 21
911.4332543979623
 31
0.0
  0
LINE
  5
296
330
2
100
AcDbEntity
  8
0
 62
    56
370
    20
100
AcDbLine
 10
942.2925948928883
 20
920.9552148575816
 30
0.0
 11
957.1310260261633
 21
920.9552148575816
 31
0.0
  0
LINE
  5
297
330
2
100
AcDbEntity
  8
0
 62
    56
370
    20
100
AcDbLine
 10
957.1310260261633
 20
914.6058149412926
 30
0.0
 11
957.1310260261633
 21
927.30461477403
 31
0.0
  0
LINE
  5
298
330
2
100
AcDbEntity
  8
0
 62
    56
370
    20
100
AcDbLine
 10
957.1310260261633
 20
927.30461477403
 30
0.0
 11
992.8444137824833
 21
920.9552148575816
 31
0.0
  0
LINE
  5
299
330
2
100
AcDbEntity
  8
0
 62
    56
370
    20
100
AcDbLine
 10
957.1310260261633
 20
914.6058149412926
 30
0.0
 11
992.8444137824833
 21
920.9552148575816
 31
0.0
  0
LINE
  5
29A
330
2
100
AcDbEntity
  8
0
 62
    56
100
AcDbLine
 10
1024.575723114653
 20
921.1158627875423
 30
0.0
 11
1039.425665590903
 21
921.1158627875423
 31
0.0
  0
LINE
  5
29B
330
2
100
AcDbEntity
  8
0
 62
    56
100
AcDbLine
 10
1039.500260175289
 20
906.1358115812897
 30
0.0
 11
1039.500260175289
 21
935.7727873603113
 31
0.0
  0
LINE
  5
29C
330
2
100
AcDbEntity
  8
0
 62
    56
100
AcDbLine
 10
1042.854297839231
 20
910.6388816516666
 30
0.0
 11
1042.854297839231
 21
929.926577837328
 31
0.0
  0
LINE
  5
29D
330
2
100
AcDbEntity
  8
0
 62
    56
100
AcDbLine
 10
1046.572282560815
 20
916.0118820995927
 30
0.0
 11
1046.572282560815
 21
924.5535773894019
 31
0.0
  0
LINE
  5
29E
330
2
100
AcDbEntity
  8
0
 62
    56
100
AcDbLine
 10
800.5989484865619
 20
628.4012180692907
 30
0.0
 11
1085.671855937085
 21
628.4012180692907
 31
0.0
  0
CIRCLE
  5
29F
330
2
100
AcDbEntity
  8
0
 62
     1
370
    30
100
AcDbCircle
 10
1234.582622490346
 20
335.6770914340137
 30
0.0
 40
21.00918010397843
  0
CIRCLE
  5
2A3
330
2
100
AcDbEntity
  8
0
 62
   250
370
    30
100
AcDbCircle
 10
1234.520181007761
 20
395.0848661843843
 30
0.0
 40
21.00918010397843
  0
CIRCLE
  5
2A7
330
2
100
AcDbEntity
  8
0
 62
     1
370
    30
100
AcDbCircle
 10
1234.520181007761
 20
451.7502964421924
 30
0.0
 40
21.00918010397843
  0
CIRCLE
  5
2AB
330
2
100
AcDbEntity
  8
0
 62
   250
370
    30
100
AcDbCircle
 10
1137.685615453919
 20
578.5931509954439
 30
0.0
 40
21.00918010397843
  0
LINE
  5
2AE
330
2
100
AcDbEntity
  8
0
 62
   252
100
AcDbLine
 10
1094.57518754467
 20
261.2888166757517
 30
0.0
 11
1094.57518754467
 21
619.2495115365913
 31
0.0
  0
LINE
  5
2AF
330
2
100
AcDbEntity
  8
0
 62
   252
100
AcDbLine
 10
1094.57518754467
 20
619.2495115365913
 30
0.0
 11
1339.165136360506
 21
619.2495115365913
 31
0.0
  0
LINE
  5
2B0
330
2
100
AcDbEntity
  8
0
 62
   252
100
AcDbLine
 10
1339.165136360506
 20
619.2495115365913
 30
0.0
 11
1339.165136360506
 21
261.2888166757517
 31
0.0
  0
LINE
  5
2B1
330
2
100
AcDbEntity
  8
0
 62
   252
100
AcDbLine
 10
1339.165136360506
 20
261.2888166757517
 30
0.0
 11
1094.57518754467
 21
261.2888166757517
 31
0.0
  0
CIRCLE
  5
2B3
330
2
100
AcDbEntity
  8
0
 62
   250
370
    30
100
AcDbCircle
 10
1234.582622490346
 20
768.358341278077
 30
0.0
 40
21.00918010397843
  0
CIRCLE
  5
2B7
330
2
100
AcDbEntity
  8
0
 62
     1
370
    30
100
AcDbCircle
 10
1234.520181007761
 20
886.8995479778192
 30
0.0
 40
21.00918010397843
  0
LINE
  5
2B8
330
2
100
AcDbEntity
  8
0
 62
     1
370
    30
100
AcDbLine
 10
1221.017559352162
 20
871.3262743741145
 30
0.0
 11
1248.022798577847
 21
902.4728251238176
 31
0.0
  0
LINE
  5
2B9
330
2
100
AcDbEntity
  8
0
 62
     1
370
    30
100
AcDbLine
 10
1234.520181007761
 20
886.8995479778192
 30
0.0
 11
1221.954892414037
 21
903.2384942371871
 31
0.0
  0
LINE
  5
2BA
330
2
100
AcDbEntity
  8
0
 62
     1
370
    30
100
AcDbLine
 10
1234.520181007761
 20
886.8995479778192
 30
0.0
 11
1246.712678770662
 21
870.2805636342517
 31
0.0
  0
LINE
  5
2BB
330
2
100
AcDbEntity
  8
0
 62
   252
100
AcDbLine
 10
1094.57518754467
 20
653.1478911412072
 30
0.0
 11
1094.57518754467
 21
1011.108586001919
 31
0.0
  0
LINE
  5
2BC
330
2
100
AcDbEntity
  8
0
 62
   252
100
AcDbLine
 10
1094.57518754467
 20
1011.108586001919
 30
0.0
 11
1339.165136360506
 21
1011.108586001919
 31
0.0
  0
LINE
  5
2BD
330
2
100
AcDbEntity
  8
0
 62
   252
100
AcDbLine
 10
1339.165136360506
 20
1011.108586001919
 30
0.0
 11
1339.165136360506
 21
653.1478911412075
 31
0.0
  0
LINE
  5
2BE
330
2
100
AcDbEntity
  8
0
 62
   252
100
AcDbLine
 10
1339.165136360506
 20
653.1478911412075
 30
0.0
 11
1094.57518754467
 21
653.1478911412075
 31
0.0
  0
LINE
  5
2C1
330
2
100
AcDbEntity
  8
0
 62
   252
100
AcDbLine
 10
599.7926463441414
 20
796.0172651447789
 30
0.0
 11
636.104935636844
 21
821.9138351143877
 31
0.0
  0
LINE
  5
2C2
330
2
100
AcDbEntity
  8
0
 62
   252
100
AcDbLine
 10
601.6548179111188
 20
811.6557315550569
 30
0.0
 11
633.4979104466635
 21
833.6398903008328
 31
0.0
  0
LINE
  5
2C4
330
2
100
AcDbEntity
  8
0
 62
   252
100
AcDbLine
 10
636.2000600586878
 20
849.2813438231047
 30
0.0
 11
599.4059293878438
 21
824.0740703083114
 31
0.0
  0
LINE
  5
2C6
330
2
100
AcDbEntity
  8
0
 62
   252
100
AcDbLine
 10
659.3275608998866
 20
796.0172651447784
 30
0.0
 11
695.6398501925906
 21
821.9138351143874
 31
0.0
  0
LINE
  5
2C7
330
2
100
AcDbEntity
  8
0
 62
   252
100
AcDbLine
 10
661.1897324668648
 20
811.6557315550567
 30
0.0
 11
693.0328250024127
 21
833.6398903008332
 31
0.0
  0
LINE
  5
2C9
330
2
100
AcDbEntity
  8
0
 62
   252
100
AcDbLine
 10
695.734974614433
 20
849.2813438230722
 30
0.0
 11
658.9408439435697
 21
824.0740703082797
 31
0.0
  0
ARC
  5
2CA
330
2
100
AcDbEntity
  8
0
 62
    18
370
     0
100
AcDbCircle
 10
1139.286453494253
 20
767.3453875379626
 30
0.0
 40
14.46431580258922
100
AcDbArc
 50
96.35583041835197
 51
263.644169581648
  0
LINE
  5
2CB
330
2
100
AcDbEntity
  8
0
 62
    18
370
     0
100
AcDbLine
 10
1137.685213251165
 20
752.9699758457857
 30
0.0
 11
1151.510053583306
 21
752.9699758457857
 31
0.0
  0
LINE
  5
2CC
330
2
100
AcDbEntity
  8
0
 62
    18
370
     0
100
AcDbLine
 10
1137.685213251165
 20
781.7207992301703
 30
0.0
 11
1151.510053583306
 21
781.7207992301703
 31
0.0
  0
LINE
  5
2CD
330
2
100
AcDbEntity
  8
0
 62
    18
370
     0
100
AcDbLine
 10
1151.510053583306
 20
747.2938776490585
 30
0.0
 11
1151.510053583306
 21
787.4255459526518
 31
0.0
  0
LINE
  5
2CE
330
2
100
AcDbEntity
  8
0
 62
    18
370
     0
100
AcDbLine
 10
1151.510053583306
 20
747.2938776490585
 30
0.0
 11
1178.172928851987
 21
747.2938776490585
 31
0.0
  0
LINE
  5
2CF
330
2
100
AcDbEntity
  8
0
 62
    18
370
     0
100
AcDbLine
 10
1178.172928851987
 20
747.2938776490585
 30
0.0
 11
1178.172928851987
 21
787.4255459526518
 31
0.0
  0
LINE
  5
2D0
330
2
100
AcDbEntity
  8
0
 62
    18
370
     0
100
AcDbLine
 10
1178.172928851987
 20
787.4255459526518
 30
0.0
 11
1151.510053583306
 21
787.4255459526518
 31
0.0
  0
ARC
  5
2D1
330
2
100
AcDbEntity
  8
0
 62
    88
100
AcDbCircle
 10
1139.003241827325
 20
858.899169573338
 30
0.0
 40
14.46431580258922
100
AcDbArc
 50
96.35583041835197
 51
263.644169581648
  0
LINE
  5
2D2
330
2
100
AcDbEntity
  8
0
 62
    88
100
AcDbLine
 10
1137.402001584215
 20
873.421985177711
 30
0.0
 11
1151.226841916377
 21
873.421985177711
 31
0.0
  0
LINE
  5
2D3
330
2
100
AcDbEntity
  8
0
 62
    88
100
AcDbLine
 10
1151.226841916377
 20
867.7458869808249
 30
0.0
 11
1151.226841916377
 21
907.8775552845764
 31
0.0
  0
LINE
  5
2D4
330
2
100
AcDbEntity
  8
0
 62
    88
100
AcDbLine
 10
1151.226841916377
 20
867.7458869808249
 30
0.0
 11
1177.88971718507
 21
867.7458869808249
 31
0.0
  0
LINE
  5
2D5
330
2
100
AcDbEntity
  8
0
 62
    88
100
AcDbLine
 10
1177.88971718507
 20
867.7458869808249
 30
0.0
 11
1177.889717185057
 21
907.8775552845764
 31
0.0
  0
LINE
  5
2D6
330
2
100
AcDbEntity
  8
0
 62
    88
100
AcDbLine
 10
1177.88971718507
 20
907.8775552845764
 30
0.0
 11
1151.226841916377
 21
907.8775552845764
 31
0.0
  0
LINE
  5
2D7
330
2
100
AcDbEntity
  8
0
 62
   250
370
    30
100
AcDbLine
 10
665.8807654987732
 20
907.4940630177801
 30
0.0
 11
665.8807654987732
 21
945.7800229854225
 31
0.0
  0
LINE
  5
2D8
330
2
100
AcDbEntity
  8
0
 62
   250
370
    30
100
AcDbLine
 10
665.8807654987732
 20
945.7800229854225
 30
0.0
 11
689.6916630852606
 21
945.7800229854225
 31
0.0
  0
LINE
  5
2D9
330
2
100
AcDbEntity
  8
0
 62
   250
370
    30
100
AcDbLine
 10
689.6916630852606
 20
945.7800229854225
 30
0.0
 11
689.6916630852606
 21
907.4940630177801
 31
0.0
  0
LINE
  5
2DA
330
2
100
AcDbEntity
  8
0
 62
   250
370
    30
100
AcDbLine
 10
689.6916630852606
 20
907.4940630177801
 30
0.0
 11
665.8807654987732
 21
907.4940630177801
 31
0.0
  0
LINE
  5
2DB
330
2
100
AcDbEntity
  8
TOPOVERLAY
  6
Continuous
 62
     3
370
    30
100
AcDbLine
 10
606.3458509430277
 20
907.4940630177803
 30
0.0
 11
606.3458509430277
 21
945.7800229852642
 31
0.0
  0
LINE
  5
2DC
330
2
100
AcDbEntity
  8
TOPOVERLAY
  6
Continuous
 62
     3
370
    30
100
AcDbLine
 10
606.3458509430277
 20
945.7800229852642
 30
0.0
 11
630.1567485295541
 21
945.7800229852642
 31
0.0
  0
LINE
  5
2DD
330
2
100
AcDbEntity
  8
TOPOVERLAY
  6
Continuous
 62
     3
370
    30
100
AcDbLine
 10
630.1567485295541
 20
945.7800229852642
 30
0.0
 11
630.1567485295541
 21
907.4940630177803
 31
0.0
  0
LINE
  5
2DE
330
2
100
AcDbEntity
  8
TOPOVERLAY
  6
Continuous
 62
     3
370
    30
100
AcDbLine
 10
630.1567485295541
 20
907.4940630177803
 30
0.0
 11
606.3458509430277
 21
907.4940630177803
 31
0.0
  0
LINE
  5
2E0
330
2
100
AcDbEntity
  8
0
 62
   252
100
AcDbLine
 10
1176.401910468062
 20
557.2303403402433
 30
0.0
 11
1176.401910468062
 21
601.3235525283021
 31
0.0
  0
LINE
  5
2E1
330
2
100
AcDbEntity
  8
0
 62
   252
100
AcDbLine
 10
1176.401910468062
 20
601.3235525283021
 30
0.0
 11
1211.659521838679
 21
601.3235525283021
 31
0.0
  0
LINE
  5
2E2
330
2
100
AcDbEntity
  8
0
 62
   252
100
AcDbLine
 10
1211.659521838679
 20
601.3235525283021
 30
0.0
 11
1211.659521838679
 21
557.2303403402433
 31
0.0
  0
LINE
  5
2E3
330
2
100
AcDbEntity
  8
0
 62
   252
100
AcDbLine
 10
1211.659521838679
 20
557.2303403402433
 30
0.0
 11
1176.401910468062
 21
557.2303403402433
 31
0.0
  0
LINE
  5
2E6
330
2
100
AcDbEntity
  8
0
 62
   250
370
   100
100
AcDbLine
 10
527.8635948504152
 20
628.2835470220474
 30
0.0
 11
587.9718373885777
 21
628.2835470220474
 31
0.0
  0
LINE
  5
2E7
330
2
100
AcDbEntity
  8
TOPOVERLAY
  6
Continuous
 62
   250
370
   100
100
AcDbLine
 10
541.4356581651294
 20
585.0814711308552
 30
0.0
 11
587.6442963840311
 21
614.4695149158027
 31
0.0
  0
LINE
  5
2EA
330
2
100
AcDbEntity
  8
0
 62
   250
370
   100
100
AcDbLine
 10
950.2989489221251
 20
845.5916548606225
 30
0.0
 11
1012.039857522575
 21
845.5916548606225
 31
0.0
  0
LINE
  5
2EB
330
2
100
AcDbEntity
  8
TOPOVERLAY
  6
Continuous
 62
     3
370
   100
100
AcDbLine
 10
969.3382320053286
 20
803.5084767944718
 30
0.0
 11
1011.712316518024
 21
830.4615642773709
 31
0.0
  0
LINE
  5
2ED
330
2
100
AcDbEntity
  8
0
 62
    56
100
AcDbLine
 10
487.2596160318638
 20
616.2796927904357
 30
0.0
 11
511.5368865155466
 21
640.4371014782914
 31
0.0
  0
LINE
  5
2EE
330
2
100
AcDbEntity
  8
0
 62
    56
100
AcDbLine
 10
487.2596160318638
 20
640.4371014782914
 30
0.0
 11
511.5368865155466
 21
616.2796927904357
 31
0.0
  0
LINE
  5
2EF
330
2
100
AcDbEntity
  8
0
 62
    56
100
AcDbLine
 10
646.6388714719157
 20
640.4799224132188
 30
0.0
 11
670.9161419555982
 21
616.3225137253627
 31
0.0
  0
LINE
  5
2F0
330
2
100
AcDbEntity
  8
0
 62
    56
100
AcDbLine
 10
646.6388714719157
 20
616.3225137253627
 30
0.0
 11
670.9161419555982
 21
640.4799224132188
 31
0.0
  0
LINE
  5
34E
330
2
100
AcDbEntity
  8
TOPOVERLAY
  6
Continuous
 62
   250
370
   100
100
AcDbLine
 10
402.8918988683551
 20
615.0891707921307
 30
0.0
 11
402.8918988683551
 21
581.2038389636446
 31
0.0
  0
LINE
  5
34F
330
2
100
AcDbEntity
  8
0
 62
   250
370
   100
100
AcDbLine
 10
369.3976333107765
 20
628.4012180692907
 30
0.0
 11
389.5796502072763
 21
628.4012180692907
 31
0.0
  0
LINE
  5
350
330
2
100
AcDbEntity
  8
0
 62
   250
370
   100
100
AcDbLine
 10
355.6943183798837
 20
628.4012180692907
 30
0.0
 11
389.5796502072763
 21
628.4012180692907
 31
0.0
  0
LINE
  5
351
330
2
100
AcDbEntity
  8
0
 62
   250
370
   100
100
AcDbLine
 10
416.2037447646424
 20
628.4012180692907
 30
0.0
 11
439.2980590427089
 21
628.4012180692907
 31
0.0
  0
LINE
  5
352
330
2
100
AcDbEntity
  8
0
 62
   250
370
   100
100
AcDbLine
 10
416.2037447646424
 20
628.4012180692907
 30
0.0
 11
450.0890765920352
 21
628.4012180692907
 31
0.0
  0
LINE
  5
353
330
2
100
AcDbEntity
  8
TOPOVERLAY
  6
Continuous
 62
   250
370
   100
100
AcDbLine
 10
402.8918988683551
 20
641.7132653464506
 30
0.0
 11
402.8918988683551
 21
675.5985971749367
 31
0.0
  0
LINE
  5
3A7
330
2
100
AcDbEntity
  8
0
 62
    56
100
AcDbLine
 10
314.6906252757422
 20
628.4012180692907
 30
0.0
 11
294.9734384654401
 21
628.4005129031984
 31
0.0
  0
MTEXT
  5
41F
330
2
100
AcDbEntity
  8
0
100
AcDbMText
 10
178.1088203111944
 20
165.4714462935649
 30
0.0
 40
30.0
 41
3011.936264869754
 71
     1
 72
     5
  1
ORT400
 11
0.0000000000000001
 21
1.0
 31
0.0
 73
     1
 44
1.0
1001
ACAD
1000
MTEXTBEGIN
1070
    73
1070
     1
1070
    44
1040
1.0
1070
    74
1070
     0
1000
MTEXTEND
  0
LINE
  5
4D4
330
2
100
AcDbEntity
  8
0
 62
   250
370
    30
100
AcDbLine
 10
1234.582624533102
 20
768.3583395069299
 30
0.0
 11
1246.775122296003
 21
751.7393551633626
 31
0.0
  0
LINE
  5
4D5
330
2
100
AcDbEntity
  8
0
 62
   250
370
    30
100
AcDbLine
 10
1234.582624533102
 20
768.3583395069299
 30
0.0
 11
1222.017335939378
 21
784.697285766298
 31
0.0
  0
LINE
  5
4D6
330
2
100
AcDbEntity
  8
0
 62
   250
370
    30
100
AcDbLine
 10
1221.080002877503
 20
752.7850659032252
 30
0.0
 11
1248.085242103188
 21
783.9316166529283
 31
0.0
  0
LINE
  5
4D7
330
2
100
AcDbEntity
  8
0
 62
   250
370
    30
100
AcDbLine
 10
1124.182995841076
 20
563.0198756205922
 30
0.0
 11
1151.188235066761
 21
594.1664263702953
 31
0.0
  0
LINE
  5
4D8
330
2
100
AcDbEntity
  8
0
 62
   250
370
    30
100
AcDbLine
 10
1137.685617496675
 20
578.593149224297
 30
0.0
 11
1125.12032890295
 21
594.9320954836649
 31
0.0
  0
LINE
  5
4D9
330
2
100
AcDbEntity
  8
0
 62
   250
370
    30
100
AcDbLine
 10
1137.685617496675
 20
578.593149224297
 30
0.0
 11
1149.878115259576
 21
561.9741648807295
 31
0.0
  0
LINE
  5
4DA
330
2
100
AcDbEntity
  8
0
 62
     1
370
    30
100
AcDbLine
 10
1221.017561394918
 20
436.1770210673407
 30
0.0
 11
1248.022800620603
 21
467.3235718170438
 31
0.0
  0
LINE
  5
4DB
330
2
100
AcDbEntity
  8
0
 62
     1
370
    30
100
AcDbLine
 10
1234.520183050517
 20
451.7502946710455
 30
0.0
 11
1221.954894456793
 21
468.0892409304131
 31
0.0
  0
LINE
  5
4DC
330
2
100
AcDbEntity
  8
0
 62
     1
370
    30
100
AcDbLine
 10
1234.520183050517
 20
451.7502946710455
 30
0.0
 11
1246.712680813418
 21
435.131310327478
 31
0.0
  0
LINE
  5
4DD
330
2
100
AcDbEntity
  8
0
 62
   250
370
    30
100
AcDbLine
 10
1221.017561394918
 20
379.5115908095326
 30
0.0
 11
1248.022800620603
 21
410.6581415592358
 31
0.0
  0
LINE
  5
4DE
330
2
100
AcDbEntity
  8
0
 62
   250
370
    30
100
AcDbLine
 10
1234.520183050517
 20
395.0848644132374
 30
0.0
 11
1221.954894456793
 21
411.4238106726054
 31
0.0
  0
LINE
  5
4DF
330
2
100
AcDbEntity
  8
0
 62
   250
370
    30
100
AcDbLine
 10
1234.520183050517
 20
395.0848644132374
 30
0.0
 11
1246.712680813418
 21
378.4658800696699
 31
0.0
  0
LINE
  5
4E0
330
2
100
AcDbEntity
  8
0
 62
     1
370
    30
100
AcDbLine
 10
1221.080002877503
 20
320.103816059162
 30
0.0
 11
1248.085242103188
 21
351.2503668088652
 31
0.0
  0
LINE
  5
4E1
330
2
100
AcDbEntity
  8
0
 62
     1
370
    30
100
AcDbLine
 10
1234.582624533102
 20
335.6770896628668
 30
0.0
 11
1222.017335939378
 21
352.0160359222348
 31
0.0
  0
LINE
  5
4E2
330
2
100
AcDbEntity
  8
0
 62
     1
370
    30
100
AcDbLine
 10
1234.582624533102
 20
335.6770896628668
 30
0.0
 11
1246.775122296003
 21
319.0581053192993
 31
0.0
  0
LINE
  5
4E3
330
2
100
AcDbEntity
  8
0
 62
   250
370
    30
100
AcDbLine
 10
989.9526532609682
 20
435.4398263182958
 30
0.0
 11
1016.957892486653
 21
466.5863770679991
 31
0.0
  0
LINE
  5
4E4
330
2
100
AcDbEntity
  8
0
 62
   250
370
    30
100
AcDbLine
 10
1003.455274916567
 20
451.0130999220006
 30
0.0
 11
990.8899863228434
 21
467.3520461813687
 31
0.0
  0
LINE
  5
4E5
330
2
100
AcDbEntity
  8
0
 62
   250
370
    30
100
AcDbLine
 10
1003.455274916567
 20
451.0130999220006
 30
0.0
 11
1015.647772679468
 21
434.3941155784332
 31
0.0
  0
LINE
  5
4E6
330
2
100
AcDbEntity
  8
0
 62
   250
370
    30
100
AcDbLine
 10
989.9526532609682
 20
378.7743960606472
 30
0.0
 11
1016.957892486653
 21
409.92094681035
 31
0.0
  0
LINE
  5
4E7
330
2
100
AcDbEntity
  8
0
 62
   250
370
    30
100
AcDbLine
 10
1003.455274916567
 20
394.3476696643519
 30
0.0
 11
990.8899863228434
 21
410.6866159237197
 31
0.0
  0
LINE
  5
4E8
330
2
100
AcDbEntity
  8
0
 62
   250
370
    30
100
AcDbLine
 10
1003.455274916567
 20
394.3476696643519
 30
0.0
 11
1015.647772679468
 21
377.7286853207844
 31
0.0
  0
LINE
  5
4E9
330
2
100
AcDbEntity
  8
0
 62
   250
370
    30
100
AcDbLine
 10
990.0150947435792
 20
319.3666213102447
 30
0.0
 11
1017.020333969264
 21
350.5131720599478
 31
0.0
  0
LINE
  5
4EA
330
2
100
AcDbEntity
  8
0
 62
   250
370
    30
100
AcDbLine
 10
1003.517716399178
 20
334.9398949139493
 30
0.0
 11
990.9524278054542
 21
351.2788411733175
 31
0.0
  0
LINE
  5
4EB
330
2
100
AcDbEntity
  8
0
 62
   250
370
    30
100
AcDbLine
 10
1003.517716399178
 20
334.9398949139493
 30
0.0
 11
1015.710214162079
 21
318.3209105703819
 31
0.0
  0
LINE
  5
5FE
330
2
100
AcDbEntity
  8
TOPOVERLAY
  6
Continuous
 62
   250
370
   100
100
AcDbLine
 10
732.0778698662016
 20
615.0891707921307
 30
0.0
 11
732.0778698662013
 21
581.2038389636446
 31
0.0
  0
LINE
  5
5FF
330
2
100
AcDbEntity
  8
0
 62
   250
370
   100
100
AcDbLine
 10
684.8802893777299
 20
628.4012180692907
 30
0.0
 11
718.7656212051225
 21
628.4012180692907
 31
0.0
  0
LINE
  5
600
330
2
100
AcDbEntity
  8
0
 62
   250
370
   100
100
AcDbLine
 10
698.5836043086227
 20
628.4012180692907
 30
0.0
 11
718.7656212051225
 21
628.4012180692907
 31
0.0
  0
LINE
  5
601
330
2
100
AcDbEntity
  8
TOPOVERLAY
  6
Continuous
 62
   250
370
   100
100
AcDbLine
 10
732.0778698662016
 20
641.7132653464506
 30
0.0
 11
732.0778698662013
 21
675.5985971749367
 31
0.0
  0
LINE
  5
602
330
2
100
AcDbEntity
  8
0
 62
   250
370
   100
100
AcDbLine
 10
745.3897157624886
 20
628.4012180692907
 30
0.0
 11
779.2750475898814
 21
628.4012180692907
 31
0.0
  0
LINE
  5
603
330
2
100
AcDbEntity
  8
0
 62
   250
370
   100
100
AcDbLine
 10
745.3897157624886
 20
628.4012180692907
 30
0.0
 11
768.4840300405551
 21
628.4012180692907
 31
0.0
  0
ARC
  5
690
330
2
100
AcDbEntity
  8
0
 62
   252
100
AcDbCircle
 10
617.8764404623666
 20
856.3992904409591
 30
0.0
 40
19.88045606348704
100
AcDbArc
 50
162.0486963503322
 51
20.11213206675568
  0
ARC
  5
6A3
330
2
100
AcDbEntity
  8
0
 62
   252
100
AcDbCircle
 10
618.2472219321501
 20
789.2460880659657
 30
0.0
 40
19.88045606348704
100
AcDbArc
 50
340.9682821417888
 51
199.0317178582113
  0
ARC
  5
6A4
330
2
100
AcDbEntity
  8
0
 62
   252
100
AcDbCircle
 10
677.4113550180925
 20
856.3992904409273
 30
0.0
 40
19.88045606348704
100
AcDbArc
 50
162.0486963503322
 51
20.11213206675568
  0
ARC
  5
6A5
330
2
100
AcDbEntity
  8
0
 62
   252
100
AcDbCircle
 10
677.7821364878757
 20
789.2460880659341
 30
0.0
 40
19.88045606348704
100
AcDbArc
 50
340.9682821417888
 51
199.0317178582113
  0
LINE
  5
734
330
2
100
AcDbEntity
  8
0
100
AcDbLine
 10
1160.635950755763
 20
405.6458959125343
 30
0.0
 11
771.6425722042286
 21
990.4551010419117
 31
0.0
  0
LINE
  5
739
330
2
100
AcDbEntity
  8
0
100
AcDbLine
 10
1160.635950755763
 20
405.6458959125343
 30
0.0
 11
1113.601498431269
 21
423.6215716375654
 31
0.0
  0
LINE
  5
73A
330
2
100
AcDbEntity
  8
0
100
AcDbLine
 10
1160.635950755763
 20
405.6458959125343
 30
0.0
 11
1163.273601234847
 21
460.8592291669183
 31
0.0
  0
LINE
  5
8C7
330
2
100
AcDbEntity
  8
6-家具-143
 62
   143
100
AcDbLine
 10
759.797652049396
 20
940.4762099537373
 30
0.0
 11
762.1971864866194
 21
977.7704137522336
 31
0.0
  0
LINE
  5
8C8
330
2
100
AcDbEntity
  8
6-家具-143
 62
   143
100
AcDbLine
 10
733.1361583024363
 20
971.909896012473
 30
0.0
 11
733.1361583024363
 21
941.0089842937264
 31
0.0
  0
LINE
  5
8C9
330
2
100
AcDbEntity
  8
6-家具-143
 62
   143
100
AcDbLine
 10
748.0665948007357
 20
967.1149269526667
 30
0.0
 11
752.3324338002462
 21
975.1065420523362
 31
0.0
  0
LINE
  5
8CA
330
2
100
AcDbEntity
  8
6-家具-143
 62
   143
100
AcDbLine
 10
768.3065276190156
 20
976.6855867451365
 30
0.0
 11
769.2151232662712
 21
969.9417851934519
 31
0.0
  0
LINE
  5
8CB
330
2
100
AcDbEntity
  8
6-家具-143
 62
   143
100
AcDbLine
 10
765.8017507812925
 20
971.6943325751769
 30
0.0
 11
764.6616211167752
 21
966.4542165445238
 31
0.0
  0
LINE
  5
8CC
330
2
100
AcDbEntity
  8
6-家具-143
 62
   143
100
AcDbLine
 10
732.0539127117356
 20
971.2386703116429
 30
0.0
 11
738.8946906988144
 21
974.2004750246257
 31
0.0
  0
LINE
  5
8CD
330
2
100
AcDbEntity
  8
6-家具-143
 62
   143
100
AcDbLine
 10
728.6335237182079
 20
994.2496146202396
 30
0.0
 11
723.1609013285471
 21
964.403736358609
 31
0.0
  0
LINE
  5
8CE
330
2
100
AcDbEntity
  8
6-家具-143
 62
   143
100
AcDbLine
 10
739.8015317391706
 20
899.7189729454069
 30
0.0
 11
736.6021524895431
 21
900.7845216253613
 31
0.0
  0
LINE
  5
8CF
330
2
100
AcDbEntity
  8
6-家具-143
 62
   143
100
AcDbLine
 10
736.6021524895431
 20
900.7845216253613
 30
0.0
 11
733.9360031148403
 21
899.1861986054184
 31
0.0
  0
LINE
  5
8D0
330
2
100
AcDbEntity
  8
6-家具-143
 62
   143
100
AcDbLine
 10
756.864887737225
 20
898.1206499254639
 30
0.0
 11
756.331657862289
 21
899.4525857754124
 31
0.0
  0
LINE
  5
8D1
330
2
100
AcDbEntity
  8
6-家具-143
 62
   143
100
AcDbLine
 10
756.331657862289
 20
899.4525857754124
 30
0.0
 11
752.5990487377145
 21
897.0551012455096
 31
0.0
  0
LINE
  5
8D2
330
2
100
AcDbEntity
  8
6-家具-143
 62
   143
100
AcDbLine
 10
752.5990487377145
 20
897.0551012455096
 30
0.0
 11
752.0658188627784
 21
897.0551012455096
 31
0.0
  0
LINE
  5
8D3
330
2
100
AcDbEntity
  8
6-家具-143
 62
   143
100
AcDbLine
 10
747.0001350508521
 20
939.4106612737829
 30
0.0
 11
748.0665948007357
 21
936.7467895738856
 31
0.0
  0
LINE
  5
8D4
330
2
100
AcDbEntity
  8
6-家具-143
 62
   143
100
AcDbLine
 10
748.0665948007357
 20
936.7467895738856
 30
0.0
 11
747.5333649257881
 21
936.4804024039147
 31
0.0
  0
LINE
  5
8D5
330
2
100
AcDbEntity
  8
6-家具-143
 62
   143
100
AcDbLine
 10
747.5333649257881
 20
936.4804024039147
 30
0.0
 11
749.6662844255432
 21
897.5878755854981
 31
0.0
  0
LINE
  5
8D6
330
2
100
AcDbEntity
  8
6-家具-143
 62
   143
100
AcDbLine
 10
749.6662844255432
 20
897.5878755854981
 30
0.0
 11
750.732744175427
 21
897.3214884155039
 31
0.0
  0
LINE
  5
8D7
330
2
100
AcDbEntity
  8
6-家具-143
 62
   143
100
AcDbLine
 10
750.732744175427
 20
897.3214884155039
 30
0.0
 11
748.5998246756715
 21
893.0592936956633
 31
0.0
  0
LINE
  5
8D8
330
2
100
AcDbEntity
  8
6-家具-143
 62
   143
100
AcDbLine
 10
748.5998246756715
 20
893.0592936956633
 30
0.0
 11
748.5998246756715
 21
891.4609706757433
 31
0.0
  0
LINE
  5
8D9
330
2
100
AcDbEntity
  8
6-家具-143
 62
   143
100
AcDbLine
 10
748.5998246756715
 20
891.4609706757433
 30
0.0
 11
756.331657862289
 21
890.9281963357543
 31
0.0
  0
LINE
  5
8DA
330
2
100
AcDbEntity
  8
6-家具-143
 62
   143
100
AcDbLine
 10
756.331657862289
 20
890.9281963357543
 30
0.0
 11
761.3973416742035
 21
891.194583505749
 31
0.0
  0
LINE
  5
8DB
330
2
100
AcDbEntity
  8
6-家具-143
 62
   143
100
AcDbLine
 10
761.3973416742035
 20
891.194583505749
 30
0.0
 11
764.5967209238427
 21
891.194583505749
 31
0.0
  0
LINE
  5
8DC
330
2
100
AcDbEntity
  8
6-家具-143
 62
   143
100
AcDbLine
 10
764.5967209238427
 20
891.194583505749
 30
0.0
 11
764.5967209238427
 21
893.592068035652
 31
0.0
  0
LINE
  5
8DD
330
2
100
AcDbEntity
  8
6-家具-143
 62
   143
100
AcDbLine
 10
764.5967209238427
 20
893.592068035652
 30
0.0
 11
758.4645773620446
 21
897.5878755854981
 31
0.0
  0
LINE
  5
8DE
330
2
100
AcDbEntity
  8
6-家具-143
 62
   143
100
AcDbLine
 10
758.4645773620446
 20
897.5878755854981
 30
0.0
 11
759.797652049396
 21
936.7467895738856
 31
0.0
  0
LINE
  5
8DF
330
2
100
AcDbEntity
  8
6-家具-143
 62
   143
100
AcDbLine
 10
759.797652049396
 20
936.7467895738856
 30
0.0
 11
759.2644221744483
 21
939.144274103789
 31
0.0
  0
LINE
  5
8E0
330
2
100
AcDbEntity
  8
6-家具-143
 62
   143
100
AcDbLine
 10
759.2644221744483
 20
939.144274103789
 30
0.0
 11
759.797652049396
 21
940.4762099537373
 31
0.0
  0
LINE
  5
8E1
330
2
100
AcDbEntity
  8
6-家具-143
 62
   143
100
AcDbLine
 10
733.1361583024363
 20
941.0089842937264
 30
0.0
 11
732.3363134900206
 21
938.0787254238342
 31
0.0
  0
LINE
  5
8E2
330
2
100
AcDbEntity
  8
6-家具-143
 62
   143
100
AcDbLine
 10
732.3363134900206
 20
938.0787254238342
 30
0.0
 11
732.8695433649683
 21
898.6534242654526
 31
0.0
  0
LINE
  5
8E3
330
2
100
AcDbEntity
  8
6-家具-143
 62
   143
100
AcDbLine
 10
732.8695433649683
 20
898.6534242654526
 30
0.0
 11
735.5356927396597
 21
897.8542627554693
 31
0.0
  0
LINE
  5
8E4
330
2
100
AcDbEntity
  8
6-家具-143
 62
   143
100
AcDbLine
 10
735.5356927396597
 20
897.8542627554693
 30
0.0
 11
733.9360031148403
 21
894.6576167156065
 31
0.0
  0
LINE
  5
8E5
330
2
100
AcDbEntity
  8
6-家具-143
 62
   143
100
AcDbLine
 10
733.9360031148403
 20
894.6576167156065
 30
0.0
 11
732.3363134900206
 21
893.0592936956633
 31
0.0
  0
LINE
  5
8E6
330
2
100
AcDbEntity
  8
6-家具-143
 62
   143
100
AcDbLine
 10
732.3363134900206
 20
893.0592936956633
 30
0.0
 11
732.3363134900206
 21
891.4609706757433
 31
0.0
  0
LINE
  5
8E7
330
2
100
AcDbEntity
  8
6-家具-143
 62
   143
100
AcDbLine
 10
732.3363134900206
 20
891.4609706757433
 30
0.0
 11
736.3355375520637
 21
891.194583505749
 31
0.0
  0
LINE
  5
8E8
330
2
100
AcDbEntity
  8
6-家具-143
 62
   143
100
AcDbLine
 10
736.3355375520637
 20
891.194583505749
 30
0.0
 11
744.0673707386811
 21
890.9281963357543
 31
0.0
  0
LINE
  5
8E9
330
2
100
AcDbEntity
  8
6-家具-143
 62
   143
100
AcDbLine
 10
744.0673707386811
 20
890.9281963357543
 30
0.0
 11
745.1338304885646
 21
893.0592936956633
 31
0.0
  0
LINE
  5
8EA
330
2
100
AcDbEntity
  8
6-家具-143
 62
   143
100
AcDbLine
 10
745.1338304885646
 20
893.0592936956633
 30
0.0
 11
744.0673707386811
 21
894.9240038856006
 31
0.0
  0
LINE
  5
8EB
330
2
100
AcDbEntity
  8
6-家具-143
 62
   143
100
AcDbLine
 10
744.0673707386811
 20
894.9240038856006
 30
0.0
 11
740.8679914890541
 21
897.8542627554693
 31
0.0
  0
LINE
  5
8EC
330
2
100
AcDbEntity
  8
6-家具-143
 62
   143
100
AcDbLine
 10
740.8679914890541
 20
897.8542627554693
 30
0.0
 11
741.9344512389256
 21
899.1861986054184
 31
0.0
  0
LINE
  5
8ED
330
2
100
AcDbEntity
  8
6-家具-143
 62
   143
100
AcDbLine
 10
741.9344512389256
 20
899.1861986054184
 30
0.0
 11
745.6670603635005
 21
937.2795639138741
 31
0.0
  0
LINE
  5
8EE
330
2
100
AcDbEntity
  8
6-家具-143
 62
   143
100
AcDbLine
 10
745.6670603635005
 20
937.2795639138741
 30
0.0
 11
746.466905175916
 21
939.9434356137717
 31
0.0
  0
LINE
  5
8EF
330
2
100
AcDbEntity
  8
6-家具-143
 62
   143
100
AcDbLine
 10
746.466905175916
 20
939.9434356137717
 30
0.0
 11
748.0665948007357
 21
967.1149269526667
 31
0.0
  0
LINE
  5
8F0
330
2
100
AcDbEntity
  8
6-家具-143
 62
   143
100
AcDbLine
 10
769.2151232662712
 20
969.9417851934519
 30
0.0
 11
768.4363269972016
 21
969.6824082106893
 31
0.0
  0
LINE
  5
8F1
330
2
100
AcDbEntity
  8
6-家具-143
 62
   143
100
AcDbLine
 10
768.4363269972016
 20
969.6824082106893
 30
0.0
 11
767.9171294844809
 21
968.2558348055305
 31
0.0
  0
LINE
  5
8F2
330
2
100
AcDbEntity
  8
6-家具-143
 62
   143
100
AcDbLine
 10
767.9171294844809
 20
968.2558348055305
 30
0.0
 11
767.0085338372254
 21
968.1261463141609
 31
0.0
  0
LINE
  5
8F3
330
2
100
AcDbEntity
  8
6-家具-143
 62
   143
100
AcDbLine
 10
767.0085338372254
 20
968.1261463141609
 30
0.0
 11
766.7489350808651
 21
967.088638383111
 31
0.0
  0
LINE
  5
8F4
330
2
100
AcDbEntity
  8
6-家具-143
 62
   143
100
AcDbLine
 10
766.7489350808651
 20
967.088638383111
 30
0.0
 11
765.0615431645404
 21
966.5698844176093
 31
0.0
  0
LINE
  5
8F5
330
2
100
AcDbEntity
  8
6-家具-143
 62
   143
100
AcDbLine
 10
764.6616211167752
 20
966.4542165445238
 30
0.0
 11
763.977543318072
 21
963.4924118315177
 31
0.0
  0
LINE
  5
8F6
330
2
100
AcDbEntity
  8
6-家具-143
 62
   143
100
AcDbLine
 10
763.977543318072
 20
963.4924118315177
 30
0.0
 11
761.4692580561487
 21
964.403736358609
 31
0.0
  0
LINE
  5
8F7
330
2
100
AcDbEntity
  8
6-家具-143
 62
   143
100
AcDbLine
 10
724.073005060163
 20
965.0872297538986
 30
0.0
 11
727.4933940536905
 21
967.3655410715918
 31
0.0
  0
LINE
  5
8F8
330
2
100
AcDbEntity
  8
6-家具-143
 62
   143
100
AcDbLine
 10
727.4933940536905
 20
967.3655410715918
 30
0.0
 11
732.0539127117356
 21
971.2386703116429
 31
0.0
  0
LINE
  5
8F9
330
2
100
AcDbEntity
  8
6-家具-143
 62
   143
100
AcDbLine
 10
723.1609013285471
 20
964.403736358609
 30
0.0
 11
725.6691865904707
 21
964.1759052268307
 31
0.0
  0
LINE
  5
8FA
330
2
100
AcDbEntity
  8
6-家具-143
 62
   143
100
AcDbLine
 10
725.6691865904707
 20
964.1759052268307
 30
0.0
 11
729.7736533827134
 21
966.2263854127452
 31
0.0
  0
LINE
  5
8FB
330
2
100
AcDbEntity
  8
6-家具-143
 62
   143
100
AcDbLine
 10
729.7736533827134
 20
966.2263854127452
 30
0.0
 11
732.9660164433517
 21
966.909878808058
 31
0.0
  0
LINE
  5
8FC
330
2
100
AcDbEntity
  8
6-家具-143
 62
   143
100
AcDbLine
 10
750.4637905641559
 20
1060.579435649335
 30
-0.000000000000001
 11
749.9960450606636
 21
1061.046781560739
 31
0.0000000000000018
  0
LINE
  5
8FD
330
2
100
AcDbEntity
  8
6-家具-143
 62
   143
100
AcDbLine
 10
749.9960450606636
 20
1061.046781560739
 30
0.0000000000000018
 11
749.1541031543846
 21
1060.766374013882
 31
0.000000000000002
  0
LINE
  5
8FE
330
2
100
AcDbEntity
  8
6-家具-143
 62
   143
100
AcDbLine
 10
755.8896384046398
 20
1061.140250743024
 30
-0.0000000000000009
 11
755.3283438004537
 21
1061.327189107595
 31
-0.0000000000000013
  0
LINE
  5
8FF
330
2
100
AcDbEntity
  8
6-家具-143
 62
   143
100
AcDbLine
 10
755.3283438004537
 20
1061.327189107595
 30
-0.0000000000000013
 11
754.7670491962676
 21
1060.672904831597
 31
0.0000000000000007
  0
LINE
  5
900
330
2
100
AcDbEntity
  8
6-家具-143
 62
   143
100
AcDbLine
 10
757.7606199166021
 20
1062.261880841625
 30
0.0
 11
755.6089906005405
 21
1062.729226753053
 31
0.0
  0
LINE
  5
901
330
2
100
AcDbEntity
  8
6-家具-143
 62
   143
100
AcDbLine
 10
755.6089906005405
 20
1062.729226753053
 30
0.0
 11
753.4573612844903
 21
1061.888004112484
 31
0.0
  0
LINE
  5
902
330
2
100
AcDbEntity
  8
6-家具-143
 62
   143
100
AcDbLine
 10
757.1057767137171
 20
1061.420658289881
 30
0.0
 11
754.9541473976555
 21
1061.514127472166
 31
0.0
  0
LINE
  5
903
330
2
100
AcDbEntity
  8
6-家具-143
 62
   143
100
AcDbLine
 10
754.9541473976555
 20
1061.514127472166
 30
0.0
 11
753.4573617864968
 21
1060.953312378453
 31
0.0
  0
LINE
  5
904
330
2
100
AcDbEntity
  8
6-家具-143
 62
   143
100
AcDbLine
 10
753.4573617864968
 20
1060.953312378453
 30
0.0
 11
753.8315581892836
 21
1060.392497284764
 31
0.0
  0
LINE
  5
905
330
2
100
AcDbEntity
  8
6-家具-143
 62
   143
100
AcDbLine
 10
753.8315581892836
 20
1060.392497284764
 30
0.0
 11
754.8605982969616
 21
1060.485966467049
 31
0.0
  0
LINE
  5
906
330
2
100
AcDbEntity
  8
6-家具-143
 62
   143
100
AcDbLine
 10
754.8605982969616
 20
1060.485966467049
 30
0.0
 11
756.638031210225
 21
1060.953312378453
 31
0.0
  0
LINE
  5
907
330
2
100
AcDbEntity
  8
6-家具-143
 62
   143
100
AcDbLine
 10
751.3992813286704
 20
1061.794535160374
 30
0.0
 11
750.1831432594205
 21
1062.729226690468
 31
0.0
  0
LINE
  5
908
330
2
100
AcDbEntity
  8
6-家具-143
 62
   143
100
AcDbLine
 10
750.1831432594205
 20
1062.729226690468
 30
0.0
 11
747.2831211928728
 21
1062.448819405127
 31
0.0
  0
LINE
  5
909
330
2
100
AcDbEntity
  8
6-家具-143
 62
   143
100
AcDbLine
 10
747.2831211928728
 20
1062.448819405127
 30
0.0
 11
746.8153752648255
 21
1061.701065920533
 31
0.0
  0
LINE
  5
90A
330
2
100
AcDbEntity
  8
6-家具-143
 62
   143
100
AcDbLine
 10
747.6573175432145
 20
1061.514127472166
 30
0.0
 11
748.8734558522915
 21
1061.607596654452
 31
0.0
  0
LINE
  5
90B
330
2
100
AcDbEntity
  8
6-家具-143
 62
   143
100
AcDbLine
 10
748.8734558522915
 20
1061.607596654452
 30
0.0
 11
750.4637905641559
 21
1061.420658289881
 31
0.0
  0
LINE
  5
90C
330
2
100
AcDbEntity
  8
6-家具-143
 62
   143
100
AcDbLine
 10
750.4637905641559
 20
1061.420658289881
 30
0.0
 11
751.2121833697412
 21
1060.953312378453
 31
0.0
  0
LINE
  5
90D
330
2
100
AcDbEntity
  8
6-家具-143
 62
   143
100
AcDbLine
 10
751.2121833697412
 20
1060.953312378453
 30
0.0
 11
750.7444378662492
 21
1060.392497284764
 31
0.0
  0
LINE
  5
90E
330
2
100
AcDbEntity
  8
6-家具-143
 62
   143
100
AcDbLine
 10
750.7444378662492
 20
1060.392497284764
 30
0.0
 11
749.5282995571715
 21
1060.299028102478
 31
0.0
  0
LINE
  5
90F
330
2
100
AcDbEntity
  8
6-家具-143
 62
   143
100
AcDbLine
 10
749.5282995571715
 20
1060.299028102478
 30
0.0
 11
747.6573175432145
 21
1060.953312378453
 31
0.0
  0
LINE
  5
910
330
2
100
AcDbEntity
  8
6-家具-143
 62
   143
100
AcDbLine
 10
755.0476964983606
 20
1053.662716160302
 30
0.0
 11
753.4573617864968
 21
1054.13006207173
 31
0.0
  0
LINE
  5
911
330
2
100
AcDbEntity
  8
6-家具-143
 62
   143
100
AcDbLine
 10
753.4573617864968
 20
1054.13006207173
 30
0.0
 11
752.6154198802061
 21
1054.036592889444
 31
0.0
  0
LINE
  5
912
330
2
100
AcDbEntity
  8
6-家具-143
 62
   143
100
AcDbLine
 10
752.6154198802061
 20
1054.036592889444
 30
0.0
 11
750.650888765555
 21
1053.756185342588
 31
0.0
  0
LINE
  5
913
330
2
100
AcDbEntity
  8
6-家具-143
 62
   143
100
AcDbLine
 10
754.3928527934692
 20
1056.279853264249
 30
0.0
 11
754.1122054913762
 21
1055.812507352845
 31
0.0
  0
LINE
  5
914
330
2
100
AcDbEntity
  8
6-家具-143
 62
   143
100
AcDbLine
 10
754.1122054913762
 20
1055.812507352845
 30
0.0
 11
752.0541252760199
 21
1055.90597653513
 31
0.0
  0
LINE
  5
915
330
2
100
AcDbEntity
  8
6-家具-143
 62
   143
100
AcDbLine
 10
752.0541252760199
 20
1055.90597653513
 30
0.0
 11
751.0250851683418
 21
1056.373322446559
 31
0.0
  0
LINE
  5
916
330
2
100
AcDbEntity
  8
6-家具-143
 62
   143
100
AcDbLine
 10
741.6701750985445
 20
1062.168411748166
 30
0.0
 11
741.2024295950525
 21
1062.82269602414
 31
0.0
  0
LINE
  5
917
330
2
100
AcDbEntity
  8
6-家具-143
 62
   143
100
AcDbLine
 10
741.2024295950525
 20
1062.82269602414
 30
0.0
 11
740.3604876887734
 21
1063.103103570997
 31
0.0
  0
LINE
  5
918
330
2
100
AcDbEntity
  8
6-家具-143
 62
   143
100
AcDbLine
 10
740.3604876887734
 20
1063.103103570997
 30
0.0
 11
739.705643983882
 21
1062.448819294998
 31
0.0
  0
LINE
  5
919
330
2
100
AcDbEntity
  8
6-家具-143
 62
   143
100
AcDbLine
 10
739.705643983882
 20
1062.448819294998
 30
0.0
 11
739.3314475810951
 21
1061.514127472166
 31
0.0
  0
LINE
  5
91A
330
2
100
AcDbEntity
  8
6-家具-143
 62
   143
100
AcDbLine
 10
739.3314475810951
 20
1061.514127472166
 30
0.0
 11
739.6120948831884
 21
1059.738213008766
 31
0.0
  0
LINE
  5
91B
330
2
100
AcDbEntity
  8
6-家具-143
 62
   143
100
AcDbLine
 10
739.6120948831884
 20
1059.738213008766
 30
0.0
 11
740.1733894873745
 21
1058.429644456792
 31
0.0
  0
LINE
  5
91C
330
2
100
AcDbEntity
  8
6-家具-143
 62
   143
100
AcDbLine
 10
740.1733894873745
 20
1058.429644456792
 30
0.0
 11
741.2024295950525
 21
1057.308014269389
 31
0.0
  0
LINE
  5
91D
330
2
100
AcDbEntity
  8
6-家具-143
 62
   143
100
AcDbLine
 10
741.2024295950525
 20
1057.308014269389
 30
0.0
 11
741.8572732999439
 21
1056.46679162882
 31
0.0
  0
LINE
  5
91E
330
2
100
AcDbEntity
  8
6-家具-143
 62
   143
100
AcDbLine
 10
741.8572732999439
 20
1056.46679162882
 30
0.0
 11
742.4185679041299
 21
1056.186384081987
 31
0.0
  0
LINE
  5
91F
330
2
100
AcDbEntity
  8
6-家具-143
 62
   143
100
AcDbLine
 10
742.4185679041299
 20
1056.186384081987
 30
0.0
 11
742.605666105529
 21
1056.747199175676
 31
0.0
  0
LINE
  5
920
330
2
100
AcDbEntity
  8
6-家具-143
 62
   143
100
AcDbLine
 10
753.7380090885895
 20
1053.008431884327
 30
0.0
 11
752.0541252760199
 21
1052.914962702042
 31
0.0
  0
LINE
  5
921
330
2
100
AcDbEntity
  8
6-家具-143
 62
   143
100
AcDbLine
 10
755.3283438004537
 20
1048.80231868155
 30
0.0
 11
755.4218929011476
 21
1048.521911134694
 31
0.0
  0
LINE
  5
922
330
2
100
AcDbEntity
  8
6-家具-143
 62
   143
100
AcDbLine
 10
755.4218929011476
 20
1048.521911134694
 30
0.0
 11
753.2702635850974
 21
1048.241503587838
 31
0.0
  0
LINE
  5
923
330
2
100
AcDbEntity
  8
6-家具-143
 62
   143
100
AcDbLine
 10
742.4185679041299
 20
1049.36313377524
 30
0.0
 11
742.0443715013314
 21
1048.80231868155
 31
0.0
  0
LINE
  5
924
330
2
100
AcDbEntity
  8
6-家具-143
 62
   143
100
AcDbLine
 10
742.0443715013314
 20
1048.80231868155
 30
0.0
 11
745.1314918243658
 21
1048.334972770123
 31
0.0
  0
LINE
  5
925
330
2
100
AcDbEntity
  8
6-家具-143
 62
   143
100
AcDbLine
 10
745.1314918243658
 20
1048.334972770123
 30
0.0
 11
748.6863576508925
 21
1048.334972770123
 31
0.0
  0
LINE
  5
926
330
2
100
AcDbEntity
  8
6-家具-143
 62
   143
100
AcDbLine
 10
753.3638126857911
 20
1046.652527489008
 30
0.0
 11
751.9605761753263
 21
1043.568044473633
 31
0.0
  0
LINE
  5
927
330
2
100
AcDbEntity
  8
6-家具-143
 62
   143
100
AcDbLine
 10
751.9605761753263
 20
1043.568044473633
 30
0.0
 11
751.3057324704348
 21
1043.007229379944
 31
0.0
  0
LINE
  5
928
330
2
100
AcDbEntity
  8
6-家具-143
 62
   143
100
AcDbLine
 10
751.3057324704348
 20
1043.007229379944
 30
0.0
 11
749.6218486578769
 21
1043.661513655919
 31
0.0
  0
LINE
  5
929
330
2
100
AcDbEntity
  8
6-家具-143
 62
   143
100
AcDbLine
 10
749.6218486578769
 20
1043.661513655919
 30
0.0
 11
748.4992594494935
 21
1046.372119942151
 31
0.0
  0
LINE
  5
92A
330
2
100
AcDbEntity
  8
6-家具-143
 62
   143
100
AcDbLine
 10
754.6735000955623
 20
1049.176195410669
 30
0.0
 11
755.515442001853
 21
1049.176195410669
 31
0.0
  0
LINE
  5
92B
330
2
100
AcDbEntity
  8
6-家具-143
 62
   143
100
AcDbLine
 10
755.515442001853
 20
1049.176195410669
 30
0.0
 11
756.1702857067325
 21
1048.708849499266
 31
0.0
  0
LINE
  5
92C
330
2
100
AcDbEntity
  8
6-家具-143
 62
   143
100
AcDbLine
 10
756.1702857067325
 20
1048.708849499266
 30
0.0
 11
757.5735222172093
 21
1042.820291015373
 31
0.0
  0
LINE
  5
92D
330
2
100
AcDbEntity
  8
6-家具-143
 62
   143
100
AcDbLine
 10
757.5735222172093
 20
1042.820291015373
 30
0.0
 11
753.9251072899771
 21
1046.652527489008
 31
0.0
  0
LINE
  5
92E
330
2
100
AcDbEntity
  8
6-家具-143
 62
   143
100
AcDbLine
 10
753.9251072899771
 20
1046.652527489008
 30
0.0
 11
752.3347725781129
 21
1048.148034405552
 31
0.0
  0
LINE
  5
92F
330
2
100
AcDbEntity
  8
6-家具-143
 62
   143
100
AcDbLine
 10
752.3347725781129
 20
1048.148034405552
 30
0.0
 11
749.1541031543846
 21
1048.054565223267
 31
0.0
  0
LINE
  5
930
330
2
100
AcDbEntity
  8
6-家具-143
 62
   143
100
AcDbLine
 10
749.1541031543846
 20
1048.054565223267
 30
0.0
 11
745.2250409250716
 21
1042.166006739374
 31
0.0
  0
LINE
  5
931
330
2
100
AcDbEntity
  8
6-家具-143
 62
   143
100
AcDbLine
 10
745.2250409250716
 20
1042.166006739374
 30
0.0
 11
742.0443715013314
 21
1044.222328749633
 31
0.0
  0
LINE
  5
932
330
2
100
AcDbEntity
  8
6-家具-143
 62
   143
100
AcDbLine
 10
742.0443715013314
 20
1044.222328749633
 30
0.0
 11
740.1733894873745
 21
1045.437428119321
 31
0.0
  0
LINE
  5
933
330
2
100
AcDbEntity
  8
6-家具-143
 62
   143
100
AcDbLine
 10
740.1733894873745
 20
1045.437428119321
 30
0.0
 11
740.73468409156
 21
1047.306811765007
 31
0.0
  0
LINE
  5
934
330
2
100
AcDbEntity
  8
6-家具-143
 62
   143
100
AcDbLine
 10
740.73468409156
 20
1047.306811765007
 30
0.0
 11
741.0153313936531
 21
1049.456602957525
 31
0.0
  0
LINE
  5
935
330
2
100
AcDbEntity
  8
6-家具-143
 62
   143
100
AcDbLine
 10
741.0153313936531
 20
1049.456602957525
 30
0.0
 11
741.9508224006378
 21
1049.36313377524
 31
0.0
  0
LINE
  5
936
330
2
100
AcDbEntity
  8
6-家具-143
 62
   143
100
AcDbLine
 10
740.8282331922656
 20
1057.49495263396
 30
0.0
 11
741.7637241992383
 21
1055.158223076847
 31
0.0
  0
LINE
  5
937
330
2
100
AcDbEntity
  8
6-家具-143
 62
   143
100
AcDbLine
 10
741.7637241992383
 20
1055.158223076847
 30
0.0
 11
742.1379206020369
 21
1051.419455785497
 31
0.0
  0
LINE
  5
938
330
2
100
AcDbEntity
  8
6-家具-143
 62
   143
100
AcDbLine
 10
742.1379206020369
 20
1051.419455785497
 30
0.0
 11
742.3250188034244
 21
1049.36313377524
 31
0.0
  0
LINE
  5
939
330
2
100
AcDbEntity
  8
6-家具-143
 62
   143
100
AcDbLine
 10
757.4799731165036
 20
1069.365538784031
 30
0.0
 11
756.9186785123179
 21
1070.019823060005
 31
0.0
  0
LINE
  5
93A
330
2
100
AcDbEntity
  8
6-家具-143
 62
   143
100
AcDbLine
 10
756.9186785123179
 20
1070.019823060005
 30
0.0
 11
752.9896162830046
 21
1070.206761424576
 31
0.0
  0
LINE
  5
93B
330
2
100
AcDbEntity
  8
6-家具-143
 62
   143
100
AcDbLine
 10
752.9896162830046
 20
1070.206761424576
 30
0.0
 11
748.5928085501988
 21
1070.113292242291
 31
0.0
  0
LINE
  5
93C
330
2
100
AcDbEntity
  8
6-家具-143
 62
   143
100
AcDbLine
 10
748.5928085501988
 20
1070.113292242291
 30
0.0
 11
746.5347283348425
 21
1069.739415513149
 31
0.0
  0
LINE
  5
93D
330
2
100
AcDbEntity
  8
6-家具-143
 62
   143
100
AcDbLine
 10
746.5347283348425
 20
1069.739415513149
 30
0.0
 11
744.4766481194862
 21
1068.898192872604
 31
0.0
  0
LINE
  5
93E
330
2
100
AcDbEntity
  8
6-家具-143
 62
   143
100
AcDbLine
 10
744.4766481194862
 20
1068.898192872604
 30
0.0
 11
743.447608011808
 21
1066.841870862345
 31
0.0
  0
LINE
  5
93F
330
2
100
AcDbEntity
  8
6-家具-143
 62
   143
100
AcDbLine
 10
743.447608011808
 20
1066.841870862345
 30
0.0
 11
743.0734116090096
 21
1064.879018034374
 31
0.0
  0
LINE
  5
940
330
2
100
AcDbEntity
  8
6-家具-143
 62
   143
100
AcDbLine
 10
743.0734116090096
 20
1064.879018034374
 30
0.0
 11
742.0443715013314
 21
1063.944326211542
 31
0.0
  0
LINE
  5
941
330
2
100
AcDbEntity
  8
6-家具-143
 62
   143
100
AcDbLine
 10
742.0443715013314
 20
1063.944326211542
 30
0.0
 11
742.0443715013314
 21
1063.103103570997
 31
0.0
  0
LINE
  5
942
330
2
100
AcDbEntity
  8
6-家具-143
 62
   143
100
AcDbLine
 10
742.0443715013314
 20
1063.103103570997
 30
0.0
 11
741.6701750985445
 21
1062.916165206425
 31
0.0
  0
LINE
  5
943
330
2
100
AcDbEntity
  8
6-家具-143
 62
   143
100
AcDbLine
 10
753.7380090885895
 20
1048.615380316979
 30
0.0
 11
754.3928527934692
 21
1049.643541322097
 31
0.0
  0
LINE
  5
944
330
2
100
AcDbEntity
  8
6-家具-143
 62
   143
100
AcDbLine
 10
754.3928527934692
 20
1049.643541322097
 30
0.0
 11
755.3283438004537
 21
1049.830479686667
 31
0.0
  0
LINE
  5
945
330
2
100
AcDbEntity
  8
6-家具-143
 62
   143
100
AcDbLine
 10
755.3283438004537
 20
1049.830479686667
 30
0.0
 11
756.3573839081317
 21
1051.045579056355
 31
0.0
  0
LINE
  5
946
330
2
100
AcDbEntity
  8
6-家具-143
 62
   143
100
AcDbLine
 10
756.3573839081317
 20
1051.045579056355
 30
0.0
 11
757.5735222172093
 21
1053.475777795731
 31
0.0
  0
LINE
  5
947
330
2
100
AcDbEntity
  8
6-家具-143
 62
   143
100
AcDbLine
 10
757.5735222172093
 20
1053.475777795731
 30
0.0
 11
758.6025623248874
 21
1057.868829363079
 31
0.0
  0
LINE
  5
948
330
2
100
AcDbEntity
  8
6-家具-143
 62
   143
100
AcDbLine
 10
758.6025623248874
 20
1057.868829363079
 30
0.0
 11
757.854169519302
 21
1060.766374013882
 31
0.0
  0
LINE
  5
949
330
2
100
AcDbEntity
  8
6-家具-143
 62
   143
100
AcDbLine
 10
757.854169519302
 20
1060.766374013882
 30
0.0
 11
758.4154641234882
 21
1061.981473383594
 31
0.0
  0
LINE
  5
94A
330
2
100
AcDbEntity
  8
6-家具-143
 62
   143
100
AcDbLine
 10
758.4154641234882
 20
1061.981473383594
 30
0.0
 11
758.4154641234882
 21
1064.785548852111
 31
0.0
  0
LINE
  5
94B
330
2
100
AcDbEntity
  8
6-家具-143
 62
   143
100
AcDbLine
 10
758.4154641234882
 20
1064.785548852111
 30
0.0
 11
757.667071317903
 21
1069.085131237174
 31
0.0
  0
LINE
  5
94C
330
2
100
AcDbEntity
  8
6-家具-143
 62
   143
100
AcDbLine
 10
757.667071317903
 20
1069.085131237174
 30
0.0
 11
757.854169519302
 21
1071.234922429693
 31
0.0
  0
LINE
  5
94D
330
2
100
AcDbEntity
  8
6-家具-143
 62
   143
100
AcDbLine
 10
757.854169519302
 20
1071.234922429693
 30
0.0
 11
756.5444821095312
 21
1072.543490981668
 31
0.0
  0
LINE
  5
94E
330
2
100
AcDbEntity
  8
6-家具-143
 62
   143
100
AcDbLine
 10
756.5444821095312
 20
1072.543490981668
 30
0.0
 11
751.5863797725278
 21
1073.384713622236
 31
0.0
  0
LINE
  5
94F
330
2
100
AcDbEntity
  8
6-家具-143
 62
   143
100
AcDbLine
 10
751.5863797725278
 20
1073.384713622236
 30
0.0
 11
744.3830990187808
 21
1073.010836893094
 31
0.0
  0
LINE
  5
950
330
2
100
AcDbEntity
  8
6-家具-143
 62
   143
100
AcDbLine
 10
744.3830990187808
 20
1073.010836893094
 30
0.0
 11
741.5766259978509
 21
1072.26308343481
 31
0.0
  0
LINE
  5
951
330
2
100
AcDbEntity
  8
6-家具-143
 62
   143
100
AcDbLine
 10
741.5766259978509
 20
1072.26308343481
 30
0.0
 11
740.0798403866806
 21
1069.645946330863
 31
0.0
  0
LINE
  5
952
330
2
100
AcDbEntity
  8
6-家具-143
 62
   143
100
AcDbLine
 10
740.0798403866806
 20
1069.645946330863
 30
0.0
 11
739.3314475810951
 21
1066.841870862345
 31
0.0
  0
LINE
  5
953
330
2
100
AcDbEntity
  8
6-家具-143
 62
   143
100
AcDbLine
 10
739.3314475810951
 20
1066.841870862345
 30
0.0
 11
739.705643983882
 21
1064.505141305255
 31
0.0
  0
LINE
  5
954
330
2
100
AcDbEntity
  8
6-家具-143
 62
   143
100
AcDbLine
 10
739.705643983882
 20
1064.505141305255
 30
0.0
 11
740.3604876887734
 21
1063.196572753283
 31
0.0
  0
LINE
  5
955
330
2
100
AcDbEntity
  8
6-家具-143
 62
   143
100
AcDbLine
 10
742.3150796923422
 20
1013.843091952296
 30
0.0
 11
738.6666647659134
 21
1014.298754215829
 31
0.0
  0
LINE
  5
956
330
2
100
AcDbEntity
  8
6-家具-143
 62
   143
100
AcDbLine
 10
738.6666647659134
 20
1014.298754215829
 30
0.0
 11
733.8781201749557
 21
1016.577065533524
 31
0.0
  0
LINE
  5
957
330
2
100
AcDbEntity
  8
6-家具-143
 62
   143
100
AcDbLine
 10
733.8781201749557
 20
1016.577065533524
 30
0.0
 11
731.1418089801312
 21
1016.577065533524
 31
0.0
  0
LINE
  5
958
330
2
100
AcDbEntity
  8
6-家具-143
 62
   143
100
AcDbLine
 10
731.1418089801312
 20
1016.577065533524
 30
0.0
 11
732.7379905104502
 21
1017.032727797057
 31
0.0
  0
LINE
  5
959
330
2
100
AcDbEntity
  8
6-家具-143
 62
   143
100
AcDbLine
 10
732.7379905104502
 20
1017.032727797057
 30
0.0
 11
730.9137830472302
 21
1025.006817408937
 31
0.0
  0
LINE
  5
95A
330
2
100
AcDbEntity
  8
6-家具-143
 62
   143
100
AcDbLine
 10
730.9137830472302
 20
1025.006817408937
 30
0.0
 11
733.4220683091537
 21
1023.411999486556
 31
0.0
  0
LINE
  5
95B
330
2
100
AcDbEntity
  8
6-家具-143
 62
   143
100
AcDbLine
 10
757.364791263906
 20
995.1609391473075
 30
0.0
 11
753.7163763374656
 21
994.2496146202396
 31
0.0
  0
LINE
  5
95C
330
2
100
AcDbEntity
  8
6-家具-143
 62
   143
100
AcDbLine
 10
753.7163763374656
 20
994.2496146202396
 30
0.0
 11
749.155857679421
 21
994.9331080155527
 31
0.0
  0
LINE
  5
95D
330
2
100
AcDbEntity
  8
6-家具-143
 62
   143
100
AcDbLine
 10
741.8274544705038
 20
1012.609298857052
 30
0.0
 11
742.7360501177477
 21
1012.738987348422
 31
0.0
  0
LINE
  5
95E
330
2
100
AcDbEntity
  8
6-家具-143
 62
   143
100
AcDbLine
 10
742.7360501177477
 20
1012.738987348422
 30
0.0
 11
743.6446457650031
 21
1014.943691701868
 31
0.0
  0
LINE
  5
95F
330
2
100
AcDbEntity
  8
6-家具-143
 62
   143
100
AcDbLine
 10
743.6446457650031
 20
1014.943691701868
 30
0.0
 11
744.9426395467932
 21
1016.37026510705
 31
0.0
  0
LINE
  5
960
330
2
100
AcDbEntity
  8
6-家具-143
 62
   143
100
AcDbLine
 10
744.9426395467932
 20
1016.37026510705
 30
0.0
 11
746.110833950409
 21
1016.37026510705
 31
0.0
  0
LINE
  5
961
330
2
100
AcDbEntity
  8
6-家具-143
 62
   143
100
AcDbLine
 10
746.110833950409
 20
1016.37026510705
 30
0.0
 11
747.9280252449082
 21
1016.759330581183
 31
0.0
  0
LINE
  5
962
330
2
100
AcDbEntity
  8
6-家具-143
 62
   143
100
AcDbLine
 10
747.9280252449082
 20
1016.759330581183
 30
0.0
 11
748.447222757629
 21
1015.851511141526
 31
0.0
  0
LINE
  5
963
330
2
100
AcDbEntity
  8
6-家具-143
 62
   143
100
AcDbLine
 10
748.447222757629
 20
1015.851511141526
 30
0.0
 11
748.057824623094
 21
1014.814003210498
 31
0.0
  0
LINE
  5
964
330
2
100
AcDbEntity
  8
6-家具-143
 62
   143
100
AcDbLine
 10
748.057824623094
 20
1014.814003210498
 30
0.0
 11
746.630031463118
 21
1014.165560753604
 31
0.0
  0
LINE
  5
965
330
2
100
AcDbEntity
  8
6-家具-143
 62
   143
100
AcDbLine
 10
746.630031463118
 20
1014.165560753604
 30
0.0
 11
745.7214358158744
 21
1012.998364331184
 31
0.0
  0
LINE
  5
966
330
2
100
AcDbEntity
  8
6-家具-143
 62
   143
100
AcDbLine
 10
745.7214358158744
 20
1012.998364331184
 30
0.0
 11
747.2790283540131
 21
1011.312413943263
 31
0.0
  0
LINE
  5
967
330
2
100
AcDbEntity
  8
6-家具-143
 62
   143
100
AcDbLine
 10
747.2790283540131
 20
1011.312413943263
 30
0.0
 11
750.5240128084885
 21
1009.367086572579
 31
0.0
  0
LINE
  5
968
330
2
100
AcDbEntity
  8
6-家具-143
 62
   143
100
AcDbLine
 10
750.5240128084885
 20
1009.367086572579
 30
0.0
 11
750.7836115648488
 21
1007.940513167421
 31
0.0
  0
LINE
  5
969
330
2
100
AcDbEntity
  8
6-家具-143
 62
   143
100
AcDbLine
 10
750.7836115648488
 20
1007.940513167421
 30
0.0
 11
749.4856177830587
 21
1007.681136184658
 31
0.0
  0
LINE
  5
96A
330
2
100
AcDbEntity
  8
6-家具-143
 62
   143
100
AcDbLine
 10
749.4856177830587
 20
1007.681136184658
 30
0.0
 11
751.4326084557438
 21
1005.735808813974
 31
0.0
  0
LINE
  5
96B
330
2
100
AcDbEntity
  8
6-家具-143
 62
   143
100
AcDbLine
 10
751.4326084557438
 20
1005.735808813974
 30
0.0
 11
751.3028090775697
 21
1004.95767786571
 31
0.0
  0
LINE
  5
96C
330
2
100
AcDbEntity
  8
6-家具-143
 62
   143
100
AcDbLine
 10
751.3028090775697
 20
1004.95767786571
 30
0.0
 11
750.6538121866745
 21
1004.438923900185
 31
0.0
  0
LINE
  5
96D
330
2
100
AcDbEntity
  8
6-家具-143
 62
   143
100
AcDbLine
 10
750.6538121866745
 20
1004.438923900185
 30
0.0
 11
751.3028090775697
 21
1003.401415969159
 31
0.0
  0
LINE
  5
96E
330
2
100
AcDbEntity
  8
6-家具-143
 62
   143
100
AcDbLine
 10
751.3028090775697
 20
1003.401415969159
 30
0.0
 11
750.5240128084885
 21
1002.623285020895
 31
0.0
  0
LINE
  5
96F
330
2
100
AcDbEntity
  8
6-家具-143
 62
   143
100
AcDbLine
 10
750.5240128084885
 20
1002.623285020895
 30
0.0
 11
750.7836115648488
 21
1001.196711615736
 31
0.0
  0
LINE
  5
970
330
2
100
AcDbEntity
  8
6-家具-143
 62
   143
100
AcDbLine
 10
750.7836115648488
 20
1001.196711615736
 30
0.0
 11
750.1346146739539
 21
1000.288892176079
 31
0.0
  0
LINE
  5
971
330
2
100
AcDbEntity
  8
6-家具-143
 62
   143
100
AcDbLine
 10
750.1346146739539
 20
1000.288892176079
 30
0.0
 11
748.447222757629
 21
1000.807646141581
 31
0.0
  0
LINE
  5
972
330
2
100
AcDbEntity
  8
6-家具-143
 62
   143
100
AcDbLine
 10
748.447222757629
 20
1000.807646141581
 30
0.0
 11
745.5916364376884
 21
1003.14203898642
 31
0.0
  0
LINE
  5
973
330
2
100
AcDbEntity
  8
6-家具-143
 62
   143
100
AcDbLine
 10
745.5916364376884
 20
1003.14203898642
 30
0.0
 11
743.9042445213634
 21
1005.735808813974
 31
0.0
  0
LINE
  5
974
330
2
100
AcDbEntity
  8
6-家具-143
 62
   143
100
AcDbLine
 10
743.9042445213634
 20
1005.735808813974
 30
0.0
 11
741.8274544705038
 21
1007.162382219156
 31
0.0
  0
LINE
  5
975
330
2
100
AcDbEntity
  8
6-家具-143
 62
   143
100
AcDbLine
 10
741.8274544705038
 20
1007.162382219156
 30
0.0
 11
739.7506644196326
 21
1006.643628253631
 31
0.0
  0
LINE
  5
976
330
2
100
AcDbEntity
  8
6-家具-143
 62
   143
100
AcDbLine
 10
741.1749500278366
 20
1005.185508945102
 30
0.0
 11
739.1227166317153
 21
1006.324664603949
 31
0.0
  0
LINE
  5
977
330
2
100
AcDbEntity
  8
6-家具-143
 62
   143
100
AcDbLine
 10
739.1227166317153
 20
1006.324664603949
 30
0.0
 11
738.2106129000995
 21
1009.51430044871
 31
0.0
  0
LINE
  5
978
330
2
100
AcDbEntity
  8
6-家具-143
 62
   143
100
AcDbLine
 10
738.2106129000995
 20
1009.51430044871
 30
0.0
 11
738.8946906988144
 21
1012.476105161693
 31
0.0
  0
LINE
  5
979
330
2
100
AcDbEntity
  8
6-家具-143
 62
   143
100
AcDbLine
 10
738.8946906988144
 20
1012.476105161693
 30
0.0
 11
740.9469240949356
 21
1013.61526082054
 31
0.0
  0
LINE
  5
97A
330
2
100
AcDbEntity
  8
6-家具-143
 62
   143
100
AcDbLine
 10
740.9469240949356
 20
1013.61526082054
 30
0.0
 11
742.3150796923422
 21
1013.843091952296
 31
0.0
  0
LINE
  5
97B
330
2
100
AcDbEntity
  8
6-家具-143
 62
   143
100
AcDbLine
 10
749.9585248341769
 20
1042.71003549081
 30
0.0
 11
750.7300860062112
 21
1033.844666162093
 31
0.0
  0
LINE
  5
97C
330
2
100
AcDbEntity
  8
6-家具-143
 62
   143
100
AcDbLine
 10
750.7300860062112
 20
1033.844666162093
 30
0.0
 11
750.1514151271882
 21
1022.088415266976
 31
0.0
  0
LINE
  5
97D
330
2
100
AcDbEntity
  8
6-家具-143
 62
   143
100
AcDbLine
 10
750.1514151271882
 20
1022.088415266976
 30
0.0
 11
749.9585248341769
 21
1016.884828820506
 31
0.0
  0
LINE
  5
97E
330
2
100
AcDbEntity
  8
6-家具-143
 62
   143
100
AcDbLine
 10
749.9585248341769
 20
1016.884828820506
 30
0.0
 11
748.8011837974989
 21
1011.488517278184
 31
0.0
  0
LINE
  5
97F
330
2
100
AcDbEntity
  8
6-家具-143
 62
   143
100
AcDbLine
 10
736.6144313697917
 20
1043.916801345704
 30
0.0
 11
737.2985091684951
 21
1040.043672105653
 31
0.0
  0
LINE
  5
980
330
2
100
AcDbEntity
  8
6-家具-143
 62
   143
100
AcDbLine
 10
737.2985091684951
 20
1040.043672105653
 30
0.0
 11
740.2628462962205
 21
1038.448854183273
 31
0.0
  0
LINE
  5
981
330
2
100
AcDbEntity
  8
6-家具-143
 62
   143
100
AcDbLine
 10
740.2628462962205
 20
1038.448854183273
 30
0.0
 11
737.5265351013966
 21
1037.309698524426
 31
0.0
  0
LINE
  5
982
330
2
100
AcDbEntity
  8
6-家具-143
 62
   143
100
AcDbLine
 10
737.5265351013966
 20
1037.309698524426
 30
0.0
 11
740.2628462962205
 21
1033.892231547909
 31
0.0
  0
LINE
  5
983
330
2
100
AcDbEntity
  8
6-家具-143
 62
   143
100
AcDbLine
 10
740.2628462962205
 20
1033.892231547909
 30
0.0
 11
742.087053759441
 21
1026.601635331318
 31
0.0
  0
LINE
  5
984
330
2
100
AcDbEntity
  8
6-家具-143
 62
   143
100
AcDbLine
 10
742.087053759441
 20
1026.601635331318
 30
0.0
 11
743.6832352897602
 21
1016.804896665278
 31
0.0
  0
LINE
  5
985
330
2
100
AcDbEntity
  8
6-家具-143
 62
   143
100
AcDbLine
 10
740.4908722291335
 20
1045.739450399864
 30
0.0
 11
744.3673130884636
 21
1037.76536078796
 31
0.0
  0
LINE
  5
986
330
2
100
AcDbEntity
  8
6-家具-143
 62
   143
100
AcDbLine
 10
744.3673130884636
 20
1037.76536078796
 30
0.0
 11
747.3316502162006
 21
1030.930426834926
 31
0.0
  0
LINE
  5
987
330
2
100
AcDbEntity
  8
6-家具-143
 62
   143
100
AcDbLine
 10
747.3316502162006
 20
1030.930426834926
 30
0.0
 11
748.0157280149037
 21
1022.045012695954
 31
0.0
  0
LINE
  5
988
330
2
100
AcDbEntity
  8
6-家具-143
 62
   143
100
AcDbLine
 10
748.0157280149037
 20
1022.045012695954
 30
0.0
 11
748.2437539478049
 21
1017.260558928835
 31
0.0
  0
LINE
  5
989
330
2
100
AcDbEntity
  8
6-家具-143
 62
   143
100
AcDbLine
 10
757.5928171968071
 20
1045.967281531619
 30
0.0
 11
759.8730765258295
 21
1043.233307950391
 31
0.0
  0
LINE
  5
98A
330
2
100
AcDbEntity
  8
6-家具-143
 62
   143
100
AcDbLine
 10
759.8730765258295
 20
1043.233307950391
 30
0.0
 11
760.5571543245328
 21
1036.626205129113
 31
0.0
  0
LINE
  5
98B
330
2
100
AcDbEntity
  8
6-家具-143
 62
   143
100
AcDbLine
 10
760.5571543245328
 20
1036.626205129113
 30
0.0
 11
760.1011024587306
 21
1025.462479672471
 31
0.0
  0
LINE
  5
98C
330
2
100
AcDbEntity
  8
6-家具-143
 62
   143
100
AcDbLine
 10
760.1011024587306
 20
1025.462479672471
 30
0.0
 11
757.8208431297081
 21
1009.51430044871
 31
0.0
  0
LINE
  5
98D
330
2
100
AcDbEntity
  8
6-家具-143
 62
   143
100
AcDbLine
 10
752.8042726058615
 20
1043.46113908217
 30
0.0
 11
755.5405838006858
 21
1034.575724943223
 31
0.0
  0
LINE
  5
98E
330
2
100
AcDbEntity
  8
6-家具-143
 62
   143
100
AcDbLine
 10
755.5405838006858
 20
1034.575724943223
 30
0.0
 11
756.6807134651912
 21
1019.766701378284
 31
0.0
  0
LINE
  5
98F
330
2
100
AcDbEntity
  8
6-家具-143
 62
   143
100
AcDbLine
 10
756.6807134651912
 20
1019.766701378284
 30
0.0
 11
757.364791263906
 21
1006.780326867484
 31
0.0
  0
LINE
  5
990
330
2
100
AcDbEntity
  8
6-家具-143
 62
   143
100
AcDbLine
 10
757.364791263906
 20
1006.780326867484
 30
0.0
 11
758.2768949955103
 21
1001.540210836807
 31
0.0
  0
LINE
  5
991
330
2
100
AcDbEntity
  8
6-家具-143
 62
   143
100
AcDbLine
 10
758.2768949955103
 20
1001.540210836807
 30
0.0
 11
753.2603244716634
 21
996.3000948061546
 31
0.0
  0
LINE
  5
992
330
2
100
AcDbEntity
  8
6-家具-143
 62
   143
100
AcDbLine
 10
753.2603244716634
 20
996.3000948061546
 30
0.0
 11
749.6119095452232
 21
1000.173224046204
 31
0.0
  0
LINE
  5
993
330
2
100
AcDbEntity
  8
6-家具-143
 62
   143
100
AcDbLine
 10
762.609387720654
 20
1043.68897021395
 30
0.0
 11
765.5737248483912
 21
1040.271503237409
 31
0.0
  0
LINE
  5
994
330
2
100
AcDbEntity
  8
6-家具-143
 62
   143
100
AcDbLine
 10
765.5737248483912
 20
1040.271503237409
 30
0.0
 11
763.0654395864678
 21
1038.448854183273
 31
0.0
  0
LINE
  5
995
330
2
100
AcDbEntity
  8
6-家具-143
 62
   143
100
AcDbLine
 10
763.0654395864678
 20
1038.448854183273
 30
0.0
 11
766.2578026470946
 21
1036.170542865579
 31
0.0
  0
LINE
  5
996
330
2
100
AcDbEntity
  8
6-家具-143
 62
   143
100
AcDbLine
 10
766.2578026470946
 20
1036.170542865579
 30
0.0
 11
763.7495173851711
 21
1029.107777780768
 31
0.0
  0
LINE
  5
997
330
2
100
AcDbEntity
  8
6-家具-143
 62
   143
100
AcDbLine
 10
763.7495173851711
 20
1029.107777780768
 30
0.0
 11
760.3291283916316
 21
1016.577065533524
 31
0.0
  0
LINE
  5
998
330
2
100
AcDbEntity
  8
6-家具-143
 62
   143
100
AcDbLine
 10
760.3291283916316
 20
1016.577065533524
 30
0.0
 11
758.2768949955103
 21
1006.780326867484
 31
0.0
  0
LINE
  5
999
330
2
100
AcDbEntity
  8
6-家具-143
 62
   143
100
AcDbLine
 10
758.2768949955103
 20
1006.780326867484
 30
0.0
 11
757.8208431297081
 21
1004.502015549813
 31
0.0
  0
LINE
  5
99A
330
2
100
AcDbEntity
  8
6-家具-143
 62
   143
100
AcDbLine
 10
756.6807134651912
 20
1047.106437190466
 30
0.0
 11
761.6972839890499
 21
1044.144632477483
 31
0.0
  0
LINE
  5
99B
330
2
100
AcDbEntity
  8
6-家具-143
 62
   143
100
AcDbLine
 10
761.6972839890499
 20
1044.144632477483
 30
0.0
 11
766.4858285799956
 21
1042.094152291568
 31
0.0
  0
LINE
  5
99C
330
2
100
AcDbEntity
  8
6-家具-143
 62
   143
100
AcDbLine
 10
766.4858285799956
 20
1042.094152291568
 30
0.0
 11
768.9941138419192
 21
1040.271503237409
 31
0.0
  0
LINE
  5
99D
330
2
100
AcDbEntity
  8
6-家具-143
 62
   143
100
AcDbLine
 10
768.9941138419192
 20
1040.271503237409
 30
0.0
 11
771.0463472380404
 21
1037.309698524426
 31
0.0
  0
LINE
  5
99E
330
2
100
AcDbEntity
  8
6-家具-143
 62
   143
100
AcDbLine
 10
771.0463472380404
 20
1037.309698524426
 30
0.0
 11
772.8705547012603
 21
1031.613920230216
 31
0.0
  0
LINE
  5
99F
330
2
100
AcDbEntity
  8
6-家具-143
 62
   143
100
AcDbLine
 10
772.8705547012603
 20
1031.613920230216
 30
0.0
 11
771.7304250367551
 21
1020.678025905352
 31
0.0
  0
LINE
  5
9A0
330
2
100
AcDbEntity
  8
6-家具-143
 62
   143
100
AcDbLine
 10
771.7304250367551
 20
1020.678025905352
 30
0.0
 11
772.4145028354582
 21
1012.703936293448
 31
0.0
  0
LINE
  5
9A1
330
2
100
AcDbEntity
  8
6-家具-143
 62
   143
100
AcDbLine
 10
772.4145028354582
 20
1012.703936293448
 30
0.0
 11
772.1864769025573
 21
1010.197793844
 31
0.0
  0
LINE
  5
9A2
330
2
100
AcDbEntity
  8
6-家具-143
 62
   143
100
AcDbLine
 10
772.1864769025573
 20
1010.197793844
 30
0.0
 11
768.310036043216
 21
988.0981740624946
 31
0.0
  0
LINE
  5
9A3
330
2
100
AcDbEntity
  8
6-家具-143
 62
   143
100
AcDbLine
 10
768.310036043216
 20
988.0981740624946
 30
0.0
 11
767.3979323116114
 21
987.6425117989612
 31
0.0
  0
LINE
  5
9A4
330
2
100
AcDbEntity
  8
6-家具-143
 62
   143
100
AcDbLine
 10
767.3979323116114
 20
987.6425117989612
 30
0.0
 11
766.9418804457977
 21
983.7693825588869
 31
0.0
  0
LINE
  5
9A5
330
2
100
AcDbEntity
  8
6-家具-143
 62
   143
100
AcDbLine
 10
766.9418804457977
 20
983.7693825588869
 30
0.0
 11
766.2578026470946
 21
983.7693825588869
 31
0.0
  0
LINE
  5
9A6
330
2
100
AcDbEntity
  8
6-家具-143
 62
   143
100
AcDbLine
 10
766.2578026470946
 20
983.7693825588869
 30
0.0
 11
765.5737248483912
 21
983.7693825588869
 31
0.0
  0
LINE
  5
9A7
330
2
100
AcDbEntity
  8
6-家具-143
 62
   143
100
AcDbLine
 10
740.0348203633198
 20
1046.878606058688
 30
0.0
 11
735.930353571077
 21
1044.600294741018
 31
0.0
  0
LINE
  5
9A8
330
2
100
AcDbEntity
  8
6-家具-143
 62
   143
100
AcDbLine
 10
735.930353571077
 20
1044.600294741018
 30
0.0
 11
730.0016793156141
 21
1042.549814555102
 31
0.0
  0
LINE
  5
9A9
330
2
100
AcDbEntity
  8
6-家具-143
 62
   143
100
AcDbLine
 10
730.0016793156141
 20
1042.549814555102
 30
0.0
 11
725.2131347246685
 21
1040.954996632721
 31
0.0
  0
LINE
  5
9AA
330
2
100
AcDbEntity
  8
6-家具-143
 62
   143
100
AcDbLine
 10
725.2131347246685
 20
1040.954996632721
 30
0.0
 11
722.2487975969429
 21
1036.398373997358
 31
0.0
  0
LINE
  5
9AB
330
2
100
AcDbEntity
  8
6-家具-143
 62
   143
100
AcDbLine
 10
722.2487975969429
 20
1036.398373997358
 30
0.0
 11
720.8806419995248
 21
1025.918141936005
 31
0.0
  0
LINE
  5
9AC
330
2
100
AcDbEntity
  8
6-家具-143
 62
   143
100
AcDbLine
 10
720.8806419995248
 20
1025.918141936005
 30
0.0
 11
721.3366938653268
 21
1013.843091952296
 31
0.0
  0
LINE
  5
9AD
330
2
100
AcDbEntity
  8
6-家具-143
 62
   143
100
AcDbLine
 10
721.3366938653268
 20
1013.843091952296
 30
0.0
 11
724.301030993064
 21
1009.058638185176
 31
0.0
  0
LINE
  5
9AE
330
2
100
AcDbEntity
  8
6-家具-143
 62
   143
100
AcDbLine
 10
724.301030993064
 20
1009.058638185176
 30
0.0
 11
728.1774718524058
 21
1005.641171208636
 31
0.0
  0
LINE
  5
9AF
330
2
100
AcDbEntity
  8
6-家具-143
 62
   143
100
AcDbLine
 10
728.1774718524058
 20
1005.641171208636
 30
0.0
 11
731.1418089801312
 21
1003.362859890967
 31
0.0
  0
LINE
  5
9B0
330
2
100
AcDbEntity
  8
6-家具-143
 62
   143
100
AcDbLine
 10
731.1418089801312
 20
1003.362859890967
 30
0.0
 11
737.0704832355941
 21
1003.362859890967
 31
0.0
  0
LINE
  5
9B1
330
2
100
AcDbEntity
  8
6-家具-143
 62
   143
100
AcDbLine
 10
737.0704832355941
 20
1003.362859890967
 30
0.0
 11
740.4908722291335
 21
1003.590691022721
 31
0.0
  0
LINE
  5
9B2
330
2
100
AcDbEntity
  8
6-家具-143
 62
   143
100
AcDbLine
 10
740.4908722291335
 20
1003.590691022721
 30
0.0
 11
742.999157491057
 21
1004.957677813347
 31
0.0
  0
LINE
  5
9B3
330
2
100
AcDbEntity
  8
6-家具-143
 62
   143
100
AcDbLine
 10
766.0999381899702
 20
983.4293882968447
 30
0.0
 11
767.527731349946
 21
980.1871760123718
 31
0.0
  0
LINE
  5
9B4
330
2
100
AcDbEntity
  8
6-家具-143
 62
   143
100
AcDbLine
 10
767.527731349946
 20
980.1871760123718
 30
0.0
 11
768.3065276190156
 21
976.6855867451365
 31
0.0
  0
LINE
  5
9B5
330
2
100
AcDbEntity
  8
6-家具-143
 62
   143
100
AcDbLine
 10
765.1176729825891
 20
975.1117995516938
 30
0.0
 11
766.0297767141932
 21
983.9972136906656
 31
0.0
  0
LINE
  5
9B6
330
2
100
AcDbEntity
  8
6-家具-143
 62
   143
100
AcDbLine
 10
766.0297767141932
 20
983.9972136906656
 30
0.0
 11
766.0297767141932
 21
991.0599787754776
 31
0.0
  0
LINE
  5
9B7
330
2
100
AcDbEntity
  8
6-家具-143
 62
   143
100
AcDbLine
 10
766.0297767141932
 20
991.0599787754776
 30
0.0
 11
766.7138545128966
 21
997.8949127285344
 31
0.0
  0
LINE
  5
9B8
330
2
100
AcDbEntity
  8
6-家具-143
 62
   143
100
AcDbLine
 10
766.7138545128966
 20
997.8949127285344
 30
0.0
 11
766.7138545128966
 21
1003.590691022721
 31
0.0
  0
LINE
  5
9B9
330
2
100
AcDbEntity
  8
6-家具-143
 62
   143
100
AcDbLine
 10
766.7138545128966
 20
1003.590691022721
 30
0.0
 11
766.7138545128966
 21
1009.742131580467
 31
0.0
  0
LINE
  5
9BA
330
2
100
AcDbEntity
  8
6-家具-143
 62
   143
100
AcDbLine
 10
766.7138545128966
 20
1009.742131580467
 30
0.0
 11
766.2578026470946
 21
1020.222363641818
 31
0.0
  0
LINE
  5
9BB
330
2
100
AcDbEntity
  8
6-家具-143
 62
   143
100
AcDbLine
 10
766.2578026470946
 20
1020.222363641818
 30
0.0
 11
768.5380619761168
 21
1027.057297594852
 31
0.0
  0
LINE
  5
9BC
330
2
100
AcDbEntity
  8
6-家具-143
 62
   143
100
AcDbLine
 10
756.6807134651912
 20
999.7175617826716
 30
0.0
 11
757.8208431297081
 21
994.9331080155527
 31
0.0
  0
LINE
  5
9BD
330
2
100
AcDbEntity
  8
6-家具-143
 62
   143
100
AcDbLine
 10
757.8208431297081
 20
994.9331080155527
 30
0.0
 11
758.7329468613124
 21
991.5156410390114
 31
0.0
  0
LINE
  5
9BE
330
2
100
AcDbEntity
  8
6-家具-143
 62
   143
100
AcDbLine
 10
758.7329468613124
 20
991.5156410390114
 30
0.0
 11
758.7329468613124
 21
985.1363693495121
 31
0.0
  0
LINE
  5
9BF
330
2
100
AcDbEntity
  8
6-家具-143
 62
   143
100
AcDbLine
 10
758.7329468613124
 20
985.1363693495121
 30
0.0
 11
761.0132061903463
 21
980.8075778459041
 31
0.0
  0
LINE
  5
9C0
330
2
100
AcDbEntity
  8
6-家具-143
 62
   143
100
AcDbLine
 10
761.0132061903463
 20
980.8075778459041
 30
0.0
 11
763.5214914522699
 21
978.0736042646998
 31
0.0
  0
LINE
  5
9C1
330
2
100
AcDbEntity
  8
6-家具-143
 62
   143
100
AcDbLine
 10
763.5214914522699
 20
978.0736042646998
 30
0.0
 11
765.3456989154902
 21
974.6561372881599
 31
0.0
  0
LINE
  5
9C2
330
2
100
AcDbEntity
  8
6-家具-143
 62
   143
100
AcDbLine
 10
765.3456989154902
 20
974.6561372881599
 30
0.0
 11
765.8017507812925
 21
971.6943325751769
 31
0.0
  0
LINE
  5
9C3
330
2
100
AcDbEntity
  8
6-家具-143
 62
   143
100
AcDbLine
 10
738.8946906988144
 20
974.2004750246257
 30
0.0
 11
744.3673130884636
 21
980.5797467141488
 31
0.0
  0
LINE
  5
9C4
330
2
100
AcDbEntity
  8
6-家具-143
 62
   143
100
AcDbLine
 10
744.3673130884636
 20
980.5797467141488
 30
0.0
 11
748.6998058136188
 21
987.1868495354272
 31
0.0
  0
LINE
  5
9C5
330
2
100
AcDbEntity
  8
6-家具-143
 62
   143
100
AcDbLine
 10
748.6998058136188
 20
987.1868495354272
 30
0.0
 11
748.9278317465198
 21
993.3382900931714
 31
0.0
  0
LINE
  5
9C6
330
2
100
AcDbEntity
  8
6-家具-143
 62
   143
100
AcDbLine
 10
748.9278317465198
 20
993.3382900931714
 30
0.0
 11
748.4717798807061
 21
999.9453929144495
 31
0.0
  0
LINE
  5
9C7
330
2
100
AcDbEntity
  8
6-家具-143
 62
   143
100
AcDbLine
 10
727.9494459194929
 20
1005.185508945102
 30
0.0
 11
728.1774718524058
 21
1002.223704232119
 31
0.0
  0
LINE
  5
9C8
330
2
100
AcDbEntity
  8
6-家具-143
 62
   143
100
AcDbLine
 10
728.1774718524058
 20
1002.223704232119
 30
0.0
 11
728.6335237182079
 21
994.2496146202396
 31
0.0
  0
VIEWPORT
  5
DA
102
{ACAD_XDICTIONARY
360
9E5
102
}
330
C
100
AcDbEntity
 67
     1
  8
0
100
AcDbViewport
 10
420.5071835950612
 20
297.0009369707932
 30
0.0
 40
848.880193293653
 41
633.6711302051212
 68
     1
 69
     1
 12
420.5071835950612
 22
297.0009369707932
 13
0.0
 23
0.0
 14
10.0
 24
10.0
 15
10.0
 25
10.0
 16
0.0
 26
0.0
 36
1.0
 17
0.0
 27
0.0
 37
0.0
 42
50.0
 43
0.0
 44
0.0
 45
633.6711302051212
 50
0.0
 51
0.0
 72
  1000
 90
    32864
  1

281
     0
 71
     1
 74
     0
110
0.0
120
0.0
130
0.0
111
1.0
121
0.0
131
0.0
112
0.0
122
1.0
132
0.0
 79
     0
146
0.0
  0
ENDSEC
  0
SECTION
  2
OBJECTS
  0
DICTIONARY
  5
7
330
0
100
AcDbDictionary
281
     1
  3
ACAD_COLOR
350
DE
  3
ACAD_GROUP
350
20
  3
ACAD_LAYOUT
350
B
  3
ACAD_MATERIAL
350
DD
  3
ACAD_MLINESTYLE
350
21
  3
ACAD_PLOTSETTINGS
350
22
  3
ACAD_PLOTSTYLENAME
350
6
  3
ACDBHEADERROUNDTRIPXREC
350
9DE
  3
AcDbVariableDictionary
350
115
  0
DICTIONARY
  5
1A3
330
10
100
AcDbDictionary
280
     1
281
     1
  3
ACAD_LAYERSTATES
360
1A4
  0
DICTIONARY
  5
9E5
330
DA
100
AcDbDictionary
280
     1
281
     1
  3
ACAD_XREC_ROUNDTRIP
360
9E6
  0
DICTIONARY
  5
DE
102
{ACAD_REACTORS
330
7
102
}
330
7
100
AcDbDictionary
281
     1
  0
DICTIONARY
  5
20
102
{ACAD_REACTORS
330
7
102
}
330
7
100
AcDbDictionary
281
     1
  0
DICTIONARY
  5
B
102
{ACAD_REACTORS
330
7
102
}
330
7
100
AcDbDictionary
281
     1
  3
JIS A1 Title Block
350
F
  3
Model
350
A
  0
DICTIONARY
  5
DD
102
{ACAD_REACTORS
330
7
102
}
330
7
100
AcDbDictionary
281
     1
  0
DICTIONARY
  5
21
102
{ACAD_REACTORS
330
7
102
}
330
7
100
AcDbDictionary
281
     1
  3
Standard
350
23
  0
DICTIONARY
  5
22
102
{ACAD_REACTORS
330
7
102
}
330
7
100
AcDbDictionary
281
     1
  0
ACDBDICTIONARYWDFLT
  5
6
102
{ACAD_REACTORS
330
7
102
}
330
7
100
AcDbDictionary
281
     1
  3
Normal
350
5
100
AcDbDictionaryWithDefault
340
5
  0
DICTIONARY
  5
9DE
102
{ACAD_REACTORS
330
7
102
}
330
7
100
AcDbDictionary
281
     1
  3
COLORDICT
350
9E0
  3
MATERIALDICT
350
9DF
  0
DICTIONARY
  5
115
102
{ACAD_REACTORS
330
7
102
}
330
7
100
AcDbDictionary
281
     1
  3
DIMASSOC
350
116
  3
PROJECTNAME
350
117
  0
DICTIONARY
  5
1A4
102
{ACAD_REACTORS
330
1A3
102
}
330
1A3
100
AcDbDictionary
281
     1
  0
XRECORD
  5
9E6
102
{ACAD_REACTORS
330
9E5
102
}
330
9E5
100
AcDbXrecord
280
     1
102
SHADEPLOT
 70
     0
  0
LAYOUT
  5
F
102
{ACAD_XDICTIONARY
360
9E3
102
}
102
{ACAD_REACTORS
330
B
102
}
330
B
100
AcDbPlotSettings
  1

  2
none_device
  4
ISO_A1_(594.00_x_841.00_MM)
  6

 40
7.549999999999998
 41
20.05
 42
7.549999999999998
 43
20.05
 44
594.0
 45
841.0
 46
-7.559999999999997
 47
-20.07
 48
0.0
 49
0.0
140
0.0
141
0.0
142
1.0
143
1.0
 70
   692
 72
     1
 73
     1
 74
     1
  7

 75
    16
147
1.0
148
0.0128164049386896
149
0.0090630292066862
100
AcDbLayout
  1
JIS A1 Title Block
 70
     1
 71
     1
 10
0.0071835950613099
 20
0.0009369707933136
 11
841.0071835950612
 21
594.0009369707931
 12
0.0
 22
0.0
 32
0.0
 14
1.000000000000000E+20
 24
1.000000000000000E+20
 34
1.000000000000000E+20
 15
-1.000000000000000E+20
 25
-1.000000000000000E+20
 35
-1.000000000000000E+20
146
0.0
 13
0.0
 23
0.0
 33
0.0
 16
1.0
 26
0.0
 36
0.0
 17
0.0
 27
1.0
 37
0.0
 76
     0
330
C
331
DA
  0
LAYOUT
  5
A
102
{ACAD_XDICTIONARY
360
9E1
102
}
102
{ACAD_REACTORS
330
B
102
}
330
B
100
AcDbPlotSettings
  1

  2
none_device
  4
ANSI_A_(8.50_x_11.00_Inches)
  6

 40
6.349999904632567
 41
19.04999923706055
 42
6.350006103515625
 43
19.04998779296875
 44
215.8999938964844
 45
279.3999938964844
 46
28.79458090408706
 47
17.57028564415653
 48
0.0
 49
0.0
140
0.0
141
0.0
142
1.0
143
103.6285708313174
 70
 11956
 72
     0
 73
     1
 74
     1
  7

 75
     0
147
0.0096498484151418
148
1.303736702137707
149
0.9208318680958655
100
AcDbLayout
  1
Model
 70
     1
 71
     0
 10
0.0
 20
0.0
 11
12.0
 21
9.0
 12
0.0
 22
0.0
 32
0.0
 14
0.0
 24
0.0
 34
0.0
 15
0.0
 25
0.0
 35
0.0
146
0.0
 13
0.0
 23
0.0
 33
0.0
 16
1.0
 26
0.0
 36
0.0
 17
0.0
 27
1.0
 37
0.0
 76
     0
330
2
  0
MLINESTYLE
  5
23
102
{ACAD_REACTORS
330
21
102
}
330
21
100
AcDbMlineStyle
  2
STANDARD
 70
     0
  3

 62
   256
 51
90.0
 52
90.0
 71
     2
 49
0.5
 62
   256
  6
BYLAYER
 49
-0.5
 62
   256
  6
BYLAYER
  0
ACDBPLACEHOLDER
  5
5
102
{ACAD_REACTORS
330
6
102
}
330
6
  0
XRECORD
  5
9E0
102
{ACAD_REACTORS
330
9DE
102
}
330
9DE
100
AcDbXrecord
280
     1
340
DE
  0
XRECORD
  5
9DF
102
{ACAD_REACTORS
330
9DE
102
}
330
9DE
100
AcDbXrecord
280
     1
340
DD
  0
DICTIONARYVAR
  5
116
102
{ACAD_REACTORS
330
115
102
}
330
115
100
DictionaryVariables
280
     0
  1
1
  0
DICTIONARYVAR
  5
117
102
{ACAD_REACTORS
330
115
102
}
330
115
100
DictionaryVariables
280
     0
  1

  0
DICTIONARY
  5
9E3
330
F
100
AcDbDictionary
280
     1
281
     1
  3
ACAD_XREC_ROUNDTRIP
360
9E4
  0
DICTIONARY
  5
9E1
330
A
100
AcDbDictionary
280
     1
281
     1
  3
ACAD_XREC_ROUNDTRIP
360
9E2
  0
XRECORD
  5
9E4
102
{ACAD_REACTORS
330
9E3
102
}
330
9E3
100
AcDbXrecord
280
     1
102
SHADEPLOT
 70
     0
102
SHADEPLOTRESLEVEL
 70
     2
102
SHADEPLOTCUSTOMDPI
 70
   300
  0
XRECORD
  5
9E2
102
{ACAD_REACTORS
330
9E1
102
}
330
9E1
100
AcDbXrecord
280
     1
102
SHADEPLOT
 70
     0
102
SHADEPLOTRESLEVEL
 70
     2
102
SHADEPLOTCUSTOMDPI
 70
   300
  0
ENDSEC
  0
EOF
