  0
SECTION
  2
HEADER
  9
$ACADVER
  1
AC1015
  9
$ACADMAINTVER
 70
    20
  9
$DWGCODEPAGE
  3
ANSI_936
  9
$INSBASE
 10
0.0
 20
0.0
 30
0.0
  9
$EXTMIN
 10
-0.0732228146425769
 20
-0.0549171109823874
 30
-0.0000000000000058
  9
$EXTMAX
 10
1600.073252618557
 20
1200.054939463917
 30
0.0000000000000104
  9
$LIMMIN
 10
0.0
 20
0.0
  9
$LIMMAX
 10
420.0
 20
297.0
  9
$ORTHOMODE
 70
     0
  9
$REGENMODE
 70
     1
  9
$FILLMODE
 70
     1
  9
$QTEXTMODE
 70
     0
  9
$MIRRTEXT
 70
     0
  9
$LTSCALE
 40
1.0
  9
$ATTMODE
 70
     1
  9
$TEXTSIZE
 40
2.5
  9
$TRACEWID
 40
1.0
  9
$TEXTSTYLE
  7
Standard
  9
$CLAYER
  8
0
  9
$CELTYPE
  6
ByLayer
  9
$CECOLOR
 62
   256
  9
$CELTSCALE
 40
1.0
  9
$DISPSILH
 70
     0
  9
$DIMSCALE
 40
1.0
  9
$DIMASZ
 40
2.5
  9
$DIMEXO
 40
1.0
  9
$DIMDLI
 40
7.0
  9
$DIMRND
 40
0.0
  9
$DIMDLE
 40
0.0
  9
$DIMEXE
 40
1.0
  9
$DIMTP
 40
0.0
  9
$DIMTM
 40
0.0
  9
$DIMTXT
 40
2.5
  9
$DIMCEN
 40
0.0
  9
$DIMTSZ
 40
0.0
  9
$DIMTOL
 70
     0
  9
$DIMLIM
 70
     0
  9
$DIMTIH
 70
     0
  9
$DIMTOH
 70
     0
  9
$DIMSE1
 70
     0
  9
$DIMSE2
 70
     0
  9
$DIMTAD
 70
     1
  9
$DIMZIN
 70
     8
  9
$DIMBLK
  1

  9
$DIMASO
 70
     1
  9
$DIMSHO
 70
     1
  9
$DIMPOST
  1

  9
$DIMAPOST
  1

  9
$DIMALT
 70
     0
  9
$DIMALTD
 70
     2
  9
$DIMALTF
 40
0.0394
  9
$DIMLFAC
 40
1.0
  9
$DIMTOFL
 70
     1
  9
$DIMTVP
 40
0.0
  9
$DIMTIX
 70
     1
  9
$DIMSOXD
 70
     1
  9
$DIMSAH
 70
     0
  9
$DIMBLK1
  1

  9
$DIMBLK2
  1

  9
$DIMSTYLE
  2
JIS
  9
$DIMCLRD
 70
     0
  9
$DIMCLRE
 70
     0
  9
$DIMCLRT
 70
     0
  9
$DIMTFAC
 40
1.0
  9
$DIMGAP
 40
0.0
  9
$DIMJUST
 70
     0
  9
$DIMSD1
 70
     0
  9
$DIMSD2
 70
     0
  9
$DIMTOLJ
 70
     1
  9
$DIMTZIN
 70
     0
  9
$DIMALTZ
 70
     0
  9
$DIMALTTZ
 70
     0
  9
$DIMUPT
 70
     0
  9
$DIMDEC
 70
     4
  9
$DIMTDEC
 70
     4
  9
$DIMALTU
 70
     2
  9
$DIMALTTD
 70
     2
  9
$DIMTXSTY
  7
Standard
  9
$DIMAUNIT
 70
     0
  9
$DIMADEC
 70
     0
  9
$DIMALTRND
 40
0.0
  9
$DIMAZIN
 70
     0
  9
$DIMDSEP
 70
    46
  9
$DIMATFIT
 70
     3
  9
$DIMFRAC
 70
     0
  9
$DIMLDRBLK
  1

  9
$DIMLUNIT
 70
     2
  9
$DIMLWD
 70
    -2
  9
$DIMLWE
 70
    -2
  9
$DIMTMOVE
 70
     0
  9
$LUNITS
 70
     2
  9
$LUPREC
 70
     4
  9
$SKETCHINC
 40
1.0
  9
$FILLETRAD
 40
0.0
  9
$AUNITS
 70
     0
  9
$AUPREC
 70
     0
  9
$MENU
  1
.
  9
$ELEVATION
 40
0.0
  9
$PELEVATION
 40
0.0
  9
$THICKNESS
 40
0.0
  9
$LIMCHECK
 70
     0
  9
$CHAMFERA
 40
0.0
  9
$CHAMFERB
 40
0.0
  9
$CHAMFERC
 40
0.0
  9
$CHAMFERD
 40
0.0
  9
$SKPOLY
 70
     0
  9
$TDCREATE
 40
2455955.017649734
  9
$TDUCREATE
 40
2455954.684316401
  9
$TDUPDATE
 40
2456193.620477790
  9
$TDUUPDATE
 40
2456193.287144456
  9
$TDINDWG
 40
0.0493652199
  9
$TDUSRTIMER
 40
0.0493603472
  9
$USRTIMER
 70
     1
  9
$ANGBASE
 50
0.0
  9
$ANGDIR
 70
     0
  9
$PDMODE
 70
     0
  9
$PDSIZE
 40
0.0
  9
$PLINEWID
 40
0.0
  9
$SPLFRAME
 70
     0
  9
$SPLINETYPE
 70
     6
  9
$SPLINESEGS
 70
   100
  9
$HANDSEED
  5
936
  9
$SURFTAB1
 70
     6
  9
$SURFTAB2
 70
     6
  9
$SURFTYPE
 70
     6
  9
$SURFU
 70
     6
  9
$SURFV
 70
     6
  9
$UCSBASE
  2

  9
$UCSNAME
  2

  9
$UCSORG
 10
0.0
 20
0.0
 30
0.0
  9
$UCSXDIR
 10
1.0
 20
0.0
 30
0.0
  9
$UCSYDIR
 10
0.0
 20
1.0
 30
0.0
  9
$UCSORTHOREF
  2

  9
$UCSORTHOVIEW
 70
     0
  9
$UCSORGTOP
 10
0.0
 20
0.0
 30
0.0
  9
$UCSORGBOTTOM
 10
0.0
 20
0.0
 30
0.0
  9
$UCSORGLEFT
 10
0.0
 20
0.0
 30
0.0
  9
$UCSORGRIGHT
 10
0.0
 20
0.0
 30
0.0
  9
$UCSORGFRONT
 10
0.0
 20
0.0
 30
0.0
  9
$UCSORGBACK
 10
0.0
 20
0.0
 30
0.0
  9
$PUCSBASE
  2

  9
$PUCSNAME
  2

  9
$PUCSORG
 10
0.0
 20
0.0
 30
0.0
  9
$PUCSXDIR
 10
1.0
 20
0.0
 30
0.0
  9
$PUCSYDIR
 10
0.0
 20
1.0
 30
0.0
  9
$PUCSORTHOREF
  2

  9
$PUCSORTHOVIEW
 70
     0
  9
$PUCSORGTOP
 10
0.0
 20
0.0
 30
0.0
  9
$PUCSORGBOTTOM
 10
0.0
 20
0.0
 30
0.0
  9
$PUCSORGLEFT
 10
0.0
 20
0.0
 30
0.0
  9
$PUCSORGRIGHT
 10
0.0
 20
0.0
 30
0.0
  9
$PUCSORGFRONT
 10
0.0
 20
0.0
 30
0.0
  9
$PUCSORGBACK
 10
0.0
 20
0.0
 30
0.0
  9
$USERI1
 70
     0
  9
$USERI2
 70
     0
  9
$USERI3
 70
     0
  9
$USERI4
 70
     0
  9
$USERI5
 70
     0
  9
$USERR1
 40
0.0
  9
$USERR2
 40
0.0
  9
$USERR3
 40
0.0
  9
$USERR4
 40
0.0
  9
$USERR5
 40
0.0
  9
$WORLDVIEW
 70
     1
  9
$SHADEDGE
 70
     3
  9
$SHADEDIF
 70
    70
  9
$TILEMODE
 70
     1
  9
$MAXACTVP
 70
    64
  9
$PINSBASE
 10
0.0
 20
0.0
 30
0.0
  9
$PLIMCHECK
 70
     0
  9
$PEXTMIN
 10
1.000000000000000E+20
 20
1.000000000000000E+20
 30
1.000000000000000E+20
  9
$PEXTMAX
 10
-1.000000000000000E+20
 20
-1.000000000000000E+20
 30
-1.000000000000000E+20
  9
$PLIMMIN
 10
0.0071835950613099
 20
0.0009369707933136
  9
$PLIMMAX
 10
841.0071835950612
 20
594.0009369707931
  9
$UNITMODE
 70
     0
  9
$VISRETAIN
 70
     1
  9
$PLINEGEN
 70
     0
  9
$PSLTSCALE
 70
     1
  9
$TREEDEPTH
 70
  3020
  9
$CMLSTYLE
  2
Standard
  9
$CMLJUST
 70
     0
  9
$CMLSCALE
 40
20.0
  9
$PROXYGRAPHICS
 70
     1
  9
$MEASUREMENT
 70
     1
  9
$CELWEIGHT
370
    -1
  9
$ENDCAPS
280
     0
  9
$JOINSTYLE
280
     0
  9
$LWDISPLAY
290
     1
  9
$INSUNITS
 70
     4
  9
$HYPERLINKBASE
  1

  9
$STYLESHEET
  1

  9
$XEDIT
290
     1
  9
$CEPSNTYPE
380
     0
  9
$PSTYLEMODE
290
     1
  9
$FINGERPRINTGUID
  2
{048D7354-A980-11D2-9A39-0060089B3A3F}
  9
$VERSIONGUID
  2
{83A40DB1-DCB2-4094-A6A2-F48849286445}
  9
$EXTNAMES
290
     1
  9
$PSVPSCALE
 40
0.0
  9
$OLESTARTUP
290
     0
  0
ENDSEC
  0
SECTION
  2
CLASSES
  0
CLASS
  1
ACDBDICTIONARYWDFLT
  2
AcDbDictionaryWithDefault
  3
ObjectDBX Classes
 90
        0
280
     0
281
     0
  0
CLASS
  1
ACDBPLACEHOLDER
  2
AcDbPlaceHolder
  3
ObjectDBX Classes
 90
        0
280
     0
281
     0
  0
CLASS
  1
LAYOUT
  2
AcDbLayout
  3
ObjectDBX Classes
 90
        0
280
     0
281
     0
  0
CLASS
  1
PLOTSETTINGS
  2
AcDbPlotSettings
  3
ObjectDBX Classes
 90
    32768
280
     0
281
     0
  0
CLASS
  1
DICTIONARYVAR
  2
AcDbDictionaryVar
  3
ObjectDBX Classes
 90
        0
280
     0
281
     0
  0
ENDSEC
  0
SECTION
  2
TABLES
  0
TABLE
  2
VPORT
  5
19
330
0
100
AcDbSymbolTable
 70
     2
  0
VPORT
  5
92C
330
19
100
AcDbSymbolTableRecord
100
AcDbViewportTableRecord
  2
*Active
 70
     0
 10
0.0
 20
0.0
 11
1.0
 21
1.0
 12
800.0000124921994
 22
600.000008877006
 13
0.0
 23
0.0
 14
10.0
 24
10.0
 15
10.0
 25
10.0
 16
0.0
 26
0.0
 36
1.0
 17
0.0
 27
0.0
 37
0.0
 40
1297.730102401667
 41
2.293805309734513
 42
50.0
 43
0.0
 44
0.0
 50
0.0
 51
0.0
 71
     0
 72
  2000
 73
     1
 74
     3
 75
     0
 76
     0
 77
     0
 78
     0
281
     0
 65
     1
110
0.0
120
0.0
130
0.0
111
1.0
121
0.0
131
0.0
112
0.0
122
1.0
132
0.0
 79
     0
146
0.0
  0
ENDTAB
  0
TABLE
  2
LTYPE
  5
14
330
0
100
AcDbSymbolTable
 70
     1
  0
LTYPE
  5
15
330
14
100
AcDbSymbolTableRecord
100
AcDbLinetypeTableRecord
  2
ByBlock
 70
     0
  3

 72
    65
 73
     0
 40
0.0
  0
LTYPE
  5
16
330
14
100
AcDbSymbolTableRecord
100
AcDbLinetypeTableRecord
  2
ByLayer
 70
     0
  3

 72
    65
 73
     0
 40
0.0
  0
LTYPE
  5
8
330
14
100
AcDbSymbolTableRecord
100
AcDbLinetypeTableRecord
  2
Continuous
 70
     0
  3
Solid line
 72
    65
 73
     0
 40
0.0
  0
ENDTAB
  0
TABLE
  2
LAYER
  5
10
102
{ACAD_XDICTIONARY
360
1A3
102
}
330
0
100
AcDbSymbolTable
 70
     5
  0
LAYER
  5
4
330
10
100
AcDbSymbolTableRecord
100
AcDbLayerTableRecord
  2
0
 70
     0
 62
     7
  6
Continuous
370
    -3
390
5
  0
LAYER
  5
28
330
10
100
AcDbSymbolTableRecord
100
AcDbLayerTableRecord
  2
Object
 70
     0
 62
     7
  6
Continuous
370
    -3
390
5
  0
LAYER
  5
1A2
330
10
100
AcDbSymbolTableRecord
100
AcDbLayerTableRecord
  2
TOPOVERLAY
 70
     0
 62
     2
  6
Continuous
370
    -3
390
5
  0
LAYER
  5
70A
330
10
100
AcDbSymbolTableRecord
100
AcDbLayerTableRecord
  2
6-家具-143
 70
     0
 62
   143
  6
Continuous
370
    -3
390
5
  0
LAYER
  5
70B
330
10
100
AcDbSymbolTableRecord
100
AcDbLayerTableRecord
  2
DS
 70
     0
 62
     8
  6
Continuous
370
    -3
390
5
  0
ENDTAB
  0
TABLE
  2
STYLE
  5
11
330
0
100
AcDbSymbolTable
 70
     3
  0
STYLE
  5
12
330
11
100
AcDbSymbolTableRecord
100
AcDbTextStyleTableRecord
  2
Standard
 70
     0
 40
0.0
 41
1.0
 50
0.0
 71
     0
 42
2.5
  3
txt
  4

  0
STYLE
  5
2E
330
11
100
AcDbSymbolTableRecord
100
AcDbTextStyleTableRecord
  2
Roman
 70
     0
 40
0.0
 41
1.0
 50
0.0
 71
     0
 42
5.0
  3
romans
  4
bigfont
  0
STYLE
  5
70C
330
11
100
AcDbSymbolTableRecord
100
AcDbTextStyleTableRecord
  2
HZS
 70
     0
 40
0.0
 41
0.7
 50
0.0
 71
     0
 42
300.0
  3
txt
  4
HZS
  0
ENDTAB
  0
TABLE
  2
VIEW
  5
17
330
0
100
AcDbSymbolTable
 70
     0
  0
ENDTAB
  0
TABLE
  2
UCS
  5
18
330
0
100
AcDbSymbolTable
 70
     0
  0
ENDTAB
  0
TABLE
  2
APPID
  5
1B
330
0
100
AcDbSymbolTable
 70
     1
  0
APPID
  5
1C
330
1B
100
AcDbSymbolTableRecord
100
AcDbRegAppTableRecord
  2
ACAD
 70
     0
  0
ENDTAB
  0
TABLE
  2
DIMSTYLE
  5
1D
330
0
100
AcDbSymbolTable
 70
     2
100
AcDbDimStyleTable
 71
     1
340
1E
  0
DIMSTYLE
105
1E
330
1D
100
AcDbSymbolTableRecord
100
AcDbDimStyleTableRecord
  2
JIS
 70
     0
 41
2.5
 42
1.0
 43
7.0
 44
1.0
 73
     0
 74
     0
 77
     1
 78
     8
140
2.5
141
0.0
143
0.0394
147
0.0
172
     1
174
     1
175
     1
340
12
  0
DIMSTYLE
105
70D
330
1D
100
AcDbSymbolTableRecord
100
AcDbDimStyleTableRecord
  2
STANDARD
 70
     0
340
12
  0
ENDTAB
  0
TABLE
  2
BLOCK_RECORD
  5
1
330
0
100
AcDbSymbolTable
 70
     1
  0
BLOCK_RECORD
  5
2
330
1
100
AcDbSymbolTableRecord
100
AcDbBlockTableRecord
  2
*Model_Space
340
A
  0
BLOCK_RECORD
  5
C
330
1
100
AcDbSymbolTableRecord
100
AcDbBlockTableRecord
  2
*Paper_Space
340
F
  0
ENDTAB
  0
ENDSEC
  0
SECTION
  2
BLOCKS
  0
BLOCK
  5
3
330
2
100
AcDbEntity
  8
0
100
AcDbBlockBegin
  2
*Model_Space
 70
     2
 10
0.0
 20
0.0
 30
0.0
  3
*Model_Space
  1

  0
ENDBLK
  5
9
330
2
100
AcDbEntity
  8
0
100
AcDbBlockEnd
  0
BLOCK
  5
D
330
C
100
AcDbEntity
 67
     1
  8
0
100
AcDbBlockBegin
  2
*Paper_Space
 70
     0
 10
0.0
 20
0.0
 30
0.0
  3
*Paper_Space
  1

  0
ENDBLK
  5
E
330
C
100
AcDbEntity
 67
     1
  8
0
100
AcDbBlockEnd
  0
ENDSEC
  0
SECTION
  2
ENTITIES
  0
LINE
  5
14F
330
2
100
AcDbEntity
  8
0
100
AcDbLine
 10
0.0
 20
0.0
 30
0.0
 11
1600.0
 21
0.0
 31
0.0
  0
LINE
  5
150
330
2
100
AcDbEntity
  8
0
100
AcDbLine
 10
1600.0
 20
0.0
 30
0.0
 11
1600.0
 21
1200.0
 31
0.0
  0
LINE
  5
151
330
2
100
AcDbEntity
  8
0
100
AcDbLine
 10
1600.0
 20
1200.0
 30
0.0
 11
0.0
 21
1200.0
 31
0.0
  0
LINE
  5
152
330
2
100
AcDbEntity
  8
0
100
AcDbLine
 10
0.0
 20
1200.0
 30
0.0
 11
0.0
 21
0.0
 31
0.0
  0
LINE
  5
24D
330
2
100
AcDbEntity
  8
0
 62
     5
370
    35
100
AcDbLine
 10
146.8773759648378
 20
134.2453454679304
 30
0.0
 11
146.8773759648378
 21
1100.245345467943
 31
0.0
  0
LINE
  5
24E
330
2
100
AcDbEntity
  8
0
 62
     5
370
    35
100
AcDbLine
 10
146.8773759648378
 20
1100.245345467943
 30
0.0
 11
1462.87737596485
 21
1100.245345467943
 31
0.0
  0
LINE
  5
24F
330
2
100
AcDbEntity
  8
0
 62
     5
370
    35
100
AcDbLine
 10
1462.87737596485
 20
134.2453454679304
 30
0.0
 11
1462.87737596485
 21
1100.245345467943
 31
0.0
  0
LINE
  5
250
330
2
100
AcDbEntity
  8
0
 62
     5
370
    35
100
AcDbLine
 10
146.8773759648378
 20
134.2453454679304
 30
0.0
 11
1462.87737596485
 21
134.2453454679304
 31
0.0
  0
ARC
  5
253
330
2
100
AcDbEntity
  8
0
 62
    56
100
AcDbCircle
 10
401.2681708086422
 20
628.4567916576502
 30
0.0
 40
86.57756336906864
100
AcDbArc
 50
93.76815435825868
 51
266.2318456417413
  0
LINE
  5
254
330
2
100
AcDbEntity
  8
0
 62
    56
100
AcDbLine
 10
470.1374477329405
 20
628.3583971343634
 30
0.0
 11
499.3982512737052
 21
628.3583971343634
 31
0.0
  0
LINE
  5
255
330
2
100
AcDbEntity
  8
0
 62
     1
370
   100
100
AcDbLine
 10
527.8635948504152
 20
628.2835470220474
 30
0.0
 11
587.9718373885777
 21
628.2835470220474
 31
0.0
  0
LINE
  5
256
330
2
100
AcDbEntity
  8
TOPOVERLAY
  6
Continuous
 62
   250
370
   100
100
AcDbLine
 10
541.4356581651294
 20
585.0814711308552
 30
0.0
 11
587.6442963840311
 21
614.4695149158027
 31
0.0
  0
LINE
  5
257
330
2
100
AcDbEntity
  8
0
 62
    56
100
AcDbLine
 10
604.2264970840532
 20
628.4012180692907
 30
0.0
 11
658.7775067137572
 21
628.4012180692907
 31
0.0
  0
CIRCLE
  5
25A
330
2
100
AcDbEntity
  8
0
 62
   252
100
AcDbCircle
 10
849.8347280698894
 20
544.8099052881846
 30
0.0
 40
20.66015533163439
  0
CIRCLE
  5
25B
330
2
100
AcDbEntity
  8
0
 62
   252
100
AcDbCircle
 10
896.2810363508351
 20
544.8099052881846
 30
0.0
 40
20.66015533163439
  0
LINE
  5
25C
330
2
100
AcDbEntity
  8
0
 62
   252
100
AcDbLine
 10
846.0386689126329
 20
572.6575850725935
 30
0.0
 11
846.0386689126329
 21
590.4449980898156
 31
0.0
  0
LINE
  5
25D
330
2
100
AcDbEntity
  8
0
 62
   252
100
AcDbLine
 10
851.7095168752783
 20
569.7441298102651
 30
0.0
 11
851.7095168752783
 21
587.5315428273284
 31
0.0
  0
LINE
  5
25E
330
2
100
AcDbEntity
  8
0
 62
   252
100
AcDbLine
 10
840.3678256780167
 20
583.0846877287699
 30
0.0
 11
859.9858798658585
 21
574.651003384211
 31
0.0
  0
LINE
  5
25F
330
2
100
AcDbEntity
  8
0
 62
   252
100
AcDbLine
 10
891.6408484796201
 20
571.4311248843483
 30
0.0
 11
891.6408484796201
 21
589.2185379015702
 31
0.0
  0
LINE
  5
260
330
2
100
AcDbEntity
  8
0
 62
   252
100
AcDbLine
 10
897.3116964422823
 20
568.5176696219882
 30
0.0
 11
897.3116964422823
 21
586.3050826390831
 31
0.0
  0
LINE
  5
261
330
2
100
AcDbEntity
  8
0
 62
   252
100
AcDbLine
 10
885.9700052450161
 20
581.8582275404926
 30
0.0
 11
905.5880594328653
 21
573.4245431959656
 31
0.0
  0
LINE
  5
262
330
2
100
AcDbEntity
  8
0
 62
   252
100
AcDbLine
 10
811.4020209092316
 20
547.0627865766075
 30
0.0
 11
938.3176685414612
 21
547.0627865766075
 31
0.0
  0
CIRCLE
  5
263
330
2
100
AcDbEntity
  8
0
 62
   252
100
AcDbCircle
 10
846.4638490603672
 20
689.8273729904121
 30
0.0
 40
20.66015533163439
  0
CIRCLE
  5
264
330
2
100
AcDbEntity
  8
0
 62
   252
100
AcDbCircle
 10
892.9101573412921
 20
689.8273729904121
 30
0.0
 40
20.66015533163439
  0
LINE
  5
265
330
2
100
AcDbEntity
  8
0
 62
   252
100
AcDbLine
 10
842.6677899030917
 20
717.6750527748207
 30
0.0
 11
842.6677899030917
 21
735.4624657919162
 31
0.0
  0
LINE
  5
266
330
2
100
AcDbEntity
  8
0
 62
   252
100
AcDbLine
 10
848.3386378657456
 20
714.761597512334
 30
0.0
 11
848.3386378657456
 21
732.549010529556
 31
0.0
  0
LINE
  5
267
330
2
100
AcDbEntity
  8
0
 62
   252
100
AcDbLine
 10
836.9969466684873
 20
728.1021554308705
 30
0.0
 11
856.6150008563175
 21
719.6684710864705
 31
0.0
  0
LINE
  5
268
330
2
100
AcDbEntity
  8
0
 62
   252
100
AcDbLine
 10
888.2699694700912
 20
716.448592586576
 30
0.0
 11
888.2699694700912
 21
734.2360056036708
 31
0.0
  0
LINE
  5
269
330
2
100
AcDbEntity
  8
0
 62
   252
100
AcDbLine
 10
893.9408174327452
 20
713.5351373240884
 30
0.0
 11
893.9408174327452
 21
731.3225503413426
 31
0.0
  0
LINE
  5
26A
330
2
100
AcDbEntity
  8
0
 62
   252
100
AcDbLine
 10
882.5991262354792
 20
726.8756952426248
 30
0.0
 11
902.2171804233362
 21
718.442010898098
 31
0.0
  0
LINE
  5
26B
330
2
100
AcDbEntity
  8
0
 62
   252
100
AcDbLine
 10
808.0311418997078
 20
692.0802542788354
 30
0.0
 11
934.9467895319213
 21
692.0802542788354
 31
0.0
  0
LINE
  5
26C
330
2
100
AcDbEntity
  8
0
 62
    56
100
AcDbLine
 10
294.9873178741801
 20
240.3176229270147
 30
0.0
 11
294.9595074320472
 21
1017.926882565553
 31
0.0
  0
ARC
  5
26E
330
2
100
AcDbEntity
  8
0
 62
    56
100
AcDbCircle
 10
714.0263533355915
 20
629.3287134877487
 30
0.0
 40
86.57756336906864
100
AcDbArc
 50
273.7681543582587
 51
86.23184564174131
  0
LINE
  5
26F
330
2
100
AcDbEntity
  8
0
 62
    56
100
AcDbLine
 10
973.9539700263961
 20
625.1124834942498
 30
0.0
 11
973.9539700263961
 21
501.1746429232616
 31
0.0
  0
LINE
  5
270
330
2
100
AcDbEntity
  8
0
 62
    56
100
AcDbLine
 10
973.9539700263961
 20
501.1746429232616
 30
0.0
 11
906.4579844358259
 21
501.1746429232616
 31
0.0
  0
LINE
  5
271
330
2
100
AcDbEntity
  8
0
 62
    56
100
AcDbLine
 10
906.4579844358259
 20
501.1746429232616
 30
0.0
 11
906.4579844358259
 21
394.2070817623431
 31
0.0
  0
LINE
  5
272
330
2
100
AcDbEntity
  8
0
 62
    56
100
AcDbLine
 10
906.4579844358259
 20
394.2070817623431
 30
0.0
 11
934.4953215517596
 21
394.2070817623431
 31
0.0
  0
LINE
  5
273
330
2
100
AcDbEntity
  8
0
 62
    56
100
AcDbLine
 10
934.4953215517596
 20
380.8960846563837
 30
0.0
 11
934.4953215517596
 21
407.460580247544
 31
0.0
  0
LINE
  5
274
330
2
100
AcDbEntity
  8
0
 62
    56
100
AcDbLine
 10
940.8403907057147
 20
380.8960846563837
 30
0.0
 11
940.8403907057147
 21
407.460580247544
 31
0.0
  0
CIRCLE
  5
275
330
2
100
AcDbEntity
  8
0
 62
   250
370
    30
100
AcDbCircle
 10
1003.517714356422
 20
334.9398966850963
 30
0.0
 40
21.00918010397843
  0
CIRCLE
  5
279
330
2
100
AcDbEntity
  8
0
 62
   250
370
    30
100
AcDbCircle
 10
1003.455272873811
 20
394.3476714354988
 30
0.0
 40
21.00918010397843
  0
CIRCLE
  5
27D
330
2
100
AcDbEntity
  8
0
 62
   250
370
    30
100
AcDbCircle
 10
1003.455272873811
 20
451.0131016931476
 30
0.0
 40
21.00918010397843
  0
LINE
  5
281
330
2
100
AcDbEntity
  8
0
 62
    56
100
AcDbLine
 10
982.4460927698423
 20
394.3476714354988
 30
0.0
 11
940.8403907057147
 21
394.3476714354988
 31
0.0
  0
LINE
  5
282
330
2
100
AcDbEntity
  8
0
 62
    56
100
AcDbLine
 10
1024.464452977806
 20
394.3476714354988
 30
0.0
 11
1039.314395454069
 21
394.3476714354988
 31
0.0
  0
LINE
  5
283
330
2
100
AcDbEntity
  8
0
 62
    56
100
AcDbLine
 10
1039.388990038443
 20
379.3676202292459
 30
0.0
 11
1039.388990038443
 21
409.00459600814
 31
0.0
  0
LINE
  5
284
330
2
100
AcDbEntity
  8
0
 62
    56
100
AcDbLine
 10
1042.74302770237
 20
383.8706902995915
 30
0.0
 11
1042.74302770237
 21
403.1583864851246
 31
0.0
  0
LINE
  5
285
330
2
100
AcDbEntity
  8
0
 62
    56
100
AcDbLine
 10
1046.461012423949
 20
389.243690747517
 30
0.0
 11
1046.461012423949
 21
397.7853860371993
 31
0.0
  0
LINE
  5
286
330
2
100
AcDbEntity
  8
0
 62
    56
100
AcDbLine
 10
973.9539700263961
 20
625.1124834942498
 30
0.0
 11
973.9539700263961
 21
752.756677270245
 31
0.0
  0
LINE
  5
287
330
2
100
AcDbEntity
  8
0
 62
    56
100
AcDbLine
 10
973.9539700263961
 20
752.756677270245
 30
0.0
 11
905.6413493840961
 21
752.756677270245
 31
0.0
  0
LINE
  5
288
330
2
100
AcDbEntity
  8
0
 62
    56
100
AcDbLine
 10
905.6413493840961
 20
752.756677270245
 30
0.0
 11
905.6413493840961
 21
920.9552148575816
 31
0.0
  0
LINE
  5
289
330
2
100
AcDbEntity
  8
0
 62
    56
100
AcDbLine
 10
905.6413493840961
 20
920.9552148575816
 30
0.0
 11
942.2925948928883
 21
920.9552148575816
 31
0.0
  0
LINE
  5
28A
330
2
100
AcDbEntity
  8
0
 62
   250
370
    30
100
AcDbLine
 10
950.2989489221251
 20
845.5916548606225
 30
0.0
 11
1012.039857522575
 21
845.5916548606225
 31
0.0
  0
LINE
  5
28B
330
2
100
AcDbEntity
  8
0
 62
   250
370
    30
100
AcDbLine
 10
969.3382320053286
 20
803.5084767944718
 30
0.0
 11
1011.712316518024
 21
830.4615642773709
 31
0.0
  0
LINE
  5
28C
330
2
100
AcDbEntity
  8
0
 62
    56
100
AcDbLine
 10
934.9535364719052
 20
827.3457265659777
 30
0.0
 11
934.9535364719052
 21
858.7929572286345
 31
0.0
  0
LINE
  5
28D
330
2
100
AcDbEntity
  8
0
 62
    56
100
AcDbLine
 10
934.9535364719052
 20
842.1221343767278
 30
0.0
 11
905.6413493840961
 21
842.1221343767278
 31
0.0
  0
LINE
  5
28E
330
2
100
AcDbEntity
  8
0
 62
    56
100
AcDbLine
 10
1024.464452977806
 20
841.4595212865702
 30
0.0
 11
1039.314395454069
 21
841.4595212865702
 31
0.0
  0
LINE
  5
28F
330
2
100
AcDbEntity
  8
0
 62
    56
100
AcDbLine
 10
1039.388990038443
 20
826.4794700803172
 30
0.0
 11
1039.388990038443
 21
856.1164458592115
 31
0.0
  0
LINE
  5
290
330
2
100
AcDbEntity
  8
0
 62
    56
100
AcDbLine
 10
1042.74302770237
 20
830.9825401507263
 30
0.0
 11
1042.74302770237
 21
850.2702363362281
 31
0.0
  0
LINE
  5
291
330
2
100
AcDbEntity
  8
0
 62
    56
100
AcDbLine
 10
1046.461012423949
 20
836.3555405986202
 30
0.0
 11
1046.461012423949
 21
844.8972358883024
 31
0.0
  0
LINE
  5
292
330
2
100
AcDbEntity
  8
0
 62
    56
370
    20
100
AcDbLine
 10
947.6868372289683
 20
911.4332543979623
 30
0.0
 11
1010.827803089492
 21
911.4332543979623
 31
0.0
  0
LINE
  5
293
330
2
100
AcDbEntity
  8
0
 62
    56
370
    20
100
AcDbLine
 10
1010.827803089492
 20
911.4332543979623
 30
0.0
 11
1010.827803089492
 21
930.5621469768404
 31
0.0
  0
LINE
  5
294
330
2
100
AcDbEntity
  8
0
 62
    56
370
    20
100
AcDbLine
 10
1010.827803089492
 20
930.5621469768404
 30
0.0
 11
947.6868372289683
 21
930.5621469768404
 31
0.0
  0
LINE
  5
295
330
2
100
AcDbEntity
  8
0
 62
    56
370
    20
100
AcDbLine
 10
947.6868372289683
 20
930.5621469768404
 30
0.0
 11
947.6868372289683
 21
911.4332543979623
 31
0.0
  0
LINE
  5
296
330
2
100
AcDbEntity
  8
0
 62
    56
370
    20
100
AcDbLine
 10
942.2925948928883
 20
920.9552148575816
 30
0.0
 11
957.1310260261633
 21
920.9552148575816
 31
0.0
  0
LINE
  5
297
330
2
100
AcDbEntity
  8
0
 62
    56
370
    20
100
AcDbLine
 10
957.1310260261633
 20
914.6058149412926
 30
0.0
 11
957.1310260261633
 21
927.30461477403
 31
0.0
  0
LINE
  5
298
330
2
100
AcDbEntity
  8
0
 62
    56
370
    20
100
AcDbLine
 10
957.1310260261633
 20
927.30461477403
 30
0.0
 11
992.8444137824833
 21
920.9552148575816
 31
0.0
  0
LINE
  5
299
330
2
100
AcDbEntity
  8
0
 62
    56
370
    20
100
AcDbLine
 10
957.1310260261633
 20
914.6058149412926
 30
0.0
 11
992.8444137824833
 21
920.9552148575816
 31
0.0
  0
LINE
  5
29A
330
2
100
AcDbEntity
  8
0
 62
    56
100
AcDbLine
 10
1024.575723114653
 20
921.1158627875423
 30
0.0
 11
1039.425665590903
 21
921.1158627875423
 31
0.0
  0
LINE
  5
29B
330
2
100
AcDbEntity
  8
0
 62
    56
100
AcDbLine
 10
1039.500260175289
 20
906.1358115812897
 30
0.0
 11
1039.500260175289
 21
935.7727873603113
 31
0.0
  0
LINE
  5
29C
330
2
100
AcDbEntity
  8
0
 62
    56
100
AcDbLine
 10
1042.854297839231
 20
910.6388816516666
 30
0.0
 11
1042.854297839231
 21
929.926577837328
 31
0.0
  0
LINE
  5
29D
330
2
100
AcDbEntity
  8
0
 62
    56
100
AcDbLine
 10
1046.572282560815
 20
916.0118820995927
 30
0.0
 11
1046.572282560815
 21
924.5535773894019
 31
0.0
  0
LINE
  5
29E
330
2
100
AcDbEntity
  8
0
 62
    56
100
AcDbLine
 10
800.5989484865619
 20
628.4012180692907
 30
0.0
 11
1085.671855937085
 21
628.4012180692907
 31
0.0
  0
CIRCLE
  5
29F
330
2
100
AcDbEntity
  8
0
 62
   250
370
    30
100
AcDbCircle
 10
1234.582622490346
 20
335.6770914340137
 30
0.0
 40
21.00918010397843
  0
CIRCLE
  5
2A3
330
2
100
AcDbEntity
  8
0
 62
   250
370
    30
100
AcDbCircle
 10
1234.520181007761
 20
395.0848661843843
 30
0.0
 40
21.00918010397843
  0
CIRCLE
  5
2A7
330
2
100
AcDbEntity
  8
0
 62
   250
370
    30
100
AcDbCircle
 10
1234.520181007761
 20
451.7502964421924
 30
0.0
 40
21.00918010397843
  0
CIRCLE
  5
2AB
330
2
100
AcDbEntity
  8
0
 62
   250
370
    30
100
AcDbCircle
 10
1137.685615453919
 20
578.5931509954439
 30
0.0
 40
21.00918010397843
  0
LINE
  5
2AE
330
2
100
AcDbEntity
  8
0
 62
   252
100
AcDbLine
 10
1094.57518754467
 20
261.2888166757517
 30
0.0
 11
1094.57518754467
 21
619.2495115365913
 31
0.0
  0
LINE
  5
2AF
330
2
100
AcDbEntity
  8
0
 62
   252
100
AcDbLine
 10
1094.57518754467
 20
619.2495115365913
 30
0.0
 11
1339.165136360506
 21
619.2495115365913
 31
0.0
  0
LINE
  5
2B0
330
2
100
AcDbEntity
  8
0
 62
   252
100
AcDbLine
 10
1339.165136360506
 20
619.2495115365913
 30
0.0
 11
1339.165136360506
 21
261.2888166757517
 31
0.0
  0
LINE
  5
2B1
330
2
100
AcDbEntity
  8
0
 62
   252
100
AcDbLine
 10
1339.165136360506
 20
261.2888166757517
 30
0.0
 11
1094.57518754467
 21
261.2888166757517
 31
0.0
  0
CIRCLE
  5
2B3
330
2
100
AcDbEntity
  8
0
 62
   250
370
    30
100
AcDbCircle
 10
1234.582622490346
 20
768.358341278077
 30
0.0
 40
21.00918010397843
  0
CIRCLE
  5
2B7
330
2
100
AcDbEntity
  8
0
 62
   250
370
    30
100
AcDbCircle
 10
1234.520181007761
 20
886.8995479778192
 30
0.0
 40
21.00918010397843
  0
LINE
  5
2B8
330
2
100
AcDbEntity
  8
0
 62
   250
370
    30
100
AcDbLine
 10
1221.017559352162
 20
871.3262743741145
 30
0.0
 11
1248.022798577847
 21
902.4728251238176
 31
0.0
  0
LINE
  5
2B9
330
2
100
AcDbEntity
  8
0
 62
   250
370
    30
100
AcDbLine
 10
1234.520181007761
 20
886.8995479778192
 30
0.0
 11
1221.954892414037
 21
903.2384942371871
 31
0.0
  0
LINE
  5
2BA
330
2
100
AcDbEntity
  8
0
 62
   250
370
    30
100
AcDbLine
 10
1234.520181007761
 20
886.8995479778192
 30
0.0
 11
1246.712678770662
 21
870.2805636342517
 31
0.0
  0
LINE
  5
2BB
330
2
100
AcDbEntity
  8
0
 62
   252
100
AcDbLine
 10
1094.57518754467
 20
653.1478911412072
 30
0.0
 11
1094.57518754467
 21
1011.108586001919
 31
0.0
  0
LINE
  5
2BC
330
2
100
AcDbEntity
  8
0
 62
   252
100
AcDbLine
 10
1094.57518754467
 20
1011.108586001919
 30
0.0
 11
1339.165136360506
 21
1011.108586001919
 31
0.0
  0
LINE
  5
2BD
330
2
100
AcDbEntity
  8
0
 62
   252
100
AcDbLine
 10
1339.165136360506
 20
1011.108586001919
 30
0.0
 11
1339.165136360506
 21
653.1478911412075
 31
0.0
  0
LINE
  5
2BE
330
2
100
AcDbEntity
  8
0
 62
   252
100
AcDbLine
 10
1339.165136360506
 20
653.1478911412075
 30
0.0
 11
1094.57518754467
 21
653.1478911412075
 31
0.0
  0
LINE
  5
2C1
330
2
100
AcDbEntity
  8
0
 62
   252
100
AcDbLine
 10
599.7926463441414
 20
796.0172651447789
 30
0.0
 11
636.104935636844
 21
821.9138351143877
 31
0.0
  0
LINE
  5
2C2
330
2
100
AcDbEntity
  8
0
 62
   252
100
AcDbLine
 10
601.6548179111188
 20
811.6557315550569
 30
0.0
 11
633.4979104466635
 21
833.6398903008328
 31
0.0
  0
LINE
  5
2C4
330
2
100
AcDbEntity
  8
0
 62
   252
100
AcDbLine
 10
636.2000600586878
 20
849.2813438231047
 30
0.0
 11
599.4059293878438
 21
824.0740703083114
 31
0.0
  0
LINE
  5
2C6
330
2
100
AcDbEntity
  8
0
 62
   252
100
AcDbLine
 10
659.3275608998866
 20
796.0172651447784
 30
0.0
 11
695.6398501925906
 21
821.9138351143874
 31
0.0
  0
LINE
  5
2C7
330
2
100
AcDbEntity
  8
0
 62
   252
100
AcDbLine
 10
661.1897324668648
 20
811.6557315550567
 30
0.0
 11
693.0328250024127
 21
833.6398903008332
 31
0.0
  0
LINE
  5
2C9
330
2
100
AcDbEntity
  8
0
 62
   252
100
AcDbLine
 10
695.734974614433
 20
849.2813438230722
 30
0.0
 11
658.9408439435697
 21
824.0740703082797
 31
0.0
  0
ARC
  5
2CA
330
2
100
AcDbEntity
  8
0
 62
    18
370
     0
100
AcDbCircle
 10
1139.286453494253
 20
767.3453875379626
 30
0.0
 40
14.46431580258922
100
AcDbArc
 50
96.35583041835197
 51
263.644169581648
  0
LINE
  5
2CB
330
2
100
AcDbEntity
  8
0
 62
    18
370
     0
100
AcDbLine
 10
1137.685213251165
 20
752.9699758457857
 30
0.0
 11
1151.510053583306
 21
752.9699758457857
 31
0.0
  0
LINE
  5
2CC
330
2
100
AcDbEntity
  8
0
 62
    18
370
     0
100
AcDbLine
 10
1137.685213251165
 20
781.7207992301703
 30
0.0
 11
1151.510053583306
 21
781.7207992301703
 31
0.0
  0
LINE
  5
2CD
330
2
100
AcDbEntity
  8
0
 62
    18
370
     0
100
AcDbLine
 10
1151.510053583306
 20
747.2938776490585
 30
0.0
 11
1151.510053583306
 21
787.4255459526518
 31
0.0
  0
LINE
  5
2CE
330
2
100
AcDbEntity
  8
0
 62
    18
370
     0
100
AcDbLine
 10
1151.510053583306
 20
747.2938776490585
 30
0.0
 11
1178.172928851987
 21
747.2938776490585
 31
0.0
  0
LINE
  5
2CF
330
2
100
AcDbEntity
  8
0
 62
    18
370
     0
100
AcDbLine
 10
1178.172928851987
 20
747.2938776490585
 30
0.0
 11
1178.172928851987
 21
787.4255459526518
 31
0.0
  0
LINE
  5
2D0
330
2
100
AcDbEntity
  8
0
 62
    18
370
     0
100
AcDbLine
 10
1178.172928851987
 20
787.4255459526518
 30
0.0
 11
1151.510053583306
 21
787.4255459526518
 31
0.0
  0
ARC
  5
2D1
330
2
100
AcDbEntity
  8
0
 62
    88
100
AcDbCircle
 10
1139.003241827325
 20
858.899169573338
 30
0.0
 40
14.46431580258922
100
AcDbArc
 50
96.35583041835197
 51
263.644169581648
  0
LINE
  5
2D2
330
2
100
AcDbEntity
  8
0
 62
    88
100
AcDbLine
 10
1137.402001584215
 20
873.421985177711
 30
0.0
 11
1151.226841916377
 21
873.421985177711
 31
0.0
  0
LINE
  5
2D3
330
2
100
AcDbEntity
  8
0
 62
    88
100
AcDbLine
 10
1151.226841916377
 20
867.7458869808249
 30
0.0
 11
1151.226841916377
 21
907.8775552845764
 31
0.0
  0
LINE
  5
2D4
330
2
100
AcDbEntity
  8
0
 62
    88
100
AcDbLine
 10
1151.226841916377
 20
867.7458869808249
 30
0.0
 11
1177.88971718507
 21
867.7458869808249
 31
0.0
  0
LINE
  5
2D5
330
2
100
AcDbEntity
  8
0
 62
    88
100
AcDbLine
 10
1177.88971718507
 20
867.7458869808249
 30
0.0
 11
1177.889717185057
 21
907.8775552845764
 31
0.0
  0
LINE
  5
2D6
330
2
100
AcDbEntity
  8
0
 62
    88
100
AcDbLine
 10
1177.88971718507
 20
907.8775552845764
 30
0.0
 11
1151.226841916377
 21
907.8775552845764
 31
0.0
  0
LINE
  5
2D7
330
2
100
AcDbEntity
  8
0
 62
   250
370
    30
100
AcDbLine
 10
665.8807654987732
 20
907.4940630177801
 30
0.0
 11
665.8807654987732
 21
945.7800229854225
 31
0.0
  0
LINE
  5
2D8
330
2
100
AcDbEntity
  8
0
 62
   250
370
    30
100
AcDbLine
 10
665.8807654987732
 20
945.7800229854225
 30
0.0
 11
689.6916630852606
 21
945.7800229854225
 31
0.0
  0
LINE
  5
2D9
330
2
100
AcDbEntity
  8
0
 62
   250
370
    30
100
AcDbLine
 10
689.6916630852606
 20
945.7800229854225
 30
0.0
 11
689.6916630852606
 21
907.4940630177801
 31
0.0
  0
LINE
  5
2DA
330
2
100
AcDbEntity
  8
0
 62
   250
370
    30
100
AcDbLine
 10
689.6916630852606
 20
907.4940630177801
 30
0.0
 11
665.8807654987732
 21
907.4940630177801
 31
0.0
  0
LINE
  5
2DB
330
2
100
AcDbEntity
  8
TOPOVERLAY
  6
Continuous
 62
     3
370
    30
100
AcDbLine
 10
606.3458509430277
 20
907.4940630177803
 30
0.0
 11
606.3458509430277
 21
945.7800229852642
 31
0.0
  0
LINE
  5
2DC
330
2
100
AcDbEntity
  8
TOPOVERLAY
  6
Continuous
 62
     3
370
    30
100
AcDbLine
 10
606.3458509430277
 20
945.7800229852642
 30
0.0
 11
630.1567485295541
 21
945.7800229852642
 31
0.0
  0
LINE
  5
2DD
330
2
100
AcDbEntity
  8
TOPOVERLAY
  6
Continuous
 62
     3
370
    30
100
AcDbLine
 10
630.1567485295541
 20
945.7800229852642
 30
0.0
 11
630.1567485295541
 21
907.4940630177803
 31
0.0
  0
LINE
  5
2DE
330
2
100
AcDbEntity
  8
TOPOVERLAY
  6
Continuous
 62
     3
370
    30
100
AcDbLine
 10
630.1567485295541
 20
907.4940630177803
 30
0.0
 11
606.3458509430277
 21
907.4940630177803
 31
0.0
  0
LINE
  5
2E0
330
2
100
AcDbEntity
  8
0
 62
   252
100
AcDbLine
 10
1176.401910468062
 20
557.2303403402433
 30
0.0
 11
1176.401910468062
 21
601.3235525283021
 31
0.0
  0
LINE
  5
2E1
330
2
100
AcDbEntity
  8
0
 62
   252
100
AcDbLine
 10
1176.401910468062
 20
601.3235525283021
 30
0.0
 11
1211.659521838679
 21
601.3235525283021
 31
0.0
  0
LINE
  5
2E2
330
2
100
AcDbEntity
  8
0
 62
   252
100
AcDbLine
 10
1211.659521838679
 20
601.3235525283021
 30
0.0
 11
1211.659521838679
 21
557.2303403402433
 31
0.0
  0
LINE
  5
2E3
330
2
100
AcDbEntity
  8
0
 62
   252
100
AcDbLine
 10
1211.659521838679
 20
557.2303403402433
 30
0.0
 11
1176.401910468062
 21
557.2303403402433
 31
0.0
  0
LINE
  5
2E6
330
2
100
AcDbEntity
  8
0
 62
     1
370
   100
100
AcDbLine
 10
527.8635948504152
 20
628.2835470220474
 30
0.0
 11
587.9718373885777
 21
628.2835470220474
 31
0.0
  0
LINE
  5
2E7
330
2
100
AcDbEntity
  8
TOPOVERLAY
  6
Continuous
 62
   250
370
   100
100
AcDbLine
 10
541.4356581651294
 20
585.0814711308552
 30
0.0
 11
587.6442963840311
 21
614.4695149158027
 31
0.0
  0
LINE
  5
2EA
330
2
100
AcDbEntity
  8
0
 62
   250
370
   100
100
AcDbLine
 10
950.2989489221251
 20
845.5916548606225
 30
0.0
 11
1012.039857522575
 21
845.5916548606225
 31
0.0
  0
LINE
  5
2EB
330
2
100
AcDbEntity
  8
TOPOVERLAY
  6
Continuous
 62
   250
370
   100
100
AcDbLine
 10
969.3382320053286
 20
803.5084767944718
 30
0.0
 11
1011.712316518024
 21
830.4615642773709
 31
0.0
  0
LINE
  5
2ED
330
2
100
AcDbEntity
  8
0
 62
    56
100
AcDbLine
 10
487.2596160318638
 20
616.2796927904357
 30
0.0
 11
511.5368865155466
 21
640.4371014782914
 31
0.0
  0
LINE
  5
2EE
330
2
100
AcDbEntity
  8
0
 62
    56
100
AcDbLine
 10
487.2596160318638
 20
640.4371014782914
 30
0.0
 11
511.5368865155466
 21
616.2796927904357
 31
0.0
  0
LINE
  5
2EF
330
2
100
AcDbEntity
  8
0
 62
    56
100
AcDbLine
 10
646.6388714719157
 20
640.4799224132188
 30
0.0
 11
670.9161419555982
 21
616.3225137253627
 31
0.0
  0
LINE
  5
2F0
330
2
100
AcDbEntity
  8
0
 62
    56
100
AcDbLine
 10
646.6388714719157
 20
616.3225137253627
 30
0.0
 11
670.9161419555982
 21
640.4799224132188
 31
0.0
  0
LINE
  5
34E
330
2
100
AcDbEntity
  8
TOPOVERLAY
  6
Continuous
 62
   250
370
   100
100
AcDbLine
 10
402.8918988683551
 20
615.0891707921307
 30
0.0
 11
402.8918988683551
 21
581.2038389636446
 31
0.0
  0
LINE
  5
34F
330
2
100
AcDbEntity
  8
0
 62
     1
370
   100
100
AcDbLine
 10
369.3976333107765
 20
628.4012180692907
 30
0.0
 11
389.5796502072763
 21
628.4012180692907
 31
0.0
  0
LINE
  5
350
330
2
100
AcDbEntity
  8
0
 62
     1
370
   100
100
AcDbLine
 10
355.6943183798837
 20
628.4012180692907
 30
0.0
 11
389.5796502072763
 21
628.4012180692907
 31
0.0
  0
LINE
  5
351
330
2
100
AcDbEntity
  8
0
 62
     1
370
   100
100
AcDbLine
 10
416.2037447646424
 20
628.4012180692907
 30
0.0
 11
439.2980590427089
 21
628.4012180692907
 31
0.0
  0
LINE
  5
352
330
2
100
AcDbEntity
  8
0
 62
     1
370
   100
100
AcDbLine
 10
416.2037447646424
 20
628.4012180692907
 30
0.0
 11
450.0890765920352
 21
628.4012180692907
 31
0.0
  0
LINE
  5
353
330
2
100
AcDbEntity
  8
TOPOVERLAY
  6
Continuous
 62
   250
370
   100
100
AcDbLine
 10
402.8918988683551
 20
641.7132653464506
 30
0.0
 11
402.8918988683551
 21
675.5985971749367
 31
0.0
  0
LINE
  5
3A7
330
2
100
AcDbEntity
  8
0
 62
    56
100
AcDbLine
 10
314.6906252757422
 20
628.4012180692907
 30
0.0
 11
294.9734384654401
 21
628.4005129031984
 31
0.0
  0
MTEXT
  5
41F
330
2
100
AcDbEntity
  8
0
100
AcDbMText
 10
178.1088203111944
 20
165.4714462935649
 30
0.0
 40
30.0
 41
3011.936264869754
 71
     1
 72
     5
  1
ORT400
 11
0.0000000000000001
 21
1.0
 31
0.0
 73
     1
 44
1.0
1001
ACAD
1000
MTEXTBEGIN
1070
    73
1070
     1
1070
    44
1040
1.0
1070
    74
1070
     0
1000
MTEXTEND
  0
LINE
  5
4D4
330
2
100
AcDbEntity
  8
0
 62
   250
370
    30
100
AcDbLine
 10
1234.582624533102
 20
768.3583395069299
 30
0.0
 11
1246.775122296003
 21
751.7393551633626
 31
0.0
  0
LINE
  5
4D5
330
2
100
AcDbEntity
  8
0
 62
   250
370
    30
100
AcDbLine
 10
1234.582624533102
 20
768.3583395069299
 30
0.0
 11
1222.017335939378
 21
784.697285766298
 31
0.0
  0
LINE
  5
4D6
330
2
100
AcDbEntity
  8
0
 62
   250
370
    30
100
AcDbLine
 10
1221.080002877503
 20
752.7850659032252
 30
0.0
 11
1248.085242103188
 21
783.9316166529283
 31
0.0
  0
LINE
  5
4D7
330
2
100
AcDbEntity
  8
0
 62
   250
370
    30
100
AcDbLine
 10
1124.182995841076
 20
563.0198756205922
 30
0.0
 11
1151.188235066761
 21
594.1664263702953
 31
0.0
  0
LINE
  5
4D8
330
2
100
AcDbEntity
  8
0
 62
   250
370
    30
100
AcDbLine
 10
1137.685617496675
 20
578.593149224297
 30
0.0
 11
1125.12032890295
 21
594.9320954836649
 31
0.0
  0
LINE
  5
4D9
330
2
100
AcDbEntity
  8
0
 62
   250
370
    30
100
AcDbLine
 10
1137.685617496675
 20
578.593149224297
 30
0.0
 11
1149.878115259576
 21
561.9741648807295
 31
0.0
  0
LINE
  5
4DA
330
2
100
AcDbEntity
  8
0
 62
   250
370
    30
100
AcDbLine
 10
1221.017561394918
 20
436.1770210673407
 30
0.0
 11
1248.022800620603
 21
467.3235718170438
 31
0.0
  0
LINE
  5
4DB
330
2
100
AcDbEntity
  8
0
 62
   250
370
    30
100
AcDbLine
 10
1234.520183050517
 20
451.7502946710455
 30
0.0
 11
1221.954894456793
 21
468.0892409304131
 31
0.0
  0
LINE
  5
4DC
330
2
100
AcDbEntity
  8
0
 62
   250
370
    30
100
AcDbLine
 10
1234.520183050517
 20
451.7502946710455
 30
0.0
 11
1246.712680813418
 21
435.131310327478
 31
0.0
  0
LINE
  5
4DD
330
2
100
AcDbEntity
  8
0
 62
   250
370
    30
100
AcDbLine
 10
1221.017561394918
 20
379.5115908095326
 30
0.0
 11
1248.022800620603
 21
410.6581415592358
 31
0.0
  0
LINE
  5
4DE
330
2
100
AcDbEntity
  8
0
 62
   250
370
    30
100
AcDbLine
 10
1234.520183050517
 20
395.0848644132374
 30
0.0
 11
1221.954894456793
 21
411.4238106726054
 31
0.0
  0
LINE
  5
4DF
330
2
100
AcDbEntity
  8
0
 62
   250
370
    30
100
AcDbLine
 10
1234.520183050517
 20
395.0848644132374
 30
0.0
 11
1246.712680813418
 21
378.4658800696699
 31
0.0
  0
LINE
  5
4E0
330
2
100
AcDbEntity
  8
0
 62
   250
370
    30
100
AcDbLine
 10
1221.080002877503
 20
320.103816059162
 30
0.0
 11
1248.085242103188
 21
351.2503668088652
 31
0.0
  0
LINE
  5
4E1
330
2
100
AcDbEntity
  8
0
 62
   250
370
    30
100
AcDbLine
 10
1234.582624533102
 20
335.6770896628668
 30
0.0
 11
1222.017335939378
 21
352.0160359222348
 31
0.0
  0
LINE
  5
4E2
330
2
100
AcDbEntity
  8
0
 62
   250
370
    30
100
AcDbLine
 10
1234.582624533102
 20
335.6770896628668
 30
0.0
 11
1246.775122296003
 21
319.0581053192993
 31
0.0
  0
LINE
  5
4E3
330
2
100
AcDbEntity
  8
0
 62
   250
370
    30
100
AcDbLine
 10
989.9526532609682
 20
435.4398263182958
 30
0.0
 11
1016.957892486653
 21
466.5863770679991
 31
0.0
  0
LINE
  5
4E4
330
2
100
AcDbEntity
  8
0
 62
   250
370
    30
100
AcDbLine
 10
1003.455274916567
 20
451.0130999220006
 30
0.0
 11
990.8899863228434
 21
467.3520461813687
 31
0.0
  0
LINE
  5
4E5
330
2
100
AcDbEntity
  8
0
 62
   250
370
    30
100
AcDbLine
 10
1003.455274916567
 20
451.0130999220006
 30
0.0
 11
1015.647772679468
 21
434.3941155784332
 31
0.0
  0
LINE
  5
4E6
330
2
100
AcDbEntity
  8
0
 62
   250
370
    30
100
AcDbLine
 10
989.9526532609682
 20
378.7743960606472
 30
0.0
 11
1016.957892486653
 21
409.92094681035
 31
0.0
  0
LINE
  5
4E7
330
2
100
AcDbEntity
  8
0
 62
   250
370
    30
100
AcDbLine
 10
1003.455274916567
 20
394.3476696643519
 30
0.0
 11
990.8899863228434
 21
410.6866159237197
 31
0.0
  0
LINE
  5
4E8
330
2
100
AcDbEntity
  8
0
 62
   250
370
    30
100
AcDbLine
 10
1003.455274916567
 20
394.3476696643519
 30
0.0
 11
1015.647772679468
 21
377.7286853207844
 31
0.0
  0
LINE
  5
4E9
330
2
100
AcDbEntity
  8
0
 62
   250
370
    30
100
AcDbLine
 10
990.0150947435792
 20
319.3666213102447
 30
0.0
 11
1017.020333969264
 21
350.5131720599478
 31
0.0
  0
LINE
  5
4EA
330
2
100
AcDbEntity
  8
0
 62
   250
370
    30
100
AcDbLine
 10
1003.517716399178
 20
334.9398949139493
 30
0.0
 11
990.9524278054542
 21
351.2788411733175
 31
0.0
  0
LINE
  5
4EB
330
2
100
AcDbEntity
  8
0
 62
   250
370
    30
100
AcDbLine
 10
1003.517716399178
 20
334.9398949139493
 30
0.0
 11
1015.710214162079
 21
318.3209105703819
 31
0.0
  0
LINE
  5
5FE
330
2
100
AcDbEntity
  8
TOPOVERLAY
  6
Continuous
 62
   250
370
   100
100
AcDbLine
 10
732.0778698662016
 20
615.0891707921307
 30
0.0
 11
732.0778698662013
 21
581.2038389636446
 31
0.0
  0
LINE
  5
5FF
330
2
100
AcDbEntity
  8
0
 62
     1
370
   100
100
AcDbLine
 10
684.8802893777299
 20
628.4012180692907
 30
0.0
 11
718.7656212051225
 21
628.4012180692907
 31
0.0
  0
LINE
  5
600
330
2
100
AcDbEntity
  8
0
 62
     1
370
   100
100
AcDbLine
 10
698.5836043086227
 20
628.4012180692907
 30
0.0
 11
718.7656212051225
 21
628.4012180692907
 31
0.0
  0
LINE
  5
601
330
2
100
AcDbEntity
  8
TOPOVERLAY
  6
Continuous
 62
   250
370
   100
100
AcDbLine
 10
732.0778698662016
 20
641.7132653464506
 30
0.0
 11
732.0778698662013
 21
675.5985971749367
 31
0.0
  0
LINE
  5
602
330
2
100
AcDbEntity
  8
0
 62
     1
370
   100
100
AcDbLine
 10
745.3897157624886
 20
628.4012180692907
 30
0.0
 11
779.2750475898814
 21
628.4012180692907
 31
0.0
  0
LINE
  5
603
330
2
100
AcDbEntity
  8
0
 62
     1
370
   100
100
AcDbLine
 10
745.3897157624886
 20
628.4012180692907
 30
0.0
 11
768.4840300405551
 21
628.4012180692907
 31
0.0
  0
ARC
  5
690
330
2
100
AcDbEntity
  8
0
 62
   252
100
AcDbCircle
 10
617.8764404623666
 20
856.3992904409591
 30
0.0
 40
19.88045606348704
100
AcDbArc
 50
162.0486963503322
 51
20.11213206675568
  0
ARC
  5
6A3
330
2
100
AcDbEntity
  8
0
 62
   252
100
AcDbCircle
 10
618.2472219321501
 20
789.2460880659657
 30
0.0
 40
19.88045606348704
100
AcDbArc
 50
340.9682821417888
 51
199.0317178582113
  0
ARC
  5
6A4
330
2
100
AcDbEntity
  8
0
 62
   252
100
AcDbCircle
 10
677.4113550180925
 20
856.3992904409273
 30
0.0
 40
19.88045606348704
100
AcDbArc
 50
162.0486963503322
 51
20.11213206675568
  0
ARC
  5
6A5
330
2
100
AcDbEntity
  8
0
 62
   252
100
AcDbCircle
 10
677.7821364878757
 20
789.2460880659341
 30
0.0
 40
19.88045606348704
100
AcDbArc
 50
340.9682821417888
 51
199.0317178582113
  0
LINE
  5
815
330
2
100
AcDbEntity
  8
6-家具-143
 62
   143
100
AcDbLine
 10
831.8745226213993
 20
952.7742199399309
 30
0.0
 11
829.4749881841759
 21
990.068423738427
 31
0.0
  0
LINE
  5
816
330
2
100
AcDbEntity
  8
6-家具-143
 62
   143
100
AcDbLine
 10
858.536016368359
 20
984.2079059986664
 30
0.0
 11
858.536016368359
 21
953.3069942799198
 31
0.0
  0
LINE
  5
817
330
2
100
AcDbEntity
  8
6-家具-143
 62
   143
100
AcDbLine
 10
843.6055798700596
 20
979.4129369388601
 30
0.0
 11
839.3397408705491
 21
987.4045520385296
 31
0.0
  0
LINE
  5
818
330
2
100
AcDbEntity
  8
6-家具-143
 62
   143
100
AcDbLine
 10
823.3656470517797
 20
988.9835967313299
 30
0.0
 11
822.4570514045241
 21
982.2397951796451
 31
0.0
  0
LINE
  5
819
330
2
100
AcDbEntity
  8
6-家具-143
 62
   143
100
AcDbLine
 10
825.8704238895029
 20
983.9923425613703
 30
0.0
 11
827.0105535540201
 21
978.7522265307172
 31
0.0
  0
LINE
  5
81A
330
2
100
AcDbEntity
  8
6-家具-143
 62
   143
100
AcDbLine
 10
859.6182619590598
 20
983.5366802978363
 30
0.0
 11
852.7774839719809
 21
986.4984850108191
 31
0.0
  0
LINE
  5
81B
330
2
100
AcDbEntity
  8
6-家具-143
 62
   143
100
AcDbLine
 10
863.0386509525875
 20
1006.547624606433
 30
0.0
 11
868.5112733422482
 21
976.7017463448025
 31
0.0
  0
LINE
  5
81C
330
2
100
AcDbEntity
  8
6-家具-143
 62
   143
100
AcDbLine
 10
851.8706429316248
 20
912.0169829316004
 30
0.0
 11
855.0700221812521
 21
913.0825316115549
 31
0.0
  0
LINE
  5
81D
330
2
100
AcDbEntity
  8
6-家具-143
 62
   143
100
AcDbLine
 10
855.0700221812521
 20
913.0825316115549
 30
0.0
 11
857.736171555955
 21
911.4842085916118
 31
0.0
  0
LINE
  5
81E
330
2
100
AcDbEntity
  8
6-家具-143
 62
   143
100
AcDbLine
 10
834.8072869335704
 20
910.4186599116573
 30
0.0
 11
835.3405168085062
 21
911.750595761606
 31
0.0
  0
LINE
  5
81F
330
2
100
AcDbEntity
  8
6-家具-143
 62
   143
100
AcDbLine
 10
835.3405168085062
 20
911.750595761606
 30
0.0
 11
839.0731259330809
 21
909.353111231703
 31
0.0
  0
LINE
  5
820
330
2
100
AcDbEntity
  8
6-家具-143
 62
   143
100
AcDbLine
 10
839.0731259330809
 20
909.353111231703
 30
0.0
 11
839.606355808017
 21
909.353111231703
 31
0.0
  0
LINE
  5
821
330
2
100
AcDbEntity
  8
6-家具-143
 62
   143
100
AcDbLine
 10
844.6720396199433
 20
951.7086712599764
 30
0.0
 11
843.6055798700596
 21
949.044799560079
 31
0.0
  0
LINE
  5
822
330
2
100
AcDbEntity
  8
6-家具-143
 62
   143
100
AcDbLine
 10
843.6055798700596
 20
949.044799560079
 30
0.0
 11
844.1388097450074
 21
948.7784123901079
 31
0.0
  0
LINE
  5
823
330
2
100
AcDbEntity
  8
6-家具-143
 62
   143
100
AcDbLine
 10
844.1388097450074
 20
948.7784123901079
 30
0.0
 11
842.005890245252
 21
909.8858855716917
 31
0.0
  0
LINE
  5
824
330
2
100
AcDbEntity
  8
6-家具-143
 62
   143
100
AcDbLine
 10
842.005890245252
 20
909.8858855716917
 30
0.0
 11
840.9394304953684
 21
909.6194984016973
 31
0.0
  0
LINE
  5
825
330
2
100
AcDbEntity
  8
6-家具-143
 62
   143
100
AcDbLine
 10
840.9394304953684
 20
909.6194984016973
 30
0.0
 11
843.0723499951238
 21
905.3573036818566
 31
0.0
  0
LINE
  5
826
330
2
100
AcDbEntity
  8
6-家具-143
 62
   143
100
AcDbLine
 10
843.0723499951238
 20
905.3573036818566
 30
0.0
 11
843.0723499951238
 21
903.7589806619367
 31
0.0
  0
LINE
  5
827
330
2
100
AcDbEntity
  8
6-家具-143
 62
   143
100
AcDbLine
 10
843.0723499951238
 20
903.7589806619367
 30
0.0
 11
835.3405168085062
 21
903.2262063219478
 31
0.0
  0
LINE
  5
828
330
2
100
AcDbEntity
  8
6-家具-143
 62
   143
100
AcDbLine
 10
835.3405168085062
 20
903.2262063219478
 30
0.0
 11
830.2748329965917
 21
903.4925934919423
 31
0.0
  0
LINE
  5
829
330
2
100
AcDbEntity
  8
6-家具-143
 62
   143
100
AcDbLine
 10
830.2748329965917
 20
903.4925934919423
 30
0.0
 11
827.0754537469526
 21
903.4925934919423
 31
0.0
  0
LINE
  5
82A
330
2
100
AcDbEntity
  8
6-家具-143
 62
   143
100
AcDbLine
 10
827.0754537469526
 20
903.4925934919423
 30
0.0
 11
827.0754537469526
 21
905.8900780218454
 31
0.0
  0
LINE
  5
82B
330
2
100
AcDbEntity
  8
6-家具-143
 62
   143
100
AcDbLine
 10
827.0754537469526
 20
905.8900780218454
 30
0.0
 11
833.2075973087508
 21
909.8858855716917
 31
0.0
  0
LINE
  5
82C
330
2
100
AcDbEntity
  8
6-家具-143
 62
   143
100
AcDbLine
 10
833.2075973087508
 20
909.8858855716917
 30
0.0
 11
831.8745226213993
 21
949.044799560079
 31
0.0
  0
LINE
  5
82D
330
2
100
AcDbEntity
  8
6-家具-143
 62
   143
100
AcDbLine
 10
831.8745226213993
 20
949.044799560079
 30
0.0
 11
832.407752496347
 21
951.4422840899822
 31
0.0
  0
LINE
  5
82E
330
2
100
AcDbEntity
  8
6-家具-143
 62
   143
100
AcDbLine
 10
832.407752496347
 20
951.4422840899822
 30
0.0
 11
831.8745226213993
 21
952.7742199399309
 31
0.0
  0
LINE
  5
82F
330
2
100
AcDbEntity
  8
6-家具-143
 62
   143
100
AcDbLine
 10
858.536016368359
 20
953.3069942799198
 30
0.0
 11
859.3358611807746
 21
950.3767354100277
 31
0.0
  0
LINE
  5
830
330
2
100
AcDbEntity
  8
6-家具-143
 62
   143
100
AcDbLine
 10
859.3358611807746
 20
950.3767354100277
 30
0.0
 11
858.802631305827
 21
910.951434251646
 31
0.0
  0
LINE
  5
831
330
2
100
AcDbEntity
  8
6-家具-143
 62
   143
100
AcDbLine
 10
858.802631305827
 20
910.951434251646
 30
0.0
 11
856.1364819311357
 21
910.1522727416629
 31
0.0
  0
LINE
  5
832
330
2
100
AcDbEntity
  8
6-家具-143
 62
   143
100
AcDbLine
 10
856.1364819311357
 20
910.1522727416629
 30
0.0
 11
857.736171555955
 21
906.9556267017999
 31
0.0
  0
LINE
  5
833
330
2
100
AcDbEntity
  8
6-家具-143
 62
   143
100
AcDbLine
 10
857.736171555955
 20
906.9556267017999
 30
0.0
 11
859.3358611807746
 21
905.3573036818566
 31
0.0
  0
LINE
  5
834
330
2
100
AcDbEntity
  8
6-家具-143
 62
   143
100
AcDbLine
 10
859.3358611807746
 20
905.3573036818566
 30
0.0
 11
859.3358611807746
 21
903.7589806619367
 31
0.0
  0
LINE
  5
835
330
2
100
AcDbEntity
  8
6-家具-143
 62
   143
100
AcDbLine
 10
859.3358611807746
 20
903.7589806619367
 30
0.0
 11
855.3366371187317
 21
903.4925934919423
 31
0.0
  0
LINE
  5
836
330
2
100
AcDbEntity
  8
6-家具-143
 62
   143
100
AcDbLine
 10
855.3366371187317
 20
903.4925934919423
 30
0.0
 11
847.6048039321142
 21
903.2262063219478
 31
0.0
  0
LINE
  5
837
330
2
100
AcDbEntity
  8
6-家具-143
 62
   143
100
AcDbLine
 10
847.6048039321142
 20
903.2262063219478
 30
0.0
 11
846.5383441822307
 21
905.3573036818566
 31
0.0
  0
LINE
  5
838
330
2
100
AcDbEntity
  8
6-家具-143
 62
   143
100
AcDbLine
 10
846.5383441822307
 20
905.3573036818566
 30
0.0
 11
847.6048039321142
 21
907.2220138717941
 31
0.0
  0
LINE
  5
839
330
2
100
AcDbEntity
  8
6-家具-143
 62
   143
100
AcDbLine
 10
847.6048039321142
 20
907.2220138717941
 30
0.0
 11
850.8041831817413
 21
910.1522727416629
 31
0.0
  0
LINE
  5
83A
330
2
100
AcDbEntity
  8
6-家具-143
 62
   143
100
AcDbLine
 10
850.8041831817413
 20
910.1522727416629
 30
0.0
 11
849.7377234318696
 21
911.4842085916118
 31
0.0
  0
LINE
  5
83B
330
2
100
AcDbEntity
  8
6-家具-143
 62
   143
100
AcDbLine
 10
849.7377234318696
 20
911.4842085916118
 30
0.0
 11
846.0051143072947
 21
949.5775739000677
 31
0.0
  0
LINE
  5
83C
330
2
100
AcDbEntity
  8
6-家具-143
 62
   143
100
AcDbLine
 10
846.0051143072947
 20
949.5775739000677
 30
0.0
 11
845.2052694948793
 21
952.2414455999653
 31
0.0
  0
LINE
  5
83D
330
2
100
AcDbEntity
  8
6-家具-143
 62
   143
100
AcDbLine
 10
845.2052694948793
 20
952.2414455999653
 30
0.0
 11
843.6055798700596
 21
979.4129369388601
 31
0.0
  0
LINE
  5
83E
330
2
100
AcDbEntity
  8
6-家具-143
 62
   143
100
AcDbLine
 10
822.4570514045241
 20
982.2397951796451
 30
0.0
 11
823.2358476735937
 21
981.9804181968827
 31
0.0
  0
LINE
  5
83F
330
2
100
AcDbEntity
  8
6-家具-143
 62
   143
100
AcDbLine
 10
823.2358476735937
 20
981.9804181968827
 30
0.0
 11
823.7550451863144
 21
980.5538447917241
 31
0.0
  0
LINE
  5
840
330
2
100
AcDbEntity
  8
6-家具-143
 62
   143
100
AcDbLine
 10
823.7550451863144
 20
980.5538447917241
 30
0.0
 11
824.6636408335698
 21
980.4241563003543
 31
0.0
  0
LINE
  5
841
330
2
100
AcDbEntity
  8
6-家具-143
 62
   143
100
AcDbLine
 10
824.6636408335698
 20
980.4241563003543
 30
0.0
 11
824.9232395899303
 21
979.3866483693044
 31
0.0
  0
LINE
  5
842
330
2
100
AcDbEntity
  8
6-家具-143
 62
   143
100
AcDbLine
 10
824.9232395899303
 20
979.3866483693044
 30
0.0
 11
826.610631506255
 21
978.8678944038027
 31
0.0
  0
LINE
  5
843
330
2
100
AcDbEntity
  8
6-家具-143
 62
   143
100
AcDbLine
 10
827.0105535540201
 20
978.7522265307172
 30
0.0
 11
827.6946313527233
 21
975.7904218177111
 31
0.0
  0
LINE
  5
844
330
2
100
AcDbEntity
  8
6-家具-143
 62
   143
100
AcDbLine
 10
827.6946313527233
 20
975.7904218177111
 30
0.0
 11
830.2029166146466
 21
976.7017463448025
 31
0.0
  0
LINE
  5
845
330
2
100
AcDbEntity
  8
6-家具-143
 62
   143
100
AcDbLine
 10
867.5991696106322
 20
977.3852397400919
 30
0.0
 11
864.1787806171047
 21
979.6635510577853
 31
0.0
  0
LINE
  5
846
330
2
100
AcDbEntity
  8
6-家具-143
 62
   143
100
AcDbLine
 10
864.1787806171047
 20
979.6635510577853
 30
0.0
 11
859.6182619590598
 21
983.5366802978363
 31
0.0
  0
LINE
  5
847
330
2
100
AcDbEntity
  8
6-家具-143
 62
   143
100
AcDbLine
 10
868.5112733422482
 20
976.7017463448025
 30
0.0
 11
866.0029880803246
 21
976.4739152130239
 31
0.0
  0
LINE
  5
848
330
2
100
AcDbEntity
  8
6-家具-143
 62
   143
100
AcDbLine
 10
866.0029880803246
 20
976.4739152130239
 30
0.0
 11
861.898521288082
 21
978.5243953989386
 31
0.0
  0
LINE
  5
849
330
2
100
AcDbEntity
  8
6-家具-143
 62
   143
100
AcDbLine
 10
861.898521288082
 20
978.5243953989386
 30
0.0
 11
858.7061582274438
 21
979.2078887942514
 31
0.0
  0
LINE
  5
84A
330
2
100
AcDbEntity
  8
6-家具-143
 62
   143
100
AcDbLine
 10
841.2083841066394
 20
1072.877445635529
 30
-0.000000000000001
 11
841.6761296101316
 21
1073.344791546933
 31
0.0000000000000018
  0
LINE
  5
84B
330
2
100
AcDbEntity
  8
6-家具-143
 62
   143
100
AcDbLine
 10
841.6761296101316
 20
1073.344791546933
 30
0.0000000000000018
 11
842.5180715164106
 21
1073.064384000076
 31
0.000000000000002
  0
LINE
  5
84C
330
2
100
AcDbEntity
  8
6-家具-143
 62
   143
100
AcDbLine
 10
835.7825362661555
 20
1073.438260729218
 30
-0.0000000000000009
 11
836.3438308703416
 21
1073.625199093789
 31
-0.0000000000000013
  0
LINE
  5
84D
330
2
100
AcDbEntity
  8
6-家具-143
 62
   143
100
AcDbLine
 10
836.3438308703416
 20
1073.625199093789
 30
-0.0000000000000013
 11
836.9051254745278
 21
1072.970914817791
 31
0.0000000000000007
  0
LINE
  5
84E
330
2
100
AcDbEntity
  8
6-家具-143
 62
   143
100
AcDbLine
 10
833.9115547541931
 20
1074.559890827819
 30
0.0
 11
836.0631840702549
 21
1075.027236739247
 31
0.0
  0
LINE
  5
84F
330
2
100
AcDbEntity
  8
6-家具-143
 62
   143
100
AcDbLine
 10
836.0631840702549
 20
1075.027236739247
 30
0.0
 11
838.2148133863049
 21
1074.186014098677
 31
0.0
  0
LINE
  5
850
330
2
100
AcDbEntity
  8
6-家具-143
 62
   143
100
AcDbLine
 10
834.5663979570783
 20
1073.718668276075
 30
0.0
 11
836.7180272731399
 21
1073.81213745836
 31
0.0
  0
LINE
  5
851
330
2
100
AcDbEntity
  8
6-家具-143
 62
   143
100
AcDbLine
 10
836.7180272731399
 20
1073.81213745836
 30
0.0
 11
838.2148128842986
 21
1073.251322364647
 31
0.0
  0
LINE
  5
852
330
2
100
AcDbEntity
  8
6-家具-143
 62
   143
100
AcDbLine
 10
838.2148128842986
 20
1073.251322364647
 30
0.0
 11
837.8406164815119
 21
1072.690507270958
 31
0.0
  0
LINE
  5
853
330
2
100
AcDbEntity
  8
6-家具-143
 62
   143
100
AcDbLine
 10
837.8406164815119
 20
1072.690507270958
 30
0.0
 11
836.8115763738337
 21
1072.783976453243
 31
0.0
  0
LINE
  5
854
330
2
100
AcDbEntity
  8
6-家具-143
 62
   143
100
AcDbLine
 10
836.8115763738337
 20
1072.783976453243
 30
0.0
 11
835.0341434605704
 21
1073.251322364647
 31
0.0
  0
LINE
  5
855
330
2
100
AcDbEntity
  8
6-家具-143
 62
   143
100
AcDbLine
 10
840.2728933421249
 20
1074.092545146568
 30
0.0
 11
841.4890314113749
 21
1075.027236676662
 31
0.0
  0
LINE
  5
856
330
2
100
AcDbEntity
  8
6-家具-143
 62
   143
100
AcDbLine
 10
841.4890314113749
 20
1075.027236676662
 30
0.0
 11
844.3890534779225
 21
1074.746829391321
 31
0.0
  0
LINE
  5
857
330
2
100
AcDbEntity
  8
6-家具-143
 62
   143
100
AcDbLine
 10
844.3890534779225
 20
1074.746829391321
 30
0.0
 11
844.8567994059699
 21
1073.999075906727
 31
0.0
  0
LINE
  5
858
330
2
100
AcDbEntity
  8
6-家具-143
 62
   143
100
AcDbLine
 10
844.0148571275809
 20
1073.81213745836
 30
0.0
 11
842.7987188185037
 21
1073.905606640646
 31
0.0
  0
LINE
  5
859
330
2
100
AcDbEntity
  8
6-家具-143
 62
   143
100
AcDbLine
 10
842.7987188185037
 20
1073.905606640646
 30
0.0
 11
841.2083841066394
 21
1073.718668276075
 31
0.0
  0
LINE
  5
85A
330
2
100
AcDbEntity
  8
6-家具-143
 62
   143
100
AcDbLine
 10
841.2083841066394
 20
1073.718668276075
 30
0.0
 11
840.4599913010542
 21
1073.251322364647
 31
0.0
  0
LINE
  5
85B
330
2
100
AcDbEntity
  8
6-家具-143
 62
   143
100
AcDbLine
 10
840.4599913010542
 20
1073.251322364647
 30
0.0
 11
840.9277368045463
 21
1072.690507270958
 31
0.0
  0
LINE
  5
85C
330
2
100
AcDbEntity
  8
6-家具-143
 62
   143
100
AcDbLine
 10
840.9277368045463
 20
1072.690507270958
 30
0.0
 11
842.1438751136237
 21
1072.597038088672
 31
0.0
  0
LINE
  5
85D
330
2
100
AcDbEntity
  8
6-家具-143
 62
   143
100
AcDbLine
 10
842.1438751136237
 20
1072.597038088672
 30
0.0
 11
844.0148571275809
 21
1073.251322364647
 31
0.0
  0
LINE
  5
85E
330
2
100
AcDbEntity
  8
6-家具-143
 62
   143
100
AcDbLine
 10
836.6244781724347
 20
1065.960726146496
 30
0.0
 11
838.2148128842986
 21
1066.428072057924
 31
0.0
  0
LINE
  5
85F
330
2
100
AcDbEntity
  8
6-家具-143
 62
   143
100
AcDbLine
 10
838.2148128842986
 20
1066.428072057924
 30
0.0
 11
839.0567547905893
 21
1066.334602875638
 31
0.0
  0
LINE
  5
860
330
2
100
AcDbEntity
  8
6-家具-143
 62
   143
100
AcDbLine
 10
839.0567547905893
 20
1066.334602875638
 30
0.0
 11
841.0212859052403
 21
1066.054195328782
 31
0.0
  0
LINE
  5
861
330
2
100
AcDbEntity
  8
6-家具-143
 62
   143
100
AcDbLine
 10
837.279321877326
 20
1068.577863250443
 30
0.0
 11
837.5599691794191
 21
1068.110517339039
 31
0.0
  0
LINE
  5
862
330
2
100
AcDbEntity
  8
6-家具-143
 62
   143
100
AcDbLine
 10
837.5599691794191
 20
1068.110517339039
 30
0.0
 11
839.6180493947754
 21
1068.203986521324
 31
0.0
  0
LINE
  5
863
330
2
100
AcDbEntity
  8
6-家具-143
 62
   143
100
AcDbLine
 10
839.6180493947754
 20
1068.203986521324
 30
0.0
 11
840.6470895024536
 21
1068.671332432752
 31
0.0
  0
LINE
  5
864
330
2
100
AcDbEntity
  8
6-家具-143
 62
   143
100
AcDbLine
 10
850.0019995722507
 20
1074.466421734359
 30
0.0
 11
850.4697450757428
 21
1075.120706010334
 31
0.0
  0
LINE
  5
865
330
2
100
AcDbEntity
  8
6-家具-143
 62
   143
100
AcDbLine
 10
850.4697450757428
 20
1075.120706010334
 30
0.0
 11
851.3116869820219
 21
1075.40111355719
 31
0.0
  0
LINE
  5
866
330
2
100
AcDbEntity
  8
6-家具-143
 62
   143
100
AcDbLine
 10
851.3116869820219
 20
1075.40111355719
 30
0.0
 11
851.9665306869132
 21
1074.746829281192
 31
0.0
  0
LINE
  5
867
330
2
100
AcDbEntity
  8
6-家具-143
 62
   143
100
AcDbLine
 10
851.9665306869132
 20
1074.746829281192
 30
0.0
 11
852.3407270897001
 21
1073.81213745836
 31
0.0
  0
LINE
  5
868
330
2
100
AcDbEntity
  8
6-家具-143
 62
   143
100
AcDbLine
 10
852.3407270897001
 20
1073.81213745836
 30
0.0
 11
852.060079787607
 21
1072.03622299496
 31
0.0
  0
LINE
  5
869
330
2
100
AcDbEntity
  8
6-家具-143
 62
   143
100
AcDbLine
 10
852.060079787607
 20
1072.03622299496
 30
0.0
 11
851.4987851834209
 21
1070.727654442986
 31
0.0
  0
LINE
  5
86A
330
2
100
AcDbEntity
  8
6-家具-143
 62
   143
100
AcDbLine
 10
851.4987851834209
 20
1070.727654442986
 30
0.0
 11
850.4697450757428
 21
1069.606024255583
 31
0.0
  0
LINE
  5
86B
330
2
100
AcDbEntity
  8
6-家具-143
 62
   143
100
AcDbLine
 10
850.4697450757428
 20
1069.606024255583
 30
0.0
 11
849.8149013708514
 21
1068.764801615014
 31
0.0
  0
LINE
  5
86C
330
2
100
AcDbEntity
  8
6-家具-143
 62
   143
100
AcDbLine
 10
849.8149013708514
 20
1068.764801615014
 30
0.0
 11
849.2536067666655
 21
1068.484394068181
 31
0.0
  0
LINE
  5
86D
330
2
100
AcDbEntity
  8
6-家具-143
 62
   143
100
AcDbLine
 10
849.2536067666655
 20
1068.484394068181
 30
0.0
 11
849.0665085652663
 21
1069.04520916187
 31
0.0
  0
LINE
  5
86E
330
2
100
AcDbEntity
  8
6-家具-143
 62
   143
100
AcDbLine
 10
837.9341655822058
 20
1065.306441870521
 30
0.0
 11
839.6180493947754
 21
1065.212972688236
 31
0.0
  0
LINE
  5
86F
330
2
100
AcDbEntity
  8
6-家具-143
 62
   143
100
AcDbLine
 10
836.3438308703416
 20
1061.100328667744
 30
0.0
 11
836.2502817696478
 21
1060.819921120888
 31
0.0
  0
LINE
  5
870
330
2
100
AcDbEntity
  8
6-家具-143
 62
   143
100
AcDbLine
 10
836.2502817696478
 20
1060.819921120888
 30
0.0
 11
838.4019110856979
 21
1060.539513574032
 31
0.0
  0
LINE
  5
871
330
2
100
AcDbEntity
  8
6-家具-143
 62
   143
100
AcDbLine
 10
849.2536067666655
 20
1061.661143761434
 30
0.0
 11
849.627803169464
 21
1061.100328667744
 31
0.0
  0
LINE
  5
872
330
2
100
AcDbEntity
  8
6-家具-143
 62
   143
100
AcDbLine
 10
849.627803169464
 20
1061.100328667744
 30
0.0
 11
846.5406828464294
 21
1060.632982756317
 31
0.0
  0
LINE
  5
873
330
2
100
AcDbEntity
  8
6-家具-143
 62
   143
100
AcDbLine
 10
846.5406828464294
 20
1060.632982756317
 30
0.0
 11
842.9858170199027
 21
1060.632982756317
 31
0.0
  0
LINE
  5
874
330
2
100
AcDbEntity
  8
6-家具-143
 62
   143
100
AcDbLine
 10
838.3083619850042
 20
1058.950537475202
 30
0.0
 11
839.7115984954691
 21
1055.866054459827
 31
0.0
  0
LINE
  5
875
330
2
100
AcDbEntity
  8
6-家具-143
 62
   143
100
AcDbLine
 10
839.7115984954691
 20
1055.866054459827
 30
0.0
 11
840.3664422003606
 21
1055.305239366138
 31
0.0
  0
LINE
  5
876
330
2
100
AcDbEntity
  8
6-家具-143
 62
   143
100
AcDbLine
 10
840.3664422003606
 20
1055.305239366138
 30
0.0
 11
842.0503260129185
 21
1055.959523642113
 31
0.0
  0
LINE
  5
877
330
2
100
AcDbEntity
  8
6-家具-143
 62
   143
100
AcDbLine
 10
842.0503260129185
 20
1055.959523642113
 30
0.0
 11
843.1729152213019
 21
1058.670129928345
 31
0.0
  0
LINE
  5
878
330
2
100
AcDbEntity
  8
6-家具-143
 62
   143
100
AcDbLine
 10
836.998674575233
 20
1061.474205396863
 30
0.0
 11
836.1567326689423
 21
1061.474205396863
 31
0.0
  0
LINE
  5
879
330
2
100
AcDbEntity
  8
6-家具-143
 62
   143
100
AcDbLine
 10
836.1567326689423
 20
1061.474205396863
 30
0.0
 11
835.5018889640628
 21
1061.006859485459
 31
0.0
  0
LINE
  5
87A
330
2
100
AcDbEntity
  8
6-家具-143
 62
   143
100
AcDbLine
 10
835.5018889640628
 20
1061.006859485459
 30
0.0
 11
834.098652453586
 21
1055.118301001567
 31
0.0
  0
LINE
  5
87B
330
2
100
AcDbEntity
  8
6-家具-143
 62
   143
100
AcDbLine
 10
834.098652453586
 20
1055.118301001567
 30
0.0
 11
837.7470673808181
 21
1058.950537475202
 31
0.0
  0
LINE
  5
87C
330
2
100
AcDbEntity
  8
6-家具-143
 62
   143
100
AcDbLine
 10
837.7470673808181
 20
1058.950537475202
 30
0.0
 11
839.3374020926824
 21
1060.446044391746
 31
0.0
  0
LINE
  5
87D
330
2
100
AcDbEntity
  8
6-家具-143
 62
   143
100
AcDbLine
 10
839.3374020926824
 20
1060.446044391746
 30
0.0
 11
842.5180715164106
 21
1060.352575209461
 31
0.0
  0
LINE
  5
87E
330
2
100
AcDbEntity
  8
6-家具-143
 62
   143
100
AcDbLine
 10
842.5180715164106
 20
1060.352575209461
 30
0.0
 11
846.4471337457238
 21
1054.464016725568
 31
0.0
  0
LINE
  5
87F
330
2
100
AcDbEntity
  8
6-家具-143
 62
   143
100
AcDbLine
 10
846.4471337457238
 20
1054.464016725568
 30
0.0
 11
849.627803169464
 21
1056.520338735826
 31
0.0
  0
LINE
  5
880
330
2
100
AcDbEntity
  8
6-家具-143
 62
   143
100
AcDbLine
 10
849.627803169464
 20
1056.520338735826
 30
0.0
 11
851.4987851834209
 21
1057.735438105514
 31
0.0
  0
LINE
  5
881
330
2
100
AcDbEntity
  8
6-家具-143
 62
   143
100
AcDbLine
 10
851.4987851834209
 20
1057.735438105514
 30
0.0
 11
850.9374905792352
 21
1059.6048217512
 31
0.0
  0
LINE
  5
882
330
2
100
AcDbEntity
  8
6-家具-143
 62
   143
100
AcDbLine
 10
850.9374905792352
 20
1059.6048217512
 30
0.0
 11
850.6568432771421
 21
1061.754612943719
 31
0.0
  0
LINE
  5
883
330
2
100
AcDbEntity
  8
6-家具-143
 62
   143
100
AcDbLine
 10
850.6568432771421
 20
1061.754612943719
 30
0.0
 11
849.7213522701576
 21
1061.661143761434
 31
0.0
  0
LINE
  5
884
330
2
100
AcDbEntity
  8
6-家具-143
 62
   143
100
AcDbLine
 10
850.8439414785296
 20
1069.792962620154
 30
0.0
 11
849.908450471557
 21
1067.456233063041
 31
0.0
  0
LINE
  5
885
330
2
100
AcDbEntity
  8
6-家具-143
 62
   143
100
AcDbLine
 10
849.908450471557
 20
1067.456233063041
 30
0.0
 11
849.5342540687584
 21
1063.717465771691
 31
0.0
  0
LINE
  5
886
330
2
100
AcDbEntity
  8
6-家具-143
 62
   143
100
AcDbLine
 10
849.5342540687584
 20
1063.717465771691
 30
0.0
 11
849.3471558673709
 21
1061.661143761434
 31
0.0
  0
LINE
  5
887
330
2
100
AcDbEntity
  8
6-家具-143
 62
   143
100
AcDbLine
 10
834.1922015542916
 20
1081.663548770224
 30
0.0
 11
834.7534961584774
 21
1082.317833046199
 31
0.0
  0
LINE
  5
888
330
2
100
AcDbEntity
  8
6-家具-143
 62
   143
100
AcDbLine
 10
834.7534961584774
 20
1082.317833046199
 30
0.0
 11
838.6825583877909
 21
1082.50477141077
 31
0.0
  0
LINE
  5
889
330
2
100
AcDbEntity
  8
6-家具-143
 62
   143
100
AcDbLine
 10
838.6825583877909
 20
1082.50477141077
 30
0.0
 11
843.0793661205965
 21
1082.411302228485
 31
0.0
  0
LINE
  5
88A
330
2
100
AcDbEntity
  8
6-家具-143
 62
   143
100
AcDbLine
 10
843.0793661205965
 20
1082.411302228485
 30
0.0
 11
845.1374463359529
 21
1082.037425499343
 31
0.0
  0
LINE
  5
88B
330
2
100
AcDbEntity
  8
6-家具-143
 62
   143
100
AcDbLine
 10
845.1374463359529
 20
1082.037425499343
 30
0.0
 11
847.1955265513093
 21
1081.196202858797
 31
0.0
  0
LINE
  5
88C
330
2
100
AcDbEntity
  8
6-家具-143
 62
   143
100
AcDbLine
 10
847.1955265513093
 20
1081.196202858797
 30
0.0
 11
848.2245666589873
 21
1079.139880848539
 31
0.0
  0
LINE
  5
88D
330
2
100
AcDbEntity
  8
6-家具-143
 62
   143
100
AcDbLine
 10
848.2245666589873
 20
1079.139880848539
 30
0.0
 11
848.5987630617858
 21
1077.177028020568
 31
0.0
  0
LINE
  5
88E
330
2
100
AcDbEntity
  8
6-家具-143
 62
   143
100
AcDbLine
 10
848.5987630617858
 20
1077.177028020568
 30
0.0
 11
849.627803169464
 21
1076.242336197736
 31
0.0
  0
LINE
  5
88F
330
2
100
AcDbEntity
  8
6-家具-143
 62
   143
100
AcDbLine
 10
849.627803169464
 20
1076.242336197736
 30
0.0
 11
849.627803169464
 21
1075.40111355719
 31
0.0
  0
LINE
  5
890
330
2
100
AcDbEntity
  8
6-家具-143
 62
   143
100
AcDbLine
 10
849.627803169464
 20
1075.40111355719
 30
0.0
 11
850.0019995722507
 21
1075.214175192619
 31
0.0
  0
LINE
  5
891
330
2
100
AcDbEntity
  8
6-家具-143
 62
   143
100
AcDbLine
 10
837.9341655822058
 20
1060.913390303173
 30
0.0
 11
837.279321877326
 21
1061.94155130829
 31
0.0
  0
LINE
  5
892
330
2
100
AcDbEntity
  8
6-家具-143
 62
   143
100
AcDbLine
 10
837.279321877326
 20
1061.94155130829
 30
0.0
 11
836.3438308703416
 21
1062.128489672861
 31
0.0
  0
LINE
  5
893
330
2
100
AcDbEntity
  8
6-家具-143
 62
   143
100
AcDbLine
 10
836.3438308703416
 20
1062.128489672861
 30
0.0
 11
835.3147907626635
 21
1063.343589042549
 31
0.0
  0
LINE
  5
894
330
2
100
AcDbEntity
  8
6-家具-143
 62
   143
100
AcDbLine
 10
835.3147907626635
 20
1063.343589042549
 30
0.0
 11
834.098652453586
 21
1065.773787781925
 31
0.0
  0
LINE
  5
895
330
2
100
AcDbEntity
  8
6-家具-143
 62
   143
100
AcDbLine
 10
834.098652453586
 20
1065.773787781925
 30
0.0
 11
833.0696123459079
 21
1070.166839349273
 31
0.0
  0
LINE
  5
896
330
2
100
AcDbEntity
  8
6-家具-143
 62
   143
100
AcDbLine
 10
833.0696123459079
 20
1070.166839349273
 30
0.0
 11
833.8180051514932
 21
1073.064384000076
 31
0.0
  0
LINE
  5
897
330
2
100
AcDbEntity
  8
6-家具-143
 62
   143
100
AcDbLine
 10
833.8180051514932
 20
1073.064384000076
 30
0.0
 11
833.2567105473071
 21
1074.279483369788
 31
0.0
  0
LINE
  5
898
330
2
100
AcDbEntity
  8
6-家具-143
 62
   143
100
AcDbLine
 10
833.2567105473071
 20
1074.279483369788
 30
0.0
 11
833.2567105473071
 21
1077.083558838305
 31
0.0
  0
LINE
  5
899
330
2
100
AcDbEntity
  8
6-家具-143
 62
   143
100
AcDbLine
 10
833.2567105473071
 20
1077.083558838305
 30
0.0
 11
834.0051033528922
 21
1081.383141223368
 31
0.0
  0
LINE
  5
89A
330
2
100
AcDbEntity
  8
6-家具-143
 62
   143
100
AcDbLine
 10
834.0051033528922
 20
1081.383141223368
 30
0.0
 11
833.8180051514932
 21
1083.532932415887
 31
0.0
  0
LINE
  5
89B
330
2
100
AcDbEntity
  8
6-家具-143
 62
   143
100
AcDbLine
 10
833.8180051514932
 20
1083.532932415887
 30
0.0
 11
835.1276925612642
 21
1084.841500967861
 31
0.0
  0
LINE
  5
89C
330
2
100
AcDbEntity
  8
6-家具-143
 62
   143
100
AcDbLine
 10
835.1276925612642
 20
1084.841500967861
 30
0.0
 11
840.0857948982675
 21
1085.68272360843
 31
0.0
  0
LINE
  5
89D
330
2
100
AcDbEntity
  8
6-家具-143
 62
   143
100
AcDbLine
 10
840.0857948982675
 20
1085.68272360843
 30
0.0
 11
847.2890756520145
 21
1085.308846879288
 31
0.0
  0
LINE
  5
89E
330
2
100
AcDbEntity
  8
6-家具-143
 62
   143
100
AcDbLine
 10
847.2890756520145
 20
1085.308846879288
 30
0.0
 11
850.0955486729445
 21
1084.561093421004
 31
0.0
  0
LINE
  5
89F
330
2
100
AcDbEntity
  8
6-家具-143
 62
   143
100
AcDbLine
 10
850.0955486729445
 20
1084.561093421004
 30
0.0
 11
851.5923342841146
 21
1081.943956317057
 31
0.0
  0
LINE
  5
8A0
330
2
100
AcDbEntity
  8
6-家具-143
 62
   143
100
AcDbLine
 10
851.5923342841146
 20
1081.943956317057
 30
0.0
 11
852.3407270897001
 21
1079.139880848539
 31
0.0
  0
LINE
  5
8A1
330
2
100
AcDbEntity
  8
6-家具-143
 62
   143
100
AcDbLine
 10
852.3407270897001
 20
1079.139880848539
 30
0.0
 11
851.9665306869132
 21
1076.803151291449
 31
0.0
  0
LINE
  5
8A2
330
2
100
AcDbEntity
  8
6-家具-143
 62
   143
100
AcDbLine
 10
851.9665306869132
 20
1076.803151291449
 30
0.0
 11
851.3116869820219
 21
1075.494582739476
 31
0.0
  0
LINE
  5
8A3
330
2
100
AcDbEntity
  8
6-家具-143
 62
   143
100
AcDbLine
 10
849.3570949784531
 20
1026.141101938489
 30
0.0
 11
853.0055099048819
 21
1026.596764202023
 31
0.0
  0
LINE
  5
8A4
330
2
100
AcDbEntity
  8
6-家具-143
 62
   143
100
AcDbLine
 10
853.0055099048819
 20
1026.596764202023
 30
0.0
 11
857.7940544958396
 21
1028.875075519717
 31
0.0
  0
LINE
  5
8A5
330
2
100
AcDbEntity
  8
6-家具-143
 62
   143
100
AcDbLine
 10
857.7940544958396
 20
1028.875075519717
 30
0.0
 11
860.530365690664
 21
1028.875075519717
 31
0.0
  0
LINE
  5
8A6
330
2
100
AcDbEntity
  8
6-家具-143
 62
   143
100
AcDbLine
 10
860.530365690664
 20
1028.875075519717
 30
0.0
 11
858.9341841603451
 21
1029.330737783251
 31
0.0
  0
LINE
  5
8A7
330
2
100
AcDbEntity
  8
6-家具-143
 62
   143
100
AcDbLine
 10
858.9341841603451
 20
1029.330737783251
 30
0.0
 11
860.758391623565
 21
1037.304827395131
 31
0.0
  0
LINE
  5
8A8
330
2
100
AcDbEntity
  8
6-家具-143
 62
   143
100
AcDbLine
 10
860.758391623565
 20
1037.304827395131
 30
0.0
 11
858.2501063616417
 21
1035.71000947275
 31
0.0
  0
LINE
  5
8A9
330
2
100
AcDbEntity
  8
6-家具-143
 62
   143
100
AcDbLine
 10
834.3073834068894
 20
1007.458949133501
 30
0.0
 11
837.9557983333297
 21
1006.547624606433
 31
0.0
  0
LINE
  5
8AA
330
2
100
AcDbEntity
  8
6-家具-143
 62
   143
100
AcDbLine
 10
837.9557983333297
 20
1006.547624606433
 30
0.0
 11
842.5163169913744
 21
1007.231118001746
 31
0.0
  0
LINE
  5
8AB
330
2
100
AcDbEntity
  8
6-家具-143
 62
   143
100
AcDbLine
 10
849.8447202002914
 20
1024.907308843246
 30
0.0
 11
848.9361245530476
 21
1025.036997334616
 31
0.0
  0
LINE
  5
8AC
330
2
100
AcDbEntity
  8
6-家具-143
 62
   143
100
AcDbLine
 10
848.9361245530476
 20
1025.036997334616
 30
0.0
 11
848.0275289057923
 21
1027.241701688062
 31
0.0
  0
LINE
  5
8AD
330
2
100
AcDbEntity
  8
6-家具-143
 62
   143
100
AcDbLine
 10
848.0275289057923
 20
1027.241701688062
 30
0.0
 11
846.7295351240021
 21
1028.668275093244
 31
0.0
  0
LINE
  5
8AE
330
2
100
AcDbEntity
  8
6-家具-143
 62
   143
100
AcDbLine
 10
846.7295351240021
 20
1028.668275093244
 30
0.0
 11
845.5613407203864
 21
1028.668275093244
 31
0.0
  0
LINE
  5
8AF
330
2
100
AcDbEntity
  8
6-家具-143
 62
   143
100
AcDbLine
 10
845.5613407203864
 20
1028.668275093244
 30
0.0
 11
843.7441494258871
 21
1029.057340567376
 31
0.0
  0
LINE
  5
8B0
330
2
100
AcDbEntity
  8
6-家具-143
 62
   143
100
AcDbLine
 10
843.7441494258871
 20
1029.057340567376
 30
0.0
 11
843.2249519131664
 21
1028.149521127719
 31
0.0
  0
LINE
  5
8B1
330
2
100
AcDbEntity
  8
6-家具-143
 62
   143
100
AcDbLine
 10
843.2249519131664
 20
1028.149521127719
 30
0.0
 11
843.6143500477012
 21
1027.112013196692
 31
0.0
  0
LINE
  5
8B2
330
2
100
AcDbEntity
  8
6-家具-143
 62
   143
100
AcDbLine
 10
843.6143500477012
 20
1027.112013196692
 30
0.0
 11
845.0421432076772
 21
1026.463570739798
 31
0.0
  0
LINE
  5
8B3
330
2
100
AcDbEntity
  8
6-家具-143
 62
   143
100
AcDbLine
 10
845.0421432076772
 20
1026.463570739798
 30
0.0
 11
845.950738854921
 21
1025.296374317378
 31
0.0
  0
LINE
  5
8B4
330
2
100
AcDbEntity
  8
6-家具-143
 62
   143
100
AcDbLine
 10
845.950738854921
 20
1025.296374317378
 30
0.0
 11
844.3931463167823
 21
1023.610423929457
 31
0.0
  0
LINE
  5
8B5
330
2
100
AcDbEntity
  8
6-家具-143
 62
   143
100
AcDbLine
 10
844.3931463167823
 20
1023.610423929457
 30
0.0
 11
841.1481618623069
 21
1021.665096558773
 31
0.0
  0
LINE
  5
8B6
330
2
100
AcDbEntity
  8
6-家具-143
 62
   143
100
AcDbLine
 10
841.1481618623069
 20
1021.665096558773
 30
0.0
 11
840.8885631059465
 21
1020.238523153615
 31
0.0
  0
LINE
  5
8B7
330
2
100
AcDbEntity
  8
6-家具-143
 62
   143
100
AcDbLine
 10
840.8885631059465
 20
1020.238523153615
 30
0.0
 11
842.1865568877366
 21
1019.979146170852
 31
0.0
  0
LINE
  5
8B8
330
2
100
AcDbEntity
  8
6-家具-143
 62
   143
100
AcDbLine
 10
842.1865568877366
 20
1019.979146170852
 30
0.0
 11
840.2395662150516
 21
1018.033818800168
 31
0.0
  0
LINE
  5
8B9
330
2
100
AcDbEntity
  8
6-家具-143
 62
   143
100
AcDbLine
 10
840.2395662150516
 20
1018.033818800168
 30
0.0
 11
840.3693655932258
 21
1017.255687851904
 31
0.0
  0
LINE
  5
8BA
330
2
100
AcDbEntity
  8
6-家具-143
 62
   143
100
AcDbLine
 10
840.3693655932258
 20
1017.255687851904
 30
0.0
 11
841.0183624841208
 21
1016.736933886379
 31
0.0
  0
LINE
  5
8BB
330
2
100
AcDbEntity
  8
6-家具-143
 62
   143
100
AcDbLine
 10
841.0183624841208
 20
1016.736933886379
 30
0.0
 11
840.3693655932258
 21
1015.699425955353
 31
0.0
  0
LINE
  5
8BC
330
2
100
AcDbEntity
  8
6-家具-143
 62
   143
100
AcDbLine
 10
840.3693655932258
 20
1015.699425955353
 30
0.0
 11
841.1481618623069
 21
1014.921295007089
 31
0.0
  0
LINE
  5
8BD
330
2
100
AcDbEntity
  8
6-家具-143
 62
   143
100
AcDbLine
 10
841.1481618623069
 20
1014.921295007089
 30
0.0
 11
840.8885631059465
 21
1013.49472160193
 31
0.0
  0
LINE
  5
8BE
330
2
100
AcDbEntity
  8
6-家具-143
 62
   143
100
AcDbLine
 10
840.8885631059465
 20
1013.49472160193
 30
0.0
 11
841.5375599968415
 21
1012.586902162273
 31
0.0
  0
LINE
  5
8BF
330
2
100
AcDbEntity
  8
6-家具-143
 62
   143
100
AcDbLine
 10
841.5375599968415
 20
1012.586902162273
 30
0.0
 11
843.2249519131664
 21
1013.105656127774
 31
0.0
  0
LINE
  5
8C0
330
2
100
AcDbEntity
  8
6-家具-143
 62
   143
100
AcDbLine
 10
843.2249519131664
 20
1013.105656127774
 30
0.0
 11
846.080538233107
 21
1015.440048972614
 31
0.0
  0
LINE
  5
8C1
330
2
100
AcDbEntity
  8
6-家具-143
 62
   143
100
AcDbLine
 10
846.080538233107
 20
1015.440048972614
 30
0.0
 11
847.7679301494319
 21
1018.033818800168
 31
0.0
  0
LINE
  5
8C2
330
2
100
AcDbEntity
  8
6-家具-143
 62
   143
100
AcDbLine
 10
847.7679301494319
 20
1018.033818800168
 30
0.0
 11
849.8447202002914
 21
1019.46039220535
 31
0.0
  0
LINE
  5
8C3
330
2
100
AcDbEntity
  8
6-家具-143
 62
   143
100
AcDbLine
 10
849.8447202002914
 20
1019.46039220535
 30
0.0
 11
851.9215102511628
 21
1018.941638239825
 31
0.0
  0
LINE
  5
8C4
330
2
100
AcDbEntity
  8
6-家具-143
 62
   143
100
AcDbLine
 10
850.4972246429586
 20
1017.483518931296
 30
0.0
 11
852.54945803908
 21
1018.622674590143
 31
0.0
  0
LINE
  5
8C5
330
2
100
AcDbEntity
  8
6-家具-143
 62
   143
100
AcDbLine
 10
852.54945803908
 20
1018.622674590143
 30
0.0
 11
853.4615617706959
 21
1021.812310434904
 31
0.0
  0
LINE
  5
8C6
330
2
100
AcDbEntity
  8
6-家具-143
 62
   143
100
AcDbLine
 10
853.4615617706959
 20
1021.812310434904
 30
0.0
 11
852.7774839719809
 21
1024.774115147887
 31
0.0
  0
LINE
  5
8C7
330
2
100
AcDbEntity
  8
6-家具-143
 62
   143
100
AcDbLine
 10
852.7774839719809
 20
1024.774115147887
 30
0.0
 11
850.7252505758597
 21
1025.913270806734
 31
0.0
  0
LINE
  5
8C8
330
2
100
AcDbEntity
  8
6-家具-143
 62
   143
100
AcDbLine
 10
850.7252505758597
 20
1025.913270806734
 30
0.0
 11
849.3570949784531
 21
1026.141101938489
 31
0.0
  0
LINE
  5
8C9
330
2
100
AcDbEntity
  8
6-家具-143
 62
   143
100
AcDbLine
 10
841.7136498366184
 20
1055.008045477004
 30
0.0
 11
840.9420886645843
 21
1046.142676148287
 31
0.0
  0
LINE
  5
8CA
330
2
100
AcDbEntity
  8
6-家具-143
 62
   143
100
AcDbLine
 10
840.9420886645843
 20
1046.142676148287
 30
0.0
 11
841.5207595436072
 21
1034.38642525317
 31
0.0
  0
LINE
  5
8CB
330
2
100
AcDbEntity
  8
6-家具-143
 62
   143
100
AcDbLine
 10
841.5207595436072
 20
1034.38642525317
 30
0.0
 11
841.7136498366184
 21
1029.1828388067
 31
0.0
  0
LINE
  5
8CC
330
2
100
AcDbEntity
  8
6-家具-143
 62
   143
100
AcDbLine
 10
841.7136498366184
 20
1029.1828388067
 30
0.0
 11
842.8709908732965
 21
1023.786527264378
 31
0.0
  0
LINE
  5
8CD
330
2
100
AcDbEntity
  8
6-家具-143
 62
   143
100
AcDbLine
 10
855.0577433010035
 20
1056.214811331898
 30
0.0
 11
854.3736655023002
 21
1052.341682091847
 31
0.0
  0
LINE
  5
8CE
330
2
100
AcDbEntity
  8
6-家具-143
 62
   143
100
AcDbLine
 10
854.3736655023002
 20
1052.341682091847
 30
0.0
 11
851.4093283745747
 21
1050.746864169467
 31
0.0
  0
LINE
  5
8CF
330
2
100
AcDbEntity
  8
6-家具-143
 62
   143
100
AcDbLine
 10
851.4093283745747
 20
1050.746864169467
 30
0.0
 11
854.1456395693989
 21
1049.60770851062
 31
0.0
  0
LINE
  5
8D0
330
2
100
AcDbEntity
  8
6-家具-143
 62
   143
100
AcDbLine
 10
854.1456395693989
 20
1049.60770851062
 30
0.0
 11
851.4093283745747
 21
1046.190241534103
 31
0.0
  0
LINE
  5
8D1
330
2
100
AcDbEntity
  8
6-家具-143
 62
   143
100
AcDbLine
 10
851.4093283745747
 20
1046.190241534103
 30
0.0
 11
849.5851209113544
 21
1038.899645317512
 31
0.0
  0
LINE
  5
8D2
330
2
100
AcDbEntity
  8
6-家具-143
 62
   143
100
AcDbLine
 10
849.5851209113544
 20
1038.899645317512
 30
0.0
 11
847.9889393810351
 21
1029.102906651472
 31
0.0
  0
LINE
  5
8D3
330
2
100
AcDbEntity
  8
6-家具-143
 62
   143
100
AcDbLine
 10
851.1813024416619
 20
1058.037460386058
 30
0.0
 11
847.3048615823319
 21
1050.063370774154
 31
0.0
  0
LINE
  5
8D4
330
2
100
AcDbEntity
  8
6-家具-143
 62
   143
100
AcDbLine
 10
847.3048615823319
 20
1050.063370774154
 30
0.0
 11
844.3405244545948
 21
1043.22843682112
 31
0.0
  0
LINE
  5
8D5
330
2
100
AcDbEntity
  8
6-家具-143
 62
   143
100
AcDbLine
 10
844.3405244545948
 20
1043.22843682112
 30
0.0
 11
843.6564466558916
 21
1034.343022682148
 31
0.0
  0
LINE
  5
8D6
330
2
100
AcDbEntity
  8
6-家具-143
 62
   143
100
AcDbLine
 10
843.6564466558916
 20
1034.343022682148
 30
0.0
 11
843.4284207229904
 21
1029.558568915029
 31
0.0
  0
LINE
  5
8D7
330
2
100
AcDbEntity
  8
6-家具-143
 62
   143
100
AcDbLine
 10
834.0793574739882
 20
1058.265291517813
 30
0.0
 11
831.7990981449659
 21
1055.531317936585
 31
0.0
  0
LINE
  5
8D8
330
2
100
AcDbEntity
  8
6-家具-143
 62
   143
100
AcDbLine
 10
831.7990981449659
 20
1055.531317936585
 30
0.0
 11
831.1150203462625
 21
1048.924215115307
 31
0.0
  0
LINE
  5
8D9
330
2
100
AcDbEntity
  8
6-家具-143
 62
   143
100
AcDbLine
 10
831.1150203462625
 20
1048.924215115307
 30
0.0
 11
831.5710722120648
 21
1037.760489658665
 31
0.0
  0
LINE
  5
8DA
330
2
100
AcDbEntity
  8
6-家具-143
 62
   143
100
AcDbLine
 10
831.5710722120648
 20
1037.760489658665
 30
0.0
 11
833.8513315410871
 21
1021.812310434904
 31
0.0
  0
LINE
  5
8DB
330
2
100
AcDbEntity
  8
6-家具-143
 62
   143
100
AcDbLine
 10
838.8679020649339
 20
1055.759149068364
 30
0.0
 11
836.1315908701094
 21
1046.873734929416
 31
0.0
  0
LINE
  5
8DC
330
2
100
AcDbEntity
  8
6-家具-143
 62
   143
100
AcDbLine
 10
836.1315908701094
 20
1046.873734929416
 30
0.0
 11
834.9914612056041
 21
1032.064711364478
 31
0.0
  0
LINE
  5
8DD
330
2
100
AcDbEntity
  8
6-家具-143
 62
   143
100
AcDbLine
 10
834.9914612056041
 20
1032.064711364478
 30
0.0
 11
834.3073834068894
 21
1019.078336853677
 31
0.0
  0
LINE
  5
8DE
330
2
100
AcDbEntity
  8
6-家具-143
 62
   143
100
AcDbLine
 10
834.3073834068894
 20
1019.078336853677
 30
0.0
 11
833.395279675285
 21
1013.838220823001
 31
0.0
  0
LINE
  5
8DF
330
2
100
AcDbEntity
  8
6-家具-143
 62
   143
100
AcDbLine
 10
833.395279675285
 20
1013.838220823001
 30
0.0
 11
838.411850199132
 21
1008.598104792348
 31
0.0
  0
LINE
  5
8E0
330
2
100
AcDbEntity
  8
6-家具-143
 62
   143
100
AcDbLine
 10
838.411850199132
 20
1008.598104792348
 30
0.0
 11
842.0602651255723
 21
1012.471234032398
 31
0.0
  0
LINE
  5
8E1
330
2
100
AcDbEntity
  8
6-家具-143
 62
   143
100
AcDbLine
 10
829.0627869501413
 20
1055.986980200143
 30
0.0
 11
826.098449822404
 21
1052.569513223603
 31
0.0
  0
LINE
  5
8E2
330
2
100
AcDbEntity
  8
6-家具-143
 62
   143
100
AcDbLine
 10
826.098449822404
 20
1052.569513223603
 30
0.0
 11
828.6067350843275
 21
1050.746864169467
 31
0.0
  0
LINE
  5
8E3
330
2
100
AcDbEntity
  8
6-家具-143
 62
   143
100
AcDbLine
 10
828.6067350843275
 20
1050.746864169467
 30
0.0
 11
825.4143720237008
 21
1048.468552851773
 31
0.0
  0
LINE
  5
8E4
330
2
100
AcDbEntity
  8
6-家具-143
 62
   143
100
AcDbLine
 10
825.4143720237008
 20
1048.468552851773
 30
0.0
 11
827.9226572856243
 21
1041.405787766961
 31
0.0
  0
LINE
  5
8E5
330
2
100
AcDbEntity
  8
6-家具-143
 62
   143
100
AcDbLine
 10
827.9226572856243
 20
1041.405787766961
 30
0.0
 11
831.3430462791636
 21
1028.875075519717
 31
0.0
  0
LINE
  5
8E6
330
2
100
AcDbEntity
  8
6-家具-143
 62
   143
100
AcDbLine
 10
831.3430462791636
 20
1028.875075519717
 30
0.0
 11
833.395279675285
 21
1019.078336853677
 31
0.0
  0
LINE
  5
8E7
330
2
100
AcDbEntity
  8
6-家具-143
 62
   143
100
AcDbLine
 10
833.395279675285
 20
1019.078336853677
 30
0.0
 11
833.8513315410871
 21
1016.800025536007
 31
0.0
  0
LINE
  5
8E8
330
2
100
AcDbEntity
  8
6-家具-143
 62
   143
100
AcDbLine
 10
834.9914612056041
 20
1059.40444717666
 30
0.0
 11
829.9748906817455
 21
1056.442642463677
 31
0.0
  0
LINE
  5
8E9
330
2
100
AcDbEntity
  8
6-家具-143
 62
   143
100
AcDbLine
 10
829.9748906817455
 20
1056.442642463677
 30
0.0
 11
825.1863460907998
 21
1054.392162277762
 31
0.0
  0
LINE
  5
8EA
330
2
100
AcDbEntity
  8
6-家具-143
 62
   143
100
AcDbLine
 10
825.1863460907998
 20
1054.392162277762
 30
0.0
 11
822.6780608288763
 21
1052.569513223603
 31
0.0
  0
LINE
  5
8EB
330
2
100
AcDbEntity
  8
6-家具-143
 62
   143
100
AcDbLine
 10
822.6780608288763
 20
1052.569513223603
 30
0.0
 11
820.625827432755
 21
1049.60770851062
 31
0.0
  0
LINE
  5
8EC
330
2
100
AcDbEntity
  8
6-家具-143
 62
   143
100
AcDbLine
 10
820.625827432755
 20
1049.60770851062
 30
0.0
 11
818.8016199695349
 21
1043.91193021641
 31
0.0
  0
LINE
  5
8ED
330
2
100
AcDbEntity
  8
6-家具-143
 62
   143
100
AcDbLine
 10
818.8016199695349
 20
1043.91193021641
 30
0.0
 11
819.9417496340402
 21
1032.976035891546
 31
0.0
  0
LINE
  5
8EE
330
2
100
AcDbEntity
  8
6-家具-143
 62
   143
100
AcDbLine
 10
819.9417496340402
 20
1032.976035891546
 30
0.0
 11
819.257671835337
 21
1025.001946279642
 31
0.0
  0
LINE
  5
8EF
330
2
100
AcDbEntity
  8
6-家具-143
 62
   143
100
AcDbLine
 10
819.257671835337
 20
1025.001946279642
 30
0.0
 11
819.4856977682379
 21
1022.495803830194
 31
0.0
  0
LINE
  5
8F0
330
2
100
AcDbEntity
  8
6-家具-143
 62
   143
100
AcDbLine
 10
819.4856977682379
 20
1022.495803830194
 30
0.0
 11
823.3621386275794
 21
1000.396184048688
 31
0.0
  0
LINE
  5
8F1
330
2
100
AcDbEntity
  8
6-家具-143
 62
   143
100
AcDbLine
 10
823.3621386275794
 20
1000.396184048688
 30
0.0
 11
824.274242359184
 21
999.9405217851546
 31
0.0
  0
LINE
  5
8F2
330
2
100
AcDbEntity
  8
6-家具-143
 62
   143
100
AcDbLine
 10
824.274242359184
 20
999.9405217851546
 30
0.0
 11
824.7302942249975
 21
996.0673925450803
 31
0.0
  0
LINE
  5
8F3
330
2
100
AcDbEntity
  8
6-家具-143
 62
   143
100
AcDbLine
 10
824.7302942249975
 20
996.0673925450803
 30
0.0
 11
825.4143720237008
 21
996.0673925450803
 31
0.0
  0
LINE
  5
8F4
330
2
100
AcDbEntity
  8
6-家具-143
 62
   143
100
AcDbLine
 10
825.4143720237008
 20
996.0673925450803
 30
0.0
 11
826.098449822404
 21
996.0673925450803
 31
0.0
  0
LINE
  5
8F5
330
2
100
AcDbEntity
  8
6-家具-143
 62
   143
100
AcDbLine
 10
851.6373543074756
 20
1059.176616044881
 30
0.0
 11
855.7418210997182
 21
1056.898304727211
 31
0.0
  0
LINE
  5
8F6
330
2
100
AcDbEntity
  8
6-家具-143
 62
   143
100
AcDbLine
 10
855.7418210997182
 20
1056.898304727211
 30
0.0
 11
861.6704953551812
 21
1054.847824541296
 31
0.0
  0
LINE
  5
8F7
330
2
100
AcDbEntity
  8
6-家具-143
 62
   143
100
AcDbLine
 10
861.6704953551812
 20
1054.847824541296
 30
0.0
 11
866.4590399461269
 21
1053.253006618915
 31
0.0
  0
LINE
  5
8F8
330
2
100
AcDbEntity
  8
6-家具-143
 62
   143
100
AcDbLine
 10
866.4590399461269
 20
1053.253006618915
 30
0.0
 11
869.4233770738524
 21
1048.696383983552
 31
0.0
  0
LINE
  5
8F9
330
2
100
AcDbEntity
  8
6-家具-143
 62
   143
100
AcDbLine
 10
869.4233770738524
 20
1048.696383983552
 30
0.0
 11
870.7915326712704
 21
1038.216151922199
 31
0.0
  0
LINE
  5
8FA
330
2
100
AcDbEntity
  8
6-家具-143
 62
   143
100
AcDbLine
 10
870.7915326712704
 20
1038.216151922199
 30
0.0
 11
870.3354808054685
 21
1026.141101938489
 31
0.0
  0
LINE
  5
8FB
330
2
100
AcDbEntity
  8
6-家具-143
 62
   143
100
AcDbLine
 10
870.3354808054685
 20
1026.141101938489
 30
0.0
 11
867.3711436777312
 21
1021.35664817137
 31
0.0
  0
LINE
  5
8FC
330
2
100
AcDbEntity
  8
6-家具-143
 62
   143
100
AcDbLine
 10
867.3711436777312
 20
1021.35664817137
 30
0.0
 11
863.4947028183896
 21
1017.93918119483
 31
0.0
  0
LINE
  5
8FD
330
2
100
AcDbEntity
  8
6-家具-143
 62
   143
100
AcDbLine
 10
863.4947028183896
 20
1017.93918119483
 30
0.0
 11
860.530365690664
 21
1015.66086987716
 31
0.0
  0
LINE
  5
8FE
330
2
100
AcDbEntity
  8
6-家具-143
 62
   143
100
AcDbLine
 10
860.530365690664
 20
1015.66086987716
 30
0.0
 11
854.6016914352012
 21
1015.66086987716
 31
0.0
  0
LINE
  5
8FF
330
2
100
AcDbEntity
  8
6-家具-143
 62
   143
100
AcDbLine
 10
854.6016914352012
 20
1015.66086987716
 30
0.0
 11
851.1813024416619
 21
1015.888701008915
 31
0.0
  0
LINE
  5
900
330
2
100
AcDbEntity
  8
6-家具-143
 62
   143
100
AcDbLine
 10
851.1813024416619
 20
1015.888701008915
 30
0.0
 11
848.6730171797384
 21
1017.255687799541
 31
0.0
  0
LINE
  5
901
330
2
100
AcDbEntity
  8
6-家具-143
 62
   143
100
AcDbLine
 10
825.5722364808253
 20
995.7273982830379
 30
0.0
 11
824.1444433208492
 21
992.4851859985651
 31
0.0
  0
LINE
  5
902
330
2
100
AcDbEntity
  8
6-家具-143
 62
   143
100
AcDbLine
 10
824.1444433208492
 20
992.4851859985651
 30
0.0
 11
823.3656470517797
 21
988.9835967313299
 31
0.0
  0
LINE
  5
903
330
2
100
AcDbEntity
  8
6-家具-143
 62
   143
100
AcDbLine
 10
826.5545016882063
 20
987.4098095378872
 30
0.0
 11
825.6423979566021
 21
996.295223676859
 31
0.0
  0
LINE
  5
904
330
2
100
AcDbEntity
  8
6-家具-143
 62
   143
100
AcDbLine
 10
825.6423979566021
 20
996.295223676859
 30
0.0
 11
825.6423979566021
 21
1003.357988761671
 31
0.0
  0
LINE
  5
905
330
2
100
AcDbEntity
  8
6-家具-143
 62
   143
100
AcDbLine
 10
825.6423979566021
 20
1003.357988761671
 30
0.0
 11
824.9583201578987
 21
1010.192922714728
 31
0.0
  0
LINE
  5
906
330
2
100
AcDbEntity
  8
6-家具-143
 62
   143
100
AcDbLine
 10
824.9583201578987
 20
1010.192922714728
 30
0.0
 11
824.9583201578987
 21
1015.888701008915
 31
0.0
  0
LINE
  5
907
330
2
100
AcDbEntity
  8
6-家具-143
 62
   143
100
AcDbLine
 10
824.9583201578987
 20
1015.888701008915
 30
0.0
 11
824.9583201578987
 21
1022.04014156666
 31
0.0
  0
LINE
  5
908
330
2
100
AcDbEntity
  8
6-家具-143
 62
   143
100
AcDbLine
 10
824.9583201578987
 20
1022.04014156666
 30
0.0
 11
825.4143720237008
 21
1032.520373628012
 31
0.0
  0
LINE
  5
909
330
2
100
AcDbEntity
  8
6-家具-143
 62
   143
100
AcDbLine
 10
825.4143720237008
 20
1032.520373628012
 30
0.0
 11
823.1341126946785
 21
1039.355307581046
 31
0.0
  0
LINE
  5
90A
330
2
100
AcDbEntity
  8
6-家具-143
 62
   143
100
AcDbLine
 10
834.9914612056041
 20
1012.015571768865
 30
0.0
 11
833.8513315410871
 21
1007.231118001746
 31
0.0
  0
LINE
  5
90B
330
2
100
AcDbEntity
  8
6-家具-143
 62
   143
100
AcDbLine
 10
833.8513315410871
 20
1007.231118001746
 30
0.0
 11
832.9392278094829
 21
1003.813651025205
 31
0.0
  0
LINE
  5
90C
330
2
100
AcDbEntity
  8
6-家具-143
 62
   143
100
AcDbLine
 10
832.9392278094829
 20
1003.813651025205
 30
0.0
 11
832.9392278094829
 21
997.4343793357057
 31
0.0
  0
LINE
  5
90D
330
2
100
AcDbEntity
  8
6-家具-143
 62
   143
100
AcDbLine
 10
832.9392278094829
 20
997.4343793357057
 30
0.0
 11
830.6589684804489
 21
993.1055878320975
 31
0.0
  0
LINE
  5
90E
330
2
100
AcDbEntity
  8
6-家具-143
 62
   143
100
AcDbLine
 10
830.6589684804489
 20
993.1055878320975
 30
0.0
 11
828.1506832185254
 21
990.3716142508933
 31
0.0
  0
LINE
  5
90F
330
2
100
AcDbEntity
  8
6-家具-143
 62
   143
100
AcDbLine
 10
828.1506832185254
 20
990.3716142508933
 30
0.0
 11
826.3264757553052
 21
986.9541472743533
 31
0.0
  0
LINE
  5
910
330
2
100
AcDbEntity
  8
6-家具-143
 62
   143
100
AcDbLine
 10
826.3264757553052
 20
986.9541472743533
 30
0.0
 11
825.8704238895029
 21
983.9923425613703
 31
0.0
  0
LINE
  5
911
330
2
100
AcDbEntity
  8
6-家具-143
 62
   143
100
AcDbLine
 10
852.7774839719809
 20
986.4984850108191
 30
0.0
 11
847.3048615823319
 21
992.8777567003422
 31
0.0
  0
LINE
  5
912
330
2
100
AcDbEntity
  8
6-家具-143
 62
   143
100
AcDbLine
 10
847.3048615823319
 20
992.8777567003422
 30
0.0
 11
842.9723688571765
 21
999.4848595216206
 31
0.0
  0
LINE
  5
913
330
2
100
AcDbEntity
  8
6-家具-143
 62
   143
100
AcDbLine
 10
842.9723688571765
 20
999.4848595216206
 30
0.0
 11
842.7443429242755
 21
1005.636300079365
 31
0.0
  0
LINE
  5
914
330
2
100
AcDbEntity
  8
6-家具-143
 62
   143
100
AcDbLine
 10
842.7443429242755
 20
1005.636300079365
 30
0.0
 11
843.2003947900893
 21
1012.243402900643
 31
0.0
  0
LINE
  5
915
330
2
100
AcDbEntity
  8
6-家具-143
 62
   143
100
AcDbLine
 10
863.7227287513024
 20
1017.483518931296
 30
0.0
 11
863.4947028183896
 21
1014.521714218313
 31
0.0
  0
LINE
  5
916
330
2
100
AcDbEntity
  8
6-家具-143
 62
   143
100
AcDbLine
 10
863.4947028183896
 20
1014.521714218313
 30
0.0
 11
863.0386509525875
 21
1006.547624606433
 31
0.0
  0
VIEWPORT
  5
DA
102
{ACAD_XDICTIONARY
360
934
102
}
330
C
100
AcDbEntity
 67
     1
  8
0
100
AcDbViewport
 10
420.5071835950612
 20
297.0009369707932
 30
0.0
 40
848.880193293653
 41
633.6711302051212
 68
     1
 69
     1
 12
420.5071835950612
 22
297.0009369707932
 13
0.0
 23
0.0
 14
10.0
 24
10.0
 15
10.0
 25
10.0
 16
0.0
 26
0.0
 36
1.0
 17
0.0
 27
0.0
 37
0.0
 42
50.0
 43
0.0
 44
0.0
 45
633.6711302051212
 50
0.0
 51
0.0
 72
  1000
 90
    32864
  1

281
     0
 71
     1
 74
     0
110
0.0
120
0.0
130
0.0
111
1.0
121
0.0
131
0.0
112
0.0
122
1.0
132
0.0
 79
     0
146
0.0
  0
ENDSEC
  0
SECTION
  2
OBJECTS
  0
DICTIONARY
  5
7
330
0
100
AcDbDictionary
281
     1
  3
ACAD_COLOR
350
DE
  3
ACAD_GROUP
350
20
  3
ACAD_LAYOUT
350
B
  3
ACAD_MATERIAL
350
DD
  3
ACAD_MLINESTYLE
350
21
  3
ACAD_PLOTSETTINGS
350
22
  3
ACAD_PLOTSTYLENAME
350
6
  3
ACDBHEADERROUNDTRIPXREC
350
92D
  3
AcDbVariableDictionary
350
115
  0
DICTIONARY
  5
1A3
330
10
100
AcDbDictionary
280
     1
281
     1
  3
ACAD_LAYERSTATES
360
1A4
  0
DICTIONARY
  5
934
330
DA
100
AcDbDictionary
280
     1
281
     1
  3
ACAD_XREC_ROUNDTRIP
360
935
  0
DICTIONARY
  5
DE
102
{ACAD_REACTORS
330
7
102
}
330
7
100
AcDbDictionary
281
     1
  0
DICTIONARY
  5
20
102
{ACAD_REACTORS
330
7
102
}
330
7
100
AcDbDictionary
281
     1
  0
DICTIONARY
  5
B
102
{ACAD_REACTORS
330
7
102
}
330
7
100
AcDbDictionary
281
     1
  3
JIS A1 Title Block
350
F
  3
Model
350
A
  0
DICTIONARY
  5
DD
102
{ACAD_REACTORS
330
7
102
}
330
7
100
AcDbDictionary
281
     1
  0
DICTIONARY
  5
21
102
{ACAD_REACTORS
330
7
102
}
330
7
100
AcDbDictionary
281
     1
  3
Standard
350
23
  0
DICTIONARY
  5
22
102
{ACAD_REACTORS
330
7
102
}
330
7
100
AcDbDictionary
281
     1
  0
ACDBDICTIONARYWDFLT
  5
6
102
{ACAD_REACTORS
330
7
102
}
330
7
100
AcDbDictionary
281
     1
  3
Normal
350
5
100
AcDbDictionaryWithDefault
340
5
  0
DICTIONARY
  5
92D
102
{ACAD_REACTORS
330
7
102
}
330
7
100
AcDbDictionary
281
     1
  3
COLORDICT
350
92F
  3
MATERIALDICT
350
92E
  0
DICTIONARY
  5
115
102
{ACAD_REACTORS
330
7
102
}
330
7
100
AcDbDictionary
281
     1
  3
DIMASSOC
350
116
  3
PROJECTNAME
350
117
  0
DICTIONARY
  5
1A4
102
{ACAD_REACTORS
330
1A3
102
}
330
1A3
100
AcDbDictionary
281
     1
  0
XRECORD
  5
935
102
{ACAD_REACTORS
330
934
102
}
330
934
100
AcDbXrecord
280
     1
102
SHADEPLOT
 70
     0
  0
LAYOUT
  5
F
102
{ACAD_XDICTIONARY
360
932
102
}
102
{ACAD_REACTORS
330
B
102
}
330
B
100
AcDbPlotSettings
  1

  2
none_device
  4
ISO_A1_(594.00_x_841.00_MM)
  6

 40
7.549999999999998
 41
20.05
 42
7.549999999999998
 43
20.05
 44
594.0
 45
841.0
 46
-7.559999999999997
 47
-20.07
 48
0.0
 49
0.0
140
0.0
141
0.0
142
1.0
143
1.0
 70
   692
 72
     1
 73
     1
 74
     1
  7

 75
    16
147
1.0
148
0.0128164049386896
149
0.0090630292066862
100
AcDbLayout
  1
JIS A1 Title Block
 70
     1
 71
     1
 10
0.0071835950613099
 20
0.0009369707933136
 11
841.0071835950612
 21
594.0009369707931
 12
0.0
 22
0.0
 32
0.0
 14
1.000000000000000E+20
 24
1.000000000000000E+20
 34
1.000000000000000E+20
 15
-1.000000000000000E+20
 25
-1.000000000000000E+20
 35
-1.000000000000000E+20
146
0.0
 13
0.0
 23
0.0
 33
0.0
 16
1.0
 26
0.0
 36
0.0
 17
0.0
 27
1.0
 37
0.0
 76
     0
330
C
331
DA
  0
LAYOUT
  5
A
102
{ACAD_XDICTIONARY
360
930
102
}
102
{ACAD_REACTORS
330
B
102
}
330
B
100
AcDbPlotSettings
  1

  2
none_device
  4
ANSI_A_(8.50_x_11.00_Inches)
  6

 40
6.349999904632567
 41
19.04999923706055
 42
6.350006103515625
 43
19.04998779296875
 44
215.8999938964844
 45
279.3999938964844
 46
28.79458090408706
 47
17.57028564415653
 48
0.0
 49
0.0
140
0.0
141
0.0
142
1.0
143
103.6285708313174
 70
 11956
 72
     0
 73
     1
 74
     1
  7

 75
     0
147
0.0096498484151418
148
1.303736702137707
149
0.9208318680958655
100
AcDbLayout
  1
Model
 70
     1
 71
     0
 10
0.0
 20
0.0
 11
12.0
 21
9.0
 12
0.0
 22
0.0
 32
0.0
 14
0.0
 24
0.0
 34
0.0
 15
0.0
 25
0.0
 35
0.0
146
0.0
 13
0.0
 23
0.0
 33
0.0
 16
1.0
 26
0.0
 36
0.0
 17
0.0
 27
1.0
 37
0.0
 76
     0
330
2
  0
MLINESTYLE
  5
23
102
{ACAD_REACTORS
330
21
102
}
330
21
100
AcDbMlineStyle
  2
STANDARD
 70
     0
  3

 62
   256
 51
90.0
 52
90.0
 71
     2
 49
0.5
 62
   256
  6
BYLAYER
 49
-0.5
 62
   256
  6
BYLAYER
  0
ACDBPLACEHOLDER
  5
5
102
{ACAD_REACTORS
330
6
102
}
330
6
  0
XRECORD
  5
92F
102
{ACAD_REACTORS
330
92D
102
}
330
92D
100
AcDbXrecord
280
     1
340
DE
  0
XRECORD
  5
92E
102
{ACAD_REACTORS
330
92D
102
}
330
92D
100
AcDbXrecord
280
     1
340
DD
  0
DICTIONARYVAR
  5
116
102
{ACAD_REACTORS
330
115
102
}
330
115
100
DictionaryVariables
280
     0
  1
1
  0
DICTIONARYVAR
  5
117
102
{ACAD_REACTORS
330
115
102
}
330
115
100
DictionaryVariables
280
     0
  1

  0
DICTIONARY
  5
932
330
F
100
AcDbDictionary
280
     1
281
     1
  3
ACAD_XREC_ROUNDTRIP
360
933
  0
DICTIONARY
  5
930
330
A
100
AcDbDictionary
280
     1
281
     1
  3
ACAD_XREC_ROUNDTRIP
360
931
  0
XRECORD
  5
933
102
{ACAD_REACTORS
330
932
102
}
330
932
100
AcDbXrecord
280
     1
102
SHADEPLOT
 70
     0
102
SHADEPLOTRESLEVEL
 70
     2
102
SHADEPLOTCUSTOMDPI
 70
   300
  0
XRECORD
  5
931
102
{ACAD_REACTORS
330
930
102
}
330
930
100
AcDbXrecord
280
     1
102
SHADEPLOT
 70
     0
102
SHADEPLOTRESLEVEL
 70
     2
102
SHADEPLOTCUSTOMDPI
 70
   300
  0
ENDSEC
  0
EOF
