  0
SECTION
  2
HEADER
  9
$ACADVER
  1
AC1015
  9
$ACADMAINTVER
 70
    20
  9
$DWGCODEPAGE
  3
ANSI_936
  9
$INSBASE
 10
0.0
 20
0.0
 30
0.0
  9
$EXTMIN
 10
0.0
 20
0.0
 30
0.0
  9
$EXTMAX
 10
1600.0
 20
1200.0
 30
0.0
  9
$LIMMIN
 10
0.0
 20
0.0
  9
$LIMMAX
 10
420.0
 20
297.0
  9
$ORTHOMODE
 70
     0
  9
$REGENMODE
 70
     1
  9
$FILLMODE
 70
     1
  9
$QTEXTMODE
 70
     0
  9
$MIRRTEXT
 70
     0
  9
$LTSCALE
 40
1.0
  9
$ATTMODE
 70
     1
  9
$TEXTSIZE
 40
2.5
  9
$TRACEWID
 40
1.0
  9
$TEXTSTYLE
  7
Standard
  9
$CLAYER
  8
0
  9
$CELTYPE
  6
ByLayer
  9
$CECOLOR
 62
   256
  9
$CELTSCALE
 40
1.0
  9
$DISPSILH
 70
     0
  9
$DIMSCALE
 40
1.0
  9
$DIMASZ
 40
2.5
  9
$DIMEXO
 40
1.0
  9
$DIMDLI
 40
7.0
  9
$DIMRND
 40
0.0
  9
$DIMDLE
 40
0.0
  9
$DIMEXE
 40
1.0
  9
$DIMTP
 40
0.0
  9
$DIMTM
 40
0.0
  9
$DIMTXT
 40
2.5
  9
$DIMCEN
 40
0.0
  9
$DIMTSZ
 40
0.0
  9
$DIMTOL
 70
     0
  9
$DIMLIM
 70
     0
  9
$DIMTIH
 70
     0
  9
$DIMTOH
 70
     0
  9
$DIMSE1
 70
     0
  9
$DIMSE2
 70
     0
  9
$DIMTAD
 70
     1
  9
$DIMZIN
 70
     8
  9
$DIMBLK
  1

  9
$DIMASO
 70
     1
  9
$DIMSHO
 70
     1
  9
$DIMPOST
  1

  9
$DIMAPOST
  1

  9
$DIMALT
 70
     0
  9
$DIMALTD
 70
     2
  9
$DIMALTF
 40
0.0394
  9
$DIMLFAC
 40
1.0
  9
$DIMTOFL
 70
     1
  9
$DIMTVP
 40
0.0
  9
$DIMTIX
 70
     1
  9
$DIMSOXD
 70
     1
  9
$DIMSAH
 70
     0
  9
$DIMBLK1
  1

  9
$DIMBLK2
  1

  9
$DIMSTYLE
  2
JIS
  9
$DIMCLRD
 70
     0
  9
$DIMCLRE
 70
     0
  9
$DIMCLRT
 70
     0
  9
$DIMTFAC
 40
1.0
  9
$DIMGAP
 40
0.0
  9
$DIMJUST
 70
     0
  9
$DIMSD1
 70
     0
  9
$DIMSD2
 70
     0
  9
$DIMTOLJ
 70
     1
  9
$DIMTZIN
 70
     0
  9
$DIMALTZ
 70
     0
  9
$DIMALTTZ
 70
     0
  9
$DIMUPT
 70
     0
  9
$DIMDEC
 70
     4
  9
$DIMTDEC
 70
     4
  9
$DIMALTU
 70
     2
  9
$DIMALTTD
 70
     2
  9
$DIMTXSTY
  7
Standard
  9
$DIMAUNIT
 70
     0
  9
$DIMADEC
 70
     0
  9
$DIMALTRND
 40
0.0
  9
$DIMAZIN
 70
     0
  9
$DIMDSEP
 70
    46
  9
$DIMATFIT
 70
     3
  9
$DIMFRAC
 70
     0
  9
$DIMLDRBLK
  1

  9
$DIMLUNIT
 70
     2
  9
$DIMLWD
 70
    -2
  9
$DIMLWE
 70
    -2
  9
$DIMTMOVE
 70
     0
  9
$LUNITS
 70
     2
  9
$LUPREC
 70
     4
  9
$SKETCHINC
 40
1.0
  9
$FILLETRAD
 40
0.0
  9
$AUNITS
 70
     0
  9
$AUPREC
 70
     0
  9
$MENU
  1
.
  9
$ELEVATION
 40
0.0
  9
$PELEVATION
 40
0.0
  9
$THICKNESS
 40
0.0
  9
$LIMCHECK
 70
     0
  9
$CHAMFERA
 40
0.0
  9
$CHAMFERB
 40
0.0
  9
$CHAMFERC
 40
0.0
  9
$CHAMFERD
 40
0.0
  9
$SKPOLY
 70
     0
  9
$TDCREATE
 40
2455955.017649734
  9
$TDUCREATE
 40
2455954.684316401
  9
$TDUPDATE
 40
2456118.714122535
  9
$TDUUPDATE
 40
2456118.380789201
  9
$TDINDWG
 40
0.0050761227
  9
$TDUSRTIMER
 40
0.0050741551
  9
$USRTIMER
 70
     1
  9
$ANGBASE
 50
0.0
  9
$ANGDIR
 70
     0
  9
$PDMODE
 70
     0
  9
$PDSIZE
 40
0.0
  9
$PLINEWID
 40
0.0
  9
$SPLFRAME
 70
     0
  9
$SPLINETYPE
 70
     6
  9
$SPLINESEGS
 70
     8
  9
$HANDSEED
  5
201
  9
$SURFTAB1
 70
     6
  9
$SURFTAB2
 70
     6
  9
$SURFTYPE
 70
     6
  9
$SURFU
 70
     6
  9
$SURFV
 70
     6
  9
$UCSBASE
  2

  9
$UCSNAME
  2

  9
$UCSORG
 10
0.0
 20
0.0
 30
0.0
  9
$UCSXDIR
 10
1.0
 20
0.0
 30
0.0
  9
$UCSYDIR
 10
0.0
 20
1.0
 30
0.0
  9
$UCSORTHOREF
  2

  9
$UCSORTHOVIEW
 70
     0
  9
$UCSORGTOP
 10
0.0
 20
0.0
 30
0.0
  9
$UCSORGBOTTOM
 10
0.0
 20
0.0
 30
0.0
  9
$UCSORGLEFT
 10
0.0
 20
0.0
 30
0.0
  9
$UCSORGRIGHT
 10
0.0
 20
0.0
 30
0.0
  9
$UCSORGFRONT
 10
0.0
 20
0.0
 30
0.0
  9
$UCSORGBACK
 10
0.0
 20
0.0
 30
0.0
  9
$PUCSBASE
  2

  9
$PUCSNAME
  2

  9
$PUCSORG
 10
0.0
 20
0.0
 30
0.0
  9
$PUCSXDIR
 10
1.0
 20
0.0
 30
0.0
  9
$PUCSYDIR
 10
0.0
 20
1.0
 30
0.0
  9
$PUCSORTHOREF
  2

  9
$PUCSORTHOVIEW
 70
     0
  9
$PUCSORGTOP
 10
0.0
 20
0.0
 30
0.0
  9
$PUCSORGBOTTOM
 10
0.0
 20
0.0
 30
0.0
  9
$PUCSORGLEFT
 10
0.0
 20
0.0
 30
0.0
  9
$PUCSORGRIGHT
 10
0.0
 20
0.0
 30
0.0
  9
$PUCSORGFRONT
 10
0.0
 20
0.0
 30
0.0
  9
$PUCSORGBACK
 10
0.0
 20
0.0
 30
0.0
  9
$USERI1
 70
     0
  9
$USERI2
 70
     0
  9
$USERI3
 70
     0
  9
$USERI4
 70
     0
  9
$USERI5
 70
     0
  9
$USERR1
 40
0.0
  9
$USERR2
 40
0.0
  9
$USERR3
 40
0.0
  9
$USERR4
 40
0.0
  9
$USERR5
 40
0.0
  9
$WORLDVIEW
 70
     1
  9
$SHADEDGE
 70
     3
  9
$SHADEDIF
 70
    70
  9
$TILEMODE
 70
     1
  9
$MAXACTVP
 70
    64
  9
$PINSBASE
 10
0.0
 20
0.0
 30
0.0
  9
$PLIMCHECK
 70
     0
  9
$PEXTMIN
 10
1.000000000000000E+20
 20
1.000000000000000E+20
 30
1.000000000000000E+20
  9
$PEXTMAX
 10
-1.000000000000000E+20
 20
-1.000000000000000E+20
 30
-1.000000000000000E+20
  9
$PLIMMIN
 10
0.0071835950613099
 20
0.0009369707933136
  9
$PLIMMAX
 10
841.0071835950612
 20
594.0009369707931
  9
$UNITMODE
 70
     0
  9
$VISRETAIN
 70
     1
  9
$PLINEGEN
 70
     0
  9
$PSLTSCALE
 70
     1
  9
$TREEDEPTH
 70
  3020
  9
$CMLSTYLE
  2
Standard
  9
$CMLJUST
 70
     0
  9
$CMLSCALE
 40
20.0
  9
$PROXYGRAPHICS
 70
     1
  9
$MEASUREMENT
 70
     1
  9
$CELWEIGHT
370
    -1
  9
$ENDCAPS
280
     0
  9
$JOINSTYLE
280
     0
  9
$LWDISPLAY
290
     1
  9
$INSUNITS
 70
     4
  9
$HYPERLINKBASE
  1

  9
$STYLESHEET
  1

  9
$XEDIT
290
     1
  9
$CEPSNTYPE
380
     0
  9
$PSTYLEMODE
290
     1
  9
$FINGERPRINTGUID
  2
{048D7354-A980-11D2-9A39-0060089B3A3F}
  9
$VERSIONGUID
  2
{BCDE581F-C34F-427F-B736-D8AC01588728}
  9
$EXTNAMES
290
     1
  9
$PSVPSCALE
 40
0.0
  9
$OLESTARTUP
290
     0
  0
ENDSEC
  0
SECTION
  2
CLASSES
  0
CLASS
  1
ACDBDICTIONARYWDFLT
  2
AcDbDictionaryWithDefault
  3
ObjectDBX Classes
 90
        0
280
     0
281
     0
  0
CLASS
  1
ACDBPLACEHOLDER
  2
AcDbPlaceHolder
  3
ObjectDBX Classes
 90
        0
280
     0
281
     0
  0
CLASS
  1
LAYOUT
  2
AcDbLayout
  3
ObjectDBX Classes
 90
        0
280
     0
281
     0
  0
CLASS
  1
PLOTSETTINGS
  2
AcDbPlotSettings
  3
ObjectDBX Classes
 90
    32768
280
     0
281
     0
  0
CLASS
  1
DICTIONARYVAR
  2
AcDbDictionaryVar
  3
ObjectDBX Classes
 90
        0
280
     0
281
     0
  0
ENDSEC
  0
SECTION
  2
TABLES
  0
TABLE
  2
VPORT
  5
19
330
0
100
AcDbSymbolTable
 70
     2
  0
VPORT
  5
1F7
330
19
100
AcDbSymbolTableRecord
100
AcDbViewportTableRecord
  2
*Active
 70
     0
 10
0.0
 20
0.0
 11
1.0
 21
1.0
 12
799.993297276891
 22
600.0001870649603
 13
0.0
 23
0.0
 14
10.0
 24
10.0
 15
10.0
 25
10.0
 16
0.0
 26
0.0
 36
1.0
 17
0.0
 27
0.0
 37
0.0
 40
1322.035923979838
 41
2.296625222024866
 42
50.0
 43
0.0
 44
0.0
 50
0.0
 51
0.0
 71
     0
 72
  1000
 73
     1
 74
     3
 75
     0
 76
     0
 77
     0
 78
     0
281
     0
 65
     1
110
0.0
120
0.0
130
0.0
111
1.0
121
0.0
131
0.0
112
0.0
122
1.0
132
0.0
 79
     0
146
0.0
  0
ENDTAB
  0
TABLE
  2
LTYPE
  5
14
330
0
100
AcDbSymbolTable
 70
     1
  0
LTYPE
  5
15
330
14
100
AcDbSymbolTableRecord
100
AcDbLinetypeTableRecord
  2
ByBlock
 70
     0
  3

 72
    65
 73
     0
 40
0.0
  0
LTYPE
  5
16
330
14
100
AcDbSymbolTableRecord
100
AcDbLinetypeTableRecord
  2
ByLayer
 70
     0
  3

 72
    65
 73
     0
 40
0.0
  0
LTYPE
  5
8
330
14
100
AcDbSymbolTableRecord
100
AcDbLinetypeTableRecord
  2
Continuous
 70
     0
  3
Solid line
 72
    65
 73
     0
 40
0.0
  0
ENDTAB
  0
TABLE
  2
LAYER
  5
10
330
0
100
AcDbSymbolTable
 70
     2
  0
LAYER
  5
4
330
10
100
AcDbSymbolTableRecord
100
AcDbLayerTableRecord
  2
0
 70
     0
 62
     7
  6
Continuous
370
    -3
390
5
  0
LAYER
  5
28
330
10
100
AcDbSymbolTableRecord
100
AcDbLayerTableRecord
  2
Object
 70
     0
 62
     7
  6
Continuous
370
    -3
390
5
  0
ENDTAB
  0
TABLE
  2
STYLE
  5
11
330
0
100
AcDbSymbolTable
 70
     2
  0
STYLE
  5
12
330
11
100
AcDbSymbolTableRecord
100
AcDbTextStyleTableRecord
  2
Standard
 70
     0
 40
0.0
 41
1.0
 50
0.0
 71
     0
 42
2.5
  3
txt
  4

  0
STYLE
  5
2E
330
11
100
AcDbSymbolTableRecord
100
AcDbTextStyleTableRecord
  2
Roman
 70
     0
 40
0.0
 41
1.0
 50
0.0
 71
     0
 42
5.0
  3
romans
  4
bigfont
  0
ENDTAB
  0
TABLE
  2
VIEW
  5
17
330
0
100
AcDbSymbolTable
 70
     0
  0
ENDTAB
  0
TABLE
  2
UCS
  5
18
330
0
100
AcDbSymbolTable
 70
     0
  0
ENDTAB
  0
TABLE
  2
APPID
  5
1B
330
0
100
AcDbSymbolTable
 70
     1
  0
APPID
  5
1C
330
1B
100
AcDbSymbolTableRecord
100
AcDbRegAppTableRecord
  2
ACAD
 70
     0
  0
ENDTAB
  0
TABLE
  2
DIMSTYLE
  5
1D
330
0
100
AcDbSymbolTable
 70
     1
100
AcDbDimStyleTable
 71
     1
340
1E
  0
DIMSTYLE
105
1E
330
1D
100
AcDbSymbolTableRecord
100
AcDbDimStyleTableRecord
  2
JIS
 70
     0
 41
2.5
 42
1.0
 43
7.0
 44
1.0
 73
     0
 74
     0
 77
     1
 78
     8
140
2.5
141
0.0
143
0.0394
147
0.0
172
     1
174
     1
175
     1
340
12
  0
ENDTAB
  0
TABLE
  2
BLOCK_RECORD
  5
1
330
0
100
AcDbSymbolTable
 70
     0
  0
BLOCK_RECORD
  5
2
330
1
100
AcDbSymbolTableRecord
100
AcDbBlockTableRecord
  2
*Model_Space
340
A
  0
BLOCK_RECORD
  5
C
330
1
100
AcDbSymbolTableRecord
100
AcDbBlockTableRecord
  2
*Paper_Space
340
F
  0
ENDTAB
  0
ENDSEC
  0
SECTION
  2
BLOCKS
  0
BLOCK
  5
3
330
2
100
AcDbEntity
  8
0
100
AcDbBlockBegin
  2
*Model_Space
 70
     2
 10
0.0
 20
0.0
 30
0.0
  3
*Model_Space
  1

  0
ENDBLK
  5
9
330
2
100
AcDbEntity
  8
0
100
AcDbBlockEnd
  0
BLOCK
  5
D
330
C
100
AcDbEntity
 67
     1
  8
0
100
AcDbBlockBegin
  2
*Paper_Space
 70
     0
 10
0.0
 20
0.0
 30
0.0
  3
*Paper_Space
  1

  0
ENDBLK
  5
E
330
C
100
AcDbEntity
 67
     1
  8
0
100
AcDbBlockEnd
  0
ENDSEC
  0
SECTION
  2
ENTITIES
  0
LINE
  5
14F
330
2
100
AcDbEntity
  8
0
100
AcDbLine
 10
0.0
 20
0.0
 30
0.0
 11
1600.0
 21
0.0
 31
0.0
  0
LINE
  5
150
330
2
100
AcDbEntity
  8
0
100
AcDbLine
 10
1600.0
 20
0.0
 30
0.0
 11
1600.0
 21
1200.0
 31
0.0
  0
LINE
  5
151
330
2
100
AcDbEntity
  8
0
100
AcDbLine
 10
1600.0
 20
1200.0
 30
0.0
 11
0.0
 21
1200.0
 31
0.0
  0
LINE
  5
152
330
2
100
AcDbEntity
  8
0
100
AcDbLine
 10
0.0
 20
1200.0
 30
0.0
 11
0.0
 21
0.0
 31
0.0
  0
LINE
  5
1A2
330
2
100
AcDbEntity
  8
0
100
AcDbLine
 10
235.6879132421545
 20
948.0894326841644
 30
0.0
 11
493.7901728365305
 21
948.0894326841644
 31
0.0
  0
LINE
  5
1A3
330
2
100
AcDbEntity
  8
0
100
AcDbLine
 10
179.3746940212313
 20
809.7913486171
 30
0.0
 11
507.8684747426723
 21
809.7913486171
 31
0.0
  0
LINE
  5
1A4
330
2
100
AcDbEntity
  8
0
100
AcDbLine
 10
507.8684747426723
 20
809.7913486171
 30
0.0
 11
507.8684747426723
 21
809.7913486171
 31
0.0
  0
LINE
  5
1A5
330
2
100
AcDbEntity
  8
0
100
AcDbLine
 10
367.0854208921883
 20
903.5527616295047
 30
0.0
 11
367.0854208921883
 21
657.4290518407797
 31
0.0
  0
LINE
  5
1A6
330
2
100
AcDbEntity
  8
0
100
AcDbLine
 10
160.603624813044
 20
655.0850189138882
 30
0.0
 11
519.6003929977905
 21
655.0850189138882
 31
0.0
  0
LINE
  5
1A7
330
2
100
AcDbEntity
  8
0
 62
     7
370
    20
100
AcDbLine
 10
798.9063605916942
 20
800.0547968831131
 30
0.0
 11
882.0538078386277
 21
800.0547968831131
 31
0.0
  0
LINE
  5
1A8
330
2
100
AcDbEntity
  8
0
 62
     7
370
    20
100
AcDbLine
 10
846.0232471422813
 20
905.2694672837944
 30
0.0
 11
846.0232471422813
 21
800.0547968831131
 31
0.0
  0
LINE
  5
1A9
330
2
100
AcDbEntity
  8
0
 62
     7
370
    20
100
AcDbLine
 10
798.9063605916942
 20
849.8933250441915
 30
0.0
 11
882.0538078386277
 21
849.8933250441915
 31
0.0
  0
LINE
  5
1AA
330
2
100
AcDbEntity
  8
0
 62
     7
370
    20
100
AcDbLine
 10
807.7754212750877
 20
905.2694672837944
 30
0.0
 11
884.2710730094761
 21
905.2694672837944
 31
0.0
  0
LINE
  5
1AB
330
2
100
AcDbEntity
  8
0
 62
     7
370
    20
100
AcDbLine
 10
1162.770449421967
 20
1012.225004105167
 30
0.0
 11
1162.621650976187
 21
995.612826809921
 31
0.0
  0
LINE
  5
1AC
330
2
100
AcDbEntity
  8
0
 62
     7
370
    20
100
AcDbLine
 10
1104.92546619946
 20
990.5917863408106
 30
0.0
 11
1104.776667766707
 21
973.9796104998664
 31
0.0
  0
LINE
  5
1AD
330
2
100
AcDbEntity
  8
0
 62
     7
370
    20
100
AcDbLine
 10
1104.92546619946
 20
990.5917863408106
 30
0.0
 11
1214.675692884763
 21
989.6087325926732
 31
0.0
  0
LINE
  5
1AE
330
2
100
AcDbEntity
  8
0
 62
     7
370
    20
100
AcDbLine
 10
1214.675692884763
 20
989.6087325926732
 30
0.0
 11
1214.477294974424
 21
967.4591648047478
 31
0.0
  0
LINE
  5
1AF
330
2
100
AcDbEntity
  8
0
 62
     7
370
    20
100
AcDbLine
 10
1123.622665714893
 20
973.8108032957278
 30
0.0
 11
1194.572308389224
 21
973.1752937914057
 31
0.0
  0
LINE
  5
1B0
330
2
100
AcDbEntity
  8
0
 62
     7
370
    20
100
AcDbLine
 10
1123.493707073173
 20
959.4135842335763
 30
0.0
 11
1194.443349747504
 21
958.7780747292539
 31
0.0
  0
LINE
  5
1B1
330
2
100
AcDbEntity
  8
0
 62
     7
370
    20
100
AcDbLine
 10
1123.354828535936
 20
943.908886782029
 30
0.0
 11
1194.304471210267
 21
943.2733772777067
 31
0.0
  0
LINE
  5
1B2
330
2
100
AcDbEntity
  8
0
 62
     7
370
    20
100
AcDbLine
 10
1140.330846598015
 20
982.5216828778339
 30
0.0
 11
1139.983650254922
 21
943.7599392489653
 31
0.0
  0
LINE
  5
1B3
330
2
100
AcDbEntity
  8
0
 62
     7
370
    20
100
AcDbLine
 10
1176.914257719773
 20
982.1939982751766
 30
0.0
 11
1176.56706137668
 21
943.432254646308
 31
0.0
  0
LINE
  5
1B4
330
2
100
AcDbEntity
  8
0
 62
     7
370
    20
100
AcDbLine
 10
1139.983650254922
 20
943.7599392489653
 30
0.0
 11
1098.579014063541
 21
900.9356830687975
 31
0.0
  0
LINE
  5
1B5
330
2
100
AcDbEntity
  8
0
 62
     7
370
    20
100
AcDbLine
 10
1176.56706137668
 20
943.432254646308
 30
0.0
 11
1214.970849540921
 21
898.7855719180384
 31
0.0
  0
LINE
  5
1B6
330
2
100
AcDbEntity
  8
0
 62
     7
370
    20
100
AcDbLine
 10
1139.755492645007
 20
918.2879348385492
 30
0.0
 11
1174.131647433084
 21
919.0875882963634
 31
0.0
  0
LINE
  5
1B7
330
2
100
AcDbEntity
  8
0
 62
     7
370
    20
100
AcDbLine
 10
1174.131647433084
 20
919.0875882963634
 30
0.0
 11
1168.340709459138
 21
891.4502762848433
 31
0.0
  0
LINE
  5
1B8
330
2
100
AcDbEntity
  8
0
 62
     7
370
    20
100
AcDbLine
 10
1147.456093414085
 20
911.5735556234911
 30
0.0
 11
1141.585792936018
 21
875.0764165267177
 31
0.0
  0
LINE
  5
1B9
330
2
100
AcDbEntity
  8
0
 62
     7
370
    20
100
AcDbLine
 10
1141.585792936018
 20
875.0764165267177
 30
0.0
 11
1207.032174619423
 21
878.9204697576687
 31
0.0
  0
LINE
  5
1BA
330
2
100
AcDbEntity
  8
0
 62
     7
370
    20
100
AcDbLine
 10
1207.032174619423
 20
878.9204697576687
 30
0.0
 11
1165.448980308736
 21
816.1616025683686
 31
0.0
  0
LINE
  5
1BB
330
2
100
AcDbEntity
  8
0
 62
     7
370
    20
100
AcDbLine
 10
1165.448980308736
 20
816.1616025683686
 30
0.0
 11
1151.106774100592
 21
824.043040610433
 31
0.0
  0
LINE
  5
1BC
330
2
100
AcDbEntity
  8
0
 62
     7
370
    20
100
AcDbLine
 10
1084.789881794995
 20
846.7883985605299
 30
0.0
 11
1169.112021113135
 21
853.7860797555307
 31
0.0
  0
LINE
  5
1BD
330
2
100
AcDbEntity
  8
0
 62
     7
370
    20
100
AcDbLine
 10
469.435068875603
 20
461.0892954062189
 30
0.0
 11
565.3411859499722
 21
461.0892954062189
 31
0.0
  0
LINE
  5
1BE
330
2
100
AcDbEntity
  8
0
 62
     7
370
    20
100
AcDbLine
 10
520.1799207408348
 20
462.055699187626
 30
0.0
 11
503.2794639818886
 21
444.7500754485246
 31
0.0
  0
LINE
  5
1BF
330
2
100
AcDbEntity
  8
0
 62
     7
370
    20
100
AcDbLine
 10
475.3937107078611
 20
442.2175441811998
 30
0.0
 11
471.1685984092865
 21
395.3657289109273
 31
0.0
  0
LINE
  5
1C0
330
2
100
AcDbEntity
  8
0
 62
     7
370
    20
100
AcDbLine
 10
474.9712025038626
 20
442.6396327257538
 30
0.0
 11
561.1635191145851
 21
446.4384263329316
 31
0.0
  0
LINE
  5
1C1
330
2
100
AcDbEntity
  8
0
 62
     7
370
    20
100
AcDbLine
 10
559.8959869379426
 20
447.2826034220396
 30
0.0
 11
557.3609225846556
 21
398.3203487228061
 31
0.0
  0
LINE
  5
1C2
330
2
100
AcDbEntity
  8
0
 62
     7
370
    20
100
AcDbLine
 10
472.4361381505762
 20
421.1131235411113
 30
0.0
 11
545.9531103009283
 21
424.9119171482886
 31
0.0
  0
LINE
  5
1C3
330
2
100
AcDbEntity
  8
0
 62
     7
370
    20
100
AcDbLine
 10
474.1261785312182
 20
408.4504704982967
 30
0.0
 11
541.7279980023538
 21
412.2492641054742
 31
0.0
  0
LINE
  5
1C4
330
2
100
AcDbEntity
  8
0
 62
     7
370
    20
100
AcDbLine
 10
472.4361381505762
 20
394.5215518218189
 30
0.0
 11
556.5158986120121
 21
399.5866110626591
 31
0.0
  0
LINE
  5
1C5
330
2
100
AcDbEntity
  8
0
 62
     7
370
    20
100
AcDbLine
 10
483.8439428696577
 20
377.6380133334618
 30
0.0
 11
571.3037992216706
 21
381.8588987790038
 31
0.0
  0
LINE
  5
1C6
330
2
100
AcDbEntity
  8
0
 62
     7
370
    20
100
AcDbLine
 10
496.5192797653817
 20
388.1902236535067
 30
0.0
 11
454.6906574189862
 21
365.8195373797555
 31
0.0
  0
LINE
  5
1C7
330
2
100
AcDbEntity
  8
0
 62
     7
370
    20
100
AcDbLine
 10
564.1210992365166
 20
375.949659155246
 30
0.0
 11
447.0854492298338
 21
337.1175262315018
 31
0.0
  0
LINE
  5
1C8
330
2
100
AcDbEntity
  8
0
 62
     7
370
    20
100
AcDbLine
 10
472.8586463545743
 20
370.4625113698511
 30
0.0
 11
549.7557143955045
 21
327.8315782513102
 31
0.0
  0
CIRCLE
  5
1C9
330
2
100
AcDbEntity
  8
0
 62
     1
100
AcDbCircle
 10
810.5520237064956
 20
500.3786841613736
 30
0.0
 40
75.00912940006402
  0
ELLIPSE
  5
1CA
330
2
100
AcDbEntity
  8
0
370
    80
100
AcDbEllipse
 10
1226.146283391124
 20
460.1909617250476
 30
0.0
 11
111.4383055765922
 21
-123.6094135160061
 31
0.0
210
0.0
220
0.0
230
1.0
 40
0.4723037810910514
 41
0.0
 42
6.283185307179585
  0
CIRCLE
  5
1E7
330
2
100
AcDbEntity
  8
0
 62
     1
100
AcDbCircle
 10
770.6634949429281
 20
291.7595403845107
 30
0.0
 40
75.00912940006402
  0
LINE
  5
1E8
330
2
100
AcDbEntity
  8
0
 62
     7
370
    20
100
AcDbLine
 10
200.6780830058478
 20
304.8295242532412
 30
0.0
 11
277.5751510467781
 21
262.1985911347003
 31
0.0
  0
LINE
  5
1E9
330
2
100
AcDbEntity
  8
0
 62
     7
370
    20
100
AcDbLine
 10
291.9405358877901
 20
310.3166720386361
 30
0.0
 11
174.9048858811073
 21
271.4845391148919
 31
0.0
  0
LINE
  5
1EA
330
2
100
AcDbEntity
  8
0
 62
     7
370
    20
100
AcDbLine
 10
224.3387164166552
 20
322.5572365368968
 30
0.0
 11
182.5100940702597
 21
300.1865502631456
 31
0.0
  0
LINE
  5
1EB
330
2
100
AcDbEntity
  8
0
 62
     7
370
    20
100
AcDbLine
 10
211.6633795209311
 20
312.0050262168519
 30
0.0
 11
299.1232358729441
 21
316.2259116623939
 31
0.0
  0
LINE
  5
1EC
330
2
100
AcDbEntity
  8
0
 62
     7
370
    20
100
AcDbLine
 10
200.2555748018497
 20
328.8885647052089
 30
0.0
 11
284.3353352632856
 21
333.9536239460492
 31
0.0
  0
LINE
  5
1ED
330
2
100
AcDbEntity
  8
0
 62
     7
370
    20
100
AcDbLine
 10
201.9456151824916
 20
342.8174833816868
 30
0.0
 11
269.5474346536273
 21
346.6162769888644
 31
0.0
  0
LINE
  5
1EE
330
2
100
AcDbEntity
  8
0
 62
     7
370
    20
100
AcDbLine
 10
200.2555748018497
 20
355.4801364245014
 30
0.0
 11
273.7725469522018
 21
359.2789300316787
 31
0.0
  0
LINE
  5
1EF
330
2
100
AcDbEntity
  8
0
 62
     7
370
    20
100
AcDbLine
 10
287.7154235892161
 20
381.6496163054298
 30
0.0
 11
285.1803592359291
 21
332.6873616061963
 31
0.0
  0
LINE
  5
1F0
330
2
100
AcDbEntity
  8
0
 62
     7
370
    20
100
AcDbLine
 10
202.7906391551361
 20
377.006645609144
 30
0.0
 11
288.9829557658586
 21
380.8054392163218
 31
0.0
  0
LINE
  5
1F1
330
2
100
AcDbEntity
  8
0
 62
     7
370
    20
100
AcDbLine
 10
203.2131473591345
 20
376.5845570645899
 30
0.0
 11
198.9880350605601
 21
329.7327417943173
 31
0.0
  0
LINE
  5
1F2
330
2
100
AcDbEntity
  8
0
 62
     7
370
    20
100
AcDbLine
 10
247.9993573921083
 20
396.4227120710161
 30
0.0
 11
231.0989006331622
 21
379.1170883319148
 31
0.0
  0
LINE
  5
1F3
330
2
100
AcDbEntity
  8
0
 62
     7
370
    20
100
AcDbLine
 10
197.2545055268766
 20
395.456308289609
 30
0.0
 11
293.1606226012457
 21
395.456308289609
 31
0.0
  0
CIRCLE
  5
1F4
330
2
100
AcDbEntity
  8
0
100
AcDbCircle
 10
458.5944081377774
 20
212.0623401882926
 30
0.0
 40
112.64474936365
  0
CIRCLE
  5
1F5
330
2
100
AcDbEntity
  8
0
100
AcDbCircle
 10
1127.313882146511
 20
183.9339171383167
 30
0.0
 40
87.79606596629751
  0
ELLIPSE
  5
1F6
330
2
100
AcDbEntity
  8
0
 62
     5
370
    80
100
AcDbEllipse
 10
1312.962500122257
 20
680.5302848508386
 30
0.0
 11
111.4383055765922
 21
-123.6094135160061
 31
0.0
210
0.0
220
0.0
230
1.0
 40
0.4723037810910514
 41
0.0
 42
6.283185307179585
  0
VIEWPORT
  5
DA
102
{ACAD_XDICTIONARY
360
1FF
102
}
330
C
100
AcDbEntity
 67
     1
  8
0
100
AcDbViewport
 10
420.5071835950612
 20
297.0009369707932
 30
0.0
 40
848.880193293653
 41
633.6711302051212
 68
     1
 69
     1
 12
420.5071835950612
 22
297.0009369707932
 13
0.0
 23
0.0
 14
10.0
 24
10.0
 15
10.0
 25
10.0
 16
0.0
 26
0.0
 36
1.0
 17
0.0
 27
0.0
 37
0.0
 42
50.0
 43
0.0
 44
0.0
 45
633.6711302051212
 50
0.0
 51
0.0
 72
  1000
 90
    32864
  1

281
     0
 71
     1
 74
     0
110
0.0
120
0.0
130
0.0
111
1.0
121
0.0
131
0.0
112
0.0
122
1.0
132
0.0
 79
     0
146
0.0
  0
ENDSEC
  0
SECTION
  2
OBJECTS
  0
DICTIONARY
  5
7
330
0
100
AcDbDictionary
281
     1
  3
ACAD_COLOR
350
DE
  3
ACAD_GROUP
350
20
  3
ACAD_LAYOUT
350
B
  3
ACAD_MATERIAL
350
DD
  3
ACAD_MLINESTYLE
350
21
  3
ACAD_PLOTSETTINGS
350
22
  3
ACAD_PLOTSTYLENAME
350
6
  3
ACDBHEADERROUNDTRIPXREC
350
1F8
  3
AcDbVariableDictionary
350
115
  0
DICTIONARY
  5
1FF
330
DA
100
AcDbDictionary
280
     1
281
     1
  3
ACAD_XREC_ROUNDTRIP
360
200
  0
DICTIONARY
  5
DE
102
{ACAD_REACTORS
330
7
102
}
330
7
100
AcDbDictionary
281
     1
  0
DICTIONARY
  5
20
102
{ACAD_REACTORS
330
7
102
}
330
7
100
AcDbDictionary
281
     1
  0
DICTIONARY
  5
B
102
{ACAD_REACTORS
330
7
102
}
330
7
100
AcDbDictionary
281
     1
  3
JIS A1 Title Block
350
F
  3
Model
350
A
  0
DICTIONARY
  5
DD
102
{ACAD_REACTORS
330
7
102
}
330
7
100
AcDbDictionary
281
     1
  0
DICTIONARY
  5
21
102
{ACAD_REACTORS
330
7
102
}
330
7
100
AcDbDictionary
281
     1
  3
Standard
350
23
  0
DICTIONARY
  5
22
102
{ACAD_REACTORS
330
7
102
}
330
7
100
AcDbDictionary
281
     1
  0
ACDBDICTIONARYWDFLT
  5
6
102
{ACAD_REACTORS
330
7
102
}
330
7
100
AcDbDictionary
281
     1
  3
Normal
350
5
100
AcDbDictionaryWithDefault
340
5
  0
DICTIONARY
  5
1F8
102
{ACAD_REACTORS
330
7
102
}
330
7
100
AcDbDictionary
281
     1
  3
COLORDICT
350
1FA
  3
MATERIALDICT
350
1F9
  0
DICTIONARY
  5
115
102
{ACAD_REACTORS
330
7
102
}
330
7
100
AcDbDictionary
281
     1
  3
DIMASSOC
350
116
  3
PROJECTNAME
350
117
  0
XRECORD
  5
200
102
{ACAD_REACTORS
330
1FF
102
}
330
1FF
100
AcDbXrecord
280
     1
102
SHADEPLOT
 70
     0
  0
LAYOUT
  5
F
102
{ACAD_XDICTIONARY
360
1FD
102
}
102
{ACAD_REACTORS
330
B
102
}
330
B
100
AcDbPlotSettings
  1

  2
none_device
  4
ISO_A1_(594.00_x_841.00_MM)
  6

 40
7.549999999999998
 41
20.05
 42
7.549999999999998
 43
20.05
 44
594.0
 45
841.0
 46
-7.559999999999997
 47
-20.07
 48
0.0
 49
0.0
140
0.0
141
0.0
142
1.0
143
1.0
 70
   692
 72
     1
 73
     1
 74
     1
  7

 75
    16
147
1.0
148
0.0128164049386896
149
0.0090630292066862
100
AcDbLayout
  1
JIS A1 Title Block
 70
     1
 71
     1
 10
0.0071835950613099
 20
0.0009369707933136
 11
841.0071835950612
 21
594.0009369707931
 12
0.0
 22
0.0
 32
0.0
 14
1.000000000000000E+20
 24
1.000000000000000E+20
 34
1.000000000000000E+20
 15
-1.000000000000000E+20
 25
-1.000000000000000E+20
 35
-1.000000000000000E+20
146
0.0
 13
0.0
 23
0.0
 33
0.0
 16
1.0
 26
0.0
 36
0.0
 17
0.0
 27
1.0
 37
0.0
 76
     0
330
C
331
DA
  0
LAYOUT
  5
A
102
{ACAD_XDICTIONARY
360
1FB
102
}
102
{ACAD_REACTORS
330
B
102
}
330
B
100
AcDbPlotSettings
  1

  2
none_device
  4
ANSI_A_(8.50_x_11.00_Inches)
  6

 40
6.349999904632567
 41
19.04999923706055
 42
6.350006103515625
 43
19.04998779296875
 44
215.8999938964844
 45
279.3999938964844
 46
28.79458090408706
 47
17.57028564415653
 48
0.0
 49
0.0
140
0.0
141
0.0
142
1.0
143
103.6285708313174
 70
 11956
 72
     0
 73
     1
 74
     1
  7

 75
     0
147
0.0096498484151418
148
1.303736702137707
149
0.9208318680958655
100
AcDbLayout
  1
Model
 70
     1
 71
     0
 10
0.0
 20
0.0
 11
12.0
 21
9.0
 12
0.0
 22
0.0
 32
0.0
 14
0.0
 24
0.0
 34
0.0
 15
0.0
 25
0.0
 35
0.0
146
0.0
 13
0.0
 23
0.0
 33
0.0
 16
1.0
 26
0.0
 36
0.0
 17
0.0
 27
1.0
 37
0.0
 76
     0
330
2
  0
MLINESTYLE
  5
23
102
{ACAD_REACTORS
330
21
102
}
330
21
100
AcDbMlineStyle
  2
STANDARD
 70
     0
  3

 62
   256
 51
90.0
 52
90.0
 71
     2
 49
0.5
 62
   256
  6
BYLAYER
 49
-0.5
 62
   256
  6
BYLAYER
  0
ACDBPLACEHOLDER
  5
5
102
{ACAD_REACTORS
330
6
102
}
330
6
  0
XRECORD
  5
1FA
102
{ACAD_REACTORS
330
1F8
102
}
330
1F8
100
AcDbXrecord
280
     1
340
DE
  0
XRECORD
  5
1F9
102
{ACAD_REACTORS
330
1F8
102
}
330
1F8
100
AcDbXrecord
280
     1
340
DD
  0
DICTIONARYVAR
  5
116
102
{ACAD_REACTORS
330
115
102
}
330
115
100
DictionaryVariables
280
     0
  1
1
  0
DICTIONARYVAR
  5
117
102
{ACAD_REACTORS
330
115
102
}
330
115
100
DictionaryVariables
280
     0
  1

  0
DICTIONARY
  5
1FD
330
F
100
AcDbDictionary
280
     1
281
     1
  3
ACAD_XREC_ROUNDTRIP
360
1FE
  0
DICTIONARY
  5
1FB
330
A
100
AcDbDictionary
280
     1
281
     1
  3
ACAD_XREC_ROUNDTRIP
360
1FC
  0
XRECORD
  5
1FE
102
{ACAD_REACTORS
330
1FD
102
}
330
1FD
100
AcDbXrecord
280
     1
102
SHADEPLOT
 70
     0
102
SHADEPLOTRESLEVEL
 70
     2
102
SHADEPLOTCUSTOMDPI
 70
   300
  0
XRECORD
  5
1FC
102
{ACAD_REACTORS
330
1FB
102
}
330
1FB
100
AcDbXrecord
280
     1
102
SHADEPLOT
 70
     0
102
SHADEPLOTRESLEVEL
 70
     2
102
SHADEPLOTCUSTOMDPI
 70
   300
  0
ENDSEC
  0
EOF
